<?xml version="1.0" encoding="UTF-8" standalone="no"?><!DOCTYPE svg PUBLIC "-//W3C//DTD SVG 1.1//EN" "http://www.w3.org/Graphics/SVG/1.1/DTD/svg11.dtd"><svg width="100%" height="100%" viewBox="0 0 1377 1360" version="1.1" xmlns="http://www.w3.org/2000/svg" xmlns:xlink="http://www.w3.org/1999/xlink" xml:space="preserve" xmlns:serif="http://www.serif.com/" style="fill-rule:evenodd;clip-rule:evenodd;stroke-linejoin:round;stroke-miterlimit:2;"><path d="M1093.229,18.623l0,29.167c-5.156,0.086 -21.426,0.357 -24.414,0.407c-8.919,-0.407 -8.919,-0.407 -16.569,-2.425c-12.61,-3.005 -24.714,-3.186 -37.663,-3.451c-7.46,-0.234 -7.46,-0.234 -15.072,-0.472c-46.294,5.619 -78.892,60.913 -105.729,95.085c-13.949,17.04 -28.972,33.05 -43.945,49.186c-8.531,9.24 -16.882,18.559 -25.098,28.076c-21.033,24.223 -43.01,47.596 -64.844,71.094c-2.473,2.667 -4.947,5.335 -7.495,8.083c-7.651,8.249 -15.311,16.491 -22.974,24.729c-2.342,2.525 -4.684,5.049 -7.097,7.651c-11.833,12.696 -23.834,25.137 -36.197,37.32c-10.303,10.233 -19.56,20.556 -28.06,32.373c-2.057,2.831 -4.114,5.661 -6.234,8.577c-1.466,2.068 -2.933,4.136 -4.443,6.266c3.309,2.009 6.617,4.018 10.026,6.087c6.381,3.948 6.381,3.948 12.891,7.975c4.254,2.61 8.508,5.221 12.891,7.91c4.963,3.561 4.963,3.561 10.026,7.194l0,8.333c3.378,-1.504 6.757,-3.008 10.238,-4.557c29.964,-12.558 57.136,-23.073 89.762,-16.276c25.857,10.928 45.709,28.147 66.097,47.005c10.204,8.208 20.671,13.74 32.34,19.661c25.358,13.381 41.905,26.157 51.66,53.711c3.135,11.217 5.885,22.385 8.236,33.789c3.078,-2.825 6.155,-5.65 9.326,-8.561c53.541,-49.13 107.476,-97.635 162.712,-144.857c10.08,-8.622 20.126,-17.281 30.143,-25.977c29.132,-25.237 58.785,-49.586 89.242,-73.21c4.206,-3.266 8.411,-6.531 12.744,-9.896c5.922,-4.109 5.922,-4.109 11.963,-8.301c9.662,-7.59 9.662,-7.59 11.344,-18.555c-0.962,-27.499 -5.544,-51.434 -14.974,-77.311c-4.764,0.048 -9.528,0.097 -14.437,0.146c-6.212,0.039 -12.424,0.077 -18.636,0.114c-3.145,0.035 -6.29,0.07 -9.53,0.106c-8.022,0.036 -16.045,-0.149 -24.064,-0.366c-1.375,-1.375 -2.75,-2.75 -4.167,-4.167c0.212,-8.496 0.212,-8.496 1.302,-19.271c0.328,-3.491 0.655,-6.982 0.993,-10.579c2.229,-14.075 6.083,-27.355 10.205,-40.983c-29.281,-31.874 -56.95,-55.117 -95.833,-75c3.646,-19.792 3.646,-19.792 8.333,-29.167c41.871,0 72.571,34.093 100.521,61.979c19.604,19.937 19.604,19.937 24.479,29.688c-0.259,6.872 -0.82,13.736 -1.562,20.573c-0.376,3.647 -0.752,7.294 -1.139,11.051c-1.465,10.042 -1.465,10.042 -5.632,22.542c2.514,-0.097 5.027,-0.193 7.617,-0.293c3.33,-0.075 6.66,-0.15 10.091,-0.228c4.931,-0.145 4.931,-0.145 9.961,-0.293c11.234,0.93 17.219,2.736 26.497,9.147c6.038,9.196 6.038,9.196 11.198,20.052c2.602,5.325 2.602,5.325 5.257,10.758c8.373,20.762 9.528,40.649 10.107,62.939c0.204,5.371 0.408,10.742 0.618,16.276c-2.706,18.576 -8.829,24.026 -23.014,35.807c-3.48,3.738 -3.48,3.738 -7.031,7.552c-5.469,4.948 -5.469,4.948 -13.802,4.948c22.009,26.488 67.478,34.652 100,41.667c1.375,8.25 2.75,16.5 4.167,25c-26.889,19.521 -54.534,37.492 -82.899,54.765c-13.794,8.474 -27.096,17.092 -39.855,27.071c-28.182,21.865 -47.672,30.522 -83.968,27.816c-3.282,-0.435 -6.563,-0.87 -9.945,-1.318l0,37.5c-8.25,4.125 -8.25,4.125 -16.667,8.333c-1.375,-4.125 -2.75,-8.25 -4.167,-12.5c-6.188,10.312 -6.188,10.312 -12.5,20.833c-5.732,-5.374 -11.282,-10.945 -16.667,-16.667l0,-8.333c6.188,-4.125 6.188,-4.125 12.5,-8.333c3.923,-9.771 3.923,-9.771 6.51,-20.833c5.142,-19.985 5.142,-19.985 14.323,-29.167c8.238,-0.413 16.491,-0.54 24.74,-0.521c27.602,-1.784 41.693,-9.7 62.809,-26.937c14.909,-12.025 30.564,-22.461 46.566,-32.959c5.442,-3.602 10.884,-7.204 16.325,-10.807c3.98,-2.621 7.96,-5.242 12.061,-7.943c-7.971,-4.8 -15.961,-9.568 -23.958,-14.323c-4.447,-2.659 -8.895,-5.317 -13.477,-8.057c-13.947,-8.426 -13.947,-8.426 -29.232,-10.954c-9.23,6.457 -17.015,12.759 -25.26,20.312c-4.852,4.284 -9.708,8.565 -14.567,12.842c-2.416,2.152 -4.833,4.304 -7.322,6.521c-9.908,8.696 -20.169,16.925 -30.455,25.169c-19.855,16.156 -38.799,33.145 -57.65,50.456c-18.827,17.263 -38.105,33.974 -57.617,50.456c-22.674,19.183 -45.33,38.435 -67.025,58.724c-2.954,2.739 -5.908,5.479 -8.952,8.301c-8.109,11.713 -6.647,19.928 -6.152,33.887c-2.75,2.75 -5.5,5.5 -8.333,8.333c-0.516,-2.664 -1.031,-5.328 -1.562,-8.073c-0.859,-2.836 -1.719,-5.672 -2.604,-8.594c-2.75,-1.375 -5.5,-2.75 -8.333,-4.167c0.596,5.269 0.596,5.269 1.204,10.645c0.462,4.565 0.924,9.131 1.4,13.835c0.483,4.544 0.967,9.088 1.465,13.77c0.032,3.878 0.064,7.756 0.098,11.751c-8.333,8.333 -8.333,8.333 -16.667,8.333c-0.234,-4.238 -0.234,-4.238 -0.472,-8.561c-1.712,-24.235 -5.697,-45.3 -13.33,-68.311c-3.165,-11.742 -4.169,-22.722 -4.948,-34.847c-1.382,-17.576 -2.289,-29.001 -14.583,-42.448c-8.657,-6.418 -17.53,-12.264 -26.644,-18.018c-11.866,-7.632 -23.188,-15.812 -34.554,-24.17c-3.873,-2.804 -7.745,-5.607 -11.735,-8.496c-5.941,-4.37 -11.83,-8.816 -17.546,-13.477c-14.512,-11.336 -26.671,-13.29 -44.499,-12.484c-17.547,2.657 -33.968,8.216 -50.765,13.835c-18.562,5.827 -37.347,9.571 -56.445,13.2c-21.941,6.916 -32.451,18.571 -43.376,38.216c-3.559,6.898 -7.068,13.822 -10.531,20.768c-1.754,3.421 -3.507,6.843 -5.314,10.368c-3.471,6.792 -6.915,13.598 -10.329,20.418c-3.22,6.427 -6.478,12.835 -9.778,19.222c-1.488,2.898 -2.977,5.795 -4.51,8.781c-1.313,2.534 -2.626,5.068 -3.978,7.678c-3.533,7.949 -5.628,15.676 -7.496,24.158l-8.333,0c-0.595,-30.952 -0.595,-30.952 4.167,-45.833c-10.53,14.04 -15.391,26.381 -14.827,44.124c4.202,18.131 14.955,33.282 24.235,49.251c10.132,20.878 13.253,40.813 16.423,63.656c3.868,16 8.23,23.197 20.003,34.635c13.152,7.541 13.152,7.541 27.865,13.802c23.731,10.999 42.108,23.627 61.003,42.025c12.396,11.874 22.684,11.923 39.585,11.694c14.354,-1.356 26.932,-6.683 40.037,-12.313c34.722,-14.037 69.93,-22.512 106.51,-30.208c1.375,5.5 2.75,11 4.167,16.667l8.333,0l0,12.5l8.333,0c2.31,3.652 4.619,7.305 6.999,11.068c10.322,16.24 23.763,25.913 39.355,36.849c2.753,1.976 5.506,3.951 8.342,5.987c21.351,15.156 43.26,29.173 66.137,41.93c1.031,-4.641 2.062,-9.281 3.125,-14.062c5.208,-15.104 5.208,-15.104 14.062,-21.094c2.578,-0.773 5.156,-1.547 7.812,-2.344c1.868,23.819 -1.525,32.105 -16.667,50c-3.32,13.282 -3.32,13.282 -4.167,25c-24.755,-1.593 -39.692,-12.735 -59.115,-26.823c-2.962,-2.097 -5.924,-4.195 -8.976,-6.356c-5.493,-3.891 -10.972,-7.8 -16.434,-11.734c-6.459,-4.601 -13.044,-9.022 -19.642,-13.421c1.07,2.674 2.14,5.348 3.243,8.103c11.664,30.387 18.966,60.456 24.882,92.417c0.918,4.646 1.837,9.292 2.783,14.079c4.962,26.167 7.605,50.443 6.592,77.067c-16.575,4.797 -23.241,5.032 -38.997,-2.718c-4.756,-3.103 -9.465,-6.279 -14.128,-9.521c-15.89,-12.143 -15.89,-12.143 -34.375,-16.927c-7.288,10.12 -14.13,20.233 -20.833,30.729c-3.724,5.767 -7.457,11.529 -11.198,17.285c-1.649,2.575 -3.298,5.15 -4.997,7.802c-4.639,6.683 -4.639,6.683 -12.972,15.017c-10.938,-1.562 -10.938,-1.562 -20.833,-4.167c-7.416,-22.862 -10.159,-44.33 -11.979,-68.229c-2.989,-34.428 -8.981,-67.072 -17.594,-100.505c-3.035,-11.784 -5.692,-23.477 -7.926,-35.433c-32.629,31.577 -61.861,66.222 -90.338,101.532c-6.223,7.703 -12.474,15.383 -18.728,23.061c-2.313,2.842 -4.626,5.683 -7.009,8.611c-4.721,5.799 -9.445,11.595 -14.172,17.389c-12.909,15.857 -25.52,31.892 -37.982,48.105c-13.367,16.653 -25.526,28.388 -44.271,38.802c-14.323,1.302 -14.323,1.302 -25,0c0.688,2.836 1.375,5.672 2.083,8.594c6.732,39.553 -5.551,56.849 -28.125,89.583c-2.841,4.23 -5.683,8.459 -8.61,12.817c-5.462,8.119 -10.954,16.218 -16.479,24.294c-5.769,8.447 -11.435,16.942 -17.033,25.503c-6.836,10.042 -6.836,10.042 -15.169,18.376c-78.631,11.918 -149.091,-12.319 -216.667,-50c-4.12,-2.272 -8.239,-4.544 -12.484,-6.885c-33.136,-19.67 -60.265,-45.336 -87.516,-72.282c-3.658,-3.556 -7.315,-7.111 -11.084,-10.775c-57.149,-58.87 -107.978,-146.106 -111.312,-229.59c1.505,-34.671 13.959,-61.021 39.062,-84.635c10.865,-9.349 21.93,-18.375 33.138,-27.311c13.226,-10.615 26.119,-21.554 38.997,-32.585c18.992,-16.205 38.358,-31.82 58.073,-47.135c22.701,-17.648 44.356,-36.107 65.625,-55.469c5.457,-4.787 10.926,-9.562 16.406,-14.323c15.96,-13.929 31.693,-28.1 47.396,-42.318c8.958,-8.02 17.988,-15.931 27.067,-23.812c20.341,-17.764 39.901,-36.315 59.497,-54.891c2.763,-2.608 5.527,-5.215 8.374,-7.902c4.045,-3.844 4.045,-3.844 8.173,-7.766c8.087,-7.322 8.087,-7.322 16.353,-13.652c2.595,-1.988 5.19,-3.976 7.863,-6.024c2.312,-1.654 4.624,-3.308 7.006,-5.012c7.347,-8.146 7.347,-8.146 9.403,-23.311c4.611,-20.757 15.673,-31.732 30.71,-46.14c2.538,-2.523 5.076,-5.045 7.692,-7.644c5.344,-5.288 10.717,-10.546 16.118,-15.775c8.259,-7.998 16.425,-16.083 24.579,-24.188c5.219,-5.143 10.444,-10.281 15.674,-15.413c2.44,-2.404 4.88,-4.809 7.393,-7.286c16.161,-15.601 28.122,-24.463 50.452,-29.335c18.982,-6.66 23.707,-14.476 35.677,-30.208l8.333,0c1.097,-2.459 2.195,-4.917 3.325,-7.45c5.225,-9.615 10.641,-15.747 18.468,-23.344c2.643,-2.594 5.286,-5.188 8.009,-7.861c2.798,-2.712 5.596,-5.425 8.479,-8.219c5.747,-5.657 11.488,-11.32 17.22,-16.992c2.579,-2.531 5.158,-5.062 7.815,-7.67c10.038,-10.187 19.444,-20.836 28.66,-31.767c11.846,-13.576 24.305,-26.563 36.67,-39.665c20.286,-21.559 39.511,-43.572 57.992,-66.715c10.278,-12.461 21.112,-24.331 32.113,-36.149c23.724,-25.506 46.017,-52.125 67.269,-79.736c39.073,-49.176 115.462,-46.607 168.148,-20.264Z" style="fill:#fcfcfb;fill-rule:nonzero;"/><path d="M1093.229,18.623l0,29.167c-5.156,0.086 -21.426,0.357 -24.414,0.407c-8.919,-0.407 -8.919,-0.407 -16.569,-2.425c-12.61,-3.005 -24.714,-3.186 -37.663,-3.451c-7.46,-0.234 -7.46,-0.234 -15.072,-0.472c-46.294,5.619 -78.892,60.913 -105.729,95.085c-13.949,17.04 -28.972,33.05 -43.945,49.186c-8.531,9.24 -16.882,18.559 -25.098,28.076c-21.033,24.223 -43.01,47.596 -64.844,71.094c-2.473,2.667 -4.947,5.335 -7.495,8.083c-7.651,8.249 -15.311,16.491 -22.974,24.729c-2.342,2.525 -4.684,5.049 -7.097,7.651c-11.833,12.696 -23.834,25.137 -36.197,37.32c-10.303,10.233 -19.56,20.556 -28.06,32.373c-2.057,2.831 -4.114,5.661 -6.234,8.577c-1.466,2.068 -2.933,4.136 -4.443,6.266c3.309,2.009 6.617,4.018 10.026,6.087c6.381,3.948 6.381,3.948 12.891,7.975c4.254,2.61 8.508,5.221 12.891,7.91c4.963,3.561 4.963,3.561 10.026,7.194l0,8.333c3.378,-1.504 6.757,-3.008 10.238,-4.557c29.964,-12.558 57.136,-23.073 89.762,-16.276c25.857,10.928 45.709,28.147 66.097,47.005c10.204,8.208 20.671,13.74 32.34,19.661c25.358,13.381 41.905,26.157 51.66,53.711c3.135,11.217 5.885,22.385 8.236,33.789c3.078,-2.825 6.155,-5.65 9.326,-8.561c53.541,-49.13 107.476,-97.635 162.712,-144.857c10.08,-8.622 20.126,-17.281 30.143,-25.977c29.132,-25.237 58.785,-49.586 89.242,-73.21c4.206,-3.266 8.411,-6.531 12.744,-9.896c5.922,-4.109 5.922,-4.109 11.963,-8.301c9.662,-7.59 9.662,-7.59 11.344,-18.555c-0.962,-27.499 -5.544,-51.434 -14.974,-77.311c-4.764,0.048 -9.528,0.097 -14.437,0.146c-6.212,0.039 -12.424,0.077 -18.636,0.114c-3.145,0.035 -6.29,0.07 -9.53,0.106c-8.022,0.036 -16.045,-0.149 -24.064,-0.366c-1.375,-1.375 -2.75,-2.75 -4.167,-4.167c0.212,-8.496 0.212,-8.496 1.302,-19.271c0.328,-3.491 0.655,-6.982 0.993,-10.579c2.229,-14.075 6.083,-27.355 10.205,-40.983c-29.281,-31.874 -56.95,-55.117 -95.833,-75c3.646,-19.792 3.646,-19.792 8.333,-29.167c41.871,0 72.571,34.093 100.521,61.979c19.604,19.937 19.604,19.937 24.479,29.688c-0.259,6.872 -0.82,13.736 -1.562,20.573c-0.376,3.647 -0.752,7.294 -1.139,11.051c-1.465,10.042 -1.465,10.042 -5.632,22.542c2.514,-0.097 5.027,-0.193 7.617,-0.293c3.33,-0.075 6.66,-0.15 10.091,-0.228c4.931,-0.145 4.931,-0.145 9.961,-0.293c11.234,0.93 17.219,2.736 26.497,9.147c6.038,9.196 6.038,9.196 11.198,20.052c2.602,5.325 2.602,5.325 5.257,10.758c8.373,20.762 9.528,40.649 10.107,62.939c0.204,5.371 0.408,10.742 0.618,16.276c-2.706,18.576 -8.829,24.026 -23.014,35.807c-3.48,3.738 -3.48,3.738 -7.031,7.552c-5.469,4.948 -5.469,4.948 -13.802,4.948c22.009,26.488 67.478,34.652 100,41.667c1.375,8.25 2.75,16.5 4.167,25c-26.889,19.521 -54.534,37.492 -82.899,54.765c-13.794,8.474 -27.096,17.092 -39.855,27.071c-28.182,21.865 -47.672,30.522 -83.968,27.816c-3.282,-0.435 -6.563,-0.87 -9.945,-1.318l0,37.5c-8.25,4.125 -8.25,4.125 -16.667,8.333c-1.375,-4.125 -2.75,-8.25 -4.167,-12.5c-6.188,10.312 -6.188,10.312 -12.5,20.833c-5.732,-5.374 -11.282,-10.945 -16.667,-16.667l0,-8.333c6.188,-4.125 6.188,-4.125 12.5,-8.333c3.923,-9.771 3.923,-9.771 6.51,-20.833c5.142,-19.985 5.142,-19.985 14.323,-29.167c8.238,-0.413 16.491,-0.54 24.74,-0.521c27.602,-1.784 41.693,-9.7 62.809,-26.937c14.909,-12.025 30.564,-22.461 46.566,-32.959c5.442,-3.602 10.884,-7.204 16.325,-10.807c3.98,-2.621 7.96,-5.242 12.061,-7.943c-7.971,-4.8 -15.961,-9.568 -23.958,-14.323c-4.447,-2.659 -8.895,-5.317 -13.477,-8.057c-13.947,-8.426 -13.947,-8.426 -29.232,-10.954c-9.23,6.457 -17.015,12.759 -25.26,20.312c-4.852,4.284 -9.708,8.565 -14.567,12.842c-2.416,2.152 -4.833,4.304 -7.322,6.521c-9.908,8.696 -20.169,16.925 -30.455,25.169c-19.855,16.156 -38.799,33.145 -57.65,50.456c-18.827,17.263 -38.105,33.974 -57.617,50.456c-22.674,19.183 -45.33,38.435 -67.025,58.724c-2.954,2.739 -5.908,5.479 -8.952,8.301c-8.109,11.713 -6.647,19.928 -6.152,33.887c-2.75,2.75 -5.5,5.5 -8.333,8.333c-0.516,-2.664 -1.031,-5.328 -1.562,-8.073c-0.859,-2.836 -1.719,-5.672 -2.604,-8.594c-2.75,-1.375 -5.5,-2.75 -8.333,-4.167c0.596,5.269 0.596,5.269 1.204,10.645c0.462,4.565 0.924,9.131 1.4,13.835c0.483,4.544 0.967,9.088 1.465,13.77c0.032,3.878 0.064,7.756 0.098,11.751c-8.333,8.333 -8.333,8.333 -16.667,8.333c-0.234,-4.238 -0.234,-4.238 -0.472,-8.561c-1.712,-24.235 -5.697,-45.3 -13.33,-68.311c-3.165,-11.742 -4.169,-22.722 -4.948,-34.847c-1.382,-17.576 -2.289,-29.001 -14.583,-42.448c-8.657,-6.418 -17.53,-12.264 -26.644,-18.018c-11.866,-7.632 -23.188,-15.812 -34.554,-24.17c-3.873,-2.804 -7.745,-5.607 -11.735,-8.496c-5.941,-4.37 -11.83,-8.816 -17.546,-13.477c-14.512,-11.336 -26.671,-13.29 -44.499,-12.484c-17.547,2.657 -33.968,8.216 -50.765,13.835c-18.562,5.827 -37.347,9.571 -56.445,13.2c-21.941,6.916 -32.451,18.571 -43.376,38.216c-3.559,6.898 -7.068,13.822 -10.531,20.768c-1.754,3.421 -3.507,6.843 -5.314,10.368c-3.471,6.792 -6.915,13.598 -10.329,20.418c-3.22,6.427 -6.478,12.835 -9.778,19.222c-1.488,2.898 -2.977,5.795 -4.51,8.781c-1.313,2.534 -2.626,5.068 -3.978,7.678c-3.533,7.949 -5.628,15.676 -7.496,24.158l-8.333,0c-0.595,-30.952 -0.595,-30.952 4.167,-45.833c-10.53,14.04 -15.391,26.381 -14.827,44.124c4.202,18.131 14.955,33.282 24.235,49.251c10.132,20.878 13.253,40.813 16.423,63.656c3.868,16 8.23,23.197 20.003,34.635c13.152,7.541 13.152,7.541 27.865,13.802c23.731,10.999 42.108,23.627 61.003,42.025c12.396,11.874 22.684,11.923 39.585,11.694c14.354,-1.356 26.932,-6.683 40.037,-12.313c34.722,-14.037 69.93,-22.512 106.51,-30.208c1.375,5.5 2.75,11 4.167,16.667l8.333,0l0,12.5l8.333,0c2.31,3.652 4.619,7.305 6.999,11.068c10.322,16.24 23.763,25.913 39.355,36.849c2.753,1.976 5.506,3.951 8.342,5.987c21.351,15.156 43.26,29.173 66.137,41.93c1.031,-4.641 2.062,-9.281 3.125,-14.062c5.208,-15.104 5.208,-15.104 14.062,-21.094c2.578,-0.773 5.156,-1.547 7.812,-2.344c1.868,23.819 -1.525,32.105 -16.667,50c-3.32,13.282 -3.32,13.282 -4.167,25c-24.755,-1.593 -39.692,-12.735 -59.115,-26.823c-2.962,-2.097 -5.924,-4.195 -8.976,-6.356c-5.493,-3.891 -10.972,-7.8 -16.434,-11.734c-6.459,-4.601 -13.044,-9.022 -19.642,-13.421c1.07,2.674 2.14,5.348 3.243,8.103c11.664,30.387 18.966,60.456 24.882,92.417c0.918,4.646 1.837,9.292 2.783,14.079c4.962,26.167 7.605,50.443 6.592,77.067c-16.575,4.797 -23.241,5.032 -38.997,-2.718c-4.756,-3.103 -9.465,-6.279 -14.128,-9.521c-15.89,-12.143 -15.89,-12.143 -34.375,-16.927c-7.288,10.12 -14.13,20.233 -20.833,30.729c-3.724,5.767 -7.457,11.529 -11.198,17.285c-1.649,2.575 -3.298,5.15 -4.997,7.802c-4.639,6.683 -4.639,6.683 -12.972,15.017c-10.938,-1.562 -10.938,-1.562 -20.833,-4.167c-7.416,-22.862 -10.159,-44.33 -11.979,-68.229c-2.989,-34.428 -8.981,-67.072 -17.594,-100.505c-3.035,-11.784 -5.692,-23.477 -7.926,-35.433c-32.629,31.577 -61.861,66.222 -90.338,101.532c-6.223,7.703 -12.474,15.383 -18.728,23.061c-2.313,2.842 -4.626,5.683 -7.009,8.611c-4.721,5.799 -9.445,11.595 -14.172,17.389c-12.909,15.857 -25.52,31.892 -37.982,48.105c-13.367,16.653 -25.526,28.388 -44.271,38.802c-14.323,1.302 -14.323,1.302 -25,0c0.688,2.836 1.375,5.672 2.083,8.594c6.732,39.553 -5.551,56.849 -28.125,89.583c-2.841,4.23 -5.683,8.459 -8.61,12.817c-5.462,8.119 -10.954,16.218 -16.479,24.294c-5.769,8.447 -11.435,16.942 -17.033,25.503c-6.836,10.042 -6.836,10.042 -15.169,18.376c-78.631,11.918 -149.091,-12.319 -216.667,-50c-4.12,-2.272 -8.239,-4.544 -12.484,-6.885c-33.136,-19.67 -60.265,-45.336 -87.516,-72.282c-3.658,-3.556 -7.315,-7.111 -11.084,-10.775c-57.149,-58.87 -107.978,-146.106 -111.312,-229.59c1.505,-34.671 13.959,-61.021 39.062,-84.635c10.865,-9.349 21.93,-18.375 33.138,-27.311c13.226,-10.615 26.119,-21.554 38.997,-32.585c18.992,-16.205 38.358,-31.82 58.073,-47.135c22.701,-17.648 44.356,-36.107 65.625,-55.469c5.457,-4.787 10.926,-9.562 16.406,-14.323c15.96,-13.929 31.693,-28.1 47.396,-42.318c8.958,-8.02 17.988,-15.931 27.067,-23.812c20.341,-17.764 39.901,-36.315 59.497,-54.891c2.763,-2.608 5.527,-5.215 8.374,-7.902c4.045,-3.844 4.045,-3.844 8.173,-7.766c8.087,-7.322 8.087,-7.322 16.353,-13.652c2.595,-1.988 5.19,-3.976 7.863,-6.024c2.312,-1.654 4.624,-3.308 7.006,-5.012c7.347,-8.146 7.347,-8.146 9.403,-23.311c4.611,-20.757 15.673,-31.732 30.71,-46.14c2.538,-2.523 5.076,-5.045 7.692,-7.644c5.344,-5.288 10.717,-10.546 16.118,-15.775c8.259,-7.998 16.425,-16.083 24.579,-24.188c5.219,-5.143 10.444,-10.281 15.674,-15.413c2.44,-2.404 4.88,-4.809 7.393,-7.286c16.161,-15.601 28.122,-24.463 50.452,-29.335c18.982,-6.66 23.707,-14.476 35.677,-30.208l8.333,0c1.097,-2.459 2.195,-4.917 3.325,-7.45c5.225,-9.615 10.641,-15.747 18.468,-23.344c2.643,-2.594 5.286,-5.188 8.009,-7.861c2.798,-2.712 5.596,-5.425 8.479,-8.219c5.747,-5.657 11.488,-11.32 17.22,-16.992c2.579,-2.531 5.158,-5.062 7.815,-7.67c10.038,-10.187 19.444,-20.836 28.66,-31.767c11.846,-13.576 24.305,-26.563 36.67,-39.665c20.286,-21.559 39.511,-43.572 57.992,-66.715c10.278,-12.461 21.112,-24.331 32.113,-36.149c23.724,-25.506 46.017,-52.125 67.269,-79.736c39.073,-49.176 115.462,-46.607 168.148,-20.264Zm-623.73,554.932c-2.964,2.817 -5.928,5.634 -8.982,8.536c-3.127,3.032 -6.253,6.065 -9.475,9.189c-4.811,4.593 -4.811,4.593 -9.719,9.278c-16.103,15.423 -31.977,31.034 -47.573,46.972c-16.358,16.643 -34.174,31.034 -52.376,45.605c-8.992,7.452 -17.14,15.008 -25.228,23.405c-14.679,15.164 -30.84,28.087 -47.266,41.309c-15.112,12.261 -29.743,25.06 -44.401,37.858c-22.068,19.246 -44.403,38.04 -67.139,56.494c-13.269,10.793 -26.327,21.725 -39.111,33.089l0,4.167c19.25,4.125 38.5,8.25 58.333,12.5l0,8.333c-4.125,2.062 -4.125,2.062 -8.333,4.167l0,16.667c-5.07,-1.375 -10.141,-2.75 -15.365,-4.167c-30.355,-6.628 -62.738,-10.481 -91.406,2.865c-13.169,12.822 -21.502,23.589 -23.91,42.122c1.632,94.883 53.989,171.656 118.18,238.346c2.385,2.696 4.77,5.393 7.227,8.171c48.078,52.787 127.128,93.135 196.94,104.329c5.027,1.155 10.055,2.31 15.234,3.499c18.584,2.587 29.528,2.932 47.266,-3.499c19.574,-19.688 32.004,-44.988 44.61,-69.449c5.065,-9.131 10.623,-16.922 17.06,-25.115c10.324,-15.513 11.529,-23.776 11.507,-42.155c0.016,-14.144 0.016,-14.144 1.823,-25.781c9.708,-7.705 18.866,-8.815 31.022,-11.475c17.707,-6.207 24.921,-15.015 35.124,-29.932c3.58,-4.936 7.166,-9.868 10.758,-14.795c1.77,-2.469 3.541,-4.937 5.365,-7.481c7.694,-10.52 15.938,-20.546 24.241,-30.589c3.072,-3.722 6.145,-7.444 9.31,-11.279c3.029,-3.668 6.059,-7.337 9.18,-11.117c5.99,-7.378 11.98,-14.757 17.969,-22.135c14.791,-18.081 29.851,-35.91 45.052,-53.646c2.127,-2.488 4.255,-4.976 6.446,-7.539c13.828,-16.117 27.946,-31.914 42.577,-47.311c6.173,-7.793 6.173,-7.793 4.622,-23.535c-14.915,-3.494 -26.789,-3.937 -41.667,0c-15.459,13.136 -27.891,27.797 -40.489,43.626c-5.306,6.328 -11.216,12.132 -17.112,17.914c-10.036,8.124 -10.036,8.124 -9.066,17.627c-4.125,1.375 -8.25,2.75 -12.5,4.167c-6.442,6.196 -6.442,6.196 -12.76,14.062c-12.146,14.328 -24.559,28.329 -37.24,42.188c-20.955,23.003 -41.737,46.07 -61.393,70.199c-2.028,2.463 -4.056,4.927 -6.145,7.465c-4.039,4.914 -8.047,9.854 -12.018,14.823c-14.125,17.119 -14.125,17.119 -25.994,21.592c-2.293,0.167 -4.587,0.333 -6.95,0.505c-1.302,-11.198 -1.302,-11.198 0,-25c6.743,-7.14 13.736,-14.045 20.833,-20.833c3.874,-6.347 7.587,-12.794 11.182,-19.303c13.107,-22.292 28.801,-39.954 46.891,-58.301c5.686,-5.865 11.366,-11.735 17.041,-17.611c4.166,-4.303 4.166,-4.303 8.417,-8.692c10.367,-10.949 20.231,-22.284 30.093,-33.686c12.155,-13.892 24.79,-27.33 37.418,-40.792c3.819,-4.089 3.819,-4.089 7.715,-8.26c19.509,-20.851 19.509,-20.851 27.498,-28.271c1.786,-1.952 3.572,-3.905 5.412,-5.916c-0.57,-10.484 -2.72,-15.151 -9.961,-22.738c-17.695,-12.899 -35.491,-23.017 -55.143,-32.731c-25.37,-13.536 -40.991,-25.73 -51.562,-52.865c-3.58,-15.519 -6.343,-31.032 -8.936,-46.745c-3.616,-15.983 -8.949,-27.773 -16.846,-42.057c-12.062,-22.293 -16.522,-40.226 -11.719,-65.365c4.042,-8.395 8.177,-16.747 12.5,-25c-2.953,-12.921 -7.721,-16.227 -18.49,-23.958c-18.307,-8.93 -24.791,-5.162 -38.574,8.057Z" style="fill:#3b4733;fill-rule:nonzero;"/><path d="M1093.229,18.623c2.062,4.125 2.062,4.125 4.167,8.333c9.673,1.697 19.404,3.102 29.167,4.167c-2.75,1.375 -5.5,2.75 -8.333,4.167c-3.045,9.642 -5.839,19.368 -8.333,29.167c3.078,1.16 6.155,2.32 9.326,3.516c33.845,14.17 71.438,40.083 90.674,71.484c-0.181,14.5 -3.144,24.987 -8.301,38.493c-5.39,12.727 -5.39,12.727 -4.199,32.34c22,1.375 44,2.75 66.667,4.167c13.527,29.168 23.253,54.997 16.667,87.5c-8.674,12.591 -19.597,20.452 -32.031,29.167c-6.557,4.976 -13.111,9.957 -19.661,14.941c-3.26,2.405 -6.521,4.81 -9.88,7.288c-12.832,9.613 -24.99,19.907 -37.126,30.375c-4.339,3.691 -8.679,7.38 -13.021,11.068c-4.427,3.776 -8.854,7.552 -13.281,11.328c-2.412,2.052 -4.823,4.104 -7.308,6.217c-28.138,23.944 -56.047,48.074 -83.415,72.9c-11.218,10.136 -22.605,20.064 -34.017,29.98c-9.922,8.738 -19.664,17.664 -29.427,26.579c-17.301,15.64 -35.176,29.963 -54.167,43.49c-0.612,-3.271 -1.225,-6.542 -1.855,-9.912c-6.119,-28.66 -11.749,-51.027 -35.645,-69.255c-13.332,-7.623 -26.882,-14.616 -40.592,-21.533c-16.61,-9.341 -29.292,-20.811 -43.148,-33.74c-20.759,-18.926 -39.469,-21.906 -66.715,-21.273c-16.398,2.105 -30.081,7.598 -44.987,14.567c-8.724,3.646 -8.724,3.646 -21.224,3.646l0,-8.333c-2.836,-0.945 -5.672,-1.891 -8.594,-2.865c-15.557,-6.951 -27.746,-16.124 -41.406,-26.302c17.315,-24.609 36.489,-45.756 58.073,-66.667c19.3,-18.804 37.824,-37.828 55.401,-58.258c12.933,-14.776 26.613,-28.845 40.172,-43.044c21.946,-23.132 42.89,-46.485 62.728,-71.452c12.679,-15.55 26.355,-30.132 39.958,-44.873c10.399,-11.611 20.153,-23.571 29.867,-35.758c15.878,-19.679 32.459,-39.277 55.469,-50.781c36.937,-2.188 72.161,0.913 108.333,8.333l0,-29.167Z" style="fill:#fcfdfb;fill-rule:nonzero;"/><path d="M1246.68,377.331c12.852,5.386 25.006,11.883 37.174,18.636c2.508,1.372 5.017,2.745 7.601,4.159c6.156,3.371 12.3,6.766 18.441,10.164c-11.807,12.481 -23.952,22.244 -38.2,31.82c-4.063,2.747 -8.126,5.495 -12.313,8.325c-4.214,2.823 -8.427,5.645 -12.769,8.553c-8.395,5.655 -16.789,11.314 -25.179,16.976c-3.712,2.491 -7.425,4.981 -11.25,7.547c-8.197,5.269 -8.197,5.269 -12.79,10.113c-13.877,1.02 -27.749,1.601 -41.65,2.181c-4.13,0.655 -8.261,1.311 -12.516,1.986c-9.174,13.761 -12.711,26.078 -17.171,41.829c-1.813,4.044 -1.813,4.044 -3.662,8.171c-4.125,1.375 -8.25,2.75 -12.5,4.167c8.25,10.312 8.25,10.312 16.667,20.833c2.75,-6.875 5.5,-13.75 8.333,-20.833c2.75,1.375 5.5,2.75 8.333,4.167c2.604,8.594 2.604,8.594 4.167,16.667c-2.891,2.167 -2.891,2.167 -5.841,4.377c-33.363,25.07 -66.353,50.016 -96.942,78.468c-10.81,9.814 -22.036,18.946 -33.415,28.092c-33.767,25.325 -33.767,25.325 -55.469,59.896c2.342,1.074 4.684,2.148 7.096,3.255c10.684,5.669 19.721,12.356 29.362,19.661c43.229,31.759 88.761,59.502 136.963,83.04c9.912,6.543 9.912,6.543 14.225,14.909c-0.146,8.301 -0.146,8.301 -4.215,15.153c-12.149,8.139 -25.012,10.18 -39.16,12.679c-2.75,0.54 -5.5,1.08 -8.333,1.636c-14.927,2.81 -29.087,4.449 -44.271,3.833c1.978,8.945 3.979,17.885 5.99,26.823c1.112,4.979 2.224,9.958 3.369,15.088c1.894,11.716 1.894,11.716 7.308,16.423c0.521,14.583 0.521,14.583 0,29.167c-1.375,1.375 -2.75,2.75 -4.167,4.167c-19.045,-1.437 -31.597,-3.569 -45.833,-16.667c1.375,-2.75 2.75,-5.5 4.167,-8.333l8.333,0c-1.031,-2.32 -2.062,-4.641 -3.125,-7.031c-0.344,-3.18 -0.688,-6.359 -1.042,-9.635c3.996,-4.898 3.996,-4.898 8.073,-9.896c10.303,-13.113 10.105,-19.689 8.594,-35.938c-4.125,2.75 -8.25,5.5 -12.5,8.333c-3.067,14.865 -3.067,14.865 -4.167,29.167c-43.679,-19.219 -86.711,-50.005 -120.833,-83.333c-2.783,-9.017 -2.783,-9.017 -4.167,-16.667l-8.333,0l0,-12.5l-8.333,0c-1.375,-4.125 -2.75,-8.25 -4.167,-12.5c-39.484,8.307 -77.281,17.653 -114.453,33.62c-20.101,8.261 -35.018,9.98 -56.38,8.046c-9.814,-4.883 -9.814,-4.883 -17.448,-11.458c-3.827,-3.19 -3.827,-3.19 -7.731,-6.445c-2.691,-2.342 -5.382,-4.684 -8.154,-7.096c-19.182,-16.382 -39.771,-26.801 -62.256,-38.005c-18.557,-11.4 -27.584,-21.105 -32.747,-42.464c-0.704,-5.07 -1.407,-10.141 -2.132,-15.365c-3.772,-23.544 -10.251,-41.339 -22.396,-62.24c-12.491,-21.595 -18.576,-33.856 -13.802,-58.594c12.5,-22.917 12.5,-22.917 25,-29.167c-1.934,5.285 -1.934,5.285 -3.906,10.677c-4.491,14.53 -6.785,28.414 -8.594,43.49l8.333,0c0.365,-4.227 0.73,-8.454 1.107,-12.809c3.256,-17.407 9.501,-29.95 18.685,-44.743c3.06,-5.094 6.109,-10.193 9.147,-15.299c1.478,-2.479 2.957,-4.958 4.48,-7.511c7.308,-12.78 13.24,-26.208 19.088,-39.705c15.641,-24.423 34.229,-32.392 61.426,-38.761c3.652,-0.781 7.305,-1.563 11.068,-2.368c7.294,-1.657 14.585,-3.323 21.875,-4.997c3.429,-0.772 6.859,-1.544 10.392,-2.34c10.249,-2.368 10.249,-2.368 23.332,-6.97c16.513,-5.464 31.386,-6.099 48.568,-3.662c9.897,5.164 16.507,9.741 25,16.667c7.357,5.411 14.738,10.79 22.135,16.146c5.906,4.326 5.906,4.326 11.93,8.74c13.559,9.733 27.409,18.918 41.455,27.93c13.042,9.211 19.358,15.153 24.479,30.518c0.532,6.677 0.951,13.363 1.302,20.052c2.351,29.232 10.792,56.27 19.531,84.115l4.167,0c1.375,6.875 2.75,13.75 4.167,20.833l0,-50c12.5,4.167 12.5,4.167 16.667,12.5c-0.5,-3.583 -0.999,-7.165 -1.514,-10.856c2.069,-19.331 12.109,-27.828 25.732,-40.446c2.468,-2.374 4.937,-4.748 7.48,-7.194c17.99,-17.086 36.857,-32.874 56.306,-48.275c14.276,-11.777 27.7,-24.289 41.162,-36.979c20.38,-19.169 41.187,-37.367 63.037,-54.867c17.111,-13.898 33.761,-28.318 50.423,-42.75c4.593,-3.966 9.203,-7.912 13.833,-11.836c5.068,-4.305 10.064,-8.696 15.041,-13.106c7.666,-4.525 7.666,-4.525 15.283,-4.15Z" style="fill:#3c4834;fill-rule:nonzero;"/><path d="M707.731,887.829c5.583,0.29 5.583,0.29 11.279,0.586c5.632,0.226 5.632,0.226 11.377,0.456c2.863,0.193 5.726,0.387 8.675,0.586c-1.963,19.563 -9.436,28.249 -22.917,42.188c-3.834,4.049 -7.659,8.108 -11.475,12.174c-1.929,2.049 -3.858,4.098 -5.845,6.209c-11.723,12.767 -22.402,26.404 -33.282,39.884c-10.901,13.378 -22.056,26.517 -33.252,39.648c-12.67,14.907 -25.221,29.872 -37.24,45.312c-2.25,2.884 -4.501,5.769 -6.82,8.74c-5.937,7.921 -11.604,15.911 -17.22,24.056c-30.048,42.623 -30.048,42.623 -53.044,47.412c-5.414,0.344 -10.828,0.688 -16.406,1.042c-1.375,1.375 -2.75,2.75 -4.167,4.167c0.218,4.761 0.218,4.761 0.439,9.619c1.212,46.22 -21.705,74.847 -48.382,110.65c-6.242,8.923 -11.252,18.079 -16.43,27.648c-7.962,12.902 -9.046,14.164 -24.577,18.278c-5.108,-0.274 -10.216,-0.548 -15.479,-0.83c-2.764,-0.142 -5.528,-0.285 -8.376,-0.431c-101.438,-6.725 -189.081,-67.93 -255.782,-140.94c-50.833,-58.056 -91.694,-134.082 -90.92,-212.128c1.611,-16.31 6.622,-25.042 17.839,-36.865c23.719,-17.183 46.79,-14.527 75,-12.5c12.873,2.066 24.893,4.914 37.5,8.333l0,-20.833c4.222,-0.83 4.222,-0.83 8.529,-1.676c3.717,-0.736 7.434,-1.472 11.263,-2.23c3.674,-0.725 7.348,-1.45 11.133,-2.197c6.53,-1.356 13.038,-2.841 19.482,-4.557c12.409,-2.879 24.429,-2.317 37.093,-1.839c2.063,2.062 2.063,2.062 4.167,4.167c-0.363,4.673 -0.363,4.673 -0.732,9.44c-0.799,17.438 -0.954,32.962 10.132,47.353c11.841,12.05 24.791,22.78 37.622,33.75c33.836,29.03 56.926,64.585 76.156,104.508c1.396,2.888 2.792,5.777 4.23,8.752c8.922,19.687 12.499,37.154 14.26,58.695c28.271,-27.359 54.308,-57.028 79.167,-87.5c1.375,2.75 2.75,5.5 4.167,8.333c-15.104,23.958 -15.104,23.958 -29.167,33.333c-1.043,12.849 -1.043,12.849 0,25c22.131,-5.961 32.389,-19.972 46.354,-36.979c4.79,-5.686 9.586,-11.366 14.388,-17.041c2.387,-2.835 4.775,-5.671 7.235,-8.592c10.211,-11.953 20.811,-23.521 31.502,-35.044c31.11,-33.623 31.11,-33.623 60.156,-69.01c2.32,-2.75 4.641,-5.5 7.031,-8.333l8.333,0c0.908,-2.277 1.815,-4.555 2.751,-6.901c7.412,-12.965 17.547,-22.451 28.239,-32.682c16.024,-15.209 16.024,-15.209 29.525,-32.617c6.152,-6.966 6.152,-6.966 16.488,-8.594Z" style="fill:#3c4834;fill-rule:nonzero;"/><path d="M812.939,512.845c40.46,24.722 69.871,53.251 83.936,99.268c10.446,45.101 5.439,87.885 -17.48,128.841c-25.009,35.259 -58.014,61.557 -100.407,71.761c-45.665,7.392 -86.532,0.272 -124.561,-26.644c-33.423,-27.271 -53.399,-59.441 -65.365,-100.781c-4.99,-51.07 4.945,-93.408 37.5,-133.333c45.352,-48.909 125.021,-68.901 186.377,-39.111Z" style="fill:#f5f6f2;fill-rule:nonzero;"/><path d="M634.896,806.123c23.746,4.871 37.245,18.163 54.362,34.261c13.268,12.074 22.915,12.668 40.757,12.427c14.354,-1.356 26.932,-6.683 40.037,-12.313c34.722,-14.037 69.93,-22.512 106.51,-30.208c2.062,8.25 2.062,8.25 4.167,16.667l8.333,0l0,12.5l8.333,0c2.31,3.652 4.619,7.305 6.999,11.068c10.322,16.24 23.763,25.913 39.355,36.849c2.753,1.976 5.506,3.951 8.342,5.987c21.351,15.156 43.26,29.173 66.137,41.93c1.547,-6.961 1.547,-6.961 3.125,-14.063c5.208,-15.104 5.208,-15.104 14.063,-21.094c2.578,-0.773 5.156,-1.547 7.812,-2.344c1.868,23.819 -1.525,32.105 -16.667,50c-3.32,13.282 -3.32,13.282 -4.167,25c-24.755,-1.593 -39.692,-12.735 -59.115,-26.823c-2.962,-2.097 -5.924,-4.195 -8.976,-6.356c-5.493,-3.891 -10.972,-7.8 -16.434,-11.734c-6.459,-4.601 -13.044,-9.022 -19.642,-13.421c1.07,2.674 2.14,5.348 3.243,8.103c11.664,30.387 18.966,60.456 24.882,92.417c1.378,6.969 1.378,6.969 2.783,14.079c4.962,26.167 7.605,50.443 6.592,77.067c-16.575,4.797 -23.241,5.032 -38.997,-2.718c-4.756,-3.103 -9.465,-6.279 -14.128,-9.521c-15.89,-12.143 -15.89,-12.143 -34.375,-16.927c-7.288,10.12 -14.13,20.233 -20.833,30.729c-3.724,5.767 -7.457,11.529 -11.198,17.285c-1.649,2.575 -3.298,5.15 -4.997,7.802c-4.639,6.683 -4.639,6.683 -12.972,15.017c-10.938,-1.562 -10.938,-1.562 -20.833,-4.167c-7.416,-22.862 -10.159,-44.33 -11.979,-68.229c-2.989,-34.428 -8.981,-67.072 -17.594,-100.505c-3.035,-11.784 -5.692,-23.477 -7.926,-35.433c-32.612,31.56 -61.826,66.184 -90.283,101.477c-6.377,7.877 -12.798,15.717 -19.222,23.556c-4.818,5.892 -9.636,11.784 -14.453,17.676c-2.263,2.756 -4.525,5.512 -6.856,8.352c-14.064,17.249 -27.261,34.868 -40.019,53.107c-8.25,-2.75 -16.5,-5.5 -25,-8.333c2.741,-6.959 5.53,-13.899 8.333,-20.833c1.547,-4.383 3.094,-8.766 4.688,-13.281c9.506,-22.006 25.886,-39.347 41.146,-57.552c5.906,-7.289 11.809,-14.581 17.708,-21.875c14.887,-18.158 30.033,-36.078 45.312,-53.906c2.13,-2.487 4.26,-4.975 6.454,-7.538c13.772,-16.033 27.768,-31.832 42.162,-47.312c5.675,-7.751 7.495,-14.15 9.196,-23.535c-20.187,-1.433 -35.773,-0.729 -51.758,12.549c-9.588,10.794 -18.559,21.88 -27.409,33.285c-5.165,6.027 -10.369,12.021 -15.625,17.969c-2.127,2.476 -4.254,4.952 -6.445,7.503c-8.961,9.927 -18.473,19.238 -27.93,28.695c-9.627,10.084 -19.143,20.269 -28.646,30.469c-2.607,2.798 -5.214,5.596 -7.9,8.479c-21.706,23.358 -42.886,47 -63.064,71.697c-2.204,2.658 -4.408,5.317 -6.679,8.056c-4.407,5.317 -8.772,10.669 -13.09,16.058c-15.464,18.565 -15.464,18.565 -30.068,23.2c-2.933,0.124 -5.865,0.247 -8.887,0.374c-1.302,-13.281 -1.302,-13.281 0,-29.167c8.854,-9.635 8.854,-9.635 20.833,-20.833c3.88,-6.338 7.592,-12.78 11.182,-19.287c13.105,-22.303 28.796,-39.965 46.891,-58.317c5.686,-5.865 11.366,-11.735 17.041,-17.611c2.778,-2.868 5.555,-5.737 8.417,-8.692c10.367,-10.949 20.231,-22.284 30.093,-33.686c12.155,-13.892 24.79,-27.33 37.418,-40.792c2.546,-2.726 5.092,-5.452 7.715,-8.26c19.68,-21.033 19.68,-21.033 27.47,-28.014c6.818,-6.365 6.818,-6.365 5.44,-18.674c-6.059,-5.027 -6.059,-5.027 -12.24,-10.156c-12.76,-10.677 -12.76,-10.677 -16.406,-20.312c-0.172,-2.32 -0.344,-4.641 -0.521,-7.031c-5.5,-1.375 -11,-2.75 -16.667,-4.167l16.667,0l0,-16.667Z" style="fill:#3c4833;fill-rule:nonzero;"/><path d="M707.731,887.829c5.583,0.29 5.583,0.29 11.279,0.586c5.632,0.226 5.632,0.226 11.377,0.456c2.863,0.193 5.726,0.387 8.675,0.586c-1.963,19.563 -9.436,28.249 -22.917,42.188c-3.834,4.049 -7.659,8.108 -11.475,12.174c-1.929,2.049 -3.858,4.098 -5.845,6.209c-11.723,12.767 -22.402,26.404 -33.282,39.884c-10.901,13.378 -22.056,26.517 -33.252,39.648c-12.67,14.907 -25.221,29.872 -37.24,45.312c-2.25,2.884 -4.501,5.769 -6.82,8.74c-5.937,7.921 -11.604,15.911 -17.22,24.056c-30.048,42.623 -30.048,42.623 -53.044,47.412c-5.414,0.344 -10.828,0.688 -16.406,1.042c-1.375,1.375 -2.75,2.75 -4.167,4.167c0.218,4.761 0.218,4.761 0.439,9.619c1.212,46.22 -21.705,74.847 -48.382,110.65c-6.242,8.923 -11.252,18.079 -16.43,27.648c-7.962,12.902 -9.046,14.164 -24.577,18.278c-5.108,-0.274 -10.216,-0.548 -15.479,-0.83c-2.764,-0.142 -5.528,-0.285 -8.376,-0.431c-101.438,-6.725 -189.081,-67.93 -255.782,-140.94c-50.833,-58.056 -91.694,-134.082 -90.92,-212.128c1.611,-16.31 6.622,-25.042 17.839,-36.865c23.684,-17.046 46.816,-15.592 75,-12.5c14.615,4.295 28.083,9.798 41.667,16.667c-16.656,20.499 -34.238,37.901 -54.362,55.013c-10.625,9.775 -16.042,16.845 -18.018,31.299c-1.114,54.071 18.956,92.536 51.546,134.521c1.869,2.557 3.738,5.113 5.664,7.747c33.751,43.28 88.544,75.044 140.169,92.253c44.101,4.114 44.101,4.114 83.398,-12.777c19.763,-19.257 36.897,-40.71 54.102,-62.223c6.415,-7.906 12.838,-15.806 19.271,-23.698c3.008,-3.695 6.016,-7.391 9.115,-11.198c12.212,-14.655 24.954,-28.782 37.793,-42.887c7.907,-8.709 15.686,-17.508 23.405,-26.383c10.987,-12.615 22.126,-25.081 33.333,-37.5c29.641,-32.604 29.641,-32.604 57.552,-66.667c2.32,-2.75 4.641,-5.5 7.031,-8.333l8.333,0c0.908,-2.277 1.815,-4.555 2.751,-6.901c7.412,-12.965 17.547,-22.451 28.239,-32.682c16.024,-15.209 16.024,-15.209 29.525,-32.617c6.152,-6.966 6.152,-6.966 16.488,-8.594Z" style="fill:#f7f8f5;fill-rule:nonzero;"/><path d="M376.563,614.457c4.125,1.375 8.25,2.75 12.5,4.167l0,12.5c0.43,3.958 0.859,7.917 1.302,11.995c-1.785,17.828 -8.59,22.222 -22.135,33.577c-2.112,1.808 -4.224,3.617 -6.401,5.48c-6.154,5.259 -12.375,10.438 -18.599,15.614c-5.222,4.585 -10.432,9.184 -15.625,13.802c-5.898,5.126 -11.802,10.247 -17.708,15.365c-4.682,4.074 -9.364,8.148 -14.046,12.223c-45.645,39.689 -91.588,78.959 -138.493,117.155c-11.729,9.564 -23.361,19.236 -34.961,28.955c17.875,5.5 35.75,11 54.167,16.667c-1.375,11 -2.75,22 -4.167,33.333c-23.504,-3.739 -23.504,-3.739 -32.52,-6.315c-24.197,-5.339 -56.978,-8.458 -78.678,5.273c-12.296,11.964 -17.383,20.093 -19.076,37.288c0.523,100.105 59.521,180.409 128.076,249.072c71.282,67.457 156.078,97.369 252.197,102.181c0.956,-2.798 1.912,-5.597 2.897,-8.48c6.924,-15.734 16.068,-29.189 25.749,-43.343c1.81,-2.677 3.62,-5.355 5.485,-8.114c1.789,-2.645 3.577,-5.291 5.42,-8.016c1.752,-2.608 3.504,-5.216 5.309,-7.903c4.717,-6.863 9.695,-13.545 14.694,-20.206c10.44,-18.013 8.943,-33.875 8.919,-54.248c2.36,-12.191 2.36,-12.191 12.061,-19.954c11.133,-4.736 11.133,-4.736 24.935,-6.82c24.216,-9.85 34.879,-30.619 48.698,-52.083c2.588,7.487 2.588,7.487 4.167,16.667c-8.073,13.542 -8.073,13.542 -16.667,25c5.5,1.375 11,2.75 16.667,4.167c0,12.5 0,12.5 -6.413,19.189c-23.686,17.964 -23.686,17.964 -41.504,19.873c-5.156,-0.773 -5.156,-0.773 -10.417,-1.562c0.688,2.836 1.375,5.672 2.083,8.594c6.732,39.553 -5.551,56.849 -28.125,89.583c-2.841,4.23 -5.683,8.459 -8.61,12.817c-5.462,8.119 -10.954,16.218 -16.479,24.294c-5.769,8.447 -11.435,16.942 -17.033,25.503c-6.836,10.042 -6.836,10.042 -15.169,18.376c-78.631,11.918 -149.091,-12.319 -216.667,-50c-4.12,-2.272 -8.239,-4.544 -12.484,-6.885c-33.136,-19.67 -60.265,-45.336 -87.516,-72.282c-5.487,-5.333 -5.487,-5.333 -11.084,-10.775c-57.149,-58.87 -107.978,-146.106 -111.312,-229.59c1.505,-34.671 13.959,-61.021 39.062,-84.635c10.865,-9.349 21.93,-18.375 33.138,-27.311c13.226,-10.615 26.119,-21.554 38.997,-32.585c18.992,-16.205 38.358,-31.82 58.073,-47.135c22.701,-17.648 44.356,-36.107 65.625,-55.469c5.457,-4.787 10.926,-9.562 16.406,-14.323c12.695,-11.08 25.25,-22.305 37.76,-33.594c15.228,-13.738 30.526,-27.378 46.045,-40.788c5.802,-5.093 11.511,-10.292 17.155,-15.56c2.949,-2.718 5.897,-5.436 8.936,-8.236c2.648,-2.492 5.296,-4.984 8.024,-7.552c2.422,-1.633 4.845,-3.266 7.34,-4.948Z" style="fill:#3d4935;fill-rule:nonzero;"/><path d="M1118.229,35.29c41.871,0 72.571,34.093 100.521,61.979c19.604,19.937 19.604,19.937 24.479,29.688c-0.259,6.872 -0.82,13.736 -1.562,20.573c-0.376,3.647 -0.752,7.294 -1.139,11.051c-1.465,10.042 -1.465,10.042 -5.632,22.542c2.514,-0.097 5.027,-0.193 7.617,-0.293c3.33,-0.075 6.66,-0.15 10.091,-0.228c3.287,-0.097 6.574,-0.193 9.961,-0.293c11.234,0.93 17.219,2.736 26.497,9.147c6.038,9.196 6.038,9.196 11.198,20.052c1.735,3.55 3.47,7.101 5.257,10.758c8.373,20.762 9.528,40.649 10.107,62.939c0.204,5.371 0.408,10.742 0.618,16.276c-2.706,18.576 -8.829,24.026 -23.014,35.807c-2.32,2.492 -4.641,4.984 -7.031,7.552c-5.469,4.948 -5.469,4.948 -13.802,4.948c22.009,26.488 67.478,34.652 100,41.667c1.375,8.25 2.75,16.5 4.167,25c-26.889,19.521 -54.534,37.492 -82.899,54.765c-13.794,8.474 -27.096,17.092 -39.855,27.071c-28.182,21.865 -47.672,30.522 -83.968,27.816c-4.923,-0.653 -4.923,-0.653 -9.945,-1.318l0,37.5c-8.25,4.125 -8.25,4.125 -16.667,8.333c-1.375,-4.125 -2.75,-8.25 -4.167,-12.5c-6.188,10.312 -6.188,10.312 -12.5,20.833c-5.732,-5.374 -11.282,-10.945 -16.667,-16.667l0,-8.333c4.125,-2.75 8.25,-5.5 12.5,-8.333c3.923,-9.771 3.923,-9.771 6.51,-20.833c5.142,-19.985 5.142,-19.985 14.323,-29.167c8.238,-0.413 16.491,-0.54 24.74,-0.521c27.602,-1.784 41.693,-9.7 62.809,-26.937c14.909,-12.025 30.564,-22.461 46.566,-32.959c5.442,-3.602 10.884,-7.204 16.325,-10.807c3.98,-2.621 7.96,-5.242 12.061,-7.943c-7.971,-4.8 -15.961,-9.568 -23.958,-14.323c-4.447,-2.659 -8.895,-5.317 -13.477,-8.057c-13.947,-8.426 -13.947,-8.426 -29.232,-10.954c-9.23,6.457 -17.015,12.759 -25.26,20.312c-4.852,4.284 -9.708,8.565 -14.567,12.842c-3.624,3.228 -3.624,3.228 -7.322,6.521c-9.908,8.696 -20.169,16.925 -30.455,25.169c-19.855,16.156 -38.799,33.145 -57.65,50.456c-19.13,17.541 -38.764,34.477 -58.496,51.335c-2.611,2.232 -5.223,4.465 -7.913,6.765c-5.226,4.464 -10.457,8.922 -15.692,13.375c-2.421,2.066 -4.841,4.132 -7.335,6.26c-3.249,2.765 -3.249,2.765 -6.564,5.587c-6.479,5.587 -6.479,5.587 -12.775,12.492c-5.97,5.554 -5.97,5.554 -14.304,5.554c-1.805,-5.027 -1.805,-5.027 -3.646,-10.156c-3.573,-11.23 -3.573,-11.23 -13.021,-14.844c22.964,-23.343 45.845,-46.498 70.768,-67.773c9.653,-8.306 19.041,-16.875 28.451,-25.456c18.21,-16.453 37.044,-31.964 56.12,-47.396c11.001,-9.104 21.609,-18.507 32.161,-28.125c13.964,-12.69 28.129,-25 42.708,-36.979c3.744,-3.094 7.487,-6.188 11.344,-9.375c9.365,-7.347 18.674,-14.139 28.483,-20.833c28.621,-18.729 28.621,-18.729 46.598,-46.533c0.313,-12.318 -1.107,-22.26 -4.134,-34.196c-1.49,-6.01 -1.49,-6.01 -3.011,-12.142c-2.807,-10.014 -5.929,-19.757 -9.489,-29.525c-4.764,0.048 -9.528,0.097 -14.437,0.146c-6.212,0.039 -12.424,0.077 -18.636,0.114c-3.145,0.035 -6.29,0.07 -9.53,0.106c-8.022,0.036 -16.045,-0.149 -24.064,-0.366c-1.375,-1.375 -2.75,-2.75 -4.167,-4.167c0.212,-8.496 0.212,-8.496 1.302,-19.271c0.328,-3.491 0.655,-6.982 0.993,-10.579c2.229,-14.075 6.083,-27.355 10.205,-40.983c-29.281,-31.874 -56.95,-55.117 -95.833,-75c3.646,-19.792 3.646,-19.792 8.333,-29.167Z" style="fill:#3b4733;fill-rule:nonzero;"/><path d="M789.063,460.29c9.897,5.164 16.507,9.741 25,16.667c7.357,5.411 14.738,10.79 22.135,16.146c5.906,4.326 5.906,4.326 11.93,8.74c13.559,9.733 27.409,18.918 41.455,27.93c13.042,9.211 19.358,15.153 24.479,30.518c0.631,7.022 1.137,14.056 1.562,21.094c1.292,16.136 3.845,30.023 9.115,45.312c9.115,28.384 12.601,60.363 -0.521,88.021c-3.253,5.549 -6.655,11.011 -10.156,16.406c-2.267,3.647 -4.533,7.294 -6.868,11.051c-4.965,7.902 -9.994,15.764 -15.088,23.584c-7.924,12.307 -15.292,24.88 -22.477,37.63c-14.475,17.946 -34.79,22.269 -56.348,27.474c-19.055,4.722 -37.197,10.054 -55.208,17.969c-19.173,7.923 -31.612,10.636 -52.344,7.292c-12.292,-7.096 -22.654,-15.706 -33.333,-25c-19.182,-16.382 -39.771,-26.801 -62.256,-38.005c-18.557,-11.4 -27.584,-21.105 -32.747,-42.464c-0.704,-5.07 -1.407,-10.141 -2.132,-15.365c-3.772,-23.544 -10.251,-41.339 -22.396,-62.24c-12.491,-21.595 -18.576,-33.856 -13.802,-58.594c12.5,-22.917 12.5,-22.917 25,-29.167c-1.289,3.523 -2.578,7.047 -3.906,10.677c-4.491,14.53 -6.785,28.414 -8.594,43.49l8.333,0c0.365,-4.227 0.73,-8.454 1.107,-12.809c3.256,-17.407 9.501,-29.95 18.685,-44.743c3.06,-5.094 6.109,-10.193 9.147,-15.299c1.478,-2.479 2.957,-4.958 4.48,-7.511c7.308,-12.78 13.24,-26.208 19.088,-39.705c15.641,-24.423 34.229,-32.392 61.426,-38.761c3.652,-0.781 7.305,-1.563 11.068,-2.368c7.294,-1.657 14.585,-3.323 21.875,-4.997c3.429,-0.772 6.859,-1.544 10.392,-2.34c10.249,-2.368 10.249,-2.368 23.332,-6.97c16.513,-5.464 31.386,-6.099 48.568,-3.662Zm-165.788,95.768c-30.54,38.814 -39.036,80.338 -34.212,129.232c12.235,43.665 37.27,82.595 75,108.333c40.254,21.355 80.991,28.062 125.781,16.146c37.706,-13.031 68.296,-37.501 90.885,-70.312c7.005,-14.94 12.24,-29.952 16.667,-45.833c1.192,-4.222 1.192,-4.222 2.409,-8.529c8.56,-39.629 -1.262,-81.576 -22.119,-115.804c-23.66,-31.405 -57.251,-59.988 -96.956,-67.334c-63.49,-5.112 -112.986,4.778 -157.454,54.102Z" style="fill:#f4f6f1;fill-rule:nonzero;"/><path d="M812.939,512.845c40.46,24.722 69.871,53.251 83.936,99.268c10.446,45.101 5.439,87.885 -17.48,128.841c-25.009,35.259 -58.014,61.557 -100.407,71.761c-45.665,7.392 -86.532,0.272 -124.561,-26.644c-33.423,-27.271 -53.399,-59.441 -65.365,-100.781c-4.99,-51.07 4.945,-93.408 37.5,-133.333c45.352,-48.909 125.021,-68.901 186.377,-39.111Zm-171.794,62.777c-17.253,26.689 -25.883,47.91 -25.26,79.98c0.037,3.28 0.073,6.56 0.111,9.94c1.163,33.272 11.484,55.592 32.441,81.206c32.303,26.429 62.324,45.241 105.387,43.994c42.944,-5.394 70.222,-26.9 99.04,-57.275c22.162,-33.653 25.435,-71.385 19.531,-110.677c-12.725,-41.251 -37.765,-68.954 -75.26,-89.323c-57.273,-22.613 -117.518,-4.131 -155.99,42.155Z" style="fill:#3d4935;fill-rule:nonzero;"/><path d="M155.729,1016.54c35.021,0.843 63.958,25.993 88.77,48.796c14.553,15.358 23.199,29.311 24.772,50.944c-0.344,3.523 -0.688,7.047 -1.042,10.677c-14.883,1.384 -23.2,0.982 -36.458,-6.25c-12.706,-14.117 -14.307,-25.197 -17.708,-43.75c-9.072,3.652 -9.072,3.652 -16.667,12.5c-3.383,13.169 -3.409,24.337 0,37.5c11.417,14.666 24.132,23.322 41.667,29.167c25.268,2.106 42.2,-0.486 62.5,-16.667c10.133,-9.715 19.91,-19.64 29.508,-29.883c7.992,-7.617 7.992,-7.617 16.325,-7.617c17.938,34.979 28.22,68.804 20.833,108.333c-12.4,15.215 -20.7,20.166 -40.104,23.177c-51.772,-0.585 -105.035,-43.547 -139.779,-77.979c-29.241,-31.275 -57.235,-68.766 -58.659,-112.907c1.373,-20.59 6.329,-25.197 26.042,-26.042Z" style="fill:#f6f8f4;fill-rule:nonzero;"/><path d="M1246.68,377.331c12.852,5.386 25.006,11.883 37.174,18.636c2.508,1.372 5.017,2.745 7.601,4.159c6.156,3.371 12.3,6.766 18.441,10.164c-11.807,12.481 -23.952,22.244 -38.2,31.82c-6.095,4.121 -6.095,4.121 -12.313,8.325c-4.214,2.823 -8.427,5.645 -12.769,8.553c-8.395,5.655 -16.789,11.314 -25.179,16.976c-3.712,2.491 -7.425,4.981 -11.25,7.547c-8.197,5.269 -8.197,5.269 -12.79,10.113c-13.877,1.02 -27.749,1.601 -41.65,2.181c-4.13,0.655 -8.261,1.311 -12.516,1.986c-7.967,11.95 -9.024,15.926 -11.458,29.167c-9.198,28.908 -36.689,44.164 -60.197,61.161c-10.785,7.905 -21.131,16.299 -31.47,24.776c-3.625,2.97 -7.251,5.94 -10.986,9.001c-15.154,12.843 -29.737,26.271 -44.238,39.844c-8.317,6.885 -8.317,6.885 -16.65,6.885c-7.249,-15.795 -10.322,-28.456 -8.333,-45.833c13.221,-21.755 34.803,-38.088 54.167,-54.167c5.833,-4.882 5.833,-4.882 11.784,-9.863c7.305,-5.971 14.657,-11.884 22.054,-17.741c14.276,-11.777 27.7,-24.289 41.162,-36.979c20.38,-19.169 41.187,-37.367 63.037,-54.867c17.111,-13.898 33.761,-28.318 50.423,-42.75c4.593,-3.966 9.203,-7.912 13.833,-11.836c5.068,-4.305 10.064,-8.696 15.041,-13.106c7.666,-4.525 7.666,-4.525 15.283,-4.15Z" style="fill:#f6f8f4;fill-rule:nonzero;"/><path d="M255.729,897.79c4.167,4.167 4.167,4.167 4.427,17.041c-0.173,10.677 -0.347,21.354 -0.521,32.031c-0.711,12.978 -0.711,12.978 4.427,21.761c-6.875,4.125 -13.75,8.25 -20.833,12.5c3.572,3.174 7.144,6.349 10.824,9.619c26.909,24.2 51.745,47.98 72.51,77.881c-10.313,12.375 -10.313,12.375 -20.833,25c-4.125,-1.375 -8.25,-2.75 -12.5,-4.167c-2.234,-4.812 -4.469,-9.625 -6.771,-14.583c-10.569,-22.484 -26.868,-42.161 -47.396,-56.25c-16.18,0.957 -25.275,6.253 -37.5,16.667c-3.352,-2.062 -6.703,-4.125 -10.156,-6.25c-17.968,-7.565 -33.074,-8.36 -52.344,-6.25c-5.898,4.968 -5.898,4.968 -4.948,19.271c0.155,17.127 3.715,31.198 9.115,47.396l-12.5,0c-1.375,12.375 -2.75,24.75 -4.167,37.5c-23.675,-29.916 -32.856,-61.697 -31.559,-99.805c4.02,-21.329 15.457,-32.313 31.559,-46.029c2.992,-2.61 5.983,-5.221 9.066,-7.91c5.652,-4.898 11.375,-9.715 17.188,-14.421c12.04,-11.625 15.293,-20.378 15.934,-37.044c-0.172,-3.781 -0.344,-7.562 -0.521,-11.458c4.222,-0.83 4.222,-0.83 8.529,-1.676c3.717,-0.736 7.434,-1.472 11.263,-2.23c3.674,-0.725 7.348,-1.45 11.133,-2.197c6.53,-1.356 13.038,-2.841 19.482,-4.557c12.409,-2.879 24.429,-2.317 37.093,-1.839Z" style="fill:#3b4833;fill-rule:nonzero;"/><path d="M864.063,856.123c17.338,37.811 29.133,75.712 38.802,116.146c1.059,4.404 2.118,8.808 3.208,13.345c5.764,24.891 9.898,49.224 12.156,74.675c-2.766,-1.805 -5.532,-3.609 -8.382,-5.469c-3.679,-2.32 -7.358,-4.641 -11.149,-7.031c-3.625,-2.32 -7.251,-4.641 -10.986,-7.031c-12.348,-6.057 -18.508,-8.448 -31.982,-5.469c-8.768,10.053 -8.768,10.053 -15.625,22.917c-4.456,7.673 -8.955,15.321 -13.542,22.917l-4.167,0c-0.478,-2.993 -0.957,-5.987 -1.45,-9.071c-9.512,-58.267 -20.49,-113.265 -42.903,-168.012c-5.648,-14.583 -5.648,-14.583 -5.648,-27.083c29.125,-14.239 59.208,-20.833 91.667,-20.833Z" style="fill:#f8f9f6;fill-rule:nonzero;"/><path d="M764.063,547.79c7.292,0.521 7.292,0.521 16.667,4.167c9.375,12.76 9.375,12.76 16.667,25c1.375,-4.125 2.75,-8.25 4.167,-12.5c16.146,7.812 16.146,7.812 20.833,12.5c0.97,7.008 1.719,14.047 2.344,21.094c0.349,3.83 0.698,7.659 1.058,11.605c0.252,2.959 0.505,5.919 0.765,8.968c2.75,-5.5 5.5,-11 8.333,-16.667c2.75,1.375 5.5,2.75 8.333,4.167c0.521,31.771 0.521,31.771 -4.167,45.833c4.125,-1.375 8.25,-2.75 12.5,-4.167c1.302,9.115 1.302,9.115 0,20.833c-9.635,10.417 -9.635,10.417 -20.833,20.833c-4.387,6.807 -8.636,13.716 -12.5,20.833l16.667,0l0,12.5c-4.898,0.387 -4.898,0.387 -9.896,0.781c-3.609,1.117 -7.219,2.234 -10.938,3.385c-5.728,10.318 -5.728,10.318 -8.333,20.833l-8.333,0l0,-16.667c-13.272,6.033 -23.419,10.77 -33.333,21.615c-8.333,7.552 -8.333,7.552 -21.875,8.594c-3.781,-0.344 -7.562,-0.688 -11.458,-1.042c4.167,-12.5 4.167,-12.5 12.5,-16.667c-9.036,2.108 -16.665,4.166 -25,8.333c-9.721,0.168 -19.446,0.18 -29.167,0c-2.062,-6.188 -2.062,-6.188 -4.167,-12.5c4.125,-2.75 8.25,-5.5 12.5,-8.333c-7.734,-1.418 -7.734,-1.418 -15.625,-2.865c-17.376,-4.221 -24.69,-10.967 -34.375,-26.302c10.312,-2.062 10.312,-2.062 20.833,-4.167c-2.057,-1.563 -4.114,-3.126 -6.234,-4.736c-22.075,-17.634 -22.075,-17.634 -26.839,-32.243c-0.086,-2.922 -0.172,-5.844 -0.26,-8.854c10.313,4.125 10.313,4.125 20.833,8.333c-0.688,-2.148 -1.375,-4.297 -2.083,-6.51c-3.268,-15.933 -5.327,-32.835 2.083,-47.656c4.125,1.375 8.25,2.75 12.5,4.167c1.375,12.375 2.75,24.75 4.167,37.5c2.75,-4.125 5.5,-8.25 8.333,-12.5l8.333,0l0,41.667c2.75,-2.75 5.5,-5.5 8.333,-8.333c4.167,4.167 4.167,4.167 4.574,14.6c-0.048,4.206 -0.097,8.411 -0.146,12.744c-0.038,4.216 -0.075,8.433 -0.114,12.777c-0.048,3.26 -0.097,6.521 -0.146,9.88l8.333,0l0,-25c15.956,6.052 21.335,14.287 29.167,29.167c1.375,-1.375 2.75,-2.75 4.167,-4.167c-2.75,-5.5 -5.5,-11 -8.333,-16.667c12.113,1.682 19.268,2.81 28.646,10.938c9.211,7.127 9.211,7.127 23.958,5.469c14.022,-2.488 14.022,-2.488 20.312,-11.198c2.58,-11.612 1.405,-18.873 -2.083,-30.208c-2.75,-4.125 -5.5,-8.25 -8.333,-12.5c-0.521,-11.198 -0.521,-11.198 0,-20.833c16.146,7.292 16.146,7.292 20.833,16.667l0,-12.5c-7.389,-5.822 -7.389,-5.822 -16.667,-10.677c-9.375,-5.225 -9.375,-5.225 -16.667,-10.156l0,-8.333l25,0c-8.992,-5.045 -37.5,-8.333 -45.833,-12.5l0,-8.333l-25,0l0,-12.5c4.125,-2.75 8.25,-5.5 12.5,-8.333c-4.555,0.172 -9.109,0.344 -13.802,0.521c-15.365,-0.521 -15.365,-0.521 -27.865,-8.854l0,-8.333c11.797,-5.899 20.212,-5.176 33.333,-4.167c14.062,6.25 14.062,6.25 25,12.5c-1.375,-6.875 -2.75,-13.75 -4.167,-20.833Z" style="fill:#48513f;fill-rule:nonzero;"/><path d="M926.563,764.457c11.949,5.603 22.152,11.99 32.65,19.971c37.69,28.199 74.21,52.623 117.35,71.696l0,8.333c-5.793,0.83 -5.793,0.83 -11.702,1.676c-4.99,0.736 -9.979,1.472 -15.12,2.23c-4.979,0.725 -9.958,1.45 -15.088,2.197c-11.754,0.938 -11.754,0.938 -16.423,6.396c0.379,10.564 0.988,20.981 1.823,31.51c0.218,2.962 0.435,5.924 0.659,8.976c0.542,7.339 1.111,14.677 1.685,22.013c-33.705,-14.83 -62.344,-36.362 -91.667,-58.333c-3.282,-2.438 -6.563,-4.877 -9.945,-7.389c-16.134,-12.785 -23.998,-22.265 -27.555,-42.611c3.764,-12.538 9.778,-23.5 16.146,-34.896c1.627,-3.067 3.255,-6.134 4.932,-9.294c4.011,-7.533 8.124,-15.011 12.256,-22.477Z" style="fill:#f9faf7;fill-rule:nonzero;"/><path d="M1093.229,18.623l0,29.167c-5.156,0.086 -21.426,0.357 -24.414,0.407c-8.919,-0.407 -8.919,-0.407 -16.569,-2.425c-12.61,-3.005 -24.714,-3.186 -37.663,-3.451c-7.46,-0.234 -7.46,-0.234 -15.072,-0.472c-36.499,4.43 -58.92,37.856 -81.283,64.274c-7.359,9.538 -14.148,19.138 -20.833,29.167c-4.167,-12.5 -4.167,-12.5 0,-20.833c-7.654,-3.218 -7.654,-3.218 -16.667,-4.167c-7.383,5.644 -7.383,5.644 -12.5,12.5c-1.375,-4.125 -2.75,-8.25 -4.167,-12.5c2.573,-2.777 5.146,-5.554 7.796,-8.415c5.293,-5.76 5.293,-5.76 10.693,-11.637c1.882,-2.044 3.763,-4.087 5.702,-6.193c13.075,-14.348 25.115,-29.231 37.007,-44.588c39.743,-49.206 114.016,-47.81 167.969,-20.833Z" style="fill:#3e4a36;fill-rule:nonzero;"/><path d="M1118.229,35.29c41.871,0 72.571,34.093 100.521,61.979c19.604,19.937 19.604,19.937 24.479,29.688c-0.259,6.872 -0.82,13.736 -1.562,20.573c-0.376,3.647 -0.752,7.294 -1.139,11.051c-1.465,10.042 -1.465,10.042 -5.632,22.542l37.5,0l0,4.167c-8.25,2.75 -16.5,5.5 -25,8.333l0,8.333c-4.125,2.062 -4.125,2.062 -8.333,4.167c6.875,1.375 13.75,2.75 20.833,4.167l0,4.167c-10.33,0.112 -20.659,0.195 -30.99,0.26c-2.946,0.035 -5.892,0.07 -8.927,0.106c-7.529,0.036 -15.057,-0.149 -22.583,-0.366c-2.062,-2.062 -2.062,-2.062 -4.167,-4.167c0.212,-8.496 0.212,-8.496 1.302,-19.271c0.491,-5.237 0.491,-5.237 0.993,-10.579c2.229,-14.075 6.083,-27.355 10.205,-40.983c-29.281,-31.874 -56.95,-55.117 -95.833,-75c3.646,-19.792 3.646,-19.792 8.333,-29.167Z" style="fill:#404d39;fill-rule:nonzero;"/><path d="M812.939,512.845c31.605,19.311 60.588,42.088 76.123,76.611c1.807,10.685 1.388,18.293 0,29.167c-6.875,1.375 -13.75,2.75 -20.833,4.167c-1.466,-3.319 -2.933,-6.639 -4.443,-10.059c-12.775,-27.417 -23.749,-48.701 -49.723,-64.941c-2.637,-1.708 -5.274,-3.416 -7.992,-5.176c-28.767,-15.652 -60.128,-15.849 -92.008,-11.491c-28.429,9.669 -51.032,23.392 -70.833,45.833l-8.333,0c-4.055,-12.903 -5.169,-18.73 0.749,-31.152c8.317,-11.529 15.369,-16.767 27.637,-23.796c5.197,-3.053 5.197,-3.053 10.498,-6.169c40.681,-20.31 97.499,-23.222 139.16,-2.995Z" style="fill:#3a4632;fill-rule:nonzero;"/><path d="M618.229,431.123c12.056,5.701 23.189,12.138 33.333,20.833l0,8.333c-6.445,1.418 -6.445,1.418 -13.021,2.865c-30.642,9.23 -42.049,26.562 -56.771,53.906c-2.385,4.694 -4.77,9.389 -7.227,14.225c-6.315,12.337 -6.315,12.337 -14.648,24.837c-15.232,-2.865 -27.161,-9.394 -40.625,-16.927c-4.104,-2.283 -8.207,-4.565 -12.435,-6.917c-3.115,-1.756 -6.23,-3.513 -9.44,-5.322c6.607,-16.066 16.938,-26.384 29.167,-38.542c3.695,-3.717 7.391,-7.434 11.198,-11.263c9.635,-8.529 9.635,-8.529 17.969,-8.529l0,-8.333l8.333,0c1.031,-2.492 2.062,-4.984 3.125,-7.552c12.403,-21.706 26.831,-24.843 51.042,-21.615Z" style="fill:#f5f7f3;fill-rule:nonzero;"/><path d="M214.062,956.53c10.402,4.693 16.171,10.53 23.958,18.864c11.122,11.596 22.349,22.459 34.635,32.812c21.502,18.533 41.993,38.502 53.906,64.583c-10.312,10.312 -10.312,10.312 -20.833,20.833c-6.188,-2.062 -6.188,-2.062 -12.5,-4.167c-2.234,-4.812 -4.469,-9.625 -6.771,-14.583c-18.76,-39.502 -54.113,-64.002 -93.229,-81.25c-5.511,-1.556 -11.057,-3.016 -16.667,-4.167c0,-8.333 0,-8.333 5.794,-14.762c2.557,-2.261 5.113,-4.522 7.747,-6.852c2.514,-2.293 5.027,-4.587 7.617,-6.95c8.008,-4.769 8.008,-4.769 16.341,-4.362Z" style="fill:#f2f5ef;fill-rule:nonzero;"/><path d="M139.062,847.79c-2.069,18.618 -2.874,23.708 -16.667,37.5c17.875,5.5 35.75,11 54.167,16.667c-1.375,11 -2.75,22 -4.167,33.333c-23.504,-3.739 -23.504,-3.739 -32.292,-6.25c-13.135,-2.919 -26.165,-3.557 -39.583,-4.427c-5.264,-0.349 -10.527,-0.698 -15.951,-1.058c-6.026,-0.379 -6.026,-0.379 -12.174,-0.765l0,-12.5c-2.75,-2.75 -5.5,-5.5 -8.333,-8.333c4.125,-4.125 8.25,-8.25 12.5,-12.5c-1.375,-2.75 -2.75,-5.5 -4.167,-8.333c9.247,-12.117 16.374,-20.638 29.167,-29.167c12.5,4.167 12.5,4.167 16.667,8.333c1.891,-2.062 3.781,-4.125 5.729,-6.25c6.771,-6.25 6.771,-6.25 15.104,-6.25Z" style="fill:#374230;fill-rule:nonzero;"/><path d="M68.229,876.957c2.75,1.375 5.5,2.75 8.333,4.167c0,12.5 0,12.5 -8.333,20.833c4.125,6.188 4.125,6.188 8.333,12.5l0,12.5c-8.305,5.597 -16.641,11.15 -25,16.667c-8.587,13.142 -9.832,25.145 -10.938,40.625c-0.312,4.104 -0.623,8.207 -0.944,12.435c-0.204,3.115 -0.408,6.23 -0.618,9.44c-5.5,-5.5 -11,-11 -16.667,-16.667c0.387,7.734 0.387,7.734 0.781,15.625c0.067,12.634 -0.337,16.969 -7.031,28.125c-2.062,2.062 -4.125,4.125 -6.25,6.25c-11.014,-37.861 -13.575,-71.983 4.167,-108.333c14.498,-21.484 34.136,-37.988 54.167,-54.167Z" style="fill:#3f4c37;fill-rule:nonzero;"/><path d="M764.063,547.79c7.292,0.521 7.292,0.521 16.667,4.167c9.375,12.76 9.375,12.76 16.667,25c1.375,-4.125 2.75,-8.25 4.167,-12.5c16.146,7.812 16.146,7.812 20.833,12.5c0.411,6.848 0.541,13.713 0.521,20.573c0.016,5.599 0.016,5.599 0.033,11.312c-0.553,9.782 -0.553,9.782 -4.72,18.115l-8.333,0c-1.375,4.125 -2.75,8.25 -4.167,12.5c-10.417,-5.729 -10.417,-5.729 -20.833,-12.5l0,-8.333l25,0c-8.992,-5.045 -37.5,-8.333 -45.833,-12.5l0,-8.333l-25,0l0,-12.5c4.125,-2.75 8.25,-5.5 12.5,-8.333c-6.832,0.258 -6.832,0.258 -13.802,0.521c-15.365,-0.521 -15.365,-0.521 -27.865,-8.854l0,-8.333c11.797,-5.899 20.212,-5.176 33.333,-4.167c14.062,6.25 14.062,6.25 25,12.5c-1.375,-6.875 -2.75,-13.75 -4.167,-20.833Z" style="fill:#46503f;fill-rule:nonzero;"/><path d="M1209.896,297.79c-16.907,38.849 -52.114,67.122 -90.104,83.333c-18.202,7.901 -28.577,16.223 -40.251,32.438c-19.731,27.308 -42.643,47.58 -69.645,67.562c-2.75,-1.375 -5.5,-2.75 -8.333,-4.167c19.041,-24.258 38.457,-47.949 59.245,-70.736c8.099,-8.886 8.099,-8.886 16.536,-21.452c13.15,-16.087 32.535,-23.272 50.716,-32.487c20.046,-10.821 37.291,-25.187 54.776,-39.676c17.978,-14.816 17.978,-14.816 27.06,-14.816Z" style="fill:#434c3c;fill-rule:nonzero;"/><path d="M997.396,6.123c34.823,-1.337 63.428,-0.909 95.833,12.5l0,29.167c-5.156,0.086 -21.426,0.357 -24.414,0.407c-8.919,-0.407 -8.919,-0.407 -16.26,-2.409c-16.926,-3.929 -34.67,-3.52 -52.01,-3.955c-22.183,-0.989 -22.183,-0.989 -32.3,-8.789c-2.071,-3.013 -2.071,-3.013 -4.183,-6.087c1.375,-4.125 2.75,-8.25 4.167,-12.5c9.896,-2.604 9.896,-2.604 20.833,-4.167c2.75,2.75 5.5,5.5 8.333,8.333c14.987,-1.347 14.987,-1.347 29.167,-4.167c-9.625,-1.375 -19.25,-2.75 -29.167,-4.167l0,-4.167Z" style="fill:#36432f;fill-rule:nonzero;"/><path d="M593.229,889.457c-5.579,12.542 -11.597,20.761 -21.647,30.062c-2.623,2.489 -5.246,4.978 -7.949,7.543c-2.78,2.629 -5.56,5.259 -8.425,7.968c-24.49,23.676 -41.74,46.029 -58.496,75.7c-12.791,20.167 -31.158,41.052 -54.59,48.324c-2.385,0.408 -4.77,0.816 -7.227,1.237c9.143,-17.905 18.858,-32.117 32.552,-46.875c12.399,-13.425 22.007,-26.695 31.25,-42.448c16.598,-27.105 59.596,-81.51 94.531,-81.51Z" style="fill:#454d3b;fill-rule:nonzero;"/><path d="M834.896,601.957c2.75,1.375 5.5,2.75 8.333,4.167c0.521,31.771 0.521,31.771 -4.167,45.833c4.125,-1.375 8.25,-2.75 12.5,-4.167c1.302,9.115 1.302,9.115 0,20.833c-10.31,11.982 -20.184,20.401 -33.333,29.167c-1.891,-3.18 -3.781,-6.359 -5.729,-9.635c-4.847,-8.016 -9.908,-15.904 -15.104,-23.698c-0.521,-11.198 -0.521,-11.198 0,-20.833c16.146,7.292 16.146,7.292 20.833,16.667c1.384,-12.511 1.384,-12.511 -6.25,-19.531c-3.094,-2.707 -3.094,-2.707 -6.25,-5.469c1.375,-2.75 2.75,-5.5 4.167,-8.333l8.333,0l0,-8.333l8.333,0c2.75,-5.5 5.5,-11 8.333,-16.667Z" style="fill:#35402d;fill-rule:nonzero;"/><path d="M222.396,1051.957c22.712,10.02 34.934,28.421 45.833,50c1.562,14.844 1.562,14.844 0,25c-14.562,1.355 -23.268,0.866 -36.458,-5.729c-13.296,-15.512 -17.155,-32.277 -17.708,-52.604c4.02,-9.635 4.02,-9.635 8.333,-16.667Z" style="fill:#eff2ec;fill-rule:nonzero;"/><path d="M930.729,972.79c16.308,16.308 17.188,42.562 17.188,64.844c-0.172,4.727 -0.344,9.453 -0.521,14.323c-1.375,-4.125 -2.75,-8.25 -4.167,-12.5l-8.333,0c1.375,4.125 2.75,8.25 4.167,12.5c-4.167,12.5 -4.167,12.5 -12.76,17.448c-2.664,1.117 -5.328,2.234 -8.073,3.385c-12.334,-71.731 -12.334,-71.731 -3.955,-87.305c5.778,-5.664 5.778,-5.664 16.455,-12.695Z" style="fill:#36422e;fill-rule:nonzero;"/><path d="M1267.969,182.686c15.011,0.746 16.375,2.011 27.344,13.802c5.985,13.216 7.921,20.435 6.25,34.635c-2.578,1.203 -5.156,2.406 -7.812,3.646c-9.409,4.426 -9.409,4.426 -17.188,13.021c-0.623,-2.358 -1.246,-4.716 -1.888,-7.145c-3.836,-10.699 -7.071,-17.749 -14.779,-26.188c-16.71,-4.289 -32.81,-4.599 -50,-4.167l0,-4.167c4.555,-0.344 9.109,-0.688 13.802,-1.042c15.581,-1.329 15.581,-1.329 21.354,-11.719c6.51,-8.073 6.51,-8.073 22.917,-10.677Z" style="fill:#35412e;fill-rule:nonzero;"/><path d="M293.229,1226.957c28.875,2.062 28.875,2.062 58.333,4.167c-1.375,5.5 -2.75,11 -4.167,16.667c10.312,2.062 10.312,2.062 20.833,4.167c-4.427,6.185 -4.427,6.185 -12.5,12.5c-13.542,1.367 -13.542,1.367 -29.167,1.042c-7.734,-0.097 -7.734,-0.097 -15.625,-0.195c-13.542,-0.846 -13.542,-0.846 -26.042,-5.013c1.302,-8.073 1.302,-8.073 4.167,-16.667c4.125,-1.375 8.25,-2.75 12.5,-4.167l0,-8.333c-2.75,-1.375 -5.5,-2.75 -8.333,-4.167Z" style="fill:#374330;fill-rule:nonzero;"/><path d="M984.896,781.123c6.188,4.125 6.188,4.125 12.5,8.333c3.282,-0.768 6.563,-1.536 9.945,-2.327c10.889,-1.839 10.889,-1.839 21.126,3.223c3.239,2.369 6.478,4.737 9.814,7.178c3.292,2.358 6.585,4.716 9.977,7.145c2.465,1.853 4.931,3.706 7.471,5.615c-1.977,3.18 -3.953,6.359 -5.99,9.635c-6.932,11.048 -6.932,11.048 -10.677,23.698c-8.179,-5.265 -16.334,-10.567 -24.479,-15.885c-4.544,-2.949 -9.088,-5.897 -13.77,-8.936c-11.751,-8.512 -11.751,-8.512 -20.085,-21.012c1.562,-9.115 1.562,-9.115 4.167,-16.667Z" style="fill:#414e38;fill-rule:nonzero;"/><path d="M1097.396,368.623c2.75,5.5 5.5,11 8.333,16.667c-2.922,2.75 -5.844,5.5 -8.854,8.333c-9.01,8.935 -16.356,18.306 -23.698,28.646c-17.418,23.809 -39.713,41.413 -63.281,58.854c-2.75,-1.375 -5.5,-2.75 -8.333,-4.167c19.003,-24.208 38.445,-47.789 59.066,-70.638c6.736,-7.559 13.2,-15.253 19.58,-23.112c8.854,-10.417 8.854,-10.417 17.188,-14.583Z" style="fill:#475040;fill-rule:nonzero;"/><path d="M1093.229,18.623c1.375,2.75 2.75,5.5 4.167,8.333c9.673,1.697 19.404,3.102 29.167,4.167c-4.125,2.062 -4.125,2.062 -8.333,4.167c-3.045,9.642 -5.839,19.368 -8.333,29.167c2.75,1.375 5.5,2.75 8.333,4.167c-2.61,1.708 -5.221,3.416 -7.91,5.176c-3.405,2.245 -6.811,4.49 -10.319,6.803c-5.076,3.335 -5.076,3.335 -10.254,6.738c-9.333,6.11 -9.333,6.11 -17.35,14.616l-12.5,0c2.377,-16.64 8.036,-27.408 16.667,-41.667l0,-12.5l16.667,0l0,-29.167Z" style="fill:#a9b2a3;fill-rule:nonzero;"/><path d="M5.729,947.79c5.5,5.5 11,11 16.667,16.667c1.375,-4.125 2.75,-8.25 4.167,-12.5c5.5,-1.375 11,-2.75 16.667,-4.167c-1.375,19.25 -2.75,38.5 -4.167,58.333c-5.5,-5.5 -11,-11 -16.667,-16.667c0.387,7.734 0.387,7.734 0.781,15.625c0.067,12.634 -0.337,16.969 -7.031,28.125c-2.063,2.062 -4.125,4.125 -6.25,6.25c-9.002,-30.943 -12.332,-60.027 -4.167,-91.667Z" style="fill:#3b4834;fill-rule:nonzero;"/><path d="M576.563,1093.623c2.588,7.487 2.588,7.487 4.167,16.667c-8.073,13.542 -8.073,13.542 -16.667,25c5.5,1.375 11,2.75 16.667,4.167l0,12.5c-6.38,5.778 -6.38,5.778 -14.583,11.198c-2.707,1.821 -5.414,3.642 -8.203,5.518c-3.158,2.038 -3.158,2.038 -6.38,4.118c-2.75,-1.375 -5.5,-2.75 -8.333,-4.167l0,-12.5c-3.266,0.688 -6.531,1.375 -9.896,2.083c-10.938,2.083 -10.938,2.083 -19.271,2.083c-1.375,2.75 -2.75,5.5 -4.167,8.333l-16.667,0c3.109,-8.203 3.109,-8.203 8.333,-16.667c7.699,-1.693 7.699,-1.693 16.927,-2.083c17.93,-2.969 25.621,-10.362 36.604,-24.683c7.411,-10.376 14.544,-20.86 21.469,-31.567Z" style="fill:#3d4b34;fill-rule:nonzero;"/><path d="M889.063,601.957c14.947,22.421 15.03,48.627 12.5,75c-4.215,9.619 -4.215,9.619 -8.333,16.667c-10.335,-6.445 -10.335,-6.445 -20.833,-16.667c-2.035,-14.388 -2.035,-14.388 -1.302,-30.208c0.188,-5.264 0.376,-10.527 0.57,-15.951c0.242,-4.018 0.483,-8.035 0.732,-12.174l16.667,0l0,-16.667Z" style="fill:#47533d;fill-rule:nonzero;"/><path d="M893.229,939.457c10.312,4.125 10.312,4.125 20.833,8.333c1.375,-2.75 2.75,-5.5 4.167,-8.333c4.125,1.375 8.25,2.75 12.5,4.167c6.118,26.003 6.118,26.003 -3.385,41.406c-9.115,8.594 -9.115,8.594 -17.448,8.594c-1.375,2.75 -2.75,5.5 -4.167,8.333c-4.125,-20.625 -8.25,-41.25 -12.5,-62.5Z" style="fill:#414c36;fill-rule:nonzero;"/><path d="M497.396,1172.79l4.167,0c0.516,4.641 1.031,9.281 1.562,14.062c1.132,15.233 1.132,15.233 10.937,23.438c2.75,-4.125 5.5,-8.25 8.333,-12.5l0,25l-8.333,0l0,12.5c-8.073,2.344 -8.073,2.344 -16.667,4.167c-1.375,-1.375 -2.75,-2.75 -4.167,-4.167c-1.891,2.062 -3.781,4.125 -5.729,6.25c-6.771,6.25 -6.771,6.25 -15.104,6.25c3.92,-10.856 7.099,-19.451 14.844,-28.125c9.248,-14.474 9.111,-30.008 10.156,-46.875Z" style="fill:#37422f;fill-rule:nonzero;"/><path d="M814.063,685.29c4.427,7.812 4.427,7.812 8.333,16.667c-1.375,2.75 -2.75,5.5 -4.167,8.333l16.667,0l0,12.5c-4.898,0.387 -4.898,0.387 -9.896,0.781c-3.609,1.117 -7.219,2.234 -10.938,3.385c-5.728,10.318 -5.728,10.318 -8.333,20.833l-8.333,0l0,-16.667c-6.875,1.375 -13.75,2.75 -20.833,4.167l0,-8.333l-8.333,0c1.375,-2.75 2.75,-5.5 4.167,-8.333c4.641,-0.258 9.281,-0.516 14.062,-0.781c14.964,-1.57 14.964,-1.57 19.808,-10.124c3.896,-9.015 3.896,-9.015 7.796,-22.428Z" style="fill:#4f5648;fill-rule:nonzero;"/><path d="M451.563,1268.623c2.75,4.125 5.5,8.25 8.333,12.5l-8.333,0l0,8.333c5.5,1.375 11,2.75 16.667,4.167c3.125,6.51 3.125,6.51 4.167,16.667c-4.712,10.429 -10.506,19.459 -16.667,29.167c-1.375,-2.75 -2.75,-5.5 -4.167,-8.333l-8.333,0c1.375,-6.875 2.75,-13.75 4.167,-20.833l-16.667,0c5.562,-14.975 12.334,-28.145 20.833,-41.667Z" style="fill:#44503b;fill-rule:nonzero;"/><path d="M614.063,639.457l4.167,0c0.252,3.668 0.505,7.337 0.765,11.117c0.349,4.839 0.698,9.679 1.058,14.665c0.508,7.178 0.508,7.178 1.025,14.502c1.127,11.867 2.882,23.101 5.485,34.717c-6.875,2.75 -13.75,5.5 -20.833,8.333c-12.5,-28.125 -12.5,-28.125 -12.5,-37.5c3.996,-2.32 3.996,-2.32 8.073,-4.688c13.234,-12.031 11.613,-23.646 12.76,-41.146Z" style="fill:#47503f;fill-rule:nonzero;"/><path d="M551.563,1010.29c7.353,12.867 8.333,17.638 8.333,33.333c-14.677,13.698 -21.796,12.5 -41.667,12.5c3.174,-6.096 6.395,-12.168 9.635,-18.229c1.789,-3.384 3.577,-6.768 5.42,-10.254c5.778,-9.017 5.778,-9.017 18.278,-17.35Z" style="fill:#333f2b;fill-rule:nonzero;"/><path d="M797.396,981.123l8.333,0c6.547,20.049 10.429,36.956 8.333,58.333c-4.125,2.75 -8.25,5.5 -12.5,8.333c-6.663,-11.987 -9.892,-22.064 -11.458,-35.677c-0.408,-3.185 -0.816,-6.37 -1.237,-9.652c0.195,-8.838 0.195,-8.838 8.529,-21.338Z" style="fill:#35412c;fill-rule:nonzero;"/><path d="M734.896,714.457c1.375,8.25 2.75,16.5 4.167,25c-17.102,12.438 -29.073,13.731 -50,12.5c-1.375,-4.125 -2.75,-8.25 -4.167,-12.5c11.287,-5.643 20.872,-4.438 33.333,-4.167l0,-16.667c8.333,-4.167 8.333,-4.167 16.667,-4.167Z" style="fill:#3b4434;fill-rule:nonzero;"/><path d="M876.563,635.29l4.167,0c1.375,17.875 2.75,35.75 4.167,54.167l8.333,0l0,12.5l-12.5,0c-0.344,2.492 -0.688,4.984 -1.042,7.552c-3.977,11.601 -9.672,15.086 -19.792,21.615c-2.75,-1.375 -5.5,-2.75 -8.333,-4.167c1.456,-3.126 2.911,-6.252 4.411,-9.473c12.328,-27.729 19.849,-51.788 20.589,-82.194Z" style="fill:#434b3b;fill-rule:nonzero;"/><path d="M1209.896,297.79c-6.574,15.46 -16.279,26.246 -27.604,38.542c-3.405,3.717 -6.811,7.434 -10.319,11.263c-2.61,2.814 -5.221,5.629 -7.91,8.529c-2.75,-1.375 -5.5,-2.75 -8.333,-4.167c4.237,-24.816 18.022,-34.349 37.109,-48.665c8.724,-5.501 8.724,-5.501 17.057,-5.501Z" style="fill:#414b38;fill-rule:nonzero;"/><path d="M364.063,1210.29c1.203,2.664 2.406,5.328 3.646,8.073c3.972,9.227 3.972,9.227 13.021,12.76c2.604,8.594 2.604,8.594 4.167,16.667c-7.031,4.688 -7.031,4.688 -16.667,8.333c-11.458,-3.646 -11.458,-3.646 -20.833,-8.333c1.375,-5.5 2.75,-11 4.167,-16.667c-2.75,-1.375 -5.5,-2.75 -8.333,-4.167c2.664,-1.203 5.328,-2.406 8.073,-3.646c9.227,-3.972 9.227,-3.972 12.76,-13.021Z" style="fill:#46533c;fill-rule:nonzero;"/><path d="M1297.396,264.457c5.5,1.375 11,2.75 16.667,4.167c0.337,7.462 0.58,14.929 0.781,22.396c0.145,4.157 0.29,8.314 0.439,12.598c-0.403,3.577 -0.806,7.154 -1.221,10.84c-4.125,2.75 -8.25,5.5 -12.5,8.333c-1.375,-4.125 -2.75,-8.25 -4.167,-12.5c-4.125,-2.75 -8.25,-5.5 -12.5,-8.333c2.75,-2.75 5.5,-5.5 8.333,-8.333c1.669,-9.678 3.082,-19.406 4.167,-29.167Z" style="fill:#313f2a;fill-rule:nonzero;"/><path d="M1076.563,47.79l16.667,0c2.545,30.032 2.545,30.032 -9.635,45.833c-11.198,8.333 -11.198,8.333 -23.698,8.333c2.377,-16.64 8.036,-27.408 16.667,-41.667l0,-12.5Z" style="fill:#929a8b;fill-rule:nonzero;"/><path d="M822.396,826.957l12.5,0c1.375,11 2.75,22 4.167,33.333c-11.462,3.821 -18.165,4.62 -29.948,4.427c-7.863,-0.129 -7.863,-0.129 -15.885,-0.26l0,-8.333c-4.125,-1.375 -8.25,-2.75 -12.5,-4.167c13.75,-2.75 27.5,-5.5 41.667,-8.333l0,-16.667Z" style="fill:#313c29;fill-rule:nonzero;"/><path d="M543.229,1139.457c2.75,2.75 5.5,5.5 8.333,8.333c-1.375,2.75 -2.75,5.5 -4.167,8.333l25,0c-6.875,5.5 -13.75,11 -20.833,16.667c-2.75,-1.375 -5.5,-2.75 -8.333,-4.167l0,-12.5c-3.266,0.688 -6.531,1.375 -9.896,2.083c-10.938,2.083 -10.938,2.083 -19.271,2.083c-1.375,2.75 -2.75,5.5 -4.167,8.333l-16.667,0c2.979,-8.024 2.979,-8.024 8.333,-16.667c8.87,-3.304 8.87,-3.304 19.01,-4.948c12.535,-1.323 12.535,-1.323 22.656,-7.552Z" style="fill:#4a5742;fill-rule:nonzero;"/><path d="M843.229,489.457l16.667,0l0,8.333c8.25,-2.75 16.5,-5.5 25,-8.333c2.604,7.552 2.604,7.552 4.167,16.667c-4.125,6.188 -4.125,6.188 -8.333,12.5c-17.867,-1.985 -26.11,-6.913 -37.5,-20.833l0,-8.333Z" style="fill:#323f2b;fill-rule:nonzero;"/><path d="M693.229,301.957c8.333,12.5 8.333,12.5 6.771,21.615c-0.859,2.492 -1.719,4.984 -2.604,7.552c4.125,1.375 8.25,2.75 12.5,4.167c-5.5,5.5 -11,11 -16.667,16.667c-1.719,-2.664 -3.438,-5.328 -5.208,-8.073c-7.322,-10.321 -7.322,-10.321 -23.958,-12.76c9.625,-9.625 19.25,-19.25 29.167,-29.167Z" style="fill:#434e3c;fill-rule:nonzero;"/><path d="M22.396,989.457c4.125,1.375 8.25,2.75 12.5,4.167c5.605,26.496 5.605,26.496 -1.302,39.323c-7.031,6.51 -7.031,6.51 -15.365,6.51c-1.375,2.75 -2.75,5.5 -4.167,8.333c-0.585,-20.468 3.223,-38.624 8.333,-58.333Z" style="fill:#34422b;fill-rule:nonzero;"/><path d="M772.396,564.457c4.125,4.125 8.25,8.25 12.5,12.5c-10.493,13.011 -15.526,16.438 -32.292,19.792c-6.703,0.516 -6.703,0.516 -13.542,1.042c0,-12.5 0,-12.5 4.167,-16.667c6.942,-0.169 13.891,-0.178 20.833,0l0,-8.333l8.333,0l0,-8.333Z" style="fill:#3c4735;fill-rule:nonzero;"/><path d="M1039.063,1.957c-10.217,15.851 -10.217,15.851 -20.426,19.499c-16.867,1.619 -27.162,2.178 -42.074,-6.999c-4.125,2.062 -4.125,2.062 -8.333,4.167c-2.75,-2.75 -5.5,-5.5 -8.333,-8.333c26.917,-8.126 51.133,-9.261 79.167,-8.333Z" style="fill:#606b59;fill-rule:nonzero;"/><path d="M593.229,889.457c-8.259,18.715 -20.497,30.501 -37.5,41.667c-12.24,1.562 -12.24,1.562 -20.833,0c39.286,-41.667 39.286,-41.667 58.333,-41.667Z" style="fill:#494f43;fill-rule:nonzero;"/><path d="M1039.063,431.123c4.125,5.5 8.25,11 12.5,16.667c-13.75,11 -27.5,22 -41.667,33.333c-2.75,-1.375 -5.5,-2.75 -8.333,-4.167c5.466,-6.86 10.935,-13.717 16.406,-20.573c3.045,-3.819 6.091,-7.638 9.229,-11.572c7.699,-9.521 7.699,-9.521 11.865,-13.688Z" style="fill:#52584c;fill-rule:nonzero;"/><path d="M559.896,989.457c2.75,2.75 5.5,5.5 8.333,8.333c-3.695,2.75 -7.391,5.5 -11.198,8.333c-10.936,8.939 -17.342,17.65 -24.219,29.948c-7.641,13.216 -9.541,15.489 -24.219,22.135c-5.543,1.031 -5.543,1.031 -11.198,2.083c48.81,-57.143 48.81,-57.143 62.5,-70.833Z" style="fill:#414b3b;fill-rule:nonzero;"/><path d="M1196.875,79.561c11.502,7.443 20.293,16.646 29.688,26.562c-1.375,4.125 -2.75,8.25 -4.167,12.5c-3.008,-3.352 -6.016,-6.703 -9.115,-10.156c-11.824,-10.773 -17.017,-13.512 -32.552,-14.844c-1.375,-4.125 -2.75,-8.25 -4.167,-12.5c12.5,-4.167 12.5,-4.167 20.312,-1.562Zm-24.479,18.229l12.5,0c-1.375,4.125 -2.75,8.25 -4.167,12.5c-2.75,-1.375 -5.5,-2.75 -8.333,-4.167l0,-8.333Z" style="fill:#35412f;fill-rule:nonzero;"/><path d="M464.063,1018.623l12.5,0c-0.26,9.115 -0.26,9.115 -4.167,20.833c-9.049,8.048 -18.858,14.508 -29.167,20.833c-2.75,-1.375 -5.5,-2.75 -8.333,-4.167c4.552,-6.286 9.164,-12.528 13.802,-18.75c2.562,-3.48 5.124,-6.961 7.764,-10.547c2.508,-2.707 5.017,-5.414 7.601,-8.203Z" style="fill:#484f40;fill-rule:nonzero;"/><path d="M655.729,606.123c4.125,1.375 8.25,2.75 12.5,4.167c1.19,35.714 1.19,35.714 -8.333,50c-9.702,-15.159 -9.315,-28.168 -8.333,-45.833c1.375,-2.75 2.75,-5.5 4.167,-8.333Z" style="fill:#394330;fill-rule:nonzero;"/><path d="M997.396,6.123c9.288,-0.113 18.576,-0.194 27.865,-0.26c5.172,-0.048 10.345,-0.097 15.674,-0.146c12.555,0.345 23.473,1.622 35.628,4.574c-5.5,1.375 -11,2.75 -16.667,4.167l0,8.333c-11.979,0.521 -11.979,0.521 -25,0c-2.75,-2.75 -5.5,-5.5 -8.333,-8.333c-9.678,-1.669 -19.406,-3.082 -29.167,-4.167l0,-4.167Z" style="fill:#424e3b;fill-rule:nonzero;"/><path d="M276.563,1218.623l0,12.5c-13.45,8.966 -17.85,9.17 -33.333,8.333l0,-16.667c12.781,-7.76 19.156,-9.23 33.333,-4.167Z" style="fill:#3a4931;fill-rule:nonzero;"/><path d="M734.896,701.957c15.365,2.076 23.354,4.586 33.333,16.667c-8.25,12.375 -8.25,12.375 -16.667,25c-4.125,-1.375 -8.25,-2.75 -12.5,-4.167l0,-12.5c2.75,-1.375 5.5,-2.75 8.333,-4.167c-3.094,-2.836 -3.094,-2.836 -6.25,-5.729c-6.25,-6.771 -6.25,-6.771 -6.25,-15.104Z" style="fill:#49523f;fill-rule:nonzero;"/><path d="M710.417,780.863c4.528,1.217 4.528,1.217 9.147,2.458c2.31,0.65 4.619,1.3 6.999,1.969c-2.344,8.073 -2.344,8.073 -8.333,16.667c-15.104,3.125 -15.104,3.125 -29.167,4.167c-1.375,-8.25 -2.75,-16.5 -4.167,-25c10.613,-5.306 14.285,-3.341 25.521,-0.26Z" style="fill:#44523b;fill-rule:nonzero;"/><path d="M630.729,547.79c4.167,12.5 4.167,12.5 1.074,20.638c-5.445,8.861 -11.375,16.368 -18.262,24.154c-3.368,3.835 -3.368,3.835 -6.803,7.747c-1.708,1.912 -3.416,3.824 -5.176,5.794c-1.375,-2.75 -2.75,-5.5 -4.167,-8.333c4.769,-9.635 4.769,-9.635 11.719,-20.833c2.261,-3.695 4.522,-7.391 6.852,-11.198c6.429,-9.635 6.429,-9.635 14.762,-17.969Z" style="fill:#4b5845;fill-rule:nonzero;"/><path d="M1130.99,435.811c10.46,4.724 12.352,9.838 16.406,20.312c-5.5,4.125 -11,8.25 -16.667,12.5l0,-8.333c-3.996,-1.805 -3.996,-1.805 -8.073,-3.646c-8.594,-4.688 -8.594,-4.688 -12.76,-13.021c12.5,-8.333 12.5,-8.333 21.094,-7.812Z" style="fill:#323f29;fill-rule:nonzero;"/><path d="M564.063,581.123c1.375,2.75 2.75,5.5 4.167,8.333c2.75,1.375 5.5,2.75 8.333,4.167c-5.5,15.125 -11,30.25 -16.667,45.833l-8.333,0c-1.442,-23.558 2.357,-37.625 12.5,-58.333Z" style="fill:#4c5645;fill-rule:nonzero;"/><path d="M959.896,901.957c12.375,6.875 24.75,13.75 37.5,20.833c-8.333,8.333 -8.333,8.333 -19.271,8.854c-3.266,-0.172 -6.531,-0.344 -9.896,-0.521l0,-8.333c-4.125,-1.375 -8.25,-2.75 -12.5,-4.167c1.375,-5.5 2.75,-11 4.167,-16.667Z" style="fill:#46513d;fill-rule:nonzero;"/><path d="M501.563,993.623c-1.967,17.701 -12.361,25.833 -25,37.5c-2.75,-5.5 -5.5,-11 -8.333,-16.667c23.958,-20.833 23.958,-20.833 33.333,-20.833Z" style="fill:#3a4331;fill-rule:nonzero;"/><path d="M759.896,797.79l12.5,0c-1.375,5.5 -2.75,11 -4.167,16.667l-50,0l0,-8.333l41.667,0l0,-8.333Z" style="fill:#50594a;fill-rule:nonzero;"/><path d="M1105.729,443.623c4.125,2.75 8.25,5.5 12.5,8.333c-7.351,5.591 -14.736,11.139 -22.135,16.667c-4.109,3.094 -8.218,6.188 -12.451,9.375c-11.247,7.292 -11.247,7.292 -23.747,7.292c22.688,-20.625 22.688,-20.625 45.833,-41.667Z" style="fill:#3e4838;fill-rule:nonzero;"/><path d="M893.229,939.457c8.25,4.125 8.25,4.125 16.667,8.333c3.125,15.104 3.125,15.104 4.167,29.167l-8.333,0c-1.375,2.75 -2.75,5.5 -4.167,8.333c-2.75,-15.125 -5.5,-30.25 -8.333,-45.833Z" style="fill:#48533f;fill-rule:nonzero;"/><path d="M218.229,1293.623c4.77,1.16 4.77,1.16 9.635,2.344c11.572,2.774 11.572,2.774 23.698,-2.344c2.75,1.375 5.5,2.75 8.333,4.167c-1.375,4.125 -2.75,8.25 -4.167,12.5c-9.375,2.865 -9.375,2.865 -20.833,4.167c-9.635,-5.469 -9.635,-5.469 -16.667,-12.5l0,-8.333Z" style="fill:#34402d;fill-rule:nonzero;"/><path d="M884.896,506.123c8.978,6.584 17.11,12.944 25,20.833c-1.375,2.75 -2.75,5.5 -4.167,8.333c-13.983,-2.497 -22.408,-7.693 -33.333,-16.667l8.333,0c1.375,-4.125 2.75,-8.25 4.167,-12.5Z" style="fill:#394532;fill-rule:nonzero;"/><path d="M126.562,981.123c4.125,1.375 8.25,2.75 12.5,4.167c-3.783,4.717 -7.612,9.397 -11.458,14.062c-2.127,2.61 -4.254,5.221 -6.445,7.91c-7.438,7.54 -14.094,11.366 -23.763,15.527c5.807,-18.477 15.024,-28.641 29.167,-41.667Z" style="fill:#485242;fill-rule:nonzero;"/><path d="M797.396,643.623c8.073,3.125 8.073,3.125 16.667,8.333c3.125,8.854 3.125,8.854 4.167,16.667c-6.188,4.125 -6.188,4.125 -12.5,8.333c-8.966,-13.45 -9.17,-17.85 -8.333,-33.333Z" style="fill:#3c4535;fill-rule:nonzero;"/><path d="M680.729,701.957c5.5,1.375 11,2.75 16.667,4.167l0,16.667l-25,0l0,-12.5l8.333,0l0,-8.333Z" style="fill:#303d27;fill-rule:nonzero;"/><path d="M1230.729,343.623c-7.721,18.66 -18.146,26.207 -36.458,34.115c-3.094,1.117 -6.188,2.234 -9.375,3.385c6.944,-6.944 13.889,-13.889 20.833,-20.833c3.008,-3.18 6.016,-6.359 9.115,-9.635c7.552,-7.031 7.552,-7.031 15.885,-7.031Z" style="fill:#47513f;fill-rule:nonzero;"/><path d="M989.063,14.457c2.75,4.125 5.5,8.25 8.333,12.5c-23.958,4.688 -23.958,4.688 -33.333,0c5.69,-17.07 7.93,-18.19 25,-12.5Z" style="fill:#33422b;fill-rule:nonzero;"/><path d="M576.563,1093.623c4.167,16.667 4.167,16.667 0.016,23.763c-5.561,5.968 -11.122,11.936 -16.683,17.904c-4.125,-1.375 -8.25,-2.75 -12.5,-4.167c9.625,-12.375 19.25,-24.75 29.167,-37.5Z" style="fill:#475040;fill-rule:nonzero;"/><path d="M1168.229,493.623c26.667,-1.538 26.667,-1.538 39.323,6.25c2.148,2.062 4.297,4.125 6.51,6.25c-9.04,3.978 -14.847,4.767 -24.268,1.66c-7.268,-3.155 -14.425,-6.561 -21.566,-9.993l0,-4.167Z" style="fill:#2b3723;fill-rule:nonzero;"/><path d="M1084.896,385.29c4.125,1.375 8.25,2.75 12.5,4.167c-12.375,16.5 -12.375,16.5 -25,33.333c-1.375,-5.5 -2.75,-11 -4.167,-16.667c8.073,-11.458 8.073,-11.458 16.667,-20.833Z" style="fill:#3e4737;fill-rule:nonzero;"/><path d="M480.729,1076.957c1.375,2.75 2.75,5.5 4.167,8.333c-10.475,17.847 -17.18,27.689 -37.5,33.333c3.985,-5.388 7.98,-10.769 11.979,-16.146c2.224,-2.997 4.447,-5.994 6.738,-9.082c6.283,-8.105 6.283,-8.105 14.616,-16.439Z" style="fill:#4a5443;fill-rule:nonzero;"/><path d="M834.896,601.957c2.75,1.375 5.5,2.75 8.333,4.167l0,33.333c-6.875,-4.125 -13.75,-8.25 -20.833,-12.5c7.812,-20.312 7.812,-20.312 12.5,-25Z" style="fill:#414c3c;fill-rule:nonzero;"/><path d="M1105.729,364.457c9.625,1.375 19.25,2.75 29.167,4.167c-12.526,12.526 -24.266,10.816 -41.667,12.5c2.75,-1.375 5.5,-2.75 8.333,-4.167c1.375,-4.125 2.75,-8.25 4.167,-12.5Z" style="fill:#364130;fill-rule:nonzero;"/><path d="M1209.896,297.79c-6.011,14.025 -13.886,22.96 -25,33.333c-1.375,-5.5 -2.75,-11 -4.167,-16.667c19.792,-16.667 19.792,-16.667 29.167,-16.667Z" style="fill:#4e5448;fill-rule:nonzero;"/><path d="M814.063,168.623c0,13.718 -1.729,16.78 -9.375,27.604c-1.74,2.546 -3.48,5.092 -5.273,7.715c-7.345,7.538 -12.6,8.893 -22.852,10.514c3.893,-5.305 7.803,-10.597 11.719,-15.885c2.175,-2.949 4.351,-5.897 6.592,-8.936c5.986,-7.618 12.182,-14.341 19.189,-21.012Z" style="fill:#4d5647;fill-rule:nonzero;"/><path d="M372.396,1114.457c8.333,4.167 8.333,4.167 11.458,11.979c1.042,8.854 1.042,8.854 -7.292,21.354c-4.125,-2.75 -8.25,-5.5 -12.5,-8.333c2.75,-8.25 5.5,-16.5 8.333,-25Z" style="fill:#35432b;fill-rule:nonzero;"/><path d="M1143.229,493.623c23.077,-1.538 23.077,-1.538 32.812,6.25c1.547,2.062 3.094,4.125 4.688,6.25c-11.719,2.604 -11.719,2.604 -25,4.167c-4.125,-2.75 -8.25,-5.5 -12.5,-8.333l0,-8.333Z" style="fill:#333e2c;fill-rule:nonzero;"/><path d="M609.896,935.29c1.375,2.75 2.75,5.5 4.167,8.333c-9.063,19.557 -9.063,19.557 -21.615,24.219c-2.492,0.258 -4.984,0.516 -7.552,0.781c6.011,-14.025 13.886,-22.96 25,-33.333Z" style="fill:#343d2d;fill-rule:nonzero;"/><path d="M851.563,731.123c4.125,1.375 8.25,2.75 12.5,4.167c-8.284,12.426 -14.902,19.938 -29.167,25c-2.75,-1.375 -5.5,-2.75 -8.333,-4.167c8.25,-8.25 16.5,-16.5 25,-25Z" style="fill:#47523f;fill-rule:nonzero;"/><path d="M872.396,618.623l12.5,0l0,16.667l-8.333,0l0,41.667l-4.167,0l0,-58.333Z" style="fill:#555f4f;fill-rule:nonzero;"/><path d="M984.896,551.957c4.125,1.375 8.25,2.75 12.5,4.167l0,16.667l-33.333,0c6.875,-6.875 13.75,-13.75 20.833,-20.833Z" style="fill:#323d2b;fill-rule:nonzero;"/><path d="M1039.063,431.123c4.125,5.5 8.25,11 12.5,16.667c-10.312,6.188 -10.312,6.188 -20.833,12.5c-1.375,-2.75 -2.75,-5.5 -4.167,-8.333c5.99,-10.938 5.99,-10.938 12.5,-20.833Z" style="fill:#495242;fill-rule:nonzero;"/><path d="M1093.229,18.623c1.375,2.75 2.75,5.5 4.167,8.333c8.436,2.717 8.436,2.717 16.667,4.167c-6.875,6.875 -13.75,13.75 -20.833,20.833l0,-33.333Z" style="fill:#b7bfb1;fill-rule:nonzero;"/><path d="M1076.563,31.123l0,16.667c-11,-1.375 -22,-2.75 -33.333,-4.167c12.755,-10.933 15.549,-12.5 33.333,-12.5Z" style="fill:#4a5545;fill-rule:nonzero;"/><path d="M30.729,939.457c1.375,4.125 2.75,8.25 4.167,12.5c-4.125,4.125 -8.25,8.25 -12.5,12.5c-4.125,-1.375 -8.25,-2.75 -12.5,-4.167l0,-12.5c12.5,-8.333 12.5,-8.333 20.833,-8.333Z" style="fill:#34432b;fill-rule:nonzero;"/><path d="M30.729,910.29c0,13.575 -2.301,21.268 -8.333,33.333c-4.125,1.375 -8.25,2.75 -12.5,4.167c4.545,-15.731 7.951,-26.96 20.833,-37.5Z" style="fill:#4a5445;fill-rule:nonzero;"/><path d="M1047.396,847.79c9.625,2.75 19.25,5.5 29.167,8.333l0,8.333l-29.167,0l0,-16.667Z" style="fill:#dce5d7;fill-rule:nonzero;"/><path d="M893.229,689.457l0,12.5l-12.5,0c-1.375,5.5 -2.75,11 -4.167,16.667c-2.75,-1.375 -5.5,-2.75 -8.333,-4.167c8.974,-25 8.974,-25 25,-25Z" style="fill:#303b28;fill-rule:nonzero;"/><path d="M726.563,556.123l0,8.333c5.5,2.75 11,5.5 16.667,8.333c-9.635,2.604 -9.635,2.604 -20.833,4.167c-4.125,-2.75 -8.25,-5.5 -12.5,-8.333l0,-8.333c8.333,-4.167 8.333,-4.167 16.667,-4.167Z" style="fill:#4a5545;fill-rule:nonzero;"/><path d="M1289.062,364.457c8.25,2.75 16.5,5.5 25,8.333c-9.831,9.831 -15.746,10.381 -29.167,12.5c1.375,-6.875 2.75,-13.75 4.167,-20.833Z" style="fill:#424e3c;fill-rule:nonzero;"/><path d="M893.229,89.457c-6.011,14.025 -13.886,22.96 -25,33.333c-1.375,-4.125 -2.75,-8.25 -4.167,-12.5c19.792,-20.833 19.792,-20.833 29.167,-20.833Z" style="fill:#444e3e;fill-rule:nonzero;"/><path d="M1197.396,76.957l16.667,0c9.375,10.417 9.375,10.417 16.667,20.833c-2.75,2.75 -5.5,5.5 -8.333,8.333c-8.25,-9.625 -16.5,-19.25 -25,-29.167Z" style="fill:#d6dcd3;fill-rule:nonzero;"/><path d="M293.229,1301.957c9.625,2.75 19.25,5.5 29.167,8.333c-1.375,2.75 -2.75,5.5 -4.167,8.333l-25,0l0,-16.667Z" style="fill:#44513e;fill-rule:nonzero;"/><path d="M530.729,1151.957c-2.664,1.203 -5.328,2.406 -8.073,3.646c-9.227,3.972 -9.227,3.972 -12.76,13.021l-16.667,0c3.385,-8.073 3.385,-8.073 8.333,-16.667c13.056,-4.352 16.624,-3.893 29.167,0Z" style="fill:#626b5b;fill-rule:nonzero;"/><path d="M5.729,947.79c8.333,12.5 8.333,12.5 7.324,23.747c-1.305,6.163 -1.305,6.163 -2.637,12.451c-1.273,6.212 -1.273,6.212 -2.572,12.549c-0.698,3.164 -1.396,6.327 -2.116,9.587l-4.167,0c-0.769,-39.208 -0.769,-39.208 4.167,-58.333Z" style="fill:#798074;fill-rule:nonzero;"/><path d="M218.229,935.29l8.333,0l0,29.167c-5.5,-2.75 -11,-5.5 -16.667,-8.333c2.75,-6.875 5.5,-13.75 8.333,-20.833Z" style="fill:#747d6c;fill-rule:nonzero;"/><path d="M226.562,906.123c-2.75,5.5 -5.5,11 -8.333,16.667c-16.146,-7.292 -16.146,-7.292 -20.833,-16.667c13.056,-4.352 16.624,-3.893 29.167,0Z" style="fill:#4e5a46;fill-rule:nonzero;"/><path d="M1130.729,881.123l0,4.167c-16.5,2.75 -33,5.5 -50,8.333c4.167,-8.333 4.167,-8.333 13.281,-13.281c13.8,-3.987 22.866,-2.44 36.719,0.781Z" style="fill:#464f3f;fill-rule:nonzero;"/><path d="M634.896,726.957c4.125,5.5 8.25,11 12.5,16.667c-6.875,5.5 -13.75,11 -20.833,16.667c-1.375,-4.125 -2.75,-8.25 -4.167,-12.5l8.333,0c1.375,-6.875 2.75,-13.75 4.167,-20.833Z" style="fill:#46513d;fill-rule:nonzero;"/><path d="M726.563,693.623c5.5,2.75 11,5.5 16.667,8.333l-8.333,0c5.5,8.25 11,16.5 16.667,25c-7.552,-0.521 -7.552,-0.521 -16.667,-4.167c-7.292,-12.76 -7.292,-12.76 -12.5,-25c1.375,-1.375 2.75,-2.75 4.167,-4.167Z" style="fill:#e3eade;fill-rule:nonzero;"/><path d="M797.396,635.29c8.25,4.125 16.5,8.25 25,12.5c-1.375,5.5 -2.75,11 -4.167,16.667c-6.875,-6.875 -13.75,-13.75 -20.833,-20.833c-1.375,4.125 -2.75,8.25 -4.167,12.5c1.375,-6.875 2.75,-13.75 4.167,-20.833Z" style="fill:#b0b8a9;fill-rule:nonzero;"/><path d="M655.729,606.123c4.125,1.375 8.25,2.75 12.5,4.167c-6.188,16.5 -6.188,16.5 -12.5,33.333l-4.167,0c-0.521,-28.125 -0.521,-28.125 4.167,-37.5Z" style="fill:#505547;fill-rule:nonzero;"/><path d="M793.229,1131.123c19.792,3.125 19.792,3.125 29.167,12.5c-6.875,1.375 -13.75,2.75 -20.833,4.167c-2.75,-5.5 -5.5,-11 -8.333,-16.667Z" style="fill:#576050;fill-rule:nonzero;"/><path d="M689.063,639.457l4.167,0c4.995,22.704 3.807,34.257 -8.333,54.167c-4.471,-13.633 -3.719,-22.623 -0.26,-36.458c0.811,-3.33 1.622,-6.66 2.458,-10.091c0.65,-2.514 1.3,-5.027 1.969,-7.617Z" style="fill:#d4d9cf;fill-rule:nonzero;"/><path d="M634.896,651.957c10.312,4.125 10.312,4.125 20.833,8.333c-2.75,5.5 -5.5,11 -8.333,16.667c-6.25,-5.469 -6.25,-5.469 -12.5,-12.5l0,-12.5Z" style="fill:#586053;fill-rule:nonzero;"/><path d="M364.063,622.79c2.75,1.375 5.5,2.75 8.333,4.167c-4.125,6.875 -8.25,13.75 -12.5,20.833c-5.5,-1.375 -11,-2.75 -16.667,-4.167c6.875,-6.875 13.75,-13.75 20.833,-20.833Z" style="fill:#4a5345;fill-rule:nonzero;"/><path d="M426.563,1310.29c2.75,2.75 5.5,5.5 8.333,8.333c-1.375,2.75 -2.75,5.5 -4.167,8.333l-45.833,0l0,-4.167l37.5,0c1.375,-4.125 2.75,-8.25 4.167,-12.5Z" style="fill:#555d4d;fill-rule:nonzero;"/><path d="M355.729,1110.29c8.594,1.823 8.594,1.823 16.667,4.167c-2.75,8.25 -5.5,16.5 -8.333,25c-8.333,-12.5 -8.333,-12.5 -12.5,-25c1.375,-1.375 2.75,-2.75 4.167,-4.167Z" style="fill:#414c38;fill-rule:nonzero;"/><path d="M555.729,926.957c-3.385,8.073 -3.385,8.073 -8.333,16.667c-4.125,1.375 -8.25,2.75 -12.5,4.167l0,-16.667c8.333,-4.167 8.333,-4.167 20.833,-4.167Z" style="fill:#373f30;fill-rule:nonzero;"/><path d="M1014.063,901.957l4.167,0c1.375,12.375 2.75,24.75 4.167,37.5c-10.312,-4.125 -10.312,-4.125 -20.833,-8.333c2.75,-2.75 5.5,-5.5 8.333,-8.333c2.699,-10.711 2.699,-10.711 4.167,-20.833Z" style="fill:#dfe6da;fill-rule:nonzero;"/><path d="M897.396,847.79c5.5,5.5 11,11 16.667,16.667c-1.375,2.75 -2.75,5.5 -4.167,8.333c-10.417,-5.729 -10.417,-5.729 -20.833,-12.5l0,-8.333c2.75,-1.375 5.5,-2.75 8.333,-4.167Z" style="fill:#424d39;fill-rule:nonzero;"/><path d="M876.563,635.29l4.167,0c1.375,17.875 2.75,35.75 4.167,54.167c-4.125,-1.375 -8.25,-2.75 -12.5,-4.167c1.375,-16.5 2.75,-33 4.167,-50Z" style="fill:#313b2a;fill-rule:nonzero;"/><path d="M593.229,489.457c2.75,2.75 5.5,5.5 8.333,8.333c-1.562,8.854 -1.562,8.854 -4.167,16.667c-5.5,1.375 -11,2.75 -16.667,4.167c7.812,-19.792 7.812,-19.792 12.5,-29.167Z" style="fill:#434d3c;fill-rule:nonzero;"/><path d="M1118.229,35.29c6.875,1.375 13.75,2.75 20.833,4.167c-6.875,5.5 -13.75,11 -20.833,16.667c-4.167,-12.5 -4.167,-12.5 0,-20.833Z" style="fill:#364131;fill-rule:nonzero;"/><path d="M1089.063,18.623l4.167,0l0,29.167l-16.667,0c2.553,-12.341 5.224,-18.252 12.5,-29.167Z" style="fill:#384431;fill-rule:nonzero;"/></svg>