<?xml version="1.0" encoding="UTF-8" standalone="no"?><!DOCTYPE svg PUBLIC "-//W3C//DTD SVG 1.1//EN" "http://www.w3.org/Graphics/SVG/1.1/DTD/svg11.dtd"><svg width="100%" height="100%" viewBox="0 0 568 1079" version="1.1" xmlns="http://www.w3.org/2000/svg" xmlns:xlink="http://www.w3.org/1999/xlink" xml:space="preserve" xmlns:serif="http://www.serif.com/" style="fill-rule:evenodd;clip-rule:evenodd;stroke-linejoin:round;stroke-miterlimit:2;"><path d="M498.011,305.16c35.571,27.971 59.58,64.253 66.927,109.375c4.511,46.148 -6.835,91.309 -34.342,128.906c-23.469,27.536 -48.15,46.592 -82.324,58.594c-4.727,1.719 -9.453,3.438 -14.323,5.208c-19.035,4.007 -37.14,3.827 -56.51,3.125c0.666,2.224 1.332,4.447 2.018,6.738c9.19,42.47 1.133,84.43 -18.685,122.428c3.583,-0.193 7.165,-0.387 10.856,-0.586c54.987,-1.679 101.492,9.248 143.311,46.419c32.326,32.895 50.844,72.29 52.604,118.49c-1.803,51.639 -23.528,96.869 -60.449,132.601c-37.398,30.705 -77.494,42.838 -125.13,41.878c-49.978,-5.061 -90.601,-33.368 -122.331,-70.85c-31.351,-41.919 -32.514,-88.124 -28.027,-138.786c3.937,-16.265 9.149,-30.898 16.667,-45.833c-5.038,0.338 -10.076,0.677 -15.267,1.025c-56.803,2.655 -97.152,-6.183 -140.983,-45.557c-34.286,-37.818 -50.405,-86.471 -49.479,-136.816c4.862,-45.074 26.796,-85.733 61.67,-114.486c34.26,-24.954 65.042,-38.231 107.861,-37.76c6.679,0.056 6.679,0.056 13.493,0.114c3.368,0.048 6.735,0.097 10.205,0.146c-1.375,-2.75 -2.75,-5.5 -4.167,-8.333c-3.654,-60.804 -0.913,-108.967 40.267,-157.113c63.31,-62.145 152.929,-69.255 226.139,-18.929Z" style="fill:#474f36;fill-rule:nonzero;"/><path d="M266.045,30.225c2.385,1.697 4.77,3.395 7.227,5.143c5.285,3.48 5.285,3.48 10.677,7.031c34.746,32.964 51.451,69.843 53.491,117.33c0.905,51.01 -14.125,91.048 -47.502,129.806c-41.731,39.602 -88.818,47.89 -144.027,46.989c-21.667,-0.909 -37.906,-5.714 -55.973,-17.822c-2.788,-1.767 -5.575,-3.534 -8.447,-5.355c-40.456,-27.877 -67.824,-63.05 -79.053,-111.312c-6.7,-48.7 -0.421,-91.933 29.248,-132.275c60.159,-70.906 153.926,-94.229 234.359,-39.535Z" style="fill:#f4f6f0;fill-rule:nonzero;"/><path d="M485.479,799.007c14.124,11.779 24.118,24.863 33.626,40.527c1.724,2.825 3.448,5.65 5.225,8.561c16.378,31.159 16.108,63.542 8.057,97.298c-13.167,39.136 -35.488,68.257 -72.396,87.63c-5.217,2.353 -10.524,4.509 -15.885,6.51c-3.926,1.466 -7.853,2.933 -11.898,4.443c-32.232,9.569 -63.119,7.676 -93.571,-6.527c-37.907,-21.404 -62.35,-48.766 -77.865,-89.583c-10.48,-43 -3.925,-77.771 16.667,-116.667c17.777,-26.92 47.452,-51.031 78.906,-60.156c48.394,-8.781 89.092,-0.361 129.134,27.962Z" style="fill:#f2f3ed;fill-rule:nonzero;"/><path d="M278.447,532.845c39.131,22.78 59.81,51.647 73.991,94.189c3.477,43.931 -1.764,82.504 -30.339,117.171c-28.398,31.044 -56.262,49.889 -98.91,55.241c-41.36,1.646 -70.358,-9.492 -101.481,-36.475c-31.562,-30.376 -48.224,-62.341 -50.26,-106.51c1.526,-40.568 19.324,-75.873 47.656,-104.427c47.44,-38.514 103.577,-45.734 159.342,-19.189Z" style="fill:#f3f4ee;fill-rule:nonzero;"/><path d="M470.83,320.541c23.209,16.728 38.513,35.841 52.441,60.661c2.578,4.469 5.156,8.938 7.812,13.542c10.718,35.725 8.126,73.559 -7.812,107.292c-23.925,42.723 -58.002,65.676 -104.167,79.167c-18.341,2.265 -35.87,2.835 -54.167,0c-13.047,-13.047 -16.667,-19.148 -16.667,-37.5c16.146,7.812 16.146,7.812 20.833,12.5c6.942,0.169 13.891,0.178 20.833,0c-1.375,-2.75 -2.75,-5.5 -4.167,-8.333c15.86,2.799 30.634,7.198 45.833,12.5l0,-8.333c-6.875,-1.375 -13.75,-2.75 -20.833,-4.167c15.33,-4.906 29.861,-4.167 45.833,-4.167c2.75,-1.375 5.5,-2.75 8.333,-4.167c-5.5,-2.75 -11,-5.5 -16.667,-8.333c8.053,-8.053 22.443,-6.778 33.333,-8.333c1.375,-1.375 2.75,-2.75 4.167,-4.167c-4.125,-2.75 -8.25,-5.5 -12.5,-8.333c11,-6.875 22,-13.75 33.333,-20.833l-16.667,0l0,-16.667l-8.333,0c-1.375,6.875 -2.75,13.75 -4.167,20.833c-4.125,1.375 -8.25,2.75 -12.5,4.167c-5.105,12.535 -5.105,12.535 -8.333,25c-4.125,-2.062 -4.125,-2.062 -8.333,-4.167c2.062,-4.125 2.062,-4.125 4.167,-8.333l-8.333,0l0,8.333c-22.549,16.667 -22.549,16.667 -33.333,16.667l0,-8.333c-3.416,0.65 -6.832,1.3 -10.352,1.969c-6.735,1.217 -6.735,1.217 -13.607,2.458c-4.447,0.822 -8.895,1.644 -13.477,2.49c-19.128,2.156 -26.477,-0.914 -42.513,-11.605c-10.393,-9.088 -11.674,-11.795 -15.104,-26.042c-0.258,-4.984 -0.516,-9.969 -0.781,-15.104c-0.773,-4.898 -1.547,-9.797 -2.344,-14.844c-1.694,-13.306 -2.15,-25.931 -1.823,-39.323c-2.75,-1.375 -5.5,-2.75 -8.333,-4.167c2.58,-6.087 5.19,-12.161 7.812,-18.229c2.175,-5.076 2.175,-5.076 4.395,-10.254c4.46,-9.017 4.46,-9.017 12.793,-17.35l-8.333,0l0,-8.333c12.375,-2.75 24.75,-5.5 37.5,-8.333c-4.125,-2.75 -8.25,-5.5 -12.5,-8.333c6.703,-1.805 6.703,-1.805 13.542,-3.646c14.843,-3.935 14.843,-3.935 24.74,-9.375c7.552,-3.646 7.552,-3.646 24.219,-3.646l0,-8.333c-12.375,2.75 -24.75,5.5 -37.5,8.333c1.375,-4.125 2.75,-8.25 4.167,-12.5c-14.025,6.011 -22.96,13.886 -33.333,25l0,-12.5c-9.399,3.725 -9.399,3.725 -14.323,14.844c-2.148,3.352 -4.297,6.703 -6.51,10.156l-12.5,0c-1.375,12.375 -2.75,24.75 -4.167,37.5c-2.75,-1.375 -5.5,-2.75 -8.333,-4.167l0,-8.333l-8.333,0c1.375,15.125 2.75,30.25 4.167,45.833c-2.75,-1.375 -5.5,-2.75 -8.333,-4.167c-1.454,15.489 -1.454,15.489 6.25,28.385c2.062,1.633 4.125,3.266 6.25,4.948c-1.375,4.125 -2.75,8.25 -4.167,12.5c-2.062,-6.188 -2.062,-6.188 -4.167,-12.5l-8.333,0c7.157,12.82 7.157,12.82 16.667,25l16.667,0c-1.375,4.125 -2.75,8.25 -4.167,12.5c-5.5,-1.375 -11,-2.75 -16.667,-4.167c1.375,5.5 2.75,11 4.167,16.667c-12.934,-4.311 -22.435,-8.046 -29.443,-20.215c-13.857,-37.889 -11.564,-76.271 4.443,-113.118c18.886,-33.065 48.465,-56.111 83.333,-70.833c40.367,-9.589 82.334,-7.19 118.392,14.339Z" style="fill:#f6f7f2;fill-rule:nonzero;"/><path d="M266.045,30.225c2.385,1.697 4.77,3.395 7.227,5.143c5.285,3.48 5.285,3.48 10.677,7.031c34.746,32.964 51.451,69.843 53.491,117.33c0.905,51.01 -14.125,91.048 -47.502,129.806c-41.731,39.602 -88.818,47.89 -144.027,46.989c-21.667,-0.909 -37.906,-5.714 -55.973,-17.822c-2.788,-1.767 -5.575,-3.534 -8.447,-5.355c-40.456,-27.877 -67.824,-63.05 -79.053,-111.312c-6.7,-48.7 -0.421,-91.933 29.248,-132.275c60.159,-70.906 153.926,-94.229 234.359,-39.535Zm-203.044,46.436c-27.416,37.322 -37.521,70.817 -31.396,117.041c8.076,36.461 25.763,68.511 56.104,90.918c34.886,21.719 65.145,30.543 106.396,25.749c44.236,-12.233 76.605,-35.659 99.967,-75.033c17.845,-35.275 19.734,-79.16 8.74,-117.285c-4.946,-10.305 -10.37,-19.247 -17.041,-28.516c-2.57,-4.004 -2.57,-4.004 -5.192,-8.089c-19.52,-26.818 -51.579,-40.001 -82.308,-50.244c-52.609,-5.15 -98.455,4.121 -135.27,45.459Z" style="fill:#454d35;fill-rule:nonzero;"/><path d="M419.105,768.701l0,4.167l-33.333,0c2.062,3.266 4.125,6.531 6.25,9.896c6.25,10.938 6.25,10.938 6.25,19.271c-6.875,1.375 -13.75,2.75 -20.833,4.167l0,8.333c-11,2.75 -22,5.5 -33.333,8.333l0,12.5c-6.891,5.622 -13.84,11.172 -20.833,16.667c-5.243,7.708 -5.243,7.708 -8.333,16.667c-1.633,4.125 -3.266,8.25 -4.948,12.5c-3.585,13.236 -2.736,16.55 0.781,29.167c0.886,6.41 1.666,12.836 2.344,19.271c0.349,3.233 0.698,6.467 1.058,9.798c0.765,8.431 0.765,8.431 0.765,16.764c4.125,1.375 8.25,2.75 12.5,4.167c-0.43,3.867 -0.859,7.734 -1.302,11.719c-0.191,13.825 -0.191,13.825 10.417,21.094c16.202,6.481 27.11,5.801 44.01,2.344c3.094,-0.602 6.188,-1.203 9.375,-1.823c1.375,1.375 2.75,2.75 4.167,4.167c6.981,-1.192 13.933,-2.574 20.833,-4.167l0,8.333c4.383,-3.609 4.383,-3.609 8.854,-7.292c11.979,-9.375 11.979,-9.375 25.26,-17.969c12.465,-7.52 12.465,-7.52 20.052,-20.573l12.5,0c-0.086,-3.18 -0.172,-6.359 -0.26,-9.635c0.26,-11.198 0.26,-11.198 4.427,-23.698c0.283,-7.2 0.354,-14.41 0.26,-21.615c-0.038,-3.754 -0.075,-7.509 -0.114,-11.377c-0.048,-2.863 -0.097,-5.726 -0.146,-8.675l8.333,0l0,-25l8.333,0c2.75,6.875 5.5,13.75 8.333,20.833l8.333,0c-0.687,3.266 -1.375,6.531 -2.083,9.896c-2.992,15.706 -1.186,21.996 6.25,35.938c6.931,-6.931 5.669,-15.761 6.51,-25.26c0.524,-5.744 0.524,-5.744 1.058,-11.605c0.252,-2.959 0.505,-5.919 0.765,-8.968l4.167,0c3.263,44.31 -1.653,83.355 -29.395,119.482c-18.322,19.368 -37.259,33.68 -62.272,43.018c-3.926,1.466 -7.853,2.933 -11.898,4.443c-32.232,9.569 -63.119,7.676 -93.571,-6.527c-37.907,-21.404 -62.35,-48.766 -77.865,-89.583c-10.48,-43 -3.925,-77.771 16.667,-116.667c17.777,-26.92 47.452,-51.031 78.906,-60.156c20.654,-3.944 41.834,-3.036 62.76,-2.344Z" style="fill:#ebeee5;fill-rule:nonzero;"/><path d="M498.011,305.16c35.571,27.971 59.58,64.253 66.927,109.375c4.511,46.148 -6.835,91.309 -34.342,128.906c-26.66,31.281 -57.871,55.137 -98.991,62.76c-10.066,0.285 -20.139,0.354 -30.208,0.26c-5.264,-0.038 -10.527,-0.075 -15.951,-0.114c-6.026,-0.073 -6.026,-0.073 -12.174,-0.146l0,-12.5c-4.125,-1.375 -8.25,-2.75 -12.5,-4.167c1.375,-2.75 2.75,-5.5 4.167,-8.333c10.645,-1.139 10.645,-1.139 24.479,-1.562c49.811,-3.375 83.762,-19.13 117.188,-56.771c24.314,-34.487 30.447,-70.723 25,-112.5c-13.339,-37.999 -31.366,-69.277 -67.92,-88.33c-35.412,-16.518 -71.392,-22.59 -109.684,-11.149c-39.943,15.203 -66.473,39.504 -85.283,77.488c-6.301,15.825 -7.49,31.684 -8.727,48.553c-3.012,35.191 -3.012,35.191 -7.552,44.271l-20.833,0c-2.286,-61.266 -1.465,-108.322 40.267,-157.113c63.31,-62.145 152.929,-69.255 226.139,-18.929Z" style="fill:#474e37;fill-rule:nonzero;"/><path d="M231.605,43.701c34.109,16.331 54.528,43.041 71.517,76.107c10.088,32.999 9.711,78.578 -5.111,109.831c-11.38,18.728 -25.094,36.853 -41.406,51.562l-8.333,0c2.75,-5.5 5.5,-11 8.333,-16.667c-12.151,-1.043 -12.151,-1.043 -25,0c-2.75,4.125 -5.5,8.25 -8.333,12.5l-8.333,0c-1.375,-2.75 -2.75,-5.5 -4.167,-8.333c-1.633,2.75 -3.266,5.5 -4.948,8.333c-7.552,8.333 -7.552,8.333 -18.75,9.375c-3.18,-0.344 -6.359,-0.688 -9.635,-1.042c5.5,-2.75 11,-5.5 16.667,-8.333l0,-8.333c-4.641,2.836 -4.641,2.836 -9.375,5.729c-25.561,15.104 -25.561,15.104 -40.625,15.104l0,-8.333l12.5,0l0,-8.333c-6.188,2.062 -6.188,2.062 -12.5,4.167c-27.254,0.956 -27.254,0.956 -37.5,-4.167l0,-8.333c-4.039,-1.805 -8.078,-3.609 -12.24,-5.469c-12.76,-7.031 -12.76,-7.031 -16.927,-19.531c-3.523,-3.523 -7.047,-7.047 -10.677,-10.677c-10.156,-10.156 -10.156,-10.156 -10.156,-18.49l12.5,0c-6.875,-5.5 -13.75,-11 -20.833,-16.667c1.375,-4.125 2.75,-8.25 4.167,-12.5l4.167,0c-2.75,-4.125 -5.5,-8.25 -8.333,-12.5c-1.565,-15.654 -0.684,-19.807 8.333,-33.333c1.375,-2.75 2.75,-5.5 4.167,-8.333l8.333,0l0,25l8.333,0c0.156,3.416 0.312,6.832 0.472,10.352c0.411,6.735 0.411,6.735 0.83,13.607c0.242,4.447 0.483,8.895 0.732,13.477c2.3,13.554 5.917,18.926 14.632,29.232c1.375,4.125 2.75,8.25 4.167,12.5c1.375,-2.75 2.75,-5.5 4.167,-8.333l8.333,0c1.375,4.125 2.75,8.25 4.167,12.5c9.375,11.458 9.375,11.458 20.833,20.833l16.667,0c1.375,2.75 2.75,5.5 4.167,8.333c1.375,-1.375 2.75,-2.75 4.167,-4.167c5.525,-1.507 11.081,-2.905 16.667,-4.167l0,8.333c2.75,-2.75 5.5,-5.5 8.333,-8.333c5.242,0.172 10.484,0.344 15.885,0.521c13.077,0.238 17.537,-0.566 29.688,-6.771c12.011,-14.558 11.255,-25.084 12.76,-43.75c2.75,-2.75 5.5,-5.5 8.333,-8.333c5.34,-26.948 9.778,-54.036 -5.99,-77.865c-1.971,-2.422 -3.942,-4.845 -5.973,-7.34c-4.704,-6.462 -4.704,-6.462 -4.704,-18.962l-20.833,0c-2.062,-6.188 -2.062,-6.188 -4.167,-12.5c-3.266,-0.516 -6.531,-1.031 -9.896,-1.562c-10.938,-2.604 -10.938,-2.604 -19.271,-10.938c-6.875,-2.946 -13.815,-5.748 -20.833,-8.333l0,-8.333c12.683,-0.343 21.132,0.1 33.333,4.167l0,-8.333c14.201,-8.941 21.521,-8.488 37.5,-4.167Z" style="fill:#eaede4;fill-rule:nonzero;"/><path d="M360.772,322.868l12.5,0c2.062,4.125 2.062,4.125 4.167,8.333c1.375,-1.375 2.75,-2.75 4.167,-4.167c8.332,-0.17 16.669,-0.177 25,0l0,8.333c-8.25,2.75 -16.5,5.5 -25,8.333l0,4.167c-9.625,1.375 -19.25,2.75 -29.167,4.167c2.75,2.75 5.5,5.5 8.333,8.333c-6.595,6.595 -14.085,5.614 -23.177,6.51c-3.443,0.349 -6.886,0.698 -10.433,1.058c-2.659,0.252 -5.317,0.505 -8.057,0.765l0,8.333c5.5,-2.75 11,-5.5 16.667,-8.333c-4.167,12.5 -4.167,12.5 -16.667,20.833c-9.851,16.419 -13.336,29.363 -9.375,48.177c1.719,4.727 3.438,9.453 5.208,14.323c2.386,14.846 4.171,29.25 4.948,44.271c3.508,14.573 7.549,22.465 19.694,31.559c18.804,7.219 39.274,2 58.691,-0.83l12.5,0l0,8.333c3.953,-2.75 7.906,-5.5 11.979,-8.333c13.021,-8.333 13.021,-8.333 21.354,-8.333l0,-8.333l8.333,0c1.375,4.125 2.75,8.25 4.167,12.5c1.375,-8.25 2.75,-16.5 4.167,-25c5.5,-1.375 11,-2.75 16.667,-4.167c1.375,-6.875 2.75,-13.75 4.167,-20.833l8.333,0l0,16.667c6.875,-2.75 13.75,-5.5 20.833,-8.333c-6.052,15.956 -14.287,21.335 -29.167,29.167c2.75,2.75 5.5,5.5 8.333,8.333c-11.509,11.509 -21.696,10.744 -37.5,12.5c5.5,2.75 11,5.5 16.667,8.333c-13.807,9.205 -18.103,9.27 -34.115,8.854c-3.754,-0.075 -7.509,-0.15 -11.377,-0.228c-2.863,-0.097 -5.726,-0.193 -8.675,-0.293c5.5,1.375 11,2.75 16.667,4.167l0,8.333c-5.93,-1.031 -5.93,-1.031 -11.979,-2.083c-12.195,-2.303 -12.195,-2.303 -21.354,-2.083l0,4.167c-17.687,1.387 -26.481,1.829 -41.406,-8.333c-2.836,-2.75 -5.672,-5.5 -8.594,-8.333c1.805,3.392 1.805,3.392 3.646,6.852c1.547,2.981 3.094,5.962 4.688,9.033c1.547,2.949 3.094,5.897 4.688,8.936c3.646,8.512 3.646,8.512 3.646,21.012c4.125,2.062 4.125,2.062 8.333,4.167l0,12.5l45.833,0l0,4.167l-41.667,0c-1.375,2.75 -2.75,5.5 -4.167,8.333c-8.953,5.199 -14.57,8.333 -25,8.333c-0.865,-2.621 -1.729,-5.242 -2.62,-7.943c-13.98,-38.839 -31.43,-62.207 -68.734,-80.859c-4.136,-1.875 -8.271,-3.749 -12.533,-5.68c-11.487,-5.305 -22.057,-11.321 -32.78,-18.018c2.75,-5.5 5.5,-11 8.333,-16.667c-17.875,-1.375 -35.75,-2.75 -54.167,-4.167l0,-4.167l50,0l0,-8.333l16.667,0c1.375,-6.875 2.75,-13.75 4.167,-20.833l4.167,0c0.709,2.659 1.418,5.317 2.148,8.057c1.01,3.443 2.02,6.886 3.06,10.433c0.967,3.432 1.934,6.864 2.93,10.4c3.561,9.443 3.561,9.443 13.151,11.882c2.6,0.295 5.199,0.591 7.878,0.895l0,-8.333c8.25,-2.062 8.25,-2.062 16.667,-4.167c-2.492,-0.344 -4.984,-0.688 -7.552,-1.042c-11.737,-4.024 -15.273,-9.328 -21.615,-19.792l0,-8.333l8.333,0c-2.75,-4.125 -5.5,-8.25 -8.333,-12.5c-0.521,-13.281 -0.521,-13.281 0,-25l8.333,0l0,-37.5l8.333,0c1.375,2.75 2.75,5.5 4.167,8.333c0.43,-5.328 0.859,-10.656 1.302,-16.146c0.732,-9.082 0.732,-9.082 2.865,-17.188c12.5,-8.333 12.5,-8.333 20.833,-8.333c1.031,-2.664 2.062,-5.328 3.125,-8.073c5.208,-8.594 5.208,-8.594 14.062,-11.719c2.578,-0.344 5.156,-0.688 7.812,-1.042l0,8.333c1.805,-2.75 3.609,-5.5 5.469,-8.333c2.32,-2.75 4.641,-5.5 7.031,-8.333Z" style="fill:#4d563c;fill-rule:nonzero;"/><path d="M144.105,81.201c28.125,-0.521 28.125,-0.521 37.5,4.167c1.633,2.922 3.266,5.844 4.948,8.854c7.005,11.111 13.326,17.581 22.917,26.302c13.598,13.142 13.598,13.142 15.365,27.865c-0.773,5.93 -0.773,5.93 -1.562,11.979c0.859,3.781 1.719,7.562 2.604,11.458c0.516,3.094 1.031,6.188 1.562,9.375c-2.75,2.75 -5.5,5.5 -8.333,8.333c1.646,12.345 6.659,22.43 12.5,33.333c-11.977,6.708 -21.506,9.565 -35.156,10.677c-10.813,0.98 -20.851,2.206 -31.51,4.427c-2.75,0.516 -5.5,1.031 -8.333,1.562c-4.167,-4.167 -4.167,-4.167 -4.427,-16.927c0.129,-6.059 0.129,-6.059 0.26,-12.24c-5.285,-0.258 -5.285,-0.258 -10.677,-0.521c-18.834,-4.794 -30.515,-14.367 -43.49,-28.646c-9.335,-15.733 -10.229,-27.512 -8.333,-45.833c9.482,-18.262 18.862,-28.672 37.5,-37.5l8.333,0c2.75,-5.5 5.5,-11 8.333,-16.667Z" style="fill:#5f6456;fill-rule:nonzero;"/><path d="M231.605,568.701c12.858,15.002 20.521,32.315 29.167,50c4.125,6.188 4.125,6.188 8.333,12.5c-1.271,8.352 -2.67,16.685 -4.167,25c1.536,11.536 1.536,11.536 4.167,20.833c-8.25,4.125 -8.25,4.125 -16.667,8.333c0.65,2.659 1.3,5.317 1.969,8.057c0.811,3.443 1.622,6.886 2.458,10.433c0.822,3.432 1.644,6.864 2.49,10.4c0.467,2.841 0.935,5.683 1.416,8.61c-4.167,4.167 -4.167,4.167 -12.663,4.72c-57.792,-0.175 -57.792,-0.175 -66.504,-8.887c1.197,-9.748 2.581,-19.475 4.167,-29.167c-3.714,-0.588 -3.714,-0.588 -7.503,-1.188c-11.211,-3.644 -15.092,-8.21 -22.445,-17.301c-2.122,-2.573 -4.243,-5.146 -6.429,-7.796c-11.236,-14.97 -9.966,-25.499 -7.601,-43.522c5.32,-21.54 23.584,-31.012 41.374,-41.911c16.82,-8.788 29.293,-13.244 48.438,-9.115Z" style="fill:#535648;fill-rule:nonzero;"/><path d="M425.648,828.304c3.513,2.159 7.025,4.318 10.645,6.543c3.534,2.138 7.068,4.275 10.71,6.478c16.167,11.016 16.167,11.016 22.103,19.043c3.791,20.102 4.432,40.998 -4.736,59.619c-10.623,13.411 -17.625,18.815 -34.326,23.454c-5.414,0.129 -5.414,0.129 -10.938,0.26c1.375,9.625 2.75,19.25 4.167,29.167l-75,0c-4.473,-17.892 -3.32,-21.646 4.167,-37.5c-4.125,-2.75 -8.25,-5.5 -12.5,-8.333c-4.689,-19.878 -4.073,-38.812 6.25,-56.608c5.046,-6.329 10.28,-12.514 15.723,-18.506c7.002,-8 10.924,-15.396 15.527,-24.886c16.778,-12.149 30.612,-7.663 48.21,1.27Z" style="fill:#565b4a;fill-rule:nonzero;"/><path d="M369.105,739.535c50.857,-3.299 95.592,6.256 136.605,37.63c32.949,29.288 55.424,66.842 61.23,110.889c2.071,54.341 -15.725,100.968 -52.262,141.064c-34.639,33.524 -75.43,48.217 -122.656,48.438c-7.64,-0.132 -15.279,-0.292 -22.917,-0.521l0,-4.167c18.562,-2.062 18.562,-2.062 37.5,-4.167c1.375,-5.5 2.75,-11 4.167,-16.667l8.333,0l0,-8.333c2.718,-1.01 5.436,-2.02 8.236,-3.06c40.369,-15.481 72.332,-34.866 93.148,-74.056c14.368,-34.829 18.367,-69.206 5.583,-105.078c-18.55,-41.827 -43.507,-67.44 -86.133,-84.473c-11.727,-3.198 -11.727,-3.198 -20.833,-4.167c5.5,-4.125 11,-8.25 16.667,-12.5c-3.867,-0.902 -3.867,-0.902 -7.812,-1.823c-8.854,-2.344 -8.854,-2.344 -17.188,-6.51c-7.098,-0.943 -14.222,-1.704 -21.354,-2.344c-3.792,-0.349 -7.584,-0.698 -11.491,-1.058c-2.911,-0.252 -5.822,-0.505 -8.822,-0.765l0,-8.333Z" style="fill:#4a513a;fill-rule:nonzero;"/><path d="M360.772,789.535c12.375,1.375 24.75,2.75 37.5,4.167l0,8.333c-6.875,1.375 -13.75,2.75 -20.833,4.167l0,8.333c-11,2.75 -22,5.5 -33.333,8.333l0,12.5c-6.891,5.622 -13.84,11.172 -20.833,16.667c-5.243,7.708 -5.243,7.708 -8.333,16.667c-1.633,4.125 -3.266,8.25 -4.948,12.5c-3.585,13.236 -2.736,16.55 0.781,29.167c0.886,6.41 1.666,12.836 2.344,19.271c0.349,3.233 0.698,6.467 1.058,9.798c0.765,8.431 0.765,8.431 0.765,16.764c4.125,1.375 8.25,2.75 12.5,4.167c-0.43,3.867 -0.859,7.734 -1.302,11.719c-0.191,13.825 -0.191,13.825 10.417,21.094c16.202,6.481 27.11,5.801 44.01,2.344c3.094,-0.602 6.188,-1.203 9.375,-1.823c2.062,2.062 2.062,2.062 4.167,4.167c6.981,-1.192 13.933,-2.574 20.833,-4.167l0,8.333c4.383,-3.609 4.383,-3.609 8.854,-7.292c11.979,-9.375 11.979,-9.375 25.26,-17.969c12.465,-7.52 12.465,-7.52 20.052,-20.573l12.5,0c-0.086,-3.18 -0.172,-6.359 -0.26,-9.635c0.26,-11.198 0.26,-11.198 4.427,-23.698c0.283,-7.2 0.354,-14.41 0.26,-21.615c-0.038,-3.754 -0.075,-7.509 -0.114,-11.377c-0.048,-2.863 -0.097,-5.726 -0.146,-8.675l8.333,0l0,-25l8.333,0c2.75,6.875 5.5,13.75 8.333,20.833l8.333,0c-0.688,3.266 -1.375,6.531 -2.083,9.896c-2.343,10.446 -2.343,10.446 -2.083,19.271l4.167,0c1.538,18.974 1.538,18.974 -6.25,28.385c-2.062,1.633 -4.125,3.266 -6.25,4.948c1.375,1.375 2.75,2.75 4.167,4.167c-5.806,14.03 -12.412,20.775 -25,29.167c2.75,2.75 5.5,5.5 8.333,8.333c-4.125,2.578 -8.25,5.156 -12.5,7.812c-6.188,4.383 -6.188,4.383 -12.5,8.854l0,8.333c-10.023,5.011 -16.458,4.586 -27.604,4.427c-5.108,-0.056 -5.108,-0.056 -10.319,-0.114c-2.61,-0.048 -5.221,-0.097 -7.91,-0.146c4.125,1.375 8.25,2.75 12.5,4.167l0,8.333c-23.958,0.521 -23.958,0.521 -33.333,-4.167l0,8.333c-13.259,0.368 -24.891,0.181 -37.5,-4.167c-2.75,-2.75 -5.5,-5.5 -8.333,-8.333c-13.411,-8.142 -26.22,-10.394 -41.667,-12.5c1.375,-2.75 2.75,-5.5 4.167,-8.333c-4.125,-2.578 -8.25,-5.156 -12.5,-7.812c-6.188,-4.383 -6.188,-4.383 -12.5,-8.854l0,-8.333c4.125,-2.062 4.125,-2.062 8.333,-4.167c-3.438,-2.578 -6.875,-5.156 -10.417,-7.812c-5.156,-4.383 -5.156,-4.383 -10.417,-8.854l0,-8.333l8.333,0c-2.062,-2.148 -4.125,-4.297 -6.25,-6.51c-8.319,-13.518 -7.149,-23.749 -6.25,-39.323c2.75,2.75 5.5,5.5 8.333,8.333c-1.375,-12.375 -2.75,-24.75 -4.167,-37.5c2.75,-1.375 5.5,-2.75 8.333,-4.167c1.289,-3.953 2.578,-7.906 3.906,-11.979c4.299,-12.643 7.192,-17.056 16.927,-25.521c1.375,-2.75 2.75,-5.5 4.167,-8.333c8.333,0 8.333,0 12.5,4.167c4.125,-6.875 8.25,-13.75 12.5,-20.833c4.125,1.375 8.25,2.75 12.5,4.167c2.75,-4.125 5.5,-8.25 8.333,-12.5Z" style="fill:#4f5545;fill-rule:nonzero;"/><path d="M401.136,355.16c4.77,0.516 4.77,0.516 9.635,1.042c-4.125,6.188 -4.125,6.188 -8.333,12.5l-8.333,0c1.203,2.32 2.406,4.641 3.646,7.031c8.215,16.886 14.008,32.752 17.188,51.302l12.5,0l0,-20.833c4.125,-1.375 8.25,-2.75 12.5,-4.167c-1.375,6.875 -2.75,13.75 -4.167,20.833l8.333,0l0,29.167c8.992,-3.947 8.992,-3.947 16.667,-12.5c1.918,-13.214 2.914,-20.771 0,-33.333c-9.066,-11.213 -16.294,-18.564 -29.167,-25c-1.375,6.875 -2.75,13.75 -4.167,20.833c-2.75,-1.375 -5.5,-2.75 -8.333,-4.167l0,-37.5c20.399,9.228 43.735,20.803 54.167,41.667c1.792,17.542 1.958,32.862 -4.948,49.219c-12.66,15.279 -22.534,24.456 -42.188,28.906c-5.543,0.516 -5.543,0.516 -11.198,1.042c1.375,8.25 2.75,16.5 4.167,25c-15.897,5.419 -30.315,3.724 -46.875,2.344c-5.264,-0.424 -10.527,-0.849 -15.951,-1.286c-4.018,-0.349 -8.035,-0.698 -12.174,-1.058c-2.604,-7.552 -2.604,-7.552 -4.167,-16.667c4.125,-6.188 4.125,-6.188 8.333,-12.5c-1.151,-8.086 -1.151,-8.086 -4.167,-16.667c-6.387,-20.322 -3.822,-38.846 4.167,-58.333c6.825,-8.569 14.027,-15.623 22.217,-22.884c7.593,-6.348 7.593,-6.348 13.721,-16.439c5.729,-6.51 5.729,-6.51 16.927,-7.552Z" style="fill:#575c4e;fill-rule:nonzero;"/><path d="M223.272,543.701c11.458,-1.042 11.458,-1.042 25,0c9.896,8.333 9.896,8.333 16.667,16.667c-2.062,-6.188 -2.062,-6.188 -4.167,-12.5c7.552,0.521 7.552,0.521 16.667,4.167c7.292,12.76 7.292,12.76 12.5,25l0,-12.5l8.333,0c4.125,9.625 8.25,19.25 12.5,29.167l8.333,0l0,37.5c2.75,-2.75 5.5,-5.5 8.333,-8.333c1.042,27.604 1.042,27.604 -8.333,41.667c4.125,-1.375 8.25,-2.75 12.5,-4.167c-3.125,23.958 -3.125,23.958 -12.5,33.333c1.375,4.125 2.75,8.25 4.167,12.5c-5.556,5.556 -11.111,11.111 -16.667,16.667l0,12.5c-8.25,4.125 -16.5,8.25 -25,12.5l0,8.333c-4.469,1.203 -8.938,2.406 -13.542,3.646c-11.925,3.577 -21.398,7.372 -32.292,13.021l-8.333,0c-4.125,2.062 -4.125,2.062 -8.333,4.167c-8.346,-0.261 -16.683,-0.823 -25,-1.562c-6.703,-0.564 -6.703,-0.564 -13.542,-1.139c-11.458,-1.465 -11.458,-1.465 -19.792,-5.632l0,-8.333c-4.77,-1.805 -4.77,-1.805 -9.635,-3.646c-11.198,-4.688 -11.198,-4.688 -23.698,-13.021l0,-8.333c-8.164,-7.143 -16.495,-14.1 -25,-20.833c8.25,-2.062 8.25,-2.062 16.667,-4.167c-3.352,-1.633 -6.703,-3.266 -10.156,-4.948c-10.677,-7.552 -10.677,-7.552 -14.063,-18.75c-0.258,-3.18 -0.516,-6.359 -0.781,-9.635c5.5,2.75 11,5.5 16.667,8.333c1.375,-4.125 2.75,-8.25 4.167,-12.5l8.333,0c1.375,8.25 2.75,16.5 4.167,25c4.125,1.375 8.25,2.75 12.5,4.167c4.948,8.594 4.948,8.594 8.333,16.667l8.333,0c1.805,2.75 3.609,5.5 5.469,8.333c2.32,2.75 4.641,5.5 7.031,8.333c3.153,-0.005 6.306,-0.011 9.554,-0.016c16.218,0.023 28.019,6.711 42.529,13.444c16.326,5.077 27.947,0.173 43.75,-5.094c4.097,-7.492 4.097,-7.492 6.771,-16.406c2.969,-8.794 5.741,-16.951 9.896,-25.26l8.333,0c1.375,-6.875 2.75,-13.75 4.167,-20.833l8.333,0c-2.062,-12.375 -2.062,-12.375 -4.167,-25l8.333,0c-2.75,-4.125 -5.5,-8.25 -8.333,-12.5c0.859,-2.578 1.719,-5.156 2.604,-7.812c0.773,-4.383 0.773,-4.383 1.562,-8.854c-7.715,-11.469 -7.715,-11.469 -16.667,-20.833c1.375,-2.75 2.75,-5.5 4.167,-8.333c-6.875,-4.125 -13.75,-8.25 -20.833,-12.5c1.375,-4.125 2.75,-8.25 4.167,-12.5c-9.625,-1.375 -19.25,-2.75 -29.167,-4.167c1.375,-2.75 2.75,-5.5 4.167,-8.333c-3.352,-1.203 -6.703,-2.406 -10.156,-3.646c-10.677,-4.688 -10.677,-4.688 -14.844,-13.021Z" style="fill:#515846;fill-rule:nonzero;"/><path d="M398.272,335.368c1.375,4.125 2.75,8.25 4.167,12.5c10.435,5.078 10.435,5.078 20.833,8.333l0,41.667c5.409,-4.788 5.409,-4.788 8.333,-16.667c11.271,3.655 19.517,7.153 28.385,15.104c7.629,15.258 6.568,26.219 4.948,43.229c-5.729,8.333 -5.729,8.333 -12.5,12.5l-8.333,0l0,-29.167l-8.333,0c1.375,-6.875 2.75,-13.75 4.167,-20.833c-9.831,9.831 -10.381,15.746 -12.5,29.167c-5.5,-1.375 -11,-2.75 -16.667,-4.167c-0.516,-6.574 -0.516,-6.574 -1.042,-13.281c-3.384,-17.203 -8.832,-23.567 -19.792,-36.719c1.375,-4.125 2.75,-8.25 4.167,-12.5c4.125,-1.375 8.25,-2.75 12.5,-4.167c-17.815,2.024 -24.939,6.498 -36.198,20.312c-2.422,2.911 -4.845,5.822 -7.34,8.822c-11.811,15.292 -16.188,24.919 -17.92,44.043c-0.408,4.044 -0.816,8.089 -1.237,12.256c-0.994,11.138 -0.994,11.138 8.529,18.734c-1.302,9.896 -1.302,9.896 -4.167,20.833c-0.602,2.75 -1.203,5.5 -1.823,8.333c-2.829,10.058 -6.661,19.529 -10.677,29.167c-8.073,-4.427 -8.073,-4.427 -16.667,-12.5c-2.865,-13.542 -2.865,-13.542 -4.167,-29.167c-0.773,-4.898 -1.547,-9.797 -2.344,-14.844c-1.694,-13.306 -2.15,-25.931 -1.823,-39.323c-2.75,-1.375 -5.5,-2.75 -8.333,-4.167c2.58,-6.087 5.19,-12.161 7.812,-18.229c1.45,-3.384 2.9,-6.768 4.395,-10.254c4.46,-9.017 4.46,-9.017 12.793,-17.35l-8.333,0l0,-8.333c12.375,-2.75 24.75,-5.5 37.5,-8.333c-4.125,-2.75 -8.25,-5.5 -12.5,-8.333c6.703,-1.805 6.703,-1.805 13.542,-3.646c13.366,-4.01 26.811,-13.021 40.625,-13.021Z" style="fill:#f3f4ef;fill-rule:nonzero;"/><path d="M385.772,772.868c39.8,-3.417 67.666,0.685 100,25c11.294,10.222 20.432,20.872 29.167,33.333c1.805,2.519 3.609,5.038 5.469,7.633c14.69,24.229 15.385,52.294 11.198,79.867c-6.364,7.861 -6.364,7.861 -12.5,12.5c-1.375,-6.875 -2.75,-13.75 -4.167,-20.833c-4.125,2.062 -4.125,2.062 -8.333,4.167c4.125,-12.375 8.25,-24.75 12.5,-37.5l-8.333,0c-1.375,4.125 -2.75,8.25 -4.167,12.5c-1.375,-11 -2.75,-22 -4.167,-33.333l-8.333,0c1.375,12.375 2.75,24.75 4.167,37.5c-5.5,-2.75 -11,-5.5 -16.667,-8.333l-8.333,0c-1.633,-4.469 -3.266,-8.938 -4.948,-13.542c-6.67,-15.418 -14.173,-22.925 -28.385,-32.292c-2.245,-1.601 -4.49,-3.201 -6.803,-4.85c-14.177,-9.346 -21.666,-11.861 -38.77,-10.775c-6.316,1.547 -6.316,1.547 -12.76,3.125l0,-20.833c5.5,-1.375 11,-2.75 16.667,-4.167c-2.062,-3.266 -4.125,-6.531 -6.25,-9.896c-6.25,-10.938 -6.25,-10.938 -6.25,-19.271Z" style="fill:#f8f9f5;fill-rule:nonzero;"/><path d="M498.272,397.868c2.75,1.375 5.5,2.75 8.333,4.167c2.604,10.677 2.604,10.677 4.167,20.833c11.947,-2.389 16.089,-3.589 25,-12.5c2.069,49.58 -2.396,85.526 -35.547,124.089c-25.508,27.363 -57.439,43.82 -94.824,48.438c-13.87,0.39 -26.738,0.434 -40.462,-1.693c-13.047,-13.047 -16.667,-19.148 -16.667,-37.5c16.146,7.812 16.146,7.812 20.833,12.5c6.942,0.169 13.891,0.178 20.833,0c-1.375,-2.75 -2.75,-5.5 -4.167,-8.333c15.86,2.799 30.634,7.198 45.833,12.5l0,-8.333c-6.875,-1.375 -13.75,-2.75 -20.833,-4.167c15.33,-4.906 29.861,-4.167 45.833,-4.167c4.125,-2.062 4.125,-2.062 8.333,-4.167c-5.5,-2.75 -11,-5.5 -16.667,-8.333c8.053,-8.053 22.443,-6.778 33.333,-8.333c2.062,-2.062 2.062,-2.062 4.167,-4.167c-4.125,-2.75 -8.25,-5.5 -12.5,-8.333c16.5,-10.312 16.5,-10.312 33.333,-20.833l-16.667,0c-3.748,-15.412 -4.225,-28.257 -2.604,-44.01c0.564,-5.809 0.564,-5.809 1.139,-11.735c1.746,-13.017 3.917,-24.158 9.798,-35.921Z" style="fill:#e8eae2;fill-rule:nonzero;"/><path d="M31.605,135.368l4.167,0c1.375,15.125 2.75,30.25 4.167,45.833l8.333,0c4.223,6.91 8.38,13.861 12.5,20.833c5.399,5.708 10.916,11.313 16.667,16.667c-10.312,-4.125 -10.312,-4.125 -20.833,-8.333c6.598,13.197 10.219,19.72 23.698,26.302c3.18,0.945 6.359,1.891 9.635,2.865c-2.75,2.75 -5.5,5.5 -8.333,8.333c14.352,9.568 24.742,10.584 41.667,12.5c-5.5,1.375 -11,2.75 -16.667,4.167l0,8.333l50,0l0,8.333l-12.5,0l0,8.333c20.398,-7.821 20.398,-7.821 37.5,-20.833l12.5,0l0,8.333c-4.125,2.062 -4.125,2.062 -8.333,4.167c8.086,-1.151 8.086,-1.151 16.667,-4.167c2.75,-4.125 5.5,-8.25 8.333,-12.5c2.75,1.375 5.5,2.75 8.333,4.167c-2.062,4.125 -2.062,4.125 -4.167,8.333l8.333,0c2.75,-5.5 5.5,-11 8.333,-16.667l29.167,0c-8.777,22.38 -17.548,31.369 -39.583,41.406c-37.406,13.743 -72.403,14.197 -108.838,-2.588c-39.349,-21.774 -60.725,-48.694 -78.141,-89.86c-4.096,-24.578 -3.225,-49.105 -2.604,-73.958Z" style="fill:#f0f2e9;fill-rule:nonzero;"/><path d="M60.772,127.035l8.333,0l0,25l8.333,0c0.156,3.416 0.312,6.832 0.472,10.352c0.411,6.735 0.411,6.735 0.83,13.607c0.242,4.447 0.483,8.895 0.732,13.477c2.3,13.554 5.917,18.926 14.632,29.232c1.375,4.125 2.75,8.25 4.167,12.5c1.375,-2.75 2.75,-5.5 4.167,-8.333l8.333,0c1.375,4.125 2.75,8.25 4.167,12.5c9.375,11.458 9.375,11.458 20.833,20.833l16.667,0c1.375,2.75 2.75,5.5 4.167,8.333c1.375,-1.375 2.75,-2.75 4.167,-4.167c5.525,-1.507 11.081,-2.905 16.667,-4.167l0,8.333c2.75,-2.75 5.5,-5.5 8.333,-8.333c5.242,0.172 10.484,0.344 15.885,0.521c13.077,0.238 17.537,-0.566 29.688,-6.771c9.055,-10.976 9.897,-14.106 11.198,-27.604c0.773,-7.992 0.773,-7.992 1.562,-16.146c4.125,-2.75 8.25,-5.5 12.5,-8.333l0,29.167c10.312,-6.188 10.312,-6.188 20.833,-12.5c-6.154,19.487 -6.154,19.487 -17.188,26.302c-2.578,0.945 -5.156,1.891 -7.812,2.865c2.062,6.188 2.062,6.188 4.167,12.5c-3.953,1.117 -7.906,2.234 -11.979,3.385c-14.074,3.906 -14.074,3.906 -21.354,17.448l-8.333,0c-1.375,-2.75 -2.75,-5.5 -4.167,-8.333c-1.633,2.75 -3.266,5.5 -4.948,8.333c-7.552,8.333 -7.552,8.333 -18.75,9.375c-3.18,-0.344 -6.359,-0.688 -9.635,-1.042c5.5,-2.75 11,-5.5 16.667,-8.333l0,-8.333c-4.641,2.836 -4.641,2.836 -9.375,5.729c-25.561,15.104 -25.561,15.104 -40.625,15.104l0,-8.333l12.5,0l0,-8.333c-6.188,2.062 -6.188,2.062 -12.5,4.167c-27.254,0.956 -27.254,0.956 -37.5,-4.167l0,-8.333c-4.039,-1.805 -8.078,-3.609 -12.24,-5.469c-12.76,-7.031 -12.76,-7.031 -16.927,-19.531c-3.523,-3.523 -7.047,-7.047 -10.677,-10.677c-10.156,-10.156 -10.156,-10.156 -10.156,-18.49l12.5,0c-6.875,-5.5 -13.75,-11 -20.833,-16.667c1.375,-4.125 2.75,-8.25 4.167,-12.5l4.167,0c-2.75,-4.125 -5.5,-8.25 -8.333,-12.5c-1.565,-15.654 -0.684,-19.807 8.333,-33.333c1.375,-2.75 2.75,-5.5 4.167,-8.333Z" style="fill:#676d5d;fill-rule:nonzero;"/><path d="M539.938,472.868c0,12.5 0,12.5 -4.167,20.833l12.5,0c1.375,-4.125 2.75,-8.25 4.167,-12.5c5.47,16.409 1.545,20.914 -5.99,36.198c-24.022,45.571 -57.4,70.597 -106.12,87.37c-13.012,2.136 -25.762,1.815 -38.932,1.693c-5.264,-0.038 -10.527,-0.075 -15.951,-0.114c-4.018,-0.048 -8.035,-0.097 -12.174,-0.146l0,-12.5c-4.125,-1.375 -8.25,-2.75 -12.5,-4.167c1.375,-2.75 2.75,-5.5 4.167,-8.333c10.645,-1.139 10.645,-1.139 24.479,-1.562c44.435,-3.011 75.459,-14.989 107.894,-45.98c12.593,-14.622 21.183,-30.153 29.476,-47.51c4.818,-9.115 4.818,-9.115 13.151,-13.281Z" style="fill:#424b32;fill-rule:nonzero;"/><path d="M360.772,322.868l12.5,0c1.375,2.75 2.75,5.5 4.167,8.333c1.375,-1.375 2.75,-2.75 4.167,-4.167c8.332,-0.17 16.669,-0.177 25,0l0,8.333c-8.25,2.75 -16.5,5.5 -25,8.333l0,4.167c-9.625,1.375 -19.25,2.75 -29.167,4.167c2.75,2.75 5.5,5.5 8.333,8.333c-6.595,6.595 -14.085,5.614 -23.177,6.51c-3.443,0.349 -6.886,0.698 -10.433,1.058c-2.659,0.252 -5.317,0.505 -8.057,0.765l0,8.333c5.5,-2.75 11,-5.5 16.667,-8.333c-4.167,12.5 -4.167,12.5 -16.667,20.833c-9.851,16.419 -13.336,29.363 -9.375,48.177c1.719,4.727 3.438,9.453 5.208,14.323c2.379,14.801 4.177,29.313 5.208,44.271c3.826,17.215 10.698,23.676 23.958,34.896c-2.75,4.125 -5.5,8.25 -8.333,12.5c-2.941,-2.635 -2.941,-2.635 -5.941,-5.322c-3.891,-3.424 -3.891,-3.424 -7.861,-6.917c-2.562,-2.272 -5.124,-4.544 -7.764,-6.885c-7.819,-6.712 -7.819,-6.712 -20.101,-10.042c-1.375,-6.875 -2.75,-13.75 -4.167,-20.833c8.25,-2.062 8.25,-2.062 16.667,-4.167c-2.492,-0.344 -4.984,-0.688 -7.552,-1.042c-11.737,-4.024 -15.273,-9.328 -21.615,-19.792l0,-8.333l8.333,0c-2.75,-4.125 -5.5,-8.25 -8.333,-12.5c-0.521,-13.281 -0.521,-13.281 0,-25l8.333,0l0,-37.5l8.333,0c1.375,2.75 2.75,5.5 4.167,8.333c0.43,-5.328 0.859,-10.656 1.302,-16.146c0.732,-9.082 0.732,-9.082 2.865,-17.188c12.5,-8.333 12.5,-8.333 20.833,-8.333c1.547,-3.996 1.547,-3.996 3.125,-8.073c5.208,-8.594 5.208,-8.594 14.062,-11.719c2.578,-0.344 5.156,-0.688 7.812,-1.042l0,8.333c1.805,-2.75 3.609,-5.5 5.469,-8.333c2.32,-2.75 4.641,-5.5 7.031,-8.333Z" style="fill:#5b6150;fill-rule:nonzero;"/><path d="M373.272,306.201c1.375,4.125 2.75,8.25 4.167,12.5c12.375,2.062 12.375,2.062 25,4.167l0,4.167c-11,2.75 -22,5.5 -33.333,8.333c1.375,-4.125 2.75,-8.25 4.167,-12.5c-14.025,6.011 -22.96,13.886 -33.333,25l0,-12.5c-9.399,3.725 -9.399,3.725 -14.323,14.844c-2.148,3.352 -4.297,6.703 -6.51,10.156l-12.5,0c-1.375,12.375 -2.75,24.75 -4.167,37.5c-2.75,-1.375 -5.5,-2.75 -8.333,-4.167l0,-8.333l-8.333,0c1.375,15.125 2.75,30.25 4.167,45.833c-2.75,-1.375 -5.5,-2.75 -8.333,-4.167c-1.454,15.489 -1.454,15.489 6.25,28.385c2.062,1.633 4.125,3.266 6.25,4.948c-1.375,4.125 -2.75,8.25 -4.167,12.5c-2.062,-6.188 -2.062,-6.188 -4.167,-12.5l-8.333,0c7.157,12.82 7.157,12.82 16.667,25l16.667,0c-1.375,4.125 -2.75,8.25 -4.167,12.5c-5.5,-1.375 -11,-2.75 -16.667,-4.167c1.375,5.5 2.75,11 4.167,16.667c-12.934,-4.311 -22.435,-8.046 -29.443,-20.215c-13.857,-37.889 -11.564,-76.271 4.443,-113.118c19.956,-34.938 61.343,-74.612 104.167,-70.833Z" style="fill:#e7eae1;fill-rule:nonzero;"/><path d="M377.438,847.868c8.333,0 8.333,0 14.844,6.51c5.99,10.156 5.99,10.156 8.073,25.26c0.688,4.641 1.375,9.281 2.083,14.062c4.125,2.75 8.25,5.5 12.5,8.333c0,8.333 0,8.333 -6.25,15.104c-2.062,1.891 -4.125,3.781 -6.25,5.729c4.125,1.375 8.25,2.75 12.5,4.167c-1.375,12.375 -2.75,24.75 -4.167,37.5l-54.167,0c1.375,-8.25 2.75,-16.5 4.167,-25c6.875,-1.375 13.75,-2.75 20.833,-4.167l0,-8.333c-3.953,0.086 -7.906,0.172 -11.979,0.26c-13.021,-0.26 -13.021,-0.26 -21.354,-4.427c4.804,-41.176 4.804,-41.176 8.333,-50c4.125,-1.375 8.25,-2.75 12.5,-4.167l0,16.667l16.667,0c-1.449,-8.231 -1.449,-8.231 -4.167,-16.667c-2.75,-1.375 -5.5,-2.75 -8.333,-4.167c1.375,-5.5 2.75,-11 4.167,-16.667Z" style="fill:#f5f6ef;fill-rule:nonzero;"/><path d="M173.272,110.368l12.5,0c-7.812,23.958 -7.812,23.958 -12.5,33.333l20.833,0c-1.375,-6.875 -2.75,-13.75 -4.167,-20.833c8.073,3.125 8.073,3.125 16.667,8.333c2.865,7.812 2.865,7.812 4.167,16.667c0.773,2.75 1.547,5.5 2.344,8.333c1.823,8.333 1.823,8.333 1.823,25c-8.25,4.125 -8.25,4.125 -16.667,8.333c1.891,1.719 3.781,3.438 5.729,5.208c7.019,7.559 10.907,14.595 15.104,23.958c-7.826,7.826 -20.997,5.796 -31.51,6.51c-7.485,0.524 -7.485,0.524 -15.12,1.058c-3.862,0.252 -7.724,0.505 -11.702,0.765c-0.928,-5.981 -1.782,-11.973 -2.604,-17.969c-0.483,-3.335 -0.967,-6.671 -1.465,-10.107c-0.098,-9.424 -0.098,-9.424 8.236,-21.924c-4.125,-1.375 -8.25,-2.75 -12.5,-4.167l0,-8.333c2.75,-1.375 5.5,-2.75 8.333,-4.167c2.722,-9.51 2.722,-9.51 4.427,-20.573c3.548,-20.376 3.548,-20.376 8.073,-29.427Z" style="fill:#f4f6ef;fill-rule:nonzero;"/><path d="M360.772,789.535c12.375,1.375 24.75,2.75 37.5,4.167l0,8.333c-6.875,1.375 -13.75,2.75 -20.833,4.167l0,8.333c-11,2.75 -22,5.5 -33.333,8.333l0,12.5c-6.891,5.622 -13.84,11.172 -20.833,16.667c-5.243,7.708 -5.243,7.708 -8.333,16.667c-1.633,4.125 -3.266,8.25 -4.948,12.5c-4.267,11.714 -4.267,11.714 -1.4,20.378c2.56,10.316 1.748,18.08 0.358,28.581c-0.424,3.33 -0.849,6.66 -1.286,10.091c-0.349,2.514 -0.698,5.027 -1.058,7.617c-6.875,-1.375 -13.75,-2.75 -20.833,-4.167c-0.902,-3.996 -0.902,-3.996 -1.823,-8.073c-1.552,-8.491 -1.552,-8.491 -6.51,-12.76c-0.171,-9.721 -0.177,-19.446 0,-29.167c2.75,2.75 5.5,5.5 8.333,8.333c-1.375,-12.375 -2.75,-24.75 -4.167,-37.5c2.75,-1.375 5.5,-2.75 8.333,-4.167c1.289,-3.953 2.578,-7.906 3.906,-11.979c4.299,-12.643 7.192,-17.056 16.927,-25.521c1.375,-2.75 2.75,-5.5 4.167,-8.333c8.333,0 8.333,0 12.5,4.167c4.125,-6.875 8.25,-13.75 12.5,-20.833c4.125,1.375 8.25,2.75 12.5,4.167c2.75,-4.125 5.5,-8.25 8.333,-12.5Z" style="fill:#4b5040;fill-rule:nonzero;"/><path d="M381.605,381.201l8.333,0c8.186,12.279 9.296,15.399 10.156,29.167c1.231,13.453 1.231,13.453 8.854,24.479c1.977,1.547 3.953,3.094 5.99,4.688l0,8.333l-12.5,0c2.75,4.125 5.5,8.25 8.333,12.5c-0.132,12.761 -2.33,24.828 -4.167,37.5l-54.167,0c4.125,-14.438 4.125,-14.438 8.333,-29.167c5.5,-1.375 11,-2.75 16.667,-4.167c-9.625,-4.125 -19.25,-8.25 -29.167,-12.5c1.375,-13.75 2.75,-27.5 4.167,-41.667c5.5,-1.375 11,-2.75 16.667,-4.167c1.375,2.75 2.75,5.5 4.167,8.333c8.436,2.717 8.436,2.717 16.667,4.167c-1.375,-6.875 -2.75,-13.75 -4.167,-20.833l-12.5,0c2.75,-5.5 5.5,-11 8.333,-16.667Z" style="fill:#f6f7f1;fill-rule:nonzero;"/><path d="M239.938,556.201c4.125,1.375 8.25,2.75 12.5,4.167l0,8.333c6.875,1.375 13.75,2.75 20.833,4.167c0.516,3.867 0.516,3.867 1.042,7.812c2.344,9.622 2.344,9.622 11.719,14.062c2.664,1.031 5.328,2.062 8.073,3.125c-1.375,2.75 -2.75,5.5 -4.167,8.333c6.875,6.875 13.75,13.75 20.833,20.833c-1.375,2.75 -2.75,5.5 -4.167,8.333c-1.375,-1.375 -2.75,-2.75 -4.167,-4.167c2.914,13.114 7.337,25.108 12.5,37.5c-2.75,-1.375 -5.5,-2.75 -8.333,-4.167l0,-8.333l-8.333,0c1.375,8.25 2.75,16.5 4.167,25l-8.333,0c-1.375,6.875 -2.75,13.75 -4.167,20.833c-8.333,-4.167 -8.333,-4.167 -20.833,-12.5l-8.333,0c-2.75,5.5 -5.5,11 -8.333,16.667c-0.781,-9.896 -0.781,-9.896 0,-20.833c4.125,-2.75 8.25,-5.5 12.5,-8.333c-0.773,-3.695 -1.547,-7.391 -2.344,-11.198c-1.823,-13.802 -1.823,-13.802 1.042,-24.219c1.963,-15.704 -6.413,-22.735 -15.365,-35.417c-8.579,-17.813 -14.678,-30.576 -8.333,-50Z" style="fill:#f1f2ec;fill-rule:nonzero;"/><path d="M194.105,47.868c14.025,6.011 22.96,13.886 33.333,25c1.375,-4.125 2.75,-8.25 4.167,-12.5c6.25,4.167 6.25,4.167 12.5,12.5c1.139,11.327 0.562,21.903 0,33.333l8.333,0l0,-25c4.125,2.75 8.25,5.5 12.5,8.333c1.074,7.959 1.074,7.959 0.521,16.927c-0.172,5.414 -0.344,10.828 -0.521,16.406c1.375,1.375 2.75,2.75 4.167,4.167l0,-16.667l8.333,0c5.641,30.769 5.641,30.769 -1.823,43.75c-2.148,2.062 -4.297,4.125 -6.51,6.25c5.729,-6.25 5.729,-6.25 12.5,-12.5l8.333,0c1.538,22.564 1.538,22.564 -6.25,34.896c-2.062,2.234 -4.125,4.469 -6.25,6.771l12.5,0c-5.806,14.03 -12.412,20.775 -25,29.167c-2.75,-1.375 -5.5,-2.75 -8.333,-4.167c1.375,-4.125 2.75,-8.25 4.167,-12.5c-2.062,-2.062 -2.062,-2.062 -4.167,-4.167c0.247,-9.118 0.617,-18.232 1.042,-27.344c0.299,-24.446 -2.065,-38.752 -17.318,-57.861c-4.557,-6.462 -4.557,-6.462 -4.557,-18.962l-20.833,0c-1.375,-4.125 -2.75,-8.25 -4.167,-12.5c-4.898,-0.773 -4.898,-0.773 -9.896,-1.562c-10.938,-2.604 -10.938,-2.604 -19.271,-10.938c-6.875,-2.946 -13.815,-5.748 -20.833,-8.333l0,-8.333c12.683,-0.343 21.132,0.1 33.333,4.167l0,-8.333Z" style="fill:#58604e;fill-rule:nonzero;"/><path d="M260.772,631.201c-0.773,4.469 -1.547,8.938 -2.344,13.542c-1.533,13.141 -2.009,20.201 2.344,32.292c-6.875,2.75 -13.75,5.5 -20.833,8.333c2.75,9.625 5.5,19.25 8.333,29.167l-54.167,0c-3.625,-18.123 -4.316,-24.88 0,-41.667l8.333,0c-2.75,-8.25 -5.5,-16.5 -8.333,-25l16.667,0c1.375,-4.125 2.75,-8.25 4.167,-12.5c6.076,-0.7 12.152,-1.393 18.229,-2.083c3.384,-0.387 6.768,-0.773 10.254,-1.172c9.017,-0.911 9.017,-0.911 17.35,-0.911Z" style="fill:#f2f3ee;fill-rule:nonzero;"/><path d="M481.605,472.868l8.333,0l0,16.667c6.875,-2.75 13.75,-5.5 20.833,-8.333c-6.052,15.956 -14.287,21.335 -29.167,29.167c2.75,2.75 5.5,5.5 8.333,8.333c-11.509,11.509 -21.696,10.744 -37.5,12.5c5.5,2.75 11,5.5 16.667,8.333c-13.807,9.205 -18.103,9.27 -34.115,8.854c-3.754,-0.075 -7.509,-0.15 -11.377,-0.228c-2.863,-0.097 -5.726,-0.193 -8.675,-0.293c5.5,1.375 11,2.75 16.667,4.167l0,8.333c-3.953,-0.688 -7.906,-1.375 -11.979,-2.083c-12.195,-2.303 -12.195,-2.303 -21.354,-2.083l0,4.167c-17.687,1.387 -26.481,1.829 -41.406,-8.333c-2.836,-2.75 -5.672,-5.5 -8.594,-8.333c-1.375,2.75 -2.75,5.5 -4.167,8.333l0,-20.833c8.767,-0.7 17.534,-1.393 26.302,-2.083c4.882,-0.387 9.765,-0.773 14.795,-1.172c8.508,-0.593 17.041,-0.911 25.57,-0.911l0,8.333c3.953,-2.75 7.906,-5.5 11.979,-8.333c13.021,-8.333 13.021,-8.333 21.354,-8.333l0,-8.333l8.333,0c1.375,4.125 2.75,8.25 4.167,12.5c1.375,-8.25 2.75,-16.5 4.167,-25c5.5,-1.375 11,-2.75 16.667,-4.167c1.375,-6.875 2.75,-13.75 4.167,-20.833Z" style="fill:#606656;fill-rule:nonzero;"/><path d="M144.105,81.201l29.167,0c-2.664,0.945 -5.328,1.891 -8.073,2.865c-9.57,4.76 -9.57,4.76 -11.458,15.365c-0.645,5.414 -0.645,5.414 -1.302,10.938c-1.353,5.564 -2.73,11.123 -4.167,16.667l-8.333,0c-1.375,-2.75 -2.75,-5.5 -4.167,-8.333c-4.125,8.25 -8.25,16.5 -12.5,25l8.333,0l0,8.333l-8.333,0c1.375,6.875 2.75,13.75 4.167,20.833c4.125,-2.75 8.25,-5.5 12.5,-8.333l0,16.667l12.5,0c-3.125,10.156 -3.125,10.156 -8.333,20.833c-7.715,3.451 -7.715,3.451 -16.667,4.167c-7.715,-4.476 -7.715,-4.476 -15.104,-11.198c-2.46,-2.165 -4.92,-4.329 -7.454,-6.559c-11.153,-12.224 -14.675,-21.515 -16.504,-37.972c1.874,-18.119 6.571,-26.241 18.229,-40.104c17.5,-12.5 17.5,-12.5 29.167,-12.5c2.75,-5.5 5.5,-11 8.333,-16.667Z" style="fill:#565c4e;fill-rule:nonzero;"/><path d="M244.105,493.701c-2.75,5.5 -5.5,11 -8.333,16.667c2.75,2.75 5.5,5.5 8.333,8.333c-6.115,0.161 -6.115,0.161 -12.354,0.326c-40.594,1.756 -70.655,6.799 -103.011,32.487c-13.802,8.854 -13.802,8.854 -28.125,5.99c-5.285,-2.707 -5.285,-2.707 -10.677,-5.469c35.222,-60.866 90.963,-61.903 154.167,-58.333Z" style="fill:#434b33;fill-rule:nonzero;"/><path d="M327.438,693.701c8.333,8.333 8.333,8.333 8.594,21.354c-4.748,26.814 -27.79,45.869 -48.698,61.458c-22.855,14.39 -38.205,18.216 -65.365,17.708c-5.226,-0.075 -10.452,-0.15 -15.837,-0.228c-3.969,-0.097 -7.938,-0.193 -12.028,-0.293c-1.375,-4.125 -2.75,-8.25 -4.167,-12.5c-2.75,-2.75 -5.5,-5.5 -8.333,-8.333c2.465,0.097 4.931,0.193 7.471,0.293c19.132,0.437 33.311,-0.116 50.863,-8.626l8.333,0c2.75,-2.75 5.5,-5.5 8.333,-8.333c5.48,-2.924 11.047,-5.688 16.667,-8.333c2.943,-1.472 25.195,-12.598 33.333,-16.667c-4.125,-2.75 -8.25,-5.5 -12.5,-8.333c3.953,-0.945 7.906,-1.891 11.979,-2.865c13.826,-4.181 13.826,-4.181 18.75,-16.406c0.859,-3.266 1.719,-6.531 2.604,-9.896Z" style="fill:#f3f4ee;fill-rule:nonzero;"/><path d="M494.105,514.535c4.125,1.375 8.25,2.75 12.5,4.167c-12.189,27.652 -35.81,44.704 -63.281,55.99c-25.669,8.21 -51.735,11.578 -78.385,6.51c-13.047,-13.047 -16.667,-19.148 -16.667,-37.5c16.146,7.812 16.146,7.812 20.833,12.5c6.942,0.169 13.891,0.178 20.833,0c-1.375,-2.75 -2.75,-5.5 -4.167,-8.333c15.86,2.799 30.634,7.198 45.833,12.5l0,-8.333c-10.312,-2.062 -10.312,-2.062 -20.833,-4.167c15.33,-4.906 29.861,-4.167 45.833,-4.167c2.75,-1.375 5.5,-2.75 8.333,-4.167c-5.5,-2.75 -11,-5.5 -16.667,-8.333c4.167,-4.167 4.167,-4.167 18.229,-5.99c15.459,-1.315 15.459,-1.315 27.604,-10.677Z" style="fill:#eaede4;fill-rule:nonzero;"/><path d="M219.105,572.868c9.717,0.814 9.717,0.814 20.833,4.167c6.299,9.082 6.299,9.082 11.198,20.312c5.469,12.22 10.505,22.659 17.969,33.854c-1.271,8.352 -2.67,16.685 -4.167,25c1.536,11.536 1.536,11.536 4.167,20.833c-8.25,4.125 -8.25,4.125 -16.667,8.333c0.65,2.659 1.3,5.317 1.969,8.057c0.811,3.443 1.622,6.886 2.458,10.433c0.822,3.432 1.644,6.864 2.49,10.4c0.467,2.841 0.935,5.683 1.416,8.61c-4.167,4.167 -4.167,4.167 -12.663,4.72c-57.792,-0.175 -57.792,-0.175 -66.504,-8.887c1.197,-9.748 2.581,-19.475 4.167,-29.167c-2.578,-0.43 -5.156,-0.859 -7.812,-1.302c-8.854,-2.865 -8.854,-2.865 -17.188,-15.365c4.125,-1.375 8.25,-2.75 12.5,-4.167l0,12.5l12.5,0c2.75,-6.875 5.5,-13.75 8.333,-20.833l8.333,0l0,12.5c-2.75,1.375 -5.5,2.75 -8.333,4.167l0,33.333l50,0c-2.062,-10.312 -2.062,-10.312 -4.167,-20.833c-5.5,-2.75 -11,-5.5 -16.667,-8.333c12.375,-1.375 24.75,-2.75 37.5,-4.167c-2.75,-5.5 -5.5,-11 -8.333,-16.667c1.302,-8.594 1.302,-8.594 4.167,-16.667c1.375,-4.125 2.75,-8.25 4.167,-12.5l-37.5,0c5.5,-11 11,-22 16.667,-33.333c-12.375,2.75 -24.75,5.5 -37.5,8.333c2.75,-6.875 5.5,-13.75 8.333,-20.833c1.375,2.75 2.75,5.5 4.167,8.333c12.991,-2.694 12.991,-2.694 16.667,-12.5c-4.125,-1.375 -8.25,-2.75 -12.5,-4.167l0,-4.167Z" style="fill:#616456;fill-rule:nonzero;"/><path d="M223.272,543.701c11.458,-1.042 11.458,-1.042 25,0c9.896,8.333 9.896,8.333 16.667,16.667c-1.375,-4.125 -2.75,-8.25 -4.167,-12.5c7.552,0.521 7.552,0.521 16.667,4.167c7.292,12.76 7.292,12.76 12.5,25l0,-12.5l8.333,0c4.125,9.625 8.25,19.25 12.5,29.167l8.333,0l0,37.5c2.75,-2.75 5.5,-5.5 8.333,-8.333c1.042,27.604 1.042,27.604 -8.333,41.667c4.125,-1.375 8.25,-2.75 12.5,-4.167c-1.375,4.125 -2.75,8.25 -4.167,12.5l-8.333,0c-2.75,2.75 -5.5,5.5 -8.333,8.333c-2.863,-10.378 -4.167,-18.245 -4.167,-29.167c-2.75,-2.75 -5.5,-5.5 -8.333,-8.333c1.289,-3.738 1.289,-3.738 2.604,-7.552c2.845,-10.157 2.845,-10.157 -6.51,-20.573c-4.254,-4.641 -4.254,-4.641 -8.594,-9.375c1.375,-2.75 2.75,-5.5 4.167,-8.333c-6.875,-4.125 -13.75,-8.25 -20.833,-12.5c1.375,-4.125 2.75,-8.25 4.167,-12.5c-9.625,-1.375 -19.25,-2.75 -29.167,-4.167c1.375,-2.75 2.75,-5.5 4.167,-8.333c-3.352,-1.203 -6.703,-2.406 -10.156,-3.646c-10.677,-4.688 -10.677,-4.688 -14.844,-13.021Z" style="fill:#5a604e;fill-rule:nonzero;"/><path d="M406.605,352.035c5.5,2.75 11,5.5 16.667,8.333l0,37.5c5.409,-4.788 5.409,-4.788 8.333,-16.667c11.271,3.655 19.517,7.153 28.385,15.104c7.629,15.258 6.568,26.219 4.948,43.229c-5.729,8.333 -5.729,8.333 -12.5,12.5l-8.333,0l0,-29.167l-8.333,0c1.375,-6.875 2.75,-13.75 4.167,-20.833c-9.831,9.831 -10.381,15.746 -12.5,29.167c-5.5,-1.375 -11,-2.75 -16.667,-4.167c-0.516,-6.574 -0.516,-6.574 -1.042,-13.281c-3.384,-17.203 -8.832,-23.567 -19.792,-36.719c1.375,-4.125 2.75,-8.25 4.167,-12.5c4.125,-1.375 8.25,-2.75 12.5,-4.167l0,-8.333Z" style="fill:#878e7a;fill-rule:nonzero;"/><path d="M402.438,822.868c0.516,2.664 1.031,5.328 1.562,8.073c0.859,2.836 1.719,5.672 2.604,8.594c2.75,1.375 5.5,2.75 8.333,4.167c-1.375,5.5 -2.75,11 -4.167,16.667c-12.5,-15.104 -12.5,-15.104 -12.5,-29.167l-8.333,0c2.497,13.983 7.693,22.408 16.667,33.333l-12.5,0c-2.75,-5.5 -5.5,-11 -8.333,-16.667c-9.806,3.676 -9.806,3.676 -12.5,16.667c4.125,1.375 8.25,2.75 12.5,4.167l0,16.667l-16.667,0l0,-16.667c-4.125,2.75 -8.25,5.5 -12.5,8.333c-0.18,9.721 -0.168,19.446 0,29.167c-4.167,10.156 -4.167,10.156 -8.333,16.667c11,1.375 22,2.75 33.333,4.167l0,8.333c-5.5,1.375 -11,2.75 -16.667,4.167c-2.75,9.625 -5.5,19.25 -8.333,29.167l37.5,0l0,4.167l-45.833,0c-4.473,-17.892 -3.32,-21.646 4.167,-37.5c-4.125,-2.75 -8.25,-5.5 -12.5,-8.333c-4.689,-19.878 -4.073,-38.812 6.25,-56.608c5.046,-6.329 10.28,-12.514 15.723,-18.506c6.996,-7.993 10.842,-15.454 15.527,-24.886c8.333,-4.167 8.333,-4.167 25,-4.167Z" style="fill:#676b5a;fill-rule:nonzero;"/><path d="M252.438,197.868c4.167,12.5 4.167,12.5 4.167,29.167c6.875,-4.125 13.75,-8.25 20.833,-12.5c-6.154,19.487 -6.154,19.487 -17.188,26.302c-2.578,0.945 -5.156,1.891 -7.812,2.865c2.062,6.188 2.062,6.188 4.167,12.5c-3.953,1.117 -7.906,2.234 -11.979,3.385c-14.074,3.906 -14.074,3.906 -21.354,17.448l-8.333,0c-1.375,-2.75 -2.75,-5.5 -4.167,-8.333c-1.633,2.75 -3.266,5.5 -4.948,8.333c-7.552,8.333 -7.552,8.333 -18.75,9.375c-3.18,-0.344 -6.359,-0.688 -9.635,-1.042c5.5,-2.75 11,-5.5 16.667,-8.333l0,-8.333c-4.641,2.836 -4.641,2.836 -9.375,5.729c-25.561,15.104 -25.561,15.104 -40.625,15.104l0,-8.333l12.5,0l0,-8.333c-4.125,1.375 -8.25,2.75 -12.5,4.167c-9.721,0.165 -19.446,0.183 -29.167,0c-1.375,-2.75 -2.75,-5.5 -4.167,-8.333l33.333,0c-1.375,-5.5 -2.75,-11 -4.167,-16.667c12.5,4.167 12.5,4.167 16.667,12.5c1.375,-1.375 2.75,-2.75 4.167,-4.167c5.525,-1.507 11.081,-2.905 16.667,-4.167l0,8.333c2.75,-2.75 5.5,-5.5 8.333,-8.333c7.863,0.258 7.863,0.258 15.885,0.521c13.077,0.238 17.537,-0.566 29.688,-6.771c12.011,-14.558 11.255,-25.084 12.76,-43.75c2.75,-2.75 5.5,-5.5 8.333,-8.333Z" style="fill:#565b4c;fill-rule:nonzero;"/><path d="M135.772,2.035c47.943,-1.726 86.457,1.397 129.167,25c-2.75,2.75 -5.5,5.5 -8.333,8.333c-2.906,5.489 -5.707,11.038 -8.333,16.667c-16.667,-5.556 -33.333,-11.111 -50,-16.667c-7.884,-0.924 -15.787,-1.692 -23.698,-2.344c-4.141,-0.349 -8.282,-0.698 -12.549,-1.058c-4.745,-0.379 -4.745,-0.379 -9.587,-0.765c4.125,-6.875 8.25,-13.75 12.5,-20.833c-9.625,-1.375 -19.25,-2.75 -29.167,-4.167l0,-4.167Z" style="fill:#4d553e;fill-rule:nonzero;"/><path d="M427.438,847.868c12.313,1.331 18.914,2.047 27.393,11.41c9.965,15.808 14.214,32.412 14.274,51.09c-9.896,13.021 -9.896,13.021 -20.833,20.833c-1.375,-4.125 -2.75,-8.25 -4.167,-12.5c-4.125,-1.375 -8.25,-2.75 -12.5,-4.167c-9.536,-13.551 -9.346,-25.469 -8.333,-41.667c1.242,-5.59 2.593,-11.16 4.167,-16.667l0,-8.333Z" style="fill:#767c6a;fill-rule:nonzero;"/><path d="M298.272,656.201l8.333,0c1.375,6.875 2.75,13.75 4.167,20.833c5.5,-2.75 11,-5.5 16.667,-8.333c1.375,2.75 2.75,5.5 4.167,8.333c-3.223,3.738 -3.223,3.738 -6.51,7.552c-2.965,4.512 -2.965,4.512 -5.99,9.115c1.375,4.125 2.75,8.25 4.167,12.5c-5.556,5.556 -11.111,11.111 -16.667,16.667l0,12.5c-12.375,5.5 -24.75,11 -37.5,16.667c-4.167,-8.333 -4.167,-8.333 -1.986,-16.146c1.171,-2.922 2.342,-5.844 3.548,-8.854c1.149,-2.922 2.299,-5.844 3.483,-8.854c2.299,-5.464 4.803,-10.844 7.454,-16.146l8.333,0c1.375,-6.875 2.75,-13.75 4.167,-20.833l8.333,0c-1.375,-8.25 -2.75,-16.5 -4.167,-25Z" style="fill:#4b523f;fill-rule:nonzero;"/><path d="M164.938,89.535c25.249,8.476 42.341,24.852 58.333,45.833c3.088,11.474 2.273,17.295 0,29.167l-12.5,0c-2.126,-8.502 -4.205,-16.886 -5.729,-25.521c-2.254,-9.427 -2.254,-9.427 -15.104,-16.146c1.375,6.875 2.75,13.75 4.167,20.833l-20.833,0c7.812,-23.958 7.812,-23.958 12.5,-33.333l-12.5,0c-2.75,16.5 -5.5,33 -8.333,50c-20.833,-8.333 -20.833,-8.333 -26.302,-17.188c-0.945,-2.578 -1.891,-5.156 -2.865,-7.812l12.5,0c0.854,-2.61 1.708,-5.221 2.588,-7.91c1.123,-3.405 2.245,-6.811 3.402,-10.319c1.112,-3.384 2.224,-6.768 3.369,-10.254c3.141,-9.017 3.141,-9.017 7.308,-17.35Z" style="fill:#606456;fill-rule:nonzero;"/><path d="M354.815,1040.951c3.733,0.389 7.466,0.779 11.312,1.18c5.857,0.649 5.857,0.649 11.833,1.31c3.937,0.416 7.874,0.833 11.93,1.261c9.741,1.033 19.479,2.089 29.215,3.166c-2.191,3.867 -2.191,3.867 -4.427,7.812c-1.289,2.922 -2.578,5.844 -3.906,8.854c1.375,2.75 2.75,5.5 4.167,8.333c-9.899,0.34 -19.786,0.587 -29.688,0.781c-2.771,0.105 -5.543,0.209 -8.398,0.317c-19.702,0.29 -32.544,-3.587 -49.414,-13.599l0,-16.667c10.434,-5.217 15.836,-3.992 27.376,-2.751Z" style="fill:#424a33;fill-rule:nonzero;"/><path d="M419.105,360.368c20.399,9.228 43.735,20.803 54.167,41.667c1.825,17.866 1.531,33.332 -4.688,50.26c-7.812,8.073 -7.812,8.073 -21.094,9.375c-3.867,-0.43 -7.734,-0.859 -11.719,-1.302l0,-20.833c-2.75,5.5 -5.5,11 -8.333,16.667l0,-8.333l-8.333,0l0,-16.667c2.75,-1.375 5.5,-2.75 8.333,-4.167l0,-20.833c4.125,-1.375 8.25,-2.75 12.5,-4.167c-1.375,6.875 -2.75,13.75 -4.167,20.833l8.333,0l0,29.167c8.992,-3.947 8.992,-3.947 16.667,-12.5c1.918,-13.214 2.914,-20.771 0,-33.333c-9.066,-11.213 -16.294,-18.564 -29.167,-25c-1.375,6.875 -2.75,13.75 -4.167,20.833c-2.75,-1.375 -5.5,-2.75 -8.333,-4.167l0,-37.5Z" style="fill:#595c4f;fill-rule:nonzero;"/><path d="M214.938,568.701c8.594,1.823 8.594,1.823 16.667,4.167c-4.125,2.062 -4.125,2.062 -8.333,4.167c2.75,1.375 5.5,2.75 8.333,4.167c-1.375,4.125 -2.75,8.25 -4.167,12.5c-5.5,-1.375 -11,-2.75 -16.667,-4.167c-1.375,4.125 -2.75,8.25 -4.167,12.5c11,-1.375 22,-2.75 33.333,-4.167c-2.553,12.341 -5.224,18.252 -12.5,29.167c12.375,2.062 12.375,2.062 25,4.167l0,4.167c-2.61,0.204 -5.221,0.408 -7.91,0.618c-3.405,0.312 -6.811,0.623 -10.319,0.944c-5.076,0.435 -5.076,0.435 -10.254,0.879c-9.864,1.012 -9.864,1.012 -17.35,10.059c-4.125,-2.75 -8.25,-5.5 -12.5,-8.333c1.302,-8.073 1.302,-8.073 4.167,-16.667c4.125,-1.375 8.25,-2.75 12.5,-4.167l-25,0c19.231,-40.064 19.231,-40.064 29.167,-50Z" style="fill:#73766b;fill-rule:nonzero;"/><path d="M494.105,856.201l8.333,0c2.75,6.875 5.5,13.75 8.333,20.833l8.333,0c-0.688,3.266 -1.375,6.531 -2.083,9.896c-2.343,10.446 -2.343,10.446 -2.083,19.271l4.167,0c1.526,18.822 1.526,18.822 -5.729,28.385c-6.771,4.948 -6.771,4.948 -15.104,4.948c-4.125,10.312 -4.125,10.312 -8.333,20.833c-5.274,-16.113 -4.633,-32.215 -4.427,-48.958c0.019,-2.906 0.038,-5.812 0.057,-8.805c0.049,-7.134 0.124,-14.269 0.203,-21.403l8.333,0l0,-25Z" style="fill:#717766;fill-rule:nonzero;"/><path d="M348.272,406.201c2.75,1.375 5.5,2.75 8.333,4.167c0.334,14.675 0.167,27.583 -4.167,41.667c9.625,2.75 19.25,5.5 29.167,8.333c-1.375,2.75 -2.75,5.5 -4.167,8.333l-16.667,0c-0.902,4.898 -0.902,4.898 -1.823,9.896c-2.344,10.938 -2.344,10.938 -6.51,19.271l54.167,0c1.375,-5.5 2.75,-11 4.167,-16.667c2.75,8.25 5.5,16.5 8.333,25c-15.897,5.419 -30.315,3.724 -46.875,2.344c-5.264,-0.424 -10.527,-0.849 -15.951,-1.286c-4.018,-0.349 -8.035,-0.698 -12.174,-1.058c-2.604,-7.552 -2.604,-7.552 -4.167,-16.667c4.125,-6.188 4.125,-6.188 8.333,-12.5c-1.151,-8.086 -1.151,-8.086 -4.167,-16.667c-4.801,-17.765 -3.469,-31.959 0,-50c1.375,-1.375 2.75,-2.75 4.167,-4.167Z" style="fill:#595c4e;fill-rule:nonzero;"/><path d="M131.605,110.368c-2.178,11.512 -4.62,22.192 -8.333,33.333l8.333,0l0,8.333l-8.333,0c1.375,6.875 2.75,13.75 4.167,20.833c4.125,-2.75 8.25,-5.5 12.5,-8.333l0,16.667l12.5,0c-4.125,10.312 -4.125,10.312 -8.333,20.833l-8.333,0l0,-12.5c-3.18,-0.344 -6.359,-0.688 -9.635,-1.042c-11.198,-3.125 -11.198,-3.125 -18.75,-9.375c-7.545,-15.885 -8.32,-30.689 -4.948,-47.917c16.156,-20.833 16.156,-20.833 29.167,-20.833Z" style="fill:#eef2e6;fill-rule:nonzero;"/><path d="M410.772,747.868c5.645,2.592 11.219,5.35 16.667,8.333c4.125,1.375 8.25,2.75 12.5,4.167c-10.163,10.163 -13.394,9.528 -27.376,10.059c-5.599,0.242 -5.599,0.242 -11.312,0.488c-3.905,0.129 -7.81,0.258 -11.833,0.391c-3.937,0.161 -7.874,0.322 -11.93,0.488c-9.738,0.393 -19.475,0.75 -29.215,1.074c-1.375,-5.5 -2.75,-11 -4.167,-16.667c20.093,-17.321 42.25,-13.173 66.667,-8.333Z" style="fill:#404830;fill-rule:nonzero;"/><path d="M360.772,789.535c12.375,1.375 24.75,2.75 37.5,4.167l0,8.333c-6.875,1.375 -13.75,2.75 -20.833,4.167l0,8.333c-11,2.75 -22,5.5 -33.333,8.333l0,12.5c-11,2.75 -22,5.5 -33.333,8.333c1.375,-9.625 2.75,-19.25 4.167,-29.167c8.333,0 8.333,0 12.5,4.167c4.125,-6.875 8.25,-13.75 12.5,-20.833c4.125,1.375 8.25,2.75 12.5,4.167c2.75,-4.125 5.5,-8.25 8.333,-12.5Z" style="fill:#595e4f;fill-rule:nonzero;"/><path d="M481.605,935.368l8.333,0l0,20.833c1.891,-2.062 3.781,-4.125 5.729,-6.25c6.771,-6.25 6.771,-6.25 15.104,-6.25c-5.806,14.03 -12.412,20.775 -25,29.167c2.75,2.75 5.5,5.5 8.333,8.333c-4.039,2.578 -8.078,5.156 -12.24,7.812c-12.879,7.424 -12.879,7.424 -16.927,17.188c-6.875,-1.375 -13.75,-2.75 -20.833,-4.167c4.598,-19.923 8.361,-33.228 25,-45.833l12.5,0l0,-20.833Z" style="fill:#5e6452;fill-rule:nonzero;"/><path d="M394.105,818.701c17.198,2.529 30.55,8.492 45.833,16.667c-5.5,1.375 -11,2.75 -16.667,4.167c0.086,3.695 0.172,7.391 0.26,11.198c-0.231,12.258 -1.781,22.73 -4.427,34.635l0,8.333c-8.073,2.344 -8.073,2.344 -16.667,4.167c-4.167,-4.167 -4.167,-4.167 -4.427,-16.146c0.086,-4.297 0.172,-8.594 0.26,-13.021c0,-14.655 -3.435,-18.213 -12.5,-29.167c1.375,-2.75 2.75,-5.5 4.167,-8.333l8.333,0c4.125,8.25 8.25,16.5 12.5,25c1.375,-4.125 2.75,-8.25 4.167,-12.5c-4.125,-1.375 -8.25,-2.75 -12.5,-4.167l0,-16.667c-2.75,-1.375 -5.5,-2.75 -8.333,-4.167Z" style="fill:#7e8473;fill-rule:nonzero;"/><path d="M306.605,927.035l8.333,0l0,29.167c4.125,1.375 8.25,2.75 12.5,4.167c-0.645,5.801 -0.645,5.801 -1.302,11.719c0.43,4.383 0.859,8.766 1.302,13.281c10.044,6.929 10.044,6.929 20.833,12.5c3.385,9.115 3.385,9.115 4.167,16.667c-4.125,-2.75 -8.25,-5.5 -12.5,-8.333c-8.29,-1.626 -16.626,-3.05 -25,-4.167c1.375,-2.75 2.75,-5.5 4.167,-8.333c-4.125,-2.578 -8.25,-5.156 -12.5,-7.812c-4.125,-2.922 -8.25,-5.844 -12.5,-8.854l0,-8.333c2.75,-1.375 5.5,-2.75 8.333,-4.167c-6.875,-5.5 -13.75,-11 -20.833,-16.667c1.375,-2.75 2.75,-5.5 4.167,-8.333c10.312,4.125 10.312,4.125 20.833,8.333l0,-20.833Z" style="fill:#515644;fill-rule:nonzero;"/><path d="M210.772,39.535c16.653,1.315 27.385,7.457 40.885,16.927c4.939,3.424 4.939,3.424 9.977,6.917c2.465,1.756 4.931,3.513 7.471,5.322c-4.125,2.062 -4.125,2.062 -8.333,4.167c-3.714,11.141 -6.155,21.822 -8.333,33.333l-8.333,0c-0.814,-8.409 -1.628,-16.819 -2.441,-25.228c-1.158,-9.05 -1.158,-9.05 -10.059,-16.439l0,12.5c-16.667,-5.556 -20.158,-14.566 -29.167,-29.167c2.75,-2.75 5.5,-5.5 8.333,-8.333Z" style="fill:#dde0d5;fill-rule:nonzero;"/><path d="M114.938,593.701l8.333,0c0.226,5.988 0.387,11.978 0.521,17.969c0.097,3.335 0.193,6.671 0.293,10.107c-0.814,9.424 -0.814,9.424 -9.147,21.924c1.375,2.75 2.75,5.5 4.167,8.333c-2.532,9.789 -5.297,19.522 -8.333,29.167c-15.301,-12.833 -19.033,-21.868 -20.833,-41.667l8.333,0l0,-33.333c4.125,-1.375 8.25,-2.75 12.5,-4.167c1.375,-2.75 2.75,-5.5 4.167,-8.333Z" style="fill:#565c4d;fill-rule:nonzero;"/><path d="M539.938,472.868c0,12.5 0,12.5 -4.167,20.833l12.5,0c1.375,-4.125 2.75,-8.25 4.167,-12.5c4.167,12.5 4.167,12.5 0.309,22.689c-1.907,3.685 -3.813,7.369 -5.778,11.165c-2.812,5.559 -2.812,5.559 -5.68,11.23c-5.518,9.082 -5.518,9.082 -13.851,13.249c-1.375,-2.75 -2.75,-5.5 -4.167,-8.333l-12.5,0c0,-14.339 3.487,-21.148 9.896,-33.854c1.837,-3.706 3.674,-7.412 5.566,-11.23c5.371,-9.082 5.371,-9.082 13.704,-13.249Z" style="fill:#3f4730;fill-rule:nonzero;"/><path d="M498.272,397.868c2.75,1.375 5.5,2.75 8.333,4.167c2.604,10.677 2.604,10.677 4.167,20.833c2.75,-1.375 5.5,-2.75 8.333,-4.167c-3.646,19.792 -3.646,19.792 -8.333,29.167l8.333,0c-1.567,11.592 -2.805,19.116 -10.156,28.385c-6.51,4.948 -6.51,4.948 -14.844,4.948c-6.94,-26.891 -8.499,-58.003 4.167,-83.333Z" style="fill:#585c4e;fill-rule:nonzero;"/><path d="M431.605,381.201c11.271,3.655 19.517,7.153 28.385,15.104c7.629,15.258 6.568,26.219 4.948,43.229c-5.729,8.333 -5.729,8.333 -12.5,12.5l-8.333,0l0,-29.167l-8.333,0c0.086,-3.008 0.172,-6.016 0.26,-9.115c-0.253,-11.382 -1.896,-21.479 -4.427,-32.552Z" style="fill:#e3e6db;fill-rule:nonzero;"/><path d="M189.938,593.701c-1.461,3.695 -2.922,7.391 -4.427,11.198c-3.979,14.061 -3.788,20.872 0.26,34.635c-4.125,2.75 -8.25,5.5 -12.5,8.333l0,-12.5l8.333,0l0,-8.333c-12.081,9.98 -14.59,17.969 -16.667,33.333c-4.125,-1.375 -8.25,-2.75 -12.5,-4.167c-3.247,-37.157 -3.247,-37.157 9.375,-54.688c11.458,-7.812 11.458,-7.812 28.125,-7.812Z" style="fill:#e4e7df;fill-rule:nonzero;"/><path d="M464.938,1043.701c-8.333,8.333 -8.333,8.333 -20.833,8.333c-0.982,9.315 -0.982,9.315 8.333,16.667c-28.162,8.665 -53.982,9.214 -83.333,8.333l0,-4.167c18.562,-2.062 18.562,-2.062 37.5,-4.167c1.375,-5.5 2.75,-11 4.167,-16.667l8.333,0l0,-8.333c18.606,-7.788 27.765,-9.565 45.833,0Z" style="fill:#5d644d;fill-rule:nonzero;"/><path d="M406.605,427.035c4.125,1.375 8.25,2.75 12.5,4.167l0,16.667l8.333,0c2.75,-5.5 5.5,-11 8.333,-16.667c0.43,3.953 0.859,7.906 1.302,11.979c1.554,14.234 1.554,14.234 15.365,21.354c-8.226,10.511 -12.364,12.471 -25.781,15.365c-5.801,0.645 -5.801,0.645 -11.719,1.302c-1.375,4.125 -2.75,8.25 -4.167,12.5c-0.949,-8.274 -1.899,-16.547 -2.848,-24.821c-1.2,-9.321 -1.2,-9.321 -5.485,-21.012l12.5,0c-2.75,-6.875 -5.5,-13.75 -8.333,-20.833Z" style="fill:#535848;fill-rule:nonzero;"/><path d="M219.105,164.535l8.333,0c-3.909,20.103 -3.909,20.103 -7.292,29.688c-0.344,2.578 -0.688,5.156 -1.042,7.812c5.644,7.383 5.644,7.383 12.5,12.5c-1.375,4.125 -2.75,8.25 -4.167,12.5c-3.368,0.553 -6.735,1.106 -10.205,1.676c-4.453,0.736 -8.905,1.472 -13.493,2.23c-4.399,0.725 -8.798,1.45 -13.33,2.197c-11.316,1.945 -22.561,4.081 -33.805,6.396l0,-20.833c1.375,2.75 2.75,5.5 4.167,8.333c17.875,-2.75 35.75,-5.5 54.167,-8.333c-2.75,-8.25 -5.5,-16.5 -8.333,-25c-8.468,-4.037 -8.468,-4.037 -16.667,-4.167c4.039,-1.805 8.078,-3.609 12.24,-5.469c13.916,-5.787 13.916,-5.787 16.927,-19.531Z" style="fill:#525648;fill-rule:nonzero;"/><path d="M481.605,472.868l8.333,0l0,16.667c6.875,-2.75 13.75,-5.5 20.833,-8.333c-6.052,15.956 -14.287,21.335 -29.167,29.167c2.75,2.75 5.5,5.5 8.333,8.333c-8.333,8.333 -8.333,8.333 -23.438,8.854c-4.641,-0.172 -9.281,-0.344 -14.062,-0.521c2.75,-9.625 5.5,-19.25 8.333,-29.167c5.5,-1.375 11,-2.75 16.667,-4.167c1.375,-6.875 2.75,-13.75 4.167,-20.833Z" style="fill:#6e7362;fill-rule:nonzero;"/><path d="M285.772,510.368c27.692,6.154 27.692,6.154 35.156,17.188c1.16,3.867 1.16,3.867 2.344,7.812l8.333,0l0,8.333c-24.604,10.042 -24.604,10.042 -37.598,5.176c-7.125,-4.158 -13.958,-8.806 -20.736,-13.509l0,-8.333l8.333,0c1.375,-5.5 2.75,-11 4.167,-16.667Z" style="fill:#434a32;fill-rule:nonzero;"/><path d="M31.605,135.368l4.167,0c1.375,15.125 2.75,30.25 4.167,45.833l8.333,0c4.223,6.91 8.38,13.861 12.5,20.833c5.399,5.708 10.916,11.313 16.667,16.667c-10.312,-4.125 -10.312,-4.125 -20.833,-8.333c1.418,3.738 1.418,3.738 2.865,7.552c0.43,3.008 0.859,6.016 1.302,9.115c-6.169,6.82 -6.169,6.82 -12.5,12.5c-16.114,-35.249 -18.69,-65.675 -16.667,-104.167Z" style="fill:#e9ede2;fill-rule:nonzero;"/><path d="M489.938,460.368l4.167,0l0,20.833c6.875,-4.125 13.75,-8.25 20.833,-12.5l0,16.667l12.5,0c-8.505,29.439 -8.505,29.439 -20.833,37.5c-12.978,-1.256 -21.381,-6.524 -33.333,-12.5c11,-6.875 22,-13.75 33.333,-20.833l-16.667,0c-4.688,-19.792 -4.688,-19.792 0,-29.167Z" style="fill:#dcdfd5;fill-rule:nonzero;"/><path d="M139.938,252.035c12.5,4.167 12.5,4.167 16.667,12.5c1.375,-1.375 2.75,-2.75 4.167,-4.167c5.525,-1.507 11.081,-2.905 16.667,-4.167l0,8.333c2.75,-2.75 5.5,-5.5 8.333,-8.333l12.5,0l0,12.5c-4.512,1.676 -4.512,1.676 -9.115,3.385c-11.891,4.666 -11.891,4.666 -22.656,11.719c-9.896,5.729 -9.896,5.729 -22.396,5.729l0,-8.333l12.5,0l0,-8.333c-4.125,1.375 -8.25,2.75 -12.5,4.167c-9.721,0.165 -19.446,0.183 -29.167,0c-1.375,-2.75 -2.75,-5.5 -4.167,-8.333l33.333,0c-1.375,-5.5 -2.75,-11 -4.167,-16.667Z" style="fill:#4f5744;fill-rule:nonzero;"/><path d="M427.438,847.868c11.867,1.283 19.095,2.728 28.385,10.417c7.262,15.289 8.223,31.286 4.948,47.917c-4.125,2.75 -8.25,5.5 -12.5,8.333c-1.375,-8.25 -2.75,-16.5 -4.167,-25l-8.333,0c-0.902,-5.672 -0.902,-5.672 -1.823,-11.458c-1.777,-10.27 -3.805,-20.16 -6.51,-30.208Z" style="fill:#f0f3e9;fill-rule:nonzero;"/><path d="M277.438,893.701c4.125,4.125 8.25,8.25 12.5,12.5c1.375,-2.75 2.75,-5.5 4.167,-8.333l16.667,0c0.34,17.339 -0.073,33.114 -4.167,50c-6.875,-1.375 -13.75,-2.75 -20.833,-4.167c-0.602,-2.664 -1.203,-5.328 -1.823,-8.073c-1.552,-8.491 -1.552,-8.491 -6.51,-12.76c-0.171,-9.721 -0.177,-19.446 0,-29.167Z" style="fill:#6c745f;fill-rule:nonzero;"/><path d="M119.105,6.201c7.464,-0.225 14.93,-0.386 22.396,-0.521c4.157,-0.097 8.314,-0.193 12.598,-0.293c10.84,0.814 10.84,0.814 19.173,9.147c-4.125,1.375 -8.25,2.75 -12.5,4.167c9.625,1.375 19.25,2.75 29.167,4.167l0,4.167c-23.375,2.75 -46.75,5.5 -70.833,8.333c2.75,-1.375 5.5,-2.75 8.333,-4.167l0,-12.5l-8.333,0l0,-12.5Z" style="fill:#3f4730;fill-rule:nonzero;"/><path d="M348.272,889.535l8.333,0c-2.178,11.512 -4.62,22.192 -8.333,33.333c11,1.375 22,2.75 33.333,4.167l0,8.333c-5.5,1.375 -11,2.75 -16.667,4.167c-2.75,9.625 -5.5,19.25 -8.333,29.167l37.5,0l0,4.167l-45.833,0c-4.473,-17.892 -3.32,-21.646 4.167,-37.5c-4.125,-2.75 -8.25,-5.5 -12.5,-8.333c2.024,-13.012 4.161,-24.983 8.333,-37.5Z" style="fill:#525547;fill-rule:nonzero;"/><path d="M202.438,743.701c6.059,2.191 6.059,2.191 12.24,4.427c16.24,4.796 29.546,3.127 46.029,0.13c8.398,-0.391 8.398,-0.391 20.898,7.943c-4.469,1.203 -8.938,2.406 -13.542,3.646c-11.925,3.577 -21.398,7.372 -32.292,13.021l-8.333,0c-9.729,1.342 -19.452,2.727 -29.167,4.167c5.5,-4.125 11,-8.25 16.667,-12.5c-3.094,-2.836 -3.094,-2.836 -6.25,-5.729c-6.25,-6.771 -6.25,-6.771 -6.25,-15.104Z" style="fill:#545848;fill-rule:nonzero;"/><path d="M348.272,627.035l4.167,0c1.533,33.054 -0.938,60.561 -12.5,91.667c-1.676,-3.996 -1.676,-3.996 -3.385,-8.073c-4.476,-9.974 -4.476,-9.974 -17.448,-12.76c-2.75,1.375 -5.5,2.75 -8.333,4.167c4.167,-12.5 4.167,-12.5 10.677,-18.75c7.431,-6.311 7.431,-6.311 5.99,-18.75l-8.333,0c1.375,-4.125 2.75,-8.25 4.167,-12.5c12.5,4.167 12.5,4.167 20.833,20.833c1.375,-15.125 2.75,-30.25 4.167,-45.833Z" style="fill:#daded2;fill-rule:nonzero;"/><path d="M494.105,514.535c4.125,1.375 8.25,2.75 12.5,4.167c-5.758,13.377 -12.184,21.039 -23.438,30.208c-2.632,2.17 -5.264,4.34 -7.975,6.576c-2.009,1.611 -4.018,3.223 -6.087,4.883c-2.75,-1.375 -5.5,-2.75 -8.333,-4.167c1.375,-5.5 2.75,-11 4.167,-16.667c-5.5,-2.75 -11,-5.5 -16.667,-8.333c4.167,-4.167 4.167,-4.167 18.229,-5.99c15.459,-1.315 15.459,-1.315 27.604,-10.677Z" style="fill:#f2f4ec;fill-rule:nonzero;"/><path d="M402.438,1018.701c6.774,0.475 13.544,1.006 20.312,1.562c3.771,0.29 7.541,0.58 11.426,0.879c9.928,1.725 9.928,1.725 18.262,10.059l-12.5,0l0,8.333c-10.811,5.405 -19.185,5.018 -31.25,5.208c-6.123,0.161 -6.123,0.161 -12.37,0.326c-3.48,-0.451 -6.961,-0.902 -10.547,-1.367c-2.75,-4.125 -5.5,-8.25 -8.333,-12.5l25,0l0,-12.5Z" style="fill:#f9faf4;fill-rule:nonzero;"/><path d="M389.938,993.701c1.375,2.75 2.75,5.5 4.167,8.333c2.75,1.375 5.5,2.75 8.333,4.167l0,20.833c-13.259,0.368 -24.891,0.181 -37.5,-4.167c-8.333,-8.333 -8.333,-8.333 -12.5,-20.833c14.046,-6.243 21.685,-8.333 37.5,-8.333Z" style="fill:#555b48;fill-rule:nonzero;"/><path d="M114.938,672.868l8.333,0c2.097,6.766 4.177,13.538 6.25,20.312c1.16,3.771 2.32,7.541 3.516,11.426c2.734,9.928 2.734,9.928 2.734,18.262c-9.763,-1.065 -19.493,-2.47 -29.167,-4.167c-1.375,-2.75 -2.75,-5.5 -4.167,-8.333l16.667,0c-3.352,-1.633 -6.703,-3.266 -10.156,-4.948c-10.677,-7.552 -10.677,-7.552 -14.063,-18.75c-0.387,-4.77 -0.387,-4.77 -0.781,-9.635c8.25,4.125 8.25,4.125 16.667,8.333c1.375,-4.125 2.75,-8.25 4.167,-12.5Z" style="fill:#626956;fill-rule:nonzero;"/><path d="M314.938,485.368c2.75,1.375 5.5,2.75 8.333,4.167c-0.43,3.008 -0.859,6.016 -1.302,9.115c1.821,16.387 10.056,21.982 22.135,32.552c-4.125,6.188 -4.125,6.188 -8.333,12.5c-1.96,-1.756 -3.921,-3.513 -5.941,-5.322c-3.891,-3.424 -3.891,-3.424 -7.861,-6.917c-3.843,-3.408 -3.843,-3.408 -7.764,-6.885c-7.819,-6.712 -7.819,-6.712 -20.101,-10.042c-1.375,-6.875 -2.75,-13.75 -4.167,-20.833c12.375,2.062 12.375,2.062 25,4.167l0,-12.5Z" style="fill:#5a634f;fill-rule:nonzero;"/><path d="M69.105,285.368c3.18,1.461 6.359,2.922 9.635,4.427c11.396,5.255 11.396,5.255 23.698,-0.26c11.198,5.99 11.198,5.99 20.833,12.5c-2.75,5.5 -5.5,11 -8.333,16.667c-2.578,-0.773 -5.156,-1.547 -7.812,-2.344c-9.028,-2.81 -9.028,-2.81 -17.188,2.344c-8.25,-5.5 -16.5,-11 -25,-16.667c1.375,-5.5 2.75,-11 4.167,-16.667Z" style="fill:#3d442e;fill-rule:nonzero;"/><path d="M194.105,589.535c1.375,4.125 2.75,8.25 4.167,12.5c-5.99,9.115 -5.99,9.115 -12.5,16.667c4.125,-1.375 8.25,-2.75 12.5,-4.167c4.125,1.375 8.25,2.75 12.5,4.167c-1.375,2.75 -2.75,5.5 -4.167,8.333l-8.333,0c-1.473,12.991 -1.473,12.991 8.333,20.833c-4.512,-0.387 -4.512,-0.387 -9.115,-0.781c-13.921,0.928 -21.178,5.482 -32.552,13.281c1.375,-9.625 2.75,-19.25 4.167,-29.167c4.125,-1.375 8.25,-2.75 12.5,-4.167l0,8.333l-8.333,0c1.375,2.75 2.75,5.5 4.167,8.333c2.92,-13.139 4.167,-23.864 4.167,-37.5c6.25,-9.375 6.25,-9.375 12.5,-16.667Z" style="fill:#4b5041;fill-rule:nonzero;"/><path d="M402.438,535.368l0,8.333l-25,0c1.375,5.5 2.75,11 4.167,16.667c-13.983,-2.497 -22.408,-7.693 -33.333,-16.667c-1.375,2.75 -2.75,5.5 -4.167,8.333l0,-20.833c21.545,-3.802 38.417,-5.792 58.333,4.167Z" style="fill:#656959;fill-rule:nonzero;"/><path d="M219.105,572.868c9.635,0.26 9.635,0.26 20.833,4.167c9.411,16.875 14.259,30.65 12.5,50l-12.5,0l0,-29.167c-12.375,2.75 -24.75,5.5 -37.5,8.333c2.75,-6.875 5.5,-13.75 8.333,-20.833c1.375,2.75 2.75,5.5 4.167,8.333c12.991,-2.694 12.991,-2.694 16.667,-12.5c-4.125,-1.375 -8.25,-2.75 -12.5,-4.167l0,-4.167Z" style="fill:#5a5e50;fill-rule:nonzero;"/><path d="M256.605,160.368c1.375,2.75 2.75,5.5 4.167,8.333c6.875,-1.375 13.75,-2.75 20.833,-4.167c-2.75,8.25 -5.5,16.5 -8.333,25c5.5,-1.375 11,-2.75 16.667,-4.167c-5.289,16.308 -10.465,24.128 -25,33.333c-2.75,-1.375 -5.5,-2.75 -8.333,-4.167c1.375,-4.125 2.75,-8.25 4.167,-12.5c-1.375,-1.375 -2.75,-2.75 -4.167,-4.167c-0.299,-6.33 -0.35,-12.674 -0.26,-19.01c0.038,-3.443 0.075,-6.886 0.114,-10.433c0.048,-2.659 0.097,-5.317 0.146,-8.057Z" style="fill:#575f4e;fill-rule:nonzero;"/><path d="M494.105,856.201l8.333,0c2.75,6.875 5.5,13.75 8.333,20.833l8.333,0c-2.322,13.932 -5.632,25.138 -12.5,37.5l-8.333,0c-7.031,-9.635 -7.031,-9.635 -12.5,-20.833c1.375,-4.125 2.75,-8.25 4.167,-12.5l4.167,0l0,-25Z" style="fill:#686d5e;fill-rule:nonzero;"/><path d="M123.272,302.035c5.5,1.375 11,2.75 16.667,4.167c-1.375,5.5 -2.75,11 -4.167,16.667c4.125,1.375 8.25,2.75 12.5,4.167l0,8.333c-19.642,-1.997 -36.107,-4.035 -54.167,-12.5c1.375,-4.125 2.75,-8.25 4.167,-12.5c8.25,2.062 8.25,2.062 16.667,4.167c2.75,-4.125 5.5,-8.25 8.333,-12.5Z" style="fill:#4a513b;fill-rule:nonzero;"/><path d="M131.605,697.868c10.535,5.268 11.518,10.535 16.667,20.833c2.75,1.375 5.5,2.75 8.333,4.167c2.604,12.76 2.604,12.76 4.167,25c-11,-1.375 -22,-2.75 -33.333,-4.167l0,-8.333c-5.385,-5.721 -10.935,-11.293 -16.667,-16.667c8.25,-1.375 16.5,-2.75 25,-4.167c-1.375,-5.5 -2.75,-11 -4.167,-16.667Z" style="fill:#4f5541;fill-rule:nonzero;"/><path d="M298.272,656.201l8.333,0c1.375,6.875 2.75,13.75 4.167,20.833c5.5,-2.75 11,-5.5 16.667,-8.333c1.375,2.75 2.75,5.5 4.167,8.333c-2.578,2.406 -5.156,4.812 -7.812,7.292c-8.077,8.552 -12.605,15.349 -17.188,26.042c-1.375,-5.5 -2.75,-11 -4.167,-16.667c-1.375,6.875 -2.75,13.75 -4.167,20.833l-8.333,0c-0.521,-23.958 -0.521,-23.958 4.167,-33.333l8.333,0c-1.375,-8.25 -2.75,-16.5 -4.167,-25Z" style="fill:#79806e;fill-rule:nonzero;"/><path d="M214.938,568.701c8.594,1.823 8.594,1.823 16.667,4.167c-4.125,2.062 -4.125,2.062 -8.333,4.167c2.75,1.375 5.5,2.75 8.333,4.167c-1.375,4.125 -2.75,8.25 -4.167,12.5c-5.5,-1.375 -11,-2.75 -16.667,-4.167c-1.375,4.125 -2.75,8.25 -4.167,12.5c4.125,1.375 8.25,2.75 12.5,4.167c-4.948,6.25 -4.948,6.25 -12.5,12.5c-11.198,0.781 -11.198,0.781 -20.833,0c19.231,-40.064 19.231,-40.064 29.167,-50Z" style="fill:#b4b7aa;fill-rule:nonzero;"/><path d="M531.605,931.201c12.375,2.062 12.375,2.062 25,4.167c-1.375,12.375 -2.75,24.75 -4.167,37.5c-4.125,1.375 -8.25,2.75 -12.5,4.167l0,-12.5l-8.333,0l0,-33.333Z" style="fill:#414630;fill-rule:nonzero;"/><path d="M277.438,352.035c1.375,4.125 2.75,8.25 4.167,12.5c-6.771,11.198 -6.771,11.198 -16.667,20.833c-11.458,1.302 -11.458,1.302 -20.833,0c-1.375,-4.125 -2.75,-8.25 -4.167,-12.5c5.469,-9.115 5.469,-9.115 12.5,-16.667l8.333,0c4.167,-4.167 4.167,-4.167 16.667,-4.167Z" style="fill:#4d553d;fill-rule:nonzero;"/><path d="M144.105,81.201l29.167,0c-2.664,0.945 -5.328,1.891 -8.073,2.865c-9.57,4.76 -9.57,4.76 -11.458,15.365c-0.43,3.609 -0.859,7.219 -1.302,10.938c-1.353,5.564 -2.73,11.123 -4.167,16.667l-8.333,0c-12.5,-18.269 -12.5,-18.269 -12.5,-29.167l8.333,0c2.75,-5.5 5.5,-11 8.333,-16.667Z" style="fill:#6c7061;fill-rule:nonzero;"/><path d="M373.272,322.868c1.375,2.75 2.75,5.5 4.167,8.333c1.375,-1.375 2.75,-2.75 4.167,-4.167c8.332,-0.17 16.669,-0.177 25,0l0,8.333c-8.25,2.75 -16.5,5.5 -25,8.333l0,4.167l-33.333,0c9.615,-25 9.615,-25 25,-25Z" style="fill:#575c4e;fill-rule:nonzero;"/><path d="M402.438,822.868c0.516,2.664 1.031,5.328 1.562,8.073c1.289,4.254 1.289,4.254 2.604,8.594c2.75,1.375 5.5,2.75 8.333,4.167c-1.375,5.5 -2.75,11 -4.167,16.667c-12.5,-15.104 -12.5,-15.104 -12.5,-29.167l-8.333,0c2.497,13.983 7.693,22.408 16.667,33.333l-12.5,0c-2.75,-5.5 -5.5,-11 -8.333,-16.667l-8.333,0l0,-20.833c8.333,-4.167 8.333,-4.167 25,-4.167Z" style="fill:#595d4c;fill-rule:nonzero;"/><path d="M194.105,660.368l8.333,0l0,12.5c-4.125,2.062 -4.125,2.062 -8.333,4.167c-0.258,5.328 -1.071,22.14 -1.221,25.228c0.403,2.675 0.806,5.35 1.221,8.105c4.125,2.75 8.25,5.5 12.5,8.333l-25,0c1.375,-9.625 2.75,-19.25 4.167,-29.167c-2.578,-0.43 -5.156,-0.859 -7.812,-1.302c-8.854,-2.865 -8.854,-2.865 -17.188,-15.365c4.125,-1.375 8.25,-2.75 12.5,-4.167l0,12.5l12.5,0c2.75,-6.875 5.5,-13.75 8.333,-20.833Z" style="fill:#4a4d3f;fill-rule:nonzero;"/><path d="M352.438,306.201l20.833,0c1.375,4.125 2.75,8.25 4.167,12.5c12.375,2.062 12.375,2.062 25,4.167l0,4.167c-11,2.75 -22,5.5 -33.333,8.333c1.375,-4.125 2.75,-8.25 4.167,-12.5c-14.025,6.011 -22.96,13.886 -33.333,25c4.125,-13.75 8.25,-27.5 12.5,-41.667Z" style="fill:#dee1d6;fill-rule:nonzero;"/><path d="M185.772,643.701c4.125,4.125 8.25,8.25 12.5,12.5c-4.125,8.25 -8.25,16.5 -12.5,25l-12.5,0l0,-12.5c-5.5,1.375 -11,2.75 -16.667,4.167c-1.375,-2.75 -2.75,-5.5 -4.167,-8.333c7.46,-4.205 14.92,-8.409 22.38,-12.614c6.699,-3.625 6.699,-3.625 10.954,-8.219Z" style="fill:#909684;fill-rule:nonzero;"/><path d="M410.772,527.035l0,8.333c2.75,1.375 5.5,2.75 8.333,4.167c-1.375,2.75 -2.75,5.5 -4.167,8.333c5.5,1.375 11,2.75 16.667,4.167l0,8.333c-3.953,-0.688 -7.906,-1.375 -11.979,-2.083c-14.702,-2.352 -23.824,-1.703 -38.021,2.083c-2.75,-6.875 -5.5,-13.75 -8.333,-20.833c9.625,1.375 19.25,2.75 29.167,4.167l0,-8.333c-2.75,-1.375 -5.5,-2.75 -8.333,-4.167c4.167,-4.167 4.167,-4.167 16.667,-4.167Z" style="fill:#535949;fill-rule:nonzero;"/><path d="M152.438,85.368l29.167,0c-1.375,4.125 -2.75,8.25 -4.167,12.5c-4.125,-2.75 -8.25,-5.5 -12.5,-8.333c-4.125,15.125 -8.25,30.25 -12.5,45.833c-16.667,4.167 -16.667,4.167 -25,4.167c3.125,-19.792 3.125,-19.792 12.5,-29.167l0,16.667l8.333,0c1.375,-13.75 2.75,-27.5 4.167,-41.667Z" style="fill:#4f5445;fill-rule:nonzero;"/><path d="M194.105,47.868c8.073,3.385 8.073,3.385 16.667,8.333c1.375,4.125 2.75,8.25 4.167,12.5l-8.333,0l0,8.333c-16.316,-3.263 -30.684,-9.966 -45.833,-16.667l0,-8.333c12.683,-0.343 21.132,0.1 33.333,4.167l0,-8.333Z" style="fill:#5b6251;fill-rule:nonzero;"/><path d="M252.438,439.535c4.688,32.292 4.688,32.292 0,41.667l-20.833,0c0.585,-6.165 1.198,-12.328 1.823,-18.49c0.338,-3.432 0.677,-6.864 1.025,-10.4c2.109,-13.775 3.584,-12.777 17.985,-12.777Z" style="fill:#444c34;fill-rule:nonzero;"/><path d="M423.272,839.535c14.945,1.15 26.309,2.481 39.323,10.156c10.142,16.633 7.815,33.351 6.51,52.344l-4.167,0c-0.612,-2.863 -1.225,-5.726 -1.855,-8.675c-5.679,-24.975 -5.679,-24.975 -23.926,-41.846c-3.867,-1.203 -7.734,-2.406 -11.719,-3.646c1.375,4.125 2.75,8.25 4.167,12.5l-8.333,0l0,-20.833Z" style="fill:#525747;fill-rule:nonzero;"/><path d="M131.605,143.701l0,8.333l-8.333,0c1.375,6.875 2.75,13.75 4.167,20.833c4.125,-2.75 8.25,-5.5 12.5,-8.333l0,16.667l12.5,0c-2.75,6.875 -5.5,13.75 -8.333,20.833l-8.333,0l0,-12.5c-6.875,-1.375 -13.75,-2.75 -20.833,-4.167c0.585,-6.165 1.198,-12.328 1.823,-18.49c0.338,-3.432 0.677,-6.864 1.025,-10.4c1.734,-11.327 2.25,-12.777 13.818,-12.777Z" style="fill:#b6bdad;fill-rule:nonzero;"/><path d="M413.376,755.941c4.952,0.038 9.904,0.075 15.007,0.114c3.813,0.048 7.627,0.097 11.556,0.146c-4.125,6.188 -4.125,6.188 -8.333,12.5c-11.619,0.921 -22.277,1.171 -33.854,0.781c-3.142,-0.056 -6.284,-0.113 -9.521,-0.171c-7.765,-0.147 -15.528,-0.372 -23.291,-0.61c18.119,-12.079 26.649,-12.974 48.438,-12.76Z" style="fill:#384129;fill-rule:nonzero;"/><path d="M439.938,402.035c-1.375,6.875 -2.75,13.75 -4.167,20.833l8.333,0l0,33.333c2.75,1.375 5.5,2.75 8.333,4.167c-5.5,-1.375 -11,-2.75 -16.667,-4.167l0,-16.667c-2.75,5.5 -5.5,11 -8.333,16.667l0,-8.333l-8.333,0l0,-16.667c2.75,-1.375 5.5,-2.75 8.333,-4.167c-0.129,-5.027 -0.129,-5.027 -0.26,-10.156c0.362,-14.844 0.362,-14.844 12.76,-14.844Z" style="fill:#464b39;fill-rule:nonzero;"/><path d="M277.438,710.368c2.75,1.375 5.5,2.75 8.333,4.167l0,16.667l20.833,0c-5.438,10.877 -9.826,11.169 -21.094,15.104c-3.056,1.085 -6.112,2.17 -9.261,3.288c-2.358,0.806 -4.716,1.611 -7.145,2.441c-4.167,-8.333 -4.167,-8.333 -1.839,-16.439c1.208,-2.997 2.417,-5.994 3.662,-9.082c1.198,-3.019 2.396,-6.037 3.63,-9.147c0.951,-2.31 1.901,-4.619 2.881,-6.999Z" style="fill:#5c604e;fill-rule:nonzero;"/><path d="M406.605,481.201c6.51,7.552 6.51,7.552 12.5,16.667c-1.375,4.125 -2.75,8.25 -4.167,12.5c-23.375,-1.375 -46.75,-2.75 -70.833,-4.167c14.695,-9.797 20.953,-9.227 38.281,-8.854c4.528,0.075 9.056,0.15 13.721,0.228c5.197,0.145 5.197,0.145 10.498,0.293l0,-16.667Z" style="fill:#66685c;fill-rule:nonzero;"/><path d="M323.272,622.868l4.167,0c1.042,27.604 1.042,27.604 -8.333,41.667c4.125,-1.375 8.25,-2.75 12.5,-4.167c-1.375,4.125 -2.75,8.25 -4.167,12.5l-8.333,0c-2.75,2.75 -5.5,5.5 -8.333,8.333c-2.863,-10.378 -4.167,-18.245 -4.167,-29.167c-2.75,-2.75 -5.5,-5.5 -8.333,-8.333c1.562,-8.854 1.562,-8.854 4.167,-16.667c5.5,6.875 11,13.75 16.667,20.833c1.375,-8.25 2.75,-16.5 4.167,-25Z" style="fill:#49503e;fill-rule:nonzero;"/><path d="M394.105,818.701c17.198,2.529 30.55,8.492 45.833,16.667c-5.5,1.375 -11,2.75 -16.667,4.167l0,20.833l-8.333,0l0,-16.667c-4.125,-1.375 -8.25,-2.75 -12.5,-4.167l0,-16.667c-2.75,-1.375 -5.5,-2.75 -8.333,-4.167Z" style="fill:#8b917e;fill-rule:nonzero;"/><path d="M177.438,735.368c13.511,2.33 20.544,5.888 29.167,16.667l0,8.333c4.125,1.375 8.25,2.75 12.5,4.167c-14.368,8.552 -22.153,12.764 -39.062,11.198c-3.609,-0.945 -7.219,-1.891 -10.938,-2.865l0,-4.167c9.625,-2.75 19.25,-5.5 29.167,-8.333c-3.438,-3.352 -6.875,-6.703 -10.417,-10.156c-10.417,-10.677 -10.417,-10.677 -10.417,-14.844Z" style="fill:#99a08e;fill-rule:nonzero;"/><path d="M289.938,402.035c1.375,2.75 2.75,5.5 4.167,8.333l8.333,0c-1.375,5.5 -2.75,11 -4.167,16.667c2.75,1.375 5.5,2.75 8.333,4.167c-2.75,6.875 -5.5,13.75 -8.333,20.833c-5.5,-2.75 -11,-5.5 -16.667,-8.333c1.909,-14.456 3.714,-27.808 8.333,-41.667Z" style="fill:#858e7a;fill-rule:nonzero;"/><path d="M164.938,89.535l8.333,0c-2.354,14.125 -6.143,24.786 -12.5,37.5c-2.905,9.685 -5.705,19.403 -8.333,29.167c-5.5,-5.5 -11,-11 -16.667,-16.667c4.125,-1.375 8.25,-2.75 12.5,-4.167c4.118,-8.459 4.118,-8.459 6.771,-18.49c5.596,-18.745 5.596,-18.745 9.896,-27.344Z" style="fill:#cfd4c5;fill-rule:nonzero;"/><path d="M102.438,531.201l8.333,4.167l-8.333,-4.167Zm-8.333,4.167c2.75,1.375 5.5,2.75 8.333,4.167c-2.75,2.75 -5.5,5.5 -8.333,8.333c5.5,5.5 11,11 16.667,16.667c-4.125,4.125 -8.25,8.25 -12.5,12.5c-2.75,-1.375 -5.5,-2.75 -8.333,-4.167c-1.375,2.75 -2.75,5.5 -4.167,8.333l0,-16.667c-2.75,-2.75 -5.5,-5.5 -8.333,-8.333c5.5,-6.875 11,-13.75 16.667,-20.833Z" style="fill:#4e563e;fill-rule:nonzero;"/><path d="M431.605,431.201c8.333,8.333 8.333,8.333 8.333,25c4.125,2.75 8.25,5.5 12.5,8.333c-7.292,6.51 -7.292,6.51 -16.667,12.5c-9.375,-1.302 -9.375,-1.302 -16.667,-4.167l0,-20.833l8.333,0c1.375,-6.875 2.75,-13.75 4.167,-20.833Z" style="fill:#a2a897;fill-rule:nonzero;"/><path d="M414.938,393.701c1.375,2.75 2.75,5.5 4.167,8.333l8.333,0c1.375,-2.75 2.75,-5.5 4.167,-8.333l0,33.333c-5.5,1.375 -11,2.75 -16.667,4.167c-2.75,-8.25 -5.5,-16.5 -8.333,-25l8.333,0l0,-12.5Z" style="fill:#8b9380;fill-rule:nonzero;"/><path d="M210.772,39.535c10.938,1.562 10.938,1.562 20.833,4.167c3.331,13.696 4.569,19.626 0,33.333c-16.667,-5.556 -20.158,-14.566 -29.167,-29.167c2.75,-2.75 5.5,-5.5 8.333,-8.333Z" style="fill:#e9ebdf;fill-rule:nonzero;"/><path d="M419.105,360.368c16.951,7.705 29.206,15.268 41.667,29.167c-12.94,0 -18.136,-2.247 -29.167,-8.333c-1.375,6.875 -2.75,13.75 -4.167,20.833c-2.75,-1.375 -5.5,-2.75 -8.333,-4.167l0,-37.5Z" style="fill:#525846;fill-rule:nonzero;"/><path d="M269.105,685.368c5.5,2.75 11,5.5 16.667,8.333c-2.75,6.875 -5.5,13.75 -8.333,20.833l-16.667,0c-2.865,-7.552 -2.865,-7.552 -4.167,-16.667c5.99,-7.292 5.99,-7.292 12.5,-12.5Z" style="fill:#fbfdf8;fill-rule:nonzero;"/><path d="M285.772,385.368c8.333,0 8.333,0 15.104,6.25c1.891,2.062 3.781,4.125 5.729,6.25l0,-8.333l8.333,0c-2.564,23.077 -2.564,23.077 -10.677,32.812c-2.965,2.32 -2.965,2.32 -5.99,4.688c1.375,-5.5 2.75,-11 4.167,-16.667c-5.5,1.375 -11,2.75 -16.667,4.167l0,-29.167Z" style="fill:#636a57;fill-rule:nonzero;"/><path d="M239.938,381.201l25,0c-1.375,12.375 -2.75,24.75 -4.167,37.5c-1.375,-2.75 -2.75,-5.5 -4.167,-8.333l-8.333,0c-7.031,-5.208 -7.031,-5.208 -12.5,-12.5c1.302,-9.115 1.302,-9.115 4.167,-16.667Z" style="fill:#424b32;fill-rule:nonzero;"/><path d="M456.605,285.368c-1.375,2.75 -2.75,5.5 -4.167,8.333l-20.833,0l0,8.333l-25,0c1.375,-2.75 2.75,-5.5 4.167,-8.333l12.5,0c-1.375,-4.125 -2.75,-8.25 -4.167,-12.5c13.336,-6.668 23.845,-0.132 37.5,4.167Z" style="fill:#3b432d;fill-rule:nonzero;"/><path d="M256.605,147.868c4.125,1.375 8.25,2.75 12.5,4.167l0,8.333c1.891,-2.062 3.781,-4.125 5.729,-6.25c6.771,-6.25 6.771,-6.25 15.104,-6.25c1.042,11.719 1.042,11.719 0,25c-8.333,7.812 -8.333,7.812 -16.667,12.5c1.375,-5.5 2.75,-11 4.167,-16.667l-16.667,0c-1.375,-6.875 -2.75,-13.75 -4.167,-20.833Z" style="fill:#525b4b;fill-rule:nonzero;"/><path d="M194.105,114.535c11.968,5.365 21.634,9.912 29.167,20.833c0.781,15.365 0.781,15.365 0,29.167l-12.5,0c-4.167,-16.667 -4.167,-16.667 -5.99,-25c-2.542,-9.04 -6.251,-16.739 -10.677,-25Z" style="fill:#5e6355;fill-rule:nonzero;"/><path d="M135.772,518.701c-3.867,3.738 -3.867,3.738 -7.812,7.552c-9.424,9.148 -9.424,9.148 -17.188,21.615c1.375,4.125 2.75,8.25 4.167,12.5c-8.25,-2.75 -16.5,-5.5 -25,-8.333c3.972,-5.484 7.97,-10.949 11.979,-16.406c2.224,-3.045 4.447,-6.091 6.738,-9.229c9.835,-12.051 11.985,-12.742 27.116,-7.699Z" style="fill:#3f462f;fill-rule:nonzero;"/><path d="M364.938,385.368c1.375,2.75 2.75,5.5 4.167,8.333c8.436,2.717 8.436,2.717 16.667,4.167c1.375,6.875 2.75,13.75 4.167,20.833c-6.875,-1.375 -13.75,-2.75 -20.833,-4.167l0,-8.333l-20.833,0c5.5,-6.875 11,-13.75 16.667,-20.833Z" style="fill:#818577;fill-rule:nonzero;"/><path d="M289.938,860.368l0,25c6.875,-2.75 13.75,-5.5 20.833,-8.333c-1.302,8.073 -1.302,8.073 -4.167,16.667c-4.125,1.375 -8.25,2.75 -12.5,4.167c-3.055,8.396 -3.055,8.396 -4.167,16.667c-6.608,-17.346 -9.63,-31.414 -8.333,-50c4.167,-4.167 4.167,-4.167 8.333,-4.167Z" style="fill:#515744;fill-rule:nonzero;"/><path d="M348.272,406.201c2.75,1.375 5.5,2.75 8.333,4.167c0.522,22.97 0.522,22.97 -2.344,34.115c-2.748,8.458 -2.748,8.458 2.344,20.052c-5.5,-2.75 -11,-5.5 -16.667,-8.333c0.585,-7.554 1.198,-15.106 1.823,-22.656c0.338,-4.206 0.677,-8.411 1.025,-12.744c1.318,-10.433 1.318,-10.433 5.485,-14.6Z" style="fill:#4e5342;fill-rule:nonzero;"/><path d="M114.938,235.368c24.479,19.271 24.479,19.271 29.167,33.333c-18.562,2.062 -18.562,2.062 -37.5,4.167c1.375,-5.5 2.75,-11 4.167,-16.667l8.333,0c-1.375,-6.875 -2.75,-13.75 -4.167,-20.833Z" style="fill:#767d6b;fill-rule:nonzero;"/><path d="M314.938,814.535c8.333,0 8.333,0 12.5,4.167c2.75,-1.375 5.5,-2.75 8.333,-4.167l0,12.5c4.125,1.375 8.25,2.75 12.5,4.167c-18.562,6.188 -18.562,6.188 -37.5,12.5c1.375,-9.625 2.75,-19.25 4.167,-29.167Z" style="fill:#494e3e;fill-rule:nonzero;"/><path d="M269.105,110.368l8.333,0c1.375,11 2.75,22 4.167,33.333c-8.25,4.125 -8.25,4.125 -16.667,8.333c-2.75,-2.75 -5.5,-5.5 -8.333,-8.333c2.75,-2.75 5.5,-5.5 8.333,-8.333c-1.375,-2.75 -2.75,-5.5 -4.167,-8.333l8.333,0l0,-16.667Z" style="fill:#707767;fill-rule:nonzero;"/><path d="M119.105,102.035c8.594,1.823 8.594,1.823 16.667,4.167c-2.009,1.515 -4.018,3.029 -6.087,4.59c-17.153,13.653 -26.639,23.134 -31.413,45.41l-4.167,0c-1.302,-13.281 -1.302,-13.281 0,-29.167c10.156,-11.979 23.583,-23.583 25,-25Z" style="fill:#4b4f41;fill-rule:nonzero;"/><path d="M235.772,610.368c1.375,5.5 2.75,11 4.167,16.667l12.5,0c1.375,-4.125 2.75,-8.25 4.167,-12.5c6.51,7.292 6.51,7.292 12.5,16.667c-1.302,9.375 -1.302,9.375 -4.167,16.667c-1.375,-5.5 -2.75,-11 -4.167,-16.667l-37.5,0c4.125,-6.875 8.25,-13.75 12.5,-20.833Z" style="fill:#55584b;fill-rule:nonzero;"/><path d="M289.938,564.535l8.333,0c9.542,14.313 9.077,20.772 8.333,37.5c-1.375,-4.125 -2.75,-8.25 -4.167,-12.5c-8.25,1.375 -16.5,2.75 -25,4.167c-2.75,-4.125 -5.5,-8.25 -8.333,-12.5l12.5,0c2.75,-1.375 5.5,-2.75 8.333,-4.167l0,-12.5Z" style="fill:#696e5d;fill-rule:nonzero;"/><path d="M489.938,447.868c8.25,4.125 8.25,4.125 16.667,8.333c1.375,-2.75 2.75,-5.5 4.167,-8.333l8.333,0c-1.567,11.592 -2.805,19.116 -10.156,28.385c-6.51,4.948 -6.51,4.948 -14.844,4.948c-1.375,-11 -2.75,-22 -4.167,-33.333Z" style="fill:#4a4f41;fill-rule:nonzero;"/><path d="M406.605,910.368c12.24,3.125 12.24,3.125 25,8.333c3.646,8.854 3.646,8.854 4.167,16.667c-18.974,1.538 -18.974,1.538 -28.385,-6.25c-1.633,-2.062 -3.266,-4.125 -4.948,-6.25c1.375,-4.125 2.75,-8.25 4.167,-12.5Z" style="fill:#979c8c;fill-rule:nonzero;"/><path d="M227.438,410.368l4.167,0c1.375,26.125 2.75,52.25 4.167,79.167l-33.333,0l0,-4.167l20.833,0c2.062,-37.125 2.062,-37.125 4.167,-75Z" style="fill:#d3d7ca;fill-rule:nonzero;"/><path d="M227.438,60.368c8.333,5.729 8.333,5.729 16.667,12.5l0,8.333l-16.667,0l0,8.333c-4.125,1.375 -8.25,2.75 -12.5,4.167c-2.75,-8.25 -5.5,-16.5 -8.333,-25c4.125,-1.375 8.25,-2.75 12.5,-4.167c2.75,2.75 5.5,5.5 8.333,8.333l0,-12.5Z" style="fill:#686e5f;fill-rule:nonzero;"/><path d="M144.105,618.701c2.75,1.375 5.5,2.75 8.333,4.167c1.072,8.439 2.118,16.89 2.734,25.374c0.827,8.939 0.827,8.939 9.766,16.292l-16.667,0c-8.708,-14.151 -9.43,-25.215 -8.333,-41.667c1.375,-1.375 2.75,-2.75 4.167,-4.167Z" style="fill:#64675a;fill-rule:nonzero;"/><path d="M114.938,593.701l8.333,0c0.521,23.958 0.521,23.958 -4.167,33.333c-5.5,-1.375 -11,-2.75 -16.667,-4.167c-1.375,-5.5 -2.75,-11 -4.167,-16.667c4.125,-1.375 8.25,-2.75 12.5,-4.167c1.375,-2.75 2.75,-5.5 4.167,-8.333Z" style="fill:#808576;fill-rule:nonzero;"/><path d="M381.605,381.201l8.333,0c10.123,15.184 9.007,23.802 8.333,41.667c-6.25,-5.469 -6.25,-5.469 -12.5,-12.5l0,-12.5l-12.5,0c2.75,-5.5 5.5,-11 8.333,-16.667Z" style="fill:#e2e5d8;fill-rule:nonzero;"/><path d="M431.605,293.701l20.833,0c2.75,6.875 5.5,13.75 8.333,20.833c-13.75,-2.75 -27.5,-5.5 -41.667,-8.333c4.125,-1.375 8.25,-2.75 12.5,-4.167l0,-8.333Z" style="fill:#4e5641;fill-rule:nonzero;"/><path d="M481.605,935.368l8.333,0l0,20.833c1.891,-2.062 3.781,-4.125 5.729,-6.25c6.771,-6.25 6.771,-6.25 15.104,-6.25c-4.799,10.283 -8.533,16.866 -16.667,25c-8.854,-1.562 -8.854,-1.562 -16.667,-4.167c1.375,-9.625 2.75,-19.25 4.167,-29.167Z" style="fill:#474a39;fill-rule:nonzero;"/><path d="M381.605,527.035c10.312,4.125 10.312,4.125 20.833,8.333l0,8.333l-25,0c1.375,5.5 2.75,11 4.167,16.667c-4.125,-1.375 -8.25,-2.75 -12.5,-4.167l0,-20.833l12.5,0l0,-8.333Z" style="fill:#9aa08d;fill-rule:nonzero;"/><path d="M277.438,422.868l4.167,0c1.203,4.039 2.406,8.078 3.646,12.24c3.196,13.205 3.196,13.205 13.021,16.927c2.75,-8.25 5.5,-16.5 8.333,-25c4.735,14.205 3.614,16.681 -1.823,29.948c-1.198,2.981 -2.396,5.962 -3.63,9.033c-0.951,2.261 -1.901,4.522 -2.881,6.852c-2.664,-3.352 -5.328,-6.703 -8.073,-10.156c-6.119,-7.656 -6.119,-7.656 -12.76,-14.844c-0.17,-8.332 -0.177,-16.669 0,-25Z" style="fill:#424a36;fill-rule:nonzero;"/><path d="M398.272,335.368c2.75,6.875 5.5,13.75 8.333,20.833c-17.875,-1.375 -35.75,-2.75 -54.167,-4.167l0,-4.167c4.641,-0.773 4.641,-0.773 9.375,-1.562c12.85,-2.92 23.455,-10.938 36.458,-10.938Z" style="fill:#cfd2c7;fill-rule:nonzero;"/><path d="M139.938,252.035c12.5,4.167 12.5,4.167 17.448,12.76c1.117,2.664 2.234,5.328 3.385,8.073c-15.309,4.899 -29.872,4.474 -45.833,4.167c-1.375,-2.75 -2.75,-5.5 -4.167,-8.333l33.333,0c-1.375,-5.5 -2.75,-11 -4.167,-16.667Z" style="fill:#424937;fill-rule:nonzero;"/><path d="M123.272,131.201c1.375,2.75 2.75,5.5 4.167,8.333c4.125,1.375 8.25,2.75 12.5,4.167c1.716,15.012 0.64,19.933 -8.333,32.552c-2.75,3.008 -5.5,6.016 -8.333,9.115l0,-33.333l8.333,0l0,-8.333l-8.333,0l0,-12.5Z" style="fill:#646c5b;fill-rule:nonzero;"/><path d="M327.438,960.368l16.667,0c4.167,12.5 4.167,12.5 0.26,21.615c-2.191,3.738 -2.191,3.738 -4.427,7.552c-5.5,-1.375 -11,-2.75 -16.667,-4.167c1.375,-8.25 2.75,-16.5 4.167,-25Z" style="fill:#eaede3;fill-rule:nonzero;"/><path d="M427.438,914.535c5.5,1.375 11,2.75 16.667,4.167l0,20.833c-8.25,1.375 -16.5,2.75 -25,4.167c-1.375,5.5 -2.75,11 -4.167,16.667l0,-25l20.833,0c-2.75,-6.875 -5.5,-13.75 -8.333,-20.833Z" style="fill:#4e5341;fill-rule:nonzero;"/><path d="M369.105,739.535l50,0l0,12.5c-16.5,-1.375 -33,-2.75 -50,-4.167l0,-8.333Z" style="fill:#585e4b;fill-rule:nonzero;"/><path d="M285.772,589.535l16.667,0c2.75,8.25 5.5,16.5 8.333,25c-2.75,2.75 -5.5,5.5 -8.333,8.333c-8.333,-7.552 -8.333,-7.552 -16.667,-16.667l0,-16.667Z" style="fill:#59614d;fill-rule:nonzero;"/><path d="M494.105,310.368l8.333,0c1.375,13.75 2.75,27.5 4.167,41.667c-8.25,-6.875 -16.5,-13.75 -25,-20.833c2.75,-1.375 5.5,-2.75 8.333,-4.167c2.717,-8.436 2.717,-8.436 4.167,-16.667Z" style="fill:#414930;fill-rule:nonzero;"/><path d="M135.772,143.701c8.25,4.125 16.5,8.25 25,12.5l0,8.333l-8.333,0l0,12.5c-8.25,4.125 -8.25,4.125 -16.667,8.333l0,-41.667Z" style="fill:#4c5441;fill-rule:nonzero;"/><path d="M189.938,106.201c2.75,2.75 5.5,5.5 8.333,8.333c-1.562,15.104 -1.562,15.104 -4.167,29.167l-20.833,0c4.411,-14.18 8.371,-25.056 16.667,-37.5Z" style="fill:#6e7362;fill-rule:nonzero;"/><path d="M310.772,1022.868c13.983,2.497 22.408,7.693 33.333,16.667c-8.25,2.75 -16.5,5.5 -25,8.333c-8.333,-12.5 -8.333,-12.5 -8.333,-25Z" style="fill:#4e563c;fill-rule:nonzero;"/><path d="M360.772,789.535c12.375,1.375 24.75,2.75 37.5,4.167l0,8.333c-12.375,2.75 -24.75,5.5 -37.5,8.333l0,-20.833Z" style="fill:#6b6f60;fill-rule:nonzero;"/><path d="M444.105,510.368l8.333,0l0,20.833c-5.5,-1.375 -11,-2.75 -16.667,-4.167c-1.375,4.125 -2.75,8.25 -4.167,12.5c-8.594,2.865 -8.594,2.865 -16.667,4.167c10.256,-20 10.256,-20 21.615,-24.219c3.738,-0.387 3.738,-0.387 7.552,-0.781l0,-8.333Z" style="fill:#6b705f;fill-rule:nonzero;"/><path d="M373.272,993.701l16.667,0c1.375,2.75 2.75,5.5 4.167,8.333c2.75,1.375 5.5,2.75 8.333,4.167l0,12.5l-20.833,0c-4.167,-12.5 -4.167,-12.5 0,-20.833c-2.75,-1.375 -5.5,-2.75 -8.333,-4.167Z" style="fill:#929983;fill-rule:nonzero;"/><path d="M452.438,972.868c2.75,2.75 5.5,5.5 8.333,8.333c-1.375,2.75 -2.75,5.5 -4.167,8.333l20.833,0c-4.125,5.5 -8.25,11 -12.5,16.667c-6.875,-1.375 -13.75,-2.75 -20.833,-4.167c2.75,-9.625 5.5,-19.25 8.333,-29.167Z" style="fill:#858c7a;fill-rule:nonzero;"/><path d="M348.272,889.535l8.333,0c-2.178,11.512 -4.62,22.192 -8.333,33.333l8.333,0c-1.375,4.125 -2.75,8.25 -4.167,12.5c-4.125,-2.75 -8.25,-5.5 -12.5,-8.333c2.024,-13.012 4.161,-24.983 8.333,-37.5Z" style="fill:#4b4f3f;fill-rule:nonzero;"/><path d="M148.272,718.701c2.75,1.375 5.5,2.75 8.333,4.167c2.604,12.76 2.604,12.76 4.167,25c-11,-1.375 -22,-2.75 -33.333,-4.167l0,-8.333c5.406,-4.359 10.969,-8.529 16.667,-12.5c1.375,-1.375 2.75,-2.75 4.167,-4.167Z" style="fill:#9ca491;fill-rule:nonzero;"/><path d="M98.272,610.368c4.125,6.188 4.125,6.188 8.333,12.5c4.125,1.375 8.25,2.75 12.5,4.167c1.375,-2.75 2.75,-5.5 4.167,-8.333c-1.042,7.812 -1.042,7.812 -4.167,16.667c-8.594,5.208 -8.594,5.208 -16.667,8.333c-4.167,-4.167 -4.167,-4.167 -4.427,-19.01c0.086,-4.727 0.172,-9.453 0.26,-14.323Z" style="fill:#4b513f;fill-rule:nonzero;"/><path d="M202.438,568.701c4.125,1.375 8.25,2.75 12.5,4.167c-5.729,8.333 -5.729,8.333 -12.5,16.667l-8.333,0c-1.375,2.75 -2.75,5.5 -4.167,8.333c-4.125,-4.125 -8.25,-8.25 -12.5,-12.5c8.333,-5.556 16.667,-11.111 25,-16.667Z" style="fill:#646858;fill-rule:nonzero;"/><path d="M460.772,502.035c2.75,4.125 5.5,8.25 8.333,12.5c10.766,1.043 10.766,1.043 20.833,0c-4.125,6.188 -4.125,6.188 -8.333,12.5c-15.104,0.781 -15.104,0.781 -29.167,0c2.75,-8.25 5.5,-16.5 8.333,-25Z" style="fill:#4a503d;fill-rule:nonzero;"/><path d="M344.105,310.368c2.75,1.375 5.5,2.75 8.333,4.167c-1.375,5.5 -2.75,11 -4.167,16.667c-7.552,2.865 -7.552,2.865 -16.667,4.167c-7.292,-5.99 -7.292,-5.99 -12.5,-12.5c8.186,-4.449 16.536,-8.606 25,-12.5Z" style="fill:#eaece2;fill-rule:nonzero;"/><path d="M107.386,242.66c7.552,5.208 7.552,5.208 11.719,13.542c-11.719,2.865 -11.719,2.865 -25,4.167c-7.812,-5.99 -7.812,-5.99 -12.5,-12.5c14.251,-9.161 14.251,-9.161 25.781,-5.208Z" style="fill:#4b523c;fill-rule:nonzero;"/><path d="M277.438,893.701c4.125,4.125 8.25,8.25 12.5,12.5c1.375,-2.75 2.75,-5.5 4.167,-8.333l8.333,0c-2.75,8.25 -5.5,16.5 -8.333,25l-16.667,0l0,-29.167Z" style="fill:#868c78;fill-rule:nonzero;"/><path d="M377.438,847.868l8.333,0c12.5,14.423 12.5,14.423 12.5,25l-8.333,0c-1.375,2.75 -2.75,5.5 -4.167,8.333c-1.375,-4.125 -2.75,-8.25 -4.167,-12.5c-2.75,-1.375 -5.5,-2.75 -8.333,-4.167c1.375,-5.5 2.75,-11 4.167,-16.667Z" style="fill:#d6d8ce;fill-rule:nonzero;"/><path d="M114.938,652.035c8.333,8.333 8.333,8.333 8.333,20.833l-8.333,0c-1.375,5.5 -2.75,11 -4.167,16.667c-10.312,-4.125 -10.312,-4.125 -20.833,-8.333l0,-8.333c12.5,-4.167 12.5,-4.167 20.833,-4.167c1.375,-5.5 2.75,-11 4.167,-16.667Z" style="fill:#acb2a3;fill-rule:nonzero;"/><path d="M239.938,597.868c-2.553,12.341 -5.224,18.252 -12.5,29.167l-12.5,0c2.508,-8.419 5.304,-16.755 8.333,-25c8.333,-4.167 8.333,-4.167 16.667,-4.167Z" style="fill:#e3e6dc;fill-rule:nonzero;"/><path d="M477.438,1052.035c-9.832,8.74 -14.776,12.371 -28.125,13.281c-4.641,-0.387 -4.641,-0.387 -9.375,-0.781c1.375,-4.125 2.75,-8.25 4.167,-12.5c13.707,-4.569 19.638,-3.331 33.333,0Z" style="fill:#4c543d;fill-rule:nonzero;"/><path d="M294.105,839.535l4.167,0c1.375,11 2.75,22 4.167,33.333c4.125,-1.375 8.25,-2.75 12.5,-4.167l0,8.333c-12.5,8.333 -12.5,8.333 -25,8.333c1.375,-15.125 2.75,-30.25 4.167,-45.833Z" style="fill:#8c9280;fill-rule:nonzero;"/><path d="M239.938,589.535c4.125,2.062 4.125,2.062 8.333,4.167c2.473,11.036 3.092,22.05 4.167,33.333l-12.5,0l0,-37.5Z" style="fill:#929488;fill-rule:nonzero;"/><path d="M214.938,568.701c8.854,1.562 8.854,1.562 16.667,4.167c-4.125,2.062 -4.125,2.062 -8.333,4.167c2.75,1.375 5.5,2.75 8.333,4.167c-1.375,4.125 -2.75,8.25 -4.167,12.5l-12.5,0c-2.75,-5.5 -5.5,-11 -8.333,-16.667c2.75,-2.75 5.5,-5.5 8.333,-8.333Z" style="fill:#9da291;fill-rule:nonzero;"/><path d="M489.938,422.868c1.375,2.75 2.75,5.5 4.167,8.333l12.5,0c-1.375,9.625 -2.75,19.25 -4.167,29.167c-6.25,-4.688 -6.25,-4.688 -12.5,-12.5c-0.781,-13.281 -0.781,-13.281 0,-25Z" style="fill:#727766;fill-rule:nonzero;"/><path d="M173.272,110.368l12.5,0c-4.545,15.731 -7.951,26.96 -20.833,37.5c3.646,-28.125 3.646,-28.125 8.333,-37.5Z" style="fill:#d3d6c8;fill-rule:nonzero;"/><path d="M281.605,702.035l8.333,0l0,12.5l8.333,0l0,8.333l12.5,0l0,8.333l-25,0c-1.375,-9.625 -2.75,-19.25 -4.167,-29.167Z" style="fill:#5a604e;fill-rule:nonzero;"/><path d="M502.438,527.035c4.125,1.375 8.25,2.75 12.5,4.167c-6.875,8.25 -13.75,16.5 -20.833,25c-4.125,-2.75 -8.25,-5.5 -12.5,-8.333c6.875,-6.875 13.75,-13.75 20.833,-20.833Z" style="fill:#545c44;fill-rule:nonzero;"/><path d="M110.772,222.868l0,20.833c-11.287,5.643 -20.872,4.438 -33.333,4.167c4.125,-1.375 8.25,-2.75 12.5,-4.167c1.375,-4.125 2.75,-8.25 4.167,-12.5c8.333,-8.333 8.333,-8.333 16.667,-8.333Z" style="fill:#818776;fill-rule:nonzero;"/><path d="M148.272,89.535l8.333,0c-2.45,12.601 -5.112,25.073 -8.333,37.5l-8.333,0l0,-25l8.333,0l0,-12.5Z" style="fill:#b3b9a6;fill-rule:nonzero;"/><path d="M444.105,981.201c0.602,2.578 1.203,5.156 1.823,7.812c2.058,8.99 2.058,8.99 6.51,17.188c-12.375,-2.062 -12.375,-2.062 -25,-4.167l0,-12.5c5.5,-2.75 11,-5.5 16.667,-8.333Z" style="fill:#5c6250;fill-rule:nonzero;"/><path d="M302.438,831.201c6.188,4.125 6.188,4.125 12.5,8.333c11.026,-1.301 11.026,-1.301 20.833,-4.167c-10.018,15.027 -16.445,16.061 -33.333,20.833l0,-25Z" style="fill:#8c9280;fill-rule:nonzero;"/><path d="M356.605,818.701c-2.33,13.511 -5.888,20.544 -16.667,29.167l-8.333,0c4.167,-12.5 4.167,-12.5 12.5,-16.667c-2.75,-2.75 -5.5,-5.5 -8.333,-8.333c8.333,-4.167 8.333,-4.167 20.833,-4.167Z" style="fill:#e1e4db;fill-rule:nonzero;"/><path d="M314.938,518.701c19.792,3.125 19.792,3.125 29.167,12.5c-4.125,6.188 -4.125,6.188 -8.333,12.5c-7.032,-6.856 -13.975,-13.804 -20.833,-20.833l0,-4.167Z" style="fill:#6e7663;fill-rule:nonzero;"/><path d="M506.605,481.201l0,12.5c-21.905,16.667 -21.905,16.667 -33.333,16.667c4.167,-12.5 4.167,-12.5 11.979,-16.927c2.922,-1.289 5.844,-2.578 8.854,-3.906c4.125,-2.75 8.25,-5.5 12.5,-8.333Z" style="fill:#45493a;fill-rule:nonzero;"/><path d="M544.105,377.035c2.75,2.75 5.5,5.5 8.333,8.333c-4.125,12.375 -8.25,24.75 -12.5,37.5c-8.333,-12.5 -8.333,-12.5 -7.292,-25.26c3.125,-12.24 3.125,-12.24 11.458,-20.573Z" style="fill:#424730;fill-rule:nonzero;"/><path d="M356.605,327.035c8.413,5.434 16.747,10.993 25,16.667l0,4.167l-33.333,0c2.75,-6.875 5.5,-13.75 8.333,-20.833Z" style="fill:#434737;fill-rule:nonzero;"/><path d="M81.605,206.201c6.51,4.948 6.51,4.948 12.5,12.5c-1.302,11.198 -1.302,11.198 -4.167,20.833c-5.5,-1.375 -11,-2.75 -16.667,-4.167c4.125,-1.375 8.25,-2.75 12.5,-4.167c-1.375,-8.25 -2.75,-16.5 -4.167,-25Z" style="fill:#555b49;fill-rule:nonzero;"/><path d="M114.938,143.701l4.167,0l0,37.5l-8.333,0c-3.374,-12.145 -5.077,-18.588 -0.26,-30.469c1.461,-2.32 2.922,-4.641 4.427,-7.031Z" style="fill:#f7f9f4;fill-rule:nonzero;"/><path d="M77.438,27.035c1.375,2.75 2.75,5.5 4.167,8.333c-6.875,6.875 -13.75,13.75 -20.833,20.833c-2.75,-2.75 -5.5,-5.5 -8.333,-8.333c8.25,-6.875 16.5,-13.75 25,-20.833Z" style="fill:#515741;fill-rule:nonzero;"/><path d="M373.272,997.868l0,25c-8.333,0 -8.333,0 -16.667,-8.333c-1.375,-4.125 -2.75,-8.25 -4.167,-12.5c16.146,-4.167 16.146,-4.167 20.833,-4.167Z" style="fill:#6b705b;fill-rule:nonzero;"/><path d="M369.105,864.535c5.5,1.375 11,2.75 16.667,4.167l0,16.667l-16.667,0l0,-20.833Z" style="fill:#5a5f4d;fill-rule:nonzero;"/><path d="M202.438,743.701c9.625,2.75 19.25,5.5 29.167,8.333c-1.375,2.75 -2.75,5.5 -4.167,8.333l-20.833,0c-1.375,-5.5 -2.75,-11 -4.167,-16.667Z" style="fill:#555b48;fill-rule:nonzero;"/><path d="M256.605,160.368c1.375,2.75 2.75,5.5 4.167,8.333c6.875,-1.375 13.75,-2.75 20.833,-4.167c-2.75,8.25 -5.5,16.5 -8.333,25l-8.333,0c-6.086,-11.031 -8.333,-16.227 -8.333,-29.167Z" style="fill:#9aa494;fill-rule:nonzero;"/><path d="M252.438,747.868c9.748,1.197 19.475,2.581 29.167,4.167l0,4.167c-6.961,1.934 -6.961,1.934 -14.062,3.906c-14.248,3.691 -14.248,3.691 -23.438,8.594c3.646,-16.146 3.646,-16.146 8.333,-20.833Z" style="fill:#45493a;fill-rule:nonzero;"/><path d="M277.438,710.368c2.75,1.375 5.5,2.75 8.333,4.167l0,16.667l20.833,0c-2.75,2.75 -5.5,5.5 -8.333,8.333c-10.938,-1.562 -10.938,-1.562 -20.833,-4.167c-1.592,-6.901 -2.975,-13.852 -4.167,-20.833c1.375,-1.375 2.75,-2.75 4.167,-4.167Z" style="fill:#a0a590;fill-rule:nonzero;"/><path d="M198.272,622.868c4.125,1.375 8.25,2.75 12.5,4.167l0,20.833c-5.5,-2.75 -11,-5.5 -16.667,-8.333c1.375,-5.5 2.75,-11 4.167,-16.667Z" style="fill:#989d8f;fill-rule:nonzero;"/><path d="M394.105,364.535l8.333,0c8.854,19.271 8.854,19.271 4.167,33.333c-8.594,-9.635 -8.594,-9.635 -16.667,-20.833c1.375,-4.125 2.75,-8.25 4.167,-12.5Z" style="fill:#e3e7d9;fill-rule:nonzero;"/><path d="M244.105,285.368l0,12.5c-14.438,6.188 -14.438,6.188 -29.167,12.5c-2.75,-2.75 -5.5,-5.5 -8.333,-8.333c12.375,-5.5 24.75,-11 37.5,-16.667Z" style="fill:#515744;fill-rule:nonzero;"/><path d="M185.772,68.701c12.5,4.167 12.5,4.167 25,12.5c-4.898,0.645 -4.898,0.645 -9.896,1.302c-12.314,1.931 -12.314,1.931 -19.271,15.365l0,-12.5c-2.75,-1.375 -5.5,-2.75 -8.333,-4.167c4.125,-4.125 8.25,-8.25 12.5,-12.5Z" style="fill:#c6cabd;fill-rule:nonzero;"/><path d="M194.105,47.868c8.073,3.385 8.073,3.385 16.667,8.333c1.375,4.125 2.75,8.25 4.167,12.5l-8.333,0l0,8.333c-5.5,-1.375 -11,-2.75 -16.667,-4.167l12.5,0l0,-16.667l-8.333,0l0,-8.333Z" style="fill:#444a3a;fill-rule:nonzero;"/><path d="M485.772,881.201c8.25,6.875 16.5,13.75 25,20.833c-1.375,4.125 -2.75,8.25 -4.167,12.5l-8.333,0c-8.507,-12.106 -12.5,-18.339 -12.5,-33.333Z" style="fill:#545c49;fill-rule:nonzero;"/><path d="M389.938,831.201l8.333,0c4.449,8.186 8.606,16.536 12.5,25c-1.375,2.75 -2.75,5.5 -4.167,8.333c-6.875,-8.25 -13.75,-16.5 -20.833,-25c1.375,-2.75 2.75,-5.5 4.167,-8.333Z" style="fill:#e5e8d8;fill-rule:nonzero;"/><path d="M373.272,397.868l12.5,0c1.375,6.875 2.75,13.75 4.167,20.833l-16.667,0l0,-20.833Z" style="fill:#585e4a;fill-rule:nonzero;"/><path d="M400.615,355.941c5.027,0.129 5.027,0.129 10.156,0.26c-9.247,13.871 -13.945,15.626 -29.167,20.833c4.684,-20.744 4.684,-20.744 19.01,-21.094Z" style="fill:#505445;fill-rule:nonzero;"/><path d="M310.772,352.035c8.333,12.5 8.333,12.5 8.333,29.167l-12.5,0c-2.604,-9.896 -2.604,-9.896 -4.167,-20.833c2.75,-2.75 5.5,-5.5 8.333,-8.333Z" style="fill:#6d7260;fill-rule:nonzero;"/><path d="M119.105,318.701c9.625,2.75 19.25,5.5 29.167,8.333l0,8.333c-11,-1.375 -22,-2.75 -33.333,-4.167c1.375,-4.125 2.75,-8.25 4.167,-12.5Z" style="fill:#555d46;fill-rule:nonzero;"/><path d="M89.938,135.368c4.125,1.375 8.25,2.75 12.5,4.167c0.521,11.979 0.521,11.979 0,25c-2.75,2.75 -5.5,5.5 -8.333,8.333c-6.16,-12.319 -4.418,-23.926 -4.167,-37.5Z" style="fill:#7e8173;fill-rule:nonzero;"/><path d="M252.438,81.201c6.188,4.125 6.188,4.125 12.5,8.333c0.781,13.021 0.781,13.021 0,25c-1.375,-2.75 -2.75,-5.5 -4.167,-8.333l-8.333,0l0,-25Z" style="fill:#4f5644;fill-rule:nonzero;"/></svg>