<?xml version="1.0" encoding="UTF-8" standalone="no"?><!DOCTYPE svg PUBLIC "-//W3C//DTD SVG 1.1//EN" "http://www.w3.org/Graphics/SVG/1.1/DTD/svg11.dtd"><svg width="100%" height="100%" viewBox="0 0 1921 1910" version="1.1" xmlns="http://www.w3.org/2000/svg" xmlns:xlink="http://www.w3.org/1999/xlink" xml:space="preserve" xmlns:serif="http://www.serif.com/" style="fill-rule:evenodd;clip-rule:evenodd;stroke-linejoin:round;stroke-miterlimit:2;"><path d="M100.57,0c13.75,16.171 24.251,33.409 34.635,51.823c69.265,120.042 157.78,246.429 265.365,335.677c4.472,3.838 8.936,7.686 13.395,11.54c22.787,19.681 45.664,39.151 69.157,57.992c58.357,47.802 93.991,100.243 104.948,176.302c0.404,8.729 0.641,17.467 0.732,26.204c0.099,4.958 0.199,9.915 0.301,15.023c0.177,10.264 0.308,20.529 0.391,30.794c1.028,44.415 9.723,83.693 35.034,120.687c2.557,3.803 5.113,7.605 7.747,11.523c1.912,2.729 3.824,5.457 5.794,8.268c0,-12.915 -4.438,-24.364 -8.073,-36.719c-22.011,-74.867 -15.755,-138.808 19.792,-208.073c1.746,-3.072 3.491,-6.145 5.29,-9.31c4.976,-9.388 4.976,-9.388 3.825,-25.065c-4.213,-9.817 -4.213,-9.817 -9.896,-19.792c-15.772,-30.83 -19.959,-55.702 -20.312,-90.104c-0.059,-4.468 -0.059,-4.468 -0.119,-9.027c0.137,-21.721 0.137,-21.721 9.494,-31.077c1.622,1.815 3.244,3.631 4.915,5.501c31.364,33.388 75.744,61.913 122.38,66.341c11.736,-1.161 18.28,-4.469 28.434,-10.384c87.717,-46.431 201.166,-42.97 293.719,-14.508c15.912,5.462 30.806,12.738 45.864,20.172c25.392,10.642 54.733,-5.404 78.743,-14.925c19.449,-9.206 34.857,-21.417 50.944,-35.531c4.211,-3.352 8.422,-6.703 12.76,-10.156c2.664,-2.148 5.328,-4.297 8.073,-6.51c13.487,40.461 5.576,87.51 -12.5,125c-1.596,2.46 -3.192,4.919 -4.836,7.453c-10.031,16.251 -10.031,16.251 -10.179,34.72c3.922,9.369 8.422,18.014 13.452,26.837c20.222,37.823 28.18,68.63 28.125,111.719c0.005,4.383 0.011,8.766 0.016,13.281c-0.515,38.469 -7.081,73.471 -18.245,110.156c27.545,-38.012 45.995,-75.668 46.712,-123.047c0.118,-5.36 0.236,-10.721 0.358,-16.243c0.226,-11.176 0.4,-22.351 0.553,-33.529c1.979,-82.966 27.423,-141.991 87.435,-199.284c17.218,-15.797 35.006,-30.718 53.223,-45.345c64.461,-52.295 128.577,-111.829 178.385,-178.385c4.76,-6.204 9.524,-12.404 14.29,-18.604c56.443,-73.835 104.416,-151.871 152.376,-231.396c42.467,40.007 57.318,115.141 59.766,170.996c1.188,51.171 -2.408,99.966 -13.932,149.837c6.871,-6.061 13.726,-12.141 20.573,-18.229c3.819,-3.384 7.638,-6.768 11.572,-10.254c9.672,-8.13 9.672,-8.13 13.688,-17.35l8.333,0c17.443,96.921 1.15,189.815 -34.548,279.872c-2.568,6.637 -4.868,13.377 -7.119,20.128c9.625,-4.125 19.25,-8.25 29.167,-12.5c-1.612,34.969 -5.783,66.715 -16.667,100c-1.509,4.689 -3.019,9.378 -4.574,14.209c-19.461,57.507 -47.102,99.366 -87.093,144.124c12.375,-1.375 24.75,-2.75 37.5,-4.167c-19.986,71.137 -79.339,139.872 -137.5,183.333l-8.333,0l0,8.333c13.75,1.375 27.5,2.75 41.667,4.167c-33.154,66.308 -117.374,113.981 -183.333,141.667c4.125,2.75 8.25,5.5 12.5,8.333c4.245,4.087 8.431,8.238 12.5,12.5c-94.649,57.356 -178.766,100.908 -291.667,75c-6.941,-1.404 -13.885,-2.797 -20.833,-4.167c-1.359,4.474 -2.718,8.948 -4.118,13.558c-1.838,5.984 -3.678,11.969 -5.518,17.952c-0.889,2.935 -1.778,5.871 -2.694,8.895c-5.893,19.087 -12.835,37.196 -21.004,55.428c3.48,1.676 3.48,1.676 7.031,3.385c9.635,4.948 9.635,4.948 18.75,11.719c12.338,6.032 16.482,6.025 29.688,5.208c22.284,-0.667 36.469,6.495 52.865,21.354c13.286,16.352 23,32.832 25,54.167c3.859,-0.218 3.859,-0.218 7.796,-0.439c33.654,-1.076 61.702,2.527 87.256,25.96c20.154,22.305 29.927,45.843 32.454,75.7c0.326,3.691 0.651,7.382 0.987,11.185c0.333,4.172 0.333,4.172 0.673,8.428c-6.933,-0.04 -6.933,-0.04 -14.006,-0.08c-17.272,-0.06 -34.539,0.071 -51.811,0.258c-7.452,0.054 -14.904,0.058 -22.355,0.008c-48.809,-2.254 -48.809,-2.254 -90.865,18.287c-2.167,2.575 -4.334,5.15 -6.567,7.803c-6.838,7.959 -13.167,11.286 -22.729,15.39c5.272,17.054 11.635,32.189 20.231,47.819c2.248,4.168 4.496,8.336 6.812,12.63c4.739,8.705 9.503,17.396 14.29,26.074c2.232,4.157 4.463,8.314 6.763,12.598c2.064,3.768 4.127,7.537 6.253,11.42c4.422,11.422 4.666,15.853 -0.182,26.959c-31.482,26.013 -71.865,40.15 -112.5,37.5c2.75,17.875 5.5,35.75 8.333,54.167c-51.256,15.494 -92.985,22.195 -145.833,8.333c-0.344,2.32 -0.688,4.641 -1.042,7.031c-5.706,17.594 -15.812,27.982 -31.331,37.679c-42.987,20.583 -83.325,36.534 -131.087,22.038c-33.936,-13.701 -65.251,-28.338 -82.373,-62.581c-3.867,0.688 -7.734,1.375 -11.719,2.083c-45.25,6.051 -82.7,-1.56 -125.781,-14.583c-5.268,-21.034 -1.749,-33.637 4.167,-54.167c-5.156,0.43 -10.312,0.859 -15.625,1.302c-36.618,0.058 -70.526,-20.077 -101.042,-38.802c2.295,-19.06 7.352,-33.064 16.423,-49.935c2.43,-4.582 4.861,-9.163 7.365,-13.883c2.549,-4.721 5.097,-9.442 7.723,-14.307c5.055,-9.432 10.096,-18.872 15.12,-28.32c2.243,-4.161 4.486,-8.323 6.796,-12.61c5.513,-9.488 5.513,-9.488 4.906,-18.445c-7.995,-6.19 -7.995,-6.19 -17.969,-12.24c-18.585,-11.702 -18.585,-11.702 -25.373,-19.298c-11.697,-10.476 -27.526,-7.978 -42.514,-8.095c-3.497,-0.075 -6.993,-0.15 -10.596,-0.227c-11.165,-0.226 -22.329,-0.367 -33.496,-0.506c-7.571,-0.138 -15.142,-0.282 -22.713,-0.431c-18.557,-0.354 -37.114,-0.632 -55.672,-0.871c-0.603,-34.752 9.486,-65.374 30.208,-93.75c29.068,-26.425 60.752,-29.957 98.958,-31.25c0.773,-4.125 1.547,-8.25 2.344,-12.5c6.819,-23.914 24.179,-42.88 44.792,-56.25c11.205,-2.085 20.423,-1.793 31.771,-1.302c14.882,0.267 24.239,-0.582 36.458,-9.375c11.169,-11.395 11.169,-11.395 8.822,-25.553c-3.536,-16.719 -8.321,-32.333 -14.03,-48.405c-10.156,-28.958 -10.156,-28.958 -10.156,-38.281c-6.131,1.805 -6.131,1.805 -12.386,3.646c-87.006,24.446 -160.216,10.3 -238.241,-32.65c-41.113,-23.096 -41.113,-23.096 -53.54,-33.496l0,-12.5c5.5,-2.75 11,-5.5 16.667,-8.333c-2.054,-1.088 -4.108,-2.175 -6.224,-3.296c-39.462,-21.034 -76.971,-41.685 -110.443,-71.704c-5.382,-4.713 -5.382,-4.713 -10.872,-9.521c-19.211,-17.023 -38.339,-34.145 -55.794,-52.979l0,-8.333c13.394,-6.697 26.817,-4.406 41.667,-4.167l0,-8.333c-2.75,-0.773 -5.5,-1.547 -8.333,-2.344c-53.74,-25.75 -87.915,-85.698 -116.667,-135.156c-3.392,-5.68 -3.392,-5.68 -6.852,-11.475c-10.959,-18.808 -10.959,-18.808 -13.981,-26.025c1.375,-2.75 2.75,-5.5 4.167,-8.333l29.167,0c-2.651,-2.884 -2.651,-2.884 -5.355,-5.827c-61.292,-68.162 -100.386,-155.445 -98.812,-248.34c9.625,4.125 19.25,8.25 29.167,12.5c-1.96,-4.834 -3.921,-9.668 -5.941,-14.648c-21.235,-53.024 -40.389,-105.347 -40.446,-163.2c-0.005,-5.24 -0.011,-10.479 -0.016,-15.877c0.016,-5.422 0.032,-10.844 0.049,-16.431c-0.016,-5.406 -0.032,-10.812 -0.049,-16.382c0.005,-5.245 0.011,-10.49 0.016,-15.894c0.007,-7.126 0.007,-7.126 0.014,-14.395c0.563,-14.634 2.394,-28.721 4.706,-43.173l8.333,0c7.614,8.064 14.454,16.627 21.452,25.228c7.74,8.132 14.109,12.14 24.382,16.439c-1.203,-4.496 -2.406,-8.991 -3.646,-13.623c-26.156,-103.133 -13.82,-202.011 39.958,-294.499c1.767,-2.82 3.534,-5.64 5.355,-8.545Z" style="fill:#37442d;fill-rule:nonzero;"/><path d="M113.07,141.667c14.356,17.417 27.221,35.659 40.104,54.167c21.92,31.251 44.54,61.731 68.229,91.667c3.024,3.835 6.048,7.67 9.163,11.621c24.708,30.785 51.194,59.749 78.337,88.379c2.965,3.142 5.93,6.284 8.984,9.521c17.983,18.536 37.345,34.795 57.454,50.977c21.723,17.64 42.9,35.898 64.014,54.26c6.629,5.715 13.335,11.323 20.068,16.915c36.997,31.669 59.388,65.598 66.146,114.16c1.407,24.28 1.679,48.582 1.901,72.897c0.793,72.974 21.515,129.296 68.932,185.436c2.771,3.529 2.771,3.529 5.599,7.129c9.181,11.594 16.529,18.662 29.297,26.465c10.938,12.24 10.938,12.24 11.589,22.363c-0.84,8.978 -1.853,17.941 -2.979,26.888c-6.491,53.238 -3.469,108.424 4.671,161.279c1.875,14.614 2.124,28.659 1.823,43.376c-50.609,23.136 -95.481,21.827 -147.721,4.053c-10.612,-4.053 -10.612,-4.053 -18.945,-8.219l0,-8.333c4.522,-1.96 9.045,-3.921 13.704,-5.941c6.022,-2.62 12.044,-5.241 18.066,-7.861c2.97,-1.286 5.94,-2.573 9.001,-3.898c17.233,-7.51 34.158,-15.387 50.895,-23.966c-3.207,-0.291 -6.414,-0.583 -9.718,-0.883c-160.81,-14.957 -160.81,-14.957 -227.782,-61.617c-2.75,-4.125 -5.5,-8.25 -8.333,-12.5c21.572,-2.985 43.146,-5.951 64.723,-8.901c7.336,-1.005 14.671,-2.016 22.005,-3.031c10.558,-1.461 21.119,-2.904 31.68,-4.344c4.897,-0.684 4.897,-0.684 9.893,-1.381c15.671,-2.119 30.877,-3.727 46.699,-3.176l0,-8.333c-4.012,0.14 -8.024,0.279 -12.158,0.423c-91.852,-0.138 -194.916,-39.732 -262.842,-100.423c-25,-25.518 -25,-25.518 -25,-37.5c25.701,2.668 51.077,6.191 76.562,10.417c44.175,7.11 86.968,11.197 131.771,10.417c-5,-1.923 -10.001,-3.846 -15.153,-5.827c-111.752,-43.491 -221.873,-87.214 -280.68,-198.34c-5.147,-12.498 -8.955,-24.428 -12.5,-37.5c14.482,5.63 28.483,11.847 42.464,18.62c108.669,52.659 108.669,52.659 224.202,85.547c-3.609,-2.225 -3.609,-2.225 -7.291,-4.495c-70.004,-43.353 -137.042,-88.623 -196.876,-145.505c-3.795,-3.327 -3.795,-3.327 -7.666,-6.722c-39.433,-36.035 -63.298,-85.004 -79.834,-134.945c-1.542,-4.222 -3.083,-8.443 -4.671,-12.793c-3.499,-11.663 -4.549,-20.438 -4.183,-32.52c0.075,-3.255 0.15,-6.51 0.228,-9.863c0.097,-2.417 0.193,-4.834 0.293,-7.324c16.095,6.659 27.422,17.592 39.844,29.427c72.295,67.416 153.136,126.323 239.323,174.74c-1.741,-1.719 -3.481,-3.438 -5.274,-5.208c-60.193,-59.537 -60.193,-59.537 -80.077,-83.187c-4.421,-5.208 -8.994,-10.289 -13.672,-15.267c-81.417,-87.209 -140.678,-194.325 -139.258,-315.348c0.003,-4.493 0.005,-8.986 0.008,-13.615c0.186,-32.866 0.186,-32.866 4.94,-42.375Z" style="fill:#fbfcfa;fill-rule:nonzero;"/><path d="M1800.57,141.667c11.333,19.648 9.764,38.251 9.635,60.417c-0.023,4.15 -0.047,8.3 -0.071,12.575c-0.497,30.156 -3.565,56.8 -13.731,85.341c-2.586,7.799 -2.586,7.799 -5.225,15.755c-20.514,59.737 -51.283,109.786 -90.609,159.245c-3.147,4.001 -6.295,8.003 -9.538,12.126c-16.762,20.938 -34.125,40.459 -53.369,59.131c-10.545,10.524 -20.129,21.764 -29.834,33.057c-11.558,13.035 -23.942,25.211 -36.426,37.354c72.064,-38.961 137.597,-88.881 200,-141.667c2.744,-2.315 5.488,-4.63 8.315,-7.015c29.58,-24.349 29.58,-24.349 57.359,-50.635c5.16,-4.85 5.16,-4.85 13.493,-4.85c-2.004,87.618 -47.896,159.13 -109.196,218.848c-58.529,51.898 -124.966,93.52 -190.804,135.319c85.611,-27.436 167.448,-57.504 247.396,-98.958c10.938,-5.208 10.938,-5.208 19.271,-5.208c-20.957,75.2 -74.849,128.641 -140.948,166.909c-52.771,28.934 -110.34,55.743 -167.385,74.758c54.766,1.739 108.844,-7.13 162.598,-16.81c15.429,-2.726 30.055,-4.702 45.736,-4.023c-19.26,45.287 -70.141,77.097 -113.851,95.182c-60.358,23.735 -121.093,40.055 -186.149,42.318l0,8.333c2.729,0.204 5.457,0.408 8.268,0.618c20.36,1.668 40.369,3.847 60.482,7.454c35.171,6.187 70.732,9.268 106.25,12.76c-13.883,14.948 -26.444,24.971 -44.792,33.854c-6.026,2.981 -6.026,2.981 -12.174,6.022c-32.73,14.06 -63.656,21.119 -99.023,25.228c-4.052,0.505 -8.105,1.01 -12.28,1.53c-25.817,3.173 -51.671,5.888 -77.563,8.366c2.629,1.219 5.258,2.437 7.966,3.693c11.854,5.513 23.689,11.066 35.523,16.62c4.138,1.917 8.277,3.835 12.541,5.811c3.934,1.853 7.869,3.706 11.922,5.615c3.644,1.702 7.288,3.404 11.042,5.157c8.505,4.771 8.505,4.771 12.672,13.104c-7.804,2.715 -15.619,5.4 -23.438,8.073c-6.526,2.248 -6.526,2.248 -13.184,4.541c-46.434,14.066 -85.848,10.702 -130.046,-8.447c-0.115,-5.729 -0.194,-11.458 -0.26,-17.188c-0.048,-3.19 -0.097,-6.381 -0.146,-9.668c0.407,-10.645 0.407,-10.645 2.536,-21.31c2.598,-18.275 2.152,-35.906 1.712,-54.324c-0.114,-7.799 -0.222,-15.598 -0.326,-23.397c-0.18,-12.218 -0.392,-24.431 -0.692,-36.647c-0.278,-11.844 -0.422,-23.683 -0.545,-35.53c-0.181,-5.463 -0.181,-5.463 -0.365,-11.036c-0.081,-18.38 0.148,-25.808 12.098,-40.524c3.626,-2.874 7.252,-5.748 10.988,-8.71c51.172,-56.228 91.942,-113.462 92.253,-192.204c0.076,-5.748 0.158,-11.496 0.244,-17.244c0.12,-8.903 0.212,-17.802 0.214,-26.706c0.095,-58.137 12.01,-108.07 53.123,-151.346c24.011,-23.478 50.045,-44.48 76.123,-65.592c14.838,-12.269 29.085,-25.117 43.311,-38.086c8.771,-7.95 17.675,-15.699 26.66,-23.405c34.06,-29.819 63.344,-62.458 91.406,-97.917c3.595,-4.467 7.192,-8.932 10.791,-13.395c39.346,-49.106 75.766,-100.504 110.042,-153.271Z" style="fill:#fbfcfa;fill-rule:nonzero;"/><path d="M708.903,925c5.729,2.865 11.458,5.729 17.188,8.594c5.769,2.868 5.769,2.868 11.654,5.794c8.585,4.315 17.136,8.699 25.651,13.151c28.529,14.737 57.164,27.17 87.174,38.607c32.532,12.43 60.194,27.486 88.542,47.656c11.585,8.484 11.585,8.484 28.125,7.031c8.916,-5.377 8.916,-5.377 17.969,-12.76c42.184,-30.579 91.461,-47.74 139.685,-66.413c24.688,-9.801 46.023,-21.084 67.769,-36.451c7.91,-5.208 7.91,-5.208 16.243,-5.208c6.607,23.387 9.612,44.199 9.587,68.441c0.023,3.255 0.046,6.511 0.07,9.864c0.049,10.444 0.023,20.886 -0.021,31.33c-0.006,3.557 -0.012,7.115 -0.019,10.78c-0.161,51.123 -1.749,100.508 -13.783,150.418c-1.112,4.802 -2.224,9.604 -3.369,14.551c-8.009,30.826 -19.116,60.576 -30.225,90.397c-1.419,3.842 -2.838,7.685 -4.3,11.643c-1.379,3.607 -2.759,7.215 -4.18,10.931c-1.225,3.229 -2.45,6.458 -3.712,9.785c-4.429,8.96 -9.28,14.43 -16.714,21.026c-6.188,-2.062 -6.188,-2.062 -12.5,-4.167c-22.452,-6.305 -41.873,-7.694 -63.802,1.823c-5.543,3.223 -5.543,3.223 -11.198,6.51c-6.188,2.062 -6.188,2.062 -12.5,4.167c-4.518,7.286 -4.518,7.286 -8.333,16.667c-3.223,5.672 -3.223,5.672 -6.51,11.458c-7.948,16.213 -7.948,16.213 -10.156,46.875l-116.667,0c-4.125,-20.625 -4.125,-20.625 -8.333,-41.667c-11.604,-21.607 -25.613,-35.241 -47.135,-46.875c-24.884,-6.944 -45.866,-4.258 -69.531,5.208c-13.893,-15.723 -22.083,-31.602 -29.427,-51.042c-1.012,-2.573 -2.025,-5.146 -3.068,-7.796c-3.16,-8.131 -6.19,-16.298 -9.172,-24.495c-1.043,-2.847 -2.087,-5.694 -3.162,-8.627c-9.039,-25.755 -14.828,-51.895 -20.276,-78.612c-0.902,-4.251 -1.805,-8.502 -2.734,-12.882c-8.858,-42.839 -12.141,-84.294 -12.109,-128.003c0,-4.365 0.001,-8.729 0.001,-13.226c0.58,-79.082 0.58,-79.082 13.28,-104.482Z" style="fill:#fdfdfc;fill-rule:nonzero;"/><path d="M758.903,1558.333c15.098,7.549 21.272,12.311 32.292,24.219c15.498,15.994 31.612,27.533 51.042,38.281c0.379,-4.673 0.379,-4.673 0.765,-9.44c0.349,-4.104 0.698,-8.207 1.058,-12.435c0.338,-4.061 0.677,-8.121 1.025,-12.305c1.318,-11.654 1.318,-11.654 5.485,-28.32l216.667,0c4.125,26.812 4.125,26.812 8.333,54.167c22.318,0 38.75,-18.096 54.199,-33.154c4.982,-5.117 9.913,-10.284 14.779,-15.511c6.022,-5.501 6.022,-5.501 14.355,-5.501l0,62.5c7.992,-6.188 7.992,-6.188 16.146,-12.5c16.146,-12.5 16.146,-12.5 25.521,-12.5c7.479,14.837 14.939,29.683 22.396,44.531c2.116,4.198 4.232,8.395 6.413,12.72c3.062,6.103 3.062,6.103 6.185,12.329c1.877,3.731 3.753,7.462 5.686,11.307c4.968,10.393 9.339,20.87 13.487,31.613c-20.621,6.874 -42.741,8.716 -63.281,0.537c-32.938,-19.621 -56.491,-48.826 -78.385,-79.704c2.331,8.944 4.678,17.884 7.031,26.823c0.726,2.768 1.452,5.536 2.2,8.388c4.143,15.596 8.533,31.069 13.327,46.478c1.453,4.714 1.453,4.714 2.935,9.523c1.896,6.102 3.831,12.192 5.809,18.268c5.076,16.424 7.285,28.121 2.031,44.687c-28.595,2.6 -48.347,-2.367 -70.833,-20.833c-30.63,-37.421 -45.866,-88.486 -62.5,-133.333c0.252,3.712 0.505,7.424 0.765,11.248c0.948,14.094 1.878,28.189 2.795,42.285c0.397,6.04 0.801,12.08 1.213,18.119c2.822,41.476 4.105,82.603 3.56,124.181c-53.613,27.41 -53.613,27.41 -83.333,20.833c-34.706,-13.872 -34.706,-13.872 -45.833,-25c-0.173,-7.008 -0.042,-14.023 0.212,-21.029c0.159,-4.432 0.318,-8.864 0.481,-13.43c0.201,-4.785 0.402,-9.57 0.609,-14.5c0.193,-4.844 0.386,-9.688 0.585,-14.679c1.935,-44.245 5.8,-88.181 10.613,-132.196c-0.901,2.454 -1.801,4.909 -2.729,7.437c-4.18,11.335 -8.407,22.652 -12.635,33.969c-1.415,3.859 -2.831,7.718 -4.289,11.694c-31.317,83.414 -31.317,83.414 -71.493,102.629c-15.934,3.187 -30.121,3.164 -46.354,2.604c2.465,-24.429 7.377,-46.799 14.323,-70.312c7.593,-26.423 14.203,-52.589 19.01,-79.688c-2.922,3.62 -5.844,7.24 -8.854,10.97c-54.098,66.188 -54.098,66.188 -83.187,69.792c-32.842,0.547 -32.842,0.547 -45.459,-5.762c7.045,-25.21 19.512,-47.351 31.771,-70.312c3.223,-6.091 3.223,-6.091 6.51,-12.305c5.278,-9.97 10.574,-19.931 15.885,-29.883c15.318,7.07 27.163,15.331 41.667,25l0,-62.5Z" style="fill:#fafbf8;fill-rule:nonzero;"/><path d="M713.07,616.667c12.846,4.996 25.262,10.321 37.5,16.667c-8.333,20.833 -8.333,20.833 -13.021,29.948c-8.272,26.59 -6.504,50.288 5.208,75.521c12.728,22.968 28.955,38.787 53.646,48.698c38.944,4.125 68.064,1.29 99.219,-22.412c5.967,-4.849 11.733,-9.944 17.448,-15.088c6.289,12.578 4.896,23.637 4.167,37.5c-2.75,4.125 -5.5,8.25 -8.333,12.5c0.625,28.008 13.078,51.537 24.74,76.562c1.899,4.206 3.797,8.411 5.754,12.744c8.003,21.252 8.003,21.252 23.674,35.693c1.375,-4.727 2.75,-9.453 4.167,-14.323c4.6,-14.137 10.213,-27.374 16.732,-40.706c1.52,-3.11 3.04,-6.22 4.606,-9.425c3.107,-6.277 6.264,-12.53 9.473,-18.756c8.881,-17.705 8.881,-17.705 10.01,-37.167c-3.169,-8.841 -3.169,-8.841 -7.487,-17.122c-0.781,-14.583 -0.781,-14.583 0,-29.167c4.125,-4.125 4.125,-4.125 8.333,-8.333c3.319,3.013 3.319,3.013 6.706,6.087c2.943,2.632 5.887,5.264 8.919,7.975c2.9,2.61 5.801,5.221 8.789,7.91c26.16,21.1 55.979,18.836 88.086,15.527c25.136,-9.065 42.852,-26.984 54.508,-50.928c4.613,-13.958 5.079,-25.79 5.127,-40.479c0.105,-7.404 0.105,-7.404 0.212,-14.958c-1.649,-15.767 -6.419,-25.703 -14.014,-39.469l0,-8.333c27.604,-16.667 27.604,-16.667 41.667,-16.667c27.605,62.269 40.402,116.999 16.667,183.333c-37.874,77.163 -100.796,106.464 -176.945,136.094c-27.599,10.851 -52.278,22.02 -76.502,39.269c-9.053,3.804 -9.053,3.804 -19.842,0.686c-3.315,-1.721 -6.629,-3.442 -10.044,-5.215c-6.163,-3.126 -6.163,-3.126 -12.451,-6.315c-6.856,-3.577 -6.856,-3.577 -13.851,-7.227c-21.415,-10.983 -42.967,-20.042 -65.625,-28.125c-62.402,-22.616 -122.931,-55.007 -153.906,-116.667c-24.538,-56.821 -23.567,-110.421 -1.611,-167.122c5.191,-10.821 10.652,-19.498 18.278,-28.711Z" style="fill:#f9faf8;fill-rule:nonzero;"/><path d="M1109.538,540.56c23.803,10.579 50.494,1.095 74.072,-7.52c7.149,-2.963 14.253,-6.039 21.289,-9.261c2.696,-0.972 5.393,-1.944 8.171,-2.946c4.125,2.062 4.125,2.062 8.333,4.167c-30.449,41.759 -75.777,61.741 -122.138,81.215c-49.523,21.064 -86.672,51.572 -108.07,101.858c-4.075,16.641 -5.852,33.211 -7.292,50.26c-2.406,-1.375 -4.812,-2.75 -7.292,-4.167c-10.203,-5.295 -10.203,-5.295 -26.042,-4.167c-9.281,5.916 -9.281,5.916 -16.667,12.5c-0.408,-2.825 -0.816,-5.65 -1.237,-8.561c-6.041,-37.602 -14.935,-70.635 -40.43,-99.772l0,-8.333c-2.396,-1.149 -4.791,-2.299 -7.259,-3.483c-9.278,-4.784 -17.812,-10.153 -26.595,-15.788c-19.856,-12.119 -40.37,-21.146 -61.719,-30.208c-39.384,-16.951 -79.477,-35.933 -100.26,-75.521c2.272,0.806 4.544,1.611 6.885,2.441c44.489,15.362 82.831,26.766 127.751,6.413c85.034,-38.179 196.762,-34.098 278.499,10.872Z" style="fill:#fafbf9;fill-rule:nonzero;"/><path d="M988.07,754.167c10.354,10.354 12.234,19.482 16.667,33.333c1.633,2.836 3.266,5.672 4.948,8.594c5.971,14.238 0.13,26.659 -5.462,40.451c-1.898,4.08 -3.797,8.161 -5.753,12.365c-2.054,4.445 -4.109,8.889 -6.226,13.468c-2.151,4.595 -4.302,9.19 -6.519,13.924c-2.167,4.676 -4.334,9.351 -6.567,14.168c-5.343,11.519 -10.707,23.029 -16.089,34.53c-12.5,-4.167 -12.5,-4.167 -18.193,-13.357c-6.165,-13.05 -12.275,-26.117 -18.266,-39.248c-2.165,-4.506 -4.329,-9.013 -6.559,-13.656c-19.514,-42.392 -19.514,-42.392 -11.149,-67.074c8.073,-4.948 8.073,-4.948 16.667,-8.333c1.289,-2.578 2.578,-5.156 3.906,-7.812c13.807,-27.613 31.701,-27.526 58.594,-21.354Z" style="fill:#34412a;fill-rule:nonzero;"/><path d="M742.236,1387.5c13.904,10.977 19.991,19.464 22.656,36.979c-0.902,6.445 -0.902,6.445 -1.823,13.021c-3.867,2.578 -7.734,5.156 -11.719,7.812c-17.054,11.37 -21.149,23.044 -25.781,42.188c-3.236,16.61 -5.96,33.246 -8.333,50c-24.073,-21.747 -33.902,-51.489 -35.677,-83.594c0.933,-23.296 10.364,-43.02 23.177,-62.24c12.882,-6.441 23.31,-5.39 37.5,-4.167Z" style="fill:#f7f9f5;fill-rule:nonzero;"/><path d="M1196.549,1385.189c18.139,5.121 25.573,21.402 34.489,36.686c8.673,34.69 2.539,67.386 -13.802,98.958c-8.919,9.668 -8.919,9.668 -16.667,16.667c-0.709,-4.522 -1.418,-9.045 -2.148,-13.704c-1.017,-6.023 -2.037,-12.045 -3.06,-18.066c-0.457,-2.97 -0.913,-5.94 -1.383,-9.001c-3.552,-20.378 -9.454,-34.343 -22.575,-50.895c-8.752,-5.786 -8.752,-5.786 -16.667,-8.333c-1.283,-16.357 -1.286,-26.649 6.25,-41.406c11.866,-9.789 20.165,-11.88 35.563,-10.905Z" style="fill:#f7f9f4;fill-rule:nonzero;"/><path d="M829.736,1391.667c11.662,8.293 19.278,14.661 22.868,28.906c0.607,9.151 0.282,16.378 -2.035,25.26c-6.759,7.125 -13.726,14.056 -20.833,20.833c-10.757,22.56 -14.423,46.157 -16.667,70.833c-12.5,-4.167 -12.5,-4.167 -18.278,-13.753c-14.374,-33.28 -23.349,-65.051 -11.702,-100.667c9.946,-21.357 20.95,-35.696 46.647,-31.413Z" style="fill:#f4f6f2;fill-rule:nonzero;"/><path d="M1098.486,1388.802c15.413,4.239 23.142,14.749 31.25,27.865c11.939,25.376 12.487,51.337 5.176,78.32c-7.351,19.565 -14.661,32.371 -30.176,46.68c-0.757,-4.571 -1.515,-9.142 -2.295,-13.851c-1.056,-6.061 -2.114,-12.121 -3.174,-18.18c-0.737,-4.508 -0.737,-4.508 -1.489,-9.106c-3.171,-17.805 -6.945,-31.593 -18.042,-46.362c-4.125,-2.75 -8.25,-5.5 -12.5,-8.333c-2.716,-20.71 -3.316,-28.786 9.115,-45.833c11.719,-8.333 11.719,-8.333 22.135,-11.198Z" style="fill:#f4f6f2;fill-rule:nonzero;"/><path d="M1134.163,650.26c12.412,6.006 15.275,12.025 20.573,24.74c3.218,23.612 1.18,42.436 -12.5,62.5c-16.539,16.675 -31.557,25.487 -55.208,26.562c-21.11,-0.172 -34.097,-7.782 -48.958,-22.396c-8.333,-12.5 -8.333,-12.5 -7.812,-23.177c3.646,-10.156 3.646,-10.156 12.24,-15.625c2.664,-0.945 5.328,-1.891 8.073,-2.865c1.805,3.266 3.609,6.531 5.469,9.896c6.582,11.842 6.582,11.842 19.531,19.271c11.67,0.918 22.189,-0.622 33.333,-4.167c9.419,-8.406 9.419,-8.406 12.5,-20.833c-0.906,-17.216 -3.598,-30.996 -12.5,-45.833c8.938,-5.427 14.694,-8.393 25.26,-8.073Z" style="fill:#f3f5f0;fill-rule:nonzero;"/><path d="M779.736,650c19.792,3.646 19.792,3.646 29.167,8.333c-4.167,8.333 -8.333,16.667 -12.5,25c-2.251,16.886 -1.425,23.072 8.854,36.979c11.244,9.657 11.244,9.657 24.479,11.198c15.343,-2.877 22.367,-8.044 33.333,-19.01c1.375,-4.125 2.75,-8.25 4.167,-12.5c9.945,3.85 15.459,6.22 20.833,15.625c0,15.467 -6.831,22.818 -16.667,34.375c-21.595,12.459 -38.228,15.197 -62.5,12.5c-20.647,-10.72 -35.38,-24.926 -45.833,-45.833c-2.242,-20.434 -3.539,-39.235 8.333,-56.771c2.75,-3.266 5.5,-6.531 8.333,-9.896Z" style="fill:#f5f7f2;fill-rule:nonzero;"/><path d="M1277.913,1409.635c15.809,4.459 21.754,14.78 30.99,27.865c9.59,28.769 4.945,52.558 -8.04,79.395c-4.46,8.105 -4.46,8.105 -12.793,20.605l-8.333,0c-0.156,-3.019 -0.312,-6.037 -0.472,-9.147c-2.142,-32.593 -2.142,-32.593 -16.195,-61.686c-2.922,-1.375 -5.844,-2.75 -8.854,-4.167c-7.812,-4.167 -7.812,-4.167 -12.5,-15.885c0.521,-13.281 0.521,-13.281 11.458,-25.26c14.062,-8.854 14.062,-8.854 24.74,-11.719Z" style="fill:#f1f3ee;fill-rule:nonzero;"/><path d="M638.33,1409.375c14.959,3.819 20.324,6.918 28.906,19.792c2.344,14.583 2.344,14.583 0,29.167c-9.896,8.594 -9.896,8.594 -20.833,16.667c-9.243,19.872 -10.676,40.896 -12.5,62.5c-19.779,-16.369 -27.031,-35.378 -30.664,-60.254c-1.28,-23.117 2.539,-39.751 16.097,-58.724c6.234,-6.022 6.234,-6.022 18.994,-9.147Z" style="fill:#f3f5f1;fill-rule:nonzero;"/><path d="M229.736,500c31.08,15.54 53.259,44.505 75.521,70.426c14.393,16.103 29.889,31.132 45.312,46.24c-17.8,0 -29.222,-9.426 -43.75,-18.75c-2.963,-1.886 -5.926,-3.773 -8.978,-5.716c-8.849,-5.68 -17.654,-11.421 -26.438,-17.201c-2.464,-1.62 -4.928,-3.24 -7.467,-4.909c-41.112,-27.396 -41.112,-27.396 -46.7,-49.257c5.729,-11.719 5.729,-11.719 12.5,-20.833Z" style="fill:#3a4531;fill-rule:nonzero;"/><path d="M1008.903,1616.667c10.602,15.903 16.774,32.514 23.698,50.26c1.388,3.451 2.777,6.902 4.207,10.457c1.292,3.301 2.583,6.601 3.914,10.002c1.786,4.528 1.786,4.528 3.608,9.148c2.072,7.632 2.072,7.632 -2.095,15.966c-2.771,1.106 -5.543,2.213 -8.398,3.353c-9.333,4.303 -9.333,4.303 -10.807,14.909c-0.193,3.771 -0.387,7.541 -0.586,11.426c-0.236,3.792 -0.473,7.584 -0.716,11.491c-0.107,2.911 -0.215,5.822 -0.326,8.822l-4.167,0c-1.198,-16.75 -2.384,-33.501 -3.56,-50.252c-0.401,-5.69 -0.805,-11.38 -1.213,-17.069c-0.587,-8.212 -1.163,-16.425 -1.737,-24.638c-0.349,-4.931 -0.698,-9.863 -1.058,-14.943c-0.715,-13.013 -0.904,-25.901 -0.765,-38.93Z" style="fill:#484f42;fill-rule:nonzero;"/><path d="M1654.736,525c1.375,2.75 2.75,5.5 4.167,8.333c-2.647,6.995 -5.445,13.934 -8.333,20.833c-0.693,5.125 -0.693,5.125 -1.401,10.354c-3.43,12.996 -7.191,15.582 -18.375,22.687c-4.717,3.029 -4.717,3.029 -9.53,6.12c-4.959,3.045 -4.959,3.045 -10.018,6.152c-3.29,2.127 -6.58,4.254 -9.969,6.445c-17.997,11.353 -17.997,11.353 -25.708,14.909c-2.75,-1.375 -5.5,-2.75 -8.333,-4.167c3.572,-3.523 7.144,-7.047 10.824,-10.677c25.107,-24.873 49.718,-49.776 72.51,-76.823c1.375,-1.375 2.75,-2.75 4.167,-4.167Z" style="fill:#3c4633;fill-rule:nonzero;"/><path d="M433.903,1012.5c22,2.75 44,5.5 66.667,8.333l0,8.333c-26.264,5.747 -48.54,10.047 -75,4.167l0,-12.5l8.333,0l0,-8.333Z" style="fill:#4d5346;fill-rule:nonzero;"/><path d="M1108.903,1625c17.576,16.542 31.718,34.618 45.833,54.167c-9.625,1.375 -19.25,2.75 -29.167,4.167c-13.582,-39.208 -13.582,-39.208 -16.667,-58.333Z" style="fill:#343e2c;fill-rule:nonzero;"/><path d="M1608.903,725c1.375,2.75 2.75,5.5 4.167,8.333l-8.333,0l0,20.833c-8.057,2.91 -16.133,5.764 -24.219,8.594c-4.496,1.595 -8.991,3.19 -13.623,4.834c-12.158,3.239 -12.158,3.239 -24.658,-0.928c22,-13.75 44,-27.5 66.667,-41.667Z" style="fill:#3a4434;fill-rule:nonzero;"/><path d="M342.236,745.833c11.457,6.441 22.43,13.501 33.333,20.833c-17.379,5.793 -29.925,-0.407 -46.615,-5.99c-3.123,-1.012 -6.247,-2.025 -9.465,-3.068c-7.707,-2.503 -15.399,-5.052 -23.088,-7.609c2.578,-0.602 5.156,-1.203 7.812,-1.823c24.453,-6.473 24.453,-6.473 38.021,-2.344Z" style="fill:#4f5647;fill-rule:nonzero;"/><path d="M638.07,1616.667c2.75,4.125 5.5,8.25 8.333,12.5c-1.719,2.836 -3.438,5.672 -5.208,8.594c-8.165,13.706 -16.072,27.538 -23.958,41.406l-8.333,0c6.439,-22.831 17.314,-42.143 29.167,-62.5Z" style="fill:#414b39;fill-rule:nonzero;"/><path d="M1421.403,1116.667l0,4.167c-5.793,0.757 -5.793,0.757 -11.702,1.53c-4.99,0.698 -9.979,1.396 -15.12,2.116c-4.979,0.677 -9.958,1.354 -15.088,2.051c-6.067,1.305 -6.067,1.305 -12.256,2.637c-1.375,2.75 -2.75,5.5 -4.167,8.333c-8.25,-4.125 -16.5,-8.25 -25,-12.5l0,-4.167c27.867,-2.601 55.338,-4.705 83.333,-4.167Z" style="fill:#474e41;fill-rule:nonzero;"/><path d="M1604.736,579.167c5.5,4.125 11,8.25 16.667,12.5c-7.439,4.988 -14.91,9.927 -22.396,14.844c-6.236,4.133 -6.236,4.133 -12.598,8.35c-3.577,1.971 -7.154,3.942 -10.84,5.973c-2.75,-1.375 -5.5,-2.75 -8.333,-4.167c12.375,-12.375 24.75,-24.75 37.5,-37.5Z" style="fill:#54584e;fill-rule:nonzero;"/><path d="M1029.736,1691.667c4.125,1.375 8.25,2.75 12.5,4.167c2.865,8.594 2.865,8.594 4.167,16.667c-6.875,2.75 -13.75,5.5 -20.833,8.333c-2.604,-7.552 -2.604,-7.552 -4.167,-16.667c2.75,-4.125 5.5,-8.25 8.333,-12.5Zm-12.5,20.833l4.167,0l0,50l-4.167,0l0,-50Z" style="fill:#575f4f;fill-rule:nonzero;"/><path d="M788.07,1500c8.25,2.75 16.5,5.5 25,8.333l0,29.167c-12.5,-4.167 -12.5,-4.167 -19.531,-16.406c-5.469,-12.76 -5.469,-12.76 -5.469,-21.094Z" style="fill:#dde3da;fill-rule:nonzero;"/><path d="M1017.236,1675l16.667,0c1.375,9.625 2.75,19.25 4.167,29.167l-12.5,0c-2.75,2.75 -5.5,5.5 -8.333,8.333l0,-37.5Z" style="fill:#353f2c;fill-rule:nonzero;"/><path d="M50.57,283.333c7.85,13.606 10.387,26.171 12.5,41.667c-23.958,-15.104 -23.958,-15.104 -33.333,-29.167l16.667,0c1.375,-4.125 2.75,-8.25 4.167,-12.5Z" style="fill:#dde1d6;fill-rule:nonzero;"/><path d="M904.736,1616.667l4.167,0c-1.375,20.625 -2.75,41.25 -4.167,62.5l-4.167,0l0,-20.833l-8.333,0c4.125,-13.75 8.25,-27.5 12.5,-41.667Z" style="fill:#5f635a;fill-rule:nonzero;"/><path d="M1463.07,1020.833c-4.125,6.188 -4.125,6.188 -8.333,12.5c-12.375,-1.375 -24.75,-2.75 -37.5,-4.167l0,-8.333c30.952,-5.357 30.952,-5.357 45.833,0Z" style="fill:#52564a;fill-rule:nonzero;"/><path d="M1029.736,1379.167c5.044,15.133 2.616,21.105 -1.823,36.198c-1.797,6.212 -1.797,6.212 -3.63,12.549c-0.951,3.164 -1.901,6.327 -2.881,9.587l-4.167,0c-1.223,-23.637 -0.023,-37.461 12.5,-58.333Z" style="fill:#4b5344;fill-rule:nonzero;"/><path d="M433.903,1012.5c5.5,1.375 11,2.75 16.667,4.167l-8.333,0l0,12.5c4.125,2.75 8.25,5.5 12.5,8.333c-9.625,-1.375 -19.25,-2.75 -29.167,-4.167l0,-12.5l8.333,0l0,-8.333Z" style="fill:#46503e;fill-rule:nonzero;"/><path d="M338.07,750c17.117,4.945 24.56,7.894 37.5,20.833c-13.75,-2.75 -27.5,-5.5 -41.667,-8.333c1.375,-4.125 2.75,-8.25 4.167,-12.5Z" style="fill:#5c6157;fill-rule:nonzero;"/><path d="M325.049,594.271c11.115,7.192 17.714,15.967 25.521,26.562c-16.646,-5.707 -28.334,-13.572 -41.667,-25c8.333,-4.167 8.333,-4.167 16.146,-1.562Z" style="fill:#5e6158;fill-rule:nonzero;"/><path d="M1108.903,1625c20.312,19.792 20.312,19.792 25,29.167l-12.5,0c-1.375,4.125 -2.75,8.25 -4.167,12.5c-2.75,-13.75 -5.5,-27.5 -8.333,-41.667Z" style="fill:#4f5349;fill-rule:nonzero;"/><path d="M800.57,1629.167c4.619,13.856 3.519,23.424 0,37.5c-5.5,-5.5 -11,-11 -16.667,-16.667c5.5,-6.875 11,-13.75 16.667,-20.833Z" style="fill:#505648;fill-rule:nonzero;"/><path d="M88.07,816.667c13.75,1.375 27.5,2.75 41.667,4.167l0,4.167l-25,0c-1.375,5.5 -2.75,11 -4.167,16.667c-12.5,-15.625 -12.5,-15.625 -12.5,-25Z" style="fill:#4f5846;fill-rule:nonzero;"/><path d="M1575.57,745.833c2.75,1.375 5.5,2.75 8.333,4.167c-1.375,4.125 -2.75,8.25 -4.167,12.5c-8.61,3.044 -8.61,3.044 -19.01,4.948c-3.443,0.661 -6.886,1.321 -10.433,2.002c-3.988,0.685 -3.988,0.685 -8.057,1.383c10.896,-8.835 21.652,-17.212 33.333,-25Z" style="fill:#5c6157;fill-rule:nonzero;"/><path d="M1008.903,666.667c2.75,2.75 5.5,5.5 8.333,8.333c-10.312,16.5 -10.312,16.5 -20.833,33.333c-4.167,-12.5 -4.167,-12.5 -0.928,-20.101c4.476,-7.189 8.952,-14.377 13.428,-21.566Z" style="fill:#485241;fill-rule:nonzero;"/><path d="M1463.07,1016.667c5.5,1.375 11,2.75 16.667,4.167c-1.375,4.125 -2.75,8.25 -4.167,12.5l-20.833,0c2.75,-5.5 5.5,-11 8.333,-16.667Z" style="fill:#313a26;fill-rule:nonzero;"/><path d="M1388.07,500c0,15.064 -3.718,21.299 -12.5,33.333l-12.5,0c8.25,-11 16.5,-22 25,-33.333Z" style="fill:#3f4838;fill-rule:nonzero;"/><path d="M1738.07,416.667c4.167,12.5 4.167,12.5 -1.042,23.438c-7.292,9.896 -7.292,9.896 -19.792,14.062c6.243,-12.967 13.331,-25.223 20.833,-37.5Z" style="fill:#434c3a;fill-rule:nonzero;"/><path d="M58.903,308.333c10.312,2.062 10.312,2.062 20.833,4.167c-2.75,6.875 -5.5,13.75 -8.333,20.833c-4.125,-2.75 -8.25,-5.5 -12.5,-8.333l0,-16.667Z" style="fill:#44503a;fill-rule:nonzero;"/><path d="M800.57,1341.667c5.242,-0.172 21.783,-0.714 24.821,-0.814c8.512,0.814 8.512,0.814 21.012,9.147c-9.625,1.375 -19.25,2.75 -29.167,4.167l0,-8.333c-5.5,-1.375 -11,-2.75 -16.667,-4.167Z" style="fill:#525b4d;fill-rule:nonzero;"/><path d="M808.903,658.333l8.333,0c-2.399,9.94 -5.093,19.445 -8.333,29.167c-4.125,-1.375 -8.25,-2.75 -12.5,-4.167c4.167,-8.333 8.333,-16.667 12.5,-25Z" style="fill:#48513f;fill-rule:nonzero;"/><path d="M1163.07,875c0,12.5 0,12.5 -10.417,23.698c-3.438,3.18 -6.875,6.359 -10.417,9.635c-1.375,-5.5 -2.75,-11 -4.167,-16.667c8.25,-5.5 16.5,-11 25,-16.667Z" style="fill:#45503d;fill-rule:nonzero;"/><path d="M1188.07,554.167c4.125,1.375 8.25,2.75 12.5,4.167c-9.375,8.594 -9.375,8.594 -20.833,16.667c-9.635,-1.042 -9.635,-1.042 -16.667,-4.167c11.719,-8.594 11.719,-8.594 25,-16.667Z" style="fill:#404839;fill-rule:nonzero;"/><path d="M633.903,416.667c6.875,6.875 13.75,13.75 20.833,20.833l-25,0c1.375,-6.875 2.75,-13.75 4.167,-20.833Z" style="fill:#454b3d;fill-rule:nonzero;"/><path d="M442.236,412.5c6.875,5.5 13.75,11 20.833,16.667c-1.375,4.125 -2.75,8.25 -4.167,12.5c-8.25,-6.875 -16.5,-13.75 -25,-20.833c2.75,-2.75 5.5,-5.5 8.333,-8.333Z" style="fill:#e6ebe3;fill-rule:nonzero;"/></svg>