<?xml version="1.0" encoding="UTF-8" standalone="no"?><!DOCTYPE svg PUBLIC "-//W3C//DTD SVG 1.1//EN" "http://www.w3.org/Graphics/SVG/1.1/DTD/svg11.dtd"><svg width="100%" height="100%" viewBox="0 0 1516 1480" version="1.1" xmlns="http://www.w3.org/2000/svg" xmlns:xlink="http://www.w3.org/1999/xlink" xml:space="preserve" xmlns:serif="http://www.serif.com/" style="fill-rule:evenodd;clip-rule:evenodd;stroke-linejoin:round;stroke-miterlimit:2;"><path d="M197.166,162.943c20.755,5.099 40.641,13.041 60.63,20.521c37.281,13.888 37.281,13.888 75.179,25.944c4.974,1.499 4.974,1.499 10.049,3.027c5.936,1.786 11.896,3.498 17.881,5.111c11.014,3.602 18.901,7.386 24.975,17.476c3.656,9.107 6.506,18.161 9.155,27.608c8.428,30.067 8.428,30.067 23.958,56.771c8.798,3.647 8.798,3.647 18.49,4.427c12.763,2.266 18.747,3.727 29.688,11.198c7.69,12.036 6.43,20.347 5.99,34.375c4.198,0.648 8.395,1.297 12.72,1.965c48.127,8.832 73.834,27.578 106.941,62.521c4.659,4.731 9.328,9.451 14.007,14.162c12.144,12.286 24.126,24.717 36.083,37.185c9.84,10.207 19.792,20.302 29.75,30.394c11.878,12.041 23.709,24.127 35.525,36.228c2.252,2.306 4.504,4.611 6.824,6.986c6.315,6.489 12.597,13.007 18.868,19.537c5.361,5.559 5.361,5.559 10.83,11.231c7.619,8.957 7.619,8.957 7.619,17.291c24.802,-21.088 48.138,-43.333 71.094,-66.406c4.774,-4.749 4.774,-4.749 9.644,-9.595c17.552,-17.582 34.425,-35.508 50.573,-54.39c8.537,-9.804 17.706,-18.884 27.023,-27.942c2.32,-2.492 4.641,-4.984 7.031,-7.552c5.469,-4.948 5.469,-4.948 13.802,-4.948c1.716,-3.682 1.716,-3.682 3.467,-7.438c16.914,-32.074 42.053,-42.903 75.052,-53.303c19.857,-5.925 19.857,-5.925 29.815,-5.925c0.258,-4.469 0.516,-8.938 0.781,-13.542c3.385,-15.625 3.385,-15.625 11.979,-25.781c16.46,-8.755 27.105,-7.762 45.573,-6.51c6.412,-15.912 12.612,-31.897 18.75,-47.917c3.461,-9.032 6.932,-18.06 10.417,-27.083c1.225,-5.479 1.225,-5.479 2.474,-11.068c17.84,-29.734 74.936,-37.375 106.901,-47.786c8.452,-2.768 16.902,-5.542 25.35,-8.323c7.618,-2.505 15.241,-4.995 22.864,-7.483c13.04,-4.259 13.04,-4.259 24.585,-9.306c12.961,-4.825 21.353,-3.163 34.493,0.633c9.373,14.059 8.884,19.526 6.356,35.724c-4.454,20.567 -11.194,40.416 -17.814,60.37c-1.505,4.59 -3.01,9.181 -4.561,13.91c-2.999,9.138 -6.009,18.273 -9.029,27.405c-3.572,10.921 -7.013,21.866 -10.368,32.855c-0.898,2.881 -1.797,5.763 -2.722,8.731c-2.309,7.417 -4.58,14.845 -6.848,22.275c-5.696,12.759 -9.575,16.977 -21.68,23.73c-8.061,3.054 -16.235,5.816 -24.479,8.333c-17.932,5.686 -33.931,12.102 -50.521,20.833l-8.333,0c0.29,2.465 0.58,4.931 0.879,7.471c1.78,25.985 1.78,25.985 -5.566,37.158c-11.191,10.084 -19.451,13.625 -34.375,15.007c-3.609,-0.43 -7.219,-0.859 -10.938,-1.302c-0.156,2.32 -0.312,4.641 -0.472,7.031c-0.411,4.77 -0.411,4.77 -0.83,9.635c-0.242,3.094 -0.483,6.188 -0.732,9.375c-7.85,42.188 -31.737,64.656 -61.426,93.62c-4.658,4.619 -9.311,9.242 -13.959,13.87c-12.181,12.102 -24.424,24.141 -36.681,36.166c-12.523,12.309 -24.986,24.677 -37.454,37.041c-24.424,24.202 -48.914,48.336 -73.446,72.428c14.146,29.529 38.24,51.981 63.326,72.503c7.52,6.675 13.769,13.621 20.235,21.312c19.109,22.109 39.751,42.605 60.449,63.216c3.832,3.848 7.665,7.697 11.613,11.662c22.755,22.816 22.755,22.816 47.095,43.888c3.228,2.723 6.456,5.446 9.782,8.252l0,8.333c1.864,-1.805 3.728,-3.609 5.648,-5.469c2.519,-2.32 5.038,-4.641 7.633,-7.031c2.465,-2.32 4.931,-4.641 7.471,-7.031c11.033,-7.171 16.301,-7.858 29.248,-5.469c10.71,8.236 10.71,8.236 21.354,19.271c3.534,3.577 7.068,7.154 10.71,10.84c25.751,30.988 25.4,60.121 22.103,99.056c-3.234,11.824 -7.603,22.049 -12.5,33.333c0.786,17.885 13.836,27.739 26.042,39.323c1.993,1.936 3.985,3.873 6.038,5.868c5.957,5.787 11.938,11.548 17.92,17.31c6.955,6.934 13.9,13.878 20.833,20.833c3.534,3.486 7.068,6.972 10.71,10.563c3.513,3.475 7.025,6.95 10.645,10.531c3.534,3.486 7.068,6.972 10.71,10.563c9.603,10.01 9.603,10.01 15.283,19.515c6.743,8.577 6.743,8.577 20.247,8.968c7.92,0.008 7.92,0.008 15.999,0.016c34.966,1.028 61.429,10.697 88.021,33.594c7.552,10.417 7.552,10.417 7.031,20.833c-1.203,3.438 -2.406,6.875 -3.646,10.417c-3.84,15.545 -4.159,29.101 -3.385,45.052c0.136,27.732 -5.294,45.607 -23.877,66.26c-20.856,19.52 -42.715,29.434 -71.175,31.396c-14.062,-1.042 -14.062,-1.042 -27.865,-3.646c-3.695,-0.516 -7.391,-1.031 -11.198,-1.562c-2.75,2.75 -5.5,5.5 -8.333,8.333c-9.635,1.823 -9.635,1.823 -20.833,0c-20.878,-15.658 -33.871,-37.746 -41.667,-62.5c1.015,-8.764 2.23,-17.505 3.597,-26.221c0.426,-26.522 -6.336,-38.634 -24.052,-58.129c-14.994,-15.228 -30.504,-29.811 -46.211,-44.297c-6.437,-6.144 -12.861,-12.302 -19.271,-18.473c-15.651,-15.011 -31.456,-29.844 -47.396,-44.548c-2.535,0.893 -5.07,1.787 -7.681,2.707c-3.347,1.153 -6.693,2.306 -10.141,3.494c-3.308,1.151 -6.617,2.302 -10.025,3.488c-11.82,3.442 -22.418,3.752 -34.653,2.811c-1.375,-2.75 -2.75,-5.5 -4.167,-8.333c8.62,-20.353 20.049,-25.662 39.844,-34.115c45.47,-20.93 76.689,-55.757 98.145,-100.618c4.324,-13.047 4.501,-23.691 4.199,-37.402c-0.075,-4.453 -0.15,-8.905 -0.228,-13.493c-0.145,-5.052 -0.145,-5.052 -0.293,-10.205c-27.965,23.478 -53.587,48.997 -79.167,75c-8.626,-15.397 -8.626,-15.397 -5.99,-26.823c9.285,-16.551 22.296,-27.576 36.523,-39.941c3.416,-2.976 6.832,-5.951 10.352,-9.017c3.292,-2.809 6.585,-5.618 9.977,-8.512c2.465,-2.433 4.931,-4.866 7.471,-7.373l0,-8.333c-7.401,-3.479 -7.401,-3.479 -16.667,-4.167c-9.007,5.934 -9.007,5.934 -17.508,15.077c-3.406,3.394 -6.811,6.787 -10.32,10.284c-3.638,3.732 -7.275,7.464 -11.023,11.309c-3.758,3.778 -7.517,7.556 -11.389,11.448c-7.957,8.002 -15.88,16.036 -23.776,24.098c-10.129,10.341 -20.312,20.629 -30.517,30.896c-16.853,16.96 -33.671,33.956 -50.41,51.028c-2.975,3.029 -5.951,6.058 -9.016,9.178c-7.163,7.143 -7.163,7.143 -11.041,15.849l-12.5,0c2.349,13.623 6.248,20.107 16.667,29.167c-1.375,2.75 -2.75,5.5 -4.167,8.333c-32.197,-28.317 -32.197,-28.317 -36.458,-47.135c3.125,-11.198 3.125,-11.198 11.458,-19.01c2.75,-1.547 5.5,-3.094 8.333,-4.688c-2.191,-17.097 -10.948,-24.894 -22.982,-36.702c-3.84,-3.8 -7.681,-7.6 -11.637,-11.515c-4.084,-3.98 -8.17,-7.96 -12.256,-11.938c-4.023,-3.96 -8.043,-7.923 -12.061,-11.89c-7.453,-7.344 -14.918,-14.674 -22.4,-21.988c-10.457,-10.256 -20.821,-20.596 -31.165,-30.966c-3.81,-3.81 -70.515,-70.515 -100,-100c-15.591,6.499 -25.454,16.114 -37.301,28.021c-2.991,2.989 -2.991,2.989 -6.042,6.038c-6.558,6.564 -13.085,13.156 -19.613,19.749c-4.552,4.567 -9.105,9.133 -13.661,13.697c-11.965,11.996 -23.904,24.018 -35.838,36.044c-12.191,12.276 -24.405,24.528 -36.617,36.783c-23.944,24.033 -47.861,48.092 -71.761,72.168c5.862,12.539 5.862,12.539 15.104,22.656c5.729,6.51 5.729,6.51 7.259,15.999c-3.171,23.516 -25.789,38.543 -43.197,53.011c-25.506,16.837 -58.095,16.347 -87.5,12.5c-16.154,-5.538 -30.953,-12.484 -45.833,-20.833c-0.945,2.32 -1.891,4.641 -2.865,7.031c-7.041,12.406 -15.984,20.62 -26.302,30.469c-4.091,4.069 -8.17,8.149 -12.24,12.24c-25.521,25.521 -25.521,25.521 -31.75,31.736c-5.705,5.718 -11.36,11.485 -17.013,17.255c-9.831,9.603 -9.831,9.603 -18.099,15.82c-14.383,11.264 -20.305,18.808 -22.949,37.256c-0.372,10.865 -0.669,21.732 -0.895,32.601c-2.136,27.285 -14.116,46.841 -30.387,68.197c-10.581,7.275 -16.58,7.716 -29.167,5.729c-2.75,-2.75 -5.5,-5.5 -8.333,-8.333c-9.751,1.17 -19.471,2.603 -29.167,4.167c-26.562,2.108 -44.725,-0.944 -66.667,-16.667c-22.153,-20.847 -37.023,-39.222 -38.021,-70.492c0.132,-5.931 0.306,-11.861 0.521,-17.79c0.39,-10.957 0.39,-21.569 0,-32.552c-2.75,-2.75 -5.5,-5.5 -8.333,-8.333c0.277,-12.028 0.277,-12.028 4.167,-25c9.229,-8.675 9.229,-8.675 20.573,-15.885c3.733,-2.433 7.466,-4.866 11.312,-7.373c16.831,-10.166 16.831,-10.166 31.086,-9.159c33.486,1.439 54.342,-2.307 80.011,-24.771c11.729,-11.244 23.057,-22.777 34.129,-34.667c8.643,-9.268 17.504,-18.273 26.429,-27.268c5.61,-5.786 11.207,-11.585 16.789,-17.399c2.638,-2.705 5.275,-5.41 7.993,-8.196c14.153,-14.454 14.153,-14.454 17.291,-33.513c-1.302,-3.058 -2.604,-6.116 -3.946,-9.267c-11.24,-30.74 -17.036,-71.258 -3.76,-102.393c6.231,-8.458 12.797,-15.397 20.426,-22.607c2.449,-2.788 4.898,-5.575 7.422,-8.447c10.215,-11.313 17.632,-19.516 32.422,-23.844c14.807,4.556 23.444,13.869 35.156,23.958c28.19,-28.094 56.369,-56.198 84.534,-84.318c13.077,-13.056 26.159,-26.107 39.249,-39.15c12.626,-12.58 25.241,-25.171 37.85,-37.769c4.819,-4.811 9.642,-9.619 14.468,-14.423c6.744,-6.714 13.476,-13.441 20.204,-20.171c3.84,-3.831 7.68,-7.661 11.636,-11.608c8.847,-8.463 8.847,-8.463 12.893,-17.561c-2.344,-0.994 -4.689,-1.989 -7.104,-3.013c-11.677,-6.496 -19.736,-14.371 -29.233,-23.781c-5.819,-5.739 -5.819,-5.739 -11.755,-11.594c-4.202,-4.189 -8.402,-8.38 -12.601,-12.573c-4.336,-4.309 -8.673,-8.618 -13.011,-12.927c-9.082,-9.033 -18.147,-18.082 -27.202,-27.142c-11.567,-11.568 -23.191,-23.078 -34.83,-34.574c-8.976,-8.883 -17.914,-17.804 -26.841,-26.736c-4.267,-4.258 -8.548,-8.502 -12.843,-12.732c-30.073,-29.662 -47.741,-50.718 -54.528,-93.003c-0.661,-3.991 -1.321,-7.981 -2.002,-12.093c-0.457,-2.97 -0.913,-5.94 -1.383,-9.001c-3.695,0.43 -7.391,0.859 -11.198,1.302c-18.133,-1.711 -23.218,-8.434 -34.635,-22.135c-6.16,-12.319 -4.418,-23.926 -4.167,-37.5c-3.266,-1.031 -6.531,-2.062 -9.896,-3.125c-19.207,-6.623 -37.993,-14.127 -56.771,-21.875c-7.203,-1.579 -7.203,-1.579 -14.551,-3.19c-11.703,-5.074 -14.551,-9.187 -20.578,-20.696c-5.801,-15.23 -10.848,-30.603 -15.652,-46.166c-1.716,-5.218 -3.432,-10.436 -5.2,-15.812c-32.283,-99.203 -32.283,-99.203 -35.685,-130.802c10.147,-16.489 18.072,-17.949 36.505,-14.792Z" style="fill:#3b4831;fill-rule:nonzero;"/><path d="M1077.327,352.734c21.842,9.587 36.678,26.646 53.385,43.229c3.338,3.201 6.676,6.402 10.116,9.701c3.134,3.104 6.268,6.209 9.497,9.408c4.325,4.241 4.325,4.241 8.737,8.567c5.765,8.262 5.765,8.262 4.848,16.866c-1.073,2.661 -2.145,5.321 -3.25,8.063c-1.375,4.125 -2.75,8.25 -4.167,12.5l8.333,0c1.375,5.5 2.75,11 4.167,16.667l-25,0c-0.156,2.32 -0.312,4.641 -0.472,7.031c-0.411,4.77 -0.411,4.77 -0.83,9.635c-0.242,3.094 -0.483,6.188 -0.732,9.375c-7.85,42.188 -31.737,64.656 -61.426,93.62c-4.658,4.619 -9.311,9.242 -13.959,13.87c-12.181,12.102 -24.424,24.141 -36.681,36.166c-12.523,12.309 -24.986,24.677 -37.454,37.041c-24.424,24.202 -48.914,48.336 -73.446,72.428c14.146,29.529 38.24,51.981 63.326,72.503c7.52,6.675 13.769,13.621 20.235,21.312c19.109,22.109 39.751,42.605 60.449,63.216c3.832,3.848 7.665,7.697 11.613,11.662c22.755,22.816 22.755,22.816 47.095,43.888c3.228,2.723 6.456,5.446 9.782,8.252l0,8.333c1.864,-1.805 3.728,-3.609 5.648,-5.469c3.779,-3.48 3.779,-3.48 7.633,-7.031c2.465,-2.32 4.931,-4.641 7.471,-7.031c11.033,-7.171 16.301,-7.858 29.248,-5.469c10.71,8.236 10.71,8.236 21.354,19.271c3.534,3.577 7.068,7.154 10.71,10.84c25.751,30.988 25.4,60.121 22.103,99.056c-3.234,11.824 -7.603,22.049 -12.5,33.333c0.786,17.885 13.836,27.739 26.042,39.323c1.993,1.936 3.985,3.873 6.038,5.868c5.957,5.787 11.938,11.548 17.92,17.31c6.955,6.934 13.9,13.878 20.833,20.833c3.534,3.486 7.068,6.972 10.71,10.563c3.513,3.475 7.025,6.95 10.645,10.531c3.534,3.486 7.068,6.972 10.71,10.563c9.603,10.01 9.603,10.01 15.283,19.515c6.743,8.577 6.743,8.577 20.247,8.968c7.92,0.008 7.92,0.008 15.999,0.016c34.966,1.028 61.429,10.697 88.021,33.594c7.552,10.417 7.552,10.417 7.031,20.833c-1.805,5.156 -1.805,5.156 -3.646,10.417c-3.84,15.545 -4.159,29.101 -3.385,45.052c0.136,27.732 -5.294,45.607 -23.877,66.26c-20.856,19.52 -42.715,29.434 -71.175,31.396c-14.062,-1.042 -14.062,-1.042 -27.865,-3.646c-3.695,-0.516 -7.391,-1.031 -11.198,-1.562c-2.75,2.75 -5.5,5.5 -8.333,8.333c-9.635,1.823 -9.635,1.823 -20.833,0c-20.878,-15.658 -33.871,-37.746 -41.667,-62.5c1.015,-8.764 2.23,-17.505 3.597,-26.221c0.426,-26.522 -6.336,-38.634 -24.052,-58.129c-14.994,-15.228 -30.504,-29.811 -46.211,-44.297c-6.437,-6.144 -12.861,-12.302 -19.271,-18.473c-15.651,-15.011 -31.456,-29.844 -47.396,-44.548c-2.535,0.893 -5.07,1.787 -7.681,2.707c-3.347,1.153 -6.693,2.306 -10.141,3.494c-3.308,1.151 -6.617,2.302 -10.025,3.488c-11.82,3.442 -22.418,3.752 -34.653,2.811c-1.375,-2.75 -2.75,-5.5 -4.167,-8.333c8.62,-20.353 20.049,-25.662 39.844,-34.115c45.47,-20.93 76.689,-55.757 98.145,-100.618c4.324,-13.047 4.501,-23.691 4.199,-37.402c-0.075,-4.453 -0.15,-8.905 -0.228,-13.493c-0.097,-3.368 -0.193,-6.735 -0.293,-10.205c-27.965,23.478 -53.587,48.997 -79.167,75c-8.626,-15.397 -8.626,-15.397 -5.99,-26.823c9.285,-16.551 22.296,-27.576 36.523,-39.941c3.416,-2.976 6.832,-5.951 10.352,-9.017c3.292,-2.809 6.585,-5.618 9.977,-8.512c2.465,-2.433 4.931,-4.866 7.471,-7.373l0,-8.333c-7.401,-3.479 -7.401,-3.479 -16.667,-4.167c-9.007,5.934 -9.007,5.934 -17.508,15.077c-3.406,3.394 -6.811,6.787 -10.32,10.284c-3.638,3.732 -7.275,7.464 -11.023,11.309c-3.758,3.778 -7.517,7.556 -11.389,11.448c-7.957,8.002 -15.88,16.036 -23.776,24.098c-10.129,10.341 -20.312,20.629 -30.517,30.896c-16.853,16.96 -33.671,33.956 -50.41,51.028c-2.975,3.029 -5.951,6.058 -9.016,9.178c-7.163,7.143 -7.163,7.143 -11.041,15.849l-12.5,0c2.349,13.623 6.248,20.107 16.667,29.167c-1.375,2.75 -2.75,5.5 -4.167,8.333c-32.197,-28.317 -32.197,-28.317 -36.458,-47.135c3.125,-11.198 3.125,-11.198 11.458,-19.01c2.75,-1.547 5.5,-3.094 8.333,-4.688c-2.191,-17.097 -10.948,-24.894 -22.982,-36.702c-3.84,-3.8 -7.681,-7.6 -11.637,-11.515c-4.084,-3.98 -8.17,-7.96 -12.256,-11.938c-4.023,-3.96 -8.043,-7.923 -12.061,-11.89c-7.453,-7.344 -14.918,-14.674 -22.4,-21.988c-10.457,-10.256 -20.821,-20.596 -31.165,-30.966c-3.81,-3.81 -70.515,-70.515 -100,-100c-14.718,6.279 -24.151,14.807 -35.388,26.109c-3.669,3.67 -7.338,7.34 -11.119,11.121c-3.964,4.007 -7.928,8.014 -11.891,12.022c-4.085,4.1 -8.171,8.199 -12.26,12.295c-10.732,10.763 -21.438,21.552 -32.139,32.345c-10.934,11.019 -21.891,22.015 -32.847,33.012c-21.475,21.564 -42.924,43.155 -64.355,64.762c-8.333,-15.625 -8.333,-15.625 -8.333,-25c-4.641,4.898 -4.641,4.898 -9.375,9.896c-9.768,9.324 -16.222,13.828 -28.125,19.271c-5.3,-4.595 -10.594,-9.197 -15.885,-13.802c-2.949,-2.562 -5.897,-5.124 -8.936,-7.764c-7.268,-6.49 -14.211,-13.128 -21.012,-20.101c6.834,-17.452 19.655,-29.112 32.718,-42.026c2.522,-2.527 5.045,-5.053 7.644,-7.656c8.467,-8.471 16.963,-16.911 25.459,-25.352c6.072,-6.063 12.142,-12.127 18.21,-18.193c13.075,-13.062 26.162,-26.111 39.26,-39.151c20.693,-20.601 41.357,-41.231 62.017,-61.865c32.665,-32.618 65.349,-65.216 98.042,-97.805c58.587,-58.402 117.151,-116.828 175.693,-175.275c20.561,-20.526 41.133,-41.039 61.715,-61.544c12.776,-12.732 25.544,-25.472 38.309,-38.214c5.941,-5.926 11.885,-11.849 17.834,-17.768c8.091,-8.051 16.169,-16.116 24.243,-24.183c2.382,-2.364 4.763,-4.728 7.217,-7.163c11.875,-11.62 11.875,-11.62 20.806,-25.471l8.333,0c1.375,-2.75 2.75,-5.5 4.167,-8.333c4.125,-6.188 4.125,-6.188 8.333,-12.5c-5.035,-4.673 -5.035,-4.673 -10.173,-9.44c-4.338,-4.142 -8.672,-8.287 -13.005,-12.435c-2.221,-2.046 -4.442,-4.093 -6.73,-6.201c-6.307,-6.104 -6.307,-6.104 -15.926,-17.757c0.667,-9.831 0.667,-9.831 4.167,-16.667Z" style="fill:#3f4c35;fill-rule:nonzero;"/><path d="M197.166,162.943c20.755,5.099 40.641,13.041 60.63,20.521c37.281,13.888 37.281,13.888 75.179,25.944c4.974,1.499 4.974,1.499 10.049,3.027c5.936,1.786 11.896,3.498 17.881,5.111c11.014,3.602 18.901,7.386 24.975,17.476c3.656,9.107 6.506,18.161 9.155,27.608c8.428,30.067 8.428,30.067 23.958,56.771c8.798,3.647 8.798,3.647 18.49,4.427c12.763,2.266 18.747,3.727 29.688,11.198c7.69,12.036 6.43,20.347 5.99,34.375c4.198,0.648 8.395,1.297 12.72,1.965c48.127,8.832 73.834,27.578 106.941,62.521c4.659,4.731 9.328,9.451 14.007,14.162c12.144,12.286 24.126,24.717 36.083,37.185c9.84,10.207 19.792,20.302 29.75,30.394c11.878,12.041 23.709,24.127 35.525,36.228c2.252,2.306 4.504,4.611 6.824,6.986c6.315,6.489 12.597,13.007 18.868,19.537c5.361,5.559 5.361,5.559 10.83,11.231c7.619,8.957 7.619,8.957 7.619,17.291c2.492,-1.461 4.984,-2.922 7.552,-4.427c9.115,-3.906 9.115,-3.906 21.615,0.26c1.375,2.75 2.75,5.5 4.167,8.333c14.754,-6.253 23.865,-14.716 34.911,-26.227c5.367,-5.549 5.367,-5.549 10.842,-11.211c1.896,-1.977 3.791,-3.955 5.745,-5.992c8.051,-8.378 16.178,-16.68 24.301,-24.988c15.093,-15.441 30.154,-30.913 45.089,-46.507c10.418,-10.873 20.93,-21.647 31.505,-32.367c5.895,-6.027 11.688,-12.152 17.478,-18.279c27.04,-27.257 51.079,-38.853 88.463,-46.929c3.078,-0.977 6.156,-1.953 9.327,-2.96c3.633,-0.598 3.633,-0.598 7.34,-1.207c9.375,8.073 9.375,8.073 16.667,16.667c-4.984,20.558 -17.689,29.971 -33.447,42.725c-8.565,7.067 -8.565,7.067 -15.007,16.504c-2.828,3.682 -2.828,3.682 -5.713,7.438l-8.333,0l0,8.333c-6.783,7.195 -13.692,14.008 -20.833,20.833c-4.727,4.712 -9.441,9.438 -14.145,14.173c-2.61,2.616 -5.22,5.232 -7.909,7.927c-2.795,2.801 -5.59,5.603 -8.469,8.489c-30.556,30.624 -61.123,61.238 -91.696,91.846c-18.471,18.493 -36.938,36.989 -55.397,55.495c-17.9,17.945 -35.809,35.88 -53.726,53.807c-6.803,6.81 -13.602,13.624 -20.397,20.442c-9.531,9.561 -19.074,19.109 -28.621,28.654c-2.77,2.785 -5.539,5.569 -8.393,8.438c-16.044,16.009 -32.546,31.215 -49.78,45.94c-10.702,9.463 -19.947,19.728 -29.437,30.414c-15.964,17.724 -32.19,35.117 -48.958,52.083c-3.744,3.803 -7.487,7.605 -11.344,11.523c-9.229,8.268 -9.229,8.268 -17.562,8.268c-0.951,2.303 -1.901,4.606 -2.881,6.978c-7.029,12.49 -15.903,21.22 -26.025,31.368c-2.003,2.011 -4.006,4.022 -6.07,6.094c-4.221,4.226 -8.451,8.442 -12.692,12.648c-6.505,6.461 -12.965,12.965 -19.421,19.474c-4.11,4.104 -8.222,8.206 -12.337,12.305c-3.744,3.734 -7.487,7.469 -11.344,11.316c-9.229,8.15 -9.229,8.15 -17.562,8.15c-6.901,-6.706 -6.901,-6.706 -14.583,-15.625c-2.535,-2.9 -5.07,-5.801 -7.682,-8.789c-6.424,-8.303 -10.712,-16.171 -15.234,-25.586c4.058,-4.044 4.058,-4.044 8.197,-8.169c25.456,-25.372 50.902,-50.755 76.336,-76.148c13.077,-13.056 26.159,-26.107 39.249,-39.15c12.626,-12.58 25.241,-25.171 37.85,-37.769c4.819,-4.811 9.642,-9.619 14.468,-14.423c6.744,-6.714 13.476,-13.441 20.204,-20.171c5.76,-5.746 5.76,-5.746 11.636,-11.608c8.847,-8.463 8.847,-8.463 12.893,-17.561c-3.352,-0.516 -6.703,-1.031 -10.156,-1.562c-3.523,-0.859 -7.047,-1.719 -10.677,-2.604c-1.375,-2.75 -2.75,-5.5 -4.167,-8.333c1.375,-2.75 2.75,-5.5 4.167,-8.333c-2.344,-0.994 -4.689,-1.989 -7.104,-3.013c-11.677,-6.496 -19.736,-14.371 -29.233,-23.781c-5.819,-5.739 -5.819,-5.739 -11.755,-11.594c-4.202,-4.189 -8.402,-8.38 -12.601,-12.573c-4.336,-4.309 -8.673,-8.618 -13.011,-12.927c-9.082,-9.033 -18.147,-18.082 -27.202,-27.142c-11.567,-11.568 -23.191,-23.078 -34.83,-34.574c-8.976,-8.883 -17.914,-17.804 -26.841,-26.736c-4.267,-4.258 -8.548,-8.502 -12.843,-12.732c-30.073,-29.662 -47.741,-50.718 -54.528,-93.003c-0.661,-3.991 -1.321,-7.981 -2.002,-12.093c-0.457,-2.97 -0.913,-5.94 -1.383,-9.001c-3.695,0.43 -7.391,0.859 -11.198,1.302c-18.133,-1.711 -23.218,-8.434 -34.635,-22.135c-6.16,-12.319 -4.418,-23.926 -4.167,-37.5c-3.266,-1.031 -6.531,-2.062 -9.896,-3.125c-19.207,-6.623 -37.993,-14.127 -56.771,-21.875c-7.203,-1.579 -7.203,-1.579 -14.551,-3.19c-11.703,-5.074 -14.551,-9.187 -20.578,-20.696c-5.801,-15.23 -10.848,-30.603 -15.652,-46.166c-1.716,-5.218 -3.432,-10.436 -5.2,-15.812c-32.283,-99.203 -32.283,-99.203 -35.685,-130.802c10.147,-16.489 18.072,-17.949 36.505,-14.792Z" style="fill:#3f4c35;fill-rule:nonzero;"/><path d="M931.494,786.068c6.955,5.962 13.908,11.926 20.85,17.904c5.198,4.435 10.433,8.826 15.723,13.151c12.648,10.44 23.93,21.09 34.505,33.643c19.113,22.082 39.747,42.569 60.433,63.167c3.832,3.848 7.665,7.697 11.613,11.662c22.755,22.816 22.755,22.816 47.095,43.888c3.228,2.723 6.456,5.446 9.782,8.252l0,8.333c1.864,-1.805 3.728,-3.609 5.648,-5.469c2.519,-2.32 5.038,-4.641 7.633,-7.031c2.465,-2.32 4.931,-4.641 7.471,-7.031c11.033,-7.171 16.301,-7.858 29.248,-5.469c10.71,8.236 10.71,8.236 21.354,19.271c3.534,3.577 7.068,7.154 10.71,10.84c25.751,30.988 25.4,60.121 22.103,99.056c-3.234,11.824 -7.603,22.049 -12.5,33.333c0.786,17.885 13.836,27.739 26.042,39.323c1.993,1.936 3.985,3.873 6.038,5.868c5.957,5.787 11.938,11.548 17.92,17.31c6.955,6.934 13.9,13.878 20.833,20.833c3.534,3.486 7.068,6.972 10.71,10.563c3.513,3.475 7.025,6.95 10.645,10.531c3.534,3.486 7.068,6.972 10.71,10.563c9.603,10.01 9.603,10.01 15.283,19.515c6.743,8.577 6.743,8.577 20.247,8.968c5.28,0.005 10.56,0.011 15.999,0.016c34.966,1.028 61.429,10.697 88.021,33.594c7.552,10.417 7.552,10.417 7.031,20.833c-1.805,5.156 -1.805,5.156 -3.646,10.417c-3.84,15.545 -4.159,29.101 -3.385,45.052c0.136,27.732 -5.294,45.607 -23.877,66.26c-20.856,19.52 -42.715,29.434 -71.175,31.396c-14.062,-1.042 -14.062,-1.042 -27.865,-3.646c-5.543,-0.773 -5.543,-0.773 -11.198,-1.562c-2.75,2.75 -5.5,5.5 -8.333,8.333c-9.635,1.823 -9.635,1.823 -20.833,0c-20.878,-15.658 -33.871,-37.746 -41.667,-62.5c1.015,-8.764 2.23,-17.505 3.597,-26.221c0.426,-26.522 -6.336,-38.634 -24.052,-58.129c-14.994,-15.228 -30.504,-29.811 -46.211,-44.297c-6.437,-6.144 -12.861,-12.302 -19.271,-18.473c-15.651,-15.011 -31.456,-29.844 -47.396,-44.548c-2.535,0.893 -5.07,1.787 -7.681,2.707c-5.02,1.73 -5.02,1.73 -10.141,3.494c-3.308,1.151 -6.617,2.302 -10.025,3.488c-11.82,3.442 -22.418,3.752 -34.653,2.811c-1.375,-2.75 -2.75,-5.5 -4.167,-8.333c8.62,-20.353 20.049,-25.662 39.844,-34.115c45.47,-20.93 76.689,-55.757 98.145,-100.618c4.324,-13.047 4.501,-23.691 4.199,-37.402c-0.075,-4.453 -0.15,-8.905 -0.228,-13.493c-0.097,-3.368 -0.193,-6.735 -0.293,-10.205c-27.965,23.478 -53.587,48.997 -79.167,75c-8.626,-15.397 -8.626,-15.397 -5.99,-26.823c9.285,-16.551 22.296,-27.576 36.523,-39.941c3.416,-2.976 6.832,-5.951 10.352,-9.017c3.292,-2.809 6.585,-5.618 9.977,-8.512c2.465,-2.433 4.931,-4.866 7.471,-7.373l0,-8.333c-7.401,-3.479 -7.401,-3.479 -16.667,-4.167c-9.007,5.934 -9.007,5.934 -17.508,15.077c-3.406,3.394 -6.811,6.787 -10.32,10.284c-3.638,3.732 -7.275,7.464 -11.023,11.309c-3.758,3.778 -7.517,7.556 -11.389,11.448c-7.957,8.002 -15.88,16.036 -23.776,24.098c-10.129,10.341 -20.312,20.629 -30.517,30.896c-16.853,16.96 -33.671,33.956 -50.41,51.028c-2.975,3.029 -5.951,6.058 -9.016,9.178c-7.163,7.143 -7.163,7.143 -11.041,15.849l-12.5,0c2.349,13.623 6.248,20.107 16.667,29.167c-1.375,2.75 -2.75,5.5 -4.167,8.333c-32.197,-28.317 -32.197,-28.317 -36.458,-47.135c3.125,-11.198 3.125,-11.198 11.458,-19.01c2.75,-1.547 5.5,-3.094 8.333,-4.688c-1.751,-12.257 -3.778,-16.3 -13.021,-25c-2.578,-2.75 -5.156,-5.5 -7.812,-8.333c1.042,-9.375 1.042,-9.375 4.167,-16.667c-2.75,-1.375 -5.5,-2.75 -8.333,-4.167c13.281,-3.385 13.281,-3.385 29.167,-4.167c12.24,9.635 12.24,9.635 20.833,20.833l0,8.333c18.421,-15.514 35.743,-30.397 50,-50c-5.5,-2.75 -11,-5.5 -16.667,-8.333c0,-15.695 0.981,-20.466 8.333,-33.333c14.496,5.798 18.669,10.969 25,25c5.385,-4.684 10.766,-9.372 16.146,-14.062c2.997,-2.61 5.994,-5.221 9.082,-7.91c5.637,-5.003 11.109,-10.197 16.439,-15.527c-0.9,-16.757 -11.139,-25.1 -22.617,-36.403c-1.911,-1.899 -3.821,-3.798 -5.79,-5.755c-6.307,-6.256 -12.657,-12.468 -19.006,-18.682c-4.388,-4.344 -8.773,-8.69 -13.154,-13.041c-11.53,-11.435 -23.093,-22.836 -34.668,-34.226c-18.548,-18.255 -37.064,-36.542 -55.543,-54.866c-6.473,-6.403 -12.971,-12.779 -19.472,-19.153c-3.907,-3.866 -7.815,-7.733 -11.84,-11.716c-3.466,-3.41 -6.933,-6.82 -10.504,-10.334c-7.407,-8.325 -7.407,-8.325 -7.407,-16.658c8.073,-2.344 8.073,-2.344 16.667,-4.167c1.375,1.375 2.75,2.75 4.167,4.167c1.375,-2.75 2.75,-5.5 4.167,-8.333Z" style="fill:#3d4b33;fill-rule:nonzero;"/><path d="M339.827,998.568c14.323,6.366 25.79,14.591 37.5,25l0,8.333c4.125,1.375 8.25,2.75 12.5,4.167c2.32,2.922 4.641,5.844 7.031,8.854c7.915,9.84 14.91,16.842 24.43,24.886c20.241,17.501 39.199,36.155 58.122,55.062c3.427,3.376 6.854,6.751 10.384,10.229c3.233,3.225 6.467,6.451 9.798,9.774c4.395,4.369 4.395,4.369 8.879,8.827c6.356,7.368 6.356,7.368 6.356,15.701l12.5,0c2.062,12.375 2.062,12.375 4.167,25l-8.333,0c1.375,2.75 2.75,5.5 4.167,8.333l8.333,0c-6.282,17.589 -17.554,24.181 -33.333,33.333c-32.122,10.431 -66.818,7.652 -97.135,-6.25c-6.564,-3.371 -13.097,-6.806 -19.531,-10.417c-0.945,2.32 -1.891,4.641 -2.865,7.031c-7.041,12.406 -15.984,20.62 -26.302,30.469c-4.091,4.069 -8.17,8.149 -12.24,12.24c-25.521,25.521 -25.521,25.521 -31.75,31.736c-5.705,5.718 -11.36,11.485 -17.013,17.255c-9.831,9.603 -9.831,9.603 -18.099,15.82c-14.383,11.264 -20.305,18.808 -22.949,37.256c-0.372,10.865 -0.669,21.732 -0.895,32.601c-2.136,27.285 -14.116,46.841 -30.387,68.197c-10.581,7.275 -16.58,7.716 -29.167,5.729c-4.125,-4.125 -4.125,-4.125 -8.333,-8.333c-9.751,1.17 -19.471,2.603 -29.167,4.167c-26.562,2.108 -44.725,-0.944 -66.667,-16.667c-22.153,-20.847 -37.023,-39.222 -38.021,-70.492c0.132,-5.931 0.306,-11.861 0.521,-17.79c0.39,-10.957 0.39,-21.569 0,-32.552c-2.75,-2.75 -5.5,-5.5 -8.333,-8.333c0.277,-12.028 0.277,-12.028 4.167,-25c9.229,-8.675 9.229,-8.675 20.573,-15.885c3.733,-2.433 7.466,-4.866 11.312,-7.373c16.779,-10.134 16.779,-10.134 31.462,-9.48c30.556,1.254 52.819,-0.955 76.329,-21.788c12.262,-12.054 23.849,-24.602 35.325,-37.401c4.9,-5.214 9.816,-10.415 14.746,-15.601c11.931,-12.613 23.643,-25.398 35.254,-38.306c1.375,4.125 2.75,8.25 4.167,12.5c4.641,-2.062 4.641,-2.062 9.375,-4.167c13.219,-4.807 23.159,-6.184 36.458,-0.781c8.851,5.255 16.91,11.091 25,17.448l0,-20.833l8.333,0c-2.868,-3.787 -2.868,-3.787 -5.794,-7.65c-27.835,-38.01 -43.698,-69.586 -40.039,-117.35c2.75,-1.375 5.5,-2.75 8.333,-4.167c21.832,17.925 41.862,37.441 61.67,57.536c2.529,2.562 5.059,5.124 7.665,7.764c10.59,10.743 21.168,21.498 31.708,32.29c7.768,7.944 15.575,15.848 23.388,23.748c2.383,2.46 4.766,4.921 7.221,7.456c5.883,5.921 12.093,11.514 18.349,17.04l12.5,0c-2.424,-14.697 -7.523,-21.555 -18.027,-31.946c-2.919,-2.918 -5.839,-5.837 -8.847,-8.844c-4.753,-4.656 -4.753,-4.656 -9.601,-9.406c-4.847,-4.82 -4.847,-4.82 -9.791,-9.737c-10.33,-10.26 -20.703,-20.477 -31.078,-30.692c-7.01,-6.947 -14.017,-13.897 -21.021,-20.85c-17.179,-17.042 -34.394,-34.047 -51.636,-51.025c2.75,-5.5 5.5,-11 8.333,-16.667Z" style="fill:#3f4d35;fill-rule:nonzero;"/><path d="M1052.327,394.401c11.31,3.888 15.752,6.778 21.875,17.188c1.547,3.867 1.547,3.867 3.125,7.812c-2.75,2.664 -5.5,5.328 -8.333,8.073c-13.649,13.532 -25.992,28.176 -38.46,42.79c-2.433,2.465 -4.866,4.931 -7.373,7.471l-8.333,0l0,8.333c-6.783,7.195 -13.692,14.008 -20.833,20.833c-4.727,4.712 -9.441,9.438 -14.145,14.173c-2.61,2.616 -5.22,5.232 -7.909,7.927c-2.795,2.801 -5.59,5.603 -8.469,8.489c-30.556,30.624 -61.123,61.238 -91.696,91.846c-18.471,18.493 -36.938,36.989 -55.397,55.495c-17.9,17.945 -35.809,35.88 -53.726,53.807c-6.803,6.81 -13.602,13.624 -20.397,20.442c-9.531,9.561 -19.074,19.109 -28.621,28.654c-2.77,2.785 -5.539,5.569 -8.393,8.438c-16.044,16.009 -32.546,31.215 -49.78,45.94c-10.702,9.463 -19.947,19.728 -29.437,30.414c-15.964,17.724 -32.19,35.117 -48.958,52.083c-5.615,5.704 -5.615,5.704 -11.344,11.523c-9.229,8.268 -9.229,8.268 -17.562,8.268c-0.951,2.303 -1.901,4.606 -2.881,6.978c-7.029,12.49 -15.903,21.22 -26.025,31.368c-2.003,2.011 -4.006,4.022 -6.07,6.094c-4.221,4.226 -8.451,8.442 -12.692,12.648c-6.505,6.461 -12.965,12.965 -19.421,19.474c-4.11,4.104 -8.222,8.206 -12.337,12.305c-3.744,3.734 -7.487,7.469 -11.344,11.316c-9.229,8.15 -9.229,8.15 -17.562,8.15c-6.901,-6.706 -6.901,-6.706 -14.583,-15.625c-2.535,-2.9 -5.07,-5.801 -7.682,-8.789c-6.424,-8.303 -10.712,-16.171 -15.234,-25.586c75.55,-76.427 151.208,-152.746 226.995,-228.938c35.189,-35.382 70.342,-70.798 105.412,-106.298c30.576,-30.95 61.218,-61.834 91.94,-92.639c16.257,-16.306 32.48,-32.643 48.624,-49.06c15.216,-15.472 30.519,-30.852 45.892,-46.169c5.607,-5.618 11.183,-11.267 16.722,-16.951c33.396,-34.224 58.093,-54.604 106.082,-64.111c2.75,-1.375 5.5,-2.75 8.333,-4.167Z" style="fill:#f6f8f4;fill-rule:nonzero;"/><path d="M1098.161,440.234c15.932,7.503 15.932,7.503 22.542,14.974c4.042,16.491 -2.475,29.886 -8.219,45.443c-1.583,4.745 -1.583,4.745 -3.198,9.587c-7.161,19.995 -14.011,30.204 -31.958,42.497c-7.07,7.706 -13.641,15.689 -20.264,23.779c-7.657,8.217 -15.357,15.242 -23.878,22.516c-18.914,16.461 -36.641,33.931 -54.323,51.696c-3.426,3.425 -6.852,6.85 -10.381,10.379c-11.227,11.23 -22.439,22.474 -33.651,33.719c-7.842,7.85 -15.685,15.699 -23.529,23.547c-18.487,18.5 -36.964,37.011 -55.437,55.526c-20.964,21.01 -41.94,42.009 -62.916,63.007c-35.873,35.909 -71.737,71.826 -107.59,107.754c-15.169,15.2 -30.343,30.396 -45.531,45.577c-3.589,3.589 -85.75,85.75 -125,125c-13.254,-6.289 -22.078,-12.831 -32.292,-23.438c-2.557,-2.632 -5.113,-5.264 -7.747,-7.975c-1.912,-2.009 -3.824,-4.018 -5.794,-6.087c6.85,-17.535 19.793,-29.261 32.905,-42.24c2.542,-2.549 5.085,-5.099 7.704,-7.726c8.534,-8.548 17.098,-17.065 25.661,-25.584c6.12,-6.117 12.237,-12.236 18.353,-18.357c16.621,-16.624 33.268,-33.221 49.919,-49.815c17.393,-17.341 34.762,-34.705 52.134,-52.067c32.905,-32.879 65.831,-65.737 98.765,-98.588c37.491,-37.398 74.958,-74.819 112.423,-112.242c77.074,-76.987 154.178,-153.945 231.302,-230.883Z" style="fill:#fbfcf9;fill-rule:nonzero;"/><path d="M197.166,162.943c20.755,5.099 40.641,13.041 60.63,20.521c37.281,13.888 37.281,13.888 75.179,25.944c4.974,1.499 4.974,1.499 10.049,3.027c5.936,1.786 11.896,3.498 17.881,5.111c11.014,3.602 18.901,7.386 24.975,17.476c3.656,9.107 6.506,18.161 9.155,27.608c8.428,30.067 8.428,30.067 23.958,56.771c8.798,3.647 8.798,3.647 18.49,4.427c12.763,2.266 18.747,3.727 29.688,11.198c7.709,12.066 7.267,20.329 5.99,34.375l-16.667,0c-7.032,6.856 -13.975,13.804 -20.833,20.833c-9.635,3.385 -9.635,3.385 -16.667,4.167c8.138,-9.155 8.138,-9.155 16.276,-18.311c5.73,-7.062 5.73,-7.062 4.557,-19.189c-15.527,2.385 -22.688,8.627 -33.643,19.629c-3.123,3.126 -6.247,6.252 -9.465,9.473c-3.22,3.287 -6.44,6.574 -9.757,9.961c-4.902,4.882 -4.902,4.882 -9.904,9.863c-17.868,17.071 -17.868,17.071 -28.898,38.574l8.333,0c-1.375,9.625 -2.75,19.25 -4.167,29.167c-13.756,-1.115 -19.271,-2.335 -28.385,-13.021c-5.954,-14.414 -5.857,-25.694 -4.948,-41.146c-3.266,-1.031 -6.531,-2.062 -9.896,-3.125c-19.207,-6.623 -37.993,-14.127 -56.771,-21.875c-7.203,-1.579 -7.203,-1.579 -14.551,-3.19c-11.703,-5.074 -14.551,-9.187 -20.578,-20.696c-5.801,-15.23 -10.848,-30.603 -15.652,-46.166c-1.716,-5.218 -3.432,-10.436 -5.2,-15.812c-32.283,-99.203 -32.283,-99.203 -35.685,-130.802c10.147,-16.489 18.072,-17.949 36.505,-14.792Z" style="fill:#3c4932;fill-rule:nonzero;"/><path d="M1343.994,165.234c9.373,14.059 8.884,19.526 6.356,35.724c-4.454,20.567 -11.194,40.416 -17.814,60.37c-2.258,6.885 -2.258,6.885 -4.561,13.91c-2.999,9.138 -6.009,18.273 -9.029,27.405c-3.572,10.921 -7.013,21.866 -10.368,32.855c-0.898,2.881 -1.797,5.763 -2.722,8.731c-2.309,7.417 -4.58,14.845 -6.848,22.275c-5.687,12.739 -9.553,17.048 -21.68,23.73c-11.654,3.955 -11.654,3.955 -23.958,7.031c-4.104,1.047 -8.207,2.095 -12.435,3.174c-3.115,0.757 -6.23,1.515 -9.44,2.295c-1.375,-4.125 -2.75,-8.25 -4.167,-12.5c-12.28,-4.825 -12.28,-4.825 -25,-4.167c-4.039,2.234 -8.078,4.469 -12.24,6.771c-12.76,5.729 -12.76,5.729 -20.817,3.109c-10.55,-7 -17.636,-15.057 -25.798,-24.723c-10.707,-13.271 -10.707,-13.271 -24.479,-22.656c5.99,-15.975 13.326,-30.898 21.24,-45.98c4.591,-9.332 4.591,-9.332 7.926,-24.854c-16.5,8.25 -16.5,8.25 -33.333,16.667c1.894,-7.209 3.807,-14.413 5.729,-21.615c1.063,-4.012 2.127,-8.024 3.223,-12.158c1.756,-5.97 1.756,-5.97 3.548,-12.061c0.741,-3.593 1.482,-7.187 2.246,-10.889c18.287,-29.875 74.837,-37.448 107.129,-47.965c8.452,-2.768 16.902,-5.542 25.35,-8.323c7.618,-2.505 15.241,-4.995 22.864,-7.483c13.04,-4.259 13.04,-4.259 24.585,-9.306c12.961,-4.825 21.353,-3.163 34.493,0.633Z" style="fill:#404d36;fill-rule:nonzero;"/><path d="M339.827,998.568c14.323,6.366 25.79,14.591 37.5,25l0,8.333c4.125,1.375 8.25,2.75 12.5,4.167c2.32,2.922 4.641,5.844 7.031,8.854c7.915,9.84 14.91,16.842 24.43,24.886c20.241,17.501 39.199,36.155 58.122,55.062c3.427,3.376 6.854,6.751 10.384,10.229c3.233,3.225 6.467,6.451 9.798,9.774c2.93,2.913 5.86,5.826 8.879,8.827c6.356,7.368 6.356,7.368 6.356,15.701l12.5,0c2.062,12.375 2.062,12.375 4.167,25l-8.333,0c1.375,2.75 2.75,5.5 4.167,8.333l8.333,0c-6.282,17.589 -17.554,24.181 -33.333,33.333c-32.122,10.431 -66.818,7.652 -97.135,-6.25c-6.564,-3.371 -13.097,-6.806 -19.531,-10.417c-1.187,2.551 -2.374,5.103 -3.597,7.731c-6.528,12.316 -15.492,20.139 -25.57,29.769c-5.306,5.284 -10.601,10.58 -15.885,15.885c-4.427,4.427 -8.854,8.854 -13.281,13.281c-2.75,-1.375 -5.5,-2.75 -8.333,-4.167l0,-8.333c-5.5,-2.75 -11,-5.5 -16.667,-8.333c4.34,-7.324 8.681,-14.648 13.021,-21.973c4.274,-7.089 4.274,-7.089 3.646,-15.527c3.867,-1.117 7.734,-2.234 11.719,-3.385c16.026,-5.182 16.026,-5.182 25.781,-17.448c-1.264,-8.757 -3.433,-16.818 -6.071,-25.26c-2.262,-8.073 -2.262,-8.073 -2.262,-20.573l8.333,0c-2.868,-3.787 -2.868,-3.787 -5.794,-7.65c-27.835,-38.01 -43.698,-69.586 -40.039,-117.35c2.75,-1.375 5.5,-2.75 8.333,-4.167c21.832,17.925 41.862,37.441 61.67,57.536c2.529,2.562 5.059,5.124 7.665,7.764c10.59,10.743 21.168,21.498 31.708,32.29c7.768,7.944 15.575,15.848 23.388,23.748c2.383,2.46 4.766,4.921 7.221,7.456c5.883,5.921 12.093,11.514 18.349,17.04l12.5,0c-2.424,-14.697 -7.523,-21.555 -18.027,-31.946c-2.919,-2.918 -5.839,-5.837 -8.847,-8.844c-3.168,-3.104 -6.337,-6.208 -9.601,-9.406c-4.847,-4.82 -4.847,-4.82 -9.791,-9.737c-10.33,-10.26 -20.703,-20.477 -31.078,-30.692c-7.01,-6.947 -14.017,-13.897 -21.021,-20.85c-17.179,-17.042 -34.394,-34.047 -51.636,-51.025c2.75,-5.5 5.5,-11 8.333,-16.667Z" style="fill:#414f36;fill-rule:nonzero;"/><path d="M931.494,786.068c6.955,5.962 13.908,11.926 20.85,17.904c5.198,4.435 10.433,8.826 15.723,13.151c12.648,10.44 23.93,21.09 34.505,33.643c19.113,22.082 39.747,42.569 60.433,63.167c3.832,3.848 7.665,7.697 11.613,11.662c22.755,22.816 22.755,22.816 47.095,43.888c3.228,2.723 6.456,5.446 9.782,8.252l0,8.333c1.864,-1.805 3.728,-3.609 5.648,-5.469c2.519,-2.32 5.038,-4.641 7.633,-7.031c2.465,-2.32 4.931,-4.641 7.471,-7.031c11.033,-7.171 16.301,-7.858 29.248,-5.469c10.71,8.236 10.71,8.236 21.354,19.271c3.534,3.577 7.068,7.154 10.71,10.84c18.623,22.41 23.784,39.239 23.405,68.327c-0.016,5.382 -0.032,10.764 -0.049,16.309c-1.132,13.025 -2.674,20.236 -9.587,31.087c-12.5,-8.333 -12.5,-8.333 -16.667,-16.667c-2.062,6.188 -2.062,6.188 -4.167,12.5l-8.333,0c1.023,-4.343 1.023,-4.343 2.067,-8.773c2.27,-13.041 2.505,-25.135 2.36,-38.363c-0.038,-4.453 -0.075,-8.905 -0.114,-13.493c-0.048,-3.368 -0.097,-6.735 -0.146,-10.205c-27.965,23.478 -53.587,48.997 -79.167,75c-8.626,-15.397 -8.626,-15.397 -5.99,-26.823c9.285,-16.551 22.296,-27.576 36.523,-39.941c3.416,-2.976 6.832,-5.951 10.352,-9.017c3.292,-2.809 6.585,-5.618 9.977,-8.512c2.465,-2.433 4.931,-4.866 7.471,-7.373l0,-8.333c-7.401,-3.479 -7.401,-3.479 -16.667,-4.167c-9.007,5.934 -9.007,5.934 -17.508,15.077c-3.406,3.394 -6.811,6.787 -10.32,10.284c-3.638,3.732 -7.275,7.464 -11.023,11.309c-3.758,3.778 -7.517,7.556 -11.389,11.448c-7.957,8.002 -15.88,16.036 -23.776,24.098c-10.129,10.341 -20.312,20.629 -30.517,30.896c-16.853,16.96 -33.671,33.956 -50.41,51.028c-2.975,3.029 -5.951,6.058 -9.016,9.178c-7.163,7.143 -7.163,7.143 -11.041,15.849l-12.5,0c2.349,13.623 6.248,20.107 16.667,29.167c-1.375,2.75 -2.75,5.5 -4.167,8.333c-32.197,-28.317 -32.197,-28.317 -36.458,-47.135c3.125,-11.198 3.125,-11.198 11.458,-19.01c2.75,-1.547 5.5,-3.094 8.333,-4.688c-1.751,-12.257 -3.778,-16.3 -13.021,-25c-2.578,-2.75 -5.156,-5.5 -7.812,-8.333c1.042,-9.375 1.042,-9.375 4.167,-16.667c-2.75,-1.375 -5.5,-2.75 -8.333,-4.167c13.281,-3.385 13.281,-3.385 29.167,-4.167c12.24,9.635 12.24,9.635 20.833,20.833l0,8.333c18.421,-15.514 35.743,-30.397 50,-50c-5.5,-2.75 -11,-5.5 -16.667,-8.333c0,-15.695 0.981,-20.466 8.333,-33.333c14.496,5.798 18.669,10.969 25,25c5.385,-4.684 10.766,-9.372 16.146,-14.062c2.997,-2.61 5.994,-5.221 9.082,-7.91c5.637,-5.003 11.109,-10.197 16.439,-15.527c-0.9,-16.757 -11.139,-25.1 -22.617,-36.403c-1.911,-1.899 -3.821,-3.798 -5.79,-5.755c-6.307,-6.256 -12.657,-12.468 -19.006,-18.682c-4.388,-4.344 -8.773,-8.69 -13.154,-13.041c-11.53,-11.435 -23.093,-22.836 -34.668,-34.226c-18.548,-18.255 -37.064,-36.542 -55.543,-54.866c-6.473,-6.403 -12.971,-12.779 -19.472,-19.153c-3.907,-3.866 -7.815,-7.733 -11.84,-11.716c-3.466,-3.41 -6.933,-6.82 -10.504,-10.334c-7.407,-8.325 -7.407,-8.325 -7.407,-16.658c8.073,-2.344 8.073,-2.344 16.667,-4.167c1.375,1.375 2.75,2.75 4.167,4.167c1.375,-2.75 2.75,-5.5 4.167,-8.333Z" style="fill:#3a4730;fill-rule:nonzero;"/><path d="M1164.827,998.568c10.312,4.125 10.312,4.125 20.833,8.333c-6.123,14.735 -14.143,22.635 -26.302,32.812c-22.182,19.297 -22.182,19.297 -40.365,42.188c1.35,10.988 1.35,10.988 4.167,20.833c2.102,-2.146 4.204,-4.292 6.37,-6.502c9.487,-9.66 19.006,-19.287 28.526,-28.914c3.309,-3.378 6.617,-6.757 10.026,-10.238c3.169,-3.196 6.338,-6.392 9.603,-9.684c2.924,-2.968 5.848,-5.935 8.86,-8.993c7.448,-6.502 7.448,-6.502 15.782,-6.502c9.244,18.488 6.92,41.297 0.83,60.547c-13.18,28.625 -32.892,50.643 -54.997,72.786c-2.406,2.455 -4.812,4.909 -7.292,7.438c-17.226,16.191 -35.858,24.385 -57.894,32.682c-12.241,7.125 -14.305,13.197 -18.148,26.546c4.125,2.75 8.25,5.5 12.5,8.333c-58.12,2.866 -58.12,2.866 -74.219,-7.031c-10.189,-10.771 -11.033,-16.231 -13.281,-30.469c-8.198,-5.668 -8.198,-5.668 -16.667,-8.333c1.375,-5.5 2.75,-11 4.167,-16.667c4.125,1.375 8.25,2.75 12.5,4.167c1.04,-2.395 2.08,-4.791 3.151,-7.259c5.926,-10.759 12.716,-17.942 21.428,-26.599c3.336,-3.336 6.672,-6.671 10.11,-10.108c3.603,-3.56 7.205,-7.119 10.917,-10.787c3.688,-3.676 7.375,-7.352 11.174,-11.139c9.781,-9.742 19.579,-19.465 29.386,-29.18c10.014,-9.928 20.004,-19.881 29.996,-29.831c19.591,-19.499 39.205,-38.974 58.838,-58.431Z" style="fill:#3e4c34;fill-rule:nonzero;"/><path d="M410.661,440.234c13.908,4.636 16.549,7.937 25.521,19.01c10.88,12.877 22.126,24.152 34.896,35.156c15.139,13.087 28.029,26.955 40.918,42.22c6.777,7.534 13.764,13.852 21.582,20.28c10.351,8.527 19.007,17.313 27.604,27.604c17.475,20.613 37.466,38.32 57.454,56.429c34.886,31.777 34.886,31.777 42.025,49.3l8.333,0c-6.496,15.945 -16.799,25.75 -29.167,37.5c-2.75,2.75 -5.5,5.5 -8.333,8.333c-16.653,-0.949 -25.466,-11.131 -37.036,-22.257c-1.967,-1.878 -3.934,-3.756 -5.961,-5.691c-6.495,-6.228 -12.939,-12.505 -19.373,-18.796c-2.216,-2.16 -4.433,-4.32 -6.716,-6.546c-11.756,-11.471 -23.469,-22.984 -35.152,-34.528c-11.964,-11.804 -24.076,-23.444 -36.23,-35.052c-9.408,-9.046 -18.691,-18.214 -27.946,-27.416c-4.406,-4.338 -8.857,-8.631 -13.356,-12.873c-26.399,-24.978 -42.457,-47.019 -51.295,-82.762c-0.761,-3.039 -1.522,-6.077 -2.306,-9.208c-1.718,-8.722 -1.718,-8.722 -2.129,-24.036c8.056,-10.411 8.056,-10.411 16.667,-16.667Z" style="fill:#f9faf7;fill-rule:nonzero;"/><path d="M452.327,398.568c11.26,0 18.481,1.43 29.167,4.167c3.26,0.263 6.521,0.526 9.88,0.798c30.17,4.259 44.958,19.347 64.258,41.13c5.532,6.069 11.073,12.129 16.624,18.181c2.875,3.142 5.75,6.285 8.711,9.523c14.565,15.675 29.632,30.837 44.749,45.978c2.98,2.986 5.96,5.971 9.031,9.048c6.024,6.023 12.052,12.043 18.084,18.057c9.329,9.306 18.635,18.635 27.939,27.965c5.953,5.95 11.907,11.899 17.863,17.847c2.769,2.777 5.537,5.554 8.39,8.415c2.55,2.537 5.101,5.075 7.729,7.689c2.236,2.232 4.471,4.465 6.775,6.765c5.782,5.733 5.782,5.733 14.135,9.439c-5.794,12.935 -12.565,22.357 -22.396,32.552c-2.438,2.605 -4.877,5.21 -7.389,7.894c-7.715,5.387 -7.715,5.387 -15.002,5.081c-14.08,-5.794 -23.355,-16.206 -33.839,-26.9c-3.6,-3.598 -3.6,-3.598 -7.273,-7.268c-7.921,-7.929 -15.796,-15.902 -23.672,-23.875c-5.485,-5.508 -10.973,-11.014 -16.463,-16.517c-14.44,-14.488 -28.842,-29.012 -43.236,-43.545c-14.697,-14.824 -29.429,-29.614 -44.158,-44.406c-28.892,-29.026 -57.745,-58.092 -86.572,-87.183c7.536,-10.417 7.536,-10.417 16.667,-20.833Z" style="fill:#fafbf8;fill-rule:nonzero;"/><path d="M818.994,852.734c15.558,6.487 25.367,16.051 37.168,27.955c1.98,1.986 3.961,3.972 6.001,6.018c6.517,6.544 13.005,13.117 19.493,19.689c4.532,4.558 9.065,9.113 13.601,13.667c11.92,11.975 23.816,23.973 35.705,35.978c19.055,19.235 38.138,38.442 57.235,57.635c6.671,6.714 13.328,13.442 19.984,20.171c4.073,4.102 8.147,8.203 12.222,12.304c3.558,3.593 7.116,7.185 10.782,10.887c7.992,8.377 7.992,8.377 16.974,12.363c-6.124,14.161 -14.085,23.54 -25,34.375c-4.383,4.415 -4.383,4.415 -8.854,8.919c-7.812,6.706 -7.812,6.706 -16.146,6.706c-5.652,-5.735 -5.652,-5.735 -12.363,-13.9c-19.065,-22.402 -39.823,-42.975 -60.668,-63.704c-4.163,-4.155 -8.325,-8.311 -12.486,-12.468c-10.848,-10.832 -21.708,-21.651 -32.57,-32.467c-11.125,-11.082 -22.239,-22.177 -33.353,-33.271c-21.73,-21.686 -43.474,-43.359 -65.226,-65.023c6.289,-13.254 12.831,-22.078 23.438,-32.292c2.632,-2.557 5.264,-5.113 7.975,-7.747c2.009,-1.912 4.018,-3.824 6.087,-5.794Z" style="fill:#fafbf8;fill-rule:nonzero;"/><path d="M885.661,786.068c15.661,6.538 25.744,16.278 37.749,28.139c2.041,2.006 4.082,4.013 6.185,6.08c6.716,6.616 13.4,13.263 20.079,19.915c4.657,4.619 9.314,9.238 13.971,13.857c9.741,9.673 19.464,19.364 29.178,29.065c12.468,12.446 25.002,24.822 37.553,37.184c9.632,9.509 19.218,19.064 28.791,28.632c4.603,4.586 9.224,9.154 13.861,13.705c6.465,6.354 12.862,12.77 19.246,19.206c3.66,3.639 7.32,7.278 11.091,11.027c7.296,9.857 7.296,9.857 6.825,18.938c-5.072,10.411 -11.832,17.219 -20.102,25.294c-2.959,2.943 -5.919,5.887 -8.968,8.919c-7.959,6.706 -7.959,6.706 -16.292,6.706c-5.652,-5.735 -5.652,-5.735 -12.363,-13.9c-19.065,-22.402 -39.823,-42.975 -60.668,-63.704c-4.163,-4.155 -8.325,-8.311 -12.486,-12.468c-10.848,-10.832 -21.708,-21.651 -32.57,-32.467c-11.125,-11.082 -22.239,-22.177 -33.353,-33.271c-21.73,-21.686 -43.474,-43.359 -65.226,-65.023c6.289,-13.254 12.831,-22.078 23.438,-32.292c2.632,-2.557 5.264,-5.113 7.975,-7.747c2.009,-1.912 4.018,-3.824 6.087,-5.794Z" style="fill:#f9faf7;fill-rule:nonzero;"/><path d="M123.161,1286.068c-4.167,12.5 -4.167,12.5 -11.865,17.367c-3.045,1.402 -6.091,2.804 -9.229,4.248c-3.056,1.434 -6.112,2.868 -9.261,4.346c-2.358,1.058 -4.716,2.116 -7.145,3.206c6.761,16.985 18.905,28.442 31.641,41.081c2.281,2.289 4.561,4.577 6.911,6.935c4.809,4.815 9.628,9.619 14.458,14.413c7.411,7.366 14.776,14.775 22.137,22.19c4.679,4.674 9.361,9.345 14.046,14.014c2.209,2.226 4.419,4.452 6.695,6.746c10.51,11.819 10.51,11.819 24.946,15.454c15.073,-23.593 15.377,-47.51 16.667,-75l8.333,0l0,12.5l12.5,0c1.375,-5.5 2.75,-11 4.167,-16.667c8.331,29.363 8.164,57.469 -5.208,85.156c-15.14,26.75 -15.14,26.75 -28.125,35.677c-10.938,1.562 -10.938,1.562 -20.833,0c-2.75,-2.75 -5.5,-5.5 -8.333,-8.333c-9.751,1.17 -19.471,2.603 -29.167,4.167c-26.562,2.108 -44.725,-0.944 -66.667,-16.667c-22.153,-20.847 -37.023,-39.222 -38.021,-70.492c0.132,-5.931 0.306,-11.861 0.521,-17.79c0.39,-10.957 0.39,-21.569 0,-32.552c-2.75,-2.75 -5.5,-5.5 -8.333,-8.333c-0.521,-11.458 -0.521,-11.458 4.167,-25c23.987,-24.155 45.148,-36.568 75,-16.667Z" style="fill:#38462e;fill-rule:nonzero;"/><path d="M1077.327,352.734c21.842,9.587 36.678,26.646 53.385,43.229c3.338,3.201 6.676,6.402 10.116,9.701c3.134,3.104 6.268,6.209 9.497,9.408c4.325,4.241 4.325,4.241 8.737,8.567c5.765,8.262 5.765,8.262 4.848,16.866c-1.073,2.661 -2.145,5.321 -3.25,8.063c-2.062,6.188 -2.062,6.188 -4.167,12.5l8.333,0c2.062,8.25 2.062,8.25 4.167,16.667l-25,0c-0.156,2.32 -0.312,4.641 -0.472,7.031c-0.274,3.18 -0.548,6.359 -0.83,9.635c-0.242,3.094 -0.483,6.188 -0.732,9.375c-7.85,42.188 -31.737,64.656 -61.426,93.62c-4.658,4.619 -9.311,9.242 -13.959,13.87c-12.181,12.102 -24.424,24.141 -36.681,36.166c-12.523,12.309 -24.986,24.677 -37.454,37.041c-24.424,24.202 -48.914,48.336 -73.446,72.428c5.084,11.211 5.084,11.211 12.5,20.833c0.169,6.942 0.178,13.891 0,20.833c-3.738,-1.16 -3.738,-1.16 -7.552,-2.344c-9.798,-2.743 -9.798,-2.743 -21.615,2.344c-5.61,-2.666 -11.161,-5.458 -16.667,-8.333c-9.815,-1.867 -9.815,-1.867 -19.792,-2.604c-3.33,-0.312 -6.66,-0.623 -10.091,-0.944c-3.771,-0.306 -3.771,-0.306 -7.617,-0.618c6.225,-14.506 14.514,-23.881 25.646,-34.991c3.576,-3.589 7.151,-7.177 10.835,-10.874c5.814,-5.769 5.814,-5.769 11.744,-11.654c4.03,-4.025 8.059,-8.052 12.086,-12.08c8.446,-8.44 16.906,-16.865 25.377,-25.28c10.789,-10.719 21.551,-21.464 32.304,-32.22c8.324,-8.323 16.66,-16.636 24.999,-24.945c5.882,-5.862 11.758,-11.731 17.633,-17.599c19.465,-19.323 39.276,-37.648 60.209,-55.357c5.709,-6.819 11.3,-13.742 16.667,-20.833c1.971,-1.622 3.942,-3.244 5.973,-4.915c9.762,-11.344 13.62,-24.589 18.245,-38.574c1.511,-4.177 1.511,-4.177 3.052,-8.439c5.509,-16.317 5.509,-16.317 2.889,-32.918c-5.392,-7.127 -11.048,-13.309 -17.66,-19.32l8.333,0c1.375,-2.75 2.75,-5.5 4.167,-8.333c4.125,-6.188 4.125,-6.188 8.333,-12.5c-5.035,-4.673 -5.035,-4.673 -10.173,-9.44c-4.338,-4.142 -8.672,-8.287 -13.005,-12.435c-2.221,-2.046 -4.442,-4.093 -6.73,-6.201c-6.307,-6.104 -6.307,-6.104 -15.926,-17.757c0.667,-9.831 0.667,-9.831 4.167,-16.667Z" style="fill:#3c4933;fill-rule:nonzero;"/><path d="M1289.827,211.068c-9.826,10.312 -19.747,20.528 -29.688,30.729c-2.771,2.911 -5.543,5.822 -8.398,8.822c-15.601,15.907 -27.043,26.183 -49.414,31.283c-5.788,4.88 -5.788,4.88 -5.208,18.49c0.516,7.348 0.516,7.348 1.042,14.844c11.868,9.862 11.868,9.862 25.781,6.771c5.801,-1.289 5.801,-1.289 11.719,-2.604c0.555,-2.341 1.11,-4.683 1.682,-7.095c7.641,-27.442 20.063,-42.831 40.766,-61.915c4.089,-3.92 4.089,-3.92 8.26,-7.918c6.655,-6.363 13.36,-12.66 20.125,-18.905c7.193,21.579 -3.721,42.917 -10.574,63.924c-1.791,5.607 -3.501,11.241 -5.123,16.899c-13.456,46.869 -13.456,46.869 -33.67,60.532c-12.592,5.183 -25.079,8.988 -38.133,12.812c-11.14,5.596 -21.864,11.638 -32.682,17.822c-8.984,3.011 -8.984,3.011 -17.415,0.57c-10.116,-7.237 -17.402,-15.402 -25.423,-24.902c-10.707,-13.271 -10.707,-13.271 -24.479,-22.656c7.318,-18.717 15.623,-36.856 24.154,-55.046c4.348,-10.08 7.19,-19.54 9.961,-30.111c9.462,-18.597 16.235,-20.995 35.449,-27.295c6.816,-2.087 6.816,-2.087 13.77,-4.215c6.334,-2.207 12.659,-4.439 18.978,-6.689c6.78,-2.377 13.561,-4.748 20.345,-7.113c3.306,-1.164 6.612,-2.327 10.019,-3.526c3.134,-1.055 6.267,-2.109 9.496,-3.196c2.811,-0.963 5.623,-1.926 8.519,-2.918c7.643,-1.557 7.643,-1.557 20.143,2.609Z" style="fill:#f7f9f5;fill-rule:nonzero;"/><path d="M223.161,206.901c119.522,25.515 119.522,25.515 139.96,49.416c7.702,13.946 11.74,27.96 15.053,43.471c2.416,15.377 2.416,15.377 10.286,26.855c5.534,9.424 5.534,9.424 5.68,17.562c-6.644,13.137 -16.954,22.464 -27.49,32.487c-3.251,3.166 -3.251,3.166 -6.567,6.396c-5.335,5.188 -10.708,10.337 -16.089,15.479c-19.521,-7.737 -38.85,-15.905 -58.187,-24.089c-12.462,-5.534 -12.462,-5.534 -25.765,-7.243c-14.138,-7.34 -14.92,-10.587 -20.264,-25.098c-2.429,-7.809 -4.753,-15.651 -6.982,-23.519c-2.349,-7.789 -4.709,-15.574 -7.08,-23.356c-1.655,-5.586 -1.655,-5.586 -3.343,-11.285c-3.03,-9.333 -6.581,-17.903 -10.752,-26.768c-5.423,-13.55 -5.154,-16.334 -0.96,-29.476c10.33,9.721 20.538,19.561 30.729,29.427c2.911,2.737 5.822,5.473 8.822,8.293c17.681,17.256 27.01,29.429 31.283,53.947c16.882,4.72 16.882,4.72 32.813,-0.26c6.674,-11.494 6.075,-20.03 4.688,-33.073c-8.001,-9.506 -8.001,-9.506 -21.501,-11.182c-20.676,-5.484 -32.694,-19.74 -46.989,-34.912c-3.976,-4.065 -3.976,-4.065 -8.032,-8.211c-19.312,-19.934 -19.312,-19.934 -19.312,-24.862Z" style="fill:#f8f9f5;fill-rule:nonzero;"/><path d="M436.779,353.854c2.381,1.005 4.762,2.011 7.215,3.047c-2.497,13.983 -7.693,22.408 -16.667,33.333c13.603,-7.517 20.372,-11.808 29.167,-25c8.08,1.879 16.151,3.796 24.219,5.729c6.743,1.595 6.743,1.595 13.623,3.223c12.158,3.548 12.158,3.548 24.658,11.882c-2.75,2.75 -5.5,5.5 -8.333,8.333c-2.677,8.62 -2.677,8.62 -4.167,16.667c-2.465,-0.65 -4.931,-1.3 -7.471,-1.969c-25.472,-6.765 -25.472,-6.765 -50.863,-2.197c-4.125,6.188 -4.125,6.188 -8.333,12.5c3.251,3.088 3.251,3.088 6.568,6.238c9.757,9.325 19.433,18.729 29.109,28.137c3.413,3.239 6.827,6.478 10.343,9.814c3.209,3.142 6.418,6.284 9.725,9.521c4.484,4.32 4.484,4.32 9.059,8.728c6.029,8.394 6.029,8.394 4.889,17.798c-0.999,2.397 -1.997,4.794 -3.026,7.263c-8.691,3.564 -8.691,3.564 -20.833,4.167c-10.519,-6.499 -18.876,-14.999 -27.604,-23.698c-2.385,-2.264 -4.77,-4.528 -7.227,-6.86c-11.774,-11.323 -22.558,-22.586 -31.836,-36.108c-8.333,3.297 -8.333,3.297 -16.667,8.333c-5.33,15.989 -1.63,27.247 2.604,42.969c0.745,2.827 1.49,5.654 2.257,8.566c5.991,21.116 13.705,32.855 28.472,48.465c-0.781,9.896 -0.781,9.896 -4.167,16.667c-12.382,2.064 -21.197,2.654 -31.787,-4.736c-22.327,-23.11 -30.713,-55.237 -30.713,-86.93l-25,0c2.75,-1.375 5.5,-2.75 8.333,-4.167c-1.375,-4.125 -2.75,-8.25 -4.167,-12.5l8.333,0l0,-16.667l-8.333,0c3.609,-24.298 24.266,-38.9 40.885,-55.469c5.128,-5.305 5.128,-5.305 10.36,-10.718c4.967,-4.983 4.967,-4.983 10.034,-10.067c3.028,-3.058 6.057,-6.116 9.177,-9.266c8.711,-6.147 8.711,-6.147 18.162,-5.027Z" style="fill:#3d4b33;fill-rule:nonzero;"/><path d="M314.827,1031.901c14.265,8.034 25.77,16.387 37.35,27.939c3.085,3.059 6.17,6.117 9.348,9.269c3.265,3.282 6.529,6.563 9.893,9.944c3.392,3.384 6.785,6.769 10.28,10.256c7.144,7.138 14.277,14.287 21.4,21.445c10.95,10.995 21.944,21.945 32.944,32.891c6.934,6.939 13.865,13.881 20.793,20.825c3.307,3.29 6.614,6.58 10.021,9.97c3.019,3.046 6.039,6.091 9.149,9.229c2.676,2.683 5.352,5.365 8.109,8.129c5.713,6.771 5.713,6.771 5.713,15.104c-15.911,7.956 -32.698,6.532 -50,4.167c-54.311,-18.674 -94.953,-57.895 -120.947,-108.301c-9.444,-21.673 -10.593,-43.284 -8.219,-66.699c1.375,-1.375 2.75,-2.75 4.167,-4.167Z" style="fill:#f5f7f3;fill-rule:nonzero;"/><path d="M1202.327,1031.901c9.244,18.488 6.92,41.297 0.83,60.547c-13.18,28.625 -32.892,50.643 -54.997,72.786c-2.406,2.455 -4.812,4.909 -7.292,7.438c-24.112,22.663 -55.271,39.526 -88.802,39.958c-16.406,-1.562 -16.406,-1.562 -24.74,-5.729c5.958,-13.573 13.24,-22.626 23.682,-33.093c3.142,-3.169 6.285,-6.337 9.523,-9.602c3.394,-3.377 6.788,-6.755 10.285,-10.234c3.483,-3.491 6.966,-6.982 10.554,-10.578c7.359,-7.365 14.729,-14.719 22.108,-22.063c11.334,-11.289 22.622,-22.622 33.907,-33.96c7.148,-7.142 14.298,-14.282 21.452,-21.419c5.091,-5.117 5.091,-5.117 10.285,-10.337c3.142,-3.116 6.285,-6.232 9.523,-9.443c2.769,-2.763 5.538,-5.525 8.391,-8.371c6.957,-5.899 6.957,-5.899 15.29,-5.899Z" style="fill:#f8f9f5;fill-rule:nonzero;"/><path d="M169.775,1304.818c22.186,12.646 37.956,32.026 51.042,53.646c5.239,24.45 6.739,47.584 -5.99,69.792c-2.75,3.953 -5.5,7.906 -8.333,11.979c-17.484,-6.824 -29.112,-19.722 -41.992,-32.845c-2.381,-2.393 -4.762,-4.786 -7.215,-7.251c-7.576,-7.622 -15.122,-15.273 -22.668,-22.925c-5.141,-5.183 -10.285,-10.364 -15.43,-15.544c-12.587,-12.679 -25.148,-25.384 -37.695,-38.102c4.167,-12.5 4.167,-12.5 14.323,-19.531c24.9,-9.174 49.334,-9.977 73.958,0.781Z" style="fill:#f5f7f3;fill-rule:nonzero;"/><path d="M1406.494,1298.568c10.264,4.496 16.427,9.252 25,16.667c-6.824,17.484 -19.722,29.112 -32.845,41.992c-2.393,2.381 -4.786,4.762 -7.251,7.215c-7.622,7.576 -15.273,15.122 -22.925,22.668c-5.183,5.141 -10.364,10.285 -15.544,15.43c-12.679,12.587 -25.384,25.148 -38.102,37.695c-17.137,-16.584 -21.609,-24.525 -22.396,-48.438c0.321,-29.864 8.877,-46.377 29.688,-67.188c26.683,-23.923 48.322,-30.516 84.375,-26.042Z" style="fill:#fafbf8;fill-rule:nonzero;"/><path d="M381.494,227.734c1.66,4.872 3.319,9.743 5.029,14.762c2.229,6.451 4.458,12.902 6.689,19.352c1.631,4.806 1.631,4.806 3.296,9.709c8.599,25.264 8.599,25.264 22.485,47.843c8.798,3.647 8.798,3.647 18.49,4.427c12.763,2.266 18.747,3.727 29.688,11.198c7.709,12.066 7.267,20.329 5.99,34.375l-16.667,0c-7.032,6.856 -13.975,13.804 -20.833,20.833c-9.635,3.385 -9.635,3.385 -16.667,4.167c5.425,-6.104 10.851,-12.207 16.276,-18.311c5.73,-7.062 5.73,-7.062 4.557,-19.189c-15.527,2.385 -22.688,8.627 -33.643,19.629c-3.123,3.126 -6.247,6.252 -9.465,9.473c-3.22,3.287 -6.44,6.574 -9.757,9.961c-4.902,4.882 -4.902,4.882 -9.904,9.863c-17.868,17.071 -17.868,17.071 -28.898,38.574l8.333,0c-1.375,9.625 -2.75,19.25 -4.167,29.167c-9.896,-1.302 -9.896,-1.302 -20.833,-4.167c-10.343,-15.514 -9.641,-27.891 -8.333,-45.833c1.353,-5.564 2.73,-11.123 4.167,-16.667c-2.062,-6.188 -2.062,-6.188 -4.167,-12.5c2.933,0.446 5.865,0.892 8.887,1.351c16.877,-1.908 25.101,-11.296 36.426,-22.965c2.127,-2.011 4.254,-4.023 6.445,-6.095c6.937,-6.688 6.937,-6.688 14.909,-18.123c-0.168,-15.715 -7.022,-27.692 -14.323,-41.406c-19.56,-38.213 -19.56,-38.213 -18.229,-57.292c4.576,-13.024 9.58,-22.135 24.219,-22.135Z" style="fill:#37442f;fill-rule:nonzero;"/><path d="M35.14,0.911c4.372,-0.167 8.744,-0.333 13.249,-0.505c16.489,3.127 19.218,9.772 28.939,23.161c10.594,15.787 20.499,31.99 30.469,48.177c2.742,4.337 5.484,8.674 8.309,13.143c2.57,4.176 5.14,8.352 7.788,12.655c2.36,3.795 4.719,7.59 7.15,11.5c4.617,10.359 4.617,10.359 3.269,20.058c-0.93,2.299 -1.86,4.598 -2.819,6.967c-16.221,-2.403 -27.411,-7.165 -41.276,-15.837c-3.787,-2.355 -7.573,-4.71 -11.475,-7.137c-5.857,-3.71 -5.857,-3.71 -11.833,-7.495c-5.857,-3.638 -5.857,-3.638 -11.833,-7.349c-10.725,-6.716 -21.338,-13.573 -31.917,-20.516c-4.302,-2.798 -8.604,-5.597 -13.037,-8.48c-7.796,-8.187 -7.796,-8.187 -10.124,-20.459c0.167,-4.372 0.333,-8.744 0.505,-13.249c0.091,-4.394 0.183,-8.787 0.277,-13.314c3.017,-21.788 15.059,-20.921 34.359,-21.322Z" style="fill:#3f4e36;fill-rule:nonzero;"/><path d="M1464.6,0c6.558,0.322 6.558,0.322 13.249,0.651c4.394,0.129 8.787,0.258 13.314,0.391c11.165,1.693 11.165,1.693 19.499,10.026c3.902,18.724 4.265,35.492 0,54.167c-9.609,10.27 -19.064,15.392 -31.559,21.81c-19.62,10.112 -37.107,22.88 -55.038,35.696c-14.668,10.055 -24.584,15.823 -42.569,13.327c1.322,-28.074 13.05,-45.962 28.385,-69.01c2.226,-3.435 4.453,-6.87 6.746,-10.409c4.333,-6.667 8.711,-13.304 13.139,-19.908c3.625,-5.537 7.105,-11.175 10.327,-16.956c7.086,-12.44 10.234,-16.605 24.508,-19.786Z" style="fill:#3a4730;fill-rule:nonzero;"/><path d="M1189.827,1140.234c6.188,6.188 6.188,6.188 12.5,12.5c-2.75,1.375 -5.5,2.75 -8.333,4.167c-1.031,2.32 -2.062,4.641 -3.125,7.031c-7.661,14.173 -18.583,23.516 -30.208,34.635c4.089,10.223 7.177,15.819 16.146,22.396c9.029,3.635 9.029,3.635 18.229,-1.042c2.406,-1.547 4.812,-3.094 7.292,-4.688c2.75,4.125 5.5,8.25 8.333,12.5l8.333,0c-1.375,2.492 -2.75,4.984 -4.167,7.552c-5.033,9.339 -5.033,9.339 -4.167,21.615c6.789,5.745 13.74,11.303 20.833,16.667c1.375,2.75 2.75,5.5 4.167,8.333c-7.867,11.239 -13.326,17.217 -25,25c-27.5,-27.5 -55,-55 -83.333,-83.333c-12.375,4.125 -24.75,8.25 -37.5,12.5c-14.844,0.781 -14.844,0.781 -25,0c-1.375,-2.75 -2.75,-5.5 -4.167,-8.333c8.6,-20.164 20.044,-25.925 39.583,-34.635c24.85,-11.516 46.175,-25.163 67.887,-42.025c9.196,-6.673 9.196,-6.673 21.696,-10.84Z" style="fill:#3d4b33;fill-rule:nonzero;"/><path d="M1418.994,1277.734c17.385,2.162 26.059,7.131 38.802,19.01c2.906,2.669 5.812,5.339 8.805,8.089c2.165,2.057 4.329,4.114 6.559,6.234c-4.167,20.833 -4.167,20.833 -6.494,30.908c-2.142,12.528 -2.239,24.358 -2.1,37.061c0.038,4.453 0.075,8.905 0.114,13.493c0.048,3.368 0.097,6.735 0.146,10.205c-4.125,-1.375 -8.25,-2.75 -12.5,-4.167l0,-37.5c-16.296,10.864 -15.811,18.98 -20.833,37.5c-8.881,18.649 -20.248,30.274 -37.5,41.667c-11.713,1.688 -21.416,1.027 -33.333,0l0,-8.333c6.413,-6.315 6.413,-6.315 15.104,-13.542c15.203,-12.903 29.308,-26.356 43.229,-40.625c-1.375,-2.75 -2.75,-5.5 -4.167,-8.333c-4.77,1.031 -4.77,1.031 -9.635,2.083c-11.198,2.083 -11.198,2.083 -23.698,2.083c14.621,-17.434 29.503,-34.15 45.833,-50c-3.131,-13.657 -3.131,-13.657 -16.667,-20.833l8.333,0l0,-25Z" style="fill:#425039;fill-rule:nonzero;"/><path d="M339.827,998.568c14.323,6.366 25.79,14.591 37.5,25l0,8.333c4.125,1.375 8.25,2.75 12.5,4.167c3.48,4.383 3.48,4.383 7.031,8.854c7.922,9.848 14.934,16.864 24.463,24.919c20.044,17.332 38.829,35.785 57.568,54.508c3.357,3.306 6.714,6.612 10.173,10.018c3.207,3.198 6.413,6.397 9.717,9.692c2.886,2.869 5.773,5.738 8.746,8.694c7.04,8.016 11.398,15.244 15.635,24.981c-2.75,2.75 -5.5,5.5 -8.333,8.333c-15.603,-1.157 -23.177,-9.157 -33.858,-19.939c-5.003,-5.005 -5.003,-5.005 -10.108,-10.111c-3.56,-3.624 -7.119,-7.248 -10.787,-10.982c-3.676,-3.693 -7.352,-7.387 -11.139,-11.192c-9.75,-9.808 -19.471,-19.641 -29.18,-29.489c-9.921,-10.049 -19.877,-20.062 -29.831,-30.079c-19.51,-19.648 -38.984,-39.331 -58.431,-59.041c2.75,-5.5 5.5,-11 8.333,-16.667Z" style="fill:#e8ebe4;fill-rule:nonzero;"/><path d="M1077.327,352.734c21.842,9.587 36.678,26.646 53.385,43.229c3.338,3.201 6.676,6.402 10.116,9.701c3.134,3.104 6.268,6.209 9.497,9.408c2.883,2.827 5.767,5.654 8.737,8.567c5.765,8.262 5.765,8.262 4.848,16.866c-1.073,2.661 -2.145,5.321 -3.25,8.063c-1.375,4.125 -2.75,8.25 -4.167,12.5l8.333,0c1.375,5.5 2.75,11 4.167,16.667l-25,0c-0.204,2.369 -0.408,4.737 -0.618,7.178c-2.012,20.784 -5.533,39.597 -11.882,59.489c-1.375,-2.75 -2.75,-5.5 -4.167,-8.333c-2.75,-1.375 -5.5,-2.75 -8.333,-4.167c0.086,-3.352 0.172,-6.703 0.26,-10.156c0.974,-10.4 0.974,-10.4 -4.427,-14.844c-2.75,2.75 -5.5,5.5 -8.333,8.333c2.484,-20.287 6.541,-38.866 12.5,-58.333c-6.875,-6.875 -13.75,-13.75 -20.833,-20.833l8.333,0c1.375,-2.75 2.75,-5.5 4.167,-8.333c2.75,-4.125 5.5,-8.25 8.333,-12.5c-5.035,-4.673 -5.035,-4.673 -10.173,-9.44c-4.338,-4.142 -8.672,-8.287 -13.005,-12.435c-3.331,-3.07 -3.331,-3.07 -6.73,-6.201c-6.307,-6.104 -6.307,-6.104 -15.926,-17.757c0.667,-9.831 0.667,-9.831 4.167,-16.667Z" style="fill:#3f4d35;fill-rule:nonzero;"/><path d="M123.161,1286.068c-4.167,12.5 -4.167,12.5 -11.865,17.367c-3.045,1.402 -6.091,2.804 -9.229,4.248c-3.056,1.434 -6.112,2.868 -9.261,4.346c-2.358,1.058 -4.716,2.116 -7.145,3.206c7.594,19.514 23.487,31.87 38.647,45.557c6.193,5.876 6.193,5.876 15.519,16.943c-0.7,9.766 -0.7,9.766 -4.167,16.667c-18.006,0 -23.235,-2.364 -37.5,-12.5c-2.75,-4.125 -5.5,-8.25 -8.333,-12.5c-14.562,2.697 -24.988,8.927 -37.5,16.667c0.145,-5.269 0.145,-5.269 0.293,-10.645c0.075,-4.565 0.15,-9.131 0.228,-13.835c0.097,-4.544 0.193,-9.088 0.293,-13.77c0.439,-12.323 0.439,-12.323 -9.147,-20.085c-0.521,-11.458 -0.521,-11.458 4.167,-25c23.987,-24.155 45.148,-36.568 75,-16.667Z" style="fill:#39462f;fill-rule:nonzero;"/><path d="M1493.994,152.734c20.434,19.546 20.434,19.546 21.615,35.677c-7.369,15.125 -15.765,22.06 -29.948,30.99c-21.305,-1.243 -38.494,-7.074 -57.812,-15.885c-4.716,-2.089 -9.432,-4.179 -14.29,-6.331c-11.23,-6.95 -11.23,-6.95 -14.909,-16.113c-0.161,-2.476 -0.322,-4.952 -0.488,-7.503c15.623,-10.376 29.666,-15.613 47.917,-19.792c4.598,-1.096 9.195,-2.191 13.932,-3.32c13.161,-1.89 21.422,-1.866 33.984,2.279Z" style="fill:#3f4c36;fill-rule:nonzero;"/><path d="M1164.827,998.568c10.312,4.125 10.312,4.125 20.833,8.333c-6.123,14.735 -14.143,22.635 -26.302,32.812c-15.177,13.074 -27.563,26.76 -40.365,42.188c-4.828,4.334 -9.736,8.579 -14.697,12.76c-21.121,18.264 -40.666,37.98 -60.303,57.812c-3.625,3.644 -7.251,7.289 -10.986,11.043c-8.848,8.896 -17.685,17.802 -26.514,26.717c-4.125,-2.75 -8.25,-5.5 -12.5,-8.333c2.373,-15.695 8.801,-22.825 19.939,-33.858c5.005,-5.003 5.005,-5.003 10.111,-10.108c3.624,-3.56 7.248,-7.119 10.982,-10.787c3.693,-3.676 7.387,-7.352 11.192,-11.139c9.808,-9.75 19.641,-19.471 29.489,-29.18c10.049,-9.921 20.062,-19.877 30.079,-29.831c19.648,-19.51 39.331,-38.984 59.041,-58.431Z" style="fill:#f9fbf7;fill-rule:nonzero;"/><path d="M40.088,148.307c5.499,1.36 10.964,2.858 16.406,4.427c6.212,1.418 6.212,1.418 12.549,2.865c35.241,8.162 35.241,8.162 49.951,17.969c-1.192,7.824 -1.192,7.824 -4.167,16.667c-10.828,6.193 -20.862,11.127 -32.292,15.885c-2.986,1.351 -5.973,2.702 -9.049,4.093c-16.656,7.149 -28.429,11.974 -46.159,5.021c-9.291,-6.147 -16.703,-13.308 -25,-20.833c2.028,-22.988 12.605,-45.58 37.76,-46.094Z" style="fill:#3a4731;fill-rule:nonzero;"/><path d="M181.494,2.734c17.331,7.83 26.658,17.535 37.5,33.333c-1.531,17.97 -8.822,34.48 -15.625,51.042c-0.999,2.653 -1.998,5.307 -3.027,8.04c-3.158,7.65 -3.158,7.65 -10.514,20.085c-11.263,3.841 -11.263,3.841 -20.833,4.167c-7.341,-13.341 -11.39,-26.4 -15.104,-41.146c-1.627,-6.3 -1.627,-6.3 -3.288,-12.728c-2.544,-13.331 -4.046,-24.288 -2.441,-37.793c7.292,-7.91 7.292,-7.91 16.667,-14.062c3.094,-2.095 6.188,-4.189 9.375,-6.348c3.609,-2.272 3.609,-2.272 7.292,-4.59Z" style="fill:#3f4c36;fill-rule:nonzero;"/><path d="M1333.577,6.12c14.787,7.024 24.432,13.489 35.417,25.781c1.069,29.945 -11.592,59.303 -20.833,87.5c-9.424,-0.195 -9.424,-0.195 -20.833,-4.167c-6.458,-10.243 -11.193,-19.208 -15.885,-30.208c-1.297,-2.788 -2.594,-5.575 -3.931,-8.447c-6.794,-15.202 -12.1,-28.003 -9.351,-44.678c8.556,-13.819 18.894,-24.542 35.417,-25.781Z" style="fill:#404c37;fill-rule:nonzero;"/><path d="M1139.827,369.401c1.815,1.901 3.631,3.803 5.501,5.762c7.593,7.33 14.702,13.648 23.665,19.238c13.643,-2.14 22.131,-6.776 34.115,-13.281c7.552,-3.385 7.552,-3.385 20.052,0.781c6.031,6.031 6.489,12.665 8.333,20.833c-28.125,16.667 -28.125,16.667 -37.5,16.667c0.193,2.514 0.387,5.027 0.586,7.617c1.227,27.164 1.227,27.164 -7.878,40.82c-9.375,5.729 -9.375,5.729 -18.75,4.688c-2.406,-1.031 -4.812,-2.062 -7.292,-3.125c1.375,-2.75 2.75,-5.5 4.167,-8.333l-8.333,0c-1.375,-4.125 -2.75,-8.25 -4.167,-12.5c2.75,-1.375 5.5,-2.75 8.333,-4.167c-2.399,-13.969 -6.638,-20.576 -16.927,-30.208c-2.283,-2.17 -4.565,-4.34 -6.917,-6.576c-1.756,-1.611 -3.513,-3.223 -5.322,-4.883c1.375,-3.953 2.75,-7.906 4.167,-11.979c4.59,-12.065 4.59,-12.065 4.167,-21.354Z" style="fill:#38452f;fill-rule:nonzero;"/><path d="M1452.327,2.734c8.158,-0.225 16.319,-0.386 24.479,-0.521c6.816,-0.145 6.816,-0.145 13.77,-0.293c11.751,0.814 11.751,0.814 20.085,9.147c3.905,18.738 4.405,35.505 0,54.167c-13.17,14.361 -27.33,23.128 -45.833,29.167c-14.03,-1.4 -14.03,-1.4 -25,-4.167c2.005,-24.057 9.103,-41.494 20.833,-62.5l25,0c1.375,-5.5 2.75,-11 4.167,-16.667l-37.5,-0l0,-8.333Z" style="fill:#435039;fill-rule:nonzero;"/><path d="M731.494,631.901c8.879,4.439 14.024,9.548 20.833,16.667c-6.073,14.014 -13.797,23.106 -24.642,33.789c-3.169,3.142 -6.338,6.284 -9.603,9.521c-3.309,3.239 -6.617,6.478 -10.026,9.814c-3.341,3.303 -6.682,6.606 -10.124,10.01c-8.239,8.141 -16.497,16.262 -24.772,24.365c-2.75,-1.375 -5.5,-2.75 -8.333,-4.167c2.75,-4.125 5.5,-8.25 8.333,-12.5c-2.75,-1.375 -5.5,-2.75 -8.333,-4.167c-2.75,-2.75 -5.5,-5.5 -8.333,-8.333c4.125,-5.5 8.25,-11 12.5,-16.667l-8.333,0c-6.771,-10.417 -6.771,-10.417 -12.5,-20.833c6.875,-1.375 13.75,-2.75 20.833,-4.167l0,-8.333c3.609,2.191 3.609,2.191 7.292,4.427c11.355,4.731 14.677,3.98 26.042,-0.26c8.216,-6.711 8.216,-6.711 15.625,-14.844c2.557,-2.669 5.113,-5.339 7.747,-8.089c1.912,-2.057 3.824,-4.114 5.794,-6.234Z" style="fill:#37452e;fill-rule:nonzero;"/><path d="M1298.161,223.568c0,12.5 0,12.5 -10.645,23.486c-6.873,6.399 -13.818,12.697 -20.85,18.921c-17.947,16.845 -21.688,29.544 -26.839,53.426c-12.5,8.333 -12.5,8.333 -25.26,7.292c-12.24,-3.125 -12.24,-3.125 -20.573,-11.458c-2.313,-25.441 -2.313,-25.441 4.688,-36.719c7.812,-4.948 7.812,-4.948 19.531,-8.333c15.179,-5.655 21.747,-12.586 32.585,-24.154c12.95,-13.172 30.133,-16.979 47.363,-22.461Z" style="fill:#3c4933;fill-rule:nonzero;"/><path d="M35.14,0.911c23.705,0.37 23.705,0.37 37.24,11.198c4.948,11.458 4.948,11.458 4.427,19.271c-1.805,4.383 -1.805,4.383 -3.646,8.854c-2.191,7.734 -2.191,7.734 -4.427,15.625c-1.289,4.469 -2.578,8.938 -3.906,13.542c-3.18,-1.289 -6.359,-2.578 -9.635,-3.906c-7.814,-3.089 -15.726,-5.937 -23.698,-8.594c-2.75,-4.125 -5.5,-8.25 -8.333,-12.5c-1.375,2.75 -2.75,5.5 -4.167,8.333l-8.333,0l0,8.333l-8.333,0c-0.225,-8.158 -0.386,-16.319 -0.521,-24.479c-0.097,-4.544 -0.193,-9.088 -0.293,-13.77c1.555,-22.459 14.154,-21.503 33.626,-21.908Z" style="fill:#44513b;fill-rule:nonzero;"/><path d="M1110.661,502.734c4.125,2.75 8.25,5.5 12.5,8.333c0.521,9.896 0.521,9.896 0,20.833c0.932,2.679 1.863,5.358 2.823,8.118c1.344,8.549 1.344,8.549 -3.538,15.796c-2.466,2.357 -4.931,4.713 -7.472,7.141c-2.645,2.578 -5.291,5.156 -8.016,7.812c-2.817,2.643 -5.634,5.285 -8.537,8.008c-2.801,2.707 -5.602,5.414 -8.488,8.203c-6.935,6.69 -13.915,13.326 -20.939,19.922c-4.125,-1.375 -8.25,-2.75 -12.5,-4.167l0,8.333c-4.125,-1.375 -8.25,-2.75 -12.5,-4.167c-1.375,-4.125 -2.75,-8.25 -4.167,-12.5c7.064,-10.514 7.064,-10.514 17.188,-22.396c3.276,-3.899 6.553,-7.799 9.928,-11.816c6.995,-7.828 14.28,-15.406 21.81,-22.721c10.22,-9.172 10.22,-9.172 13.574,-22.233l8.333,0l0,-12.5Z" style="fill:#3c4832;fill-rule:nonzero;"/><path d="M848.161,515.234c2.75,2.75 5.5,5.5 8.333,8.333c-4.125,2.062 -4.125,2.062 -8.333,4.167c2.75,8.25 5.5,16.5 8.333,25c-20.625,20.625 -41.25,41.25 -62.5,62.5c-4.125,-1.375 -8.25,-2.75 -12.5,-4.167l0,-8.333l-8.333,0c-1.375,2.75 -2.75,5.5 -4.167,8.333c2.056,-18.447 7.794,-26.457 20.98,-39.274c3.37,-3.317 6.741,-6.633 10.213,-10.05c3.542,-3.403 7.084,-6.805 10.734,-10.311c3.558,-3.483 7.117,-6.966 10.783,-10.555c8.783,-8.586 17.602,-17.131 26.457,-25.643Z" style="fill:#37432e;fill-rule:nonzero;"/><path d="M1408.838,1364.974c5.027,0.129 5.027,0.129 10.156,0.26c0,18.656 -3.495,22.608 -15.877,35.705c-2.237,2.225 -4.474,4.451 -6.779,6.743c-2.264,2.266 -4.528,4.531 -6.86,6.865c-13.051,12.336 -22.799,20.57 -41.317,22.301c-5.557,-0.221 -11.113,-0.479 -16.667,-0.781c-5.596,1.214 -11.17,2.559 -16.667,4.167c14.181,-17.089 28.823,-33.52 44.271,-49.479c3.062,-3.169 6.123,-6.338 9.277,-9.603c9.048,-7.666 14.169,-9.801 25.618,-11.751c4.167,-4.167 4.167,-4.167 14.844,-4.427Z" style="fill:#3e4d34;fill-rule:nonzero;"/><path d="M506.494,494.401c16.974,6.709 28.188,18.909 40.625,31.771c2.111,2.148 4.222,4.297 6.396,6.51c5.179,5.276 10.331,10.578 15.479,15.885c-4.125,11 -8.25,22 -12.5,33.333c-17.185,-14.26 -33.694,-28.993 -49.74,-44.531c-4.826,-4.665 -4.826,-4.665 -9.749,-9.424c-7.178,-8.545 -7.178,-8.545 -7.178,-21.045l16.667,0l0,-12.5Z" style="fill:#44513a;fill-rule:nonzero;"/><path d="M1343.994,36.068c5.5,2.75 11,5.5 16.667,8.333c-0.478,8.596 -1.009,17.19 -1.562,25.781c-0.29,4.786 -0.58,9.571 -0.879,14.502c-1.621,13.048 -4.563,22.854 -10.059,34.717c-9.375,0 -9.375,0 -20.833,-4.167c-8.129,-10.29 -13.18,-20.704 -16.667,-33.333c2.845,-15.365 5.665,-22.331 16.667,-33.333c1.375,6.875 2.75,13.75 4.167,20.833l8.333,0c1.375,-11 2.75,-22 4.167,-33.333Z" style="fill:#3d4a34;fill-rule:nonzero;"/><path d="M436.779,353.854c2.381,1.005 4.762,2.011 7.215,3.047c-3.674,23.506 -22.383,37.02 -38.542,53.125c-3.185,3.303 -6.37,6.606 -9.652,10.01c-3.11,3.121 -6.22,6.241 -9.424,9.456c-4.248,4.292 -4.248,4.292 -8.582,8.671c-10.683,7.571 -16.818,7.518 -29.635,6.238c3.609,-24.298 24.266,-38.9 40.885,-55.469c5.128,-5.305 5.128,-5.305 10.36,-10.718c4.967,-4.983 4.967,-4.983 10.034,-10.067c3.028,-3.058 6.057,-6.116 9.177,-9.266c8.711,-6.147 8.711,-6.147 18.162,-5.027Z" style="fill:#dde3d8;fill-rule:nonzero;"/><path d="M268.994,365.234c7.394,2.473 14.769,5.001 22.135,7.552c4.109,1.402 8.218,2.804 12.451,4.248c10.71,4.634 16.338,8.542 23.747,17.367c-1.375,2.75 -2.75,5.5 -4.167,8.333c2.75,1.375 5.5,2.75 8.333,4.167c-2.75,13.75 -5.5,27.5 -8.333,41.667l-4.167,0l0,-29.167c-4.898,-1.547 -4.898,-1.547 -9.896,-3.125c-25.059,-8.641 -49.861,-18.04 -73.438,-30.208c3.953,-1.117 7.906,-2.234 11.979,-3.385c14.074,-3.906 14.074,-3.906 21.354,-17.448Z" style="fill:#44523a;fill-rule:nonzero;"/><path d="M82.796,159.766c15.922,1.349 23.455,4.535 36.198,13.802c-0.602,7.617 -0.602,7.617 -4.167,16.667c-10.465,6.185 -10.465,6.185 -23.698,11.458c-6.469,2.675 -6.469,2.675 -13.07,5.404c-13.493,4.05 -24.236,4.727 -38.232,3.971c-1.375,-5.5 -2.75,-11 -4.167,-16.667c9.625,-2.75 19.25,-5.5 29.167,-8.333c-0.859,-2.578 -1.719,-5.156 -2.604,-7.812c-0.516,-2.922 -1.031,-5.844 -1.562,-8.854c8.333,-8.333 8.333,-8.333 22.135,-9.635Z" style="fill:#36452e;fill-rule:nonzero;"/><path d="M264.827,1206.901c12.935,5.794 22.357,12.565 32.552,22.396c2.605,2.438 5.21,4.877 7.894,7.389c5.387,7.715 5.387,7.715 4.639,16.406c-4.649,10.847 -11.15,17.061 -20.085,24.642c-8.333,0 -8.333,0 -15.234,-6.852c-2.535,-2.981 -5.07,-5.962 -7.682,-9.033c-2.535,-2.949 -5.07,-5.897 -7.682,-8.936c-6.901,-8.512 -6.901,-8.512 -15.234,-21.012c6.875,-8.25 13.75,-16.5 20.833,-25Z" style="fill:#f0f3ec;fill-rule:nonzero;"/><path d="M1039.827,586.068c2.75,5.5 5.5,11 8.333,16.667c2.75,2.75 5.5,5.5 8.333,8.333l0,-8.333l8.333,0c-6.091,13.939 -13.847,23.543 -24.479,34.375c-2.825,2.943 -5.65,5.887 -8.561,8.919c-8.626,6.706 -8.626,6.706 -25.293,6.706l0,-12.5c-26.397,19.194 -26.397,19.194 -50,41.667c-2.75,-1.375 -5.5,-2.75 -8.333,-4.167c30.25,-30.25 60.5,-60.5 91.667,-91.667Z" style="fill:#3c4932;fill-rule:nonzero;"/><path d="M1243.994,1206.901c8.25,6.875 16.5,13.75 25,20.833c-2.291,16.146 -9.481,23.316 -21.094,34.375c-3.056,2.943 -6.112,5.887 -9.261,8.919c-2.358,2.213 -4.716,4.426 -7.145,6.706c-9.625,-8.25 -19.25,-16.5 -29.167,-25c13.419,-15.859 26.677,-31.42 41.667,-45.833Z" style="fill:#f6f9f4;fill-rule:nonzero;"/><path d="M314.827,1161.068c13.397,5.869 22.174,12.931 32.292,23.438c3.835,3.948 3.835,3.948 7.747,7.975c2.868,3.013 2.868,3.013 5.794,6.087c-5.664,11.919 -11.022,20.247 -20.833,29.167c-13.397,-5.869 -22.174,-12.931 -32.292,-23.438c-2.557,-2.632 -5.113,-5.264 -7.747,-7.975c-2.868,-3.013 -2.868,-3.013 -5.794,-6.087c5.664,-11.919 11.022,-20.247 20.833,-29.167Z" style="fill:#f1f4ee;fill-rule:nonzero;"/><path d="M1193.994,1161.068c11.919,5.664 20.247,11.022 29.167,20.833c-5.869,13.397 -12.931,22.174 -23.438,32.292c-2.632,2.557 -5.264,5.113 -7.975,7.747c-2.009,1.912 -4.018,3.824 -6.087,5.794c-11.919,-5.664 -20.247,-11.022 -29.167,-20.833c5.869,-13.397 12.931,-22.174 23.438,-32.292c2.632,-2.557 5.264,-5.113 7.975,-7.747c2.009,-1.912 4.018,-3.824 6.087,-5.794Z" style="fill:#eff3eb;fill-rule:nonzero;"/><path d="M402.327,1194.401c3.48,1.208 3.48,1.208 7.031,2.441c21.099,7.199 42.107,13.264 63.802,18.392l0,25c-34.067,3.325 -57.55,-4.891 -87.5,-20.833c0,-8.333 0,-8.333 8.333,-17.188c2.75,-2.578 5.5,-5.156 8.333,-7.812Z" style="fill:#3a4731;fill-rule:nonzero;"/><path d="M585.661,1040.234c2.75,5.5 5.5,11 8.333,16.667c4.125,-1.375 8.25,-2.75 12.5,-4.167c1.375,4.125 2.75,8.25 4.167,12.5c-16.5,16.5 -33,33 -50,50c-8.333,-16.667 -8.333,-16.667 -8.333,-25c-4.641,4.898 -4.641,4.898 -9.375,9.896c-9.56,9.125 -16.132,14.385 -28.125,19.271c5.806,-13.134 12.604,-21.924 22.819,-31.966c4.189,-4.149 4.189,-4.149 8.464,-8.382c2.911,-2.841 5.822,-5.683 8.822,-8.61c2.943,-2.906 5.887,-5.812 8.919,-8.805c7.252,-7.154 14.522,-14.287 21.81,-21.403Z" style="fill:#434f3a;fill-rule:nonzero;"/><path d="M1289.827,1256.901c11.925,5.346 20.935,10.544 29.167,20.833c0,12.5 0,12.5 -6.087,18.75c-2.632,2.062 -5.264,4.125 -7.975,6.25c-10.368,8.192 -15.92,13.723 -23.438,25l-8.333,0c-5.371,-6.38 -5.371,-6.38 -10.938,-14.583c-1.858,-2.707 -3.717,-5.414 -5.632,-8.203c-1.407,-2.105 -2.814,-4.211 -4.264,-6.38c2.358,-2.31 4.716,-4.619 7.145,-6.999c3.056,-3.019 6.112,-6.037 9.261,-9.147c3.045,-2.997 6.091,-5.994 9.229,-9.082c7.935,-7.565 7.935,-7.565 11.865,-16.439Z" style="fill:#f1f4ec;fill-rule:nonzero;"/><path d="M1210.661,1086.068c8.594,8.594 8.594,8.594 16.667,20.833c-1.042,15.104 -1.042,15.104 -4.167,29.167l0,12.5l-12.5,0c-2.75,5.5 -5.5,11 -8.333,16.667c-8.333,-8.333 -8.333,-8.333 -8.333,-20.833c-23.347,8.733 -23.347,8.733 -41.667,25c-2.75,-1.375 -5.5,-2.75 -8.333,-4.167c1.864,-1.719 3.728,-3.438 5.648,-5.208c16.488,-15.75 28.768,-30.926 39.6,-51.025c1.568,-2.068 3.137,-4.136 4.753,-6.266l12.5,0c1.375,-5.5 2.75,-11 4.167,-16.667Z" style="fill:#47563d;fill-rule:nonzero;"/><path d="M214.827,1256.901c14.383,6.155 23.54,14.325 34.375,25.521c2.943,3.019 5.887,6.037 8.919,9.147c3.319,3.464 3.319,3.464 6.706,6.999c-8.25,9.625 -16.5,19.25 -25,29.167c-13.889,-13.889 -27.778,-27.778 -41.667,-41.667c5.016,-10.39 10.226,-19.506 16.667,-29.167Z" style="fill:#f4f7f2;fill-rule:nonzero;"/><path d="M1164.827,998.568c10.312,4.125 10.312,4.125 20.833,8.333c-5.754,13.905 -11.751,21.763 -25,29.167c-2.628,-0.841 -5.256,-1.682 -7.964,-2.549c-8.907,-2.696 -8.907,-2.696 -16.029,3.203c-2.455,2.501 -4.909,5.002 -7.438,7.578c-2.808,2.81 -5.616,5.619 -8.509,8.514c-2.987,3.094 -5.973,6.188 -9.05,9.376c-3.101,3.131 -6.202,6.261 -9.397,9.487c-9.927,10.044 -19.78,20.158 -29.633,30.276c-6.674,6.778 -13.352,13.552 -20.036,20.321c-14.714,14.919 -29.381,29.882 -44.009,44.886c-4.836,4.944 -9.711,9.851 -14.602,14.742c2.373,-15.695 8.801,-22.825 19.939,-33.858c5.005,-5.003 5.005,-5.003 10.111,-10.108c3.624,-3.56 7.248,-7.119 10.982,-10.787c3.693,-3.676 7.387,-7.352 11.192,-11.139c9.808,-9.75 19.641,-19.471 29.489,-29.18c10.049,-9.921 20.062,-19.877 30.079,-29.831c19.648,-19.51 39.331,-38.984 59.041,-58.431Z" style="fill:#e7eae2;fill-rule:nonzero;"/><path d="M1077.327,352.734c21.842,9.587 36.678,26.646 53.385,43.229c3.338,3.201 6.676,6.402 10.116,9.701c3.134,3.104 6.268,6.209 9.497,9.408c2.883,2.827 5.767,5.654 8.737,8.567c5.765,8.262 5.765,8.262 4.588,17.647c-0.987,2.403 -1.973,4.806 -2.99,7.281c-21.842,-9.587 -36.678,-26.646 -53.385,-43.229c-3.338,-3.201 -6.676,-6.402 -10.116,-9.701c-3.134,-3.104 -6.268,-6.209 -9.497,-9.408c-2.883,-2.827 -5.767,-5.654 -8.737,-8.567c-5.765,-8.262 -5.765,-8.262 -4.588,-17.647c0.987,-2.403 1.973,-4.806 2.99,-7.281Z" style="fill:#eef2ea;fill-rule:nonzero;"/><path d="M81.494,1369.401c12.077,5.471 20.762,11.362 30.143,20.703c3.585,3.569 3.585,3.569 7.243,7.21c3.666,3.714 3.666,3.714 7.406,7.503c3.762,3.714 3.762,3.714 7.601,7.503c2.369,2.379 4.737,4.759 7.178,7.21c2.163,2.173 4.326,4.345 6.555,6.584c4.708,5.786 4.708,5.786 4.708,14.119c-22.53,2.299 -34.78,-0.867 -52.035,-14.632c-13.775,-13.562 -18.523,-26.229 -19.58,-45.264c0.258,-3.609 0.516,-7.219 0.781,-10.938Z" style="fill:#e9eee5;fill-rule:nonzero;"/><path d="M1431.494,1369.401c1.233,20.954 0.658,33.333 -12.5,50c-19.094,19.982 -19.094,19.982 -34.033,22.135c-9.196,0 -9.196,0 -24.3,-1.302l0,-8.333c6.12,-6.022 6.12,-6.022 14.583,-13.021c16.085,-13.619 30.891,-28.088 45.557,-43.213c6.527,-6.266 6.527,-6.266 10.693,-6.266Z" style="fill:#f4f7ef;fill-rule:nonzero;"/><path d="M1464.827,165.234l0,12.5c-4.125,2.062 -4.125,2.062 -8.333,4.167c1.375,2.75 2.75,5.5 4.167,8.333c-3.906,8.854 -3.906,8.854 -8.333,16.667c-18.946,-2.255 -33.757,-6.467 -50,-16.667c-4.167,-8.594 -4.167,-8.594 -4.167,-16.667c8.333,-8.333 8.333,-8.333 22.917,-9.375c14.583,1.042 14.583,1.042 22.917,9.375l0,-8.333c8.333,-4.167 8.333,-4.167 20.833,0Z" style="fill:#3c4833;fill-rule:nonzero;"/><path d="M89.827,1361.068c2.75,2.75 5.5,5.5 8.333,8.333l-16.667,0c1.289,4.898 2.578,9.797 3.906,14.844c3.981,15.841 6.569,31.457 8.594,47.656c-8.25,1.375 -16.5,2.75 -25,4.167c-16.56,-28.643 -16.56,-28.643 -16.927,-44.792c5.995,-12.696 13.675,-18.318 25.26,-26.042c4.125,-1.375 8.25,-2.75 12.5,-4.167Z" style="fill:#425037;fill-rule:nonzero;"/><path d="M1460.661,27.734l25,0c1.063,22.854 -1.274,37.635 -16.406,55.208c-8.594,7.292 -8.594,7.292 -21.094,11.458c-2.75,-1.375 -5.5,-2.75 -8.333,-4.167c2.005,-24.057 9.103,-41.494 20.833,-62.5Z" style="fill:#3c4c30;fill-rule:nonzero;"/><path d="M1110.661,1081.901c8.333,8.333 8.333,8.333 9.896,18.148c-2.062,14.54 -7.55,19.143 -18.229,28.988c-3.094,2.906 -6.188,5.812 -9.375,8.805c-2.406,2.165 -4.812,4.329 -7.292,6.559c-5.5,-2.75 -11,-5.5 -16.667,-8.333c-2.449,3.609 -2.449,3.609 -4.948,7.292c-8.537,10.597 -17.244,18.243 -28.385,26.042l-12.5,0c28.875,-28.875 57.75,-57.75 87.5,-87.5Z" style="fill:#424e37;fill-rule:nonzero;"/><path d="M427.327,323.568c15.727,0.89 26.248,2.146 39.323,11.198c8.268,12.237 7.826,20.163 6.51,34.635l-16.667,0c-7.032,6.856 -13.975,13.804 -20.833,20.833c-9.635,3.385 -9.635,3.385 -16.667,4.167c5.425,-6.104 10.851,-12.207 16.276,-18.311c5.73,-7.062 5.73,-7.062 4.557,-19.189l-16.667,0c1.375,-5.5 2.75,-11 4.167,-16.667l8.333,0c-3.472,-9.028 -3.472,-9.028 -12.5,-12.5c1.375,-1.375 2.75,-2.75 4.167,-4.167Z" style="fill:#36422d;fill-rule:nonzero;"/><path d="M189.827,11.068c1.375,6.875 2.75,13.75 4.167,20.833l-16.667,0c0.172,5.156 0.344,10.312 0.521,15.625c0.048,13.61 -1.117,22.77 -8.854,34.375c-4.125,-1.375 -8.25,-2.75 -12.5,-4.167c-7.394,-16.735 -11.101,-31.813 -8.333,-50c13.143,-14.27 22.338,-18.876 41.667,-16.667Z" style="fill:#3c4931;fill-rule:nonzero;"/><path d="M1268.994,344.401c9.691,15.143 9.011,28.212 8.333,45.833c-22.688,6.188 -22.688,6.188 -45.833,12.5c-1.375,-4.125 -2.75,-8.25 -4.167,-12.5c-4.125,-1.375 -8.25,-2.75 -12.5,-4.167c1.375,-4.125 2.75,-8.25 4.167,-12.5c11.631,-5.006 23.455,-8.5 35.547,-12.24c3.395,-1.461 6.789,-2.922 10.286,-4.427c1.375,-4.125 2.75,-8.25 4.167,-12.5Z" style="fill:#45533b;fill-rule:nonzero;"/><path d="M856.494,648.568c8.594,0.781 8.594,0.781 16.667,4.167c1.375,4.125 2.75,8.25 4.167,12.5c-16.5,16.5 -33,33 -50,50c-5.5,-2.75 -11,-5.5 -16.667,-8.333c2.008,-17.953 6.597,-24.952 20.573,-36.198c2.959,-2.422 5.919,-4.845 8.968,-7.34c2.626,-2.132 5.253,-4.265 7.959,-6.462c2.75,-2.75 5.5,-5.5 8.333,-8.333Z" style="fill:#3f4e34;fill-rule:nonzero;"/><path d="M381.494,227.734c8.774,23.032 14.077,41.958 12.5,66.667c-2.75,1.375 -5.5,2.75 -8.333,4.167l0,-8.333c-6.875,-1.375 -13.75,-2.75 -20.833,-4.167c-6.711,-16.975 -10.331,-28.289 -4.167,-45.833c9.914,-12.5 9.914,-12.5 20.833,-12.5Z" style="fill:#38462f;fill-rule:nonzero;"/><path d="M864.827,852.734c15.336,6.402 24.949,15.756 36.458,27.604c3.33,3.405 6.66,6.811 10.091,10.319c3.771,3.916 3.771,3.916 7.617,7.91c-1.375,2.75 -2.75,5.5 -4.167,8.333c-5.5,-2.75 -11,-5.5 -16.667,-8.333l0,12.5c-2.75,2.75 -5.5,5.5 -8.333,8.333c-5.58,-5.356 -11.13,-10.744 -16.667,-16.146c-3.094,-2.997 -6.188,-5.994 -9.375,-9.082c-7.292,-8.105 -7.292,-8.105 -7.292,-16.439c5.5,-1.375 11,-2.75 16.667,-4.167c-2.75,-6.875 -5.5,-13.75 -8.333,-20.833Z" style="fill:#45523b;fill-rule:nonzero;"/><path d="M1077.327,427.734l8.333,4.167l-8.333,-4.167Zm-4.167,8.333c7.292,10.417 7.292,10.417 12.5,20.833c-9.625,9.625 -19.25,19.25 -29.167,29.167c-4.125,-1.375 -8.25,-2.75 -12.5,-4.167l0,-8.333c-2.75,-1.375 -5.5,-2.75 -8.333,-4.167c0,-12.5 0,-12.5 9.375,-23.698c11.458,-9.635 11.458,-9.635 28.125,-9.635Z" style="fill:#47553e;fill-rule:nonzero;"/><path d="M318.994,206.901c19.808,4.781 39.079,9.928 58.333,16.667c-2.604,10.156 -2.604,10.156 -8.333,20.833c-22.355,8.724 -41.337,-0.009 -62.5,-8.333c2.75,-1.375 5.5,-2.75 8.333,-4.167l0,-8.333l16.667,0l0,-8.333c-4.125,1.375 -8.25,2.75 -12.5,4.167l0,-12.5Z" style="fill:#415138;fill-rule:nonzero;"/><path d="M631.494,1002.734c4.125,1.375 8.25,2.75 12.5,4.167c-4.125,2.062 -4.125,2.062 -8.333,4.167l0,12.5l8.333,0c-6.479,15.904 -16.816,25.8 -29.167,37.5c-4.125,-1.375 -8.25,-2.75 -12.5,-4.167c-4.125,1.375 -8.25,2.75 -12.5,4.167l0,-20.833c3.953,-1.031 7.906,-2.062 11.979,-3.125c13.24,-3.839 13.24,-3.839 18.229,-13.281c1.031,-2.836 2.062,-5.672 3.125,-8.594c2.75,-4.125 5.5,-8.25 8.333,-12.5Z" style="fill:#39462f;fill-rule:nonzero;"/><path d="M606.494,456.901c18.859,15.326 34.976,30.879 50,50c-10.921,0 -18.789,-1.304 -29.167,-4.167c1.375,4.125 2.75,8.25 4.167,12.5c-12.5,0 -12.5,0 -23.698,-9.896c-9.635,-10.938 -9.635,-10.938 -9.635,-19.271l16.667,0l0,-12.5c-4.125,-1.375 -8.25,-2.75 -12.5,-4.167c1.375,-4.125 2.75,-8.25 4.167,-12.5Z" style="fill:#48553e;fill-rule:nonzero;"/><path d="M35.661,173.568c9.625,1.375 19.25,2.75 29.167,4.167l0,8.333c-8.25,4.125 -16.5,8.25 -25,12.5l0,12.5c5.5,1.375 11,2.75 16.667,4.167c-10.677,3.646 -10.677,3.646 -25,4.167c-10.966,-7.114 -20.038,-15.682 -29.167,-25c1.375,-5.5 2.75,-11 4.167,-16.667c5.5,2.75 11,5.5 16.667,8.333l0,8.333l8.333,0c1.375,-6.875 2.75,-13.75 4.167,-20.833Z" style="fill:#3f4d38;fill-rule:nonzero;"/><path d="M464.827,461.068c6.188,4.125 6.188,4.125 12.5,8.333c3.996,0.645 3.996,0.645 8.073,1.302c13.04,4.347 17.99,12.388 25.26,23.698c-1.375,4.125 -2.75,8.25 -4.167,12.5c-8.854,3.385 -8.854,3.385 -20.833,4.167c-14.062,-8.333 -14.062,-8.333 -25,-20.833c0.521,-15.885 0.521,-15.885 4.167,-29.167Z" style="fill:#35442c;fill-rule:nonzero;"/><path d="M218.994,273.568c8.788,13.181 12.743,24.502 17.448,39.583c1.52,4.77 3.04,9.539 4.606,14.453c2.946,12.63 2.946,12.63 -1.221,25.13c-4.125,-2.75 -8.25,-5.5 -12.5,-8.333c-4.125,4.125 -8.25,8.25 -12.5,12.5c-4.125,-15.125 -8.25,-30.25 -12.5,-45.833c5.5,1.375 11,2.75 16.667,4.167l0,-41.667Z" style="fill:#48553e;fill-rule:nonzero;"/><path d="M635.661,623.568c17.809,6.596 26.105,18.774 37.5,33.333c-7.355,9.291 -11.051,12.246 -22.917,14.323c-10.417,-1.823 -10.417,-1.823 -18.229,-8.854c-5.919,-12.168 -4.533,-17.763 -0.521,-30.469c1.375,-2.75 2.75,-5.5 4.167,-8.333Z" style="fill:#435038;fill-rule:nonzero;"/><path d="M518.994,381.901c-4.125,6.188 -4.125,6.188 -8.333,12.5c-2.637,8.803 -2.637,8.803 -4.167,16.667c-5.996,-1.182 -11.984,-2.405 -17.969,-3.646c-3.335,-0.677 -6.671,-1.354 -10.107,-2.051c-9.424,-2.637 -9.424,-2.637 -21.924,-10.97l8.333,0l0,-8.333c19.165,-16.769 31.791,-11.373 54.167,-4.167Z" style="fill:#44543c;fill-rule:nonzero;"/><path d="M1485.661,177.734c0,16.667 0,16.667 -4.167,29.167c1.375,4.125 2.75,8.25 4.167,12.5c-28.125,-3.125 -28.125,-3.125 -37.5,-12.5c1.375,-2.492 2.75,-4.984 4.167,-7.552c5.033,-9.339 5.033,-9.339 4.167,-21.615c11.111,-5.556 17.362,-2.796 29.167,0Z" style="fill:#43503b;fill-rule:nonzero;"/><path d="M152.327,1436.068c8.333,8.333 16.667,16.667 25,25c-4.167,8.333 -4.167,8.333 -10.677,10.938c-20.483,3.151 -38.147,5.125 -55.99,-6.771c9.625,-5.5 19.25,-11 29.167,-16.667l0,-8.333c4.125,-1.375 8.25,-2.75 12.5,-4.167Z" style="fill:#505e47;fill-rule:nonzero;"/><path d="M985.661,540.234c-2.03,18.396 -7.711,26.269 -21.094,38.802c-3.056,2.906 -6.112,5.812 -9.261,8.805c-2.358,2.165 -4.716,4.329 -7.145,6.559c-2.75,-1.375 -5.5,-2.75 -8.333,-4.167l0,-8.333l8.333,0l0,-12.5c-2.75,-1.375 -5.5,-2.75 -8.333,-4.167c14.903,-16.144 23.706,-25 45.833,-25Z" style="fill:#414e37;fill-rule:nonzero;"/><path d="M1398.161,90.234c24.479,15.104 24.479,15.104 29.167,29.167c-15.821,11.773 -25.774,19.027 -45.833,16.667c1.826,-18.989 3.543,-31.569 16.667,-45.833Z" style="fill:#404c38;fill-rule:nonzero;"/><path d="M393.994,277.734c10.609,10.609 13.243,18.782 16.667,33.333c-2.865,11.719 -2.865,11.719 -8.333,20.833c-4.125,1.375 -8.25,2.75 -12.5,4.167c-3.61,-5.959 -7.158,-11.956 -10.677,-17.969c-1.982,-3.335 -3.964,-6.671 -6.006,-10.107c-4.15,-9.424 -4.15,-9.424 0.016,-21.924c5.5,2.75 11,5.5 16.667,8.333c1.375,-5.5 2.75,-11 4.167,-16.667Z" style="fill:#435039;fill-rule:nonzero;"/><path d="M189.046,5.078c13.103,8.61 20.636,18.315 29.948,30.99l0,12.5l-8.333,0l0,-12.5c-13.744,3.011 -13.744,3.011 -19.531,16.927c-1.805,4.039 -3.609,8.078 -5.469,12.24l-8.333,0c-4.688,-23.958 -4.688,-23.958 0,-33.333l16.667,-0c-1.375,-6.875 -2.75,-13.75 -4.167,-20.833c-5.5,-1.375 -11,-2.75 -16.667,-4.167c8.333,-4.167 8.333,-4.167 15.885,-1.823Z" style="fill:#4f5947;fill-rule:nonzero;"/><path d="M948.161,415.234c5.5,1.375 11,2.75 16.667,4.167c-2.664,4.469 -5.328,8.938 -8.073,13.542c-5.029,8.692 -8.489,15.154 -10.677,25c-3.031,10.609 -9.745,13.982 -18.75,19.792c-4.948,-11.458 -4.948,-11.458 -8.333,-25c5.208,-9.896 5.208,-9.896 12.5,-16.667l8.333,0c2.75,-6.875 5.5,-13.75 8.333,-20.833Z" style="fill:#37442d;fill-rule:nonzero;"/><path d="M298.161,381.901c9.625,2.75 19.25,5.5 29.167,8.333c-1.375,4.125 -2.75,8.25 -4.167,12.5c2.75,1.375 5.5,2.75 8.333,4.167c-2.75,13.75 -5.5,27.5 -8.333,41.667l-4.167,0l0,-29.167c-8.25,-2.75 -16.5,-5.5 -25,-8.333c1.375,-9.625 2.75,-19.25 4.167,-29.167Z" style="fill:#404c38;fill-rule:nonzero;"/><path d="M1277.327,336.068c1.375,2.75 2.75,5.5 4.167,8.333l8.333,0l0,-8.333l12.5,0c-1.921,19.593 -4.299,34.303 -16.667,50l-12.5,0c-0.112,-7.552 -0.193,-15.104 -0.26,-22.656c-0.048,-4.206 -0.097,-8.411 -0.146,-12.744c0.407,-10.433 0.407,-10.433 4.574,-14.6Z" style="fill:#34412a;fill-rule:nonzero;"/><path d="M739.827,902.734c1.375,4.125 2.75,8.25 4.167,12.5l8.333,0c-6.003,14.007 -13.531,23.298 -25,33.333l-8.333,0l0,-12.5c-2.75,-1.375 -5.5,-2.75 -8.333,-4.167c4.167,-8.333 8.333,-16.667 12.5,-25c8.594,-2.604 8.594,-2.604 16.667,-4.167Z" style="fill:#38442f;fill-rule:nonzero;"/><path d="M539.827,823.568c1.375,2.75 2.75,5.5 4.167,8.333c2.75,1.375 5.5,2.75 8.333,4.167c-4.125,2.492 -8.25,4.984 -12.5,7.552c-4.125,3.008 -8.25,6.016 -12.5,9.115l0,12.5c-6.852,5.924 -6.852,5.924 -15.885,11.458c-2.949,1.869 -5.897,3.738 -8.936,5.664c-8.512,3.711 -8.512,3.711 -21.012,-0.456c19.25,-19.25 38.5,-38.5 58.333,-58.333Z" style="fill:#3c4934;fill-rule:nonzero;"/><path d="M1110.661,394.401c3.094,1.891 6.188,3.781 9.375,5.729c10.793,6.653 10.793,6.653 20.052,10.677c10.447,5.729 17.328,11.76 24.74,21.094c-1.042,9.375 -1.042,9.375 -4.167,16.667c-14.05,-6.107 -23.541,-13.966 -34.375,-24.74c-2.943,-2.874 -5.887,-5.747 -8.919,-8.708c-6.706,-8.219 -6.706,-8.219 -6.706,-20.719Z" style="fill:#e8ede3;fill-rule:nonzero;"/><path d="M35.661,31.901c12.5,1.302 12.5,1.302 25,4.167c5.643,11.287 4.438,20.872 4.167,33.333c-3.18,-1.289 -6.359,-2.578 -9.635,-3.906c-7.814,-3.089 -15.726,-5.937 -23.698,-8.594c-0.178,-6.942 -0.169,-13.891 0,-20.833c1.375,-1.375 2.75,-2.75 4.167,-4.167Z" style="fill:#56674a;fill-rule:nonzero;"/><path d="M1018.994,606.901c2.75,2.75 5.5,5.5 8.333,8.333c-8.934,20.249 -22.677,28.263 -40.706,39.616c-11.76,7.867 -20.622,16.626 -30.127,27.051c-2.75,-1.375 -5.5,-2.75 -8.333,-4.167c23.375,-23.375 46.75,-46.75 70.833,-70.833Z" style="fill:#545f4b;fill-rule:nonzero;"/><path d="M1227.327,194.401c9.625,1.375 19.25,2.75 29.167,4.167c0,12.5 0,12.5 -4.167,20.833c-7.699,2.637 -7.699,2.637 -16.927,4.688c-3.056,0.698 -6.112,1.396 -9.261,2.116c-2.358,0.505 -4.716,1.01 -7.145,1.53c-2.75,-4.125 -5.5,-8.25 -8.333,-12.5l8.333,0c2.75,-6.875 5.5,-13.75 8.333,-20.833Z" style="fill:#38442d;fill-rule:nonzero;"/><path d="M310.661,273.568c-2.75,2.75 -5.5,5.5 -8.333,8.333l0,12.5c-3.867,0.516 -3.867,0.516 -7.812,1.042c-9.622,2.344 -9.622,2.344 -14.062,11.719c-1.031,2.664 -2.062,5.328 -3.125,8.073l-4.167,0c-2.75,-12.375 -5.5,-24.75 -8.333,-37.5c18.884,-9.442 25.741,-8.031 45.833,-4.167Z" style="fill:#435138;fill-rule:nonzero;"/><path d="M677.327,823.568c6.875,4.125 13.75,8.25 20.833,12.5c-6.003,14.007 -13.531,23.298 -25,33.333l-8.333,0c-0.337,-6.073 -0.58,-12.151 -0.781,-18.229c-0.145,-3.384 -0.29,-6.768 -0.439,-10.254c0.403,-2.976 0.806,-5.951 1.221,-9.017c4.125,-2.75 8.25,-5.5 12.5,-8.333Z" style="fill:#35412b;fill-rule:nonzero;"/><path d="M373.161,1006.901c4.125,1.375 8.25,2.75 12.5,4.167l0,12.5c5.5,2.75 11,5.5 16.667,8.333l0,8.333c14.438,-2.062 14.438,-2.062 29.167,-4.167c1.375,2.75 2.75,5.5 4.167,8.333l-16.667,0c-2.75,5.5 -5.5,11 -8.333,16.667c-18.863,-13.099 -27.417,-25.667 -37.5,-45.833l0,-8.333Z" style="fill:#45533b;fill-rule:nonzero;"/><path d="M1460.661,27.734l25,0l0,25c-8.25,4.125 -16.5,8.25 -25,12.5c-4.688,-28.125 -4.688,-28.125 0,-37.5Z" style="fill:#7a876f;fill-rule:nonzero;"/><path d="M1452.327,2.734l50,0c4.167,20.833 4.167,20.833 -4.167,33.333c-4.125,2.062 -4.125,2.062 -8.333,4.167l0,-29.167l-37.5,-0l0,-8.333Z" style="fill:#495441;fill-rule:nonzero;"/><path d="M1068.994,1211.068c12.601,2.45 25.073,5.112 37.5,8.333c-1.375,4.125 -2.75,8.25 -4.167,12.5c-18.562,2.062 -18.562,2.062 -37.5,4.167c-1.375,-2.75 -2.75,-5.5 -4.167,-8.333c3.906,-8.854 3.906,-8.854 8.333,-16.667Z" style="fill:#354329;fill-rule:nonzero;"/><path d="M306.494,1044.401l4.167,0c1.071,59.963 1.071,59.963 -10.677,75c-1.977,1.375 -3.953,2.75 -5.99,4.167c-8.718,-18.462 -8.718,-18.462 -6.771,-30.469c0.859,-2.32 1.719,-4.641 2.604,-7.031l8.333,0c2.75,-13.75 5.5,-27.5 8.333,-41.667Z" style="fill:#435038;fill-rule:nonzero;"/><path d="M1006.494,640.234c-2.338,13.563 -5.547,20.827 -16.667,29.167c-6.925,1.484 -13.869,2.884 -20.833,4.167c-1.375,2.75 -2.75,5.5 -4.167,8.333c0,-12.5 0,-12.5 6.999,-20.101c3.019,-2.562 6.037,-5.124 9.147,-7.764c2.997,-2.594 5.994,-5.188 9.082,-7.861c8.105,-5.941 8.105,-5.941 16.439,-5.941Zm-58.333,41.667c4.125,2.062 4.125,2.062 8.333,4.167c-4.125,2.062 -4.125,2.062 -8.333,4.167l0,-8.333Z" style="fill:#36452b;fill-rule:nonzero;"/><path d="M502.327,1002.734c8.25,2.75 16.5,5.5 25,8.333c-6.875,8.25 -13.75,16.5 -20.833,25c-2.75,-1.375 -5.5,-2.75 -8.333,-4.167l0,-8.333l-8.333,0c7.812,-16.146 7.812,-16.146 12.5,-20.833Z" style="fill:#3d4a31;fill-rule:nonzero;"/><path d="M1306.494,223.568c1.375,4.125 2.75,8.25 4.167,12.5c-7.145,7.145 -14.411,13.56 -22.135,20.052c-26.587,21.949 -26.587,21.949 -44.531,50.781c-1.11,-12.26 -1.504,-18.71 5.737,-28.936c2.618,-2.509 5.237,-5.019 7.935,-7.604c2.82,-2.753 5.64,-5.505 8.545,-8.341c2.981,-2.806 5.962,-5.613 9.033,-8.504c2.981,-2.887 5.962,-5.774 9.033,-8.748c7.361,-7.116 14.766,-14.178 22.217,-21.2Z" style="fill:#cbd0c5;fill-rule:nonzero;"/><path d="M1298.161,223.568c0,12.5 0,12.5 -6.38,19.189c-2.707,2.175 -5.414,4.351 -8.203,6.592c-2.707,2.208 -5.414,4.415 -8.203,6.689c-2.105,1.66 -4.211,3.319 -6.38,5.029c-2.75,-2.75 -5.5,-5.5 -8.333,-8.333c5.243,-15.73 10.663,-17.49 25,-25c4.125,-1.375 8.25,-2.75 12.5,-4.167Z" style="fill:#323e29;fill-rule:nonzero;"/><path d="M318.994,206.901c12.375,2.062 12.375,2.062 25,4.167c-1.375,2.75 -2.75,5.5 -4.167,8.333c1.171,8.367 2.544,16.709 4.167,25c-18.562,-4.125 -18.562,-4.125 -37.5,-8.333c2.75,-1.375 5.5,-2.75 8.333,-4.167l0,-8.333l16.667,0l0,-8.333c-4.125,1.375 -8.25,2.75 -12.5,4.167l0,-12.5Z" style="fill:#4c5943;fill-rule:nonzero;"/><path d="M564.827,1061.068c1.375,2.75 2.75,5.5 4.167,8.333c-35.683,43.839 -35.683,43.839 -54.167,50c6.611,-16.262 17.223,-26.397 29.688,-38.542c3.792,-3.717 7.584,-7.434 11.491,-11.263c2.911,-2.814 5.822,-5.629 8.822,-8.529Z" style="fill:#535d4b;fill-rule:nonzero;"/><path d="M110.661,169.401c2.75,1.375 5.5,2.75 8.333,4.167c-1.025,7.878 -1.025,7.878 -4.167,16.667c-7.699,4.362 -7.699,4.362 -16.927,7.292c-4.584,1.515 -4.584,1.515 -9.261,3.06c-3.537,1.063 -3.537,1.063 -7.145,2.148l0,-16.667c4.039,-1.977 8.078,-3.953 12.24,-5.99c11.947,-5.268 11.947,-5.268 16.927,-10.677Z" style="fill:#3e4a37;fill-rule:nonzero;"/><path d="M1377.327,1373.568c0,12.5 0,12.5 -7.764,21.338c-3.368,3.185 -6.735,6.37 -10.205,9.652c-11.889,11.314 -22.573,22.24 -32.031,35.677c-4.125,-1.375 -8.25,-2.75 -12.5,-4.167c20.625,-20.625 41.25,-41.25 62.5,-62.5Z" style="fill:#5b6655;fill-rule:nonzero;"/><path d="M718.994,906.901c0,17.305 -6.074,23.919 -16.667,37.5c-9.38,7.713 -18.972,14.168 -29.167,20.833c-2.75,-1.375 -5.5,-2.75 -8.333,-4.167c17.875,-17.875 35.75,-35.75 54.167,-54.167Z" style="fill:#57604e;fill-rule:nonzero;"/><path d="M1031.494,465.234c8.333,4.167 8.333,4.167 12.5,16.667l8.333,0c-2.75,5.5 -5.5,11 -8.333,16.667c-10.312,-4.125 -10.312,-4.125 -20.833,-8.333c3.646,-20.312 3.646,-20.312 8.333,-25Zm-16.667,12.5l8.333,4.167l-8.333,-4.167Z" style="fill:#404e33;fill-rule:nonzero;"/><path d="M1081.494,1111.068c0,19.173 -12.143,28.324 -25,41.667c-18.376,16.667 -18.376,16.667 -33.333,16.667c19.25,-19.25 38.5,-38.5 58.333,-58.333Z" style="fill:#596351;fill-rule:nonzero;"/><path d="M1035.661,1173.568c3.125,7.292 3.125,7.292 4.167,16.667c-8.073,9.375 -8.073,9.375 -16.667,16.667c-5.5,-6.875 -11,-13.75 -16.667,-20.833c10.419,-12.502 11.408,-12.5 29.167,-12.5Z" style="fill:#4a5841;fill-rule:nonzero;"/><path d="M952.327,815.234c6.875,1.375 13.75,2.75 20.833,4.167l0,16.667l-12.5,0c-1.375,4.125 -2.75,8.25 -4.167,12.5c-5.5,-5.5 -11,-11 -16.667,-16.667c4.125,-1.375 8.25,-2.75 12.5,-4.167l0,-12.5Z" style="fill:#435139;fill-rule:nonzero;"/><path d="M910.661,715.234c0,15.58 -4.147,23.725 -13.542,35.938c-9.918,7.793 -20.272,10.59 -32.292,14.062c14.621,-17.434 29.503,-34.15 45.833,-50Z" style="fill:#596351;fill-rule:nonzero;"/><path d="M227.327,219.401c10.924,4.37 15.807,6.872 21.875,17.188c1.031,2.578 2.062,5.156 3.125,7.812c-4.167,4.167 -4.167,4.167 -14.844,4.427c-5.027,-0.129 -5.027,-0.129 -10.156,-0.26l0,-29.167Z" style="fill:#33402b;fill-rule:nonzero;"/><path d="M1506.494,11.068l4.167,0l0,45.833c-6.875,-1.375 -13.75,-2.75 -20.833,-4.167c3.125,-19.792 3.125,-19.792 12.5,-29.167c1.375,-4.125 2.75,-8.25 4.167,-12.5Z" style="fill:#394530;fill-rule:nonzero;"/><path d="M543.994,1165.234c8.25,2.062 8.25,2.062 16.667,4.167c-1.042,9.896 -1.042,9.896 -4.167,20.833c-8.594,5.469 -8.594,5.469 -16.667,8.333c-0.521,-23.958 -0.521,-23.958 4.167,-33.333Z" style="fill:#36422f;fill-rule:nonzero;"/><path d="M631.494,994.401c0,17.213 -5.949,24.244 -16.667,37.5c-13.542,5.729 -13.542,5.729 -25,8.333c13.365,-15.86 26.698,-31.44 41.667,-45.833Z" style="fill:#56604e;fill-rule:nonzero;"/><path d="M206.494,227.734c9.625,8.25 19.25,16.5 29.167,25c-6.875,5.5 -13.75,11 -20.833,16.667c-5.484,-15.082 -8.333,-25.399 -8.333,-41.667Z" style="fill:#dfe5da;fill-rule:nonzero;"/><path d="M35.661,173.568c9.625,1.375 19.25,2.75 29.167,4.167l0,8.333c-9.81,5.956 -14.501,8.694 -26.042,6.771c-2.406,-0.859 -4.812,-1.719 -7.292,-2.604c1.375,-5.5 2.75,-11 4.167,-16.667Z" style="fill:#d9e2d3;fill-rule:nonzero;"/><path d="M1476.025,175.13c3.18,0.859 6.359,1.719 9.635,2.604l0,12.5c-7.292,2.865 -7.292,2.865 -16.667,4.167c-9.375,-5.99 -9.375,-5.99 -16.667,-12.5c12.5,-8.333 12.5,-8.333 23.698,-6.771Z" style="fill:#dde4d5;fill-rule:nonzero;"/><path d="M1343.994,36.068c8.25,4.125 8.25,4.125 16.667,8.333c0.521,14.062 0.521,14.062 0,29.167c-2.75,2.75 -5.5,5.5 -8.333,8.333c-1.375,-8.25 -2.75,-16.5 -4.167,-25l-4.167,0l0,-20.833Z" style="fill:#34422c;fill-rule:nonzero;"/><path d="M1464.827,1352.734l0,50c-4.125,-1.375 -8.25,-2.75 -12.5,-4.167c-0.225,-6.075 -0.387,-12.152 -0.521,-18.229c-0.145,-5.076 -0.145,-5.076 -0.293,-10.254c0.793,-8.789 2.393,-17.35 13.314,-17.35Z" style="fill:#59644f;fill-rule:nonzero;"/><path d="M56.494,1294.401c4.125,1.375 8.25,2.75 12.5,4.167c-0.781,7.552 -0.781,7.552 -4.167,16.667c-10.677,7.292 -10.677,7.292 -20.833,12.5c3.125,-23.958 3.125,-23.958 12.5,-33.333Z" style="fill:#424e3a;fill-rule:nonzero;"/><path d="M1468.994,152.734l0,8.333c-8.25,1.375 -16.5,2.75 -25,4.167c1.375,6.875 2.75,13.75 4.167,20.833c-1.719,-2.578 -3.438,-5.156 -5.208,-7.812c-7.524,-9.136 -13.163,-12.72 -23.958,-17.188c5.156,-1.375 21.426,-5.714 24.414,-6.51c8.919,-1.823 8.919,-1.823 25.586,-1.823Z" style="fill:#495441;fill-rule:nonzero;"/><path d="M1331.494,31.901c4.125,2.75 8.25,5.5 12.5,8.333c-1.375,9.625 -2.75,19.25 -4.167,29.167l-8.333,0c-2.75,-9.625 -5.5,-19.25 -8.333,-29.167c2.75,-2.75 5.5,-5.5 8.333,-8.333Z" style="fill:#dbe2d4;fill-rule:nonzero;"/><path d="M1106.494,1202.734l0,12.5c-11,1.375 -22,2.75 -33.333,4.167l0,-12.5c19.271,-8.854 19.271,-8.854 33.333,-4.167Z" style="fill:#43523a;fill-rule:nonzero;"/><path d="M289.827,373.568c8.25,2.75 16.5,5.5 25,8.333c-4.125,1.375 -8.25,2.75 -12.5,4.167c-5.078,10.435 -5.078,10.435 -8.333,20.833c-5.5,-1.375 -11,-2.75 -16.667,-4.167l0,-8.333l16.667,0c-1.375,-6.875 -2.75,-13.75 -4.167,-20.833Z" style="fill:#4b5643;fill-rule:nonzero;"/><path d="M168.994,11.068l20.833,0c1.375,6.875 2.75,13.75 4.167,20.833c-12.375,-2.062 -12.375,-2.062 -25,-4.167l0,-16.667Z" style="fill:#35422a;fill-rule:nonzero;"/><path d="M668.994,706.901c1.375,6.875 2.75,13.75 4.167,20.833c-6.875,1.375 -13.75,2.75 -20.833,4.167c-1.592,-6.901 -2.975,-13.852 -4.167,-20.833c4.167,-4.167 4.167,-4.167 20.833,-4.167Z" style="fill:#44523b;fill-rule:nonzero;"/><path d="M48.161,152.734c8.363,1.195 16.702,2.578 25,4.167c-4.125,6.875 -8.25,13.75 -12.5,20.833c-4.125,-1.375 -8.25,-2.75 -12.5,-4.167c-3.125,-8.333 -3.125,-8.333 -4.167,-16.667c1.375,-1.375 2.75,-2.75 4.167,-4.167Z" style="fill:#404d36;fill-rule:nonzero;"/><path d="M943.994,415.234c0,12.5 0,12.5 -4.167,20.833l-8.333,0c7.812,-16.146 7.812,-16.146 12.5,-20.833Zm-20.833,20.833l8.333,0c-3.125,8.073 -3.125,8.073 -8.333,16.667c-8.854,3.125 -8.854,3.125 -16.667,4.167c5.336,-7.115 10.907,-14.057 16.667,-20.833Z" style="fill:#555f4e;fill-rule:nonzero;"/><path d="M35.661,48.568c9.625,1.375 19.25,2.75 29.167,4.167l0,16.667c-19.792,-7.813 -19.792,-7.813 -29.167,-12.5l0,-8.333Z" style="fill:#808f74;fill-rule:nonzero;"/><path d="M1273.161,1215.234c2.865,13.802 2.865,13.802 4.167,29.167c-5.99,8.073 -5.99,8.073 -12.5,12.5c-4.125,-1.375 -8.25,-2.75 -12.5,-4.167c2.148,-1.633 4.297,-3.266 6.51,-4.948c1.977,-2.492 3.953,-4.984 5.99,-7.552c-1.335,-10.845 -1.335,-10.845 -4.167,-20.833c4.167,-4.167 4.167,-4.167 12.5,-4.167Z" style="fill:#4a5941;fill-rule:nonzero;"/><path d="M498.161,1165.234c10.312,2.062 10.312,2.062 20.833,4.167l0,12.5c-5.5,1.375 -11,2.75 -16.667,4.167c-1.375,-6.875 -2.75,-13.75 -4.167,-20.833Z" style="fill:#f4f8ef;fill-rule:nonzero;"/><path d="M223.161,206.901c18.562,4.125 18.562,4.125 37.5,8.333c-5.5,5.5 -11,11 -16.667,16.667c-6.875,-8.25 -13.75,-16.5 -20.833,-25Z" style="fill:#d6dfd1;fill-rule:nonzero;"/><path d="M1452.327,40.234c8.333,12.5 8.333,12.5 8.333,29.167c-6.875,2.75 -13.75,5.5 -20.833,8.333c4.125,-12.375 8.25,-24.75 12.5,-37.5Z" style="fill:#505f44;fill-rule:nonzero;"/><path d="M518.994,1169.401l8.333,0c1.375,8.25 2.75,16.5 4.167,25c-5.5,1.375 -11,2.75 -16.667,4.167l0,-8.333c-2.75,-1.375 -5.5,-2.75 -8.333,-4.167c2.062,-1.977 4.125,-3.953 6.25,-5.99c6.731,-5.507 6.731,-5.507 6.25,-10.677Z" style="fill:#53614b;fill-rule:nonzero;"/><path d="M1006.494,1027.734l12.5,0l0,8.333l16.667,0c-2.75,5.5 -5.5,11 -8.333,16.667c-7.115,-5.336 -14.057,-10.907 -20.833,-16.667l0,-8.333Z" style="fill:#46543d;fill-rule:nonzero;"/><path d="M1289.827,211.068c-13.266,11.735 -23.981,15.513 -41.667,16.667c-2.75,-2.75 -5.5,-5.5 -8.333,-8.333c5.973,-2.216 11.966,-4.376 17.969,-6.51c3.335,-1.208 6.671,-2.417 10.107,-3.662c9.424,-2.327 9.424,-2.327 21.924,1.839Z" style="fill:#d5ddce;fill-rule:nonzero;"/><path d="M2.327,177.734c10.313,4.125 10.313,4.125 20.833,8.333c-1.375,6.875 -2.75,13.75 -4.167,20.833c-8.333,-5.208 -8.333,-5.208 -16.667,-12.5l0,-16.667Z" style="fill:#46533f;fill-rule:nonzero;"/><path d="M189.827,36.068c-1.375,9.625 -2.75,19.25 -4.167,29.167l-8.333,0c-1.589,-8.298 -2.972,-16.637 -4.167,-25c4.167,-4.167 4.167,-4.167 16.667,-4.167Z" style="fill:#e5eee0;fill-rule:nonzero;"/><path d="M402.327,977.734c5.5,2.75 11,5.5 16.667,8.333c-4.125,5.5 -8.25,11 -12.5,16.667c-8.333,-4.167 -8.333,-4.167 -12.5,-12.5c2.75,-4.125 5.5,-8.25 8.333,-12.5Z" style="fill:#333f28;fill-rule:nonzero;"/><path d="M1093.994,394.401c4.125,1.375 8.25,2.75 12.5,4.167c-4.125,1.375 -8.25,2.75 -12.5,4.167l0,-8.333Zm-25,4.167c16.667,0 16.667,0 25,8.333c-4.125,4.125 -8.25,8.25 -12.5,12.5c-6.25,-5.729 -6.25,-5.729 -12.5,-12.5l0,-8.333Z" style="fill:#35412d;fill-rule:nonzero;"/><path d="M1323.161,269.401l0,20.833l-8.333,0l0,-12.5c-4.125,1.375 -8.25,2.75 -12.5,4.167c-1.375,-4.125 -2.75,-8.25 -4.167,-12.5c10.379,-5.189 14.212,-3.236 25,0Z" style="fill:#37432d;fill-rule:nonzero;"/><path d="M477.327,1190.234c4.125,2.75 8.25,5.5 12.5,8.333l0,8.333c-10.52,5.26 -17.967,4.577 -29.688,4.427c-3.792,-0.038 -7.584,-0.075 -11.491,-0.114c-2.911,-0.048 -5.822,-0.097 -8.822,-0.146l0,-4.167l37.5,0l0,-16.667Z" style="fill:#d5ddce;fill-rule:nonzero;"/><path d="M931.494,1086.068c10.312,2.062 10.312,2.062 20.833,4.167c1.375,5.5 2.75,11 4.167,16.667c-12.5,0 -12.5,0 -19.531,-5.729c-5.469,-6.771 -5.469,-6.771 -5.469,-15.104Z" style="fill:#4f5c48;fill-rule:nonzero;"/><path d="M1210.661,1048.568c4.125,1.375 8.25,2.75 12.5,4.167l0,25c-5.5,1.375 -11,2.75 -16.667,4.167c1.375,-11 2.75,-22 4.167,-33.333Z" style="fill:#323f28;fill-rule:nonzero;"/><path d="M1114.827,473.568l8.333,0c1.716,15.012 0.64,19.933 -8.333,32.552c-2.75,3.008 -5.5,6.016 -8.333,9.115c1.909,-14.456 3.714,-27.808 8.333,-41.667Z" style="fill:#4d5845;fill-rule:nonzero;"/><path d="M152.327,1436.068c8.333,12.5 8.333,12.5 8.333,20.833l-20.833,0l0,-16.667c4.125,-1.375 8.25,-2.75 12.5,-4.167Z" style="fill:#405236;fill-rule:nonzero;"/><path d="M748.161,877.734c0,12.94 -2.247,18.136 -8.333,29.167c-5.5,-1.375 -11,-2.75 -16.667,-4.167c8.25,-8.25 16.5,-16.5 25,-25Z" style="fill:#4e5746;fill-rule:nonzero;"/><path d="M1077.327,561.068c2.75,2.75 5.5,5.5 8.333,8.333c-23.438,12.5 -23.438,12.5 -37.5,12.5c9.846,-10.525 15.269,-16.201 29.167,-20.833Z" style="fill:#35402b;fill-rule:nonzero;"/><path d="M1131.494,231.901l8.333,0c-1.302,14.062 -1.302,14.062 -4.167,29.167c-6.188,4.125 -6.188,4.125 -12.5,8.333c2.75,-12.375 5.5,-24.75 8.333,-37.5Z" style="fill:#505a4a;fill-rule:nonzero;"/><path d="M1306.494,223.568c1.375,4.125 2.75,8.25 4.167,12.5c-7.89,7.89 -16.022,14.249 -25,20.833c-2.75,-1.375 -5.5,-2.75 -8.333,-4.167c9.625,-9.625 19.25,-19.25 29.167,-29.167Z" style="fill:#c4ccbd;fill-rule:nonzero;"/><path d="M164.827,15.234c2.75,1.375 5.5,2.75 8.333,4.167c-4.125,6.187 -4.125,6.187 -8.333,12.5l-12.5,0l0,20.833l-4.167,0c-1.042,-11.719 -1.042,-11.719 0,-25c8.333,-7.812 8.333,-7.812 16.667,-12.5Z" style="fill:#575f4e;fill-rule:nonzero;"/><path d="M1039.827,586.068c2.75,5.5 5.5,11 8.333,16.667c-8.25,4.125 -8.25,4.125 -16.667,8.333c-2.75,-2.75 -5.5,-5.5 -8.333,-8.333c5.5,-5.5 11,-11 16.667,-16.667Z" style="fill:#57614e;fill-rule:nonzero;"/></svg>