<?xml version="1.0" encoding="UTF-8" standalone="no"?><!DOCTYPE svg PUBLIC "-//W3C//DTD SVG 1.1//EN" "http://www.w3.org/Graphics/SVG/1.1/DTD/svg11.dtd"><svg width="100%" height="100%" viewBox="0 0 1432 1478" version="1.1" xmlns="http://www.w3.org/2000/svg" xmlns:xlink="http://www.w3.org/1999/xlink" xml:space="preserve" xmlns:serif="http://www.serif.com/" style="fill-rule:evenodd;clip-rule:evenodd;stroke-linejoin:round;stroke-miterlimit:2;"><path d="M108.49,0.612c3.109,-0.029 6.218,-0.058 9.422,-0.088c10.351,-0.076 20.698,-0.033 31.049,0.009c7.449,-0.029 14.898,-0.066 22.347,-0.109c20.189,-0.094 40.376,-0.081 60.564,-0.044c16.877,0.021 33.754,-0.009 50.631,-0.039c39.833,-0.071 79.666,-0.056 119.499,0.014c41.034,0.07 82.066,0.005 123.1,-0.13c35.281,-0.111 70.561,-0.142 105.841,-0.106c21.049,0.02 42.097,0.012 63.146,-0.074c19.806,-0.077 39.61,-0.051 59.415,0.051c7.246,0.021 14.492,0.007 21.737,-0.046c47.937,-0.323 83.609,4.253 121.125,36.562c16.598,18.003 25.818,39.164 34.115,61.979c1.082,2.857 2.164,5.715 3.279,8.659c10.611,30.837 11.629,60.486 11.565,92.904c-0.002,2.864 -0.004,5.727 -0.006,8.678c-0.499,104.001 -25.063,205.452 -46.692,306.671c-23.663,110.813 -41.396,219.456 -26.479,333.089c2.476,-0.087 4.952,-0.175 7.503,-0.264c11.387,-0.35 22.773,-0.564 34.163,-0.777c3.894,-0.14 7.788,-0.279 11.8,-0.423c31.212,-0.437 52.725,5.563 76.562,26.025c23.021,27.502 35.565,51.466 34.456,88.037c-5.192,32.431 -22.096,61.647 -47.396,82.471c-34.55,19.458 -66.921,19.087 -105.501,18.652c-6.118,-0.023 -12.236,-0.041 -18.354,-0.054c-16.002,-0.047 -32.002,-0.17 -48.003,-0.309c-16.368,-0.129 -32.737,-0.185 -49.105,-0.248c-32.043,-0.134 -64.084,-0.347 -96.126,-0.61l0,41.667c2.876,-0.012 5.752,-0.023 8.715,-0.035c70.004,-0.276 140.008,-0.483 210.012,-0.613c33.854,-0.064 67.707,-0.152 101.561,-0.295c29.51,-0.125 59.019,-0.205 88.529,-0.233c15.623,-0.016 31.245,-0.055 46.867,-0.146c17.448,-0.101 34.894,-0.103 52.342,-0.097c7.755,-0.067 7.755,-0.067 15.666,-0.136c30.256,0.109 49.675,2.526 73.703,22.128c10.561,19.904 10.028,40.692 6.771,62.76c-5.447,11.726 -9.645,18.83 -20.247,26.27c-10.714,3.48 -19.55,3.714 -30.794,3.418c-3.717,-0.075 -7.434,-0.15 -11.263,-0.228c-4.222,-0.145 -4.222,-0.145 -8.529,-0.293c-2.604,-11.979 -2.604,-11.979 -4.167,-25c10.262,-10.262 19.612,-12.49 33.333,-16.667c1.043,-12.151 1.043,-12.151 0,-25c-11.694,-9.518 -11.694,-9.518 -24.74,-8.073c-12.976,3.164 -12.976,3.164 -22.656,11.458c-10.543,20.681 -9.821,40.54 -6.771,63.281c8.811,18.6 18.42,29.513 37.5,37.5c20.257,2.675 36.638,-0.094 54.46,-9.733c23.349,-20.135 33.04,-52.375 37.207,-81.934c0.58,-8.401 1.015,-16.813 1.318,-25.228c0.175,-4.619 0.349,-9.238 0.529,-13.997c0.246,-7.138 0.246,-7.138 0.496,-14.421c0.18,-4.855 0.36,-9.711 0.545,-14.714c0.44,-11.935 0.866,-23.871 1.278,-35.807c-2.833,-0.797 -5.665,-1.593 -8.584,-2.414c-3.731,-1.078 -7.462,-2.156 -11.306,-3.266c-5.538,-1.582 -5.538,-1.582 -11.188,-3.195c-13.954,-4.776 -23.915,-11.382 -35.59,-20.291c1.529,-11.033 2.786,-15.541 11.572,-22.705c2.97,-1.703 5.94,-3.405 9.001,-5.16c2.959,-1.735 5.919,-3.47 8.968,-5.257c5.373,-2.956 10.807,-5.802 16.292,-8.545c-2.917,-32.582 -9.152,-64.104 -15.885,-96.094c-1.116,-5.365 -2.231,-10.729 -3.38,-16.257c-5.938,-28.252 -12.203,-56.341 -19.536,-84.264c-6.096,-23.349 -10.039,-45.942 -11.198,-70.052c-2.911,-0.806 -5.822,-1.611 -8.822,-2.441c-3.792,-1.085 -7.584,-2.17 -11.491,-3.288c-3.771,-1.063 -7.541,-2.127 -11.426,-3.223c-9.928,-3.548 -9.928,-3.548 -18.262,-11.882c-0.26,-9.635 -0.26,-9.635 4.167,-20.833c4.985,-2.615 10.028,-5.12 15.104,-7.552c8.441,-4.874 8.441,-4.874 14.062,-13.281c1.408,-19.365 -1.022,-38.165 -3.233,-57.379c-6.72,-66.834 2.101,-123.69 32.399,-184.288l-300,0c1.375,-12.375 2.75,-24.75 4.167,-37.5c51.578,-0.387 103.155,-0.683 154.733,-0.864c23.952,-0.087 47.902,-0.205 71.853,-0.394c23.126,-0.181 46.251,-0.281 69.378,-0.324c8.811,-0.031 17.622,-0.091 26.433,-0.181c12.368,-0.121 24.732,-0.138 37.1,-0.13c3.62,-0.06 7.241,-0.12 10.971,-0.182c27.997,0.188 49.75,7.455 71.15,25.869c1.821,2.288 3.642,4.576 5.518,6.934c2.812,3.4 2.812,3.4 5.68,6.868c20.264,30.247 21.509,55.91 18.018,91.569c-6.637,28.385 -17.017,46.857 -41.667,62.5c-27.733,12.872 -50.932,14.057 -81.25,13.281c-4.222,-0.056 -8.443,-0.113 -12.793,-0.171c-10.321,-0.146 -20.638,-0.351 -30.957,-0.61c0.283,2.748 0.565,5.496 0.857,8.327c6.02,59.21 6.02,59.21 3.31,75.006c-10.417,10.938 -10.417,10.938 -20.833,16.667c6.928,3.155 6.928,3.155 13.995,6.373c13.108,7.546 14.953,9.777 21.212,24.567c1.247,5.671 2.362,11.372 3.367,17.091c0.643,3.072 1.286,6.144 1.948,9.309c2.057,9.947 3.944,19.919 5.832,29.9c1.385,6.837 2.782,13.671 4.192,20.503c2.774,13.476 5.497,26.961 8.184,40.455c5.399,26.823 11.931,53.353 18.526,79.902c4.484,18.352 7.919,36.451 10.244,55.234c0.424,3.153 0.849,6.306 1.286,9.554c0.537,7.894 0.537,7.894 -1.286,23.779c-12.5,10.417 -12.5,10.417 -25,16.667c8.045,9.24 8.045,9.24 20.833,12.76c12.5,8.073 12.5,8.073 15.498,15.398c5.415,25.982 6.725,51.067 6.638,77.571c0.067,4.018 0.134,8.035 0.203,12.174c0.035,52.184 -13.966,99.776 -50.382,137.76c-30.508,22.054 -58.138,25.817 -95.133,24.544c-4.203,-0.075 -8.406,-0.15 -12.736,-0.228c-10.255,-0.194 -20.502,-0.467 -30.754,-0.814c12.365,52.092 32.448,106.055 72.656,143.229c10.677,10.938 10.677,10.938 12.76,22.396c-2.083,9.375 -2.083,9.375 -10.417,17.708c-53.816,-3.666 -99.964,-35.03 -141.667,-66.667c-2.82,-2.095 -5.64,-4.189 -8.545,-6.348c-33.439,-26.597 -62.297,-64.827 -83.122,-101.986l0,-8.333c-5.407,0.037 -10.814,0.074 -16.385,0.112c-51.005,0.338 -102.011,0.588 -153.017,0.751c-26.222,0.087 -52.442,0.205 -78.664,0.394c-25.314,0.181 -50.628,0.281 -75.943,0.324c-9.648,0.031 -19.297,0.091 -28.945,0.181c-13.535,0.121 -27.067,0.138 -40.602,0.13c-3.971,0.06 -7.942,0.12 -12.034,0.182c-29.171,-0.179 -50.867,-6.876 -73.529,-25.576c-23.123,-28.102 -31.863,-53.728 -30.648,-90.348c3.69,-28.725 17.854,-46.48 39.844,-64.372c20.111,-13.848 36.548,-15.093 60.547,-16.048c3.303,-0.161 6.606,-0.322 10.01,-0.488c8.12,-0.391 16.243,-0.737 24.365,-1.074c2.75,-12.375 5.5,-24.75 8.333,-37.5c-22.538,-0.644 -45.049,-0.954 -67.596,-0.966c-7.655,-0.05 -15.31,-0.188 -22.961,-0.419c-45.139,-2.741 -45.139,-2.741 -83.801,16.119c-8.395,12.794 -14.997,25.588 -21.474,39.433c-45.436,61.998 -118.78,113.128 -191.667,137.5c-11.763,1.44 -21.458,1.12 -33.333,0c-3.109,-11.328 -3.109,-11.328 -4.167,-25c6.624,-9.505 6.624,-9.505 16.406,-18.75c41.162,-42.891 60.058,-91.64 75.26,-147.917c-2.981,0.087 -5.962,0.175 -9.033,0.264c-13.655,0.349 -27.309,0.564 -40.967,0.777c-4.689,0.14 -9.378,0.279 -14.209,0.423c-37.251,0.436 -63.519,-6.403 -92.025,-32.113c-46.959,-51.35 -55.301,-115.828 -54.443,-182.633c0.021,-3.071 0.041,-6.142 0.062,-9.306c0.53,-59.016 8.72,-114.81 21.187,-172.504c3.787,-17.828 7.338,-35.705 10.929,-53.574c7.185,-35.681 14.526,-71.327 21.94,-106.961c4.506,-21.729 8.85,-43.477 13.021,-65.272c0.913,-4.682 1.826,-9.365 2.767,-14.189c1.597,-8.229 3.148,-16.467 4.639,-24.715c3.85,-19.509 6.809,-32.023 23.633,-44.364c12.341,-6.02 19.531,-8.333 33.333,-8.333c-8.251,-8.709 -15.524,-14.457 -25.781,-21.094c-8.317,-6.917 -11.35,-10.381 -13.477,-21.094c-0.071,-11.058 0.818,-21.792 1.758,-32.812c0.36,-4.34 0.719,-8.679 1.089,-13.15c0.366,-4.378 0.731,-8.756 1.108,-13.266c0.37,-4.436 0.741,-8.872 1.122,-13.443c0.28,-3.347 0.559,-6.693 0.847,-10.141c-3.486,0.087 -6.972,0.175 -10.563,0.264c-13.077,0.286 -26.152,0.494 -39.231,0.651c-8.387,0.124 -16.772,0.336 -25.157,0.549c-35.465,0.356 -60.619,-0.741 -87.5,-25.879c-24.715,-35.287 -34.29,-65.265 -29.215,-108.919c8.814,-33.422 30.387,-60.615 58.946,-79.508c15.839,-8.851 30.3,-10.352 48.229,-10.137Z" style="fill:#404c36;fill-rule:nonzero;"/><path d="M192.983,40.257c82.544,-0.39 165.087,-0.683 247.632,-0.864c38.328,-0.086 76.656,-0.203 114.984,-0.394c33.413,-0.166 66.826,-0.274 100.239,-0.311c17.687,-0.022 35.372,-0.073 53.058,-0.194c16.662,-0.114 33.323,-0.148 49.986,-0.123c6.1,-0.005 12.201,-0.037 18.301,-0.102c33.355,-0.333 58.343,0.034 86.634,18.653c46.001,47.267 43.497,117.296 42.822,178.418c-1.265,46.827 -9.333,92.28 -17.822,138.249c-0.994,5.51 -1.986,11.021 -2.974,16.532c-10.036,55.837 -20.43,111.574 -33.131,166.875c-15.469,67.752 -22.962,133.495 -22.749,203.051c-0.016,5.312 -0.032,10.624 -0.049,16.097c0.005,5.151 0.011,10.302 0.016,15.609c0.007,6.927 0.007,6.927 0.014,13.993c0.572,14.516 2.562,28.484 4.706,42.843c-4.7,0.009 -4.7,0.009 -9.496,0.019c-76.264,0.154 -152.526,0.4 -228.789,0.748c-36.88,0.166 -73.76,0.301 -110.641,0.363c-32.147,0.054 -64.293,0.167 -96.439,0.348c-17.02,0.094 -34.039,0.16 -51.059,0.155c-16.027,-0.003 -32.051,0.072 -48.077,0.205c-5.875,0.035 -11.751,0.043 -17.626,0.019c-41.277,-1.024 -41.277,-1.024 -75.373,18.976c-12.889,13.134 -14.3,22.959 -14.323,41.146c0.576,22.473 3.024,34.196 18.49,50.521c14.889,11.699 31.899,9.224 50,8.333c5.401,-4.444 5.401,-4.444 4.427,-14.844c-0.086,-3.352 -0.172,-6.703 -0.26,-10.156c-3.537,-1.281 -3.537,-1.281 -7.145,-2.588c-4.584,-1.684 -4.584,-1.684 -9.261,-3.402c-3.045,-1.112 -6.091,-2.224 -9.229,-3.369c-7.699,-3.141 -7.699,-3.141 -11.865,-7.308c-1.889,-25.506 -1.889,-25.506 4.167,-37.24c13.551,-7.199 26.92,-6.995 41.667,-4.427c17.922,10.355 26.276,22.351 33.333,41.667c3.114,27.135 -2.467,47.46 -16.667,70.833c-17.568,17.568 -33.517,24.224 -58.073,26.563c-24.142,-0.77 -38.81,-14.206 -54.948,-30.99c-45.802,-55.78 -37.281,-144.42 -32.812,-212.24c3.745,-34.24 10.616,-67.87 17.696,-101.552c3.288,-15.842 6.357,-31.719 9.355,-47.618c11.788,-62.347 24.079,-124.598 37.492,-186.617c1.89,-8.941 3.633,-17.894 5.314,-26.876c6.298,-30.686 6.298,-30.686 19.727,-41.764c7.219,-1.934 7.219,-1.934 14.583,-3.906c5.849,-1.692 5.849,-1.692 11.816,-3.418c11.298,-3.224 22.622,-6.223 34.017,-9.082c-5.559,-17.46 -12.103,-25.442 -26.823,-36.198c-3.26,-2.422 -6.521,-4.845 -9.88,-7.34c-7.131,-5.046 -14.362,-9.949 -21.631,-14.795c-1,-15.246 -1.116,-28.12 2.074,-43.024c12.465,-66.381 5.459,-146.905 -31.436,-204.47c-3.971,-6.673 -3.971,-6.673 -3.971,-15.007Z" style="fill:#fdfefd;fill-rule:nonzero;"/><path d="M959.649,377.757c51.578,-0.387 103.155,-0.683 154.733,-0.864c23.952,-0.087 47.902,-0.205 71.853,-0.394c23.126,-0.181 46.251,-0.281 69.378,-0.324c8.811,-0.031 17.622,-0.091 26.433,-0.181c12.368,-0.121 24.732,-0.138 37.1,-0.13c3.62,-0.06 7.241,-0.12 10.971,-0.182c27.997,0.188 49.75,7.455 71.15,25.869c1.821,2.288 3.642,4.576 5.518,6.934c2.812,3.4 2.812,3.4 5.68,6.868c20.264,30.247 21.509,55.91 18.018,91.569c-6.637,28.385 -17.017,46.857 -41.667,62.5c-27.733,12.872 -50.932,14.057 -81.25,13.281c-4.222,-0.056 -8.443,-0.113 -12.793,-0.171c-10.321,-0.146 -20.638,-0.351 -30.957,-0.61c0.424,4.122 0.424,4.122 0.857,8.327c6.02,59.21 6.02,59.21 3.31,75.006c-10.417,10.938 -10.417,10.938 -20.833,16.667c6.928,3.155 6.928,3.155 13.995,6.373c13.108,7.546 14.953,9.777 21.212,24.567c1.247,5.671 2.362,11.372 3.367,17.091c0.964,4.608 0.964,4.608 1.948,9.309c2.057,9.947 3.944,19.919 5.832,29.9c1.385,6.837 2.782,13.671 4.192,20.503c2.774,13.476 5.497,26.961 8.184,40.455c5.399,26.823 11.931,53.353 18.526,79.902c4.484,18.352 7.919,36.451 10.244,55.234c0.636,4.729 0.636,4.729 1.286,9.554c0.537,7.894 0.537,7.894 -1.286,23.779c-12.5,10.417 -12.5,10.417 -25,16.667c8.045,9.24 8.045,9.24 20.833,12.76c12.5,8.073 12.5,8.073 15.498,15.398c5.415,25.982 6.725,51.067 6.638,77.571c0.067,4.018 0.134,8.035 0.203,12.174c0.035,52.184 -13.966,99.776 -50.382,137.76c-30.508,22.054 -58.138,25.817 -95.133,24.544c-4.203,-0.075 -8.406,-0.15 -12.736,-0.228c-10.255,-0.194 -20.502,-0.467 -30.754,-0.814c12.365,52.092 32.448,106.055 72.656,143.229c10.677,10.938 10.677,10.938 12.76,22.396c-2.083,9.375 -2.083,9.375 -10.417,17.708c-42.082,-2.775 -100.632,-26.328 -129.167,-58.333c-3.291,-13.208 -2.708,-24.232 0,-37.5l12.5,0c-2.02,-1.622 -4.039,-3.244 -6.12,-4.915c-37.158,-31.012 -66.23,-69.482 -89.714,-111.751l0,-8.333c-2.314,0.023 -4.628,0.046 -7.011,0.07c-56.375,0.553 -112.749,0.965 -169.125,1.225c-27.264,0.13 -54.526,0.307 -81.789,0.591c-26.314,0.272 -52.626,0.421 -78.941,0.486c-10.036,0.046 -20.071,0.136 -30.106,0.271c-14.066,0.182 -28.124,0.206 -42.191,0.195c-4.142,0.09 -8.284,0.18 -12.551,0.272c-24.514,-0.218 -38.102,-4.046 -56.006,-21.114c-14.198,-17.701 -15.721,-32.864 -15.296,-55.011c1.974,-15.076 8.129,-24.018 18.018,-35.319c14.289,-9.526 19.355,-9.366 36.149,-9.335c4.925,-0.011 9.851,-0.023 14.926,-0.035c5.41,0.03 10.819,0.06 16.393,0.091c5.749,0.002 11.498,0.001 17.247,-0.004c15.615,-0.002 31.23,0.047 46.845,0.105c16.316,0.052 32.631,0.057 48.947,0.067c30.9,0.026 61.8,0.094 92.7,0.178c35.177,0.093 70.354,0.139 105.531,0.181c72.365,0.087 144.73,0.234 217.096,0.419c-0.67,2.456 -1.34,4.911 -2.03,7.441c-7.501,32.395 -6.81,72.039 10.364,100.892c1.375,1.375 2.75,2.75 4.167,4.167c4.125,-12.375 4.125,-12.375 8.333,-25c14.495,4.141 24.937,8.288 37.24,17.188c15.857,9.708 23.58,10.343 41.927,7.812c19.042,-4.585 29.943,-11.544 40.853,-28.027c15.441,-29.774 21.759,-55.417 22.965,-88.867c0.175,-4.619 0.349,-9.238 0.529,-13.997c0.164,-4.759 0.328,-9.518 0.496,-14.421c0.27,-7.283 0.27,-7.283 0.545,-14.714c0.44,-11.935 0.866,-23.871 1.278,-35.807c-2.833,-0.797 -5.665,-1.593 -8.584,-2.414c-5.596,-1.617 -5.596,-1.617 -11.306,-3.266c-3.692,-1.054 -7.384,-2.109 -11.188,-3.195c-13.954,-4.776 -23.915,-11.382 -35.59,-20.291c1.529,-11.033 2.786,-15.541 11.572,-22.705c2.97,-1.703 5.94,-3.405 9.001,-5.16c2.959,-1.735 5.919,-3.47 8.968,-5.257c5.373,-2.956 10.807,-5.802 16.292,-8.545c-2.917,-32.582 -9.152,-64.104 -15.885,-96.094c-1.116,-5.365 -2.231,-10.729 -3.38,-16.257c-5.938,-28.252 -12.203,-56.341 -19.536,-84.264c-6.096,-23.349 -10.039,-45.942 -11.198,-70.052c-2.911,-0.806 -5.822,-1.611 -8.822,-2.441c-3.792,-1.085 -7.584,-2.17 -11.491,-3.288c-3.771,-1.063 -7.541,-2.127 -11.426,-3.223c-9.928,-3.548 -9.928,-3.548 -18.262,-11.882c-0.26,-9.635 -0.26,-9.635 4.167,-20.833c4.985,-2.615 10.028,-5.12 15.104,-7.552c8.441,-4.874 8.441,-4.874 14.062,-13.281c1.408,-19.365 -1.022,-38.165 -3.233,-57.379c-6.72,-66.834 2.101,-123.69 32.399,-184.288l-300,0c1.375,-12.375 2.75,-24.75 4.167,-37.5Z" style="fill:#414e37;fill-rule:nonzero;"/><path d="M313.816,886.09c82.001,-0.39 164.001,-0.683 246.002,-0.864c38.076,-0.086 76.152,-0.203 114.227,-0.394c33.193,-0.166 66.386,-0.274 99.58,-0.311c17.57,-0.022 35.139,-0.073 52.709,-0.194c16.553,-0.114 33.104,-0.148 49.657,-0.123c6.06,-0.005 12.12,-0.037 18.18,-0.102c33.136,-0.333 58.357,-0.183 86.311,18.653c14.09,16.61 19.264,32.49 18.001,54.248c-4.062,25.115 -15.398,42.194 -34.668,58.252c-14.436,6.904 -25.654,9.339 -41.594,9.101c-4.076,-0.038 -8.153,-0.076 -12.353,-0.115c-4.425,-0.083 -8.849,-0.165 -13.408,-0.25c-9.735,-0.107 -19.47,-0.214 -29.205,-0.32c-5.153,-0.07 -10.305,-0.141 -15.614,-0.213c-24.492,-0.299 -48.984,-0.375 -73.477,-0.471c-37.575,-0.149 -75.145,-0.361 -112.716,-0.955c-28.097,-0.444 -56.181,-0.58 -84.282,-0.538c-10.692,-0.036 -21.385,-0.176 -32.074,-0.424c-53.088,-3.8 -53.088,-3.8 -101.685,12.462c-14.448,15.55 -21.69,33.038 -29.426,52.556c-7.08,9.938 -14.732,17.94 -23.177,26.823c-1.928,2.028 -3.856,4.057 -5.842,6.146c-28.116,29.231 -56.388,51.379 -91.814,71.198c4.465,-11.428 9.157,-22.672 14.176,-33.87c18.717,-41.863 31.421,-82.841 35.824,-128.63c-13.75,-1.375 -27.5,-2.75 -41.667,-4.167c1.456,-3.164 2.911,-6.327 4.411,-9.587c1.896,-4.141 3.792,-8.282 5.745,-12.549c1.885,-4.109 3.771,-8.218 5.713,-12.451c6.554,-14.849 9.946,-26.881 10.433,-43.018c0.156,-3.319 0.312,-6.639 0.472,-10.059c-1.768,-12.295 -5.085,-20.635 -10.218,-31.858c-1.531,-3.369 -3.062,-6.738 -4.639,-10.21c-1.183,-2.564 -2.365,-5.128 -3.583,-7.769Z" style="fill:#fcfcfb;fill-rule:nonzero;"/><path d="M587.465,1139.255c4.925,-0.011 9.851,-0.023 14.926,-0.035c5.41,0.03 10.819,0.06 16.393,0.091c5.749,0.002 11.498,0.001 17.247,-0.004c15.615,-0.002 31.23,0.047 46.845,0.105c16.316,0.052 32.631,0.057 48.947,0.067c30.9,0.026 61.8,0.094 92.7,0.178c35.177,0.093 70.354,0.139 105.531,0.181c72.365,0.087 144.73,0.234 217.096,0.419c-0.67,2.462 -1.34,4.923 -2.03,7.46c-8.415,36.269 -3.9,75.332 10.364,109.207c-9.625,1.375 -19.25,2.75 -29.167,4.167c-1.923,46.155 12.219,82.577 29.167,125c2.385,5.97 2.385,5.97 4.818,12.061c1.16,2.895 2.32,5.79 3.516,8.773c-62.519,-22.17 -105.951,-86.176 -137.5,-141.667l0,-8.333c-2.314,0.023 -4.628,0.046 -7.011,0.07c-56.375,0.553 -112.749,0.965 -169.125,1.225c-27.264,0.13 -54.526,0.307 -81.789,0.591c-26.314,0.272 -52.626,0.421 -78.941,0.486c-10.036,0.046 -20.071,0.136 -30.106,0.271c-14.066,0.182 -28.124,0.206 -42.191,0.195c-6.213,0.135 -6.213,0.135 -12.551,0.272c-24.514,-0.218 -38.102,-4.046 -56.006,-21.114c-14.198,-17.701 -15.721,-32.864 -15.296,-55.011c1.974,-15.076 8.129,-24.018 18.018,-35.319c14.289,-9.526 19.355,-9.366 36.149,-9.335Z" style="fill:#fbfcfb;fill-rule:nonzero;"/><path d="M538.816,1119.944c8.505,3.721 16.816,7.595 25,11.979c0,12.5 0,12.5 -10.156,23.177c-3.523,3.352 -7.047,6.703 -10.677,10.156c-7.729,15.458 -6.058,33.13 -4.167,50c8.526,16.748 17.536,27.493 33.333,37.5c9.141,1.705 9.141,1.705 18.966,1.213c3.784,-0.044 7.568,-0.088 11.467,-0.134c4.121,-0.111 8.243,-0.221 12.489,-0.336c6.548,-0.097 6.548,-0.097 13.228,-0.196c9.483,-0.141 18.966,-0.306 28.448,-0.492c25.423,-0.455 50.848,-0.559 76.274,-0.731c32.347,-0.247 64.685,-0.595 97.026,-1.281c26.147,-0.545 52.279,-0.763 78.432,-0.766c9.945,-0.062 19.89,-0.243 29.831,-0.549c75.921,-2.254 75.921,-2.254 96.014,13.861c13.39,15.687 21.439,32.956 29.412,51.81c7.218,14.335 17.891,25.376 28.986,36.819c5.599,5.841 5.599,5.841 11.312,11.8c3.228,3.239 6.456,6.478 9.782,9.814c2.498,2.508 4.995,5.017 7.568,7.601c1.627,1.617 3.255,3.233 4.932,4.899c-5.5,-1.375 -11,-2.75 -16.667,-4.167c1.375,11 2.75,22 4.167,33.333c-43.377,-8.468 -74.924,-62.091 -98.177,-96.094c-10.156,-15.221 -10.156,-15.221 -10.156,-24.74c-5.407,0.037 -10.814,0.074 -16.385,0.112c-51.005,0.338 -102.011,0.588 -153.017,0.751c-26.222,0.087 -52.442,0.205 -78.664,0.394c-25.314,0.181 -50.628,0.281 -75.943,0.324c-9.648,0.031 -19.297,0.091 -28.945,0.181c-13.535,0.121 -27.067,0.138 -40.602,0.13c-3.971,0.06 -7.942,0.12 -12.034,0.182c-29.171,-0.179 -50.867,-6.876 -73.529,-25.576c-23.144,-28.128 -31.763,-53.687 -30.697,-90.316c2.938,-22.181 12.943,-37.847 26.481,-55.192c8.333,-5.99 8.333,-5.99 16.667,-5.469Z" style="fill:#3f4b34;fill-rule:nonzero;"/><path d="M126.316,40.257c20.267,9.943 32.629,23.802 45.833,41.667l0,8.333c-3.565,0.157 -3.565,0.157 -7.201,0.316c-10.708,0.482 -21.415,0.994 -32.122,1.507c-3.741,0.164 -7.482,0.328 -11.336,0.496c-5.338,0.262 -5.338,0.262 -10.783,0.529c-4.942,0.229 -4.942,0.229 -9.984,0.463c-7.799,0.046 -7.799,0.046 -11.907,5.022c-0.17,8.332 -0.177,16.669 0,25c5.93,1.805 5.93,1.805 11.979,3.646c13.021,4.688 13.021,4.688 21.354,13.021c1.823,14.062 1.823,14.062 0,29.167c-10.386,11.914 -17.415,15.924 -32.812,19.271c-18.439,-3.688 -30.163,-13.318 -42.188,-27.604c-11.899,-23.955 -12.847,-50.64 -5.615,-76.318c16.402,-37.098 44.969,-51.568 84.782,-44.515Z" style="fill:#f7f9f5;fill-rule:nonzero;"/><path d="M959.649,377.757l387.5,0l0,4.167l-87.5,0l0,20.833c-8.333,8.333 -8.333,8.333 -20.408,9.335c-5.163,-0.019 -10.326,-0.037 -15.645,-0.056c-2.846,0.001 -5.692,0.002 -8.624,0.004c-9.424,-0.006 -18.847,-0.071 -28.271,-0.136c-6.527,-0.016 -13.055,-0.027 -19.582,-0.036c-17.194,-0.032 -34.387,-0.114 -51.58,-0.206c-17.539,-0.085 -35.078,-0.123 -52.617,-0.165c-34.424,-0.089 -68.848,-0.232 -103.271,-0.407l0,-33.333Z" style="fill:#394630;fill-rule:nonzero;"/><path d="M1355.483,415.257c18.929,9.293 28.253,18.767 37.5,37.5c1.66,13.151 1.66,13.151 1.562,27.083c0.032,4.598 0.064,9.195 0.098,13.932c-1.823,14.439 -5.853,22.191 -14.16,33.984c-1.719,2.492 -3.438,4.984 -5.208,7.552c-12.021,8.157 -22.422,6.452 -36.458,4.948c-8.073,-4.688 -8.073,-4.688 -12.5,-12.5c-2.083,-12.5 -2.083,-12.5 0,-25c9.896,-7.552 9.896,-7.552 20.833,-12.5c2.75,-1.375 5.5,-2.75 8.333,-4.167c0.178,-6.942 0.169,-13.891 0,-20.833c-8.83,-8.83 -27.582,-5.91 -39.844,-6.51c-3.36,-0.18 -6.719,-0.36 -10.181,-0.545c-8.324,-0.443 -16.65,-0.863 -24.976,-1.278c13.594,-37.445 36.62,-48.407 75,-41.667Z" style="fill:#f7f9f5;fill-rule:nonzero;"/><path d="M155.483,127.757l33.333,0c8.212,20.531 9.083,36.584 8.333,58.333l-41.667,0l0,-58.333Z" style="fill:#ebefe8;fill-rule:nonzero;"/><path d="M172.149,86.09c1.375,2.75 2.75,5.5 4.167,8.333c-20.625,1.375 -41.25,2.75 -62.5,4.167c1.375,5.5 2.75,11 4.167,16.667l0,8.333c2.148,2.492 4.297,4.984 6.51,7.552c5.99,9.115 5.99,9.115 4.688,20.573c-0.945,3.094 -1.891,6.188 -2.865,9.375l-4.167,0c-1.16,-5.801 -1.16,-5.801 -2.344,-11.719c-6.437,-14.272 -7.599,-15.45 -21.094,-21.094c-4.641,-1.547 -9.281,-3.094 -14.062,-4.688c-0.521,-11.979 -0.521,-11.979 0,-25c9.987,-9.987 12.793,-9.512 26.465,-10.059c3.545,-0.161 7.09,-0.322 10.742,-0.488c5.559,-0.193 5.559,-0.193 11.23,-0.391c3.738,-0.161 7.477,-0.322 11.328,-0.488c9.244,-0.393 18.488,-0.75 27.734,-1.074Z" style="fill:#4f5947;fill-rule:nonzero;"/><rect x="1263.816" y="494.423" width="25" height="45.833" style="fill:#f6f9f4;fill-rule:nonzero;"/><path d="M230.483,936.09c24.479,3.646 24.479,3.646 29.167,8.333c0.169,6.942 0.178,13.891 0,20.833c-8.333,4.167 -8.333,4.167 -20.833,0c1.375,-8.25 2.75,-16.5 4.167,-25c-4.125,-1.375 -8.25,-2.75 -12.5,-4.167Z" style="fill:#4c5743;fill-rule:nonzero;"/><path d="M201.316,356.923c-4.167,12.5 -4.167,12.5 -12.5,16.667c-1.375,4.125 -2.75,8.25 -4.167,12.5c2.75,1.375 5.5,2.75 8.333,4.167c-5.5,1.375 -11,2.75 -16.667,4.167c1.302,-14.062 1.302,-14.062 4.167,-29.167c12.5,-8.333 12.5,-8.333 20.833,-8.333Z" style="fill:#4f5847;fill-rule:nonzero;"/><path d="M338.816,1165.257c-2.604,8.073 -2.604,8.073 -8.333,16.667c-13.021,3.125 -13.021,3.125 -25,4.167c3.352,-2.664 6.703,-5.328 10.156,-8.073c15.854,-12.76 15.854,-12.76 23.177,-12.76Z" style="fill:#4c5743;fill-rule:nonzero;"/><path d="M1209.649,669.423c2.75,5.5 5.5,11 8.333,16.667c-7.812,2.604 -7.812,2.604 -16.667,4.167c-2.75,-2.75 -5.5,-5.5 -8.333,-8.333c5.5,-4.125 11,-8.25 16.667,-12.5Z" style="fill:#454d3d;fill-rule:nonzero;"/><path d="M138.816,556.923c2.75,2.75 5.5,5.5 8.333,8.333c-1.562,15.104 -1.562,15.104 -4.167,29.167l-8.333,0c1.375,-12.375 2.75,-24.75 4.167,-37.5Z" style="fill:#515a4b;fill-rule:nonzero;"/></svg>