<?xml version="1.0" encoding="UTF-8" standalone="no"?><!DOCTYPE svg PUBLIC "-//W3C//DTD SVG 1.1//EN" "http://www.w3.org/Graphics/SVG/1.1/DTD/svg11.dtd"><svg width="100%" height="100%" viewBox="0 0 788 1328" version="1.1" xmlns="http://www.w3.org/2000/svg" xmlns:xlink="http://www.w3.org/1999/xlink" xml:space="preserve" xmlns:serif="http://www.serif.com/" style="fill-rule:evenodd;clip-rule:evenodd;stroke-linejoin:round;stroke-miterlimit:2;"><path d="M420.223,0.024c6.851,-0.061 13.703,-0.005 20.552,0.14c5.611,-0.005 5.611,-0.005 11.335,-0.009c12.38,0.015 24.753,0.177 37.132,0.34c8.577,0.039 17.153,0.069 25.73,0.089c22.585,0.08 45.168,0.284 67.753,0.515c23.041,0.213 46.082,0.308 69.124,0.413c45.219,0.224 90.435,0.579 135.653,1.017c-4.586,7.259 -9.179,14.514 -13.775,21.767c-2.557,4.041 -5.114,8.081 -7.748,12.244c-10.573,16.353 -21.896,32.074 -33.425,47.76c-4.745,6.514 -9.487,13.029 -14.225,19.548c-3.547,4.875 -3.547,4.875 -7.166,9.849c-10.875,15.028 -21.577,30.175 -32.255,45.343c-2.045,2.904 -4.089,5.807 -6.196,8.799c-4.121,5.856 -8.242,11.713 -12.361,17.57c-8.297,11.792 -16.613,23.571 -24.931,35.35c-4.148,5.874 -8.294,11.75 -12.439,17.627c-10.752,15.244 -21.527,30.47 -32.338,45.671c-2.226,3.137 -4.453,6.273 -6.746,9.505c-4.213,5.935 -8.434,11.866 -12.663,17.79c-1.931,2.723 -3.862,5.446 -5.851,8.252c-1.667,2.342 -3.335,4.684 -5.053,7.097c-9.365,13.926 -18.101,28.265 -26.995,42.496l212.5,0c-6.465,16.162 -11.306,26.049 -21.159,39.616c-11.444,15.996 -22.688,32.092 -33.724,48.372c-3.074,4.535 -6.149,9.07 -9.316,13.742c-1.59,2.349 -3.18,4.697 -4.818,7.117c-5.076,7.498 -10.156,14.993 -15.238,22.487c-14.495,21.381 -28.982,42.768 -43.467,64.155c-9,13.288 -18.003,26.573 -27.009,39.857c-5.049,7.451 -10.094,14.904 -15.138,22.358c-3.132,4.621 -6.263,9.241 -9.395,13.861c-2.704,3.992 -5.407,7.985 -8.193,12.098c-9.566,13.898 -19.403,27.607 -29.209,41.336c70.125,1.375 140.25,2.75 212.5,4.167c-7.96,13.267 -14.516,23.977 -24.105,35.547c-2.189,2.662 -4.379,5.324 -6.635,8.067c-2.317,2.795 -4.634,5.59 -7.021,8.47c-17.061,20.782 -33.951,41.643 -50.26,63.021c-13.928,18.252 -27.975,36.396 -42.188,54.427c-17.797,22.588 -35.485,45.258 -53.125,67.969c-17.64,22.711 -35.329,45.38 -53.125,67.969c-14.356,18.226 -28.592,36.536 -42.708,54.948c-14.116,18.412 -28.353,36.722 -42.708,54.948c-49.715,63.149 -99.234,126.38 -145.931,191.813c-6.149,8.11 -12.436,14.911 -19.694,21.989c5.757,-27.084 12.603,-53.619 20.312,-80.208c1.109,-3.852 2.218,-7.705 3.36,-11.674c7.128,-24.664 14.503,-49.238 22.161,-73.743c5.996,-19.488 11.686,-39.065 17.343,-58.655c4.233,-14.541 8.689,-28.96 13.547,-43.305c6.195,-18.505 11.949,-37.116 17.564,-55.803c2.01,-6.638 4.02,-13.276 6.03,-19.914c3.115,-10.302 6.225,-20.606 9.325,-30.913c3.028,-10.058 6.074,-20.111 9.124,-30.163c0.92,-3.077 1.841,-6.155 2.789,-9.325c4.374,-14.372 9.191,-26.954 15.945,-40.463l-179.167,0c3.623,-18.113 7.166,-27.97 15.755,-43.701c2.445,-4.515 4.889,-9.031 7.408,-13.683c2.696,-4.917 5.391,-9.834 8.087,-14.751c4.217,-7.765 8.425,-15.534 12.632,-23.304c2.958,-5.46 5.919,-10.919 8.883,-16.376c19.08,-35.146 37.743,-70.512 56.452,-105.857c4.314,-8.146 8.632,-16.29 12.951,-24.434c2.461,-4.647 4.921,-9.294 7.456,-14.082c9.397,-17.475 19.073,-34.8 28.709,-52.145c-74.25,-1.375 -148.5,-2.75 -225,-4.167c6.671,-20.012 14.238,-38.357 23.356,-57.243c3.066,-6.42 6.133,-12.84 9.199,-19.261c1.611,-3.36 3.223,-6.72 4.883,-10.181c26.554,-55.395 52.662,-110.966 77.926,-166.961c22.009,-48.761 44.457,-97.294 67.263,-145.688c17.739,-37.647 35.224,-75.389 51.957,-113.497c1.991,-4.501 1.991,-4.501 4.022,-9.093c1.108,-2.533 2.216,-5.067 3.357,-7.677c1.915,-3.91 1.915,-3.91 3.87,-7.899c1.387,-3.552 2.775,-7.103 4.204,-10.763c8.296,-10.071 8.296,-10.071 24.352,-12.576Z" style="fill:#fbfbfa;fill-rule:nonzero;"/><path d="M420.223,0.024c6.851,-0.061 13.703,-0.005 20.552,0.14c5.611,-0.005 5.611,-0.005 11.335,-0.009c12.38,0.015 24.753,0.177 37.132,0.34c8.577,0.039 17.153,0.069 25.73,0.089c22.585,0.08 45.168,0.284 67.753,0.515c23.041,0.213 46.082,0.308 69.124,0.413c45.219,0.224 90.435,0.579 135.653,1.017c-4.586,7.259 -9.179,14.514 -13.775,21.767c-2.557,4.041 -5.114,8.081 -7.748,12.244c-10.573,16.353 -21.896,32.074 -33.425,47.76c-4.745,6.514 -9.487,13.029 -14.225,19.548c-3.547,4.875 -3.547,4.875 -7.166,9.849c-10.875,15.028 -21.577,30.175 -32.255,45.343c-2.045,2.904 -4.089,5.807 -6.196,8.799c-4.121,5.856 -8.242,11.713 -12.361,17.57c-8.297,11.792 -16.613,23.571 -24.931,35.35c-4.148,5.874 -8.294,11.75 -12.439,17.627c-10.752,15.244 -21.527,30.47 -32.338,45.671c-2.226,3.137 -4.453,6.273 -6.746,9.505c-4.213,5.935 -8.434,11.866 -12.663,17.79c-1.931,2.723 -3.862,5.446 -5.851,8.252c-1.667,2.342 -3.335,4.684 -5.053,7.097c-9.365,13.926 -18.101,28.265 -26.995,42.496l212.5,0c-6.465,16.162 -11.306,26.049 -21.159,39.616c-11.444,15.996 -22.688,32.092 -33.724,48.372c-3.074,4.535 -6.149,9.07 -9.316,13.742c-1.59,2.349 -3.18,4.697 -4.818,7.117c-5.076,7.498 -10.156,14.993 -15.238,22.487c-14.495,21.381 -28.982,42.768 -43.467,64.155c-9,13.288 -18.003,26.573 -27.009,39.857c-5.049,7.451 -10.094,14.904 -15.138,22.358c-3.132,4.621 -6.263,9.241 -9.395,13.861c-2.704,3.992 -5.407,7.985 -8.193,12.098c-9.566,13.898 -19.403,27.607 -29.209,41.336c70.125,1.375 140.25,2.75 212.5,4.167c-7.96,13.267 -14.516,23.977 -24.105,35.547c-2.189,2.662 -4.379,5.324 -6.635,8.067c-2.317,2.795 -4.634,5.59 -7.021,8.47c-17.061,20.782 -33.951,41.643 -50.26,63.021c-13.928,18.252 -27.975,36.396 -42.188,54.427c-17.797,22.588 -35.485,45.258 -53.125,67.969c-17.64,22.711 -35.329,45.38 -53.125,67.969c-14.356,18.226 -28.592,36.536 -42.708,54.948c-14.116,18.412 -28.353,36.722 -42.708,54.948c-49.715,63.149 -99.234,126.38 -145.931,191.813c-6.149,8.11 -12.436,14.911 -19.694,21.989c5.757,-27.084 12.603,-53.619 20.312,-80.208c1.109,-3.852 2.218,-7.705 3.36,-11.674c7.128,-24.664 14.503,-49.238 22.161,-73.743c5.996,-19.488 11.686,-39.065 17.343,-58.655c4.233,-14.541 8.689,-28.96 13.547,-43.305c6.195,-18.505 11.949,-37.116 17.564,-55.803c2.01,-6.638 4.02,-13.276 6.03,-19.914c3.115,-10.302 6.225,-20.606 9.325,-30.913c3.028,-10.058 6.074,-20.111 9.124,-30.163c0.92,-3.077 1.841,-6.155 2.789,-9.325c4.374,-14.372 9.191,-26.954 15.945,-40.463l-179.167,0c3.623,-18.113 7.166,-27.97 15.755,-43.701c2.445,-4.515 4.889,-9.031 7.408,-13.683c2.696,-4.917 5.391,-9.834 8.087,-14.751c4.217,-7.765 8.425,-15.534 12.632,-23.304c2.958,-5.46 5.919,-10.919 8.883,-16.376c19.08,-35.146 37.743,-70.512 56.452,-105.857c4.314,-8.146 8.632,-16.29 12.951,-24.434c2.461,-4.647 4.921,-9.294 7.456,-14.082c9.397,-17.475 19.073,-34.8 28.709,-52.145c-74.25,-1.375 -148.5,-2.75 -225,-4.167c6.671,-20.012 14.238,-38.357 23.356,-57.243c3.066,-6.42 6.133,-12.84 9.199,-19.261c1.611,-3.36 3.223,-6.72 4.883,-10.181c26.554,-55.395 52.662,-110.966 77.926,-166.961c22.009,-48.761 44.457,-97.294 67.263,-145.688c17.739,-37.647 35.224,-75.389 51.957,-113.497c1.991,-4.501 1.991,-4.501 4.022,-9.093c1.108,-2.533 2.216,-5.067 3.357,-7.677c1.915,-3.91 1.915,-3.91 3.87,-7.899c1.387,-3.552 2.775,-7.103 4.204,-10.763c8.296,-10.071 8.296,-10.071 24.352,-12.576Zm8.944,40.005c-29.104,58.178 -29.104,58.178 -57.552,116.667c-3.174,6.619 -3.174,6.619 -6.413,13.372c-20.269,42.42 -39.839,85.147 -59.324,127.931c-8.203,17.952 -16.484,35.868 -24.77,53.782c-8.338,18.029 -16.652,36.068 -24.965,54.108c-4.124,8.935 -8.257,17.867 -12.398,26.794c-5.922,12.769 -11.815,25.551 -17.702,38.336c-1.794,3.849 -3.589,7.698 -5.437,11.664c-1.622,3.536 -3.243,7.072 -4.914,10.716c-1.427,3.085 -2.855,6.171 -4.325,9.35c-3.76,8.622 -3.76,8.622 -3.031,20.615c74.25,1.375 148.5,2.75 225,4.167c-70.312,132.685 -70.312,132.685 -97.656,182.552c-15.926,29.055 -31.666,58.199 -47.135,87.5c-1.796,3.391 -3.593,6.782 -5.443,10.275c-8.428,13.366 -8.428,13.366 -12.265,28.006l170.833,0c-8.25,22.687 -8.25,22.687 -16.667,45.833c-8.048,24.262 -15.181,48.801 -22.103,73.405c-0.975,3.463 -1.95,6.926 -2.955,10.494c-2.057,7.304 -4.109,14.609 -6.158,21.916c-10.162,35.774 -21.669,71.092 -33.566,106.323c-1.39,4.212 -2.78,8.425 -4.211,12.764c-1.259,3.742 -2.518,7.483 -3.816,11.338c-3.198,10.178 -3.198,10.178 1.977,22.093c2.812,-3.948 2.812,-3.948 5.68,-7.975c28.595,-39.77 58.896,-78.115 89.632,-116.243c14.526,-18.099 28.638,-36.495 42.708,-54.948c37.359,-48.993 75.03,-97.739 113.542,-145.833c2.037,-2.545 4.075,-5.09 6.174,-7.712c9.206,-11.478 18.457,-22.912 27.778,-34.297c3.062,-3.754 6.123,-7.509 9.277,-11.377c2.643,-3.207 5.285,-6.413 8.008,-9.717c6.342,-7.276 6.342,-7.276 5.534,-16.064c-101.062,-2.063 -101.062,-2.063 -204.167,-4.167c39.392,-57.967 78.813,-115.913 118.424,-173.73c6.885,-10.055 13.762,-20.115 20.638,-30.176c2.334,-3.414 4.668,-6.829 7.073,-10.346c4.594,-6.721 9.186,-13.444 13.776,-20.168c10.246,-14.992 20.534,-29.948 30.991,-44.795c1.771,-2.522 3.542,-5.045 5.367,-7.644c4.683,-6.654 9.39,-13.292 14.099,-19.928c7.045,-9.098 7.045,-9.098 6.299,-18.213l-216.667,0c16.5,-23.375 33,-46.75 50,-70.833c9.329,-13.605 18.63,-27.218 27.865,-40.885c17.322,-25.489 35.181,-50.357 53.89,-74.854c15.519,-20.694 29.796,-42.283 44.321,-63.678c14.912,-21.936 30.192,-43.491 45.914,-64.854c20.646,-24.061 20.646,-24.061 32.178,-51.562l-283.333,0Z" style="fill:#3c4632;fill-rule:nonzero;"/><path d="M454.167,77.529c8.594,1.823 8.594,1.823 16.667,4.167c2.317,24.019 -5.477,39.75 -15.853,60.677c-1.646,3.421 -3.293,6.841 -4.989,10.365c-5.335,11.063 -10.736,22.093 -16.137,33.124c-5.482,11.324 -10.948,22.657 -16.413,33.99c-3.599,7.463 -7.203,14.923 -10.813,22.38c-15.649,32.373 -30.606,65.017 -45.095,97.927c-10.69,24.026 -10.69,24.026 -19.867,33.203c-10.938,-1.562 -10.938,-1.562 -20.833,-4.167c2.317,-17.848 6.539,-31.848 14.518,-47.949c3.231,-6.6 3.231,-6.6 6.528,-13.333c2.336,-4.699 4.672,-9.397 7.079,-14.238c4.928,-10.06 9.85,-20.124 14.762,-30.192c1.266,-2.588 2.532,-5.177 3.837,-7.844c16.456,-33.722 32.099,-67.82 47.795,-101.9c32.036,-69.433 32.036,-69.433 38.814,-76.211Z" style="fill:#3e4734;fill-rule:nonzero;"/><path d="M4.167,1060.863c24.317,1.418 36.557,7.997 52.865,25.277c2.109,2.135 4.218,4.269 6.391,6.469c6.698,6.809 13.303,13.702 19.911,20.598c4.432,4.522 8.87,9.039 13.314,13.55c12.379,12.62 24.557,25.413 36.686,38.273c3.174,3.329 6.349,6.659 9.619,10.089c2.669,2.896 5.339,5.791 8.089,8.775c2.256,2.433 4.512,4.866 6.836,7.372c4.622,7.097 4.622,7.097 4.622,23.764c-38.573,-5.969 -76.093,-53.852 -104.053,-79.964c-12.851,-11.984 -26.004,-23.584 -39.339,-35.026c-2.181,-1.928 -4.361,-3.856 -6.608,-5.843c-2.379,-2.084 -4.759,-4.168 -7.21,-6.315c-2.618,-3.062 -2.618,-3.062 -5.29,-6.185c1.302,-11.198 1.302,-11.198 4.167,-20.833Z" style="fill:#414a37;fill-rule:nonzero;"/><path d="M266.667,840.029l170.833,0c-4.688,32.812 -4.688,32.812 -12.5,45.833c-2.062,-4.125 -2.062,-4.125 -4.167,-8.333c3.906,-10.938 3.906,-10.938 8.333,-20.833c-20.897,1.373 -20.897,1.373 -37.5,12.5l0,4.167l-179.167,0l0,-4.167c41.25,-2.062 41.25,-2.062 83.333,-4.167c-9.625,-1.375 -19.25,-2.75 -29.167,-4.167l0,-8.333c2.75,-1.375 5.5,-2.75 8.333,-4.167c-2.75,-2.75 -5.5,-5.5 -8.333,-8.333Z" style="fill:#343e2a;fill-rule:nonzero;"/><path d="M575,1098.363c2.062,10.312 2.062,10.312 4.167,20.833c-28.595,22.986 -58.333,43.904 -88.802,64.323c-4.461,3.048 -8.921,6.096 -13.517,9.237c-4.289,2.876 -8.578,5.752 -12.996,8.716c-3.863,2.607 -7.727,5.215 -11.708,7.901c-10.477,5.657 -10.477,5.657 -27.143,5.657c0.747,-15.968 3.787,-20.48 15.723,-31.576c4.962,-3.765 9.967,-7.473 15.007,-11.133c5.32,-4.01 10.637,-8.025 15.951,-12.044c3.992,-2.985 3.992,-2.985 8.065,-6.03c11.349,-8.61 22.299,-17.638 33.276,-26.717c6.75,-5.581 13.519,-11.139 20.312,-16.667c2.89,-2.39 5.779,-4.78 8.757,-7.243c11.059,-7.35 19.952,-6.141 32.91,-5.257Z" style="fill:#3f4834;fill-rule:nonzero;"/><path d="M558.333,773.363c10.938,1.562 10.938,1.562 20.833,4.167c-2.283,15.207 -5.847,25.015 -14.958,37.37c-2.219,3.043 -4.437,6.085 -6.723,9.22c-2.384,3.188 -4.769,6.375 -7.226,9.66c-2.43,3.295 -4.86,6.59 -7.364,9.985c-4.953,6.695 -9.924,13.376 -14.914,20.044c-6.517,8.709 -12.975,17.459 -19.421,26.221c-3.63,4.865 -7.264,9.726 -10.905,14.583c-3.185,4.254 -6.37,8.508 -9.652,12.891c-8.297,9.412 -13.925,13.948 -25.505,18.359c4.108,-19.094 13.174,-34.388 22.656,-51.302c1.837,-3.292 3.674,-6.585 5.566,-9.977c43.78,-77.39 43.78,-77.39 67.611,-101.221Z" style="fill:#404936;fill-rule:nonzero;"/><path d="M175,1048.363c6.981,1.192 13.933,2.574 20.833,4.167c2.956,8.867 5.911,17.735 8.862,26.603c2.347,7.03 4.706,14.056 7.08,21.077c3.416,10.132 6.762,20.286 10.099,30.444c1.171,3.432 2.342,6.864 3.548,10.4c10.057,30.916 10.057,30.916 3.743,48.975c-7.596,-0.566 -7.596,-0.566 -16.667,-4.167c-6.166,-10.47 -6.166,-10.47 -11.8,-24.284c-3.049,-7.452 -3.049,-7.452 -6.16,-15.055c-1.538,-3.908 -1.538,-3.908 -3.108,-7.896c-3.13,-7.921 -6.382,-15.783 -9.653,-23.647c-17.248,-42.902 -17.248,-42.902 -10.946,-62.451c1.375,-1.375 2.75,-2.75 4.167,-4.167Z" style="fill:#3d4633;fill-rule:nonzero;"/><path d="M558.333,1240.029c2.75,2.75 5.5,5.5 8.333,8.333c-1.562,10.938 -1.562,10.938 -4.167,20.833c-21.107,7.855 -41.916,11.692 -64.062,15.104c-3.384,0.559 -6.768,1.117 -10.254,1.693c-21.331,3.35 -41.595,4.582 -63.184,4.036l0,-16.667c25.091,-8.828 50.462,-16.433 76.042,-23.698c3.252,-0.944 6.503,-1.887 9.853,-2.859c31.533,-8.839 31.533,-8.839 47.439,-6.776Z" style="fill:#49513f;fill-rule:nonzero;"/><path d="M16.667,1227.529c30.275,1.463 55.102,9.59 83.073,20.833c3.934,1.536 7.869,3.072 11.922,4.655c27.761,10.89 27.761,10.89 38.338,16.178c-1.375,5.5 -2.75,11 -4.167,16.667c-34.979,-1.612 -66.648,-10.663 -100,-20.833c-5.364,-1.486 -10.73,-2.967 -16.097,-4.443c-13.07,-3.89 -13.07,-3.89 -17.236,-8.057c-0.521,-10.417 -0.521,-10.417 0,-20.833c1.375,-1.375 2.75,-2.75 4.167,-4.167Z" style="fill:#3b4531;fill-rule:nonzero;"/><path d="M295.833,410.863l20.833,0c4.92,11.952 4.18,16.629 -0.163,29.085c-3.271,6.615 -3.271,6.615 -6.608,13.363c-2.116,4.442 -4.232,8.884 -6.413,13.46c-7.65,10.758 -7.65,10.758 -18.945,14.355c-4.721,0.282 -4.721,0.282 -9.538,0.57c-4.531,-13.957 -4.531,-19.901 0.895,-33.805c2.369,-4.399 4.737,-8.798 7.178,-13.33c2.358,-4.453 4.716,-8.905 7.145,-13.493c1.853,-3.368 3.706,-6.735 5.615,-10.205Z" style="fill:#434b38;fill-rule:nonzero;"/><path d="M316.667,1231.696c1.375,4.125 2.75,8.25 4.167,12.5c-5.859,8.87 -5.859,8.87 -14.583,19.01c-17.269,20.644 -32.777,42.086 -47.917,64.323c-4.503,-13.508 -4.017,-16.238 -0.016,-29.215c0.953,-3.156 1.907,-6.311 2.889,-9.562c1.029,-3.274 2.057,-6.547 3.117,-9.92c1.012,-3.322 2.025,-6.644 3.068,-10.067c2.504,-8.199 5.052,-16.385 7.609,-24.569c1.375,4.125 2.75,8.25 4.167,12.5l8.333,0l0,-12.5c9.625,-4.125 19.25,-8.25 29.167,-12.5Z" style="fill:#424b38;fill-rule:nonzero;"/><path d="M91.667,1248.363c6.603,1.89 13.199,3.805 19.792,5.729c3.674,1.063 7.348,2.127 11.133,3.223c9.746,3.219 18.386,7.033 27.409,11.882c-1.375,5.5 -2.75,11 -4.167,16.667c-29.297,-1.808 -55.538,-7.263 -83.333,-16.667c1.375,-4.125 2.75,-8.25 4.167,-12.5l25,0l0,-8.333Z" style="fill:#404936;fill-rule:nonzero;"/><path d="M145.833,560.863l229.167,0c-2.75,6.875 -5.5,13.75 -8.333,20.833c-2.75,-4.125 -5.5,-8.25 -8.333,-12.5c-9.399,-1.984 -9.399,-1.984 -20.453,-1.802c-6.381,-0.124 -6.381,-0.124 -12.89,-0.25c-4.605,-0.027 -9.21,-0.053 -13.955,-0.081c-4.705,-0.075 -9.41,-0.15 -14.257,-0.227c-15.072,-0.226 -30.143,-0.367 -45.215,-0.506c-10.2,-0.138 -20.399,-0.282 -30.599,-0.431c-25.043,-0.355 -50.086,-0.639 -75.13,-0.871l0,-4.167Z" style="fill:#edf1e8;fill-rule:nonzero;"/><path d="M462.5,1173.363c-1.375,5.5 -2.75,11 -4.167,16.667c6.875,-1.375 13.75,-2.75 20.833,-4.167c-11.467,12.316 -22.397,21.615 -37.5,29.167l-16.667,0c0.635,-11.113 2.057,-18.544 9.717,-26.855c17.393,-14.811 17.393,-14.811 27.783,-14.811Z" style="fill:#454c3b;fill-rule:nonzero;"/><path d="M458.333,1265.029l0,8.333l12.5,0l0,8.333l25,0l0,4.167c-35.062,2.062 -35.062,2.062 -70.833,4.167l0,-16.667c12.108,-5.236 19.984,-8.333 33.333,-8.333Z" style="fill:#485040;fill-rule:nonzero;"/><path d="M220.833,1144.196c9.568,14.352 10.584,24.742 12.5,41.667c-5.5,1.375 -11,2.75 -16.667,4.167c-4.125,-9.625 -8.25,-19.25 -12.5,-29.167c5.5,-2.75 11,-5.5 16.667,-8.333l0,-8.333Z" style="fill:#505845;fill-rule:nonzero;"/><path d="M566.667,1248.363c-3.646,20.312 -3.646,20.312 -8.333,25c-9.721,0.171 -19.446,0.177 -29.167,0c5.5,-4.125 11,-8.25 16.667,-12.5l-25,0l0,-8.333c6.068,-1.511 12.146,-2.978 18.229,-4.427c5.076,-1.233 5.076,-1.233 10.254,-2.49c9.017,-1.416 9.017,-1.416 17.35,2.751Z" style="fill:#3a432f;fill-rule:nonzero;"/><path d="M329.167,335.863c8.333,4.167 16.667,8.333 25,12.5c-2.865,10.156 -2.865,10.156 -8.333,20.833c-10.938,3.385 -10.938,3.385 -20.833,4.167c-3.374,-12.145 -5.077,-18.588 -0.26,-30.469c1.461,-2.32 2.922,-4.641 4.427,-7.031Z" style="fill:#444b39;fill-rule:nonzero;"/><path d="M116.667,1256.696c11,4.125 22,8.25 33.333,12.5c-1.375,5.5 -2.75,11 -4.167,16.667c-13.75,-1.375 -27.5,-2.75 -41.667,-4.167c4.125,-4.125 8.25,-8.25 12.5,-12.5l0,-12.5Z" style="fill:#505948;fill-rule:nonzero;"/><path d="M175,1048.363c10.938,1.562 10.938,1.562 20.833,4.167c1.375,5.5 2.75,11 4.167,16.667c-4.039,0.516 -8.078,1.031 -12.24,1.562c-6.316,1.289 -6.316,1.289 -12.76,2.604c-1.375,2.75 -2.75,5.5 -4.167,8.333c-2.604,-11.979 -2.604,-11.979 -4.167,-25c2.75,-2.75 5.5,-5.5 8.333,-8.333Z" style="fill:#4c5442;fill-rule:nonzero;"/><path d="M270.833,1273.363l8.333,0c3.125,9.115 3.125,9.115 4.167,20.833c-8.41,12.615 -18.465,22.693 -29.167,33.333c1.187,-5.909 2.409,-11.81 3.646,-17.708c0.677,-3.287 1.354,-6.574 2.051,-9.961c2.601,-9.699 6.172,-17.707 10.97,-26.497Z" style="fill:#53584b;fill-rule:nonzero;"/><path d="M625,165.029c2.75,5.5 5.5,11 8.333,16.667c-3.008,2.922 -6.016,5.844 -9.115,8.854c-11.711,11.678 -22.115,24.157 -32.552,36.979c-2.75,-1.375 -5.5,-2.75 -8.333,-4.167c13.75,-19.25 27.5,-38.5 41.667,-58.333Z" style="fill:#464d3d;fill-rule:nonzero;"/><path d="M650,752.529c2.75,4.125 5.5,8.25 8.333,12.5c-1.375,2.406 -2.75,4.812 -4.167,7.292c-5.295,10.203 -5.295,10.203 -4.167,26.042c-8.25,-2.75 -16.5,-5.5 -25,-8.333c7.659,-13.131 15.666,-25.499 25,-37.5Z" style="fill:#424b3a;fill-rule:nonzero;"/><path d="M462.5,1260.863l25,0l0,8.333c2.75,1.375 5.5,2.75 8.333,4.167l0,8.333l-25,0l0,-8.333l-12.5,0c1.375,-4.125 2.75,-8.25 4.167,-12.5Z" style="fill:#3b4532;fill-rule:nonzero;"/><path d="M404.167,227.529l0,16.667l-8.333,0c-2.062,2.062 -4.125,4.125 -6.25,6.25c-6.25,6.25 -6.25,6.25 -14.583,6.25c1.302,-9.896 1.302,-9.896 4.167,-20.833c12.5,-8.333 12.5,-8.333 25,-8.333Z" style="fill:#37402b;fill-rule:nonzero;"/><path d="M470.833,985.863c14.438,8.25 14.438,8.25 29.167,16.667c-2.75,5.5 -5.5,11 -8.333,16.667c-1.375,-2.75 -2.75,-5.5 -4.167,-8.333l-8.333,0c-6.771,-6.25 -6.771,-6.25 -12.5,-12.5c1.375,-4.125 2.75,-8.25 4.167,-12.5Z" style="fill:#333d2a;fill-rule:nonzero;"/><path d="M454.167,77.529c5.5,1.375 11,2.75 16.667,4.167l0,25c-8.25,-4.125 -16.5,-8.25 -25,-12.5c2.75,-5.5 5.5,-11 8.333,-16.667Z" style="fill:#4d5445;fill-rule:nonzero;"/><path d="M737.5,702.529c-2.75,5.5 -5.5,11 -8.333,16.667c-4.125,-1.375 -8.25,-2.75 -12.5,-4.167l0,8.333c-8.333,-4.167 -8.333,-4.167 -12.5,-16.667c11.287,-5.643 20.872,-4.438 33.333,-4.167Z" style="fill:#434c39;fill-rule:nonzero;"/><path d="M287.5,1202.529c8.333,8.333 8.333,8.333 8.854,23.438c-0.172,4.641 -0.344,9.281 -0.521,14.062c-5.5,1.375 -11,2.75 -16.667,4.167c2.75,-13.75 5.5,-27.5 8.333,-41.667Z" style="fill:#4a5142;fill-rule:nonzero;"/><path d="M320.833,1106.696c2.75,1.375 5.5,2.75 8.333,4.167l0,41.667l-8.333,0c-5.357,-30.952 -5.357,-30.952 0,-45.833Z" style="fill:#2f3924;fill-rule:nonzero;"/><path d="M258.333,310.863c5.846,13.287 3.766,17.722 -1.562,31.771c-3.604,7.486 -7.222,14.965 -10.938,22.396l-8.333,0c5.909,-18.635 12.971,-36.298 20.833,-54.167Z" style="fill:#485040;fill-rule:nonzero;"/><path d="M554.167,1265.029c-7.031,6.51 -7.031,6.51 -16.667,12.5c-11.458,-1.302 -11.458,-1.302 -20.833,-4.167c1.375,-4.125 2.75,-8.25 4.167,-12.5c19.271,-5.208 19.271,-5.208 33.333,4.167Z" style="fill:#444d37;fill-rule:nonzero;"/><path d="M575,552.529c1.375,4.125 2.75,8.25 4.167,12.5c2.75,1.375 5.5,2.75 8.333,4.167c-19.792,16.667 -19.792,16.667 -29.167,16.667c4.685,-12.383 9.262,-22.227 16.667,-33.333Z" style="fill:#464e3e;fill-rule:nonzero;"/><path d="M420.833,523.363c5.5,1.375 11,2.75 16.667,4.167c-4.125,8.25 -8.25,16.5 -12.5,25c-4.125,-1.375 -8.25,-2.75 -12.5,-4.167c2.75,-8.25 5.5,-16.5 8.333,-25Z" style="fill:#4b5144;fill-rule:nonzero;"/><path d="M470.833,381.696c1.375,2.75 2.75,5.5 4.167,8.333c4.125,1.375 8.25,2.75 12.5,4.167l-8.333,0c-1.375,4.125 -2.75,8.25 -4.167,12.5l-16.667,0c4.167,-8.333 8.333,-16.667 12.5,-25Z" style="fill:#484e41;fill-rule:nonzero;"/><path d="M316.667,1106.696c4.334,14.084 4.5,26.992 4.167,41.667l-12.5,0c1.909,-14.456 3.714,-27.808 8.333,-41.667Z" style="fill:#565d4e;fill-rule:nonzero;"/><path d="M150,1194.196c5.5,2.75 11,5.5 16.667,8.333c-1.375,4.125 -2.75,8.25 -4.167,12.5c-5.5,-1.375 -11,-2.75 -16.667,-4.167c1.375,-5.5 2.75,-11 4.167,-16.667Z" style="fill:#4c5041;fill-rule:nonzero;"/><path d="M329.167,335.863c8.333,12.5 8.333,12.5 6.771,23.698c-0.859,3.18 -1.719,6.359 -2.604,9.635l-12.5,0c3.646,-23.958 3.646,-23.958 8.333,-33.333Z" style="fill:#575e4d;fill-rule:nonzero;"/></svg>