<?xml version="1.0" encoding="UTF-8" standalone="no"?><!DOCTYPE svg PUBLIC "-//W3C//DTD SVG 1.1//EN" "http://www.w3.org/Graphics/SVG/1.1/DTD/svg11.dtd"><svg width="100%" height="100%" viewBox="0 0 1370 1353" version="1.1" xmlns="http://www.w3.org/2000/svg" xmlns:xlink="http://www.w3.org/1999/xlink" xml:space="preserve" xmlns:serif="http://www.serif.com/" style="fill-rule:evenodd;clip-rule:evenodd;stroke-linejoin:round;stroke-miterlimit:2;"><path d="M922.135,17.75c6.453,1.805 6.453,1.805 13.037,3.646c59.366,17.707 120.317,51.266 159.985,99.995c10.332,12.184 17.721,20.212 33.634,23.8c12.446,0.763 24.63,0.783 37.093,0.424c30.95,-0.535 51.386,-0.33 77.083,17.969c2.621,-2.718 5.242,-5.436 7.943,-8.236c17.778,-11.627 31.721,-10.597 52.474,-9.993c5.261,0.008 5.261,0.008 10.628,0.016c40.483,0.574 40.483,0.574 53.955,14.046c0.425,11.066 0.581,22.021 0.553,33.089c0.009,5.142 0.009,5.142 0.019,10.388c0.01,11.289 -0.016,22.578 -0.051,33.867c-0.009,3.828 -0.018,7.656 -0.028,11.599c-0.077,27.298 -0.262,54.594 -0.493,81.89c-0.026,3.497 -0.052,6.995 -0.079,10.598c-0.148,18.882 -0.39,37.758 -0.794,56.636c-0.165,8.382 -0.256,16.766 -0.346,25.15c-1.209,45.364 -1.209,45.364 -19.615,65.95c-2.75,4.125 -5.5,8.25 -8.333,12.5c4.061,2.6 8.122,5.201 12.306,7.88c8.259,6.951 12.166,11.033 15.048,21.522c0.844,10.738 0.929,21.246 0.749,32.017c0.03,4.068 0.061,8.136 0.092,12.327c0.068,13.447 -0.046,26.886 -0.167,40.333c-0.004,9.379 0,18.758 0.013,28.137c-0.001,19.675 -0.088,39.347 -0.238,59.022c-0.188,25.111 -0.194,50.217 -0.137,75.329c0.028,19.386 -0.028,38.771 -0.109,58.157c-0.032,9.251 -0.042,18.501 -0.028,27.752c0.021,87.819 0.021,87.819 -16.042,123.8c-3.897,11.822 -2.595,18.598 1.016,30.391c2.089,2.965 4.179,5.93 6.331,8.984c9.4,18.056 8.597,35.492 9.033,55.599c0.127,4.52 0.254,9.04 0.386,13.697c0.328,13.638 0.571,27.273 0.768,40.914c0.165,11.071 0.363,22.141 0.56,33.212c0.359,21.216 0.601,42.431 0.773,63.649c0.079,8.568 0.184,17.135 0.315,25.702c0.174,12.161 0.239,24.318 0.275,36.481c0.073,3.693 0.145,7.387 0.22,11.192c-0.086,24.471 -0.086,24.471 -7.876,35.756c-17.077,6.301 -33.714,6.014 -51.784,6.079c-5.994,0.062 -5.994,0.062 -12.11,0.126c-8.444,0.063 -16.888,0.093 -25.332,0.091c-12.907,0.027 -25.801,0.254 -38.705,0.491c-8.211,0.037 -16.422,0.061 -24.634,0.073c-3.85,0.09 -7.701,0.18 -11.668,0.272c-26.349,-0.28 -26.349,-0.28 -36.793,-8.766c-5.585,-6.806 -5.585,-6.806 -13.925,-19.387c-2.75,-1.375 -5.5,-2.75 -8.333,-4.167c-0.945,2.492 -1.891,4.984 -2.865,7.552c-7.088,11.813 -14.071,15.405 -26.302,21.615c-10.431,1.789 -10.431,1.789 -21.954,2.105c-6.874,0.216 -6.874,0.216 -13.888,0.437c-5.177,0.091 -10.354,0.181 -15.688,0.274c-5.729,0.137 -11.458,0.275 -17.186,0.414c-100.324,2.196 -200.721,1.717 -301.065,1.708c-23.833,0.001 -47.666,0.05 -71.499,0.108c-23.248,0.054 -46.495,0.077 -69.743,0.074c-13.776,-0.001 -27.552,0.014 -41.328,0.055c-15.238,0.041 -30.475,0.029 -45.713,0.004c-4.493,0.023 -8.986,0.047 -13.615,0.071c-21.125,-0.089 -39.654,-0.192 -59.153,-9.416c-5.091,-10.182 -4.705,-16.831 -4.72,-28.206c-0.01,-4.023 -0.019,-8.047 -0.03,-12.192c0.102,-21.258 0.269,-42.512 0.583,-63.769c0.045,-4.661 0.045,-4.661 0.092,-9.416c0.468,-31.569 3.223,-46.924 24.908,-69.751c0.367,-14.686 -3.772,-20.315 -12.675,-32.009c-9.785,-16.58 -10.092,-26.313 -9.786,-45.433c0.024,-2.924 0.047,-5.848 0.071,-8.861c0.093,-9.256 0.302,-18.506 0.514,-27.76c0.084,-6.31 0.16,-12.619 0.228,-18.929c0.183,-15.394 0.47,-30.784 0.814,-46.175l-8.333,0c-1.069,2.796 -2.138,5.591 -3.239,8.472c-10.04,24.362 -22.042,47.863 -33.698,71.484c-3.118,6.347 -6.213,12.705 -9.281,19.076c-54.009,112.058 -54.009,112.058 -103.782,138.468c-4.125,-1.375 -8.25,-2.75 -12.5,-4.167l0,-12.5c-2.75,-4.125 -5.5,-8.25 -8.333,-12.5c2.651,-2.884 2.651,-2.884 5.355,-5.827c37.975,-42.231 63.349,-88.078 87.549,-138.97c24.361,-51.012 49.964,-98.284 94.596,-134.37l0,-12.5c-12.309,5.715 -22.667,12.453 -33.333,20.833c-2.75,-2.75 -5.5,-5.5 -8.333,-8.333c-6.875,5.5 -13.75,11 -20.833,16.667c0,-12.5 0,-12.5 7.292,-20.719c3.094,-2.874 6.188,-5.747 9.375,-8.708c5.702,-5.316 11.294,-10.758 16.667,-16.406l0,-8.333c-10.264,-6.853 -10.264,-6.853 -20.833,-12.5c-1.67,2.524 -3.341,5.049 -5.062,7.65c-27.105,39.951 -57.977,73.917 -94.938,104.85c-4.731,4.052 -9.456,8.111 -14.176,12.174c-10.034,8.636 -20.071,17.268 -30.127,25.879c-3.52,3.024 -3.52,3.024 -7.112,6.11c-4.47,3.771 -8.996,7.478 -13.584,11.104c-15.337,12.177 -26.468,25.215 -37.865,41.087c-19.221,26.624 -19.221,26.624 -30.469,36.979c-1.375,-4.125 -2.75,-8.25 -4.167,-12.5l-8.333,0c8.039,-51.401 71.517,-95.73 108.854,-125.26c21.52,-17.452 41.432,-36.321 61.198,-55.729c2.99,-2.882 5.979,-5.764 9.06,-8.733c20.893,-20.818 35.992,-42.72 50.055,-68.611c-5.5,-1.375 -11,-2.75 -16.667,-4.167c-0.967,3.636 -1.934,7.272 -2.93,11.019c-21.136,54.687 -87.63,94.198 -133.529,127.002c-46.872,33.825 -94.217,74.235 -107.145,133.333c-0.992,6.739 -1.652,13.526 -2.23,20.312c-12.375,-2.75 -24.75,-5.5 -37.5,-8.333c0,-12.5 0,-12.5 4.167,-20.833c0.51,-4.437 1.021,-8.873 1.546,-13.444c12.238,-73.426 75.907,-117.041 131.787,-157.389c83.83,-60.927 83.83,-60.927 125.911,-152.669c4.545,-13.724 11.688,-19.502 24.089,-26.497c12.584,-6.292 25.64,-5.779 39.551,-6.755c14.742,-2.184 14.742,-2.184 27.116,-9.912c2.328,-12.955 2.328,-12.955 2.083,-27.865c1.266,-32.593 1.266,-32.593 10.938,-47.396c8.852,-11.164 8.852,-11.164 7.08,-21.729c-4.199,-13.87 -10.394,-25.652 -17.236,-38.428c-14.315,-27.563 -24.118,-55.338 -32.031,-85.417c-1.482,-4.796 -2.965,-9.593 -4.492,-14.535c-23.831,-97.028 -0.312,-205.556 50.326,-289.632c57.458,-92.11 147.829,-163.736 254.358,-189.567c73.515,-16.284 144.581,-16.248 216.475,6.234Zm-770.833,1083.333l8.333,4.167l-8.333,-4.167Z" style="fill:#fcfcfb;fill-rule:nonzero;"/><path d="M1151.302,184.416c43.168,-4.533 43.168,-4.533 60.01,6.641c8.48,8.203 8.48,8.203 15.755,16.553c7.382,7.151 7.382,7.151 18.408,5.583c11.396,-3.161 11.396,-3.161 18.066,-16.536c4.98,-6.82 4.98,-6.82 12.76,-12.24c19.643,-2.26 38.648,-1.182 58.333,0c0.387,52.146 -0.29,104.276 -1.729,156.403c-0.237,9.679 -0.413,19.359 -0.529,29.041c-0.179,14.149 -0.566,28.278 -0.997,42.421c-0.01,4.302 -0.02,8.603 -0.031,13.035c-1.202,29.624 -1.202,29.624 -12.738,43.053c-9.18,7.779 -9.18,7.779 -18.352,14.245c-8.731,5.775 -8.731,5.775 -9.114,18.73c6.271,12.814 9.515,15.183 20.724,22.998c12.235,10.273 16.558,16.688 18.052,32.656c0.134,7.23 0.109,14.465 -0.044,21.695c0.047,5.95 0.047,5.95 0.094,12.02c0.065,13.08 -0.081,26.148 -0.235,39.228c-0.012,9.123 -0.014,18.246 -0.005,27.368c-0.013,19.115 -0.126,38.225 -0.313,57.339c-0.236,24.435 -0.27,48.865 -0.236,73.3c0.012,18.842 -0.062,37.683 -0.163,56.525c-0.042,9.005 -0.064,18.01 -0.063,27.015c-0.017,12.625 -0.143,25.244 -0.299,37.867c0.021,5.525 0.021,5.525 0.043,11.161c-0.426,22.829 -4.872,39.522 -15.298,59.88c-6.078,13.21 -5.839,23.105 -3.766,37.352c2.604,5.148 5.368,10.216 8.248,15.215c9.584,18.67 11.262,34.918 11.869,55.667c0.162,3.513 0.324,7.026 0.49,10.646c0.498,11.277 0.886,22.555 1.268,33.836c0.315,7.726 0.634,15.451 0.958,23.176c2.052,51.055 3.058,102.034 2.167,153.126c-21.65,0.412 -43.298,0.715 -64.952,0.916c-7.364,0.084 -14.728,0.197 -22.091,0.342c-10.592,0.202 -21.18,0.297 -31.773,0.37c-4.929,0.129 -4.929,0.129 -9.958,0.261c-15.145,0.006 -23.645,-0.576 -35.936,-9.803c-6.124,-8.752 -6.124,-8.752 -6.124,-17.086c-10.874,-4.384 -10.874,-4.384 -25,-4.167c-14.77,8.26 -29.809,17.952 -37.5,33.333c-61.691,0.549 -123.382,1.093 -185.073,1.63c-28.657,0.25 -57.314,0.501 -85.972,0.757c-27.746,0.248 -55.492,0.49 -83.238,0.729c-10.493,0.091 -20.987,0.184 -31.48,0.279c-33.912,0.306 -67.824,0.561 -101.737,0.772c-4.97,0.035 -9.94,0.069 -15.061,0.105c-14.783,0.095 -29.565,0.158 -44.348,0.212c-4.436,0.031 -8.873,0.063 -13.444,0.095c-23.359,0.048 -45.711,-1.076 -68.813,-4.579c-0.729,-18.835 -1.171,-37.666 -1.562,-56.51c-0.209,-5.32 -0.419,-10.64 -0.635,-16.121c-0.69,-44.304 -0.69,-44.304 14.469,-61.629c2.246,-2.025 4.492,-4.05 6.805,-6.137c6.992,-5.679 6.992,-5.679 11.131,-17.414c-1.21,-15.122 -3.688,-16.389 -13.314,-27.279c-19.762,-28.796 -17.046,-62.92 -17.31,-96.592c-0.106,-11.61 -0.435,-23.199 -0.789,-34.804c-0.143,-7.384 -0.274,-14.768 -0.391,-22.152c-0.099,-3.463 -0.197,-6.927 -0.299,-10.495c-0.03,-23.84 -0.03,-23.84 9.797,-34.186c11.178,-5.33 22.295,-8.93 34.171,-12.349c11.758,-6.422 15.008,-12.947 20.426,-25.163c1.31,-11.523 2.123,-22.326 2.344,-33.854c0.759,-31.217 0.759,-31.217 10.156,-45.312c9.668,-2.311 9.668,-2.311 21.354,-3.646c20.482,-3.145 34.134,-8.871 50.911,-20.85c6.901,-4.671 6.901,-4.671 19.401,-8.838c10.107,3.711 10.107,3.711 22.135,9.375c82.539,35.067 184.845,37.083 269.531,7.292c4.614,-1.509 9.228,-3.019 13.981,-4.574c96.078,-33.863 175.242,-101.367 223.519,-191.26c9.575,-20.358 17.317,-41.366 25,-62.5c1.456,-3.384 2.911,-6.768 4.411,-10.254c32.546,-87.78 22.308,-194.093 -15.365,-278.239c-8.136,-16.388 -16.853,-32.401 -25.977,-48.258c-4.736,-9.082 -4.736,-9.082 -4.736,-17.415Z" style="fill:#fafbf9;fill-rule:nonzero;"/><path d="M922.135,17.75c6.453,1.805 6.453,1.805 13.037,3.646c59.366,17.707 120.317,51.266 159.985,99.995c10.332,12.184 17.721,20.212 33.634,23.8c12.446,0.763 24.63,0.783 37.093,0.424c30.95,-0.535 51.386,-0.33 77.083,17.969c2.621,-2.718 5.242,-5.436 7.943,-8.236c17.778,-11.627 31.721,-10.597 52.474,-9.993c5.261,0.008 5.261,0.008 10.628,0.016c40.483,0.574 40.483,0.574 53.955,14.046c0.425,11.066 0.581,22.021 0.553,33.089c0.009,5.142 0.009,5.142 0.019,10.388c0.01,11.289 -0.016,22.578 -0.051,33.867c-0.009,3.828 -0.018,7.656 -0.028,11.599c-0.077,27.298 -0.262,54.594 -0.493,81.89c-0.026,3.497 -0.052,6.995 -0.079,10.598c-0.148,18.882 -0.39,37.758 -0.794,56.636c-0.165,8.382 -0.256,16.766 -0.346,25.15c-1.209,45.364 -1.209,45.364 -19.615,65.95c-2.75,4.125 -5.5,8.25 -8.333,12.5c4.061,2.6 8.122,5.201 12.306,7.88c8.259,6.951 12.166,11.033 15.048,21.522c0.844,10.738 0.929,21.246 0.749,32.017c0.03,4.068 0.061,8.136 0.092,12.327c0.068,13.447 -0.046,26.886 -0.167,40.333c-0.004,9.379 0,18.758 0.013,28.137c-0.001,19.675 -0.088,39.347 -0.238,59.022c-0.188,25.111 -0.194,50.217 -0.137,75.329c0.028,19.386 -0.028,38.771 -0.109,58.157c-0.032,9.251 -0.042,18.501 -0.028,27.752c0.021,87.819 0.021,87.819 -16.042,123.8c-3.897,11.822 -2.595,18.598 1.016,30.391c2.089,2.965 4.179,5.93 6.331,8.984c9.4,18.056 8.597,35.492 9.033,55.599c0.127,4.52 0.254,9.04 0.386,13.697c0.328,13.638 0.571,27.273 0.768,40.914c0.165,11.071 0.363,22.141 0.56,33.212c0.359,21.216 0.601,42.431 0.773,63.649c0.079,8.568 0.184,17.135 0.315,25.702c0.174,12.161 0.239,24.318 0.275,36.481c0.073,3.693 0.145,7.387 0.22,11.192c-0.086,24.471 -0.086,24.471 -7.876,35.756c-17.077,6.301 -33.714,6.014 -51.784,6.079c-5.994,0.062 -5.994,0.062 -12.11,0.126c-8.444,0.063 -16.888,0.093 -25.332,0.091c-12.907,0.027 -25.801,0.254 -38.705,0.491c-8.211,0.037 -16.422,0.061 -24.634,0.073c-3.85,0.09 -7.701,0.18 -11.668,0.272c-26.349,-0.28 -26.349,-0.28 -36.793,-8.766c-5.585,-6.806 -5.585,-6.806 -13.925,-19.387c-2.75,-1.375 -5.5,-2.75 -8.333,-4.167c-0.945,2.492 -1.891,4.984 -2.865,7.552c-7.088,11.813 -14.071,15.405 -26.302,21.615c-10.431,1.789 -10.431,1.789 -21.954,2.105c-6.874,0.216 -6.874,0.216 -13.888,0.437c-5.177,0.091 -10.354,0.181 -15.688,0.274c-5.729,0.137 -11.458,0.275 -17.186,0.414c-100.324,2.196 -200.721,1.717 -301.065,1.708c-23.833,0.001 -47.666,0.05 -71.499,0.108c-23.248,0.054 -46.495,0.077 -69.743,0.074c-13.776,-0.001 -27.552,0.014 -41.328,0.055c-15.238,0.041 -30.475,0.029 -45.713,0.004c-4.493,0.023 -8.986,0.047 -13.615,0.071c-21.125,-0.089 -39.654,-0.192 -59.153,-9.416c-5.091,-10.182 -4.705,-16.831 -4.72,-28.206c-0.01,-4.023 -0.019,-8.047 -0.03,-12.192c0.102,-21.258 0.269,-42.512 0.583,-63.769c0.045,-4.661 0.045,-4.661 0.092,-9.416c0.468,-31.569 3.223,-46.924 24.908,-69.751c0.367,-14.686 -3.772,-20.315 -12.675,-32.009c-9.785,-16.58 -10.092,-26.313 -9.786,-45.433c0.024,-2.924 0.047,-5.848 0.071,-8.861c0.093,-9.256 0.302,-18.506 0.514,-27.76c0.084,-6.31 0.16,-12.619 0.228,-18.929c0.183,-15.394 0.47,-30.784 0.814,-46.175l-8.333,0c-1.069,2.796 -2.138,5.591 -3.239,8.472c-10.04,24.362 -22.042,47.863 -33.698,71.484c-3.118,6.347 -6.213,12.705 -9.281,19.076c-54.009,112.058 -54.009,112.058 -103.782,138.468c-4.125,-1.375 -8.25,-2.75 -12.5,-4.167l0,-12.5c-2.75,-4.125 -5.5,-8.25 -8.333,-12.5c2.651,-2.884 2.651,-2.884 5.355,-5.827c37.975,-42.231 63.349,-88.078 87.549,-138.97c24.361,-51.012 49.964,-98.284 94.596,-134.37l0,-12.5c-12.309,5.715 -22.667,12.453 -33.333,20.833c-2.75,-2.75 -5.5,-5.5 -8.333,-8.333c-6.875,5.5 -13.75,11 -20.833,16.667c0,-12.5 0,-12.5 7.292,-20.719c3.094,-2.874 6.188,-5.747 9.375,-8.708c5.702,-5.316 11.294,-10.758 16.667,-16.406l0,-8.333c-10.264,-6.853 -10.264,-6.853 -20.833,-12.5c-1.67,2.524 -3.341,5.049 -5.062,7.65c-27.105,39.951 -57.977,73.917 -94.938,104.85c-4.731,4.052 -9.456,8.111 -14.176,12.174c-10.034,8.636 -20.071,17.268 -30.127,25.879c-3.52,3.024 -3.52,3.024 -7.112,6.11c-4.47,3.771 -8.996,7.478 -13.584,11.104c-15.337,12.177 -26.468,25.215 -37.865,41.087c-19.221,26.624 -19.221,26.624 -30.469,36.979c-1.375,-4.125 -2.75,-8.25 -4.167,-12.5l-8.333,0c8.039,-51.401 71.517,-95.73 108.854,-125.26c21.52,-17.452 41.432,-36.321 61.198,-55.729c2.99,-2.882 5.979,-5.764 9.06,-8.733c20.893,-20.818 35.992,-42.72 50.055,-68.611c-5.5,-1.375 -11,-2.75 -16.667,-4.167c-0.967,3.636 -1.934,7.272 -2.93,11.019c-21.136,54.687 -87.63,94.198 -133.529,127.002c-46.872,33.825 -94.217,74.235 -107.145,133.333c-0.992,6.739 -1.652,13.526 -2.23,20.312c-12.375,-2.75 -24.75,-5.5 -37.5,-8.333c0,-12.5 0,-12.5 4.167,-20.833c0.51,-4.437 1.021,-8.873 1.546,-13.444c12.238,-73.426 75.907,-117.041 131.787,-157.389c83.83,-60.927 83.83,-60.927 125.911,-152.669c4.545,-13.724 11.688,-19.502 24.089,-26.497c12.584,-6.292 25.64,-5.779 39.551,-6.755c14.742,-2.184 14.742,-2.184 27.116,-9.912c2.328,-12.955 2.328,-12.955 2.083,-27.865c1.266,-32.593 1.266,-32.593 10.938,-47.396c8.852,-11.164 8.852,-11.164 7.08,-21.729c-4.199,-13.87 -10.394,-25.652 -17.236,-38.428c-14.315,-27.563 -24.118,-55.338 -32.031,-85.417c-1.482,-4.796 -2.965,-9.593 -4.492,-14.535c-23.831,-97.028 -0.312,-205.556 50.326,-289.632c57.458,-92.11 147.829,-163.736 254.358,-189.567c73.515,-16.284 144.581,-16.248 216.475,6.234Zm-379.167,133.333c-2.702,2.417 -5.403,4.834 -8.187,7.324c-61.105,55.147 -96.4,148.026 -100.993,228.304c-1.359,109.044 30.663,202.572 105.915,282.606c65.233,66.231 156.452,110.257 249.938,111.939c107.23,0.398 200.556,-33.708 278.326,-109.34c2.954,-2.696 5.908,-5.393 8.952,-8.171c61.503,-57.733 97.679,-145.543 100.781,-229.248c1.679,-114.47 -30.2,-205.234 -109.473,-288.883c-83.941,-79.602 -183.626,-105.792 -296.842,-104.232c-87.63,2.931 -168.256,47.704 -228.418,109.701Zm608.333,33.333c4.659,12.368 9.918,24.225 15.853,36.019c20.074,40.176 33.495,78.251 42.48,122.314c0.795,3.287 1.59,6.574 2.409,9.961c12.255,75.799 -0.983,163.513 -35.742,231.706c-2.683,5.583 -2.683,5.583 -5.42,11.279c-49.978,98.408 -138.465,168.245 -242.596,202.387c-86.135,26.954 -191.304,28.082 -274.119,-11.063c-2.648,-1.493 -5.296,-2.986 -8.024,-4.525c-7.52,-3.123 -7.52,-3.123 -15.397,0.83c-2.841,1.735 -5.683,3.47 -8.61,5.257c-39.673,21.658 -39.673,21.658 -60.417,23.438c-7.219,0.773 -7.219,0.773 -14.583,1.562c-11.527,17.29 -9.942,34.118 -10.327,54.248c-0.711,18.62 -2.576,31.294 -14.673,45.752c-10.042,5.387 -10.042,5.387 -21.094,9.115c-15.999,5.366 -15.999,5.366 -28.906,15.885c-0.745,12.135 -0.975,23.824 -0.781,35.954c0.045,3.599 0.09,7.197 0.136,10.905c0.117,7.64 0.259,15.279 0.423,22.918c0.219,11.587 0.264,23.167 0.303,34.756c-0.207,50.287 -0.207,50.287 23.661,93.153c5.424,6.481 5.424,6.481 6.466,19.502c-5.248,12.07 -8.563,15.099 -17.936,23.551c-19.517,22.305 -14.937,49.762 -13.835,77.751c0.113,5.433 0.226,10.866 0.342,16.463c0.294,13.356 0.704,26.698 1.221,40.047c27.59,4.19 54.427,4.653 82.303,4.438c9.733,-0.039 19.465,-0.077 29.198,-0.116c4.995,-0.027 9.99,-0.055 15.137,-0.083c19.164,-0.093 38.328,-0.105 57.492,-0.116c52.014,-0.034 104.028,-0.237 156.041,-0.508c28.364,-0.145 56.728,-0.25 85.092,-0.264c27.736,-0.014 55.471,-0.136 83.206,-0.324c10.507,-0.054 21.015,-0.072 31.523,-0.053c14.595,0.02 29.183,-0.088 43.778,-0.227c4.313,0.036 8.627,0.072 13.071,0.109c24.486,-0.322 24.486,-0.322 45.075,-12.957c4.002,-5.313 4.002,-5.313 8.084,-10.733c8.073,-7.812 8.073,-7.812 16.667,-12.5c13.021,0.26 13.021,0.26 25,4.167c5.208,8.073 5.208,8.073 8.333,16.667c8.156,9.993 8.156,9.993 23.431,9.279c6.48,-0.001 12.96,-0.049 19.44,-0.132c3.41,-0.012 6.82,-0.024 10.334,-0.036c10.912,-0.047 21.822,-0.151 32.733,-0.257c7.389,-0.042 14.779,-0.08 22.168,-0.114c18.132,-0.092 36.263,-0.236 54.395,-0.407c0.958,-54.968 -0.35,-109.804 -2.653,-164.725c-0.313,-7.685 -0.6,-15.371 -0.86,-23.058c-0.381,-11.005 -0.863,-22.002 -1.369,-33.002c-0.096,-3.288 -0.193,-6.575 -0.292,-9.962c-1.094,-20.747 -5.707,-35.516 -16.097,-53.55c-6.482,-12.815 -5.695,-22.522 -3.728,-36.537c2.646,-5.75 5.431,-11.436 8.316,-17.07c9.57,-21.066 10.793,-39.257 10.705,-62.157c0.049,-3.989 0.099,-7.977 0.149,-12.087c0.136,-13.069 0.149,-26.134 0.149,-39.204c0.043,-9.135 0.089,-18.27 0.138,-27.405c0.081,-19.091 0.095,-38.181 0.068,-57.273c-0.025,-24.451 0.16,-48.895 0.4,-73.345c0.154,-18.842 0.175,-37.681 0.157,-56.523c0.012,-9.016 0.071,-18.031 0.177,-27.046c0.133,-12.598 0.081,-25.183 -0.018,-37.781c0.079,-3.708 0.157,-7.417 0.238,-11.238c-0.327,-19.894 -0.327,-19.894 -10.336,-36.471c-7.727,-6.689 -7.727,-6.689 -15.806,-12.147c-6.839,-5.254 -6.839,-5.254 -12.829,-17.494c1.823,-12.76 1.823,-12.76 9.114,-18.73c3.027,-2.134 6.054,-4.267 9.172,-6.466c14.32,-12.135 19.37,-19.84 21.419,-38.558c0.342,-8.431 0.509,-16.871 0.529,-25.309c0.138,-4.527 0.276,-9.054 0.418,-13.719c0.403,-14.438 0.581,-28.87 0.754,-43.313c0.235,-9.576 0.484,-19.152 0.749,-28.727c1.217,-47.36 1.686,-94.732 1.335,-142.106c-34.539,-4.256 -34.539,-4.256 -66.113,5.42c-4.626,6.335 -8.86,12.951 -13.053,19.58c-9.993,3.776 -9.993,3.776 -20.833,4.167c-7.568,-5.973 -7.568,-5.973 -14.844,-14.323c-15.03,-14.539 -24.738,-16.863 -45.573,-16.667c-7.649,0.464 -15.296,1.023 -22.917,1.823Zm-1000,916.667l8.333,4.167l-8.333,-4.167Z" style="fill:#3c4834;fill-rule:nonzero;"/><path d="M363.802,830.25c5.5,1.375 11,2.75 16.667,4.167c-11.28,36.094 -41.24,63.448 -67.448,89.323c-3.126,3.107 -6.253,6.214 -9.474,9.416c-23.271,22.893 -47.458,43.539 -73.078,63.761c-31.447,25.892 -65.921,56.097 -79.167,95.833l8.333,0c4.125,4.125 4.125,4.125 8.333,8.333c1.418,-2.272 2.836,-4.544 4.297,-6.885c24.441,-38.026 52.205,-67.558 87.598,-95.605c17.684,-14.424 34.239,-29.936 50.911,-45.508c11.361,-10.335 11.361,-10.335 22.054,-18.62c25.87,-21.385 46.63,-50.779 64.307,-79.215c8.25,5.5 16.5,11 25,16.667c-5.869,13.397 -12.931,22.174 -23.438,32.292c-3.948,3.835 -3.948,3.835 -7.975,7.747c-2.009,1.912 -4.018,3.824 -6.087,5.794c2.578,-1.289 19.271,-9.635 25,-12.5c4.125,4.125 4.125,4.125 8.333,8.333c6.875,-6.875 13.75,-13.75 20.833,-20.833c4.125,1.375 8.25,2.75 12.5,4.167c-2.514,14.897 -3.856,16.421 -16.667,26.562c-14.544,11.883 -24.503,25.482 -34.473,41.227c-2.44,3.828 -2.44,3.828 -4.929,7.732c-19.302,30.899 -34.79,63.592 -50.422,96.448c-15.708,32.873 -31.929,62.833 -56.01,90.53c-2.423,2.87 -4.845,5.74 -7.342,8.698c-5.829,6.872 -11.735,13.679 -17.658,20.469c2.062,3.18 4.125,6.359 6.25,9.635c6.25,11.198 6.25,11.198 6.25,23.698c-3.867,1.289 -7.734,2.578 -11.719,3.906c-16.78,10.858 -17.222,18.346 -22.249,36.8c-5.815,15.301 -15.055,21.238 -28.532,30.127l-8.333,0c-0.945,2.406 -1.891,4.812 -2.865,7.292c-7.616,13.056 -13.027,18.342 -26.302,26.042c-12.696,1.674 -25.265,2.369 -38.053,2.995c-14.43,1.416 -24.265,6.889 -36.947,13.672c-28.249,3.139 -50.229,-4.97 -73.958,-19.531c-18.37,-18.881 -27.021,-37.566 -27.344,-64.062c0.69,-16.786 3.094,-33.113 5.469,-49.74c-0.214,-7.033 -0.477,-14.064 -0.781,-21.094c-0.152,-20.235 4.519,-29.582 17.448,-45.573c4.289,-6.574 8.541,-13.173 12.76,-19.792c7.91,-12.337 12.252,-17.717 24.74,-26.042c11.198,-0.521 11.198,-0.521 20.833,0c1.375,-4.125 2.75,-8.25 4.167,-12.5c1.375,4.125 2.75,8.25 4.167,12.5c-2.75,4.125 -5.5,8.25 -8.333,12.5c11,1.375 22,2.75 33.333,4.167c0.612,-2.524 1.225,-5.049 1.855,-7.65c20.146,-75.259 73.381,-115.587 134.18,-158.594c44.863,-31.785 90.362,-66.122 113.965,-117.09Z" style="fill:#3a4632;fill-rule:nonzero;"/><path d="M1029.671,114.136c11.612,9.296 22.928,18.83 34.131,28.613c3.988,3.456 3.988,3.456 8.057,6.982c62.002,57.706 102.238,146.82 105.876,230.843c1.093,46.884 0.358,92.171 -13.932,137.174c-1.418,4.496 -2.836,8.991 -4.297,13.623c-18.625,53.044 -48.444,96.276 -87.37,136.377c-2.551,2.857 -5.103,5.715 -7.731,8.659c-57.981,62.803 -150.07,99.271 -234.295,104.367c-105.546,3.856 -199.938,-29.555 -278.808,-100.526c-75.171,-73.278 -114.508,-162.927 -118.13,-267.476c-1.259,-105.956 44.935,-196.484 117.349,-270.805c38.467,-38.256 84.407,-61.914 134.115,-82.552c4.292,-1.826 8.583,-3.652 13.005,-5.534c107.599,-38.15 242.832,-7.483 332.031,60.254Zm-465.869,70.28c-3.362,3.545 -6.725,7.09 -10.189,10.742c-63.652,72.066 -83.127,158.742 -78.223,252.783c4.937,62.149 35.177,126.85 75.911,173.975c2.535,3.223 5.07,6.445 7.682,9.766c49.72,60.109 122.263,93.845 197.526,109.766c88.388,7.366 180.4,-9.713 251.359,-66.449c15.162,-12.857 29.379,-26.529 43.433,-40.582c2.836,-2.836 5.672,-5.672 8.594,-8.594c36.779,-39.406 56.046,-86.281 70.573,-137.24c1.547,-5.172 1.547,-5.172 3.125,-10.449c21.305,-84.925 -1.275,-170.322 -44.792,-243.717c-10.282,-16.06 -21.204,-31.124 -33.333,-45.833c-2.154,-2.626 -4.308,-5.253 -6.527,-7.959c-51.224,-56.36 -139.352,-95.65 -214.207,-100.958c-104.98,-4.751 -198.246,26.54 -270.933,104.751Z" style="fill:#f5f7f3;fill-rule:nonzero;"/><path d="M1025.618,160.246c62.434,53.501 106.197,134.741 114.095,216.996c4.074,61.396 -5.242,123.179 -34.245,178.007c-1.649,3.518 -3.298,7.036 -4.997,10.661c-16.688,33.711 -39.519,58.817 -65.837,85.173c-2.745,2.793 -5.489,5.586 -8.317,8.464c-63.115,59.722 -154.12,85.744 -239.29,84.245c-92.316,-6.457 -176.73,-51.44 -237.256,-120.654c-61.707,-77.601 -81.231,-166.016 -73.47,-263.721c8.084,-65.683 43.218,-127.119 87.5,-175c2.696,-3.029 5.393,-6.059 8.171,-9.18c122.432,-130.927 320.317,-118.384 453.646,-14.99Zm-336.816,-17.497c-4.125,1.907 -8.25,3.813 -12.5,5.778c-72.422,36.714 -125.433,97.828 -150.928,174.967c-1.069,3.604 -2.138,7.208 -3.239,10.921c-0.94,3.131 -1.88,6.263 -2.848,9.489c-18.042,72.789 -4.258,149.751 33.708,213.77c47.621,72.249 113.854,123.573 199.805,141.292c81.772,11.406 162.299,-4.199 229.525,-54.036c59.547,-46.68 104.967,-113.471 114.811,-189.681c5.688,-85.872 -7.13,-161.65 -63.59,-229.378c-2.39,-2.68 -4.78,-5.36 -7.243,-8.122c-2.261,-2.551 -4.522,-5.103 -6.852,-7.731c-49.322,-52.325 -118.379,-86.306 -190.267,-89.242c-50.987,-1.19 -93.442,0.171 -140.381,21.973Z" style="fill:#3a4732;fill-rule:nonzero;"/><path d="M476.302,601.083l16.667,0c5.485,6.445 5.485,6.445 10.677,15.625c49.186,78.206 131.442,131.167 220.605,153.239c101.096,19.173 199.399,-0.393 286.637,-54.069c15.296,-8.788 31.298,-15.832 48.747,-18.962c2.75,1.375 5.5,2.75 8.333,4.167c2.604,10.677 2.604,10.677 4.167,20.833c-93.135,82.397 -203.873,102.497 -325,95.833c-35.353,-4.164 -69.837,-13.519 -100.993,-31.087c-7.52,-3.123 -7.52,-3.123 -15.397,0.83c-2.841,1.735 -5.683,3.47 -8.61,5.257c-25.691,14.025 -45.821,22.347 -75,25c-7.381,14.763 -5.366,33.129 -5.591,49.512c-0.845,21.144 -5.09,33.987 -19.409,50.488c-10.596,5.941 -10.596,5.941 -21.615,9.635c-13.191,3.803 -13.191,3.803 -24.219,11.198c-0.743,23.158 -0.301,46.298 0.093,69.462c0.111,7.798 0.172,15.598 0.179,23.397c-1.681,56.396 -1.681,56.396 23.462,104.836c5.433,6.472 5.433,6.472 6.475,19.493c-5.222,12.011 -8.515,15.102 -17.806,23.551c-19.44,22.217 -16.105,49.692 -16.048,77.751c-0.086,5.433 -0.172,10.866 -0.26,16.463c-0.196,13.352 -0.279,26.694 -0.26,40.047c3.843,-0.009 7.686,-0.019 11.645,-0.028c36.989,-0.085 73.978,-0.148 110.967,-0.188c18.997,-0.021 37.993,-0.05 56.99,-0.098c101.324,-0.251 202.464,0.99 303.731,4.481l0,4.167c-20.625,1.375 -41.25,2.75 -62.5,4.167c1.375,2.75 2.75,5.5 4.167,8.333c-11.39,5.695 -20.341,4.634 -33.092,4.574c-7.854,-0.02 -7.854,-0.02 -15.866,-0.041c-2.822,-0.017 -5.643,-0.034 -8.55,-0.052c-8.937,-0.054 -17.874,-0.083 -26.811,-0.106c-12.757,-0.034 -25.514,-0.079 -38.271,-0.132c-32.91,-0.132 -65.82,-0.185 -98.731,-0.207c-3.242,-0.002 -6.484,-0.005 -9.824,-0.007c-75.771,-0.029 -151.469,1.507 -227.188,4.304c-5.091,-10.182 -4.705,-16.831 -4.72,-28.206c-0.01,-4.023 -0.019,-8.047 -0.03,-12.192c0.102,-21.258 0.269,-42.512 0.583,-63.769c0.03,-3.107 0.06,-6.214 0.092,-9.416c0.468,-31.569 3.223,-46.924 24.908,-69.751c0.367,-14.686 -3.772,-20.315 -12.675,-32.009c-9.785,-16.58 -10.092,-26.313 -9.786,-45.433c0.024,-2.924 0.047,-5.848 0.071,-8.861c0.093,-9.256 0.302,-18.506 0.514,-27.76c0.084,-6.31 0.16,-12.619 0.228,-18.929c0.183,-15.394 0.47,-30.784 0.814,-46.175l-8.333,0c-1.603,4.193 -1.603,4.193 -3.239,8.472c-10.04,24.362 -22.042,47.863 -33.698,71.484c-3.118,6.347 -6.213,12.705 -9.281,19.076c-54.009,112.058 -54.009,112.058 -103.782,138.468c-4.125,-1.375 -8.25,-2.75 -12.5,-4.167l0,-12.5c-2.75,-4.125 -5.5,-8.25 -8.333,-12.5c2.651,-2.884 2.651,-2.884 5.355,-5.827c37.975,-42.231 63.349,-88.078 87.549,-138.97c23.57,-49.355 49.051,-101.837 94.596,-134.37l8.333,0l0,-8.333l8.333,0c2.062,-6.188 2.062,-6.188 4.167,-12.5c9.625,-1.375 19.25,-2.75 29.167,-4.167c-1.119,-14.728 -3.363,-20.034 -14.014,-30.632c-4.055,-3.126 -8.11,-6.252 -12.288,-9.473c-4.023,-3.147 -8.046,-6.295 -12.191,-9.538c-14.066,-10.624 -14.066,-10.624 -28.174,-21.191c2.75,-5.5 5.5,-11 8.333,-16.667c20.792,0 25.137,5.474 40.625,18.75c4.104,3.48 8.207,6.961 12.435,10.547c4.673,4.061 4.673,4.061 9.44,8.203c0.172,-4.898 0.344,-9.797 0.521,-14.844c2.392,-17.689 8.075,-29.031 20.231,-42.074c13.799,-9.155 27.659,-9.142 43.88,-9.456c10.923,0.192 10.923,0.192 22.868,-4.46c2.062,-4.125 2.062,-4.125 4.167,-8.333c-2.986,-1.026 -5.973,-2.052 -9.049,-3.109c-35.045,-15.538 -71.529,-50.163 -95.117,-80.225c-3.092,-11.523 -3.092,-11.523 -4.167,-20.833l-16.667,0c0.587,-6.773 1.2,-13.543 1.823,-20.312c0.338,-3.771 0.677,-7.541 1.025,-11.426c1.318,-9.928 1.318,-9.928 5.485,-18.262Z" style="fill:#3a4732;fill-rule:nonzero;"/><path d="M438.802,509.416c4.125,1.375 8.25,2.75 12.5,4.167c4.73,9.99 8.735,19.603 12.5,29.948c7.414,19.789 15.188,38.775 25,57.552l-12.5,0c-1.375,16.5 -2.75,33 -4.167,50c5.5,-1.375 11,-2.75 16.667,-4.167c0.419,5.503 0.419,5.503 0.846,11.117c10.258,42.893 68.152,74.573 103.32,97.217c-1.375,4.125 -2.75,8.25 -4.167,12.5c-12.588,4.196 -21.737,4.569 -34.896,4.948c-17.519,1.527 -22.232,2.376 -36.198,14.062c-9.176,16.279 -12.94,29.377 -16.406,47.656c-13.494,-6.018 -23.415,-13.574 -34.375,-23.438c-4.415,-3.948 -4.415,-3.948 -8.919,-7.975c-2.213,-2.009 -4.426,-4.018 -6.706,-6.087c-13.008,5.454 -13.008,5.454 -20.833,16.667c2.17,0.892 4.34,1.783 6.576,2.702c14.258,7.957 25.907,18.41 38.216,29.069c2.508,2.148 5.017,4.297 7.601,6.51c6.16,5.28 12.302,10.581 18.441,15.885c-1.375,6.875 -2.75,13.75 -4.167,20.833c-7.09,0.773 -7.09,0.773 -14.323,1.562c-7.348,1.289 -7.348,1.289 -14.844,2.604c-1.375,2.75 -2.75,5.5 -4.167,8.333l-8.333,0c-1.375,2.75 -2.75,5.5 -4.167,8.333c-1.375,-4.125 -2.75,-8.25 -4.167,-12.5c-12.309,5.715 -22.667,12.453 -33.333,20.833c-2.75,-2.75 -5.5,-5.5 -8.333,-8.333c-6.875,5.5 -13.75,11 -20.833,16.667c0,-12.5 0,-12.5 7.292,-20.719c3.094,-2.874 6.188,-5.747 9.375,-8.708c5.702,-5.316 11.294,-10.758 16.667,-16.406l0,-8.333c-10.264,-6.853 -10.264,-6.853 -20.833,-12.5c-1.67,2.524 -3.341,5.049 -5.062,7.65c-27.105,39.951 -57.977,73.917 -94.938,104.85c-4.731,4.052 -9.456,8.111 -14.176,12.174c-10.034,8.636 -20.071,17.268 -30.127,25.879c-2.347,2.016 -4.694,4.032 -7.112,6.11c-4.47,3.771 -8.996,7.478 -13.584,11.104c-15.337,12.177 -26.468,25.215 -37.865,41.087c-19.221,26.624 -19.221,26.624 -30.469,36.979c-1.375,-4.125 -2.75,-8.25 -4.167,-12.5l-8.333,0c8.039,-51.401 71.517,-95.73 108.854,-125.26c21.52,-17.452 41.432,-36.321 61.198,-55.729c2.99,-2.882 5.979,-5.764 9.06,-8.733c20.893,-20.818 35.992,-42.72 50.055,-68.611c-8.25,-2.062 -8.25,-2.062 -16.667,-4.167c-0.967,3.636 -1.934,7.272 -2.93,11.019c-21.136,54.687 -87.63,94.198 -133.529,127.002c-46.872,33.825 -94.217,74.235 -107.145,133.333c-0.992,6.739 -1.652,13.526 -2.23,20.312c-12.375,-2.75 -24.75,-5.5 -37.5,-8.333c0,-12.5 0,-12.5 4.167,-20.833c0.51,-4.437 1.021,-8.873 1.546,-13.444c12.238,-73.426 75.907,-117.041 131.787,-157.389c83.83,-60.927 83.83,-60.927 125.911,-152.669c4.545,-13.724 11.688,-19.502 24.089,-26.497c12.584,-6.292 25.64,-5.779 39.551,-6.755c14.742,-2.184 14.742,-2.184 27.116,-9.912c2.328,-12.955 2.328,-12.955 2.083,-27.865c1.266,-32.593 1.266,-32.593 10.938,-47.396c8.823,-11.137 8.823,-11.137 7.145,-21.549c-4.47,-14.72 -11.193,-27.921 -18.343,-41.471c-14.323,-27.328 -14.323,-27.328 -14.323,-36.719l12.5,0c-0.086,-5.328 -0.172,-10.656 -0.26,-16.146c-0.26,-16.146 -0.26,-16.146 4.427,-25.521Zm-287.5,591.667l8.333,4.167l-8.333,-4.167Z" style="fill:#3c4934;fill-rule:nonzero;"/><path d="M59.635,1130.25c1.799,3.029 3.599,6.059 5.452,9.18c8.342,13.794 17.989,22.751 29.964,33.529c2.189,1.974 4.378,3.948 6.634,5.982c21.491,19.226 43.744,37.494 66.283,55.476c5.277,4.608 5.277,4.608 10.661,9.31c15.537,11.236 24.715,8.872 43.506,7.357c4.125,-1.375 8.25,-2.75 12.5,-4.167l0,-12.5l8.333,0c1.514,12.542 2.548,21.179 0,33.333c-8.309,10.424 -17.732,18.17 -29.167,25l-8.333,0c-0.945,2.406 -1.891,4.812 -2.865,7.292c-7.616,13.056 -13.027,18.342 -26.302,26.042c-12.696,1.674 -25.265,2.369 -38.053,2.995c-14.43,1.416 -24.265,6.889 -36.947,13.672c-28.249,3.139 -50.229,-4.97 -73.958,-19.531c-18.37,-18.881 -27.021,-37.566 -27.344,-64.062c0.69,-16.786 3.094,-33.113 5.469,-49.74c-0.214,-7.033 -0.477,-14.064 -0.781,-21.094c-0.211,-19.837 4.086,-30.355 17.448,-45.573c12.011,-11.624 20.751,-15.936 37.5,-12.5Z" style="fill:#384431;fill-rule:nonzero;"/><path d="M397.135,855.25c8.25,5.5 16.5,11 25,16.667c-5.422,12.172 -10.843,19.667 -20.833,28.385c-36.19,35.445 -60.401,83.179 -85.677,126.562c-71.295,121.955 -71.295,121.955 -126.823,140.885c-16.48,-0.785 -24.778,-6.736 -37.5,-16.667c16.043,-66.141 56.211,-111.141 108.708,-152.637c17.65,-14.357 34.143,-29.837 50.765,-45.361c11.361,-10.335 11.361,-10.335 22.054,-18.62c25.87,-21.385 46.63,-50.779 64.307,-79.215Z" style="fill:#f8faf7;fill-rule:nonzero;"/><path d="M1147.526,1276.799c12.271,5.331 19.797,14.577 28.776,24.284c8.013,8.013 22.795,5.222 33.74,5.485c2.954,0.087 5.907,0.173 8.95,0.262c9.467,0.273 18.935,0.518 28.403,0.763c6.405,0.18 12.809,0.362 19.214,0.545c15.73,0.447 31.461,0.869 47.192,1.278l0,4.167c-6.875,1.375 -13.75,2.75 -20.833,4.167l0,8.333c-5.392,0.124 -5.392,0.124 -10.894,0.25c-13.349,0.326 -26.697,0.687 -40.045,1.072c-5.775,0.159 -11.55,0.305 -17.326,0.435c-8.306,0.19 -16.611,0.436 -24.916,0.684c-4.997,0.131 -9.994,0.262 -15.142,0.397c-13.256,0.43 -13.256,0.43 -25.011,9.662c-6.875,-6.875 -13.75,-13.75 -20.833,-20.833c-1.418,3.738 -1.418,3.738 -2.865,7.552c-7.088,11.813 -14.072,15.405 -26.302,21.615c-10.423,1.789 -10.423,1.789 -21.936,2.105c-4.58,0.144 -9.161,0.288 -13.88,0.437c-5.175,0.091 -10.35,0.181 -15.682,0.274c-5.727,0.137 -11.454,0.275 -17.181,0.414c-100.493,2.2 -201.061,1.717 -301.574,1.708c-23.895,0.001 -47.79,0.05 -71.685,0.108c-23.29,0.054 -46.58,0.077 -69.87,0.074c-13.809,-0.001 -27.617,0.014 -41.425,0.055c-15.26,0.041 -30.518,0.029 -45.778,0.004c-4.523,0.023 -9.046,0.047 -13.706,0.071c-4.142,-0.017 -8.285,-0.035 -12.553,-0.053c-3.591,0.002 -7.182,0.005 -10.881,0.007c-10.481,-1.123 -17.297,-4.102 -26.349,-9.37c26.924,-8.262 56.923,-5.845 84.896,-6.51c3.49,-0.09 6.979,-0.179 10.574,-0.272c52.079,-1.306 104.146,-1.697 156.239,-1.665c2.927,0.002 5.855,0.003 8.871,0.005c29.547,0.022 59.095,0.088 88.642,0.225c8.459,0.037 16.918,0.066 25.377,0.092c10.489,0.035 20.978,0.087 31.467,0.158c6.959,0.02 6.959,0.02 14.058,0.041c4.077,0.022 8.155,0.044 12.355,0.066c9.084,0.561 9.084,0.561 13.354,-4.64c-7.38,-0.234 -7.38,-0.234 -14.909,-0.472c-6.489,-0.274 -12.978,-0.55 -19.466,-0.83c-3.239,-0.094 -6.478,-0.188 -9.814,-0.285c-3.142,-0.148 -6.284,-0.295 -9.521,-0.448c-4.32,-0.164 -4.32,-0.164 -8.728,-0.331c-8.394,-1.802 -8.394,-1.802 -25.061,-14.302l295.833,0c1.375,-4.125 2.75,-8.25 4.167,-12.5c7.113,-6.836 7.113,-6.836 15.885,-13.542c2.863,-2.256 5.726,-4.512 8.675,-6.836c8.773,-4.622 8.773,-4.622 17.497,-3.906Z" style="fill:#3b4834;fill-rule:nonzero;"/><path d="M332.292,854.208c5.285,2.578 5.285,2.578 10.677,5.208c-7.561,45.979 -77.251,80.921 -111.823,105.929c-17.409,12.696 -34.267,25.935 -50.677,39.905c-2.616,2.122 -5.231,4.243 -7.926,6.429c-31.057,27.523 -50.51,69.394 -54.574,110.238c-12.375,-2.75 -24.75,-5.5 -37.5,-8.333c0,-12.5 0,-12.5 4.167,-20.833c0.51,-4.437 1.021,-8.873 1.546,-13.444c11.623,-69.74 70.129,-112.821 123.505,-151.383c12.152,-8.812 24.147,-17.821 36.147,-26.839c3.797,-2.836 7.595,-5.672 11.507,-8.594c7.254,-5.51 14.43,-11.126 21.533,-16.829c32.621,-25.989 32.621,-25.989 53.418,-21.452Z" style="fill:#3a4632;fill-rule:nonzero;"/><path d="M820.194,988.065c3.92,0.015 7.84,0.03 11.879,0.045c6.158,-0.001 6.158,-0.001 12.44,-0.002c13.64,0.003 27.28,0.035 40.92,0.068c9.429,0.008 18.858,0.014 28.288,0.018c24.872,0.016 49.744,0.057 74.617,0.103c25.358,0.043 50.717,0.062 76.075,0.083c49.797,0.045 99.593,0.116 149.39,0.203c2.604,9.896 2.604,9.896 4.167,20.833c-8.333,8.333 -8.333,8.333 -15.854,9.37c-4.589,-0.003 -4.589,-0.003 -9.271,-0.007c-5.267,0.026 -5.267,0.026 -10.64,0.053c-5.789,-0.035 -5.789,-0.035 -11.696,-0.071c-4.059,0.008 -8.117,0.016 -12.299,0.024c-13.462,0.015 -26.924,-0.029 -40.386,-0.076c-9.32,-0.005 -18.64,-0.007 -27.96,-0.006c-19.549,-0.007 -39.097,-0.041 -58.646,-0.097c-25.119,-0.071 -50.238,-0.087 -75.357,-0.084c-19.248,-0.001 -38.496,-0.024 -57.744,-0.054c-9.265,-0.013 -18.531,-0.021 -27.796,-0.025c-12.921,-0.009 -25.841,-0.045 -38.761,-0.09c-3.868,0.002 -7.736,0.004 -11.721,0.006c-26.391,-0.134 -26.391,-0.134 -31.035,-4.778c-0.521,-10.417 -0.521,-10.417 0,-20.833c8.14,-8.14 20.558,-4.668 31.392,-4.685Z" style="fill:#384630;fill-rule:nonzero;"/><path d="M588.802,1080.25c53.639,-0.193 107.279,-0.341 160.918,-0.432c24.905,-0.044 49.809,-0.103 74.714,-0.197c24.017,-0.09 48.034,-0.14 72.052,-0.162c9.18,-0.015 18.361,-0.046 27.541,-0.09c12.821,-0.06 25.641,-0.069 38.462,-0.065c3.827,-0.03 7.654,-0.06 11.598,-0.091c3.482,0.011 6.965,0.023 10.552,0.035c4.551,-0.012 4.551,-0.012 9.195,-0.023c7.468,1.025 7.468,1.025 15.801,9.359c-1.042,8.594 -1.042,8.594 -4.167,16.667c-14.247,7.123 -30.572,4.78 -46.248,4.772c-3.93,0.014 -7.86,0.028 -11.909,0.042c-13.036,0.04 -26.072,0.048 -39.108,0.052c-9.03,0.013 -18.059,0.027 -27.089,0.042c-18.943,0.025 -37.886,0.033 -56.828,0.03c-24.325,-0 -48.649,0.057 -72.974,0.128c-18.651,0.046 -37.302,0.055 -55.953,0.053c-8.971,0.005 -17.942,0.023 -26.913,0.056c-12.521,0.041 -25.041,0.029 -37.561,0.004c-3.736,0.023 -7.472,0.047 -11.322,0.071c-25.642,-0.132 -25.642,-0.132 -34.927,-9.416c1.562,-10.938 1.562,-10.938 4.167,-20.833Z" style="fill:#424e3b;fill-rule:nonzero;"/><path d="M1030.469,396.916c10.938,1.562 10.938,1.562 20.833,4.167c4.185,63.467 -14.795,122.143 -54.948,171.615c-43.325,46.68 -103.538,77.68 -167.041,83.887c-21.333,0.392 -21.333,0.392 -32.178,-1.335c-2.75,-2.75 -5.5,-5.5 -8.333,-8.333c2.232,-14.732 2.232,-14.732 8.333,-20.833c7.102,-0.733 14.207,-1.447 21.322,-2.055c50.968,-4.644 93.992,-22.422 132.845,-56.278c2.465,-1.982 4.931,-3.964 7.471,-6.006c25.023,-22.04 37.457,-51.571 50.863,-81.494c1.606,-3.454 3.212,-6.907 4.867,-10.465c5.739,-17.165 5.388,-34.643 6.201,-52.604c1.432,-11.93 1.432,-11.93 9.766,-20.264Z" style="fill:#3b4833;fill-rule:nonzero;"/><path d="M817.969,167.75c2.604,9.896 2.604,9.896 4.167,20.833c-11.143,11.143 -17,9.278 -32.552,9.635c-57.787,3.823 -106.237,30.981 -145.833,72.656c-32.583,39.632 -47.05,84.743 -49.349,135.091c-1.432,11.784 -1.432,11.784 -9.766,20.117c-10.938,-1.562 -10.938,-1.562 -20.833,-4.167c-1.902,-68.358 12.412,-124.853 59.115,-176.562c54.238,-57.039 117.427,-82.497 195.052,-77.604Z" style="fill:#3d4935;fill-rule:nonzero;"/><path d="M484.635,667.75c17.706,14.952 34.866,30.294 51.823,46.094c17.889,16.382 35.432,29.475 56.51,41.406c-2.062,6.188 -2.062,6.188 -4.167,12.5c-12.588,4.196 -21.737,4.569 -34.896,4.948c-17.519,1.527 -22.232,2.376 -36.198,14.062c-9.176,16.279 -12.94,29.377 -16.406,47.656c-17.384,-7.229 -30.608,-19.186 -44.792,-31.25c-2.508,-2.079 -5.017,-4.157 -7.601,-6.299c-6.318,-5.344 -12.401,-10.962 -18.441,-16.618l0,-8.333c7.471,-6.576 7.471,-6.576 17.448,-13.542c3.239,-2.342 6.478,-4.684 9.814,-7.096c10.238,-4.362 10.238,-4.362 21.908,-0.911c3.024,1.611 6.048,3.223 9.163,4.883c-1.375,-2.75 -2.75,-5.5 -4.167,-8.333c-1.283,-9.712 -2.121,-19.427 -2.995,-29.183c-0.319,-8.3 -0.319,-8.3 -5.339,-12.484c-0.781,-14.323 -0.781,-14.323 0,-29.167c2.75,-2.75 5.5,-5.5 8.333,-8.333Z" style="fill:#f4f6f2;fill-rule:nonzero;"/><path d="M955.469,1317.75l0,4.167c-20.625,1.375 -41.25,2.75 -62.5,4.167c2.062,4.125 2.062,4.125 4.167,8.333c-11.421,5.71 -20.439,4.634 -33.224,4.574c-5.262,-0.014 -10.525,-0.027 -15.947,-0.041c-2.835,-0.017 -5.67,-0.034 -8.591,-0.052c-8.973,-0.054 -17.946,-0.083 -26.919,-0.106c-12.795,-0.034 -25.59,-0.079 -38.385,-0.132c-32.936,-0.132 -65.872,-0.185 -98.808,-0.207c-3.234,-0.002 -6.468,-0.005 -9.8,-0.007c-72.821,-0.028 -145.56,1.402 -218.325,4.304c1.375,-5.5 2.75,-11 4.167,-16.667c12.478,-3.635 23.482,-4.618 36.458,-4.427c3.33,0.038 6.66,0.075 10.091,0.114c2.514,0.048 5.027,0.097 7.617,0.146l0,-4.167c149.773,-8.299 300.17,-5.342 450,0Z" style="fill:#33422b;fill-rule:nonzero;"/><path d="M588.802,1171.916c40.601,-0.193 81.202,-0.341 121.803,-0.432c18.851,-0.044 37.703,-0.103 56.554,-0.197c18.182,-0.09 36.363,-0.14 54.546,-0.162c6.948,-0.015 13.895,-0.046 20.843,-0.09c9.708,-0.06 19.414,-0.069 29.122,-0.065c2.892,-0.03 5.784,-0.06 8.764,-0.091c19.918,0.086 19.918,0.086 29.202,9.37c-2.232,14.732 -2.232,14.732 -8.333,20.833c-9.54,0.437 -19.094,0.577 -28.645,0.605c-4.492,0.021 -4.492,0.021 -9.074,0.042c-9.948,0.04 -19.895,0.048 -29.843,0.052c-6.887,0.013 -13.774,0.027 -20.661,0.042c-14.456,0.025 -28.912,0.033 -43.368,0.03c-18.557,-0 -37.113,0.056 -55.669,0.128c-14.23,0.046 -28.459,0.055 -42.689,0.053c-6.843,0.005 -13.686,0.023 -20.529,0.056c-9.558,0.041 -19.114,0.029 -28.672,0.004c-8.17,0.009 -8.17,0.009 -16.504,0.018c-12.68,-1.03 -12.68,-1.03 -21.013,-9.363c1.562,-10.938 1.562,-10.938 4.167,-20.833Z" style="fill:#31402a;fill-rule:nonzero;"/><path d="M909.635,896.916l304.167,0c2.062,10.312 2.062,10.312 4.167,20.833c-11.841,11.841 -19.719,9.391 -36.304,9.412c-4.31,0.022 -4.31,0.022 -8.707,0.044c-9.519,0.037 -19.038,0.012 -28.557,-0.016c-6.601,0.006 -13.202,0.014 -19.802,0.024c-13.843,0.012 -27.685,-0.006 -41.528,-0.045c-17.767,-0.047 -35.533,-0.02 -53.301,0.03c-13.633,0.03 -27.265,0.021 -40.898,-0.001c-6.552,-0.006 -13.104,0.001 -19.656,0.021c-9.148,0.021 -18.295,-0.011 -27.443,-0.058c-7.818,-0.01 -7.818,-0.01 -15.793,-0.02c-12.177,-1.058 -12.177,-1.058 -20.51,-9.392c1.375,-6.875 2.75,-13.75 4.167,-20.833Z" style="fill:#3f4b38;fill-rule:nonzero;"/><path d="M47.135,1171.916c17.183,7.093 30.183,19.17 44.01,31.25c2.547,2.203 5.093,4.407 7.717,6.677c23.381,20.312 46.341,41.073 69.106,62.073c-1.375,5.5 -2.75,11 -4.167,16.667c-12.614,0.293 -23.266,0.52 -35.417,-3.125c-11.365,-2.256 -11.365,-2.256 -22.396,7.031c-15.831,10.448 -23.564,11.641 -42.188,8.594c-10.959,-9.053 -18.639,-16.445 -25,-29.167c-1.341,-15.084 -1.451,-22.713 6.771,-35.677c1.891,-3.352 3.781,-6.703 5.729,-10.156c-3.315,-10.201 -3.315,-10.201 -8.333,-20.833c-0.781,-15.625 -0.781,-15.625 0,-29.167c1.375,-1.375 2.75,-2.75 4.167,-4.167Z" style="fill:#f7f9f6;fill-rule:nonzero;"/><path d="M438.802,892.75c4.125,1.375 8.25,2.75 12.5,4.167c-2.514,14.897 -3.856,16.421 -16.667,26.562c-14.544,11.883 -24.503,25.482 -34.473,41.227c-2.44,3.828 -2.44,3.828 -4.929,7.732c-19.302,30.899 -34.79,63.592 -50.422,96.448c-23.979,50.182 -52.249,102.768 -104.708,128.03c-14.015,4.231 -20.917,4.573 -34.635,0c-1.375,-4.125 -2.75,-8.25 -4.167,-12.5c2.621,-1.418 5.242,-2.836 7.943,-4.297c69.137,-39.15 101.917,-105.862 140.755,-172.526c25.309,-43.354 52.148,-80.251 88.802,-114.844Z" style="fill:#f1f4ee;fill-rule:nonzero;"/><path d="M363.802,830.25c5.5,1.375 11,2.75 16.667,4.167c-11.28,36.094 -41.24,63.448 -67.448,89.323c-3.126,3.107 -6.253,6.214 -9.474,9.416c-23.267,22.89 -47.437,43.571 -73.078,63.761c-44.58,35.988 -78.058,78.268 -95.833,133.333c-5.5,-1.375 -11,-2.75 -16.667,-4.167c-4.845,-34.608 10.492,-63.396 29.167,-91.667c28.405,-35.992 65.731,-61.054 102.848,-87.223c44.85,-31.665 90.256,-66.063 113.818,-116.943Z" style="fill:#f1f4ee;fill-rule:nonzero;"/><path d="M13.802,1184.416c2.664,0.688 5.328,1.375 8.073,2.083c8.785,3.108 8.785,3.108 16.927,-2.083c17.621,29.344 17.621,29.344 13.802,45.312c-2.707,4.383 -2.707,4.383 -5.469,8.854c-5.875,11.75 -5.19,20.292 -4.167,33.333c7.353,15.465 7.353,15.465 20.833,25c24.26,2.333 34.607,-2.886 54.167,-16.667c4.125,1.375 8.25,2.75 12.5,4.167l-8.333,0c-4.125,10.312 -4.125,10.312 -8.333,20.833c5.5,2.75 11,5.5 16.667,8.333l0,8.333c2.75,1.375 5.5,2.75 8.333,4.167c-25.517,12.961 -46.151,22.14 -75.146,14.404c-24.434,-8.266 -42.179,-19.248 -55.322,-42.008c-13.072,-28.306 -8.132,-59.215 -2.865,-89.062c0.688,-3.953 1.375,-7.906 2.083,-11.979c2.083,-8.854 2.083,-8.854 6.25,-13.021Z" style="fill:#3b4834;fill-rule:nonzero;"/><path d="M984.635,1171.916c31.891,-0.211 63.781,-0.357 95.673,-0.458c10.856,-0.042 21.712,-0.099 32.568,-0.171c15.576,-0.101 31.151,-0.148 46.726,-0.185c4.879,-0.043 9.757,-0.086 14.784,-0.13c4.504,-0.001 9.008,-0.001 13.649,-0.002c3.979,-0.019 7.957,-0.037 12.056,-0.056c9.544,1.002 9.544,1.002 17.877,9.335c-2.232,14.732 -2.232,14.732 -8.333,20.833c-6.86,0.433 -13.739,0.577 -20.613,0.605c-6.591,0.04 -6.591,0.04 -13.315,0.081c-4.783,0.005 -9.566,0.009 -14.493,0.014c-4.876,0.014 -9.752,0.028 -14.776,0.042c-10.337,0.021 -20.673,0.031 -31.01,0.03c-15.867,0.009 -31.732,0.085 -47.598,0.164c-10.018,0.012 -20.036,0.02 -30.054,0.024c-7.162,0.045 -7.162,0.045 -14.468,0.091c-6.611,-0.019 -6.611,-0.019 -13.355,-0.039c-3.892,0.006 -7.784,0.012 -11.794,0.018c-9.358,-1.03 -9.358,-1.03 -17.691,-9.363c1.562,-10.938 1.562,-10.938 4.167,-20.833Z" style="fill:#32402b;fill-rule:nonzero;"/><path d="M1147.526,1276.799c12.271,5.331 19.797,14.577 28.776,24.284c8.013,8.013 22.795,5.222 33.74,5.485c2.954,0.087 5.907,0.173 8.95,0.262c9.467,0.273 18.935,0.518 28.403,0.763c6.405,0.18 12.809,0.362 19.214,0.545c15.73,0.447 31.461,0.869 47.192,1.278l0,4.167c-6.875,1.375 -13.75,2.75 -20.833,4.167l0,8.333c-5.392,0.124 -5.392,0.124 -10.894,0.25c-13.349,0.326 -26.697,0.687 -40.045,1.072c-5.775,0.159 -11.55,0.305 -17.326,0.435c-8.306,0.19 -16.611,0.436 -24.916,0.684c-4.997,0.131 -9.994,0.262 -15.142,0.397c-13.256,0.43 -13.256,0.43 -25.011,9.662c-6.875,-6.875 -13.75,-13.75 -20.833,-20.833c-1.547,3.867 -1.547,3.867 -3.125,7.812c-6.068,10.315 -10.951,12.818 -21.875,17.188l0,-16.667c-2.317,0.714 -4.634,1.427 -7.021,2.163c-10.898,2.264 -19.562,1.77 -30.642,0.734c-4.317,-0.369 -8.634,-0.737 -13.082,-1.117c-7.108,-0.623 -7.108,-0.623 -14.36,-1.259c-54.316,-4.38 -108.55,-6.139 -163.021,-7.292c-3.98,-0.085 -7.961,-0.169 -12.062,-0.256c-22.715,-0.473 -45.43,-0.906 -68.147,-1.306l0,-4.167l295.833,0c1.375,-4.125 2.75,-8.25 4.167,-12.5c7.113,-6.836 7.113,-6.836 15.885,-13.542c2.863,-2.256 5.726,-4.512 8.675,-6.836c8.773,-4.622 8.773,-4.622 17.497,-3.906Z" style="fill:#495642;fill-rule:nonzero;"/><path d="M855.469,1338.583l0,4.167c39.875,1.375 79.75,2.75 120.833,4.167l0,4.167c-66.534,0.195 -133.068,0.342 -199.602,0.432c-30.893,0.043 -61.785,0.102 -92.677,0.197c-26.924,0.083 -53.849,0.137 -80.773,0.155c-14.258,0.011 -28.515,0.036 -42.772,0.097c-15.913,0.06 -31.824,0.069 -47.737,0.065c-4.732,0.03 -9.465,0.06 -14.34,0.091c-6.503,-0.017 -6.503,-0.017 -13.137,-0.035c-3.764,0.008 -7.528,0.015 -11.406,0.023c-10.698,-1.091 -17.51,-3.952 -26.721,-9.359c14.964,-4.556 29.268,-5.012 44.857,-5.485c2.754,-0.087 5.508,-0.174 8.346,-0.264c9.001,-0.276 18.003,-0.522 27.006,-0.762c4.656,-0.13 4.656,-0.13 9.406,-0.263c106.366,-2.954 212.39,-0.63 318.719,2.607Z" style="fill:#3d4a36;fill-rule:nonzero;"/><path d="M818.607,988.065c5.53,0.022 5.53,0.022 11.171,0.045c5.792,-0.001 5.792,-0.001 11.701,-0.002c12.828,0.003 25.657,0.035 38.485,0.068c8.869,0.008 17.737,0.014 26.606,0.018c23.393,0.016 46.785,0.057 70.178,0.103c23.85,0.043 47.701,0.062 71.551,0.083c46.834,0.045 93.669,0.116 140.503,0.203l0,4.167c-183.562,2.062 -183.562,2.062 -370.833,4.167l0,8.333c193.875,2.062 193.875,2.062 391.667,4.167l0,8.333c-54.255,0.096 -108.509,0.17 -162.764,0.216c-25.19,0.022 -50.38,0.051 -75.569,0.098c-24.287,0.045 -48.575,0.07 -72.862,0.081c-9.289,0.008 -18.577,0.023 -27.866,0.045c-12.961,0.03 -25.922,0.034 -38.884,0.032c-3.881,0.015 -7.762,0.03 -11.761,0.045c-26.485,-0.043 -26.485,-0.043 -31.127,-4.685c-0.521,-10.417 -0.521,-10.417 0,-20.833c7.87,-7.87 19.335,-4.667 29.805,-4.685Z" style="fill:#485142;fill-rule:nonzero;"/><path d="M301.074,937.769c8.409,0.271 16.819,0.543 25.228,0.814c-17.314,21.109 -35.415,39.177 -56.25,56.771c-2.659,2.277 -5.317,4.555 -8.057,6.901c-20.66,17.66 -20.66,17.66 -30.026,25.059c-15.269,12.13 -26.348,25.149 -37.698,40.957c-19.221,26.624 -19.221,26.624 -30.469,36.979c-2.062,-6.188 -2.062,-6.188 -4.167,-12.5l-8.333,0c8.92,-57.033 83.286,-105.485 124.105,-138.281c19.67,-16.097 19.67,-16.097 25.667,-16.699Zm-149.772,163.314l8.333,4.167l-8.333,-4.167Z" style="fill:#3a4532;fill-rule:nonzero;"/><path d="M672.135,896.916l175,0c2.062,10.312 2.062,10.312 4.167,20.833c-11.086,11.086 -19.395,9.372 -34.475,9.491c-5.365,-0.025 -5.365,-0.025 -10.838,-0.051c-5.502,0.012 -5.502,0.012 -11.115,0.024c-7.762,0.006 -15.523,-0.01 -23.285,-0.045c-11.907,-0.045 -23.811,-0 -35.718,0.053c-7.53,-0.006 -15.061,-0.016 -22.591,-0.033c-3.576,0.017 -7.153,0.034 -10.838,0.051c-25.183,-0.2 -25.183,-0.2 -34.475,-9.491c1.375,-6.875 2.75,-13.75 4.167,-20.833Z" style="fill:#566151;fill-rule:nonzero;"/><path d="M484.635,667.75c17.706,14.952 34.866,30.294 51.823,46.094c17.889,16.382 35.432,29.475 56.51,41.406c-1.375,4.125 -2.75,8.25 -4.167,12.5c-41.072,6.622 -41.072,6.622 -58.333,-4.167c-1.375,-4.125 -2.75,-8.25 -4.167,-12.5c-2.406,-1.203 -4.812,-2.406 -7.292,-3.646c-12.684,-6.342 -20.599,-15.172 -30.208,-25.521c-2.492,-2.578 -4.984,-5.156 -7.552,-7.812c-7.25,-12.975 -6.296,-23.458 -4.948,-38.021c2.75,-2.75 5.5,-5.5 8.333,-8.333Z" style="fill:#f6f8f4;fill-rule:nonzero;"/><path d="M588.802,1171.916l8.333,0c1.375,4.125 2.75,8.25 4.167,12.5c124.286,5.365 124.286,5.365 248.438,0.781c5.897,-0.515 5.897,-0.515 11.914,-1.04c21.023,-2.219 21.023,-2.219 39.648,-12.242c4.125,4.125 4.125,4.125 8.333,8.333c-2.232,14.732 -2.232,14.732 -8.333,20.833c-9.54,0.437 -19.094,0.577 -28.645,0.605c-4.492,0.021 -4.492,0.021 -9.074,0.042c-9.948,0.04 -19.895,0.048 -29.843,0.052c-6.887,0.013 -13.774,0.027 -20.661,0.042c-14.456,0.025 -28.912,0.033 -43.368,0.03c-18.557,-0 -37.113,0.056 -55.669,0.128c-14.23,0.046 -28.459,0.055 -42.689,0.053c-6.843,0.005 -13.686,0.023 -20.529,0.056c-9.558,0.041 -19.114,0.029 -28.672,0.004c-8.17,0.009 -8.17,0.009 -16.504,0.018c-12.68,-1.03 -12.68,-1.03 -21.013,-9.363c1.562,-10.938 1.562,-10.938 4.167,-20.833Z" style="fill:#566051;fill-rule:nonzero;"/><path d="M901.302,92.75c-5.632,6.348 -5.632,6.348 -12.5,12.5c-9.896,-1.562 -9.896,-1.562 -20.833,-4.167c-11.244,0.925 -11.244,0.925 -20.833,4.167c-1.375,2.75 -2.75,5.5 -4.167,8.333c4.125,1.375 8.25,2.75 12.5,4.167c-9.866,4.933 -15.941,4.705 -26.937,4.72c-3.677,0.005 -7.353,0.011 -11.141,0.016c-5.773,-0.024 -5.773,-0.024 -11.662,-0.049c-3.832,0.016 -7.665,0.032 -11.613,0.049c-3.682,-0.005 -7.364,-0.011 -11.157,-0.016c-3.373,-0.005 -6.745,-0.009 -10.22,-0.014c-8.937,-0.539 -8.937,-0.539 -21.437,-4.706l0,-8.333c8.25,-1.375 16.5,-2.75 25,-4.167c-17.254,-0.874 -17.254,-0.874 -33.333,4.167l0,-8.333l-8.333,0c0,-8.333 0,-8.333 8.333,-16.667c49.4,-14.568 109.922,-4.934 158.333,8.333Z" style="fill:#404e37;fill-rule:nonzero;"/><path d="M76.302,1130.25c17.64,1.286 27.818,13.334 39.844,25c26.019,24.568 52.703,48.757 82.227,69.092c7.096,5.908 7.096,5.908 8.138,17.106c-0.344,3.18 -0.688,6.359 -1.042,9.635c-7.507,2.677 -7.507,2.677 -16.667,4.167c-10.164,-7.31 -18.958,-14.503 -28.125,-22.917c-2.6,-2.31 -5.2,-4.62 -7.879,-7.001c-5.16,-4.591 -10.301,-9.203 -15.423,-13.837c-8.373,-7.572 -16.873,-14.99 -25.397,-22.392c-2.487,-2.186 -4.974,-4.372 -7.536,-6.624c-12.072,-10.566 -24.276,-20.977 -36.475,-31.396c3.646,-16.146 3.646,-16.146 8.333,-20.833Z" style="fill:#eef2eb;fill-rule:nonzero;"/><path d="M1093.358,1079.671c2.96,0.008 5.92,0.017 8.97,0.026c3.026,-0.004 6.053,-0.008 9.171,-0.012c6.413,-0.003 12.827,0.005 19.24,0.022c9.831,0.022 19.661,0 29.491,-0.026c6.22,0.003 12.44,0.008 18.66,0.016c4.427,-0.013 4.427,-0.013 8.944,-0.026c20.843,0.1 20.843,0.1 30.135,4.746c-3.646,20.312 -3.646,20.312 -8.333,25c-18.851,0.912 -37.723,0.774 -56.594,0.772c-9.484,0.009 -18.965,0.085 -28.448,0.164c-6.017,0.012 -12.033,0.02 -18.05,0.024c-5.494,0.017 -10.988,0.034 -16.648,0.052c-13.593,-1.012 -13.593,-1.012 -26.093,-9.345c4.752,-21.045 7.766,-21.307 29.556,-21.412Z" style="fill:#44503c;fill-rule:nonzero;"/><path d="M1072.135,805.25l141.667,0c2.062,10.312 2.062,10.312 4.167,20.833c-12.102,12.102 -21.115,9.411 -38.021,9.44c-2.928,0.008 -5.856,0.016 -8.872,0.024c-6.192,0.006 -12.385,-0.01 -18.577,-0.045c-9.493,-0.045 -18.982,-0 -28.475,0.053c-6.011,-0.006 -12.023,-0.016 -18.034,-0.033c-5.489,-0.009 -10.979,-0.019 -16.634,-0.028c-13.053,-1.078 -13.053,-1.078 -21.387,-9.412c1.375,-6.875 2.75,-13.75 4.167,-20.833Z" style="fill:#46513d;fill-rule:nonzero;"/><path d="M588.802,988.583l137.5,0c2.062,10.312 2.062,10.312 4.167,20.833c-11.953,11.953 -20.402,9.411 -37.109,9.44c-4.253,0.012 -4.253,0.012 -8.592,0.024c-5.996,0.006 -11.992,-0.01 -17.989,-0.045c-9.191,-0.045 -18.379,-0 -27.57,0.053c-5.821,-0.006 -11.643,-0.016 -17.464,-0.033c-5.315,-0.009 -10.629,-0.019 -16.105,-0.028c-12.671,-1.078 -12.671,-1.078 -21.004,-9.412c1.375,-6.875 2.75,-13.75 4.167,-20.833Z" style="fill:#434e3b;fill-rule:nonzero;"/><path d="M380.469,780.25c23.494,1.372 35.089,11.331 51.042,27.344c4.715,4.552 9.44,9.093 14.176,13.623c2.33,2.238 4.661,4.475 7.062,6.781c15.326,14.284 31.944,27.004 48.553,39.752c-1.375,6.875 -2.75,13.75 -4.167,20.833c-18.368,-2.165 -27.733,-8.375 -41.667,-20.312c-3.937,-3.335 -7.874,-6.671 -11.93,-10.107c-2.093,-1.803 -4.185,-3.605 -6.342,-5.463c-7.212,-6.2 -14.476,-12.337 -21.751,-18.463c-13.078,-11.017 -26.119,-22.076 -39.144,-33.154c1.375,-6.875 2.75,-13.75 4.167,-20.833Z" style="fill:#eef2ea;fill-rule:nonzero;"/><path d="M1067.969,701.083c1.375,6.875 2.75,13.75 4.167,20.833c-46.586,38.619 -46.586,38.619 -70.833,50c-12.5,-4.167 -25,-8.333 -37.5,-12.5l0,-16.667c82.616,-48.85 82.616,-48.85 104.167,-41.667Z" style="fill:#36432f;fill-rule:nonzero;"/><path d="M80.469,1084.416c2.75,4.125 5.5,8.25 8.333,12.5c-4.125,6.188 -4.125,6.188 -8.333,12.5c8.409,0.678 16.819,1.356 25.228,2.035c8.105,2.132 8.105,2.132 16.439,14.632c4.125,1.375 8.25,2.75 12.5,4.167c0.43,-3.781 0.859,-7.562 1.302,-11.458c2.882,-13.623 6.287,-19.947 15.365,-30.208c5.5,5.5 11,11 16.667,16.667c-4.125,12.375 -8.25,24.75 -12.5,37.5c-5.5,-2.75 -11,-5.5 -16.667,-8.333c-15.342,1.297 -15.342,1.297 -29.167,4.167c1.375,5.5 2.75,11 4.167,16.667c-3.781,-3.523 -7.563,-7.047 -11.458,-10.677c-9.945,-8.645 -9.945,-8.645 -22.656,-10.156c-8.27,4.563 -13.87,9.557 -20.052,16.667l0,-16.667l-25,0c1.974,-17.77 11.543,-26.49 25,-37.5c11.719,-1.302 11.719,-1.302 20.833,0l0,-12.5Z" style="fill:#424f3a;fill-rule:nonzero;"/><path d="M984.635,1171.916c4.125,1.375 8.25,2.75 12.5,4.167l0,8.333c29.441,0.105 58.882,0.179 88.323,0.229c10.019,0.021 20.039,0.049 30.058,0.085c14.386,0.05 28.773,0.074 43.159,0.093c4.493,0.022 8.985,0.043 13.614,0.065c4.17,0 8.34,0.001 12.637,0.001c3.673,0.009 7.347,0.019 11.131,0.028c10.115,-0.121 10.115,-0.121 21.912,-4.668c-3.646,16.146 -3.646,16.146 -8.333,20.833c-6.86,0.433 -13.739,0.577 -20.613,0.605c-6.591,0.04 -6.591,0.04 -13.315,0.081c-4.783,0.005 -9.566,0.009 -14.493,0.014c-4.876,0.014 -9.752,0.028 -14.776,0.042c-10.337,0.021 -20.673,0.031 -31.01,0.03c-15.867,0.009 -31.732,0.085 -47.598,0.164c-10.018,0.012 -20.036,0.02 -30.054,0.024c-7.162,0.045 -7.162,0.045 -14.468,0.091c-6.611,-0.019 -6.611,-0.019 -13.355,-0.039c-3.892,0.006 -7.784,0.012 -11.794,0.018c-9.358,-1.03 -9.358,-1.03 -17.691,-9.363c1.562,-10.938 1.562,-10.938 4.167,-20.833Z" style="fill:#525c4d;fill-rule:nonzero;"/><path d="M609.635,55.25l0,8.333l8.333,0c1.375,9.625 2.75,19.25 4.167,29.167c-39.116,29.001 -39.116,29.001 -55.078,29.395c-7.682,-2.311 -7.682,-2.311 -19.922,-8.561c-2.75,-1.375 -5.5,-2.75 -8.333,-4.167c9.625,-22.853 45.087,-54.167 70.833,-54.167Z" style="fill:#36422f;fill-rule:nonzero;"/><path d="M455.469,1176.083l4.167,0c2.482,17.371 4.424,34.007 4.167,51.562c-1.126,14.405 -1.126,14.405 4.167,23.438c0.299,10.632 0.388,21.145 0.26,31.771c-0.019,2.943 -0.038,5.887 -0.057,8.919c-0.049,7.27 -0.124,14.54 -0.203,21.81c-10.312,2.062 -10.312,2.062 -20.833,4.167c-1.375,-12.375 -2.75,-24.75 -4.167,-37.5l-4.167,0c-0.452,-12.678 -0.781,-25.339 -1.042,-38.021c-0.14,-3.566 -0.279,-7.133 -0.423,-10.807c-0.369,-23.968 2.363,-36.983 18.132,-55.339Z" style="fill:#34412c;fill-rule:nonzero;"/><path d="M632.21,1312.912c3.81,-0.04 7.62,-0.08 11.545,-0.121c4.123,-0.018 8.247,-0.035 12.495,-0.054c6.334,-0.036 6.334,-0.036 12.796,-0.072c8.939,-0.039 17.877,-0.067 26.816,-0.083c13.718,-0.041 27.433,-0.17 41.15,-0.301c8.67,-0.027 17.339,-0.049 26.009,-0.065c4.123,-0.051 8.247,-0.103 12.495,-0.156c3.81,0.013 7.62,0.025 11.545,0.038c5.042,-0.023 5.042,-0.023 10.186,-0.046c2.713,0.505 5.427,1.011 8.222,1.531c2.75,4.125 5.5,8.25 8.333,12.5l-225,0c26.049,-13.024 26.049,-13.024 43.408,-13.171Z" style="fill:#3d4a36;fill-rule:nonzero;"/><path d="M672.135,896.916l166.667,0l0,12.5c-20.631,3.374 -40.206,4.658 -61.182,4.574c-2.918,-0.006 -5.836,-0.012 -8.843,-0.018c-9.211,-0.023 -18.421,-0.075 -27.632,-0.129c-6.291,-0.021 -12.581,-0.04 -18.872,-0.057c-15.324,-0.046 -30.648,-0.117 -45.972,-0.203c-1.375,-5.5 -2.75,-11 -4.167,-16.667Z" style="fill:#33412c;fill-rule:nonzero;"/><path d="M259.635,1180.25c2.75,5.5 5.5,11 8.333,16.667c1.547,2.922 3.094,5.844 4.688,8.854c3.646,7.812 3.646,7.812 3.646,16.146c-4.039,1.633 -8.078,3.266 -12.24,4.948c-13.684,6.202 -13.684,6.202 -16.406,18.75c-0.172,3.18 -0.344,6.359 -0.521,9.635l-4.167,0l0,-20.833c-1.375,6.875 -2.75,13.75 -4.167,20.833c-2.75,-1.375 -5.5,-2.75 -8.333,-4.167c-4.125,1.375 -8.25,2.75 -12.5,4.167c-4.125,-1.375 -8.25,-2.75 -12.5,-4.167c1.375,-5.5 2.75,-11 4.167,-16.667l8.333,0c-0.773,-2.578 -1.547,-5.156 -2.344,-7.812c-1.823,-8.854 -1.823,-8.854 2.344,-17.188l8.333,0l0,-12.5c11,-5.5 22,-11 33.333,-16.667Z" style="fill:#44523c;fill-rule:nonzero;"/><path d="M937.838,1325.137c5.879,0.001 5.879,0.001 11.877,0.002c6.296,0.065 6.296,0.065 12.72,0.13c6.485,0.018 6.485,0.018 13.1,0.036c13.798,0.047 27.594,0.151 41.392,0.257c9.359,0.042 18.717,0.08 28.076,0.114c22.933,0.092 45.866,0.231 68.799,0.407c-1.375,5.5 -2.75,11 -4.167,16.667c-3.163,-0.126 -6.326,-0.252 -9.586,-0.382c-82.219,-3.288 -82.219,-3.288 -164.487,-3.524c-12.055,-0.234 -22.579,-1.59 -34.261,-4.427c12.746,-7.382 21.866,-9.358 36.536,-9.279Z" style="fill:#33432a;fill-rule:nonzero;"/><path d="M960.417,669.312c3.754,0.462 7.509,0.924 11.377,1.4c2.863,0.397 5.726,0.795 8.675,1.204c-4.479,17.571 -7.494,25.991 -23.096,35.889c-32.229,15.114 -32.229,15.114 -47.738,9.945c-4.948,-8.594 -4.948,-8.594 -8.333,-16.667c2.578,-0.258 5.156,-0.516 7.812,-0.781c2.922,-1.117 5.844,-2.234 8.854,-3.385c2.989,-6.856 5.764,-13.809 8.333,-20.833c14.384,-9.589 17.645,-8.91 34.115,-6.771Z" style="fill:#34402d;fill-rule:nonzero;"/><path d="M617.969,251.083c12.375,2.062 12.375,2.062 25,4.167c0,18.968 -3.606,24.327 -13.802,39.844c-2.562,3.958 -5.124,7.917 -7.764,11.995c-6.231,8.74 -12.214,15.953 -20.101,23.161l0,-12.5c-5.5,1.375 -11,2.75 -16.667,4.167c0.647,-29.741 15.592,-47.811 33.333,-70.833Z" style="fill:#36422f;fill-rule:nonzero;"/><path d="M522.135,480.25c7.091,13.688 13.101,27.692 19.01,41.927c1.81,4.345 3.62,8.69 5.485,13.167c3.2,7.926 6.135,15.963 8.838,24.072c-2.75,1.375 -5.5,2.75 -8.333,4.167c-2.75,-1.375 -5.5,-2.75 -8.333,-4.167c-1.375,5.5 -2.75,11 -4.167,16.667l-8.333,0c-1.375,-6.875 -2.75,-13.75 -4.167,-20.833c-3.867,-0.387 -3.867,-0.387 -7.812,-0.781c-8.854,-3.385 -8.854,-3.385 -14.062,-14.062c-1.031,-3.352 -2.062,-6.703 -3.125,-10.156l8.333,0c0.505,-2.911 1.01,-5.822 1.53,-8.822c0.698,-3.792 1.396,-7.584 2.116,-11.491c0.677,-3.771 1.354,-7.541 2.051,-11.426c2.637,-9.928 2.637,-9.928 10.97,-18.262Z" style="fill:#3f4d37;fill-rule:nonzero;"/><path d="M397.135,855.25c8.25,5.5 16.5,11 25,16.667c-5.756,13.029 -12.413,21.663 -22.656,31.51c-2.487,2.412 -4.974,4.823 -7.536,7.308c-3.617,3.472 -3.617,3.472 -7.308,7.015c-4.176,4.157 -8.346,8.321 -12.5,12.5l0,-16.667c-4.125,2.75 -8.25,5.5 -12.5,8.333c-4.125,-1.375 -8.25,-2.75 -12.5,-4.167c2.213,-2.417 4.426,-4.834 6.706,-7.324c15.976,-17.667 30.803,-34.878 43.294,-55.176Z" style="fill:#eff2ed;fill-rule:nonzero;"/><path d="M1172.135,1326.083c11.288,-1.165 21.61,-1.55 32.894,-1.367c3.268,0.008 6.536,0.016 9.904,0.024c6.925,0.028 13.849,0.086 20.774,0.172c10.562,0.129 21.122,0.171 31.684,0.195c6.73,0.038 13.46,0.081 20.19,0.13c4.721,0.027 4.721,0.027 9.538,0.054c15.769,0.212 30.513,1.188 45.85,4.959c-16.691,11.43 -34.453,9.388 -53.841,9.147c-3.583,-0.012 -7.167,-0.024 -10.858,-0.036c-11.42,-0.047 -22.839,-0.151 -34.259,-0.257c-7.753,-0.042 -15.506,-0.08 -23.258,-0.114c-18.984,-0.092 -37.967,-0.236 -56.95,-0.407c2.75,-4.125 5.5,-8.25 8.333,-12.5Z" style="fill:#314128;fill-rule:nonzero;"/><path d="M434.635,1238.583l4.167,0c1.375,12.375 2.75,24.75 4.167,37.5l4.167,0l0,41.667c6.875,-1.375 13.75,-2.75 20.833,-4.167l0,-29.167l4.167,0l0,29.167l33.333,0l0,8.333c5.5,1.375 11,2.75 16.667,4.167c-6.099,-0.073 -6.099,-0.073 -12.321,-0.146c-5.301,-0.038 -10.603,-0.075 -16.064,-0.114c-5.269,-0.048 -10.538,-0.097 -15.967,-0.146c-13.965,-0.266 -13.965,-0.266 -26.481,4.574c-1.375,4.125 -2.75,8.25 -4.167,12.5l-8.333,0c-5.328,-10.655 -4.639,-18.197 -4.574,-30.111c0.013,-4.297 0.027,-8.594 0.041,-13.021c0.035,-4.501 0.07,-9.002 0.106,-13.639c0.019,-4.533 0.038,-9.066 0.057,-13.737c0.049,-11.22 0.118,-22.439 0.203,-33.659Z" style="fill:#414d3a;fill-rule:nonzero;"/><path d="M1142.969,180.25c13.869,12.434 22.169,24.357 29.167,41.667c-4.167,12.5 -4.167,12.5 -11.719,17.448c-9.115,3.385 -9.115,3.385 -25.781,3.385c-9.909,-18.351 -9.909,-18.351 -12.5,-29.167c5.469,-14.323 5.469,-14.323 12.5,-25l8.333,0l0,-8.333Z" style="fill:#34402d;fill-rule:nonzero;"/><path d="M484.635,713.583c1.219,2.669 2.438,5.339 3.695,8.089c5.784,10.694 10.516,11.67 21.305,16.911c3.352,3.438 6.703,6.875 10.156,10.417c10.471,10.216 17.744,14.423 31.51,18.75l0,4.167c-3.867,1.203 -7.734,2.406 -11.719,3.646c-13.689,4.219 -13.689,4.219 -25.781,13.021c-1.375,-4.125 -2.75,-8.25 -4.167,-12.5c-5.519,-2.849 -11.078,-5.624 -16.667,-8.333c-9.205,-13.807 -9.27,-18.103 -8.854,-34.115c0.075,-3.754 0.15,-7.509 0.228,-11.377c0.097,-2.863 0.193,-5.726 0.293,-8.675Z" style="fill:#e2e6de;fill-rule:nonzero;"/><path d="M697.135,21.916c-1.375,1.375 -2.75,2.75 -4.167,4.167c12.375,4.125 24.75,8.25 37.5,12.5l0,12.5c-8.846,2.205 -17.702,4.367 -26.562,6.51c-4.931,1.208 -9.861,2.417 -14.941,3.662c-12.663,2.327 -12.663,2.327 -20.996,-1.839c-2.865,-10.417 -2.865,-10.417 -4.167,-20.833c1.375,-1.375 2.75,-2.75 4.167,-4.167c-2.75,-2.75 -5.5,-5.5 -8.333,-8.333c14.276,-6.742 22.419,-9.752 37.5,-4.167Z" style="fill:#42503a;fill-rule:nonzero;"/><path d="M813.802,1338.583l41.667,0l0,4.167c39.875,1.375 79.75,2.75 120.833,4.167l0,4.167l-345.833,0l0,-4.167c60.5,-1.375 121,-2.75 183.333,-4.167l0,-4.167Z" style="fill:#656e5f;fill-rule:nonzero;"/><path d="M755.469,167.75l62.5,0c1.375,6.875 2.75,13.75 4.167,20.833c-8.333,8.333 -8.333,8.333 -17.529,9.294c-36.324,-0.599 -36.324,-0.599 -53.304,-5.127c4.125,-5.5 8.25,-11 12.5,-16.667c-2.75,-2.75 -5.5,-5.5 -8.333,-8.333Z" style="fill:#3b4733;fill-rule:nonzero;"/><path d="M117.969,1280.25c4.125,1.375 8.25,2.75 12.5,4.167l-8.333,0c-2.75,6.875 -5.5,13.75 -8.333,20.833c5.5,2.75 11,5.5 16.667,8.333l0,8.333c2.75,1.375 5.5,2.75 8.333,4.167c-23.12,11.744 -40.589,18.886 -66.667,16.667l0,-4.167c6.875,-1.375 13.75,-2.75 20.833,-4.167c-2.75,-4.125 -5.5,-8.25 -8.333,-12.5c2.963,-17.409 6.871,-23.787 20.573,-35.156c4.211,-2.148 8.422,-4.297 12.76,-6.51Z" style="fill:#475440;fill-rule:nonzero;"/><path d="M1148.21,1277.466c2.396,0.918 4.791,1.837 7.259,2.783c-5.5,1.375 -11,2.75 -16.667,4.167c0.363,4.222 0.363,4.222 0.732,8.529c0.575,11.368 0.772,21.846 -0.732,33.138c-10.417,10.938 -10.417,10.938 -20.833,16.667c-1.375,-5.5 -2.75,-11 -4.167,-16.667c-5.5,1.375 -11,2.75 -16.667,4.167c0,-13.339 1.483,-18.029 8.333,-29.167c7.52,-7.243 7.52,-7.243 16.146,-13.802c2.825,-2.218 5.65,-4.437 8.561,-6.722c8.626,-4.476 8.626,-4.476 18.034,-3.092Z" style="fill:#434f3b;fill-rule:nonzero;"/><path d="M1347.135,967.75c4.147,10.981 4.41,15.913 0.749,27.262c-1.794,3.636 -3.588,7.272 -5.436,11.019c-1.729,3.668 -3.459,7.337 -5.241,11.117c-6.738,8.936 -6.738,8.936 -17.904,12.272c-3.19,0.274 -6.381,0.548 -9.668,0.83c-5.068,-30.405 -5.068,-30.405 -1.042,-43.49c5.208,-6.51 5.208,-6.51 17.708,-10.677l20.833,0l0,-8.333Z" style="fill:#35412f;fill-rule:nonzero;"/><path d="M438.802,892.75c4.125,1.375 8.25,2.75 12.5,4.167c-2.329,14.468 -6.396,19.873 -17.969,28.646c-10.922,8.76 -16.526,14.779 -24.479,26.823c-7.552,11.198 -7.552,11.198 -16.406,14.583c-2.578,0.258 -5.156,0.516 -7.812,0.781c-2.75,1.375 -5.5,2.75 -8.333,4.167c6.044,-19.463 17.441,-32.182 31.25,-46.615c3.118,-3.331 3.118,-3.331 6.299,-6.73c8.195,-8.733 16.482,-17.353 24.951,-25.822Z" style="fill:#eaf0e6;fill-rule:nonzero;"/><path d="M967.969,751.083c12.5,8.333 12.5,8.333 25,16.667l0,8.333c-13.75,5.5 -27.5,11 -41.667,16.667c-2.75,-2.75 -5.5,-5.5 -8.333,-8.333c4.125,-4.125 8.25,-8.25 12.5,-12.5l-16.667,0l0,-12.5c-2.75,-1.375 -5.5,-2.75 -8.333,-4.167c14.244,-6.727 22.567,-10.14 37.5,-4.167Z" style="fill:#424f3a;fill-rule:nonzero;"/><path d="M1030.469,396.916c6.875,1.375 13.75,2.75 20.833,4.167l0,50c-9.625,-2.75 -19.25,-5.5 -29.167,-8.333c-0.225,-6.075 -0.387,-12.152 -0.521,-18.229c-0.145,-5.076 -0.145,-5.076 -0.293,-10.254c0.814,-9.017 0.814,-9.017 9.147,-17.35Z" style="fill:#3b4733;fill-rule:nonzero;"/><path d="M1213.802,988.583c1.375,6.875 2.75,13.75 4.167,20.833c-12.72,6.36 -23.994,3.491 -38.021,2.344c-5.339,-0.424 -10.678,-0.849 -16.178,-1.286c-4.114,-0.349 -8.229,-0.698 -12.467,-1.058c-1.375,-5.5 -2.75,-11 -4.167,-16.667c22.288,-2.467 44.204,-4.758 66.667,-4.167Z" style="fill:#414d39;fill-rule:nonzero;"/><path d="M338.802,892.75c12.143,12.143 12.143,12.143 12.5,25c-10.6,18.122 -10.6,18.122 -20.833,25c-12.284,0.929 -21.137,-1.273 -33.333,-4.167c13.365,-15.86 26.698,-31.44 41.667,-45.833Z" style="fill:#444e3c;fill-rule:nonzero;"/><path d="M609.635,142.75c11.807,13.347 14.669,24.087 16.667,41.667c-4.125,2.062 -4.125,2.062 -8.333,4.167c-2.75,-1.375 -5.5,-2.75 -8.333,-4.167l0,-8.333l-8.333,0c-1.375,-2.75 -2.75,-5.5 -4.167,-8.333c-12.375,11 -24.75,22 -37.5,33.333c-2.75,-1.375 -5.5,-2.75 -8.333,-4.167c7.366,-7.478 14.746,-14.941 22.135,-22.396c2.081,-2.116 4.163,-4.232 6.307,-6.413c9.58,-9.644 18.538,-17.789 29.891,-25.358Z" style="fill:#3b4832;fill-rule:nonzero;"/><path d="M247.135,984.416c1.375,8.25 2.75,16.5 4.167,25c-19.271,16.667 -19.271,16.667 -33.333,16.667l0,-8.333c-5.5,4.125 -11,8.25 -16.667,12.5c-2.75,-1.375 -5.5,-2.75 -8.333,-4.167c7.443,-6.97 14.91,-13.909 22.396,-20.833c3.174,-2.981 3.174,-2.981 6.413,-6.022c16.081,-14.811 16.081,-14.811 25.358,-14.811Z" style="fill:#46503f;fill-rule:nonzero;"/><path d="M1201.302,896.916c5.5,1.375 11,2.75 16.667,4.167c-1.375,6.875 -2.75,13.75 -4.167,20.833c-52.25,-1.375 -104.5,-2.75 -158.333,-4.167l0,-4.167c46.75,-1.375 93.5,-2.75 141.667,-4.167c1.375,-4.125 2.75,-8.25 4.167,-12.5Z" style="fill:#3d4936;fill-rule:nonzero;"/><path d="M363.802,830.25c5.5,1.375 11,2.75 16.667,4.167c-6.426,18.742 -14.803,36.404 -33.073,45.833c-2.836,1.375 -5.672,2.75 -8.594,4.167c-7.104,6.781 -14.079,13.704 -20.833,20.833c-2.75,-1.375 -5.5,-2.75 -8.333,-4.167c2.723,-2.433 2.723,-2.433 5.501,-4.915c20.895,-19.629 34.905,-40.868 48.665,-65.918Z" style="fill:#e7ece2;fill-rule:nonzero;"/><path d="M897.135,1171.916c4.125,2.75 8.25,5.5 12.5,8.333c-1.375,5.5 -2.75,11 -4.167,16.667c-57.75,-2.062 -57.75,-2.062 -116.667,-4.167l0,-4.167c4.478,-0.313 4.478,-0.313 9.047,-0.633c13.48,-0.965 26.956,-1.988 40.432,-3.013c7.05,-0.491 7.05,-0.491 14.242,-0.993c4.485,-0.349 8.97,-0.698 13.59,-1.058c6.219,-0.458 6.219,-0.458 12.563,-0.926c10.852,-0.828 10.852,-0.828 18.459,-10.044Z" style="fill:#3b4934;fill-rule:nonzero;"/><path d="M467.969,851.083c11.161,1.508 19.208,3.083 28.646,9.375c4.688,7.292 4.688,7.292 3.385,18.49c-0.945,3.18 -1.891,6.359 -2.865,9.635c-14.061,-2.28 -21.176,-4.395 -33.333,-12.5c1.375,-8.25 2.75,-16.5 4.167,-25Z" style="fill:#e5ebe2;fill-rule:nonzero;"/><path d="M659.635,30.25c4.125,1.375 8.25,2.75 12.5,4.167c-1.375,2.75 -2.75,5.5 -4.167,8.333l0,16.667c2.75,1.375 5.5,2.75 8.333,4.167c-12.5,8.333 -12.5,8.333 -29.167,8.333c-1.375,-2.75 -2.75,-5.5 -4.167,-8.333l-8.333,0c1.375,-6.875 2.75,-13.75 4.167,-20.833c2.664,-0.516 5.328,-1.031 8.073,-1.562c4.254,-1.289 4.254,-1.289 8.594,-2.604c1.375,-2.75 2.75,-5.5 4.167,-8.333Z" style="fill:#36432f;fill-rule:nonzero;"/><path d="M680.469,896.916l158.333,0l0,12.5l-29.167,0l0,-4.167l-129.167,0l0,-8.333Z" style="fill:#2b3725;fill-rule:nonzero;"/><path d="M1084.635,238.583c2.75,1.375 5.5,2.75 8.333,4.167c0.521,32.292 0.521,32.292 -4.167,41.667c-8.594,2.604 -8.594,2.604 -16.667,4.167c-8.333,-12.5 -8.333,-12.5 -8.333,-25l8.333,0c1.289,-2.578 9.635,-19.271 12.5,-25Z" style="fill:#303d2a;fill-rule:nonzero;"/><path d="M467.969,1284.416l4.167,0l0,29.167l33.333,0l0,8.333c5.5,1.375 11,2.75 16.667,4.167l-66.667,0c1.375,-4.125 2.75,-8.25 4.167,-12.5l8.333,0l0,-29.167Z" style="fill:#424f3b;fill-rule:nonzero;"/><path d="M231.51,1148.218c3.781,0.945 7.562,1.891 11.458,2.865l0,12.5c-9.625,5.5 -19.25,11 -29.167,16.667c-0.516,-2.664 -1.031,-5.328 -1.562,-8.073c-1.289,-4.254 -1.289,-4.254 -2.604,-8.594c-2.75,-1.375 -5.5,-2.75 -8.333,-4.167c10.988,-10.566 14.621,-12.697 30.208,-11.198Z" style="fill:#444e3a;fill-rule:nonzero;"/><path d="M755.469,5.25c-1.375,5.5 -2.75,11 -4.167,16.667c-5.888,1.044 -11.795,1.978 -17.708,2.865c-3.287,0.532 -6.574,1.063 -9.961,1.611c-12.449,-0.392 -17.369,-4.665 -26.497,-12.809c6.593,-1.409 13.191,-2.793 19.792,-4.167c3.674,-0.773 7.348,-1.547 11.133,-2.344c10.742,-1.823 10.742,-1.823 27.409,-1.823Z" style="fill:#4b5744;fill-rule:nonzero;"/><path d="M451.302,1205.25c4.125,2.062 4.125,2.062 8.333,4.167c4.939,24.825 5.894,50.354 0,75c-2.75,1.375 -5.5,2.75 -8.333,4.167l0,-83.333Z" style="fill:#2c3a25;fill-rule:nonzero;"/><path d="M730.469,992.75c-1.375,6.875 -2.75,13.75 -4.167,20.833c-16.5,-1.375 -33,-2.75 -50,-4.167c32.051,-24.038 32.051,-24.038 54.167,-16.667Z" style="fill:#3b4834;fill-rule:nonzero;"/><path d="M805.469,167.75c5.5,1.375 11,2.75 16.667,4.167c-1.375,6.875 -2.75,13.75 -4.167,20.833l-37.5,0c5.718,-11.435 14.176,-14.45 25,-20.833l0,-4.167Z" style="fill:#35402e;fill-rule:nonzero;"/><path d="M438.802,709.416l4.167,0c2.087,14.606 0.309,20.332 -7.552,33.073c-15.764,10.2 -19.633,8.999 -37.5,5.729c-7.232,-1.71 -14.449,-3.498 -21.615,-5.469l0,-4.167c2.814,-0.204 5.629,-0.408 8.529,-0.618c3.717,-0.312 7.434,-0.623 11.263,-0.944c3.674,-0.29 7.348,-0.58 11.133,-0.879c10.845,-1.742 18.169,-4.179 27.409,-10.059c3.355,-8.542 3.355,-8.542 4.167,-16.667Z" style="fill:#596352;fill-rule:nonzero;"/><path d="M1076.302,659.416c1.375,5.5 2.75,11 4.167,16.667c-3.352,2.578 -6.703,5.156 -10.156,7.812c-10.839,7.778 -10.839,7.778 -14.844,17.188c-5.5,-1.375 -11,-2.75 -16.667,-4.167c12.375,-12.375 24.75,-24.75 37.5,-37.5Zm-45.833,41.667c2.75,1.375 5.5,2.75 8.333,4.167l-12.5,0c1.375,-1.375 2.75,-2.75 4.167,-4.167Z" style="fill:#495444;fill-rule:nonzero;"/><path d="M667.969,901.083l8.333,0l0,12.5l91.667,0l0,4.167c-31.625,1.375 -63.25,2.75 -95.833,4.167c-1.375,-6.875 -2.75,-13.75 -4.167,-20.833Z" style="fill:#465241;fill-rule:nonzero;"/><path d="M997.135,626.083c2.75,1.375 5.5,2.75 8.333,4.167c-3.066,4.812 -6.205,9.578 -9.375,14.323c-1.74,2.659 -3.48,5.317 -5.273,8.057c-7.456,8.182 -12.071,9.269 -22.852,10.954c-3.781,0.773 -7.562,1.547 -11.458,2.344c-3.094,0.602 -6.188,1.203 -9.375,1.823c2.836,-2.234 5.672,-4.469 8.594,-6.771c14.047,-11.357 27.742,-23.083 41.406,-34.896Z" style="fill:#434e3d;fill-rule:nonzero;"/><path d="M597.135,151.083c4.125,1.375 8.25,2.75 12.5,4.167c-15.85,16.331 -32.566,31.213 -50,45.833c-2.75,-1.375 -5.5,-2.75 -8.333,-4.167c15.125,-15.125 30.25,-30.25 45.833,-45.833Z" style="fill:#485342;fill-rule:nonzero;"/><path d="M355.469,871.916c-5.869,13.397 -12.931,22.174 -23.438,32.292c-3.948,3.835 -3.948,3.835 -7.975,7.747c-2.009,1.912 -4.018,3.824 -6.087,5.794c-2.75,-1.375 -5.5,-2.75 -8.333,-4.167l0,-8.333c7.145,-7.048 7.145,-7.048 16.406,-14.844c4.568,-3.875 4.568,-3.875 9.229,-7.829c2.541,-2.143 5.081,-4.286 7.699,-6.494c4.167,-4.167 4.167,-4.167 12.5,-4.167Z" style="fill:#f7fbf3;fill-rule:nonzero;"/><path d="M1213.802,1180.25c1.375,4.125 2.75,8.25 4.167,12.5c-12.908,6.454 -26.092,3.468 -40.104,2.344c-2.943,-0.218 -5.887,-0.435 -8.919,-0.659c-7.272,-0.54 -14.541,-1.11 -21.81,-1.685c14.236,-9.491 19.06,-9.147 35.677,-8.594c16.118,0.961 16.118,0.961 30.99,-3.906Z" style="fill:#44523d;fill-rule:nonzero;"/><path d="M588.802,988.583c8.363,1.195 16.702,2.578 25,4.167c-3.125,8.073 -3.125,8.073 -8.333,16.667c-8.854,3.125 -8.854,3.125 -16.667,4.167c-1.592,-6.901 -2.975,-13.852 -4.167,-20.833c1.375,-1.375 2.75,-2.75 4.167,-4.167Z" style="fill:#454f3c;fill-rule:nonzero;"/><path d="M909.635,896.916c6.188,4.125 6.188,4.125 12.5,8.333l0,4.167c17.875,1.375 35.75,2.75 54.167,4.167l0,4.167c-33,2.062 -33,2.062 -66.667,4.167c-1.375,-6.875 -2.75,-13.75 -4.167,-20.833c1.375,-1.375 2.75,-2.75 4.167,-4.167Z" style="fill:#3d4837;fill-rule:nonzero;"/><path d="M192.969,988.583c2.75,1.375 5.5,2.75 8.333,4.167c-4.493,5.313 -9.012,10.604 -13.542,15.885c-2.514,2.949 -5.027,5.897 -7.617,8.936c-7.69,8.174 -15.506,14.582 -24.674,21.012c-2.75,-1.375 -5.5,-2.75 -8.333,-4.167c15.125,-15.125 30.25,-30.25 45.833,-45.833Z" style="fill:#e8ebe3;fill-rule:nonzero;"/><path d="M926.302,588.583c0,12.5 0,12.5 -7.292,21.875c-9.375,7.292 -9.375,7.292 -18.75,6.25c-2.406,-1.031 -4.812,-2.062 -7.292,-3.125l0,-8.333c11,-5.5 22,-11 33.333,-16.667Z" style="fill:#46503e;fill-rule:nonzero;"/><path d="M463.802,1146.916c2.848,7.096 2.848,7.096 4.167,16.667c-5.062,9.831 -5.062,9.831 -12.24,19.792c-3.537,4.995 -3.537,4.995 -7.145,10.091c-1.853,2.514 -3.706,5.027 -5.615,7.617c-2.702,-7.536 -2.702,-7.536 -4.167,-16.667c6.648,-8.572 13.605,-16.911 20.833,-25c1.375,-4.125 2.75,-8.25 4.167,-12.5Z" style="fill:#46503f;fill-rule:nonzero;"/><path d="M551.302,201.083c2.75,2.75 5.5,5.5 8.333,8.333c-5.208,12.24 -5.208,12.24 -12.5,25c-9.115,3.646 -9.115,3.646 -16.667,4.167c1.997,-17.975 7.274,-25.69 20.833,-37.5Z" style="fill:#333d2c;fill-rule:nonzero;"/><path d="M634.635,280.25c2.75,2.75 5.5,5.5 8.333,8.333c-7.831,14.879 -13.211,23.114 -29.167,29.167c5.205,-14.414 11.147,-25.612 20.833,-37.5Z" style="fill:#e5ebe0;fill-rule:nonzero;"/><path d="M755.469,184.416l29.167,0l0,4.167c9.625,1.375 19.25,2.75 29.167,4.167l0,4.167c-43.992,0.769 -43.992,0.769 -62.5,-4.167c1.375,-2.75 2.75,-5.5 4.167,-8.333Z" style="fill:#576250;fill-rule:nonzero;"/><path d="M434.635,1238.583l4.167,0c0.252,2.514 0.505,5.027 0.765,7.617c0.349,3.33 0.698,6.66 1.058,10.091c0.338,3.287 0.677,6.574 1.025,9.961c1.22,9.096 3.071,17.653 5.485,26.497c-6.188,4.125 -6.188,4.125 -12.5,8.333l0,-62.5Z" style="fill:#4d5745;fill-rule:nonzero;"/><path d="M1072.135,1080.25c8.854,1.562 8.854,1.562 16.667,4.167c-1.375,5.5 -2.75,11 -4.167,16.667c-5.5,1.375 -11,2.75 -16.667,4.167c-2.604,-7.812 -2.604,-7.812 -4.167,-16.667c2.75,-2.75 5.5,-5.5 8.333,-8.333Z" style="fill:#4e5948;fill-rule:nonzero;"/><path d="M792.969,630.25c1.375,2.75 2.75,5.5 4.167,8.333c2.75,1.375 5.5,2.75 8.333,4.167c-1.375,2.75 -2.75,5.5 -4.167,8.333l41.667,0l0,4.167c-7.464,0.225 -14.93,0.386 -22.396,0.521c-4.157,0.097 -8.314,0.193 -12.598,0.293c-10.84,-0.814 -10.84,-0.814 -19.173,-9.147c1.562,-8.854 1.562,-8.854 4.167,-16.667Z" style="fill:#4d5646;fill-rule:nonzero;"/><path d="M438.802,463.583l0,20.833l-8.333,0c1.375,8.25 2.75,16.5 4.167,25l-8.333,0c-0.112,-6.857 -0.193,-13.715 -0.26,-20.573c-0.048,-3.819 -0.097,-7.638 -0.146,-11.572c0.515,-12.054 0.784,-13.688 12.907,-13.688Z" style="fill:#2b3724;fill-rule:nonzero;"/><path d="M1301.302,1334.416c4.254,0.902 4.254,0.902 8.594,1.823c13.751,2.633 27.537,4.607 41.406,6.51l0,4.167l-54.167,0c1.375,-4.125 2.75,-8.25 4.167,-12.5Z" style="fill:#525d4a;fill-rule:nonzero;"/><path d="M430.469,288.583c-6.771,23.958 -6.771,23.958 -20.833,33.333c1.065,-9.763 2.47,-19.493 4.167,-29.167c8.333,-4.167 8.333,-4.167 16.667,-4.167Z" style="fill:#313e2a;fill-rule:nonzero;"/><path d="M209.635,1017.75c10.938,1.562 10.938,1.562 20.833,4.167c-6.875,6.875 -13.75,13.75 -20.833,20.833c-2.75,-5.5 -5.5,-11 -8.333,-16.667c2.75,-2.75 5.5,-5.5 8.333,-8.333Z" style="fill:#323d2a;fill-rule:nonzero;"/><path d="M367.969,742.75l41.667,0l0,4.167l-25,0c-1.375,4.125 -2.75,8.25 -4.167,12.5l-16.667,0c1.375,-5.5 2.75,-11 4.167,-16.667Z" style="fill:#343f2d;fill-rule:nonzero;"/><path d="M705.469,18.791c8.333,3.125 8.333,3.125 20.833,11.458c-15.895,6.114 -26.209,1.806 -41.667,-4.167c12.5,-8.333 12.5,-8.333 20.833,-7.292Z" style="fill:#324129;fill-rule:nonzero;"/><path d="M167.969,1271.916c4.125,5.5 8.25,11 12.5,16.667c-10.312,6.188 -10.312,6.188 -20.833,12.5c-4.125,-4.125 -8.25,-8.25 -12.5,-12.5c3.996,-0.645 3.996,-0.645 8.073,-1.302c2.836,-0.945 5.672,-1.891 8.594,-2.865c1.375,-4.125 2.75,-8.25 4.167,-12.5Z" style="fill:#45503f;fill-rule:nonzero;"/><path d="M438.802,913.583l8.333,0c-2.604,9.896 -2.604,9.896 -8.333,20.833c-13.021,5.469 -13.021,5.469 -25,8.333c3.963,-4.885 7.963,-9.741 11.979,-14.583c2.224,-2.707 4.447,-5.414 6.738,-8.203c3.11,-3.158 3.11,-3.158 6.283,-6.38Z" style="fill:#4d5947;fill-rule:nonzero;"/><path d="M530.469,313.583c-2.75,13.75 -5.5,27.5 -8.333,41.667l-4.167,0c-2.75,-9.625 -5.5,-19.25 -8.333,-29.167c11.458,-12.5 11.458,-12.5 20.833,-12.5Z" style="fill:#47523f;fill-rule:nonzero;"/><path d="M992.969,46.916c8.25,4.125 16.5,8.25 25,12.5c-5.729,6.25 -5.729,6.25 -12.5,12.5l-8.333,0l0,-16.667c-2.75,-1.375 -5.5,-2.75 -8.333,-4.167c1.375,-1.375 2.75,-2.75 4.167,-4.167Z" style="fill:#3e4a39;fill-rule:nonzero;"/><path d="M1026.302,638.583c2.75,1.375 5.5,2.75 8.333,4.167c-5.208,10.417 -5.208,10.417 -12.5,20.833l-16.667,0c2.75,-1.375 5.5,-2.75 8.333,-4.167c2.914,-5.485 5.697,-11.043 8.333,-16.667c1.375,-1.375 2.75,-2.75 4.167,-4.167Z" style="fill:#414c38;fill-rule:nonzero;"/><path d="M438.802,463.583l4.167,0c1.375,13.75 2.75,27.5 4.167,41.667l-12.5,0c-1.375,-6.875 -2.75,-13.75 -4.167,-20.833l8.333,0l0,-20.833Z" style="fill:#495244;fill-rule:nonzero;"/><path d="M1022.135,405.25c11.807,13.347 14.669,24.087 16.667,41.667c-5.5,-1.375 -11,-2.75 -16.667,-4.167l0,-37.5Z" style="fill:#576451;fill-rule:nonzero;"/><path d="M467.969,1284.416l4.167,0c4.069,25.228 4.069,25.228 4.167,33.333c-8.333,8.333 -8.333,8.333 -20.833,8.333c1.375,-4.125 2.75,-8.25 4.167,-12.5l8.333,0l0,-29.167Z" style="fill:#5d6a55;fill-rule:nonzero;"/><path d="M492.969,1126.083c10.933,12.755 12.5,15.549 12.5,33.333l-8.333,0c-8.333,-12.5 -8.333,-12.5 -6.771,-23.698c0.859,-3.18 1.719,-6.359 2.604,-9.635Z" style="fill:#4e5846;fill-rule:nonzero;"/><path d="M313.802,1121.916c2.75,4.125 5.5,8.25 8.333,12.5c-6.875,6.875 -13.75,13.75 -20.833,20.833c-2.75,-1.375 -5.5,-2.75 -8.333,-4.167c6.875,-9.625 13.75,-19.25 20.833,-29.167Z" style="fill:#434d3d;fill-rule:nonzero;"/><path d="M480.469,709.416l4.167,0c1.375,15.125 2.75,30.25 4.167,45.833c-5.5,-2.75 -11,-5.5 -16.667,-8.333c2.75,-12.375 5.5,-24.75 8.333,-37.5Z" style="fill:#838a7d;fill-rule:nonzero;"/><path d="M1109.635,634.416l0,25c-4.125,2.062 -4.125,2.062 -8.333,4.167c-2.75,-6.875 -5.5,-13.75 -8.333,-20.833c8.333,-8.333 8.333,-8.333 16.667,-8.333Z" style="fill:#313e29;fill-rule:nonzero;"/><path d="M1167.969,501.083c8.333,8.333 8.333,8.333 8.333,25c-4.125,1.375 -8.25,2.75 -12.5,4.167c-4.167,-12.5 -4.167,-12.5 -0.26,-21.615c2.191,-3.738 2.191,-3.738 4.427,-7.552Z" style="fill:#46503e;fill-rule:nonzero;"/><path d="M1092.969,476.083c2.75,5.5 5.5,11 8.333,16.667c-4.125,2.062 -4.125,2.062 -8.333,4.167c-2.731,10.531 -2.731,10.531 -4.167,20.833c-2.75,-1.375 -5.5,-2.75 -8.333,-4.167c4.125,-12.375 8.25,-24.75 12.5,-37.5Z" style="fill:#455141;fill-rule:nonzero;"/><path d="M159.635,1267.75c2.75,1.375 5.5,2.75 8.333,4.167c-1.375,5.5 -2.75,11 -4.167,16.667l-25,0c6.875,-6.875 13.75,-13.75 20.833,-20.833Z" style="fill:#e9efe4;fill-rule:nonzero;"/><path d="M905.469,1180.25c1.375,4.125 2.75,8.25 4.167,12.5c-10.93,5.465 -17.626,3.735 -29.688,2.344c-3.792,-0.424 -7.584,-0.849 -11.491,-1.286c-2.911,-0.349 -5.822,-0.698 -8.822,-1.058l0,-4.167c3.916,-0.379 3.916,-0.379 7.91,-0.765c5.108,-0.524 5.108,-0.524 10.319,-1.058c3.384,-0.338 6.768,-0.677 10.254,-1.025c9.195,-0.864 9.195,-0.864 17.35,-5.485Z" style="fill:#505c4a;fill-rule:nonzero;"/><path d="M9.635,1163.583c4.125,1.375 8.25,2.75 12.5,4.167c-6.188,14.438 -6.188,14.438 -12.5,29.167l-4.167,0c-0.177,-9.721 -0.171,-19.446 0,-29.167c1.375,-1.375 2.75,-2.75 4.167,-4.167Z" style="fill:#323f2d;fill-rule:nonzero;"/><path d="M342.969,892.75c10.312,2.062 10.312,2.062 20.833,4.167c-2.75,5.5 -5.5,11 -8.333,16.667c-4.125,-1.375 -8.25,-2.75 -12.5,-4.167l0,-16.667Z" style="fill:#313d29;fill-rule:nonzero;"/><path d="M359.635,746.916c2.75,1.375 5.5,2.75 8.333,4.167c-2.75,6.875 -5.5,13.75 -8.333,20.833c-4.125,-1.375 -8.25,-2.75 -12.5,-4.167c7.812,-16.146 7.812,-16.146 12.5,-20.833Z" style="fill:#475340;fill-rule:nonzero;"/><path d="M1084.635,559.416l12.5,0c-1.375,6.875 -2.75,13.75 -4.167,20.833l-12.5,0c1.375,-6.875 2.75,-13.75 4.167,-20.833Z" style="fill:#313b2c;fill-rule:nonzero;"/></svg>