<?xml version="1.0" encoding="UTF-8" standalone="no"?><!DOCTYPE svg PUBLIC "-//W3C//DTD SVG 1.1//EN" "http://www.w3.org/Graphics/SVG/1.1/DTD/svg11.dtd"><svg width="100%" height="100%" viewBox="0 0 1025 1309" version="1.1" xmlns="http://www.w3.org/2000/svg" xmlns:xlink="http://www.w3.org/1999/xlink" xml:space="preserve" xmlns:serif="http://www.serif.com/" style="fill-rule:evenodd;clip-rule:evenodd;stroke-linejoin:round;stroke-miterlimit:2;"><path d="M0,0l1025,0l0,179.167l-79.167,0c-1.418,9.281 -1.418,9.281 -2.865,18.75c-7.381,36.343 -27.841,61.407 -55.469,85.417c-4.125,2.062 -4.125,2.062 -8.333,4.167c1.805,3.609 5.966,11.932 8.333,16.667c1.445,2.567 2.89,5.135 4.378,7.78c8.728,19.61 6.077,40.467 -0.993,60.189c-12.068,17.893 -24.039,27.525 -45.052,32.031c0.508,4.379 1.016,8.759 1.539,13.271c6.769,60.214 10.887,120.547 14.867,181c0.723,10.802 1.446,21.603 2.17,32.405c5.304,79.55 10.28,159.119 14.96,238.707c0.239,4.013 0.478,8.027 0.724,12.162c0.437,7.35 0.867,14.7 1.288,22.05c1.225,20.535 3.039,40.944 5.16,61.406c1.348,13.824 2.151,27.654 2.896,41.522c0.323,5.826 0.646,11.652 0.97,17.477c0.163,2.984 0.326,5.968 0.494,9.043c2.462,45.009 5.247,89.888 9.62,134.759c4.247,44.062 4.467,87.801 3.646,132.031c-14.472,4.824 -26.503,4.453 -41.667,4.167c-0.313,-5.399 -0.626,-10.799 -0.949,-16.361c-7.531,-130.85 -7.531,-130.85 -17.801,-261.503c-6.628,-73.759 -10.479,-147.654 -14.209,-221.609c-2.5,-48.669 -5.912,-97.016 -11.081,-145.474c-2.182,-20.668 -3.401,-41.316 -4.137,-62.083c-0.985,-25.628 -2.917,-50.831 -5.99,-76.302c-5.07,-0.43 -21.069,-1.785 -24.007,-2.035c-15.276,3.333 -20.709,10.594 -30.16,22.868c-2.721,13.949 -2.098,27.504 -1.502,41.656c0.133,6.09 0.133,6.09 0.269,12.303c0.304,12.575 0.757,25.138 1.233,37.707c0.219,7.308 0.434,14.615 0.643,21.923c0.679,21.921 1.611,43.829 2.564,65.74c0.341,8.164 0.681,16.328 1.02,24.492c0.899,21.556 1.824,43.11 2.754,64.665c0.575,13.363 1.142,26.727 1.706,40.09c5.107,120.915 10.563,241.808 16.88,362.666c0.247,4.729 0.493,9.459 0.747,14.331c0.451,8.61 0.909,17.22 1.373,25.83c0.197,3.728 0.394,7.456 0.597,11.297c0.172,3.188 0.344,6.377 0.521,9.662c0.391,10.039 0.362,20.091 0.362,30.138l-45.833,0c-3.199,-64.662 -6.388,-129.325 -9.563,-193.989c-1.475,-30.04 -2.954,-60.079 -4.442,-90.118c-1.3,-26.251 -2.593,-52.502 -3.878,-78.753c-0.677,-13.837 -1.359,-27.674 -2.047,-41.511c-2.356,-47.392 -4.705,-94.778 -6.215,-142.206c-0.09,-2.823 -0.18,-5.647 -0.273,-8.556c-0.426,-13.529 -0.828,-27.058 -1.201,-40.588c-0.746,-25.189 -1.987,-50.104 -4.801,-75.152c-1.927,-17.486 -2.023,-34.991 -2.216,-52.564c-0.121,-3.706 -0.242,-7.412 -0.366,-11.23c-0.283,-29.592 6.115,-51.171 25.61,-73.763c26.953,-21.537 45.91,-26.248 80.225,-24.902c-0.688,-4.125 -1.375,-8.25 -2.083,-12.5c-2.775,-16.648 -2.224,-33.169 -2.083,-50c-52.825,-6.491 -52.825,-6.491 -100.708,11.053c-8.018,8.991 -14.24,17.914 -20.386,28.269c-1.933,3.206 -3.865,6.412 -5.856,9.715c-9.653,19.045 -11.861,31.401 -5.781,52.053c2.474,6.62 5.041,13.207 7.731,19.743c2.431,7.465 4.861,14.931 7.292,22.396c1.096,3.298 2.191,6.596 3.32,9.993c3.722,18.287 -4.692,31.206 -13.77,46.745c-2.261,3.969 -4.522,7.938 -6.852,12.028c-4.779,8.312 -9.597,16.602 -14.453,24.87c-2.25,3.98 -4.501,7.96 -6.82,12.061c-2.09,3.603 -4.18,7.207 -6.333,10.919c-5.184,14.063 -3.904,21.631 0.116,35.988c5.472,11.565 5.472,11.565 12.549,22.852c2.468,4.243 4.936,8.486 7.479,12.858c5.209,8.806 10.482,17.574 15.82,26.302c20.913,36.375 20.913,36.375 16.414,58.903c-2.069,6.94 -4.215,13.857 -6.429,20.752c-1.689,8.005 -3.28,16.031 -4.785,24.072c-10.577,53.159 -21.406,106.253 -32.715,159.261l-4.167,0c2.54,-50.527 5.922,-100.966 9.747,-151.412c0.698,-9.423 1.348,-18.85 1.941,-28.281c0.621,-9.166 1.552,-18.311 2.618,-27.436c-2.858,-21.682 -14.739,-37.24 -26.807,-55.111c-2.385,-3.644 -4.77,-7.289 -7.227,-11.043c-5.867,-8.946 -11.791,-17.848 -17.773,-26.717c-0.736,113.826 0.712,227.602 2.536,341.41c0.245,15.374 0.485,30.748 0.72,46.123c0.045,2.975 0.091,5.95 0.138,9.015c0.911,60.876 0.983,121.737 0.774,182.619l-45.833,0c-0.095,-6.726 -0.19,-13.452 -0.288,-20.381c-0.911,-64.324 -1.83,-128.647 -2.755,-192.97c-0.475,-33.045 -0.948,-66.091 -1.415,-99.136c-0.182,-12.862 -0.364,-25.724 -0.546,-38.586c-0.067,-4.754 -0.067,-4.754 -0.136,-9.604c-0.493,-34.723 -1.001,-69.446 -1.55,-104.169c-0.048,-3.063 -0.097,-6.125 -0.147,-9.281c-0.192,-12.154 -0.385,-24.307 -0.58,-36.461c-0.569,-35.498 -1.051,-70.994 -1.39,-106.495c-0.184,-18.151 -0.428,-36.301 -0.688,-54.451c-0.102,-8.172 -0.176,-16.345 -0.219,-24.517c-0.06,-10.983 -0.218,-21.96 -0.401,-32.942c0.009,-3.14 0.018,-6.279 0.027,-9.514c-0.476,-20.184 -4.7,-30.65 -19.077,-44.826c-13.404,-6.702 -27.172,-6.721 -41.667,-4.167c-11.213,9.066 -18.564,16.294 -25,29.167c-0.605,8.703 -0.946,17.425 -1.172,26.146c-0.075,2.72 -0.151,5.44 -0.228,8.243c-0.248,9.191 -0.466,18.382 -0.683,27.574c-0.169,6.618 -0.339,13.237 -0.509,19.855c-0.46,18.142 -0.889,36.285 -1.309,54.428c-0.265,11.382 -0.537,22.764 -0.811,34.145c-4.687,195.951 -6.286,391.945 -7.787,587.942l-45.833,0c0.046,-3.313 0.093,-6.626 0.14,-10.04c0.417,-31.206 0.735,-62.411 0.939,-93.62c0.109,-16.045 0.256,-32.088 0.492,-48.132c0.226,-15.48 0.351,-30.959 0.405,-46.441c0.039,-5.909 0.114,-11.819 0.226,-17.727c0.151,-8.268 0.16,-16.539 0.162,-24.809c0.046,-4.71 0.093,-9.419 0.14,-14.271c-1.393,-12.483 -1.393,-12.483 -12.549,-19.496c-10.109,-5.179 -10.109,-5.179 -19.123,-4.631c-23.975,52.182 -21.881,85.301 -6.348,139.453c2.181,10.547 2.181,10.547 -1.986,23.047c-8.563,-14.504 -16.927,-29.113 -25.26,-43.75c-2.42,-4.093 -4.839,-8.186 -7.332,-12.402c-14.469,-25.684 -21.087,-40.077 -13.241,-68.848c3.2,-11.261 6.762,-22.301 10.677,-33.333c0.975,-2.831 1.95,-5.661 2.954,-8.577c2.372,-6.873 4.783,-13.733 7.202,-20.589c-4.023,-1.665 -8.046,-3.33 -12.191,-5.046c-10.249,-6.833 -12.533,-10.469 -15.452,-22.628c-1.252,-13.886 -1.922,-27.66 -2.305,-41.597c-0.355,-9.518 -0.759,-19.035 -1.221,-28.548c-0.187,-6.321 -0.187,-6.321 -0.377,-12.771c-0.59,-3.38 -1.18,-6.761 -1.787,-10.244c-6.188,-4.125 -6.188,-4.125 -12.5,-8.333c0.042,4.737 0.085,9.474 0.128,14.354c0.305,49.817 -1.269,99.359 -3.774,149.106c-0.375,7.734 -0.749,15.468 -1.121,23.202c-0.97,20.063 -1.962,40.125 -2.959,60.187c-1.019,20.589 -2.017,41.179 -3.016,61.769c-1.954,40.184 -3.931,80.367 -5.924,120.549l-41.667,0c-0.766,-55.277 0.248,-110.374 2.734,-165.592c0.137,-3.052 0.275,-6.104 0.416,-9.248c0.858,-18.907 1.746,-37.813 2.644,-56.718c1.208,-25.427 2.396,-50.854 3.553,-76.283c0.402,-8.697 0.823,-17.394 1.246,-26.09c0.626,-13.611 1.15,-27.219 1.584,-40.838c0.225,-6 0.51,-11.998 0.838,-17.993c0.524,-9.611 0.882,-19.218 1.217,-28.837c0.199,-2.947 0.398,-5.895 0.604,-8.931c0.28,-11.776 0.073,-20.847 -7.831,-29.993c-6.251,-5.146 -12.87,-9.836 -19.506,-14.475c-5.516,-8.353 -5.516,-8.353 -8.822,-16.325c-1.235,-2.903 -2.471,-5.806 -3.743,-8.797c-1.182,-2.968 -2.363,-5.935 -3.581,-8.993c-1.278,-3.016 -2.557,-6.032 -3.874,-9.139c-9.147,-21.949 -9.147,-21.949 -9.147,-31.746l-8.333,0c0.097,4.651 0.193,9.303 0.293,14.095c0.559,39.656 -1.053,78.443 -5.076,117.888c-3.685,37.292 -5.725,74.615 -7.717,112.027c-2.258,42.115 -4.888,84.065 -9.357,126.013c-6.079,59.782 -8.313,119.983 -11.477,179.976c-13.75,-1.375 -27.5,-2.75 -41.667,-4.167c-0.113,-13.889 -0.196,-27.777 -0.26,-41.667c-0.035,-3.894 -0.07,-7.788 -0.106,-11.8c-0.013,-3.84 -0.027,-7.681 -0.041,-11.637c-0.033,-5.237 -0.033,-5.237 -0.066,-10.579c0.473,-11.817 1.956,-23.313 3.503,-35.029c2.491,-22.174 3.457,-44.491 4.75,-66.761c0.332,-5.567 0.666,-11.135 1,-16.702c0.708,-11.794 1.41,-23.587 2.109,-35.382c1.832,-30.905 3.707,-61.807 5.599,-92.708c0.187,-3.054 0.374,-6.107 0.566,-9.253c3.22,-52.455 6.919,-104.86 11.046,-157.252c4.547,-57.872 8.085,-115.78 11.483,-173.729c4.575,-77.974 10.558,-155.654 18.75,-233.333c-4.81,-1.764 -4.81,-1.764 -9.717,-3.564c-17.25,-7.4 -27.774,-18.958 -37.679,-34.717c-3.986,-17.936 -2.758,-35.551 1.562,-53.385c2.218,-2.917 4.437,-5.833 6.722,-8.838c1.907,-2.583 3.813,-5.167 5.778,-7.829c-4.718,-14.153 -8.391,-16.76 -19.792,-25.781c-30.692,-26.292 -40.83,-51.318 -46.875,-90.885l-79.167,0l0,-179.167Z" style="fill:#414e38;fill-rule:nonzero;"/><path d="M551.042,479.688c23.095,12.659 39.107,28.804 48.958,53.646c0.946,12.984 0.946,12.984 0.814,28.06c-0.027,5.398 -0.054,10.796 -0.081,16.357c-0.07,5.68 -0.14,11.361 -0.212,17.041c-0.042,5.745 -0.08,11.491 -0.114,17.236c-0.098,14.047 -0.235,28.092 -0.407,42.139l8.333,0c0.564,-4.334 0.564,-4.334 1.139,-8.757c4.867,-19.416 16.086,-35.252 26.367,-52.279c8.612,-20.641 4.485,-35.443 -3.027,-55.892c-4.199,-14.095 -2.85,-23.08 0.521,-37.24l8.333,0l0,8.333l8.333,0c1.375,-6.875 2.75,-13.75 4.167,-20.833c17.387,14.297 22.249,29.154 28.385,50c0.953,2.965 1.907,5.93 2.889,8.984c6.442,21.117 6.945,31.574 -3.07,50.926c-3.149,5.391 -3.149,5.391 -6.362,10.891c-2.261,3.969 -4.522,7.938 -6.852,12.028c-4.779,8.312 -9.597,16.602 -14.453,24.87c-3.376,5.97 -3.376,5.97 -6.82,12.061c-2.09,3.603 -4.18,7.207 -6.333,10.919c-5.184,14.063 -3.904,21.631 0.116,35.988c5.472,11.565 5.472,11.565 12.549,22.852c2.468,4.243 4.936,8.486 7.479,12.858c5.209,8.806 10.482,17.574 15.82,26.302c20.913,36.375 20.913,36.375 16.414,58.903c-2.069,6.94 -4.215,13.857 -6.429,20.752c-1.689,8.005 -3.28,16.031 -4.785,24.072c-10.577,53.159 -21.406,106.253 -32.715,159.261l-4.167,0c2.54,-50.527 5.922,-100.966 9.747,-151.412c0.698,-9.423 1.348,-18.85 1.941,-28.281c0.621,-9.166 1.552,-18.311 2.618,-27.436c-2.858,-21.682 -14.739,-37.24 -26.807,-55.111c-2.385,-3.644 -4.77,-7.289 -7.227,-11.043c-5.867,-8.946 -11.791,-17.848 -17.773,-26.717c-0.736,113.826 0.712,227.602 2.536,341.41c0.245,15.374 0.485,30.748 0.72,46.123c0.045,2.975 0.091,5.95 0.138,9.015c0.911,60.876 0.983,121.737 0.774,182.619l-45.833,0c-0.095,-6.726 -0.19,-13.452 -0.288,-20.381c-0.911,-64.324 -1.83,-128.647 -2.755,-192.97c-0.475,-33.045 -0.948,-66.091 -1.415,-99.136c-0.182,-12.862 -0.364,-25.724 -0.546,-38.586c-0.045,-3.169 -0.09,-6.339 -0.136,-9.604c-0.493,-34.723 -1.001,-69.446 -1.55,-104.169c-0.048,-3.063 -0.097,-6.125 -0.147,-9.281c-0.192,-12.154 -0.385,-24.307 -0.58,-36.461c-0.569,-35.498 -1.051,-70.994 -1.39,-106.495c-0.184,-18.151 -0.428,-36.301 -0.688,-54.451c-0.102,-8.172 -0.176,-16.345 -0.219,-24.517c-0.06,-10.983 -0.218,-21.96 -0.401,-32.942c0.009,-3.14 0.018,-6.279 0.027,-9.514c-0.476,-20.184 -4.7,-30.65 -19.077,-44.826c-13.404,-6.702 -27.172,-6.721 -41.667,-4.167c-11.213,9.066 -18.564,16.294 -25,29.167c-0.605,8.703 -0.946,17.425 -1.172,26.146c-0.075,2.72 -0.151,5.44 -0.228,8.243c-0.248,9.191 -0.466,18.382 -0.683,27.574c-0.169,6.618 -0.339,13.237 -0.509,19.855c-0.46,18.142 -0.889,36.285 -1.309,54.428c-0.265,11.382 -0.537,22.764 -0.811,34.145c-4.687,195.951 -6.286,391.945 -7.787,587.942l-45.833,0l0,-266.667c-5.5,-2.75 -11,-5.5 -16.667,-8.333l0,-8.333c-4.125,-2.75 -8.25,-5.5 -12.5,-8.333c7.292,-8.333 7.292,-8.333 16.667,-16.667l16.667,0c0.006,-2.285 0.012,-4.569 0.019,-6.923c0.155,-55.718 0.402,-111.435 0.748,-167.152c0.164,-26.945 0.299,-53.89 0.363,-80.835c0.063,-26.017 0.207,-52.033 0.405,-78.05c0.062,-9.912 0.095,-19.824 0.098,-29.737c0.01,-13.914 0.123,-27.824 0.259,-41.737c-0.021,-4.073 -0.042,-8.146 -0.064,-12.342c0.572,-37.899 12.572,-69.077 39.838,-95.723c30.304,-21.332 59.253,-23.151 92.708,-7.812Z" style="fill:#424e38;fill-rule:nonzero;"/><path d="M220.833,408.333l441.667,0c-6.935,17.338 -13.005,27.763 -23.698,42.448c-12.76,19.857 -16.967,32.056 -12.712,55.257c4.547,15.71 10.212,30.836 16.65,45.866c7.183,24.61 -7.431,46.368 -18.001,68.148c-1.571,3.284 -3.142,6.569 -4.761,9.953c-3.861,8.064 -7.75,16.114 -11.646,24.162l-8.333,0c-0.017,-3.486 -0.034,-6.972 -0.052,-10.563c-0.113,-13.08 -0.318,-26.154 -0.584,-39.231c-0.143,-8.385 -0.182,-16.771 -0.219,-25.157c-0.709,-31.364 -2.097,-55.568 -24.146,-79.215c-8.37,-7.754 -8.37,-7.754 -17.188,-12.24c-2.761,-1.584 -5.521,-3.169 -8.366,-4.801c-19.212,-9.365 -36.819,-10.835 -57.78,-7.959c-26.404,9.528 -45.704,24.792 -58.333,50c-9.034,21.907 -9.58,41.364 -9.596,64.661c-0.053,5.879 -0.053,5.879 -0.107,11.877c-0.107,12.921 -0.158,25.841 -0.21,38.762c-0.067,9.019 -0.139,18.039 -0.215,27.058c-0.19,23.739 -0.335,47.478 -0.467,71.218c-0.216,37.935 -0.489,75.869 -0.784,113.804c-0.095,13.206 -0.163,26.412 -0.228,39.618c-0.056,8.173 -0.113,16.346 -0.17,24.519c-0.016,5.444 -0.016,5.444 -0.033,10.997c-0.203,24.363 -2.052,48.287 -4.857,72.486c-22.908,-8.595 -42.778,-18.081 -58.333,-37.5c-4.54,-18.882 -3.574,-36.709 -2.344,-55.99c0.254,-7.553 0.254,-7.553 0.513,-15.259c0.44,-12.379 1.055,-24.723 1.831,-37.085c-3.835,-1.262 -7.67,-2.524 -11.621,-3.825c-26.379,-8.889 -26.379,-8.889 -38.379,-21.175c-1.215,-10.37 -1.215,-10.37 -0.944,-23.21c0.099,-4.861 0.197,-9.722 0.299,-14.731c1.057,-26.581 2.549,-53.122 4.211,-79.672c4.199,-67.84 4.199,-67.84 6.069,-135.773c0.073,-3.148 0.145,-6.296 0.22,-9.539c-0.027,-29.298 -9.814,-53.702 -30.688,-74.576c-22.687,-15.314 -43.824,-19.145 -70.833,-20.833c1.375,-20.625 2.75,-41.25 4.167,-62.5Z" style="fill:#fbfcfa;fill-rule:nonzero;"/><path d="M41.667,41.667l575,0c9.625,17.875 19.25,35.75 29.167,54.167c-2.75,5.5 -5.5,11 -8.333,16.667c-1.786,4.41 -3.573,8.82 -5.413,13.364c-13.286,13.737 -16.782,13.574 -35.245,14.642c-10.355,0.073 -20.712,0.006 -31.066,-0.168c-5.708,-0.007 -11.417,-0.003 -17.125,0.011c-15.488,0.007 -30.971,-0.14 -46.457,-0.314c-16.188,-0.156 -32.375,-0.171 -48.564,-0.201c-30.65,-0.078 -61.298,-0.283 -91.947,-0.534c-34.895,-0.279 -69.789,-0.417 -104.685,-0.542c-71.778,-0.261 -143.554,-0.706 -215.331,-1.258l0,-95.833Z" style="fill:#f9faf8;fill-rule:nonzero;"/><path d="M125,179.167l491.667,0c8.25,16.5 16.5,33 25,50c-13.008,32.519 -13.008,32.519 -25,45.833c-13.089,3.781 -25.862,3.502 -39.413,3.367c-5.989,0.086 -5.989,0.086 -12.099,0.173c-13.219,0.153 -26.43,0.12 -39.649,0.073c-9.208,0.038 -18.416,0.082 -27.624,0.132c-19.325,0.075 -38.647,0.054 -57.972,-0.029c-24.68,-0.095 -49.349,0.072 -74.027,0.316c-19.036,0.154 -38.069,0.15 -57.105,0.103c-9.091,-0.001 -18.183,0.049 -27.274,0.152c-85.768,0.84 -85.768,0.84 -119.175,-28.822c-23.326,-25.154 -32.257,-35.812 -37.327,-71.299Z" style="fill:#fafaf8;fill-rule:nonzero;"/><path d="M637.5,41.667l345.833,0l0,95.833l-312.5,0c8.25,-13.75 16.5,-27.5 25,-41.667c-5.5,-2.75 -11,-5.5 -16.667,-8.333c-6.048,-4.679 -11.951,-9.551 -17.708,-14.583c-2.943,-2.535 -5.887,-5.07 -8.919,-7.682c-6.706,-6.901 -6.706,-6.901 -6.706,-15.234l-8.333,0l0,-8.333Z" style="fill:#f7f9f6;fill-rule:nonzero;"/><path d="M200.692,315.356c3.638,-0.078 7.277,-0.155 11.026,-0.235c4.002,-0.042 8.004,-0.084 12.127,-0.127c6.312,-0.112 6.312,-0.112 12.752,-0.227c13.978,-0.229 27.955,-0.386 41.934,-0.525c4.772,-0.05 9.545,-0.099 14.462,-0.15c25.276,-0.247 50.552,-0.43 75.829,-0.571c20.91,-0.13 41.813,-0.391 62.72,-0.769c25.244,-0.457 50.48,-0.688 75.728,-0.758c9.611,-0.064 19.221,-0.205 28.83,-0.428c79.271,-1.732 79.271,-1.732 99.187,15.481c23.046,27.629 23.046,27.629 23.046,39.619c-61.101,0.389 -122.202,0.683 -183.304,0.864c-28.371,0.086 -56.741,0.203 -85.111,0.394c-27.367,0.184 -54.734,0.281 -82.102,0.324c-10.453,0.031 -20.906,0.091 -31.358,0.181c-14.616,0.121 -29.229,0.138 -43.845,0.13c-4.343,0.06 -8.685,0.12 -13.16,0.182c-29.162,-0.168 -29.162,-0.168 -43.139,-9.711c-5.481,-9.029 -5.481,-9.029 -4.96,-22.05c5.548,-18.229 11.258,-21.327 29.338,-21.623Z" style="fill:#f8f9f6;fill-rule:nonzero;"/><path d="M662.5,179.167l241.667,0c-10.674,35.581 -14.97,49.476 -41.667,70.833c-3.379,3.02 -3.379,3.02 -6.826,6.101c-21.86,18.345 -37.16,22.414 -65.31,21.34c-3.56,-0.035 -7.119,-0.071 -10.787,-0.107c-11.254,-0.139 -22.494,-0.452 -33.744,-0.772c-7.677,-0.126 -15.354,-0.24 -23.031,-0.342c-18.717,-0.274 -37.424,-0.705 -56.136,-1.221c4.411,-14.18 8.371,-25.056 16.667,-37.5c-1.267,-21.546 -11.899,-38.232 -20.833,-58.333Z" style="fill:#f8f9f6;fill-rule:nonzero;"/><path d="M758.333,837.5l4.167,0c2.108,44.234 4.21,88.469 6.303,132.704c0.973,20.553 1.948,41.107 2.928,61.659c4.327,90.754 8.551,181.496 11.602,272.303l-45.833,0c-1.205,-24.447 -2.391,-48.895 -3.56,-73.344c-0.399,-8.292 -0.803,-16.583 -1.213,-24.874c-6.597,-133.833 -6.597,-133.833 4.773,-164.282c5.226,-15.679 4.612,-30.3 4.427,-46.615c-0.019,-3.123 -0.038,-6.247 -0.057,-9.465c-0.049,-7.696 -0.124,-15.392 -0.203,-23.088c4.125,-1.375 8.25,-2.75 12.5,-4.167c-2.75,-12.375 -5.5,-24.75 -8.333,-37.5c-1.375,11 -2.75,22 -4.167,33.333l-4.167,0l0,-62.5c1.375,4.125 2.75,8.25 4.167,12.5l8.333,0l0,-20.833l4.167,0c1.375,-15.125 2.75,-30.25 4.167,-45.833Z" style="fill:#424f38;fill-rule:nonzero;"/><path d="M232.292,515.365c13.922,0.125 17.613,1.241 29.948,9.115c19.376,19.963 13.555,46.037 13.542,72.396c0.003,2.737 0.006,5.475 0.009,8.295c-0.008,62.383 -4.113,124.332 -9.124,186.497c-39.976,-48.066 -70.015,-109.835 -64.648,-173.096c0.709,-6.191 1.426,-12.381 2.148,-18.571c0.647,-7.361 1.276,-14.723 1.888,-22.087c5.429,-60.815 5.429,-60.815 26.237,-62.549Z" style="fill:#f8f9f6;fill-rule:nonzero;"/><path d="M675,316.667c23.507,-0.309 47.013,-0.536 70.521,-0.687c7.999,-0.063 15.997,-0.148 23.995,-0.256c11.491,-0.151 22.98,-0.223 34.472,-0.278c3.581,-0.065 7.162,-0.129 10.852,-0.196c3.336,-0.001 6.672,-0.002 10.109,-0.003c4.4,-0.042 4.4,-0.042 8.888,-0.084c10.338,1.984 13.993,5.732 20.33,14.003c1.823,12.5 1.823,12.5 0,25c-17.233,17.779 -39.267,15.094 -62.419,15.633c-2.924,0.033 -5.848,0.065 -8.86,0.099c-8.859,0.152 -17.675,0.593 -26.524,1.041c-41.313,1.1 -41.313,1.1 -59.562,-13.495c-21.802,-26.676 -21.802,-26.676 -21.802,-40.778Z" style="fill:#f7f9f5;fill-rule:nonzero;"/><path d="M50,137.5c70.409,-0.292 140.817,-0.512 211.226,-0.648c32.691,-0.064 65.382,-0.152 98.073,-0.295c28.489,-0.124 56.977,-0.205 85.466,-0.233c15.089,-0.016 30.177,-0.055 45.266,-0.146c16.832,-0.1 33.662,-0.103 50.494,-0.097c7.53,-0.067 7.53,-0.067 15.212,-0.136c4.575,0.017 9.15,0.034 13.863,0.052c5.974,-0.017 5.974,-0.017 12.069,-0.035c9.998,1.538 9.998,1.538 22.498,14.038c-185.625,1.375 -371.25,2.75 -562.5,4.167c2.75,-5.5 5.5,-11 8.333,-16.667Z" style="fill:#37442f;fill-rule:nonzero;"/><path d="M458.333,579.167l4.167,0c0.127,49.392 0.212,98.785 0.26,148.177c0.004,3.622 0.007,7.244 0.011,10.976c0.093,106.722 -0.314,213.355 -4.438,320.014l-4.167,0c-1.375,-15.125 -2.75,-30.25 -4.167,-45.833l-8.333,0c-0.105,-30.78 -0.178,-61.561 -0.229,-92.341c-0.021,-10.48 -0.049,-20.961 -0.085,-31.441c-0.05,-15.027 -0.074,-30.054 -0.093,-45.082c-0.022,-4.718 -0.043,-9.436 -0.065,-14.296c-0,-4.338 -0.001,-8.675 -0.001,-13.144c-0.009,-3.84 -0.019,-7.68 -0.028,-11.636c0.501,-8.727 0.501,-8.727 4.668,-12.893c0.302,-8.415 0.349,-16.84 0.26,-25.26c-0.038,-4.603 -0.075,-9.206 -0.114,-13.949c-0.048,-3.561 -0.097,-7.122 -0.146,-10.791l8.333,0c-1.375,-2.75 -2.75,-5.5 -4.167,-8.333l-8.333,0l0,-70.833c2.75,-1.375 5.5,-2.75 8.333,-4.167c1.375,4.125 2.75,8.25 4.167,12.5c1.375,-30.25 2.75,-60.5 4.167,-91.667Z" style="fill:#394730;fill-rule:nonzero;"/><path d="M187.5,300l420.833,0l0,12.5l-416.667,0c-1.375,-4.125 -2.75,-8.25 -4.167,-12.5Z" style="fill:#39462e;fill-rule:nonzero;"/><path d="M658.333,837.5l4.167,0c1.375,9.625 2.75,19.25 4.167,29.167c2.75,-1.375 5.5,-2.75 8.333,-4.167c6.079,26.675 1.161,47.727 -5.469,73.958c-1.904,7.788 -3.797,15.579 -5.68,23.372c-0.927,3.827 -1.854,7.654 -2.81,11.597c-4.35,19.125 -7.744,38.408 -11.041,57.739l-4.167,0c3.215,-63.957 7.812,-127.803 12.5,-191.667Z" style="fill:#5b6253;fill-rule:nonzero;"/><path d="M733.333,137.5l158.333,0c-18.75,14.062 -18.75,14.062 -37.301,13.919c-4.086,-0.001 -8.173,-0.002 -12.383,-0.003c-4.38,-0.065 -8.76,-0.129 -13.272,-0.196c-4.508,-0.018 -9.016,-0.035 -13.661,-0.054c-14.393,-0.07 -28.783,-0.227 -43.175,-0.386c-9.76,-0.063 -19.52,-0.12 -29.281,-0.171c-23.921,-0.138 -47.841,-0.347 -71.761,-0.61l0,-4.167c20.625,-1.375 41.25,-2.75 62.5,-4.167l0,-4.167Z" style="fill:#36412d;fill-rule:nonzero;"/><path d="M220.833,408.333l441.667,0c-2.75,6.875 -5.5,13.75 -8.333,20.833c-2.062,-8.25 -2.062,-8.25 -4.167,-16.667l-429.167,0l0,-4.167Z" style="fill:#eef4ea;fill-rule:nonzero;"/><path d="M458.333,579.167l4.167,0l0,204.167l-4.167,0c-1.375,-16.5 -2.75,-33 -4.167,-50l-12.5,0l0,-70.833c2.75,-1.375 5.5,-2.75 8.333,-4.167c1.375,4.125 2.75,8.25 4.167,12.5c1.375,-30.25 2.75,-60.5 4.167,-91.667Z" style="fill:#37442d;fill-rule:nonzero;"/><path d="M570.833,1166.667l4.167,0l0,133.333l20.833,0c-0.065,-2.711 -0.131,-5.423 -0.198,-8.216c-0.26,-12.278 -0.422,-24.556 -0.583,-36.836c-0.105,-4.267 -0.209,-8.535 -0.317,-12.931c-0.04,-4.095 -0.081,-8.191 -0.122,-12.41c-0.098,-5.662 -0.098,-5.662 -0.198,-11.439c1.419,-9.834 1.419,-9.834 13.919,-22.334l0,108.333l-37.5,0l0,-137.5Z" style="fill:#333e2a;fill-rule:nonzero;"/><path d="M266.667,1016.667l4.167,0l0,158.333l-4.167,0c-1.375,-13.75 -2.75,-27.5 -4.167,-41.667c-2.75,4.125 -5.5,8.25 -8.333,12.5c-0.114,-12.413 -0.196,-24.826 -0.26,-37.24c-0.035,-3.462 -0.07,-6.923 -0.106,-10.49c-0.24,-61.777 -0.24,-61.777 12.866,-81.437Z" style="fill:#35412b;fill-rule:nonzero;"/><path d="M866.667,1091.667l4.167,0l0,150l-8.333,0c-4.365,-21.443 -4.792,-42.032 -4.688,-63.802c-0.016,-3.429 -0.032,-6.859 -0.049,-10.392c0.042,-25.278 0.042,-25.278 4.736,-29.972c0.973,-7.704 1.721,-15.437 2.344,-23.177c0.349,-4.216 0.698,-8.433 1.058,-12.777c0.252,-3.26 0.505,-6.521 0.765,-9.88Z" style="fill:#37432e;fill-rule:nonzero;"/><path d="M662.5,808.333c8.333,4.167 16.667,8.333 25,12.5c-0.473,8.249 -1.005,16.495 -1.562,24.74c-0.29,4.592 -0.58,9.185 -0.879,13.916c-0.569,3.744 -1.139,7.487 -1.725,11.344c-4.125,2.062 -4.125,2.062 -8.333,4.167c-1.375,-2.75 -2.75,-5.5 -4.167,-8.333c-2.75,4.125 -5.5,8.25 -8.333,12.5l0,-70.833Z" style="fill:#36412e;fill-rule:nonzero;"/><path d="M258.333,920.833l4.167,0c1.375,12.375 2.75,24.75 4.167,37.5l4.167,0c0.226,9.374 0.387,18.749 0.521,28.125c0.097,5.221 0.193,10.441 0.293,15.82c-0.776,13.718 -2.574,19.502 -9.147,31.055c-1.854,8.858 -1.854,8.858 -2.604,17.708c-0.773,7.734 -0.773,7.734 -1.562,15.625l-4.167,0c-0.606,-48.783 1.203,-97.146 4.167,-145.833Z" style="fill:#5b6655;fill-rule:nonzero;"/><path d="M741.667,1058.333l4.167,0c0.243,15.538 0.39,31.075 0.521,46.615c0.105,6.594 0.105,6.594 0.212,13.322c0.027,4.257 0.054,8.513 0.081,12.899c0.044,3.906 0.087,7.812 0.132,11.836c-1.022,12.064 -4.258,21.04 -9.279,31.996l-4.167,0l0,-95.833l4.167,0c1.375,-6.875 2.75,-13.75 4.167,-20.833Z" style="fill:#39462f;fill-rule:nonzero;"/><path d="M691.667,300l95.833,0c-4.125,6.188 -4.125,6.188 -8.333,12.5c-8.596,1.419 -8.596,1.419 -19.043,1.221c-3.733,-0.04 -7.466,-0.081 -11.312,-0.122c-5.857,-0.157 -5.857,-0.157 -11.833,-0.317c-3.937,-0.056 -7.874,-0.113 -11.93,-0.171c-9.741,-0.148 -19.477,-0.353 -29.215,-0.61c-1.375,-4.125 -2.75,-8.25 -4.167,-12.5Z" style="fill:#38462d;fill-rule:nonzero;"/><path d="M154.167,1233.333c9.417,14.978 9.203,27.358 8.854,44.792c-0.075,4.877 -0.15,9.754 -0.228,14.779c-0.145,5.575 -0.145,5.575 -0.293,11.263l-12.5,0l0,-8.333l-12.5,0c3.646,-20.312 3.646,-20.312 8.333,-25c1.631,-6.299 3.082,-12.645 4.427,-19.01c0.736,-3.443 1.472,-6.886 2.23,-10.433c0.553,-2.659 1.106,-5.317 1.676,-8.057Z" style="fill:#404c37;fill-rule:nonzero;"/><path d="M758.333,837.5l4.167,0l0,79.167c-5.5,1.375 -11,2.75 -16.667,4.167c-1.375,11 -2.75,22 -4.167,33.333l-4.167,0l0,-62.5c1.375,4.125 2.75,8.25 4.167,12.5l8.333,0l0,-20.833l4.167,0c1.375,-15.125 2.75,-30.25 4.167,-45.833Z" style="fill:#4e5c44;fill-rule:nonzero;"/><path d="M312.5,658.333l4.167,0c0.447,39.15 -0.031,77.67 -4.167,116.667c-1.375,-5.5 -2.75,-11 -4.167,-16.667l-12.5,0c0.959,-3.255 0.959,-3.255 1.937,-6.576c2.812,-12.728 3.664,-25.217 4.574,-38.216c0.349,-4.877 0.698,-9.754 1.058,-14.779c0.252,-3.717 0.505,-7.434 0.765,-11.263l4.167,0c1.375,-9.625 2.75,-19.25 4.167,-29.167Z" style="fill:#5e6858;fill-rule:nonzero;"/><path d="M129.167,1100l4.167,0c5.315,47.757 8.961,100.161 -8.333,145.833l-4.167,0c0.252,-3.894 0.505,-7.788 0.765,-11.8c2.849,-44.662 5.285,-89.339 7.568,-134.033Z" style="fill:#5b6555;fill-rule:nonzero;"/><path d="M616.667,41.667l20.833,0l0,8.333l8.333,0l0,8.333c5.5,2.75 11,5.5 16.667,8.333c-9.831,9.831 -15.746,10.381 -29.167,12.5c-16.667,-28.125 -16.667,-28.125 -16.667,-37.5Z" style="fill:#596350;fill-rule:nonzero;"/><path d="M200,541.667l8.333,0c0.436,33.629 0.141,66.614 -4.167,100l-4.167,0c-0.816,-11.978 -1.591,-23.956 -2.344,-35.938c-0.234,-3.368 -0.467,-6.735 -0.708,-10.205c-1.14,-18.698 -0.982,-35.393 3.052,-53.857Z" style="fill:#36402d;fill-rule:nonzero;"/><path d="M279.167,1258.333c2.75,1.375 5.5,2.75 8.333,4.167l0,41.667l-25,0l0,-8.333l8.333,0l0,-16.667l8.333,0l0,-20.833Z" style="fill:#47523f;fill-rule:nonzero;"/><path d="M550,537.5c8.333,8.333 8.333,8.333 9.279,20.754c-0.044,5.193 -0.087,10.386 -0.132,15.737c-0.012,2.763 -0.024,5.525 -0.036,8.372c-0.047,8.831 -0.151,17.661 -0.257,26.491c-0.042,5.984 -0.08,11.968 -0.114,17.952c-0.092,14.676 -0.236,29.351 -0.407,44.027l-4.167,0c-0.104,-3.491 -0.209,-6.981 -0.316,-10.577c-0.396,-12.937 -0.81,-25.874 -1.235,-38.81c-0.269,-8.358 -0.519,-16.717 -0.768,-25.075c-0.175,-5.237 -0.349,-10.474 -0.529,-15.869c-0.153,-4.844 -0.305,-9.688 -0.463,-14.679c-0.098,-11.462 -0.098,-11.462 -5.022,-19.989c1.375,-2.75 2.75,-5.5 4.167,-8.333Z" style="fill:#e3e9df;fill-rule:nonzero;"/><path d="M679.167,787.5l8.333,0c11.793,16.648 7.342,30.947 4.167,50c-0.43,-2.664 -0.859,-5.328 -1.302,-8.073c-0.945,-2.836 -1.891,-5.672 -2.865,-8.594c-4.125,-1.375 -8.25,-2.75 -12.5,-4.167c1.375,-9.625 2.75,-19.25 4.167,-29.167Z" style="fill:#4d5747;fill-rule:nonzero;"/><path d="M487.5,504.167l16.667,0l0,8.333c11,-1.375 22,-2.75 33.333,-4.167c1.375,5.5 2.75,11 4.167,16.667c-4.125,-1.375 -8.25,-2.75 -12.5,-4.167c-7.2,-0.283 -14.41,-0.354 -21.615,-0.26c-3.754,0.038 -7.509,0.075 -11.377,0.114c-4.294,0.073 -4.294,0.073 -8.675,0.146l0,-16.667Z" style="fill:#525e4a;fill-rule:nonzero;"/><path d="M154.167,1233.333c9.417,14.978 9.203,27.358 8.854,44.792c-0.075,4.877 -0.15,9.754 -0.228,14.779c-0.145,5.575 -0.145,5.575 -0.293,11.263l-4.167,0c-1.375,-11 -2.75,-22 -4.167,-33.333l-4.167,0c-0.521,-28.125 -0.521,-28.125 4.167,-37.5Z" style="fill:#5b6652;fill-rule:nonzero;"/><path d="M170.833,1112.5l4.167,0c2.896,27.135 5.496,52.296 0,79.167l-8.333,0c1.375,-26.125 2.75,-52.25 4.167,-79.167Z" style="fill:#c8cec2;fill-rule:nonzero;"/><path d="M345.833,1087.5l8.333,0c5.158,14.902 3.122,26.404 0,41.667c-5.5,-1.375 -11,-2.75 -16.667,-4.167c0.602,-2.32 1.203,-4.641 1.823,-7.031c2.459,-10.11 4.525,-20.257 6.51,-30.469Z" style="fill:#3b4633;fill-rule:nonzero;"/><path d="M295.833,758.333l12.5,0l0,50l-4.167,0c-1.375,-6.875 -2.75,-13.75 -4.167,-20.833l-4.167,0l0,-29.167Z" style="fill:#34402b;fill-rule:nonzero;"/><path d="M858.333,612.5l4.167,0c0.339,7.983 0.581,15.97 0.781,23.958c0.145,4.447 0.29,8.895 0.439,13.477c-1.342,13.816 -4.435,19.191 -13.721,29.232c-0.177,-9.721 -0.171,-19.446 0,-29.167c1.375,-1.375 2.75,-2.75 4.167,-4.167c0.961,-5.614 1.715,-11.266 2.344,-16.927c0.602,-5.414 1.203,-10.828 1.823,-16.406Z" style="fill:#54604c;fill-rule:nonzero;"/><path d="M595.833,408.333l66.667,0c-2.75,6.875 -5.5,13.75 -8.333,20.833c-1.375,-5.5 -2.75,-11 -4.167,-16.667l-54.167,0l0,-4.167Z" style="fill:#e7eee4;fill-rule:nonzero;"/><path d="M725,500c8.363,1.195 16.702,2.578 25,4.167c-2.75,5.5 -5.5,11 -8.333,16.667c-4.125,-2.75 -8.25,-5.5 -12.5,-8.333c-5.5,4.125 -11,8.25 -16.667,12.5c7.812,-20.312 7.812,-20.312 12.5,-25Z" style="fill:#4d5944;fill-rule:nonzero;"/><path d="M637.5,108.333l8.333,0c-0.781,9.896 -0.781,9.896 -4.167,20.833c-10.677,5.469 -10.677,5.469 -20.833,8.333c5.5,-9.625 11,-19.25 16.667,-29.167Z" style="fill:#495543;fill-rule:nonzero;"/><path d="M658.333,70.833c13.171,5.708 16.636,8.288 25,20.833c-4.125,2.062 -4.125,2.062 -8.333,4.167c-5.732,-5.374 -11.282,-10.945 -16.667,-16.667l0,-8.333Z" style="fill:#4a5342;fill-rule:nonzero;"/></svg>