<?xml version="1.0" encoding="UTF-8" standalone="no"?><!DOCTYPE svg PUBLIC "-//W3C//DTD SVG 1.1//EN" "http://www.w3.org/Graphics/SVG/1.1/DTD/svg11.dtd"><svg width="100%" height="100%" viewBox="0 0 411 411" version="1.1" xmlns="http://www.w3.org/2000/svg" xmlns:xlink="http://www.w3.org/1999/xlink" xml:space="preserve" xmlns:serif="http://www.serif.com/" style="fill-rule:evenodd;clip-rule:evenodd;stroke-linejoin:round;stroke-miterlimit:2;"><path d="M369.265,6.981c9.995,7.361 16.482,16.315 19.375,28.391c1.776,16.312 -0.998,30.723 -10.727,44.23c-9.086,11.068 -20.929,18.04 -33.211,25.012c-10.432,5.972 -21.114,12.946 -27.062,23.758c0.132,3.201 1.525,4.874 3.562,7.25c3.108,4.003 5.413,8.242 7.688,12.75c0.341,0.664 0.682,1.328 1.033,2.013c3.517,7.116 5,13.571 4.967,21.55c0.005,1.239 0.01,2.478 0.016,3.754c-0.266,3.684 -0.266,3.684 -1.344,7.211c-1.868,7.037 0.801,13.01 3.453,19.473c0.349,0.857 0.697,1.714 1.057,2.598c6.23,15.061 12.736,30.302 22.568,43.402c4.788,-1.004 9.412,-2.104 14.062,-3.625c6.675,-1.995 11.418,-2.296 17.938,0.438c8.585,4.662 13.967,14.105 17,23.188c2.844,11.623 0.673,21.865 -4.293,32.41c-4.517,6.854 -9.591,10.573 -17.332,13.062c-0.82,0.283 -1.641,0.566 -2.486,0.857c-1.739,0.599 -3.481,1.19 -5.226,1.773c-3.528,1.189 -7.03,2.447 -10.534,3.703c-3.491,1.249 -6.989,2.477 -10.487,3.704c-2.697,0.948 -5.392,1.902 -8.087,2.856c-1.726,0.607 -3.453,1.213 -5.18,1.818c-0.8,0.284 -1.6,0.569 -2.424,0.861c-3.1,1.08 -5.643,1.955 -8.951,1.955c2.754,16.389 8.147,30.968 19,43.875c3,3.683 3,3.683 3,7.625c-1,2.5 -1,2.5 -2,3.5c-6.431,0.308 -11.935,-0.369 -18.125,-2.062c-1.22,-0.325 -1.22,-0.325 -2.464,-0.657c-7.903,-2.22 -15.141,-5.51 -22.411,-9.281c-0.371,1.218 -0.743,2.436 -1.125,3.691c-2.11,6.321 -4.987,12.251 -7.875,18.246c-0.534,1.135 -1.067,2.27 -1.617,3.439c-0.777,1.621 -0.777,1.621 -1.57,3.275c-0.468,0.98 -0.936,1.959 -1.418,2.969c-1.395,2.379 -1.395,2.379 -4.395,4.379c-3.179,-0.147 -4.616,-0.654 -6.992,-2.793c-7.528,-9.574 -12.43,-19.956 -16.383,-31.395c-0.251,-0.712 -0.502,-1.423 -0.76,-2.156c-1.91,-5.824 -2.497,-11.554 -2.865,-17.656c-18.63,6.042 -37.086,12.533 -55.518,19.15c-5.488,1.968 -10.981,3.918 -16.482,5.85c-0.95,0.334 -1.9,0.667 -2.879,1.011c-2.83,0.988 -5.664,1.961 -8.5,2.93c-0.849,0.297 -1.697,0.593 -2.572,0.899c-9.743,3.289 -18.735,4.071 -28.362,-0.278c-23.148,-13.356 -34.128,-40.122 -41.688,-64.562c-0.214,-0.684 -0.428,-1.368 -0.649,-2.072c-4.573,-14.868 -4.573,-14.868 -1.378,-22.143c1.009,-1.595 2.018,-3.19 3.027,-4.785c-1.114,-0.144 -2.228,-0.289 -3.375,-0.438c-3.625,-0.562 -3.625,-0.562 -5.625,-1.562c-0.724,-2.53 -1.316,-4.998 -1.848,-7.57c-0.171,-0.798 -0.341,-1.595 -0.517,-2.417c-2.231,-10.589 -4.144,-21.24 -6.072,-31.888c-0.398,-2.186 -0.797,-4.372 -1.196,-6.558c-2.467,-13.537 -4.913,-27.079 -7.304,-40.63c-0.721,-4.068 -1.474,-8.129 -2.25,-12.188c-0.19,-1.003 -0.379,-2.007 -0.575,-3.04c-0.35,-1.844 -0.706,-3.686 -1.071,-5.527c-1.378,-7.295 -2.412,-14.287 0.833,-21.183l0,-3c-1.421,-0.557 -1.421,-0.557 -2.871,-1.125c-3.129,-1.875 -3.129,-1.875 -4.414,-4.562c-0.257,-1.093 -0.513,-2.186 -0.777,-3.312c-0.458,-1.845 -0.458,-1.845 -0.926,-3.727c-0.158,-0.676 -0.316,-1.352 -0.479,-2.048c-0.802,-3.349 -1.701,-6.672 -2.589,-9.999c-0.997,-3.738 -1.97,-7.482 -2.944,-11.227c-8.625,0.643 -16.437,3.02 -24.674,5.561c-7.905,2.332 -15.657,4.254 -23.514,0.877c-8.019,-4.64 -12.257,-11.049 -15.812,-19.438c-0.321,-0.686 -0.642,-1.372 -0.973,-2.078c-3.571,-8.703 -3.383,-19.942 -0.465,-28.797c3.935,-9.149 9.224,-16.891 18.438,-21.125c2.426,-0.677 4.81,-1.275 7.266,-1.812c0.732,-0.166 1.463,-0.332 2.217,-0.504c1.625,-0.368 3.251,-0.733 4.877,-1.095c2.768,-0.617 5.534,-1.244 8.299,-1.872c5.271,-1.197 10.544,-2.387 15.818,-3.575c18.167,-4.096 36.325,-8.226 54.461,-12.454c0.885,-0.206 1.771,-0.413 2.683,-0.625c7.842,-1.828 15.682,-3.662 23.521,-5.505c3.098,-0.728 6.197,-1.455 9.296,-2.182c1.172,-0.275 2.344,-0.55 3.552,-0.833c6.613,-1.543 13.234,-3.043 19.866,-4.503c0.76,-0.167 1.52,-0.335 2.304,-0.507c3.086,-0.679 6.172,-1.358 9.259,-2.036c11.697,-2.575 23.33,-5.345 34.93,-8.326c1.058,-0.271 2.116,-0.543 3.207,-0.822c0.912,-0.237 1.825,-0.474 2.765,-0.719c12.359,-2.901 21.079,-1.787 32.129,4.84c9.96,7.092 15.766,17.514 21.363,28.094c0.684,1.293 0.684,1.293 1.382,2.612c3.137,6.108 5.598,12.327 7.805,18.826c1.416,-2.646 2.364,-5.057 3.008,-7.984c4.42,-18.98 11.457,-34.515 27.523,-46.48c15.919,-9.899 34.935,-10.833 51.094,-0.926Z" style="fill:#404935;fill-rule:nonzero;"/><path d="M250.331,19.844c15.887,10.511 23.409,33.047 29.871,50.152c0.539,1.386 0.539,1.386 1.088,2.801c2.391,6.538 2.919,10.985 0.045,17.559c-0.518,0.913 -1.036,1.825 -1.57,2.766c-0.513,0.923 -1.026,1.846 -1.555,2.797c-2.56,3.999 -2.56,3.999 -4.57,5.453c-1.918,-0.039 -1.918,-0.039 -4.188,-0.625c-0.887,-0.206 -1.774,-0.412 -2.688,-0.625c-1.547,-0.371 -1.547,-0.371 -3.125,-0.75c-13.884,-3.059 -26.556,-5.025 -40.246,0.098c-6.756,2.214 -12.843,0.958 -19.629,-0.598c-12.613,-2.873 -23.189,-2.126 -34.438,4.438c-1.572,1.006 -3.136,2.025 -4.688,3.062c-1.33,0.866 -1.33,0.866 -2.688,1.75c-8.411,8.184 -11.382,16.877 -13.376,28.147c-2.091,11.771 -5.199,19.41 -12.612,28.869c-8.383,11.666 -11.978,22.992 -9.863,37.367c3.942,17.763 14.908,26.715 29.386,36.443c10.106,6.883 15.39,14.706 21.259,25.33c4.48,7.897 8.996,14.426 17.645,17.969c1.384,0.584 1.384,0.584 2.797,1.18c8.131,3.133 16.382,2.534 24.766,0.508c3.52,-0.687 5.025,-0.918 8.215,0.793c2.08,1.773 3.849,3.448 5.473,5.645l0,2c-0.607,0.175 -1.213,0.351 -1.838,0.531c-13.157,3.809 -26.291,7.685 -39.385,11.707c-4.021,1.233 -8.05,2.434 -12.086,3.617c-1.036,0.307 -2.073,0.614 -3.14,0.93c-1.974,0.584 -3.95,1.161 -5.928,1.73c-10.074,2.968 -10.074,2.968 -17.498,10.047c-0.584,0.868 -0.584,0.868 -1.18,1.754c-2.406,4.286 -2.129,8.609 -2.133,13.371c-0.012,0.778 -0.024,1.556 -0.037,2.357c-0.013,5.313 0.748,9.849 2.225,14.955c6.863,0.62 12.378,-1.627 18.75,-4c2.056,-0.754 4.113,-1.504 6.172,-2.25c0.903,-0.335 1.807,-0.67 2.737,-1.016c2.341,-0.734 2.341,-0.734 5.341,-0.734c1.011,18.101 1.011,18.101 -5,26c-4.767,5.08 -8.573,7.138 -15.625,7.375c-6.371,-0.069 -10.293,-1.64 -15.375,-5.375c-0.665,-0.473 -1.33,-0.946 -2.016,-1.434c-17.218,-13.592 -30.071,-44.193 -32.984,-65.566c0.384,-4.375 2.231,-7.414 4.5,-11.125c2.606,-4.272 2.606,-4.272 4.5,-8.875c-0.664,-0.121 -1.328,-0.242 -2.012,-0.367c-0.883,-0.168 -1.766,-0.335 -2.676,-0.508c-1.305,-0.244 -1.305,-0.244 -2.637,-0.492c-0.883,-0.209 -1.766,-0.418 -2.676,-0.633c-0.838,-0.175 -1.677,-0.35 -2.541,-0.53c-2.459,-1.47 -2.459,-1.47 -3.666,-4.997c-0.297,-1.537 -0.568,-3.08 -0.821,-4.625c-0.154,-0.834 -0.308,-1.668 -0.467,-2.528c-0.502,-2.749 -0.973,-5.503 -1.443,-8.257c-0.344,-1.916 -0.689,-3.832 -1.037,-5.748c-1.038,-5.767 -2.035,-11.54 -3.026,-17.315c-0.283,-1.633 -0.566,-3.267 -0.849,-4.9c-1.009,-5.823 -2.013,-11.646 -2.989,-17.474c-1.213,-7.226 -2.483,-14.435 -3.865,-21.63c-0.141,-0.734 -0.281,-1.469 -0.426,-2.226c-0.67,-3.493 -1.35,-6.984 -2.043,-10.472c-3.224,-16.642 -3.224,-16.642 0.235,-22.986c1.398,-2.574 1.969,-3.867 1.76,-6.815c-0.568,-2.633 -0.568,-2.633 -2.785,-3.695c-0.797,-0.307 -1.594,-0.615 -2.416,-0.931c-2.845,-1.454 -4.306,-2.248 -5.761,-5.125c-0.762,-2.883 -1.307,-5.743 -1.797,-8.684c-0.458,-2.25 -0.929,-4.497 -1.41,-6.742c-0.254,-1.187 -0.508,-2.374 -0.77,-3.597c-1.551,-6.546 -3.615,-12.913 -5.757,-19.286c-0.215,-0.641 -0.431,-1.283 -0.653,-1.943c-5.292,-15.604 -11.682,-33.404 -25.472,-43.494c3.525,-2.35 6.854,-3.002 10.926,-3.848c0.802,-0.172 1.605,-0.345 2.431,-0.522c1.739,-0.373 3.478,-0.744 5.218,-1.112c4.671,-0.99 9.337,-2.001 14.003,-3.014c0.956,-0.207 1.912,-0.414 2.897,-0.628c9.392,-2.046 18.741,-4.256 28.087,-6.501c11.745,-2.818 23.504,-5.522 35.312,-8.062c9.94,-2.139 19.815,-4.435 29.662,-6.967c10.913,-2.774 21.915,-5.151 32.917,-7.543c7.14,-1.559 14.235,-3.162 21.25,-5.232c7.452,-1.853 13.334,-0.846 19.988,2.902Z" style="fill:#fcfdfc;fill-rule:nonzero;"/><path d="M259.327,14.434c5.76,4.77 11.927,11.78 14.312,18.938c-1.323,1.675 -2.657,3.341 -4,5c-0.789,2.685 -0.789,2.685 -1,5c-2.459,-3.172 -4.597,-6.49 -6.75,-9.875c-3.27,-4.905 -6.335,-8.848 -11.25,-12.125c-0.615,-0.41 -1.23,-0.82 -1.863,-1.242c-6.342,-3.686 -12.242,-3.715 -19.279,-1.986c-1.157,0.327 -2.314,0.653 -3.506,0.99c-8.228,2.266 -16.528,4.142 -24.859,5.985c-4.427,0.98 -8.852,1.97 -13.278,2.96c-0.881,0.197 -1.763,0.394 -2.671,0.597c-7.526,1.685 -15.037,3.428 -22.544,5.196c-12.512,2.943 -25.047,5.771 -37.589,8.58c-12.288,2.753 -24.56,5.568 -36.818,8.454c-9.762,2.292 -19.547,4.474 -29.346,6.602c-1.056,0.231 -2.112,0.462 -3.2,0.7c-0.93,0.202 -1.859,0.403 -2.817,0.611c-2.249,0.472 -2.249,0.472 -4.229,1.553c0.846,0.619 1.691,1.237 2.562,1.875c19.404,16.405 27.922,51.053 32.125,75.051c0.808,6.002 0.808,6.002 4.203,10.684c2.119,1.114 2.119,1.114 4.27,1.777c1.84,0.613 1.84,0.613 3.84,2.613c-0.249,3.563 -1.058,6.125 -2.562,9.375c-2.958,7.46 -1.017,14.965 0.469,22.602c0.2,1.064 0.401,2.127 0.607,3.223c0.432,2.287 0.866,4.574 1.304,6.86c1.159,6.057 2.295,12.118 3.432,18.179c0.347,1.846 0.347,1.846 0.701,3.73c2.657,14.182 5.108,28.399 7.535,42.622c0.156,0.909 0.312,1.817 0.472,2.753c0.286,1.667 0.569,3.334 0.851,5.002c0.901,5.26 2,10.451 3.191,15.654c4.62,1.32 9.24,2.64 14,4c-1.128,5.638 -3.227,8.382 -6.602,12.891c-3.184,7.08 0.202,14.768 2.727,21.672c0.311,0.866 0.621,1.731 0.941,2.623c10.586,29.254 10.586,29.254 31.934,50.815c-1.634,1.708 -2.869,2.935 -5,4c-1.134,2.017 -1.134,2.017 -2,4c-21.202,-13.692 -31.363,-41.707 -38,-65c-0.331,-1.054 -0.663,-2.109 -1.004,-3.195c-1.825,-6.007 -2.925,-10.862 -0.027,-16.785c0.954,-1.706 1.986,-3.368 3.031,-5.02c-1.114,-0.144 -2.227,-0.289 -3.375,-0.438c-3.625,-0.562 -3.625,-0.562 -5.625,-1.562c-0.724,-2.53 -1.316,-4.998 -1.848,-7.57c-0.171,-0.798 -0.341,-1.595 -0.517,-2.417c-2.231,-10.589 -4.144,-21.24 -6.072,-31.888c-0.398,-2.186 -0.797,-4.372 -1.196,-6.558c-2.467,-13.537 -4.913,-27.079 -7.304,-40.63c-0.721,-4.068 -1.474,-8.129 -2.25,-12.188c-0.19,-1.003 -0.379,-2.007 -0.575,-3.04c-0.35,-1.844 -0.706,-3.686 -1.071,-5.527c-1.378,-7.295 -2.412,-14.287 0.833,-21.183l0,-3c-1.421,-0.557 -1.421,-0.557 -2.871,-1.125c-3.129,-1.875 -3.129,-1.875 -4.414,-4.562c-0.257,-1.093 -0.513,-2.186 -0.777,-3.312c-0.458,-1.845 -0.458,-1.845 -0.926,-3.727c-0.158,-0.676 -0.316,-1.352 -0.479,-2.048c-0.802,-3.349 -1.701,-6.672 -2.589,-9.999c-0.997,-3.738 -1.97,-7.482 -2.944,-11.227c-8.625,0.643 -16.437,3.02 -24.674,5.561c-7.905,2.332 -15.657,4.254 -23.514,0.877c-8.019,-4.64 -12.257,-11.049 -15.812,-19.438c-0.321,-0.686 -0.642,-1.372 -0.973,-2.078c-3.571,-8.703 -3.383,-19.942 -0.465,-28.797c3.935,-9.149 9.224,-16.891 18.438,-21.125c2.426,-0.677 4.81,-1.275 7.266,-1.812c0.732,-0.166 1.463,-0.332 2.217,-0.504c1.625,-0.368 3.251,-0.733 4.877,-1.095c2.768,-0.617 5.534,-1.244 8.299,-1.872c5.271,-1.197 10.544,-2.387 15.818,-3.575c18.167,-4.096 36.325,-8.226 54.461,-12.454c0.885,-0.206 1.771,-0.413 2.683,-0.625c7.842,-1.828 15.682,-3.662 23.521,-5.505c3.098,-0.728 6.197,-1.455 9.296,-2.182c1.172,-0.275 2.344,-0.55 3.552,-0.833c6.613,-1.543 13.234,-3.043 19.866,-4.503c0.76,-0.167 1.52,-0.335 2.304,-0.507c3.086,-0.679 6.172,-1.358 9.259,-2.036c11.697,-2.575 23.33,-5.345 34.93,-8.326c1.058,-0.271 2.116,-0.543 3.207,-0.822c0.912,-0.237 1.825,-0.474 2.765,-0.719c13.144,-3.085 23.134,-1.566 34.368,6.433Z" style="fill:#414937;fill-rule:nonzero;"/><path d="M364.89,16.121c8.085,6.615 13.893,14.959 14.988,25.555c0.412,14.276 -4.766,26.799 -14.301,37.32c-7.092,6.62 -16.061,11.314 -24.43,16.112c-16.602,9.552 -32.011,21.849 -37.941,40.825c-0.679,2.921 -1.011,5.837 -1.379,8.812c-0.833,5.321 -0.833,5.321 -3.812,7.875c-9.199,2.044 -17.959,-0.042 -26.375,-4.25c0.601,4.808 0.601,4.808 3.68,8.285c6.41,3.088 13.318,3.892 20.32,4.715c-1.452,4.598 -1.452,4.598 -3.734,6.273c-8.691,2.787 -16.732,1.184 -24.641,-2.773c-9.786,-5.208 -16.945,-11.766 -20.625,-22.5c-0.7,-3.915 -0.586,-6.934 1.375,-10.5c1.625,-1.5 1.625,-1.5 3.625,-1.5c0.41,0.843 0.82,1.686 1.242,2.555c0.539,1.096 1.078,2.191 1.633,3.32c0.801,1.636 0.801,1.636 1.617,3.305c1.353,2.859 1.353,2.859 3.508,4.82c2.069,0.643 2.069,0.643 4,1c-0.644,-2.126 -1.29,-4.251 -1.938,-6.375c-0.36,-1.183 -0.719,-2.367 -1.09,-3.586c-0.848,-2.918 -0.848,-2.918 -1.973,-5.039c-0.312,-2.875 -0.312,-2.875 0,-6c2.708,-3.234 5.57,-5.001 9.312,-6.875c12.974,-6.944 21.09,-18.922 25.585,-32.92c0.78,-2.933 1.487,-5.872 2.165,-8.83c0.253,-1.05 0.505,-2.101 0.765,-3.183c0.735,-3.061 1.456,-6.126 2.172,-9.192c4.471,-19.104 9.499,-37.257 26.938,-48.312c13.033,-7.35 26.373,-5.905 39.312,1.062Z" style="fill:#fbfcfa;fill-rule:nonzero;"/><path d="M284.503,263.621c0.478,0.577 0.956,1.155 1.449,1.75c2.674,2.973 5.407,5.475 8.562,7.938c1.709,1.354 3.417,2.708 5.125,4.062c0.79,0.626 1.58,1.253 2.395,1.898c14.465,12.075 19.006,28.67 21.668,46.539c2.124,14.003 4.837,27.068 11.188,39.875c0.364,0.752 0.727,1.504 1.102,2.279c0.875,1.807 1.76,3.608 2.648,5.408c-9.543,-1.406 -18.931,-4.621 -27,-10c-2.534,-0.222 -2.534,-0.222 -5,1c-1.525,2.321 -2.644,4.373 -3.77,6.879c-0.489,1.03 -0.489,1.03 -0.987,2.081c-1.036,2.193 -2.046,4.397 -3.055,6.603c-0.698,1.49 -1.398,2.979 -2.1,4.467c-1.715,3.648 -3.408,7.306 -5.088,10.971c-5.11,-4.894 -7.251,-10.553 -10,-17c-0.578,-1.249 -0.578,-1.249 -1.168,-2.523c-4.595,-10.881 -5.076,-23.362 -6.32,-35c-3.042,-27.875 -16.587,-43.443 -36.512,-61.477c8.248,-8.89 35.08,-23.655 46.863,-15.75Z" style="fill:#fcfcfb;fill-rule:nonzero;"/><path d="M240.64,105.059c1.114,0.002 1.114,0.002 2.25,0.004c6.872,0.118 13.145,1.379 19.75,3.309l0,2c-2.206,1.588 -4.512,2.958 -6.836,4.367c-2.333,1.76 -2.916,3.064 -4.164,5.633c-2.32,1.031 -4.654,2.029 -7,3c-2.292,1.792 -2.292,1.792 -4,4c-0.577,0.701 -1.155,1.403 -1.75,2.125c-2.662,6.122 -1.709,12.223 0.312,18.438c5.024,12.428 15.083,20.663 26.918,26.43c8.551,3.42 18.065,4.732 27.094,2.32c4.423,-2.022 8.105,-4.982 10.426,-9.312c0.914,-2.776 1.637,-5.551 2.312,-8.395c0.688,-2.605 0.688,-2.605 2.312,-5.793c1.791,-3.663 2.026,-6.762 2.375,-10.812l3,0c8.448,9.53 11.534,20.815 11.27,33.23c-0.517,7.227 -2.821,11.721 -8.082,16.645c-9.347,7.492 -20.599,8.105 -32.188,7.125c-11.326,-1.852 -21.075,-6.455 -31,-12c-1,-0.557 -2.001,-1.114 -3.031,-1.688c-17.151,-10.251 -31.764,-26.716 -36.969,-46.312c-0.822,-7.14 -1.695,-16.312 1.938,-22.75c6.302,-7.864 15.217,-11.633 25.062,-11.562Z" style="fill:#fafbf9;fill-rule:nonzero;"/><path d="M388.897,254.332c6.335,4.798 9.259,10.589 11.742,18.039c0.81,10.212 0.317,18.829 -6.405,26.88c-4.165,4.087 -9.133,5.535 -14.584,7.319c-1.058,0.362 -2.116,0.723 -3.205,1.096c-3.368,1.147 -6.743,2.27 -10.119,3.392c-2.258,0.765 -4.515,1.531 -6.771,2.299c-5.965,2.025 -11.939,4.025 -17.916,6.014c-1.737,0.579 -3.474,1.158 -5.212,1.738c-1.875,0.625 -1.875,0.625 -3.788,1.262c-0.268,-1.052 -0.536,-2.104 -0.812,-3.188c-0.189,-0.736 -0.379,-1.472 -0.574,-2.23c-0.428,-1.804 -0.802,-3.621 -1.133,-5.445c-2.445,-12.666 -8.229,-24.235 -16.48,-34.137c2.167,-2.167 3.411,-2.64 6.272,-3.601c1.329,-0.451 1.329,-0.451 2.685,-0.912c0.964,-0.321 1.929,-0.642 2.922,-0.972c1,-0.338 2,-0.676 3.031,-1.024c3.216,-1.086 6.434,-2.164 9.653,-3.241c3.155,-1.061 6.309,-2.125 9.463,-3.189c2.064,-0.696 4.129,-1.389 6.194,-2.081c4.639,-1.558 9.263,-3.139 13.854,-4.834c0.77,-0.282 1.54,-0.565 2.333,-0.856c1.396,-0.516 2.789,-1.041 4.177,-1.578c4.887,-1.803 9.737,-2.853 14.674,-0.753Z" style="fill:#fcfcfb;fill-rule:nonzero;"/><path d="M246.64,300.371c10.238,6.966 14.974,20.001 17.59,31.574c0.576,4.813 0.493,9.585 0.41,14.426c-1.207,0.407 -2.414,0.815 -3.658,1.234c-5.616,1.896 -11.229,3.798 -16.842,5.703c-1.004,0.341 -2.008,0.681 -3.042,1.032c-12.74,4.33 -25.433,8.727 -37.98,13.591c-1.277,0.494 -1.277,0.494 -2.58,0.998c-0.715,0.282 -1.43,0.563 -2.167,0.853c-1.732,0.588 -1.732,0.588 -3.732,0.588c0.33,-1.258 0.66,-2.516 1,-3.812c2.742,-14.09 2.394,-28.324 -5.598,-40.652c-1.406,-1.91 -2.878,-3.72 -4.402,-5.535c-0.66,-0.99 -1.32,-1.98 -2,-3c9.751,-3.115 19.505,-6.196 29.344,-9.021c4.174,-1.211 8.308,-2.512 12.433,-3.882c0.99,-0.326 1.98,-0.652 3.001,-0.989c1.945,-0.644 3.887,-1.298 5.825,-1.962c0.889,-0.293 1.778,-0.587 2.694,-0.889c0.787,-0.267 1.575,-0.533 2.386,-0.808c2.755,-0.535 4.632,-0.214 7.317,0.55Z" style="fill:#fcfcfb;fill-rule:nonzero;"/><path d="M323.64,200.371l2,0c0.413,1.016 0.413,1.016 0.835,2.053c4.972,12.156 10.04,24.194 16.165,35.822c0.684,1.299 0.684,1.299 1.382,2.624c2.392,4.466 2.392,4.466 5.262,8.631c1.355,1.871 1.355,1.871 1.355,3.871c-9.955,3.888 -20.017,7.469 -30.125,10.938c-1.76,0.621 -1.76,0.621 -3.556,1.254c-1.119,0.379 -2.237,0.758 -3.389,1.149c-1.497,0.516 -1.497,0.516 -3.024,1.043c-3.34,0.71 -5.613,0.467 -8.906,-0.383c-2.555,-1.848 -2.555,-1.848 -4.875,-4.062c-1.172,-1.1 -1.172,-1.1 -2.367,-2.223c-0.58,-0.566 -1.16,-1.132 -1.758,-1.715c1.151,-3.452 1.821,-3.766 4.75,-5.688c6.557,-4.748 9.445,-10.491 11.25,-18.312c-0.029,-2.459 -0.094,-4.918 -0.188,-7.375c0.078,-10.189 6.417,-16.799 12.896,-24.091c1.382,-1.52 1.382,-1.52 2.291,-3.534Z" style="fill:#f9faf7;fill-rule:nonzero;"/><path d="M202.64,136.371l2,0c0.086,0.583 0.173,1.165 0.262,1.766c3.909,22.809 18.642,39.404 36.918,52.516c9.014,6.183 18.654,10.75 28.82,14.719c1.47,0.576 1.47,0.576 2.969,1.164c10.466,3.294 22.188,2.092 33.031,1.836c-5.237,6.764 -10.509,10.161 -19.251,11.291c-21.066,1.686 -41.527,-5.932 -57.706,-19.482c-0.674,-0.597 -1.348,-1.194 -2.043,-1.809c-0.829,-0.71 -1.658,-1.421 -2.512,-2.152c-9.787,-8.558 -16.466,-17.387 -22.488,-28.848c-0.387,-0.687 -0.773,-1.374 -1.172,-2.082c-2.205,-4.607 -2.127,-9.537 -2.203,-14.543c-0.014,-0.729 -0.028,-1.459 -0.043,-2.21c0.044,-4.776 0.917,-7.97 3.418,-12.165Z" style="fill:#f8f9f6;fill-rule:nonzero;"/><path d="M38.061,65.262c7.178,3.613 11.809,8.588 14.578,16.109c-0.81,0.219 -0.81,0.219 -1.636,0.443c-2.435,0.661 -4.868,1.328 -7.301,1.994c-0.85,0.23 -1.7,0.46 -2.576,0.697c-0.809,0.222 -1.618,0.445 -2.451,0.674c-1.123,0.306 -1.123,0.306 -2.269,0.619c-1.771,0.426 -1.771,0.426 -2.766,1.573c-0.623,4.258 0.115,6.459 2.5,9.875c2.925,4.354 3.171,6.922 2.5,12.125c-1.278,3.564 -2.387,5.472 -5.25,7.938c-3.864,1.493 -5.772,1.276 -9.75,0.062c-6.798,-4.188 -9.774,-9.491 -12,-17c-0.188,-0.625 -0.376,-1.25 -0.57,-1.895c-1.863,-9.129 -0.942,-17.439 3.676,-25.527c5.84,-7.948 13.863,-11.164 23.316,-7.688Z" style="fill:#fafbf8;fill-rule:nonzero;"/><path d="M191.64,136.371c-1.421,6.195 -3.008,10.416 -7.379,15.027c-7.712,9.384 -9.976,20.575 -9.934,32.348c-0.024,1.323 -0.024,1.323 -0.049,2.672c-0.01,14.264 5.904,26.19 15.615,36.406c13.437,12.462 27.625,15.381 45.292,14.726c8.933,-0.652 15.924,-4.258 23.286,-9.05c2.168,-1.129 2.168,-1.129 5.793,-1.004c0.784,0.289 1.567,0.577 2.375,0.875c-5.835,9.017 -17.288,12.985 -27.258,15.59c-16.858,2.522 -32.397,-0.267 -46.742,-9.59c-3.573,-2.789 -6.817,-5.777 -10,-9c-0.843,-0.81 -0.843,-0.81 -1.703,-1.637c-10.652,-11.129 -14.806,-27.086 -14.649,-42.074c0.524,-16.147 7.327,-29.632 18.352,-41.289c4.588,-4 4.588,-4 7,-4Z" style="fill:#f2f4ef;fill-rule:nonzero;"/><path d="M124.265,114.371c6.597,3.909 12.181,10.552 14.375,18c1.178,10.724 1.178,10.724 -2,15c-2.625,0.75 -2.625,0.75 -5,1c-0.412,-0.543 -0.825,-1.085 -1.25,-1.645c-4.167,-5.162 -7.382,-7.652 -13.75,-9.355c-8.147,-2.272 -8.147,-2.272 -11.562,-5.188c-1.888,-3.695 -2.466,-6.813 -1.438,-10.812c5.255,-8.348 11.331,-9.564 20.625,-7Z" style="fill:#404935;fill-rule:nonzero;"/><path d="M365.64,34.371c1.938,0.812 1.938,0.812 4,2c2.896,8.687 1.196,17.697 -2.32,25.922c-4.165,7.632 -10.976,14.883 -18.68,19.078c-2.44,0.691 -4.444,0.894 -7,1c1.188,-3.973 2.968,-6.145 6.038,-8.892c11.914,-10.662 17.055,-23.314 17.962,-39.108Z" style="fill:#434a39;fill-rule:nonzero;"/><path d="M169.952,321.559c6.228,1.372 10.065,5.532 13.688,10.625c1,2.188 1,2.188 1,4.188c-3.08,1.009 -6.165,2.006 -9.25,3c-0.873,0.286 -1.745,0.572 -2.645,0.867c-0.844,0.271 -1.689,0.541 -2.559,0.82c-0.775,0.251 -1.55,0.503 -2.349,0.762c-2.198,0.551 -2.198,0.551 -6.198,0.551c-0.859,-13.941 -0.859,-13.941 2.062,-17.875c2.938,-2.125 2.938,-2.125 6.25,-2.938Z" style="fill:#f9faf6;fill-rule:nonzero;"/><path d="M58.64,91.371c1.207,2.461 2.226,4.821 3.188,7.375c0.273,0.686 0.545,1.372 0.826,2.078c1.158,2.983 1.986,5.321 1.986,8.547c-1.892,0.676 -3.789,1.341 -5.688,2c-1.584,0.557 -1.584,0.557 -3.199,1.125c-2.897,0.814 -5.13,1.052 -8.113,0.875c0.023,-0.857 0.046,-1.714 0.07,-2.598c0.098,-6.206 0.104,-11.559 -2.07,-17.402c9.393,-3.202 9.393,-3.202 13,-2Z" style="fill:#f7f8f5;fill-rule:nonzero;"/><path d="M321.39,230.996c4.367,0.103 6.876,1.563 10.25,4.375c2.457,3.685 2.689,6.72 2,11c-1.625,2.5 -1.625,2.5 -4,4c-2.938,0.562 -2.938,0.562 -6,0c-4.228,-3.322 -6.764,-7.184 -9,-12c0.227,-5.108 1.54,-6.854 6.75,-7.375Z" style="fill:#424c39;fill-rule:nonzero;"/><path d="M140.64,93.371c2.776,2.192 3.835,3.869 4.348,7.383c0.172,5.007 -0.106,8.565 -3.348,12.617c-3.596,-0.555 -5.038,-1.709 -7.25,-4.562c-3.118,-4.389 -3.558,-7.14 -2.75,-12.438c2.098,-3.731 5.006,-3.652 9,-3Z" style="fill:#3f4735;fill-rule:nonzero;"/><path d="M186.64,259.371c3.185,1.062 5.62,2.402 8.25,4.438c10.057,7.294 21.97,6.41 33.75,4.562c-1,3 -1,3 -2.828,4.168c-7.849,3.304 -15.642,4.454 -23.941,2.02c-6.471,-2.863 -11.177,-7.425 -15.23,-13.188l0,-2Z" style="fill:#f0f2ec;fill-rule:nonzero;"/><path d="M185.39,109.246c1.17,0.018 2.341,0.036 3.547,0.055c1.338,0.035 1.338,0.035 2.703,0.07c-2.845,1.897 -5.586,3.203 -8.688,4.625c-9.162,4.575 -14.277,10.591 -19.184,19.469c-0.559,0.944 -0.559,0.944 -1.129,1.906l-1,0c-0.724,-6.661 1.303,-11.468 5,-17c5.701,-6.142 10.25,-9.295 18.75,-9.125Z" style="fill:#edf0e9;fill-rule:nonzero;"/><path d="M144.64,171.371c-0.491,3.274 -1.099,6.327 -2.062,9.5c-2.42,9.57 -1.47,19.373 2.062,28.5c-4.631,-1.85 -5.974,-4.633 -8.004,-9.027c-2.719,-8.114 -1.791,-15.131 1.941,-22.723c3.46,-6.25 3.46,-6.25 6.062,-6.25Z" style="fill:#f2f4ee;fill-rule:nonzero;"/><path d="M358.64,64.371c0.99,0.33 1.98,0.66 3,1c0.322,3.135 0.33,4.553 -1.574,7.133c-9.406,8.867 -9.406,8.867 -14.426,8.867c0.419,-4.419 3.448,-6.75 6.5,-9.625c3.703,-3.332 3.703,-3.332 6.5,-7.375Z" style="fill:#3c4432;fill-rule:nonzero;"/><path d="M296.64,231.371l1,0c0.502,4.013 0.805,6.631 -1.277,10.172c-3.698,4.461 -7.998,8.329 -13.723,9.828c-2.238,-0.41 -2.238,-0.41 -4,-1c0.664,-0.508 1.328,-1.016 2.012,-1.539c6.775,-5.282 11.616,-10.028 15.988,-17.461Z" style="fill:#eff1ea;fill-rule:nonzero;"/><path d="M258.64,130.371c3.465,3.465 4.885,8.161 5.188,13c-0.062,0.66 -0.124,1.32 -0.188,2c-2.817,-0.08 -4.489,-0.476 -6.48,-2.52c-2.582,-3.435 -2.582,-3.435 -3.52,-5.48c1.112,-3.335 2.474,-4.637 5,-7Z" style="fill:#474f3e;fill-rule:nonzero;"/><path d="M263.64,141.371c1.465,1.237 2.93,2.474 4.395,3.711c1.471,1.181 3.036,2.243 4.605,3.289c0.188,3.125 0.188,3.125 0,6l-2,0c-0.33,-1.32 -0.66,-2.64 -1,-4c-1.114,-0.268 -2.228,-0.536 -3.375,-0.812c-3.625,-1.188 -3.625,-1.188 -5.625,-4.188l3,0l0,-4Z" style="fill:#d1d3ce;fill-rule:nonzero;"/><path d="M365.64,34.371c1.938,0.812 1.938,0.812 4,2c1.141,3.422 1.098,6.087 1.062,9.688c-0.009,1.179 -0.018,2.359 -0.027,3.574c-0.012,0.904 -0.023,1.807 -0.035,2.738c-0.66,0.33 -1.32,0.66 -2,1c-0.33,-4.29 -0.66,-8.58 -1,-13l-2,0l0,-6Z" style="fill:#505647;fill-rule:nonzero;"/><path d="M192.64,316.371c-1.65,1.65 -3.3,3.3 -5,5c-1.32,-1.32 -2.64,-2.64 -4,-4c6.75,-2.125 6.75,-2.125 9,-1Z" style="fill:#ecefe8;fill-rule:nonzero;"/><path d="M140.64,199.371c2.19,3.285 2.998,6.207 4,10c-2.863,-1.05 -3.85,-1.734 -5.375,-4.438c-0.206,-0.846 -0.412,-1.691 -0.625,-2.562c0.66,-0.99 1.32,-1.98 2,-3Z" style="fill:#e4e8e1;fill-rule:nonzero;"/><path d="M263.64,141.371c0.99,0.66 1.98,1.32 3,2c0.188,2.625 0.188,2.625 0,5c-2.438,-0.375 -2.438,-0.375 -5,-1c-0.33,-0.66 -0.66,-1.32 -1,-2l3,0l0,-4Z" style="fill:#a2a69d;fill-rule:nonzero;"/><path d="M285.952,246.621c0.557,0.248 1.114,0.495 1.688,0.75l0,2c-4.431,2.092 -4.431,2.092 -7.312,1.625c-0.557,-0.206 -1.114,-0.412 -1.688,-0.625c4.431,-4.062 4.431,-4.062 7.312,-3.75Z" style="fill:#e2e7dc;fill-rule:nonzero;"/><path d="M305.64,209.371c0.33,0.99 0.66,1.98 1,3c-2.64,1.98 -5.28,3.96 -8,6c-0.99,-0.66 -1.98,-1.32 -3,-2c0.554,-0.338 1.109,-0.675 1.68,-1.023c0.724,-0.446 1.449,-0.892 2.195,-1.352c1.079,-0.661 1.079,-0.661 2.18,-1.336c2.063,-1.274 2.063,-1.274 3.945,-3.289Z" style="fill:#4f5546;fill-rule:nonzero;"/><path d="M345.64,75.371c0.99,0.33 1.98,0.66 3,1c-0.66,0.66 -1.32,1.32 -2,2c-0.643,2.069 -0.643,2.069 -1,4l-4,0c1.074,-2.915 1.778,-4.778 4,-7Z" style="fill:#4d5445;fill-rule:nonzero;"/><path d="M157.64,350.371c2.793,0.441 5.313,1.104 8,2c-3.135,1.858 -5.375,2.201 -9,2c0,-3 0,-3 1,-4Z" style="fill:#393f30;fill-rule:nonzero;"/><path d="M271.64,148.371c0.99,0.33 1.98,0.66 3,1c0.33,1.98 0.66,3.96 1,6l-3,0c-0.33,-2.31 -0.66,-4.62 -1,-7Z" style="fill:#4b5344;fill-rule:nonzero;"/><path d="M236.64,357.371c-2.31,1.32 -4.62,2.64 -7,4c-0.99,-0.99 -1.98,-1.98 -3,-3c6.286,-2.429 6.286,-2.429 10,-1Z" style="fill:#515749;fill-rule:nonzero;"/><path d="M365.64,34.371c1.98,0.99 1.98,0.99 4,2l0,3c-1.32,0.33 -2.64,0.66 -4,1l0,-6Z" style="fill:#575e50;fill-rule:nonzero;"/><path d="M317.64,111.371c0,4.39 -2.128,5.769 -5,9c-0.66,-0.33 -1.32,-0.66 -2,-1c2.31,-2.64 4.62,-5.28 7,-8Z" style="fill:#4c5244;fill-rule:nonzero;"/><path d="M137.702,93.309c1.454,0.031 1.454,0.031 2.938,0.062c-1.32,0.33 -2.64,0.66 -4,1l0,2c-1.65,0.66 -3.3,1.32 -5,2c2.414,-4.988 2.414,-4.988 6.062,-5.062Z" style="fill:#484e40;fill-rule:nonzero;"/><path d="M111.64,36.371c-2.812,1.562 -2.812,1.562 -6,3c-0.99,-0.33 -1.98,-0.66 -3,-1l0,-2c3.378,-0.845 5.675,-1.108 9,0Z" style="fill:#4f5647;fill-rule:nonzero;"/><path d="M295.64,385.371c0.66,1.32 1.32,2.64 2,4c-1.375,2 -1.375,2 -3,4l-2,0c1.875,-5.75 1.875,-5.75 3,-8Z" style="fill:#4e5545;fill-rule:nonzero;"/><path d="M399.64,286.371c0.66,0.99 1.32,1.98 2,3c-1.012,3.771 -1.676,4.784 -5,7c0.99,-3.3 1.98,-6.6 3,-10Z" style="fill:#52584b;fill-rule:nonzero;"/><path d="M186.64,259.371c4.875,1.75 4.875,1.75 6,4l-2,0c-0.33,0.66 -0.66,1.32 -1,2c-3,-3.75 -3,-3.75 -3,-6Z" style="fill:#e6ede3;fill-rule:nonzero;"/><path d="M293.64,243.371c0,3 0,3 -1.875,5.188c-2.125,1.812 -2.125,1.812 -4.125,1.812c1.229,-3.688 2.939,-4.724 6,-7Z" style="fill:#4f5547;fill-rule:nonzero;"/><path d="M306.64,18.371c0.99,0.33 1.98,0.66 3,1c-3.465,2.97 -3.465,2.97 -7,6c1.074,-2.915 1.778,-4.778 4,-7Z" style="fill:#464b3e;fill-rule:nonzero;"/></svg>