<?xml version="1.0" encoding="UTF-8" standalone="no"?><!DOCTYPE svg PUBLIC "-//W3C//DTD SVG 1.1//EN" "http://www.w3.org/Graphics/SVG/1.1/DTD/svg11.dtd"><svg width="100%" height="100%" viewBox="0 0 1466 1359" version="1.1" xmlns="http://www.w3.org/2000/svg" xmlns:xlink="http://www.w3.org/1999/xlink" xml:space="preserve" xmlns:serif="http://www.serif.com/" style="fill-rule:evenodd;clip-rule:evenodd;stroke-linejoin:round;stroke-miterlimit:2;"><path d="M1089.063,173.192c16.667,27.083 16.667,27.083 16.667,45.833c2.417,0.36 4.834,0.72 7.324,1.09c17.731,3.189 30.54,6.005 43.978,18.441c3.695,3.18 7.391,6.359 11.198,9.635c14.798,-1.155 23.282,-8.652 34.375,-17.969c39.795,-31.876 77.162,-41.025 128.125,-36.198c42.648,10.418 75.259,30.2 100.146,66.553c35.329,58.543 42.885,123.46 26.676,189.958c-30.811,102.954 -106.659,176.833 -186.029,245.345c-10.248,8.898 -20.115,18.123 -29.856,27.572c-3.47,3.314 -6.939,6.628 -10.514,10.042c-9.674,11.635 -13.81,20.812 -17.09,35.531c2.836,3.738 2.836,3.738 5.729,7.552c9.268,12.477 8.787,22.002 8.236,37.24c-2.94,18.817 -13.13,29.962 -26.986,42.188c-18.029,7.055 -34.576,8.004 -53.646,4.688c-11.462,-5.853 -19.348,-12.296 -29.167,-20.833c-0.295,2.857 -0.591,5.715 -0.895,8.659c-4.25,15.817 -12.674,27.334 -22.282,40.299c-1.883,2.573 -3.765,5.147 -5.705,7.798c-24.571,33.191 -49.831,61.007 -83.195,85.642c-13.424,11.652 -16.677,19.458 -18.197,37.158c0.032,7.025 0.032,7.025 0.065,14.193c-0.021,4.684 -0.043,9.367 -0.065,14.193c1.053,12.267 3.05,19.211 9.44,29.557c5.39,-0.902 5.39,-0.902 10.889,-1.823c30.982,-4.711 61.672,-7.666 93.018,-8.333c3.249,-0.142 6.497,-0.285 9.844,-0.431c30,-0.23 49.34,11.572 70.592,32.121c2.245,2.777 4.49,5.554 6.803,8.415c2.31,2.809 4.619,5.618 6.999,8.512c1.987,2.433 3.975,4.866 6.022,7.373c2.75,2.75 5.5,5.5 8.333,8.333c3.572,29.086 -3.943,47.246 -20.833,70.833c-54,67.966 -145.142,101.857 -224.479,128.646c-7.056,2.385 -7.056,2.385 -14.254,4.819c-45.292,14.805 -87.578,22.201 -135.225,22.265c-4.12,0.102 -8.239,0.204 -12.484,0.309c-26.292,0.105 -42.263,-2.766 -63.558,-18.538c-11.672,-17.508 -10.179,-32.261 -10.417,-52.865c-0.172,-3.639 -0.344,-7.278 -0.521,-11.027c-0.346,-28.984 7.944,-44.391 27.604,-65.275c3.233,-3.443 6.467,-6.886 9.798,-10.433c62.103,-56.234 62.103,-56.234 90.202,-56.234c-7.798,-27.116 -14.682,-48.755 -39.258,-65.007c-20.901,-8.169 -40.316,-7.673 -62.565,-7.91c-49.074,-1.25 -93.241,-6.753 -139.844,-22.917c-0.961,2.465 -1.923,4.931 -2.913,7.471c-8.632,20.914 -16.697,36.184 -34.587,50.863c-18.46,6.153 -34.49,7.243 -52.604,-0.521c-12.565,-9.92 -21.653,-19.588 -30.729,-32.812c-1.302,-14.062 -1.302,-14.062 0,-25c-37.912,-10.154 -76.17,-9.895 -115.104,-10.417c-112.538,-1.529 -228.482,-11.181 -312.012,-95.133c-40.222,-43.059 -64.248,-91.277 -66.113,-151.221c1.619,-46.947 20.489,-84.988 54.427,-117.188c30.841,-25.552 66.772,-39.234 106.51,-38.802c4.49,0.038 8.98,0.075 13.607,0.114c3.416,0.048 6.832,0.097 10.352,0.146c-0.773,-7.863 -0.773,-7.863 -1.562,-15.885c0.415,-44.365 33.556,-78.542 62.988,-108.577c20.894,-20.501 43.705,-38.06 67.741,-54.704c2.581,-1.791 5.162,-3.583 7.821,-5.428c193.264,-132.519 462.777,-251.09 700.513,-240.405c1.149,-2.514 2.299,-5.027 3.483,-7.617c15.211,-28.381 33.46,-32.445 63.184,-29.883Z" style="fill:#485038;fill-rule:nonzero;"/><path d="M1151.563,377.359l4.167,0c0.322,30.441 0.538,60.882 0.687,91.324c0.062,10.315 0.147,20.63 0.256,30.945c0.82,79.318 0.053,160.151 -25.943,236.065c-1.708,5.065 -3.416,10.13 -5.176,15.348c-20.14,57.603 -46.156,109.211 -86.491,155.485c-3.231,4.198 -3.231,4.198 -6.527,8.48c-52.714,66.454 -144.944,106.596 -226.807,120.687c-59.349,3.741 -118.971,5.086 -175,-16.667c-3.928,-1.475 -3.928,-1.475 -7.935,-2.981c-78.37,-29.88 -137.422,-75.709 -196.232,-134.519c-3.244,-3.147 -6.488,-6.295 -9.831,-9.538c-23.002,-22.475 -43.83,-45.857 -63.816,-71.033c-11.3,-14.187 -22.744,-28.257 -34.165,-42.346c-2.333,-2.896 -4.665,-5.791 -7.069,-8.775c-2.211,-2.733 -4.422,-5.466 -6.701,-8.282c-1.965,-2.436 -3.93,-4.872 -5.955,-7.381c-5.753,-7.008 -5.753,-7.008 -12.781,-13.428c-5.516,-5.884 -5.516,-5.884 -5.516,-14.217c6.22,0.131 6.22,0.131 12.565,0.264c82.198,1.573 161.029,1.504 241.602,-16.931c6.68,-1.442 6.68,-1.442 13.495,-2.913c205.685,-44.793 467.552,-139.462 603.172,-309.587Z" style="fill:#fdfdfc;fill-rule:nonzero;"/><path d="M1089.063,173.192c16.667,27.083 16.667,27.083 16.667,45.833c6.875,1.375 13.75,2.75 20.833,4.167l0,8.333l-8.333,0c-1.375,5.5 -2.75,11 -4.167,16.667l-16.667,0l0,25c3.266,1.117 6.531,2.234 9.896,3.385c10.938,4.948 10.938,4.948 19.271,17.448c2.784,20.533 2.3,32.494 -9.896,49.479c-4.914,5.833 -9.961,11.556 -15.104,17.188c-2.788,3.169 -5.575,6.338 -8.447,9.603c-98.998,105.937 -255.294,167.834 -388.867,215.511c-11.066,4.07 -21.967,8.44 -32.878,12.907c-16.282,6.582 -32.454,11.798 -49.495,16.146c-2.639,0.677 -5.278,1.354 -7.998,2.051c-5.523,1.412 -11.05,2.811 -16.579,4.199c-8.012,2.027 -16.002,4.137 -23.991,6.25c-45.72,11.895 -91.902,20.926 -138.411,29.167c-3.966,0.742 -7.932,1.483 -12.019,2.247c-23.567,3.485 -47.272,2.863 -71.054,2.961c-5.207,0.086 -10.415,0.172 -15.78,0.26c-32.781,0.139 -55.039,-1.319 -81.877,-21.094c-9.947,-13.773 -11.49,-21.423 -10.938,-38.542c39.084,-98.773 188.792,-161.778 279.167,-204.167c3.525,-1.673 7.051,-3.346 10.683,-5.07c109.666,-51.603 224.792,-91.13 343.483,-115.763c6.429,-1.414 12.859,-2.83 19.287,-4.248c34.082,-7.235 66.713,-9.862 101.546,-8.252c1.375,-6.875 2.75,-13.75 4.167,-20.833c-245.648,9.596 -576.932,126.711 -748.063,309.163c-19.473,23.938 -35.622,46.794 -32.926,78.743c3.036,13.203 7.039,17.232 18.49,24.593c106.659,53.234 266.86,13.359 375,-20.833c5.032,-1.58 10.064,-3.161 15.249,-4.789c62.323,-19.696 124.373,-39.594 183.431,-67.904c18.888,-8.792 30.4,-12.747 51.32,-6.474c-1.375,5.5 -2.75,11 -4.167,16.667c2.75,1.375 5.5,2.75 8.333,4.167c-39.302,20.637 -78.465,37.707 -120.312,52.604c-5.571,2.005 -11.141,4.011 -16.711,6.017c-15.412,5.53 -30.855,10.968 -46.309,16.379c-3.452,1.216 -6.905,2.432 -10.461,3.684c-49.547,17.219 -100.838,28.409 -152.051,39.439c-7.48,1.623 -14.951,3.286 -22.404,5.029c-61.248,14.321 -159.028,26.088 -219.25,6.014c2.465,2.97 4.931,5.94 7.471,9.001c6.795,8.235 13.548,16.505 20.264,24.805c5.627,6.931 11.32,13.811 17.188,20.54c5.859,7.113 5.859,7.113 13.411,20.654c-2.865,16.406 -2.865,16.406 -8.333,29.167c2.75,2.75 5.5,5.5 8.333,8.333c-14.655,0 -18.213,-3.435 -29.167,-12.5c-3.609,4.898 -3.609,4.898 -7.292,9.896c-11.571,13.5 -19.258,18.492 -36.963,20.524c-40.432,0.168 -40.432,0.168 -55.745,-13.753c-20.404,-22.105 -19.905,-46.328 -20.833,-75c-16.892,-5.631 -32.358,-7.014 -50,-4.167c-13.103,10.374 -23.784,19.737 -25.993,36.865c-1.195,35.665 12.577,64.338 34.326,92.301c16.012,16.76 32.872,27.082 53.646,37.24c20.243,10.44 20.243,10.44 25.212,20.817c1.09,8.089 1.09,8.089 0.309,21.11c-40.666,-1.807 -75.131,-26.192 -104.134,-53.271c-32.686,-36.056 -44.944,-74.073 -43.538,-121.859c3.375,-30.349 16.858,-45.685 39.6,-64.714c21.99,-10.506 47.003,-9.85 70.573,-5.99c18.547,8.562 30.148,18.895 39.583,36.979c0.688,2.922 1.375,5.844 2.083,8.854c-1.375,1.375 -2.75,2.75 -4.167,4.167c-1.648,22.503 -1.648,22.503 8.333,41.667c14.032,4.882 14.032,4.882 29.167,4.167c11.111,-5.556 11.111,-5.556 16.667,-16.667c1.329,-16.94 -0.761,-24.593 -10.905,-38.216c-8.626,-9.733 -17.586,-19.072 -26.595,-28.451c-7.234,-8.665 -14.408,-17.371 -21.517,-26.139c-22.479,-21.14 -46.198,-22.379 -75.667,-21.663c-32.837,4.222 -59.761,19.248 -82.243,43.376c-26.766,34.861 -28.74,64.998 -24.74,108.594c10.254,46 38.278,87.434 75,116.667c13.674,8.558 27.662,16.575 41.967,24.032c8.033,4.403 8.033,4.403 20.533,13.468c1.823,11.54 1.823,11.54 0,20.833c-25.286,6.045 -36.514,0.564 -58.285,-12.207c-57.221,-39.335 -98.83,-89.971 -114.469,-158.285c-7.576,-43.314 -1.872,-82.314 21.452,-119.873c26.491,-36.815 64.242,-63.968 109.635,-72.135c8.676,-0.281 17.361,-0.355 26.042,-0.26c4.49,0.038 8.98,0.075 13.607,0.114c3.416,0.048 6.832,0.097 10.352,0.146c-0.773,-7.863 -0.773,-7.863 -1.562,-15.885c0.415,-44.365 33.556,-78.542 62.988,-108.577c20.894,-20.501 43.705,-38.06 67.741,-54.704c2.581,-1.791 5.162,-3.583 7.821,-5.428c193.264,-132.519 462.777,-251.09 700.513,-240.405c1.149,-2.514 2.299,-5.027 3.483,-7.617c15.211,-28.381 33.46,-32.445 63.184,-29.883Z" style="fill:#454d35;fill-rule:nonzero;"/><path d="M214.063,681.526c27.98,22.444 51.059,53.672 70.833,83.333c-0.548,15.344 -1.111,25.406 -10.938,37.5c-14.686,6.184 -23.93,4.402 -39.062,0c-10.188,-11.503 -12.319,-18.568 -13.542,-33.854c1.042,-11.979 1.042,-11.979 5.208,-24.479c-10.268,-15.796 -20.756,-24.949 -37.5,-33.333c-25.106,-3.858 -50.661,-4.23 -73.177,8.594c-14.999,11.543 -26.09,22.837 -30.99,41.406c-5.541,44.62 -0.545,78.492 25,116.667c3.021,4.608 3.021,4.608 6.104,9.31c21.9,28.754 60.408,52.939 95.703,60.368c5.293,0.572 5.293,0.572 10.693,1.156c1.235,-11.856 1.235,-11.856 -4.167,-25c-8.261,-5.329 -8.261,-5.329 -18.49,-9.635c-41.81,-18.809 -69.149,-47.775 -85.677,-90.365c-5.646,-16.938 -6.403,-32.289 -4.167,-50c8.354,-15.844 14.279,-23.408 29.167,-33.333c8.838,-1.107 8.838,-1.107 18.49,-1.042c3.174,-0.021 6.349,-0.043 9.619,-0.065c10.963,1.292 17.263,2.648 26.058,9.44c2.1,11.165 2.1,11.165 2.344,24.479c0.395,18.89 2.112,27.742 14.323,42.188l0,8.333c22.356,10.166 42.442,10.708 66.667,8.333c15.766,-6.709 25.881,-16.687 37.5,-29.167c5.5,4.125 11,8.25 16.667,12.5l0,-12.5c1.295,-6.962 2.67,-13.911 4.167,-20.833l8.333,0c6.494,7.357 6.494,7.357 14.323,17.708c15.374,19.758 31.679,38.201 48.77,56.458c8.556,9.171 16.73,18.346 24.423,28.259c15.421,18.681 35.246,32.581 54.15,47.575c3.062,2.551 6.123,5.103 9.277,7.731c61.875,50.636 134.681,77.898 211.556,96.436c-11.361,16.276 -11.361,16.276 -21.615,19.792c-25.942,2.306 -45.659,2.466 -70.052,-7.292c-0.961,2.465 -1.923,4.931 -2.913,7.471c-8.632,20.914 -16.697,36.184 -34.587,50.863c-18.46,6.153 -34.49,7.243 -52.604,-0.521c-12.565,-9.92 -21.653,-19.588 -30.729,-32.812c-1.302,-14.062 -1.302,-14.062 0,-25c-37.912,-10.154 -76.17,-9.895 -115.104,-10.417c-59.984,-0.815 -119.78,-2.315 -177.865,-19.01c-7.581,-2.135 -7.581,-2.135 -15.316,-4.313c-8.389,-2.514 -16.741,-5.157 -25.049,-7.926l0,-8.333c6.188,-4.125 6.188,-4.125 12.5,-8.333l0,-12.5c-2.825,-1.37 -5.65,-2.739 -8.561,-4.15c-56.895,-29.078 -104.869,-72.96 -125.114,-134.57c-9.192,-37.119 -9.802,-76.816 10.026,-110.384c38.788,-51.265 104.973,-82.782 165.316,-46.729Z" style="fill:#485038;fill-rule:nonzero;"/><path d="M1348.324,231.916c46.241,23.915 66.28,59.565 82.406,107.943c7.105,79.085 -10.268,148.327 -60.647,211.139c-38.637,46.156 -82.381,89.042 -127.886,128.367c-42.414,36.515 -42.414,36.515 -63.551,86.536c1.174,11.648 1.174,11.648 8.594,19.531c5.99,8.594 5.99,8.594 4.948,23.958c-3.125,13.802 -3.125,13.802 -7.292,17.969c-25.867,1.916 -25.867,1.916 -37.24,-4.688c-6.746,-11.905 -5.919,-19.132 -4.427,-32.812c3.404,-10.72 7.005,-21.284 10.986,-31.803c2.67,-10.304 2.67,-10.304 -4.395,-19.466c-2.175,-2.331 -4.351,-4.662 -6.592,-7.064c2.062,-4.125 2.062,-4.125 4.167,-8.333l-8.333,0c-2.062,4.125 -2.062,4.125 -4.167,8.333c-0.801,-19.23 1.206,-34.365 6.082,-53.118c16.219,-67.578 16.886,-137.698 17.616,-206.778c0.139,-9.218 0.282,-18.435 0.431,-27.653c0.348,-22.205 0.635,-44.411 0.871,-66.618c10.632,13.399 15.97,25.205 20.833,41.667l8.333,0c-0.153,-3.738 -0.305,-7.477 -0.463,-11.328c-0.5,-14.01 -0.864,-28.011 -1.139,-42.027c-0.146,-6.039 -0.344,-12.076 -0.598,-18.111c-2.319,-56.543 -2.319,-56.543 15.53,-77.639c11.639,-10.735 23.844,-20.021 37.712,-27.718c3.459,-1.971 6.918,-3.942 10.482,-5.973c28.929,-14.616 67.308,-14.641 97.738,-4.313Z" style="fill:#444c34;fill-rule:nonzero;"/><path d="M989.063,289.859c-31.092,86.792 -31.092,86.792 -58.333,100l-25,0c-1.375,-16.5 -2.75,-33 -4.167,-50c-8.25,-1.375 -16.5,-2.75 -25,-4.167c-13.65,17.329 -26.051,34.723 -36.979,53.906c-30.56,51.275 -67.674,76.977 -125.521,91.927c-11.049,1.538 -21.934,2.844 -33.024,3.874c-6.357,0.643 -12.714,1.288 -19.071,1.935c-3.277,0.326 -6.554,0.651 -9.93,0.986c-107.092,10.778 -240.046,24.961 -315.253,113.273c-1.654,2.401 -3.309,4.802 -5.013,7.275c-1.697,2.412 -3.395,4.823 -5.143,7.308c-4.934,7.6 -4.934,7.6 -8.398,19.515c-5.993,-0.477 -11.982,-1.009 -17.969,-1.562c-3.335,-0.29 -6.671,-0.58 -10.107,-0.879c-9.424,-1.725 -9.424,-1.725 -21.924,-10.059c3.496,-35.575 27.985,-54.88 54.004,-77.295c158.052,-127.881 457.974,-273.283 666.829,-256.038Z" style="fill:#fafaf7;fill-rule:nonzero;"/><path d="M1001.563,244.026c-1.375,6.875 -2.75,13.75 -4.167,20.833c-4.361,0.312 -8.723,0.623 -13.216,0.944c-144.597,11.913 -283.311,59.002 -415.951,115.723c-4.081,1.721 -8.163,3.442 -12.368,5.214c-89.743,38.14 -179.744,85.42 -254.299,148.952c-3.25,2.535 -6.499,5.07 -9.847,7.682c-20.34,16.362 -35.502,34.073 -44.32,58.984c-0.279,16.996 1.218,25.125 11.198,38.802c26.46,19.309 56.99,16.969 88.281,16.927c5.161,-0.007 10.321,-0.013 15.638,-0.02c50.293,-0.656 98.28,-7.776 147.383,-18.209c3.422,-0.712 6.844,-1.423 10.37,-2.157c37.685,-7.957 74.134,-18.335 110.463,-31.177c15.524,-5.231 31.072,-10.393 46.639,-15.496c135.431,-44.603 374.693,-125.63 445.028,-263.671c2.532,-12.252 1.425,-20.505 0,-33.333c-7.792,-10.13 -13.672,-15.17 -25,-20.833l0,-25c24.065,6.449 43.366,12.09 58.333,33.333c4.608,27.133 -6.736,47.769 -21.579,69.787c-106.616,140.943 -304.245,217.344 -465.921,271.88c-4.035,1.366 -8.07,2.731 -12.227,4.138c-63.002,21.015 -126.496,34.829 -191.939,45.862c-3.135,0.553 -6.271,1.106 -9.501,1.676c-68.658,11.976 -158.901,19.661 -220.886,-17.025c-9.299,-7.171 -14.672,-14.348 -17.139,-25.944c-1.483,-34.053 13.833,-56.034 35.286,-81.348c166.543,-175.826 508.595,-318.216 749.74,-306.527Z" style="fill:#f0f2eb;fill-rule:nonzero;"/><path d="M951.562,1019.026c0.059,2.825 0.118,5.65 0.179,8.561c1.985,38.737 12.113,68.741 41.227,95.345c25.356,20.095 43.167,26.92 75.26,25.26l0,-16.667c-20.625,-8.25 -20.625,-8.25 -41.667,-16.667l0,-8.333c34.169,-8.818 79.731,-18.889 112.158,-2.002c4.294,3.053 4.294,3.053 8.675,6.169c-2.989,28.966 -24.917,44.327 -45.833,62.5c-14.636,11.044 -29.821,20.253 -45.833,29.167c-4.689,2.648 -9.378,5.296 -14.209,8.024c-33.363,18.087 -67.812,31.45 -103.76,43.538c-4.123,1.391 -8.247,2.782 -12.495,4.214c-36.204,11.744 -72.417,20.456 -110.682,20.265c-6.558,0.032 -6.558,0.032 -13.249,0.065c-13.008,-1.173 -21.853,-2.745 -33.105,-9.44c-4.492,-9.668 -4.492,-9.668 -4.167,-20.833c21.792,-31.088 55.062,-52.209 87.5,-70.833c1.375,2.75 2.75,5.5 4.167,8.333c-1.977,3.867 -3.953,7.734 -5.99,11.719c-6.43,13.118 -7.769,19.854 -6.51,34.115c9.939,0.534 9.939,0.534 20.833,-4.167c21.394,-30.755 23.372,-63.568 20.833,-100c-5.54,-26.996 -21.711,-48.759 -37.5,-70.833c4.125,-1.311 8.25,-2.621 12.5,-3.971c26.322,-8.492 65.977,-33.529 91.667,-33.529Z" style="fill:#fafaf7;fill-rule:nonzero;"/><path d="M214.063,681.526c27.98,22.444 51.059,53.672 70.833,83.333c-0.548,15.344 -1.111,25.406 -10.938,37.5c-14.686,6.184 -23.93,4.402 -39.062,0c-10.188,-11.503 -12.319,-18.568 -13.542,-33.854c1.042,-11.979 1.042,-11.979 5.208,-24.479c-10.268,-15.796 -20.756,-24.949 -37.5,-33.333c-25.106,-3.858 -50.661,-4.23 -73.177,8.594c-14.999,11.543 -26.09,22.837 -30.99,41.406c-5.541,44.62 -0.545,78.492 25,116.667c3.021,4.608 3.021,4.608 6.104,9.31c30.083,39.498 84.408,62.462 131.396,74.023c2.823,0.706 5.646,1.411 8.554,2.138c45.514,9.864 92.897,8.918 139.272,10.168c86.79,2.445 86.79,2.445 118.841,21.027c2.651,1.435 5.302,2.87 8.033,4.348c7.181,4.047 14.166,8.435 21.133,12.84c4.555,2.847 9.109,5.693 13.802,8.626c11.198,7.52 11.198,7.52 19.531,15.853c1.974,15.136 1.913,22.307 -7.031,34.896c-9.635,6.771 -9.635,6.771 -20.312,8.594c-12.139,-2.179 -15.081,-4.795 -22.656,-14.323c-2.018,-8.984 -2.018,-8.984 -3.125,-18.75c-1.756,-9.952 -1.756,-9.952 -5.208,-18.75c-11.052,-7.29 -16.733,-9.732 -29.167,-12.5c-2.963,-0.726 -5.926,-1.452 -8.978,-2.2c-34.381,-7.235 -68.269,-7.283 -103.23,-7.586c-59.937,-0.627 -117.317,-2.714 -175.292,-19.38c-4.458,-1.246 -8.916,-2.492 -13.509,-3.776c-60.84,-19.55 -110.545,-61.708 -140.007,-118.148c-15.39,-36.447 -20.452,-76.638 -9.798,-115.218c15.697,-34.966 46.043,-62.823 81.673,-76.937c32.722,-7.835 64.988,-7.506 94.141,9.912Z" style="fill:#f5f7f1;fill-rule:nonzero;"/><path d="M1348.324,231.916c46.241,23.915 66.28,59.565 82.406,107.943c7.105,79.085 -10.268,148.327 -60.647,211.139c-38.637,46.156 -82.381,89.042 -127.886,128.367c-42.414,36.515 -42.414,36.515 -63.551,86.536c1.174,11.648 1.174,11.648 8.594,19.531c5.99,8.594 5.99,8.594 4.948,23.958c-3.125,13.802 -3.125,13.802 -7.292,17.969c-25.867,1.916 -25.867,1.916 -37.24,-4.688c-6.48,-11.435 -5.265,-19.723 -4.427,-32.812c2.987,-10.774 6.15,-21.021 9.896,-31.51c0.924,-2.694 1.848,-5.387 2.799,-8.162c2.641,-7.634 5.387,-15.232 8.138,-22.827c1.187,-3.422 2.373,-6.843 3.596,-10.369c5.104,-11.274 10.376,-17.499 19.24,-26.056c4.447,-4.345 4.447,-4.345 8.984,-8.778c3.212,-3.082 6.423,-6.163 9.732,-9.338c6.829,-6.691 13.657,-13.383 20.483,-20.076c10.723,-10.44 21.461,-20.862 32.226,-31.259c62.513,-60.523 125.606,-124.033 128.001,-216.259c0.518,-45.542 -2.655,-75.068 -32.419,-110.938c-24.119,-19.413 -42.951,-23.414 -73.551,-22.542c-18.183,2.172 -26.881,6.706 -41.292,18.115c-16.631,21.445 -22.683,39.089 -22.64,65.837c2.94,14.91 15.394,20.724 26.807,29.997c3.464,12.675 2.168,19.894 0,33.333c-6.771,8.333 -6.771,8.333 -16.667,12.5c-17.095,1.744 -22.964,1.357 -37.5,-8.333c-2.748,-18.481 -2.5,-37.103 -2.545,-55.764c-0.058,-9.227 -0.338,-18.429 -0.629,-27.651c-0.774,-49.45 -0.774,-49.45 16.553,-69.954c11.624,-10.688 23.834,-19.945 37.663,-27.62c3.459,-1.971 6.918,-3.942 10.482,-5.973c28.929,-14.616 67.308,-14.641 97.738,-4.313Z" style="fill:#f6f7f2;fill-rule:nonzero;"/><path d="M157.552,738.817c3.174,-0.021 6.349,-0.043 9.619,-0.065c10.963,1.292 17.263,2.648 26.058,9.44c2.1,11.165 2.1,11.165 2.344,24.479c0.395,18.89 2.112,27.742 14.323,42.188l0,8.333c22.356,10.166 42.442,10.708 66.667,8.333c15.943,-6.784 25.434,-16.975 37.5,-29.167c15.714,17.632 31.419,35.265 46.875,53.125c13.545,15.516 27.446,30.692 41.406,45.833c2.131,2.314 4.262,4.627 6.458,7.011c11.24,12.152 22.621,24.088 34.428,35.697c-223.684,2.01 -223.684,2.01 -299.154,-68.831c-23.249,-26.176 -35.725,-57.616 -35.384,-92.464c1.852,-14.663 8.431,-23.479 17.871,-34.538c12.958,-8.639 16.213,-9.475 30.99,-9.375Z" style="fill:#fafaf8;fill-rule:nonzero;"/><path d="M1289.844,297.151c19.77,1.296 33.093,5.017 46.777,19.987c26.193,34.618 25.619,69.817 22.559,111.686c-13.683,86.983 -107.918,169.594 -174.284,219.368c1.375,-61.875 2.75,-123.75 4.167,-187.5l41.667,0c17.123,-7.067 26.264,-12.735 37.24,-27.604c5.994,-19.04 8.503,-36.007 4.427,-55.729c-5.883,-8.458 -12.391,-15.252 -19.629,-22.559c-5.371,-6.608 -5.371,-6.608 -6.152,-19.629c6.028,-14.595 13.975,-22.482 25.781,-32.812c4.167,-4.167 4.167,-4.167 17.448,-5.208Z" style="fill:#fafaf7;fill-rule:nonzero;"/><path d="M1099.479,1067.463c3.346,-0.156 6.692,-0.312 10.14,-0.472c30.927,-0.451 50.17,10.678 72.119,31.901c2.245,2.777 4.49,5.554 6.803,8.415c2.31,2.809 4.619,5.618 6.999,8.512c1.987,2.433 3.975,4.866 6.022,7.373c4.125,4.125 4.125,4.125 8.333,8.333c3.572,29.086 -3.943,47.246 -20.833,70.833c-41.479,52.207 -106.74,82.707 -166.667,108.333c-4.453,1.95 -8.905,3.899 -13.493,5.908c-23.868,9.672 -40.485,13.122 -65.674,6.592c-1.375,-2.75 -2.75,-5.5 -4.167,-8.333l29.167,0c1.031,-2.578 2.062,-5.156 3.125,-7.812c6.206,-10.551 10.941,-12.217 21.875,-17.188c1.897,-1.976 3.793,-3.952 5.747,-5.988c7.457,-7.192 13.919,-10.491 23.387,-14.618c3.256,-1.459 6.512,-2.917 9.867,-4.42c3.458,-1.538 6.915,-3.077 10.478,-4.662c50.485,-23.258 106.358,-51.155 131.51,-103.646c1.16,-4.125 1.16,-4.125 2.344,-8.333c-4.125,-1.375 -8.25,-2.75 -12.5,-4.167c-1.622,2.02 -3.244,4.039 -4.915,6.12c-45.011,53.931 -103.357,86.233 -167.48,112.37c-5.2,2.139 -5.2,2.139 -10.504,4.321c-21.184,8.326 -40.235,12.837 -62.933,14.689c-4.688,-15.625 -4.688,-15.625 0,-25c11.845,-4.638 23.653,-8.9 35.677,-13.021c66.203,-23.622 140.949,-54.523 185.156,-111.979c4.277,-11.464 4.277,-11.464 4.167,-20.833c-22.484,-14.011 -49.527,-9.182 -75,-8.333c-4.222,0.124 -8.443,0.247 -12.793,0.374c-5.527,0.33 -5.527,0.33 -11.165,0.667c-3.244,0.193 -6.488,0.387 -9.831,0.586c-8.651,1.829 -8.651,1.829 -12.63,10.547c-1.182,2.857 -2.363,5.715 -3.581,8.659c-2.75,2.75 -5.5,5.5 -8.333,8.333l0,-8.333c-4.125,-1.375 -8.25,-2.75 -12.5,-4.167c2.75,-8.25 5.5,-16.5 8.333,-25l12.5,0l0,-8.333l8.333,0l0,-12.5c24.367,-3.409 48.318,-5.295 72.917,-5.729Z" style="fill:#464e36;fill-rule:nonzero;"/><path d="M1164.063,1139.859c5.5,2.75 11,5.5 16.667,8.333c-20.179,58.068 -80.994,89.224 -133.114,114.467c-39.844,18.866 -39.844,18.866 -50.22,18.866c-1.375,4.125 -2.75,8.25 -4.167,12.5c-6.847,4.325 -13.802,8.482 -20.833,12.5c-2.148,2.32 -4.297,4.641 -6.51,7.031c-5.99,5.469 -5.99,5.469 -22.656,5.469c6.875,2.75 13.75,5.5 20.833,8.333c-14.519,9.68 -28.605,12.968 -45.312,16.927c-2.949,0.722 -5.897,1.445 -8.936,2.189c-31.834,7.736 -60.438,11.044 -93.148,11.353c-4.232,0.121 -8.465,0.242 -12.826,0.366c-26.774,0.226 -43.14,-2.15 -64.779,-18.335c-8.9,-13.35 -9.342,-16.65 -9.147,-31.95c0.04,-5.579 0.04,-5.579 0.081,-11.271c0.105,-5.805 0.105,-5.805 0.212,-11.727c0.038,-3.918 0.075,-7.836 0.114,-11.873c0.098,-9.672 0.235,-19.341 0.407,-29.012l4.167,0c1.375,22 2.75,44 4.167,66.667c8.25,-2.062 8.25,-2.062 16.667,-4.167c5.436,-12.484 5.436,-12.484 8.333,-25c-2.75,-1.375 -5.5,-2.75 -8.333,-4.167c1.375,-6.875 2.75,-13.75 4.167,-20.833c1.719,1.977 3.438,3.953 5.208,5.99c16.94,15.125 41.396,11.743 62.842,11.67c21.023,-1.366 40.76,-5.962 61.133,-11.165c11.853,-2.21 18.017,-2.271 29.15,1.839l0,12.5c87.145,-8.313 184.617,-64.407 240.299,-130.615c2.739,-3.408 2.739,-3.408 5.534,-6.885Z" style="fill:#495138;fill-rule:nonzero;"/><path d="M1164.063,1139.859c5.5,2.75 11,5.5 16.667,8.333c-20.192,58.105 -80.891,88.845 -132.694,114.693c-40.714,19.67 -82.208,35.303 -125.639,47.807c-3.019,0.876 -6.038,1.752 -9.149,2.655c-48.844,13.798 -100.205,24.259 -149.184,5.678l0,-20.833c2.428,0.087 4.855,0.175 7.357,0.264c53.457,1.66 99.753,-0.483 150.977,-16.931c6.14,-1.838 12.282,-3.671 18.424,-5.501c80.575,-24.732 173.319,-65.281 223.242,-136.165Z" style="fill:#f2f3ec;fill-rule:nonzero;"/><path d="M1328.597,272.346c15.056,7.156 21.837,11.654 31.299,25.846c-7.292,8.594 -7.292,8.594 -16.667,16.667c-10.152,-0.655 -17.073,-4.353 -26.302,-8.594c-14.58,-5.086 -25.014,-5.825 -40.365,-3.906c-13.357,9.873 -19.457,17.5 -25.781,32.812c0.903,15.045 2.896,16.341 13.021,26.563c11.61,12.177 14.75,19.844 15.104,36.719c-1.59,23.808 -8.03,38.929 -25.26,55.729c-3.438,2.148 -6.875,4.297 -10.417,6.51c-4.125,-1.375 -8.25,-2.75 -12.5,-4.167c0.129,-4.898 0.129,-4.898 0.26,-9.896c0.518,-10.859 0.518,-10.859 -4.427,-19.271c4.125,-2.75 8.25,-5.5 12.5,-8.333c2.532,-16.977 2.532,-16.977 0,-33.333c-4.125,-3.352 -8.25,-6.703 -12.5,-10.156c-12.5,-10.677 -12.5,-10.677 -14.6,-19.401c-0.672,-26.886 6.591,-44.714 24.495,-64.974c27.61,-24.323 56.485,-30.233 92.139,-18.815Z" style="fill:#474f37;fill-rule:nonzero;"/><path d="M393.229,764.859c19.448,1.877 26.628,8.475 39.062,23.177c3.26,3.781 6.521,7.562 9.88,11.458c3.099,3.695 6.198,7.391 9.391,11.198c63.057,75.061 140.179,119.977 229.167,158.333c-1.375,5.5 -2.75,11 -4.167,16.667c-21.43,1.59 -37.339,-3.725 -56.51,-12.5c-2.912,-1.311 -5.824,-2.622 -8.825,-3.973c-77.618,-35.84 -177.225,-105.153 -217.998,-183.527c-0.667,-11.426 -0.667,-11.426 0,-20.833Z" style="fill:#495139;fill-rule:nonzero;"/><path d="M184.896,598.192l4.167,0c1.375,6.875 2.75,13.75 4.167,20.833c5.5,1.375 11,2.75 16.667,4.167c2.75,-4.125 5.5,-8.25 8.333,-12.5c0.167,2.465 0.333,4.931 0.505,7.471c1.966,14.877 3.837,26.131 14.827,36.865c26.12,15.883 54.706,19.228 84.668,22.331c-5.5,1.375 -11,2.75 -16.667,4.167l0,8.333c-4.125,2.75 -8.25,5.5 -12.5,8.333l0,8.333l-8.333,0c6.875,9.625 13.75,19.25 20.833,29.167c-8.333,4.167 -8.333,4.167 -20.833,4.167c-4.125,2.75 -8.25,5.5 -12.5,8.333c-3.067,-3.717 -6.134,-7.434 -9.294,-11.263c-4.106,-4.927 -8.213,-9.853 -12.321,-14.779c-2.011,-2.444 -4.023,-4.888 -6.095,-7.406c-20.135,-24.054 -34.945,-38.668 -67.342,-42.594c-4.839,-0.623 -9.679,-1.246 -14.665,-1.888c-3.668,-0.408 -7.337,-0.816 -11.117,-1.237l0,-4.167c3.953,-0.344 7.906,-0.688 11.979,-1.042c4.297,-1.031 8.594,-2.062 13.021,-3.125c2.75,-5.5 5.5,-11 8.333,-16.667c-15.125,-1.375 -30.25,-2.75 -45.833,-4.167l0,-4.167l50,0l0,-37.5Z" style="fill:#4d563c;fill-rule:nonzero;"/><path d="M1164.063,2.359c7.34,5.518 7.34,5.518 12.5,12.5c0.332,17.935 -1.528,26.314 -13.802,39.583c-16.808,12.372 -35.395,22.167 -53.499,32.487c-18.711,11.191 -34.361,24.592 -49.365,40.43c-2.285,-35.803 7.9,-64.427 30.583,-92.236c2.283,-2.562 4.565,-5.124 6.917,-7.764c3.36,-3.779 3.36,-3.779 6.787,-7.633c17.686,-17.522 35.156,-23.547 59.88,-17.367Z" style="fill:#474f38;fill-rule:nonzero;"/><path d="M222.396,923.192c3.524,0.845 7.048,1.69 10.678,2.56c45.604,10.109 90.392,13.007 136.978,14.887c7.544,0.34 15.088,0.685 22.632,1.034c18.235,0.834 36.472,1.61 54.712,2.352c-3.438,2.578 -6.875,5.156 -10.417,7.812c-3.438,2.922 -6.875,5.844 -10.417,8.854l0,8.333c-21.729,1.38 -43.459,2.625 -65.206,3.684c-8.377,0.412 -16.752,0.874 -25.126,1.345c-41.03,1.303 -78.508,-7.499 -118.001,-17.529c0.773,-2.578 1.547,-5.156 2.344,-7.812c2.81,-9.028 2.81,-9.028 -2.344,-17.188c1.375,-2.75 2.75,-5.5 4.167,-8.333Z" style="fill:#4c553c;fill-rule:nonzero;"/><path d="M1159.896,377.359c12.5,16.667 12.5,16.667 16.146,29.688c3.495,12.468 3.495,12.468 13.542,17.448c15.106,3.612 29.856,5.459 45.312,7.031c0.177,9.721 0.171,19.446 0,29.167c-7.912,7.912 -19.052,4.682 -29.541,4.72c-7.959,-0.553 -7.959,-0.553 -16.292,-4.72c0.097,4.474 0.193,8.948 0.293,13.558c0.078,5.984 0.154,11.968 0.228,17.952c0.07,2.935 0.14,5.871 0.212,8.895c0.185,20.059 -2.111,36.534 -9.066,55.428c-4.125,2.062 -4.125,2.062 -8.333,4.167c-5.274,-16.114 -4.631,-32.219 -4.427,-48.958c0.086,-9.969 0.172,-19.938 0.26,-30.208c-1.375,34.375 -2.75,68.75 -4.167,104.167l-4.167,0l0,-208.333Z" style="fill:#424a32;fill-rule:nonzero;"/><path d="M714.062,606.526c-1.375,5.5 -2.75,11 -4.167,16.667c2.75,1.375 5.5,2.75 8.333,4.167c2.062,6.188 2.062,6.188 4.167,12.5c-102.427,37.5 -102.427,37.5 -133.333,37.5c-1.375,-4.125 -2.75,-8.25 -4.167,-12.5l8.333,0c-1.375,-6.875 -2.75,-13.75 -4.167,-20.833c16.458,-5.356 32.92,-10.696 49.388,-16.022c5.603,-1.814 11.205,-3.633 16.805,-5.457c8.043,-2.618 16.091,-5.22 24.139,-7.819c4.844,-1.571 9.688,-3.142 14.679,-4.761c11.656,-3.442 11.656,-3.442 19.989,-3.442Z" style="fill:#49533a;fill-rule:nonzero;"/><path d="M1039.063,456.526c4.948,10.677 4.948,10.677 8.333,20.833c-12.695,8.521 -25.478,16.902 -38.281,25.26c-3.601,2.42 -7.203,4.839 -10.913,7.332c-3.505,2.269 -7.009,4.539 -10.62,6.877c-3.208,2.117 -6.415,4.233 -9.72,6.414c-11.897,5.085 -18.266,3.583 -30.466,-0.05c2.711,-6.971 5.501,-13.911 8.333,-20.833c1.058,-2.718 2.116,-5.436 3.206,-8.236c6.7,-11.017 14.04,-15.072 25.179,-21.452c3.55,-2.073 7.101,-4.146 10.758,-6.283c28.661,-15.039 28.661,-15.039 44.189,-9.863Z" style="fill:#414932;fill-rule:nonzero;"/><path d="M993.229,64.859c12.313,11.885 16.389,18.672 18.587,35.807c-0.118,5.371 -0.236,10.742 -0.358,16.276c-0.054,5.371 -0.107,10.742 -0.163,16.276c-1.288,13.783 -3.782,23.43 -9.733,35.807c-11.496,-5.748 -11.827,-11.76 -16.146,-23.698c-4.996,-13.185 -9.851,-24.588 -18.229,-35.938c-7.982,-12.258 -9.996,-17.737 -7.292,-32.031c8.872,-13.542 17.708,-15.549 33.333,-12.5Z" style="fill:#485138;fill-rule:nonzero;"/><path d="M1214.063,106.526c8.333,8.333 8.333,8.333 9.635,20.833c-0.43,4.125 -0.859,8.25 -1.302,12.5c-14.078,9.385 -20.164,9.469 -36.719,10.156c-19.939,1.278 -33.294,4.719 -50.781,14.844c-2.75,-1.375 -5.5,-2.75 -8.333,-4.167c21.733,-36.068 41.94,-62.003 87.5,-54.167Z" style="fill:#485038;fill-rule:nonzero;"/><path d="M547.396,331.526c1.375,11 2.75,22 4.167,33.333c-24.75,11 -49.5,22 -75,33.333l0,-8.333l-8.333,0c-2.75,-6.875 -5.5,-13.75 -8.333,-20.833c13.008,-6.276 26.034,-12.516 39.062,-18.75c3.706,-1.789 7.412,-3.577 11.23,-5.42c3.545,-1.692 7.09,-3.384 10.742,-5.127c3.273,-1.571 6.546,-3.142 9.918,-4.761c8.213,-3.442 8.213,-3.442 16.547,-3.442Z" style="fill:#444e34;fill-rule:nonzero;"/><path d="M1047.396,1269.026c0.521,13.281 0.521,13.281 -4.167,29.167c-12.916,9.354 -26.878,15.031 -41.667,20.833c-4.297,1.891 -8.594,3.781 -13.021,5.729c-16.563,3.601 -28.689,1.819 -45.312,-1.562c-1.375,-2.75 -2.75,-5.5 -4.167,-8.333l29.167,0c1.031,-2.578 2.062,-5.156 3.125,-7.812c6.206,-10.551 10.941,-12.217 21.875,-17.188c1.977,-2.062 3.953,-4.125 5.99,-6.25c14.022,-13.461 29.341,-15.66 48.177,-14.583Z" style="fill:#40472f;fill-rule:nonzero;"/><path d="M1234.896,373.192c20.312,7.812 20.312,7.812 25,12.5c2.75,-2.75 5.5,-5.5 8.333,-8.333l8.333,0c1.342,25.152 2.367,45.135 -12.5,66.667c-10.417,10.156 -10.417,10.156 -20.833,16.667c-4.125,-1.375 -8.25,-2.75 -12.5,-4.167c0.086,-3.266 0.172,-6.531 0.26,-9.896c0.518,-10.859 0.518,-10.859 -4.427,-19.271c4.125,-2.75 8.25,-5.5 12.5,-8.333c1.105,-17.403 1.329,-29.348 -4.167,-45.833Z" style="fill:#4d553d;fill-rule:nonzero;"/><path d="M101.562,756.526c9.107,14.929 10.214,28.56 11.458,45.833c0.408,5.07 0.816,10.141 1.237,15.365c-0.188,13.314 -0.682,19.871 -8.529,30.469c-4.125,1.375 -8.25,2.75 -12.5,4.167c-12.569,-20.916 -14.113,-36.305 -13.281,-59.896c0.056,-3.067 0.113,-6.134 0.171,-9.294c0.146,-7.494 0.37,-14.986 0.61,-22.477c12.5,-4.167 12.5,-4.167 20.833,-4.167Z" style="fill:#404731;fill-rule:nonzero;"/><path d="M301.563,681.526l120.833,0c-1.375,6.875 -2.75,13.75 -4.167,20.833c-3.469,-0.022 -6.937,-0.044 -10.511,-0.066c-12.882,-0.071 -25.765,-0.123 -38.647,-0.163c-8.313,-0.031 -16.625,-0.084 -24.938,-0.137c-5.223,-0.013 -10.447,-0.027 -15.828,-0.041c-4.822,-0.022 -9.644,-0.044 -14.613,-0.066c-12.404,-0.081 -12.404,-0.081 -24.629,4.64c-2.75,-5.5 -5.5,-11 -8.333,-16.667l20.833,0l0,-8.333Z" style="fill:#3e472d;fill-rule:nonzero;"/><path d="M309.896,523.192c4.125,1.375 8.25,2.75 12.5,4.167c3.32,9.212 3.32,9.212 4.167,20.833c-8.268,9.798 -8.268,9.798 -19.792,19.271c-3.76,3.147 -7.52,6.295 -11.393,9.538c-3.459,2.868 -6.918,5.736 -10.482,8.691c-2.256,2.438 -4.512,4.877 -6.836,7.389c-5.664,5.111 -5.664,5.111 -18.164,5.111c-2.75,8.25 -5.5,16.5 -8.333,25l-8.333,0c1.371,-32.211 16.423,-54.172 39.16,-76.465c9.019,-8.052 18.138,-15.895 27.507,-23.535Z" style="fill:#4a523a;fill-rule:nonzero;"/><path d="M197.396,714.859c26.235,14.181 26.235,14.181 33.333,29.167c-0.515,9.633 -1.829,18.779 -3.63,28.255c-0.645,11.102 2.829,16.176 7.796,25.911c-1.375,4.125 -2.75,8.25 -4.167,12.5c-8.594,2.865 -8.594,2.865 -16.667,4.167c-1.375,-2.75 -2.75,-5.5 -4.167,-8.333c-2.75,1.375 -5.5,2.75 -8.333,4.167c-9.562,-14.343 -8.734,-20.837 -6.217,-37.467c2.757,-11.245 7.831,-19.85 14.551,-29.199c-4.125,-1.375 -8.25,-2.75 -12.5,-4.167c-3.125,-8.073 -3.125,-8.073 -4.167,-16.667c1.375,-2.75 2.75,-5.5 4.167,-8.333Z" style="fill:#4c543c;fill-rule:nonzero;"/><path d="M72.396,660.692c2.75,1.375 5.5,2.75 8.333,4.167c-2.062,2.406 -4.125,4.812 -6.25,7.292c-7.791,9.808 -7.791,9.808 -6.25,26.042c2.75,1.375 5.5,2.75 8.333,4.167c-3.989,4.691 -7.983,9.378 -11.979,14.062c-2.224,2.61 -4.447,5.221 -6.738,7.91c-15.627,17.894 -24.722,17.446 -47.949,19.694c9.085,-36.34 33.772,-60.895 62.5,-83.333Z" style="fill:#4c553c;fill-rule:nonzero;"/><path d="M212.5,915.836c9.896,7.357 9.896,7.357 13.802,15.495c1.042,8.008 1.042,8.008 0.26,21.029c-28.367,-2.316 -46.432,-10.763 -68.49,-29.427c-6.51,-8.073 -6.51,-8.073 -6.51,-20.573c-2.75,-1.375 -5.5,-2.75 -8.333,-4.167c25.99,-8.354 46.533,5.186 69.271,17.643Z" style="fill:#444d37;fill-rule:nonzero;"/><path d="M730.729,1244.026l4.167,0c1.375,22 2.75,44 4.167,66.667c5.5,-1.375 11,-2.75 16.667,-4.167c5.436,-12.484 5.436,-12.484 8.333,-25c-2.75,-1.375 -5.5,-2.75 -8.333,-4.167c1.375,-6.875 2.75,-13.75 4.167,-20.833c1.719,1.891 3.438,3.781 5.208,5.729c7.559,7.019 14.595,10.907 23.958,15.104l0,20.833l-25,0c0.473,6.167 1.005,12.33 1.562,18.49c0.29,3.432 0.58,6.864 0.879,10.4c0.569,2.841 1.139,5.683 1.725,8.61c2.75,1.375 5.5,2.75 8.333,4.167c-12.587,4.196 -20.246,5.803 -33.333,4.167c-11.41,-11.993 -14.035,-20.164 -13.721,-36.523c0.04,-3.706 0.081,-7.412 0.122,-11.23c0.105,-3.835 0.209,-7.67 0.317,-11.621c0.085,-5.849 0.085,-5.849 0.171,-11.816c0.147,-9.605 0.352,-19.206 0.61,-28.809Z" style="fill:#475231;fill-rule:nonzero;"/><path d="M764.062,1231.526c3.978,9.04 4.767,14.847 1.66,24.268c-3.155,7.268 -6.561,14.425 -9.993,21.566c4.125,1.375 8.25,2.75 12.5,4.167c-2.75,11 -5.5,22 -8.333,33.333c-1.375,-2.75 -2.75,-5.5 -4.167,-8.333c-6.875,2.75 -13.75,5.5 -20.833,8.333c-0.562,-11.552 -0.975,-23.077 -1.302,-34.635c-0.175,-3.274 -0.349,-6.547 -0.529,-9.92c-0.196,-9.195 -0.145,-17.29 1.831,-26.278c10.104,-8.62 15.835,-12.5 29.167,-12.5Z" style="fill:#3c452b;fill-rule:nonzero;"/><path d="M1105.729,1227.359c2.75,2.75 5.5,5.5 8.333,8.333c-3.266,1.805 -6.531,3.609 -9.896,5.469c-11.842,6.582 -11.842,6.582 -19.271,19.531c2.75,5.5 5.5,11 8.333,16.667c-6.76,3.492 -13.534,6.96 -20.312,10.417c-3.771,1.934 -7.541,3.867 -11.426,5.859c-9.928,4.557 -9.928,4.557 -18.262,4.557c-4.688,-15.625 -4.688,-15.625 0,-25c-2.75,-2.75 -5.5,-5.5 -8.333,-8.333c23.375,-12.375 46.75,-24.75 70.833,-37.5Z" style="fill:#4c533c;fill-rule:nonzero;"/><path d="M1201.563,794.026c4.125,1.375 8.25,2.75 12.5,4.167l0,12.5l8.333,0c-1.535,26.602 -1.535,26.602 -14.323,39.062c-17.338,10.995 -27.548,11.32 -48.177,10.938c4.167,-4.167 8.333,-8.333 12.5,-12.5c1.375,-4.125 2.75,-8.25 4.167,-12.5c-2.75,-1.375 -5.5,-2.75 -8.333,-4.167c9.625,-4.125 19.25,-8.25 29.167,-12.5c-0.086,-3.352 -0.172,-6.703 -0.26,-10.156c0.26,-10.677 0.26,-10.677 4.427,-14.844Z" style="fill:#424a32;fill-rule:nonzero;"/><path d="M832.031,1336.734c2.942,0.109 5.884,0.219 8.915,0.332c21.185,1.285 21.185,1.285 31.368,9.239c1.402,1.998 2.804,3.996 4.248,6.055c-19.597,6.532 -39.37,5.107 -59.896,5.208c-4.34,0.086 -8.68,0.172 -13.151,0.26c-39.389,0.201 -39.389,0.201 -56.12,-13.802c28.269,-8.245 55.434,-8.722 84.635,-7.292Z" style="fill:#444d34;fill-rule:nonzero;"/><path d="M776.562,256.526l0,16.667c4.125,1.375 8.25,2.75 12.5,4.167c-20.723,7.322 -40.59,13.858 -62.5,16.667l0,-8.333l-8.333,0l0,-12.5c-2.75,-1.375 -5.5,-2.75 -8.333,-4.167c44.271,-19.965 44.271,-19.965 66.667,-12.5Z" style="fill:#414933;fill-rule:nonzero;"/><path d="M393.229,764.859c20.413,1.704 27.915,9.967 40.885,25.26c4.939,5.744 4.939,5.744 9.977,11.605c2.465,2.959 4.931,5.919 7.471,8.968c-2.75,6.875 -5.5,13.75 -8.333,20.833c-12.5,0 -12.5,0 -21.924,-9.294c-3.335,-4.066 -6.671,-8.132 -10.107,-12.321c-5.052,-6.018 -5.052,-6.018 -10.205,-12.158c-8.147,-12.656 -9.614,-18.226 -7.764,-32.894Z" style="fill:#485038;fill-rule:nonzero;"/><path d="M1064.063,1194.026c2.75,1.375 5.5,2.75 8.333,4.167c-6.801,28.176 -6.801,28.176 -17.269,34.945c-3.668,1.789 -7.337,3.577 -11.117,5.42c-5.454,2.731 -5.454,2.731 -11.019,5.518c-10.596,4.118 -10.596,4.118 -27.262,4.118l0,-25c9.529,-4.989 19.079,-9.929 28.646,-14.844c4.069,-2.139 4.069,-2.139 8.219,-4.321c7.032,-3.588 14.242,-6.822 21.468,-10.002Z" style="fill:#4c543b;fill-rule:nonzero;"/><path d="M367.399,491.047c3.024,0.983 6.048,1.966 9.163,2.979l0,16.667c-9.733,8.919 -9.733,8.919 -22.396,17.708c-4.157,2.943 -8.314,5.887 -12.598,8.919c-10.84,6.706 -10.84,6.706 -19.173,6.706c-1.375,-8.25 -2.75,-16.5 -4.167,-25c5.751,-5.024 11.583,-9.954 17.448,-14.844c4.858,-4.133 4.858,-4.133 9.814,-8.35c10.238,-5.973 10.238,-5.973 21.908,-4.785Z" style="fill:#404832;fill-rule:nonzero;"/><path d="M34.896,823.192c7.355,11.033 11.535,20.021 16.146,32.292c7.086,18.169 15.39,34.399 25.521,51.042c-24.479,-3.646 -24.479,-3.646 -29.167,-8.333c-2.75,4.125 -5.5,8.25 -8.333,12.5c-6.771,-11.198 -6.771,-11.198 -12.5,-25c3.646,-10.677 3.646,-10.677 8.333,-20.833c-1.221,-6.976 -2.612,-13.924 -4.167,-20.833c1.823,-11.719 1.823,-11.719 4.167,-20.833Z" style="fill:#4c533b;fill-rule:nonzero;"/><path d="M1339.063,473.192c19.723,10.114 19.723,10.114 24.349,20.052c0.926,12.958 -4.096,18.509 -11.589,28.906c-2.358,3.33 -4.716,6.66 -7.145,10.091c-1.853,2.514 -3.706,5.027 -5.615,7.617c-2.75,-5.5 -5.5,-11 -8.333,-16.667c-6.875,1.375 -13.75,2.75 -20.833,4.167c6.07,-12.366 12.551,-24.434 19.271,-36.458c1.858,-3.33 3.717,-6.66 5.632,-10.091c1.407,-2.514 2.814,-5.027 4.264,-7.617Z" style="fill:#484f36;fill-rule:nonzero;"/><path d="M1159.896,377.359c11.246,14.995 15.103,24.476 20.833,41.667c2.75,1.375 5.5,2.75 8.333,4.167c-8.333,12.5 -8.333,12.5 -20.833,16.667c-1.375,48.125 -2.75,96.25 -4.167,145.833l-4.167,0l0,-208.333Z" style="fill:#3a422c;fill-rule:nonzero;"/><path d="M547.396,331.526c1.375,11 2.75,22 4.167,33.333c-10.417,5.208 -10.417,5.208 -25,8.333c-11.977,-4.164 -22.549,-10.043 -33.333,-16.667c14.981,-12.584 34.109,-25 54.167,-25Z" style="fill:#495139;fill-rule:nonzero;"/><path d="M851.562,227.359c6.77,-0.112 13.541,-0.193 20.312,-0.26c3.771,-0.048 7.541,-0.097 11.426,-0.146c9.928,0.407 9.928,0.407 18.262,4.574c-1.375,4.125 -2.75,8.25 -4.167,12.5c2.75,2.75 5.5,5.5 8.333,8.333c-14.472,4.824 -26.503,4.453 -41.667,4.167l0,-4.167c-12.375,-2.062 -12.375,-2.062 -25,-4.167l0,-12.5l12.5,0l0,-8.333Zm25,4.167l16.667,4.167l-16.667,-4.167Z" style="fill:#3f4830;fill-rule:nonzero;"/><path d="M730.485,976.952c7.469,0.073 7.469,0.073 15.088,0.146c7.485,0.056 7.485,0.056 15.12,0.114c3.862,0.048 7.724,0.097 11.702,0.146c1.375,6.875 2.75,13.75 4.167,20.833l-58.333,0c-1.375,-5.5 -2.75,-11 -4.167,-16.667c4.167,-4.167 4.167,-4.167 16.423,-4.574Z" style="fill:#6a6f51;fill-rule:nonzero;"/><path d="M447.396,814.859c17.234,14.088 32.555,27.775 45.833,45.833c-2.664,0.516 -5.328,1.031 -8.073,1.562c-2.836,0.859 -5.672,1.719 -8.594,2.604c-1.375,2.75 -2.75,5.5 -4.167,8.333c-11,-11 -22,-22 -33.333,-33.333c2.75,-8.25 5.5,-16.5 8.333,-25Z" style="fill:#3f4630;fill-rule:nonzero;"/><path d="M918.229,1264.859c1.375,6.875 2.75,13.75 4.167,20.833c-18.593,7.526 -30.46,8.819 -50,4.167c-1.375,-6.875 -2.75,-13.75 -4.167,-20.833c33.482,-9.487 33.482,-9.487 50,-4.167Z" style="fill:#525942;fill-rule:nonzero;"/><path d="M1089.063,298.192c8.073,2.604 8.073,2.604 16.667,8.333c3.125,13.021 3.125,13.021 4.167,25l8.333,0c-2.75,6.875 -5.5,13.75 -8.333,20.833c-3.266,-2.148 -6.531,-4.297 -9.896,-6.51c-3.609,-1.977 -7.219,-3.953 -10.938,-5.99c-4.125,2.062 -4.125,2.062 -8.333,4.167c4.167,-30.952 4.167,-30.952 8.333,-45.833Z" style="fill:#4e533e;fill-rule:nonzero;"/><path d="M872.396,285.692c-2.75,2.75 -5.5,5.5 -8.333,8.333c5.5,4.125 11,8.25 16.667,12.5c-8.149,1.62 -16.311,3.169 -24.479,4.688c-4.544,0.87 -9.088,1.74 -13.77,2.637c-5.817,0.5 -5.817,0.5 -11.751,1.009c-8.911,-8.911 -10.111,-13.053 -12.5,-25c5.891,-1.523 11.797,-2.987 17.708,-4.427c3.287,-0.822 6.574,-1.644 9.961,-2.49c10.264,-1.478 16.731,-0.453 26.497,2.751Z" style="fill:#4b523b;fill-rule:nonzero;"/><path d="M176.562,977.359c13.75,2.75 27.5,5.5 41.667,8.333c-4.125,1.375 -8.25,2.75 -12.5,4.167c1.375,5.5 2.75,11 4.167,16.667c-12.5,8.333 -12.5,8.333 -25,7.031c-12.5,-2.865 -12.5,-2.865 -25,-7.031l0,-8.333c4.125,-2.75 8.25,-5.5 12.5,-8.333c1.375,-4.125 2.75,-8.25 4.167,-12.5Z" style="fill:#515a42;fill-rule:nonzero;"/><path d="M151.562,964.859c8.25,4.125 16.5,8.25 25,12.5l0,20.833c-17.546,5.264 -27.274,4.185 -43.229,-3.906c-5.07,-2.801 -10.118,-5.645 -15.104,-8.594c2.75,-2.75 5.5,-5.5 8.333,-8.333c13.021,1.562 13.021,1.562 25,4.167l0,-16.667Z" style="fill:#464e39;fill-rule:nonzero;"/><path d="M584.896,373.192c0.516,3.352 1.031,6.703 1.562,10.156c0.859,3.523 1.719,7.047 2.604,10.677c2.75,1.375 5.5,2.75 8.333,4.167c-22.96,8.132 -38.526,9.127 -62.5,4.167c-1.375,-2.75 -2.75,-5.5 -4.167,-8.333c7.456,-3.491 14.924,-6.959 22.396,-10.417c4.157,-1.934 8.314,-3.867 12.598,-5.859c10.84,-4.557 10.84,-4.557 19.173,-4.557Z" style="fill:#535a41;fill-rule:nonzero;"/><path d="M688.021,1033.349c4.995,0.636 4.995,0.636 10.091,1.286c2.514,0.349 5.027,0.698 7.617,1.058c-3.906,8.073 -3.906,8.073 -12.5,16.667c-15.342,3.765 -31.381,7.226 -45.833,0c1.375,-5.5 2.75,-11 4.167,-16.667c13.008,-4.028 23.003,-4.125 36.458,-2.344Z" style="fill:#424c2f;fill-rule:nonzero;"/><path d="M1247.396,206.526c22,1.375 44,2.75 66.667,4.167c1.375,4.125 2.75,8.25 4.167,12.5c-19.25,2.75 -38.5,5.5 -58.333,8.333c-1.375,-6.875 -2.75,-13.75 -4.167,-20.833c-2.75,-1.375 -5.5,-2.75 -8.333,-4.167Z" style="fill:#3d452d;fill-rule:nonzero;"/><path d="M668.229,960.692c4.125,2.75 8.25,5.5 12.5,8.333c-1.375,5.5 -2.75,11 -4.167,16.667c-23.958,0.521 -23.958,0.521 -33.333,-4.167l0,-12.5l-12.5,0l0,-8.333c14.724,-4.908 22.523,-3.432 37.5,0Z" style="fill:#454d38;fill-rule:nonzero;"/><path d="M993.229,1077.359l33.333,0l0,8.333l-8.333,0l0,8.333c-4.125,1.375 -8.25,2.75 -12.5,4.167c-2.489,11.511 -4.167,21.501 -4.167,33.333c-8.25,-6.875 -16.5,-13.75 -25,-20.833c4.125,-2.75 8.25,-5.5 12.5,-8.333c3.056,-12.773 3.056,-12.773 4.167,-25Z" style="fill:#4c5439;fill-rule:nonzero;"/><path d="M393.229,406.526c1.375,2.75 2.75,5.5 4.167,8.333c-3.906,8.854 -3.906,8.854 -8.333,16.667l-16.667,0c-1.375,5.5 -2.75,11 -4.167,16.667l8.333,0c-1.375,4.125 -2.75,8.25 -4.167,12.5l-8.333,0l0,-8.333c-5.5,-1.375 -11,-2.75 -16.667,-4.167c0.765,-7.487 0.765,-7.487 4.167,-16.667c9.521,-7.096 9.521,-7.096 21.094,-13.542c5.744,-3.255 5.744,-3.255 11.605,-6.576c2.959,-1.611 5.919,-3.223 8.968,-4.883Z" style="fill:#475035;fill-rule:nonzero;"/><path d="M672.396,281.526c1.375,11 2.75,22 4.167,33.333c-5.5,1.375 -11,2.75 -16.667,4.167c-2.75,-5.5 -5.5,-11 -8.333,-16.667c-5.5,1.375 -11,2.75 -16.667,4.167l0,-8.333c-2.75,-1.375 -5.5,-2.75 -8.333,-4.167c6.071,-2.099 12.149,-4.178 18.229,-6.25c3.384,-1.16 6.768,-2.32 10.254,-3.516c9.017,-2.734 9.017,-2.734 17.35,-2.734Z" style="fill:#4a5339;fill-rule:nonzero;"/><path d="M759.896,1256.526c1.719,1.891 3.438,3.781 5.208,5.729c7.559,7.019 14.595,10.907 23.958,15.104l0,20.833l-25,0l0,20.833l-4.167,0c-0.309,-13.927 -0.273,-24.182 4.167,-37.5c-2.75,-1.375 -5.5,-2.75 -8.333,-4.167c1.375,-6.875 2.75,-13.75 4.167,-20.833Z" style="fill:#4e563f;fill-rule:nonzero;"/><path d="M176.562,898.192c1.375,2.75 2.75,5.5 4.167,8.333l-8.333,0l0,8.333l12.5,0c1.375,4.125 2.75,8.25 4.167,12.5l-8.333,0l0,8.333c-14.074,-4.691 -19.64,-9.664 -29.167,-20.833l0,-12.5c-2.75,-1.375 -5.5,-2.75 -8.333,-4.167c12.588,-4.046 20.853,-4.734 33.333,0Z" style="fill:#3d462f;fill-rule:nonzero;"/><path d="M997.396,1289.859c-3.867,2.492 -7.734,4.984 -11.719,7.552c-12.82,7.915 -12.82,7.915 -19.141,16.146c-6.641,5.469 -6.641,5.469 -16.064,4.867c-3.335,-0.918 -6.671,-1.837 -10.107,-2.783c-3.368,-0.886 -6.735,-1.772 -10.205,-2.686c-2.562,-0.747 -5.124,-1.493 -7.764,-2.262c12.973,-6.778 26.149,-12.287 39.844,-17.448c3.958,-1.52 7.917,-3.04 11.995,-4.606c10.661,-2.946 10.661,-2.946 23.161,1.221Z" style="fill:#515842;fill-rule:nonzero;"/><path d="M114.062,823.192c9.338,9.338 11.795,11.966 12.5,25c-4.763,10.399 -10.509,19.463 -16.667,29.167c-9.366,-8.551 -12.509,-12.528 -16.667,-25c4.125,-2.75 8.25,-5.5 12.5,-8.333c5.019,-10.633 5.019,-10.633 8.333,-20.833Z" style="fill:#50583f;fill-rule:nonzero;"/><path d="M418.229,877.359c5.5,2.75 11,5.5 16.667,8.333c-4.125,1.375 -8.25,2.75 -12.5,4.167c1.375,3.008 2.75,6.016 4.167,9.115c4.192,11.789 4.874,20.173 4.167,32.552c-9.625,-8.25 -19.25,-16.5 -29.167,-25c4.167,-12.5 4.167,-12.5 12.5,-16.667c1.375,-4.125 2.75,-8.25 4.167,-12.5Z" style="fill:#515a44;fill-rule:nonzero;"/><path d="M859.896,1198.192c7.031,21.094 7.031,21.094 8.333,29.167c-2.75,2.75 -5.5,5.5 -8.333,8.333c-10.938,-1.562 -10.938,-1.562 -20.833,-4.167c-1.302,-9.635 -1.302,-9.635 0,-20.833c10.417,-7.552 10.417,-7.552 20.833,-12.5Z" style="fill:#4f563f;fill-rule:nonzero;"/><path d="M1039.063,1123.192c9.625,1.375 19.25,2.75 29.167,4.167c1.592,6.901 2.975,13.852 4.167,20.833c-4.167,4.167 -4.167,4.167 -11.865,4.574c-8.545,-0.136 -17.09,-0.271 -25.635,-0.407c2.75,-2.75 5.5,-5.5 8.333,-8.333c-1.335,-10.845 -1.335,-10.845 -4.167,-20.833Z" style="fill:#4b523e;fill-rule:nonzero;"/><path d="M901.562,1006.526l0,8.333c-4.125,1.375 -8.25,2.75 -12.5,4.167c-2.75,-2.75 -5.5,-5.5 -8.333,-8.333c12.5,-4.167 12.5,-4.167 20.833,-4.167Zm-16.667,12.5c3.18,1.977 6.359,3.953 9.635,5.99c11.048,6.932 11.048,6.932 23.698,10.677c-6.764,2.795 -13.536,5.569 -20.312,8.333c-5.656,2.32 -5.656,2.32 -11.426,4.688c-9.928,3.646 -9.928,3.646 -18.262,3.646l0,-8.333c2.75,-1.375 5.5,-2.75 8.333,-4.167c3.007,-6.848 5.806,-13.794 8.333,-20.833Z" style="fill:#515a42;fill-rule:nonzero;"/><path d="M739.062,1269.026l4.167,0l0,20.833c12.811,-3.235 12.811,-3.235 20.833,-12.5c0,13.636 -1.247,24.361 -4.167,37.5c-1.375,-2.75 -2.75,-5.5 -4.167,-8.333c-6.875,2.75 -13.75,5.5 -20.833,8.333c1.375,-15.125 2.75,-30.25 4.167,-45.833Z" style="fill:#434c2f;fill-rule:nonzero;"/><path d="M918.229,1256.526c9.625,1.375 19.25,2.75 29.167,4.167l0,16.667c-9.625,1.375 -19.25,2.75 -29.167,4.167c-4.688,-15.625 -4.688,-15.625 0,-25Z" style="fill:#414a33;fill-rule:nonzero;"/><path d="M1197.396,277.359c4.167,12.5 4.167,12.5 4.167,20.833l-8.333,0l0,125l-4.167,0c-0.206,-18.76 -0.357,-37.519 -0.458,-56.28c-0.042,-6.382 -0.099,-12.763 -0.171,-19.145c-0.101,-9.174 -0.148,-18.347 -0.185,-27.522c-0.043,-2.852 -0.086,-5.704 -0.13,-8.642c-0.004,-15.206 0.587,-21.21 9.277,-34.245Z" style="fill:#e6eadd;fill-rule:nonzero;"/><path d="M280.729,706.526c39.875,1.375 79.75,2.75 120.833,4.167l0,4.167c-4.478,0.124 -4.478,0.124 -9.047,0.25c-13.479,0.396 -26.955,0.853 -40.432,1.312c-7.05,0.193 -7.05,0.193 -14.242,0.391c-4.485,0.161 -8.97,0.322 -13.59,0.488c-4.146,0.131 -8.292,0.262 -12.563,0.397c-10.87,0.38 -10.87,0.38 -18.459,9.662c-6.25,-5.729 -6.25,-5.729 -12.5,-12.5l0,-8.333Z" style="fill:#bcc0b1;fill-rule:nonzero;"/><path d="M268.229,560.692l4.167,0c1.042,13.802 1.042,13.802 0,29.167c-8.073,6.771 -8.073,6.771 -16.667,12.5c-3.351,10.827 -3.351,10.827 -4.167,20.833l-8.333,0c1.576,-25.221 9.572,-42.433 25,-62.5Z" style="fill:#525a44;fill-rule:nonzero;"/><path d="M693.229,331.526c5.5,1.375 11,2.75 16.667,4.167c-2.75,6.875 -5.5,13.75 -8.333,20.833c-9.625,1.375 -19.25,2.75 -29.167,4.167l0,-16.667c2.664,-0.516 5.328,-1.031 8.073,-1.562c4.254,-1.289 4.254,-1.289 8.594,-2.604c1.375,-2.75 2.75,-5.5 4.167,-8.333Z" style="fill:#40492f;fill-rule:nonzero;"/><path d="M901.562,1006.526c5.5,2.75 11,5.5 16.667,8.333l0,8.333c6.875,-1.375 13.75,-2.75 20.833,-4.167c-7.841,10.019 -12.468,12.491 -25,15.885c-12.5,0.781 -12.5,0.781 -25,-7.552c1.375,-4.125 2.75,-8.25 4.167,-12.5l8.333,0l0,-8.333Z" style="fill:#40482f;fill-rule:nonzero;"/><path d="M393.229,764.859c19.792,3.125 19.792,3.125 29.167,12.5c-1.375,4.125 -2.75,8.25 -4.167,12.5c-4.125,-1.375 -8.25,-2.75 -12.5,-4.167l0,8.333c2.75,1.375 5.5,2.75 8.333,4.167l-12.5,0c-8.966,-13.45 -9.17,-17.85 -8.333,-33.333Z" style="fill:#515741;fill-rule:nonzero;"/><path d="M830.729,1339.859c31.282,-1.538 31.282,-1.538 41.667,6.25c2.062,3.094 2.062,3.094 4.167,6.25c-12.009,4.003 -19.577,4.608 -32.031,4.427c-5.052,-0.056 -5.052,-0.056 -10.205,-0.114c-3.843,-0.073 -3.843,-0.073 -7.764,-0.146c1.375,-5.5 2.75,-11 4.167,-16.667Z" style="fill:#3d442e;fill-rule:nonzero;"/><path d="M880.729,1014.859c4.125,2.062 4.125,2.062 8.333,4.167c-4.125,2.062 -4.125,2.062 -8.333,4.167l0,-8.333Zm0,8.333c-1.375,6.875 -2.75,13.75 -4.167,20.833c-9.625,1.375 -19.25,2.75 -29.167,4.167c-1.375,-2.75 -2.75,-5.5 -4.167,-8.333c28.125,-16.667 28.125,-16.667 37.5,-16.667Z" style="fill:#454f31;fill-rule:nonzero;"/><path d="M376.563,681.526l45.833,0c-2.75,5.5 -5.5,11 -8.333,16.667l-37.5,0l0,-16.667Z" style="fill:#363f27;fill-rule:nonzero;"/><path d="M1118.229,285.692c8.333,8.333 8.333,8.333 9.147,16.439c-0.271,8.409 -0.543,16.819 -0.814,25.228c-5.5,1.375 -11,2.75 -16.667,4.167c-1.19,-30.952 -1.19,-30.952 8.333,-45.833Z" style="fill:#585f47;fill-rule:nonzero;"/><path d="M1105.729,794.026c0.602,2.492 1.203,4.984 1.823,7.552c1.874,7.288 4.131,14.476 6.51,21.615c-10.741,11.031 -20.485,20.601 -33.333,29.167c6.215,-20.718 15.019,-39.244 25,-58.333Z" style="fill:#545a46;fill-rule:nonzero;"/><path d="M564.062,498.192c-5.208,6.25 -5.208,6.25 -12.5,12.5l-16.667,0c5.5,2.75 11,5.5 16.667,8.333c-5.986,0.339 -11.977,0.581 -17.969,0.781c-5.003,0.218 -5.003,0.218 -10.107,0.439c-11.418,-1.479 -14.806,-4.944 -21.924,-13.721c6.505,-1.415 13.017,-2.797 19.531,-4.167c3.625,-0.773 7.251,-1.547 10.986,-2.344c10.887,-1.78 20.975,-2.14 31.982,-1.823Z" style="fill:#4b513e;fill-rule:nonzero;"/><path d="M1304.948,193.765c4.839,0.038 9.679,0.075 14.665,0.114c3.668,0.048 7.337,0.097 11.117,0.146l0,4.167c-2.959,0.204 -5.919,0.408 -8.968,0.618c-5.744,0.467 -5.744,0.467 -11.605,0.944c-3.819,0.29 -7.638,0.58 -11.572,0.879c-4.713,0.854 -4.713,0.854 -9.521,1.725c-1.375,2.75 -2.75,5.5 -4.167,8.333c-12.375,-1.375 -24.75,-2.75 -37.5,-4.167c15.714,-15.714 36.385,-12.974 57.552,-12.76Z" style="fill:#5c624e;fill-rule:nonzero;"/><path d="M730.729,1244.026l4.167,0c1.375,28.875 2.75,57.75 4.167,87.5c6.875,1.375 13.75,2.75 20.833,4.167c-8.25,4.125 -8.25,4.125 -16.667,8.333c-10.887,-12.507 -14.039,-19.984 -13.721,-36.523c0.04,-3.706 0.081,-7.412 0.122,-11.23c0.105,-3.835 0.209,-7.67 0.317,-11.621c0.085,-5.849 0.085,-5.849 0.171,-11.816c0.147,-9.605 0.352,-19.206 0.61,-28.809Z" style="fill:#676d5a;fill-rule:nonzero;"/><path d="M997.396,944.026c1.375,4.125 2.75,8.25 4.167,12.5c-4.125,1.375 -8.25,2.75 -12.5,4.167l0,12.5l8.333,0l0,12.5c-4.125,1.375 -8.25,2.75 -12.5,4.167c-5.479,-9.025 -8.459,-14.588 -7.812,-25.26c4.688,-10.38 10.866,-14.478 20.312,-20.573Z" style="fill:#4f573f;fill-rule:nonzero;"/><path d="M130.729,956.526c10.312,4.125 10.312,4.125 20.833,8.333l0,16.667l-33.333,0c1.375,-5.5 2.75,-11 4.167,-16.667l8.333,0l0,-8.333Z" style="fill:#39422c;fill-rule:nonzero;"/><path d="M1189.063,731.526c5.149,15.447 2.603,25.759 0,41.667l0,8.333l8.333,0l0,12.5c-12.5,-4.167 -12.5,-4.167 -20.833,-16.667c-2.113,-19.438 1.285,-29.946 12.5,-45.833Z" style="fill:#555a47;fill-rule:nonzero;"/><path d="M1001.563,94.026l8.333,0l0,41.667l-8.333,0c-8.966,-13.45 -9.17,-17.85 -8.333,-33.333l8.333,0l0,-8.333Z" style="fill:#3f472f;fill-rule:nonzero;"/><path d="M780.729,581.526c5.5,2.75 11,5.5 16.667,8.333l0,8.333c-8.25,4.125 -8.25,4.125 -16.667,8.333c2.75,1.375 5.5,2.75 8.333,4.167c-9.896,4.427 -9.896,4.427 -20.833,8.333c-2.75,-1.375 -5.5,-2.75 -8.333,-4.167c4.167,-12.5 4.167,-12.5 16.667,-20.833c1.375,-4.125 2.75,-8.25 4.167,-12.5Z" style="fill:#3c442c;fill-rule:nonzero;"/><path d="M1355.729,419.026c4.125,2.75 8.25,5.5 12.5,8.333c1.302,12.5 1.302,12.5 0,25c-8.333,8.333 -8.333,8.333 -25,16.667c4.125,-16.5 8.25,-33 12.5,-50Z" style="fill:#4c533e;fill-rule:nonzero;"/><path d="M1139.063,139.859c15.125,1.375 30.25,2.75 45.833,4.167l0,4.167c-2.465,0.505 -4.931,1.01 -7.471,1.53c-17.688,3.751 -34.298,7.656 -50.863,15.137c4.125,-8.25 8.25,-16.5 12.5,-25Z" style="fill:#535948;fill-rule:nonzero;"/><path d="M768.229,1319.026c12.375,4.125 24.75,8.25 37.5,12.5c-2.75,2.75 -5.5,5.5 -8.333,8.333c-15.104,-1.562 -15.104,-1.562 -29.167,-4.167l0,-16.667Z" style="fill:#535b42;fill-rule:nonzero;"/><path d="M343.229,589.859c1.375,2.75 2.75,5.5 4.167,8.333c2.75,1.375 5.5,2.75 8.333,4.167l-8.333,0c-2.75,5.5 -5.5,11 -8.333,16.667l-8.333,0c-1.375,4.125 -2.75,8.25 -4.167,12.5l-8.333,0c5.707,-16.646 13.572,-28.334 25,-41.667Z" style="fill:#4e5541;fill-rule:nonzero;"/><path d="M1089.063,298.192c4.125,1.375 8.25,2.75 12.5,4.167c-2.35,16.452 -7.263,27.953 -16.667,41.667l-4.167,0c4.167,-30.952 4.167,-30.952 8.333,-45.833Z" style="fill:#dbe1d0;fill-rule:nonzero;"/><path d="M701.562,1048.192l0,8.333c2.75,1.375 5.5,2.75 8.333,4.167c-5.893,0.932 -11.799,1.784 -17.708,2.604c-3.287,0.483 -6.574,0.967 -9.961,1.465c-11.17,0.111 -17.026,-2.544 -26.497,-8.236c6.074,-1.4 12.151,-2.786 18.229,-4.167c5.076,-1.16 5.076,-1.16 10.254,-2.344c9.017,-1.823 9.017,-1.823 17.35,-1.823Z" style="fill:#5c644d;fill-rule:nonzero;"/><path d="M497.396,969.026l16.667,0c1.375,5.5 2.75,11 4.167,16.667c-4.125,2.75 -8.25,5.5 -12.5,8.333c-8.512,-1.921 -8.512,-1.921 -17.448,-5.729c-4.471,-1.853 -4.471,-1.853 -9.033,-3.743c-2.261,-0.999 -4.522,-1.998 -6.852,-3.027l0,-4.167l20.833,0c1.375,-2.75 2.75,-5.5 4.167,-8.333Z" style="fill:#4f5941;fill-rule:nonzero;"/><path d="M264.063,498.192l0,20.833l-8.333,0c-1.375,2.75 -2.75,5.5 -4.167,8.333c-8.245,3.029 -16.581,5.826 -25,8.333c3.989,-4.691 7.983,-9.378 11.979,-14.062c2.224,-2.61 4.447,-5.221 6.738,-7.91c13.56,-15.527 13.56,-15.527 18.783,-15.527Z" style="fill:#565c48;fill-rule:nonzero;"/><path d="M1339.063,473.192c4.125,2.75 8.25,5.5 12.5,8.333c-6.154,19.487 -6.154,19.487 -17.188,26.302c-3.867,1.418 -3.867,1.418 -7.812,2.865c-1.375,-2.75 -2.75,-5.5 -4.167,-8.333c3.239,-7.194 3.239,-7.194 8.073,-15.104c2.836,-4.641 5.672,-9.281 8.594,-14.062Z" style="fill:#4e553d;fill-rule:nonzero;"/><path d="M1051.563,427.359c1.375,5.5 2.75,11 4.167,16.667c-14.264,13.123 -26.844,14.841 -45.833,16.667c13.889,-11.111 27.778,-22.222 41.667,-33.333Z" style="fill:#4e5640;fill-rule:nonzero;"/><path d="M664.062,581.526l37.5,0c-9.065,9.065 -14.832,11.328 -26.823,15.365c-4.89,1.7 -4.89,1.7 -9.88,3.434c-9.131,2.035 -9.131,2.035 -21.631,-2.132c6.875,-2.75 13.75,-5.5 20.833,-8.333l0,-8.333Z" style="fill:#3d442e;fill-rule:nonzero;"/><path d="M880.729,1014.859l0,8.333c-23.438,12.5 -23.438,12.5 -37.5,12.5c-9.115,-4.167 -9.115,-4.167 -16.667,-8.333c7.462,-2.096 14.928,-4.177 22.396,-6.25c4.157,-1.16 8.314,-2.32 12.598,-3.516c10.84,-2.734 10.84,-2.734 19.173,-2.734Z" style="fill:#5d6351;fill-rule:nonzero;"/><path d="M34.896,823.192c10.243,15.364 12.552,27.904 16.667,45.833c-4.125,2.062 -4.125,2.062 -8.333,4.167l0,-8.333l-8.333,0c-3.959,-15.398 -3.959,-26.269 0,-41.667Z" style="fill:#555c47;fill-rule:nonzero;"/><path d="M1218.229,777.359c8.333,8.333 8.333,8.333 9.147,17.35c-0.097,3.384 -0.193,6.768 -0.293,10.254c-0.075,3.405 -0.15,6.811 -0.228,10.319c-0.145,3.916 -0.145,3.916 -0.293,7.91c-1.375,-4.125 -2.75,-8.25 -4.167,-12.5l-8.333,0l0,-12.5c-2.75,-1.375 -5.5,-2.75 -8.333,-4.167c4.125,-5.5 8.25,-11 12.5,-16.667Z" style="fill:#575d48;fill-rule:nonzero;"/><path d="M993.229,64.859l0,8.333c-3.738,0.387 -3.738,0.387 -7.552,0.781c-12.716,4.723 -15.352,12.589 -21.615,24.219l-4.167,0c-1.503,-18.539 -1.503,-18.539 4.948,-28.385c9.885,-6.476 16.804,-5.887 28.385,-4.948Z" style="fill:#535a47;fill-rule:nonzero;"/><path d="M1059.896,1102.359l0,8.333l-8.333,0l0,12.5c-8.25,-2.75 -16.5,-5.5 -25,-8.333l0,-8.333c12.051,-3.443 20.364,-4.167 33.333,-4.167Z" style="fill:#e2e6d9;fill-rule:nonzero;"/><path d="M434.896,802.359c5.5,2.75 11,5.5 16.667,8.333c-2.75,6.875 -5.5,13.75 -8.333,20.833l-12.5,0c-1.375,-4.125 -2.75,-8.25 -4.167,-12.5l12.5,0c-1.375,-5.5 -2.75,-11 -4.167,-16.667Z" style="fill:#4d5440;fill-rule:nonzero;"/><path d="M393.229,406.526c1.375,2.75 2.75,5.5 4.167,8.333c-3.906,8.854 -3.906,8.854 -8.333,16.667l-20.833,0c-1.375,-2.75 -2.75,-5.5 -4.167,-8.333c9.625,-5.5 19.25,-11 29.167,-16.667Z" style="fill:#4e563e;fill-rule:nonzero;"/><path d="M618.229,302.359c-1.375,4.125 -2.75,8.25 -4.167,12.5c-4.039,0.516 -8.078,1.031 -12.24,1.562c-4.211,0.859 -8.422,1.719 -12.76,2.604c-1.375,2.75 -2.75,5.5 -4.167,8.333c-5.5,-2.75 -11,-5.5 -16.667,-8.333c5.976,-2.806 11.969,-5.577 17.969,-8.333c3.335,-1.547 6.671,-3.094 10.107,-4.688c9.424,-3.646 9.424,-3.646 21.924,-3.646Z" style="fill:#545a48;fill-rule:nonzero;"/><path d="M1009.896,135.692c-2.28,14.061 -4.395,21.176 -12.5,33.333c-2.75,-9.625 -5.5,-19.25 -8.333,-29.167c8.333,-4.167 8.333,-4.167 20.833,-4.167Z" style="fill:#4e5540;fill-rule:nonzero;"/><path d="M634.896,1031.526c4.125,1.375 8.25,2.75 12.5,4.167l0,16.667c2.75,1.375 5.5,2.75 8.333,4.167c-9.625,-1.375 -19.25,-2.75 -29.167,-4.167c2.75,-6.875 5.5,-13.75 8.333,-20.833Z" style="fill:#505942;fill-rule:nonzero;"/><path d="M497.396,364.859c9.625,1.375 19.25,2.75 29.167,4.167c-5.208,6.51 -5.208,6.51 -12.5,12.5c-9.115,-1.302 -9.115,-1.302 -16.667,-4.167l0,-12.5Z" style="fill:#3c472e;fill-rule:nonzero;"/><path d="M709.896,269.026c-2.865,8.073 -2.865,8.073 -8.333,16.667c-10.938,3.125 -10.938,3.125 -20.833,4.167c-1.375,-4.125 -2.75,-8.25 -4.167,-12.5c23.958,-8.333 23.958,-8.333 33.333,-8.333Z" style="fill:#505943;fill-rule:nonzero;"/><path d="M272.396,673.192c15.125,1.375 30.25,2.75 45.833,4.167c-5.5,1.375 -11,2.75 -16.667,4.167l0,8.333l-8.333,0l0,-8.333c-8.25,2.75 -16.5,5.5 -25,8.333c1.375,-5.5 2.75,-11 4.167,-16.667Z" style="fill:#545b41;fill-rule:nonzero;"/><path d="M1264.063,406.526c4.125,1.375 8.25,2.75 12.5,4.167c-2.75,9.625 -5.5,19.25 -8.333,29.167c-1.375,-2.75 -2.75,-5.5 -4.167,-8.333l-8.333,0c2.75,-8.25 5.5,-16.5 8.333,-25Z" style="fill:#555a46;fill-rule:nonzero;"/><path d="M1126.563,1152.359c6.875,1.375 13.75,2.75 20.833,4.167c-2.75,5.5 -5.5,11 -8.333,16.667c-5.5,-2.75 -11,-5.5 -16.667,-8.333c1.375,-4.125 2.75,-8.25 4.167,-12.5Z" style="fill:#3b422a;fill-rule:nonzero;"/><path d="M505.729,964.859c-2.75,5.5 -5.5,11 -8.333,16.667c-9.625,-2.75 -19.25,-5.5 -29.167,-8.333c2.75,-1.375 5.5,-2.75 8.333,-4.167c2.75,1.375 5.5,2.75 8.333,4.167l0,-8.333c8.333,-4.167 8.333,-4.167 20.833,0Z" style="fill:#3a442a;fill-rule:nonzero;"/><path d="M626.562,356.526c5.5,2.75 11,5.5 16.667,8.333l0,12.5c-6.875,-1.375 -13.75,-2.75 -20.833,-4.167c1.375,-5.5 2.75,-11 4.167,-16.667Z" style="fill:#394129;fill-rule:nonzero;"/><path d="M1359.896,210.692c-7.292,8.594 -7.292,8.594 -16.667,16.667c-9.375,-1.042 -9.375,-1.042 -16.667,-4.167c17.125,-17.903 17.125,-17.903 33.333,-12.5Z" style="fill:#3a432c;fill-rule:nonzero;"/><path d="M301.563,748.192c4.125,4.125 8.25,8.25 12.5,12.5c-5.5,5.5 -11,11 -16.667,16.667c-2.604,-7.552 -2.604,-7.552 -4.167,-16.667c2.75,-4.125 5.5,-8.25 8.333,-12.5Z" style="fill:#384129;fill-rule:nonzero;"/><path d="M518.229,339.859c2.75,1.375 5.5,2.75 8.333,4.167c-7.292,8.594 -7.292,8.594 -16.667,16.667c-9.375,-1.042 -9.375,-1.042 -16.667,-4.167c8.183,-6.273 15.761,-12.047 25,-16.667Z" style="fill:#5d6550;fill-rule:nonzero;"/><path d="M664.062,289.859c-9.059,10.418 -15.544,14.318 -29.167,16.667l0,-8.333c-2.75,-1.375 -5.5,-2.75 -8.333,-4.167c28.125,-8.854 28.125,-8.854 37.5,-4.167Z" style="fill:#545c48;fill-rule:nonzero;"/><path d="M768.229,989.859c-1.375,2.75 -2.75,5.5 -4.167,8.333c-14.062,0.521 -14.062,0.521 -29.167,0c-2.75,-2.75 -5.5,-5.5 -8.333,-8.333c15.398,-3.959 26.269,-3.959 41.667,0Z" style="fill:#606549;fill-rule:nonzero;"/><path d="M301.563,960.692l0,8.333l25,0l0,4.167c-20.139,0.347 -38.487,-0.197 -58.333,-4.167l0,-4.167c23.958,-4.167 23.958,-4.167 33.333,-4.167Z" style="fill:#7d8271;fill-rule:nonzero;"/><path d="M951.562,506.526c-2.75,5.5 -5.5,11 -8.333,16.667l-16.667,0c1.562,-8.073 1.562,-8.073 4.167,-16.667c8.333,-4.167 8.333,-4.167 20.833,0Z" style="fill:#3d442f;fill-rule:nonzero;"/><path d="M405.729,469.026c5.5,1.375 11,2.75 16.667,4.167c-1.375,4.125 -2.75,8.25 -4.167,12.5c-4.125,1.375 -8.25,2.75 -12.5,4.167c-2.75,-2.75 -5.5,-5.5 -8.333,-8.333c2.75,-4.125 5.5,-8.25 8.333,-12.5Z" style="fill:#465036;fill-rule:nonzero;"/><path d="M1226.563,302.359l4.167,0c1.716,15.012 0.64,19.933 -8.333,32.552c-2.75,3.008 -5.5,6.016 -8.333,9.115c3.125,-27.604 3.125,-27.604 12.5,-41.667Z" style="fill:#545949;fill-rule:nonzero;"/><path d="M1339.063,281.526c6.875,4.125 13.75,8.25 20.833,12.5c-5.5,5.5 -11,11 -16.667,16.667c-2.75,-1.375 -5.5,-2.75 -8.333,-4.167c4.167,-8.333 4.167,-8.333 8.333,-12.5c-1.375,-4.125 -2.75,-8.25 -4.167,-12.5Z" style="fill:#545a44;fill-rule:nonzero;"/><path d="M1255.729,273.192c2.75,1.375 5.5,2.75 8.333,4.167c-14.359,20 -14.359,20 -26.042,24.219c-3.609,0.387 -3.609,0.387 -7.292,0.781c5.806,-14.03 12.412,-20.775 25,-29.167Z" style="fill:#525844;fill-rule:nonzero;"/><path d="M984.896,1102.359c6.875,6.875 13.75,13.75 20.833,20.833c-2.75,2.75 -5.5,5.5 -8.333,8.333c-6.875,-8.25 -13.75,-16.5 -20.833,-25c2.75,-1.375 5.5,-2.75 8.333,-4.167Z" style="fill:#565d4a;fill-rule:nonzero;"/><path d="M718.229,977.359c8.25,2.062 8.25,2.062 16.667,4.167l-8.333,0l0,12.5c2.75,1.375 5.5,2.75 8.333,4.167c-6.875,-1.375 -13.75,-2.75 -20.833,-4.167c1.375,-5.5 2.75,-11 4.167,-16.667Z" style="fill:#7e816c;fill-rule:nonzero;"/><path d="M1259.896,656.526c2.75,1.375 5.5,2.75 8.333,4.167c-9.635,10.417 -9.635,10.417 -20.833,20.833l-12.5,0c8.25,-8.25 16.5,-16.5 25,-25Z" style="fill:#525a47;fill-rule:nonzero;"/><path d="M780.729,581.526c-1.375,5.5 -2.75,11 -4.167,16.667c-6.875,1.375 -13.75,2.75 -20.833,4.167c2.75,-2.75 5.5,-5.5 8.333,-8.333c-1.375,-2.75 -2.75,-5.5 -4.167,-8.333c12.5,-4.167 12.5,-4.167 20.833,-4.167Z" style="fill:#484f39;fill-rule:nonzero;"/><path d="M718.229,323.192c10.312,2.062 10.312,2.062 20.833,4.167c-1.375,5.5 -2.75,11 -4.167,16.667l-12.5,0c-1.375,-6.875 -2.75,-13.75 -4.167,-20.833Z" style="fill:#454e34;fill-rule:nonzero;"/><path d="M1264.063,294.026l0,8.333c-11,2.75 -22,5.5 -33.333,8.333l0,-8.333c18.291,-13.347 18.291,-13.347 33.333,-8.333Z" style="fill:#3a4329;fill-rule:nonzero;"/><path d="M826.562,244.026c-9.832,8.74 -14.776,12.371 -28.125,13.281c-4.641,-0.387 -4.641,-0.387 -9.375,-0.781c12.172,-13.331 19.273,-18.576 37.5,-12.5Z" style="fill:#434b33;fill-rule:nonzero;"/></svg>