<?xml version="1.0" encoding="UTF-8" standalone="no"?><!DOCTYPE svg PUBLIC "-//W3C//DTD SVG 1.1//EN" "http://www.w3.org/Graphics/SVG/1.1/DTD/svg11.dtd"><svg width="100%" height="100%" viewBox="0 0 1391 1396" version="1.1" xmlns="http://www.w3.org/2000/svg" xmlns:xlink="http://www.w3.org/1999/xlink" xml:space="preserve" xmlns:serif="http://www.serif.com/" style="fill-rule:evenodd;clip-rule:evenodd;stroke-linejoin:round;stroke-miterlimit:2;"><path d="M1134.954,155.715c17.497,14.429 33.778,29.988 50,45.833c5.229,4.842 5.229,4.842 10.563,9.782c84.604,80.314 148.014,193.038 172.77,306.885c2.156,8.25 4.326,16.497 6.51,24.74c12.06,49.02 16.019,97.108 15.885,147.396c-0.001,3.08 -0.002,6.16 -0.003,9.333c-0.225,79.249 -10.579,156.69 -39.06,231.032c-1.908,4.998 -1.908,4.998 -3.855,10.097c-69.531,178.492 -203.841,318.207 -378.436,396.934c-165.114,70.992 -351.393,77.446 -519.417,13.33c-29.575,-11.859 -57.852,-25.918 -85.791,-41.195c-4.447,-2.401 -8.895,-4.802 -13.477,-7.275c-128.557,-72.105 -226.846,-184.702 -289.909,-316.683c-1.504,-3.148 -3.008,-6.296 -4.558,-9.54c-18.613,-39.994 -31.779,-80.1 -40.754,-123.273c-1.325,-6.075 -1.325,-6.075 -2.677,-12.272c-7.721,-36.245 -11.738,-71.712 -12.118,-108.757c-0.041,-3.319 -0.082,-6.637 -0.124,-10.056c-1.343,-137.338 -1.343,-137.338 17.783,-203.811c0.826,-3.051 1.653,-6.103 2.504,-9.247c28.718,-103.974 83.003,-199.149 155.829,-278.253c2.416,-2.627 4.833,-5.254 7.322,-7.961c56.12,-60.207 119.535,-108.345 192.678,-146.206c2.72,-1.411 5.441,-2.823 8.244,-4.277c243.95,-124.97 536.848,-81.953 750.09,83.443Z" style="fill:#f6f8f4;fill-rule:nonzero;"/><path d="M709.954,126.548c35.785,0 63.568,0.301 97.135,8.333c5.297,1.192 5.297,1.192 10.701,2.409c8.511,1.923 17.005,3.916 25.496,5.924c-2.75,9.625 -5.5,19.25 -8.333,29.167c-31.978,-3.916 -63.902,-8.223 -95.833,-12.5c-1.375,28.875 -2.75,57.75 -4.167,87.5c13.75,1.375 27.5,2.75 41.667,4.167c37.087,7.971 73.028,19.534 108.333,33.333c0.765,-4.501 0.765,-4.501 1.545,-9.093c2.636,-11.807 6.406,-21.838 11.231,-32.915c1.678,-3.881 3.357,-7.761 5.086,-11.759c1.754,-3.999 3.507,-7.998 5.314,-12.118c2.655,-6.119 2.655,-6.119 5.363,-12.362c4.357,-10.037 8.733,-20.065 13.127,-30.086c13.585,2.289 24.444,5.25 36.426,12.044c2.809,1.584 5.618,3.169 8.512,4.801c2.874,1.66 5.747,3.319 8.708,5.029c4.262,2.393 4.262,2.393 8.61,4.834c19.04,10.844 36.767,22.8 54.411,35.791c-3.125,10.156 -3.125,10.156 -8.333,20.833c-7.373,3.597 -7.373,3.597 -16.667,4.167c-10.01,-5.534 -10.01,-5.534 -20.573,-13.542c-24.74,-20.455 -24.74,-20.455 -54.427,-28.125c-5.706,10.038 -11.335,20.107 -16.927,30.208c-1.625,2.841 -3.25,5.683 -4.924,8.61c-1.517,2.766 -3.035,5.532 -4.598,8.382c-1.418,2.531 -2.837,5.062 -4.298,7.67c-3.301,9.737 -2.116,14.806 1.58,24.296c8.17,6.31 8.17,6.31 18.49,11.458c28.433,16.09 54.784,35.373 76.823,59.635c7.762,8.955 7.762,8.955 16.195,7.861c13.733,-5.824 23.43,-15.659 34.066,-25.83c2.135,-1.993 4.27,-3.985 6.47,-6.038c10.392,-9.745 20.196,-19.482 29.744,-30.094c9.88,-8.659 9.88,-8.659 18.538,-8.87c32.395,17.712 57.058,60.674 74.674,91.878l0,12.5c-12.375,4.125 -12.375,4.125 -25,8.333c-16.5,-22 -33,-44 -50,-66.667c-18.575,7.43 -26.372,12.171 -40.365,25.26c-17.284,16.064 -17.284,16.064 -26.302,20.573c2.497,17.032 11.605,27.985 21.615,41.667c20.348,28.433 38.108,58.334 49.219,91.667c15.447,-4.833 30.419,-10.436 45.378,-16.585c3.642,-1.496 7.283,-2.992 11.035,-4.533c7.603,-3.139 15.199,-6.297 22.786,-9.473c3.62,-1.48 7.24,-2.959 10.97,-4.484c3.288,-1.365 6.577,-2.731 9.965,-4.137c8.199,-2.455 8.199,-2.455 16.532,1.712c3.919,9.283 7.288,18.313 10.417,27.865c0.916,2.769 1.833,5.539 2.777,8.392c8.732,27.617 14.167,55.603 15.973,84.576c-4.167,4.167 -4.167,4.167 -16.927,4.427c-4.039,-0.086 -8.078,-0.172 -12.24,-0.26c-2.697,-10.676 -5.387,-21.353 -8.073,-32.031c-0.76,-3.005 -1.52,-6.01 -2.303,-9.106c-0.739,-2.941 -1.477,-5.881 -2.238,-8.911c-1.015,-4.026 -1.015,-4.026 -2.05,-8.133c-2.294,-9.72 -4.211,-19.525 -6.17,-29.318c-27.5,8.25 -55,16.5 -83.333,25c4.125,19.723 4.125,19.723 8.333,39.844c7.511,37.625 9.881,71.862 8.333,110.156l120.833,0c-2.541,33.028 -5.195,64.688 -10.677,97.135c-0.577,3.531 -1.155,7.063 -1.75,10.701c-1.393,8.502 -2.813,17 -4.24,25.496c-9.625,-2.75 -19.25,-5.5 -29.167,-8.333c2.417,-32.31 6.768,-63.948 12.5,-95.833c-4.173,0.048 -8.347,0.097 -12.646,0.146c-5.594,0.039 -11.187,0.077 -16.781,0.114c-8.194,0.073 -8.194,0.073 -16.553,0.146c-15.755,-0.388 -30.184,-2.013 -45.687,-4.574c-0.011,3.04 -0.021,6.08 -0.033,9.212c-1.265,34.168 -8.796,62.578 -20.453,94.562c-1.108,3.057 -2.217,6.114 -3.359,9.263c-1.021,2.71 -2.042,5.42 -3.093,8.212c-2.982,9.22 -2.982,9.22 -2.229,24.584c15.013,6.868 30.032,13.722 45.052,20.573c4.267,1.952 8.535,3.905 12.931,5.916c4.095,1.866 8.191,3.733 12.41,5.656c3.775,1.724 7.55,3.448 11.439,5.224c10.149,4.612 10.149,4.612 22.334,8.465c-6.433,23.639 -18.175,42.681 -30.99,63.281c-2.044,3.36 -4.087,6.719 -6.193,10.181c-8.904,14.455 -17.017,27.382 -29.484,39.038c-6.875,-2.75 -13.75,-5.5 -20.833,-8.333c2.271,-18.986 10.53,-32.525 20.833,-48.177c13.666,-20.314 13.666,-20.314 20.833,-43.49c-3.534,-1.063 -7.068,-2.127 -10.71,-3.223c-15.28,-5.465 -28.731,-12.387 -42.936,-20.215c-4.802,-2.632 -9.604,-5.264 -14.551,-7.975c-3.62,-2.009 -7.24,-4.018 -10.97,-6.087c-1.074,3.679 -2.148,7.358 -3.255,11.149c-14.996,40.904 -50.571,74.257 -80.078,105.518c5.977,13.656 13.364,22.697 23.877,33.203c3,3.067 6,6.134 9.09,9.294c6.345,6.416 12.714,12.806 19.108,19.173c2.984,3.067 5.967,6.134 9.041,9.294c2.762,2.774 5.523,5.548 8.369,8.407c5.515,8.13 5.515,8.13 5.049,16.814c-6.415,13.837 -19.124,21.693 -31.045,30.639c-2.644,2.024 -5.289,4.048 -8.013,6.133c-49.97,37.877 -49.97,37.877 -68.81,37.877c-2.75,-8.25 -5.5,-16.5 -8.333,-25c9.46,-6.773 18.922,-13.544 28.385,-20.312c2.677,-1.917 5.355,-3.835 8.114,-5.811c3.887,-2.78 3.887,-2.78 7.853,-5.615c2.378,-1.702 4.757,-3.404 7.207,-5.157c6.352,-4.474 12.81,-8.795 19.274,-13.104c-7.272,-16.884 -18.428,-30.442 -29.688,-44.792c-1.95,-2.508 -3.899,-5.017 -5.908,-7.601c-4.789,-6.157 -9.595,-12.3 -14.404,-18.441c-12.555,5.84 -23.046,12.807 -34.115,21.094c-29.806,21.246 -62.537,37.272 -95.052,53.906c2.58,14.672 6.428,27.857 11.865,41.715c1.49,3.843 2.981,7.686 4.517,11.646c1.555,3.961 3.11,7.922 4.712,12.004c3.1,7.911 6.187,15.826 9.261,23.747c1.37,3.49 2.74,6.979 4.151,10.574c2.994,8.648 2.994,8.648 2.994,16.981c-84.939,30.032 -84.939,30.032 -129.167,29.167l0,-29.167c10.67,-2.809 21.347,-5.581 32.031,-8.333c3.005,-0.795 6.01,-1.59 9.106,-2.409c15.814,-4.044 29.888,-6.964 46.362,-5.924c-2.594,-9.899 -5.2,-19.794 -7.812,-29.688c-0.725,-2.771 -1.45,-5.543 -2.197,-8.398c-4.42,-16.697 -9.342,-33.079 -14.99,-49.414c-2.884,0.806 -5.769,1.611 -8.74,2.441c-47.118,12.54 -92.464,18.392 -141.26,18.392l0,116.667c-94.595,2.703 -94.595,2.703 -133.333,-16.667c3.646,-19.792 3.646,-19.792 8.333,-29.167c2.777,0.553 5.554,1.106 8.415,1.676c27.746,5.316 55.087,8.629 83.252,10.824c2.75,-28.875 5.5,-57.75 8.333,-87.5c-6.789,-0.258 -13.578,-0.516 -20.573,-0.781c-23.042,-1.888 -44.086,-6.725 -66.146,-13.281c-2.935,-0.871 -5.87,-1.742 -8.894,-2.64c-18.726,-5.782 -36.498,-12.8 -54.387,-20.798c-1.375,4.727 -2.75,9.453 -4.167,14.323c-10.735,32.572 -26.769,63.19 -41.667,94.01c-42.526,-12.915 -78.598,-38.501 -112.5,-66.667c4.125,-8.25 8.25,-16.5 12.5,-25c16.852,7.907 32.542,17.706 48.438,27.344c19.235,11.857 19.235,11.857 39.062,22.656c1.063,-3.491 2.127,-6.982 3.223,-10.579c5.601,-15.804 12.57,-30.263 20.215,-45.15c1.354,-2.669 2.707,-5.339 4.102,-8.089c3.305,-6.513 6.631,-13.015 9.961,-19.515c-4.504,-1.684 -4.504,-1.684 -9.098,-3.402c-42.351,-17.798 -75.004,-48.504 -107.568,-79.932c-13.55,5.906 -22.14,13.022 -32.292,23.698c-11.578,11.815 -23.217,23.46 -35.417,34.635c-2.6,2.406 -5.199,4.812 -7.878,7.292c-7.747,5.208 -7.747,5.208 -24.414,5.208c-26.545,-25.367 -49.604,-59.187 -66.667,-91.667l0,-12.5c12.375,-4.125 12.375,-4.125 25,-8.333c2.165,3.368 4.329,6.735 6.559,10.205c4.359,6.679 4.359,6.679 8.805,13.493c2.852,4.399 5.704,8.798 8.643,13.33c9.274,12.9 18.658,22.949 30.16,33.805c9.774,-7.23 19.482,-14.527 29.167,-21.875c2.782,-2.046 5.564,-4.093 8.431,-6.201c2.632,-2.014 5.264,-4.028 7.975,-6.104c2.444,-1.833 4.888,-3.666 7.406,-5.554c7.187,-6.834 7.187,-6.834 5.355,-22.766c-5.231,-8.777 -5.231,-8.777 -12.5,-17.708c-20.662,-28.168 -34.965,-59.235 -50,-90.625c-1.375,-2.75 -2.75,-5.5 -4.167,-8.333c-14.475,2.513 -27.144,6.278 -40.658,12.012c-3.636,1.509 -7.272,3.019 -11.019,4.574c-7.602,3.196 -15.198,6.408 -22.786,9.635c-5.438,2.248 -5.438,2.248 -10.986,4.541c-3.293,1.392 -6.586,2.784 -9.979,4.218c-8.738,2.521 -8.738,2.521 -21.238,-1.646c-18.05,-32.98 -29.167,-82.988 -29.167,-120.833c9.625,-1.375 19.25,-2.75 29.167,-4.167c3.489,13.016 6.955,26.039 10.417,39.062c0.994,3.706 1.987,7.412 3.011,11.23c0.94,3.545 1.88,7.09 2.848,10.742c0.873,3.273 1.746,6.546 2.645,9.918c1.912,8.213 1.912,8.213 1.912,16.547c7.38,-2.256 7.38,-2.256 14.909,-4.557c6.488,-1.954 12.977,-3.907 19.466,-5.859c3.239,-0.994 6.478,-1.987 9.814,-3.011c3.142,-0.94 6.284,-1.88 9.521,-2.848c2.88,-0.873 5.76,-1.746 8.728,-2.645c8.394,-1.912 8.394,-1.912 25.061,-1.912c-1.235,-2.809 -2.471,-5.618 -3.743,-8.512c-17.609,-47.27 -18.421,-95.965 -17.09,-145.654l-120.833,0c0,-62.478 0,-62.478 5.99,-90.365c0.561,-2.865 1.123,-5.731 1.701,-8.683c4.095,-20.357 4.095,-20.357 8.976,-30.119c9.625,1.375 19.25,2.75 29.167,4.167c-0.553,3.078 -1.106,6.155 -1.676,9.326c-5.018,28.824 -8.521,57.341 -10.824,86.507c28.875,1.375 57.75,2.75 87.5,4.167c1.117,-8.594 2.234,-17.188 3.385,-26.042c6.113,-42.36 14.988,-81.344 34.115,-119.792c-4.812,-1.461 -9.625,-2.922 -14.583,-4.427c-19.786,-6.659 -39.084,-14.337 -58.333,-22.396c-2.994,-1.201 -5.989,-2.402 -9.074,-3.639c-21.273,-9.097 -21.273,-9.097 -25.546,-19.071c-1.414,-15.622 8.408,-28.074 16.131,-41.092c1.716,-2.97 3.431,-5.94 5.199,-9.001c12.14,-20.716 25.216,-40.052 40.374,-58.708c13.171,5.708 16.636,8.288 25,20.833c-2.659,4.018 -5.317,8.035 -8.057,12.174c-3.479,5.316 -6.956,10.633 -10.433,15.951c-1.754,2.643 -3.507,5.285 -5.314,8.008c-1.678,2.578 -3.357,5.156 -5.086,7.812c-1.549,2.357 -3.098,4.713 -4.695,7.141c-4.254,7.874 -6.267,15.18 -8.082,23.914c10.137,6.284 20.294,12.528 30.469,18.75c2.876,1.789 5.752,3.577 8.716,5.42c4.169,2.538 4.169,2.538 8.423,5.127c2.553,1.571 5.106,3.142 7.736,4.761c7.71,4.345 7.71,4.345 19.656,3.442c5.515,-7.33 5.515,-7.33 10.417,-17.188c11.285,-19.869 24.128,-37.605 38.281,-55.469c2.973,-3.767 2.973,-3.767 6.006,-7.611c9.032,-11.312 18.033,-22.345 28.63,-32.233c-5.758,-13.053 -12.365,-21.571 -22.673,-31.38c-4.161,-4.036 -4.161,-4.036 -8.407,-8.154c-5.852,-5.596 -11.711,-11.184 -17.578,-16.764c-4.153,-4.036 -4.153,-4.036 -8.39,-8.154c-2.544,-2.425 -5.087,-4.85 -7.708,-7.349c-6.642,-8.048 -8.565,-13.835 -10.245,-24.032c85.307,-75 85.307,-75 108.333,-75c6.086,11.031 8.333,16.227 8.333,29.167c-8.563,6.719 -16.916,12.637 -26.042,18.49c-16.391,10.681 -31.459,21.189 -44.792,35.677c7.23,9.774 14.527,19.482 21.875,29.167c2.046,2.782 4.093,5.564 6.201,8.431c2.014,2.632 4.028,5.264 6.104,7.975c1.833,2.444 3.666,4.888 5.554,7.406c6.834,7.187 6.834,7.187 22.766,5.355c8.637,-5.086 8.637,-5.086 17.448,-12.24c19.706,-14.417 40.174,-26.126 61.719,-37.5c3.143,-1.673 6.286,-3.346 9.525,-5.069c22.714,-11.858 22.714,-11.858 32.142,-11.858c-3.894,-11.202 -7.802,-22.399 -11.719,-33.594c-1.631,-4.701 -1.631,-4.701 -3.296,-9.497c-5.195,-14.816 -10.57,-29.312 -17.065,-43.612c-5.42,-13.298 -5.42,-13.298 -5.42,-29.964c22.065,-10.268 43.422,-16.55 67.187,-21.615c3.271,-0.739 6.542,-1.477 9.912,-2.238c16.225,-3.543 31.183,-6.288 47.9,-5.314l0,29.167c-12.236,2.794 -24.476,5.569 -36.719,8.333c-3.472,0.795 -6.945,1.59 -10.522,2.409c-3.344,0.752 -6.687,1.504 -10.132,2.279c-3.077,0.698 -6.153,1.396 -9.323,2.116c-8.304,1.53 -8.304,1.53 -20.804,1.53c8.25,28.875 16.5,57.75 25,87.5c10.742,-2.75 21.484,-5.5 32.552,-8.333c41.166,-9.813 79.378,-9.594 121.615,-8.333l0,-120.833Z" style="fill:#fbfcfa;fill-rule:nonzero;"/><path d="M625.839,97.121c4.066,0.038 8.132,0.075 12.321,0.114c4.6,0.073 4.6,0.073 9.294,0.146c4.054,20.237 4.666,39.381 4.427,59.896c-0.086,10.484 -0.172,20.969 -0.26,31.771c-27.5,2.75 -55,5.5 -83.333,8.333c4.125,12.375 4.125,12.375 8.333,25c2.632,-0.301 5.264,-0.602 7.975,-0.911c32.622,-3.384 62.895,-3.255 96.191,-3.255l0,-120.833c72.214,-0.84 131.243,2.155 200,25c-6.016,30.08 -14.908,58.546 -25,87.5c-5.07,-1.203 -10.141,-2.406 -15.365,-3.646c-25.226,-5.642 -50.734,-9.306 -76.302,-13.021l0,29.167c2.874,0.156 5.747,0.312 8.708,0.472c23.584,1.65 43.989,4.861 65.999,13.607c10.451,3.586 10.451,3.586 29.46,2.588c13.75,-34.375 27.5,-68.75 41.667,-104.167c21.66,6.189 40.299,12.694 60.156,22.656c2.837,1.419 5.674,2.838 8.597,4.3c82.862,42.783 82.862,42.783 106.247,73.044c-0.96,13.392 -6.463,20.619 -15.511,30.143c-3.364,3.585 -3.364,3.585 -6.795,7.243c-3.525,3.666 -3.525,3.666 -7.121,7.406c-2.366,2.508 -4.732,5.017 -7.17,7.601c-5.83,6.173 -11.696,12.31 -17.57,18.441c-19.985,-9.172 -37.436,-22.256 -55.501,-34.668c-10.146,-7.736 -10.146,-7.736 -19.499,-6.999c-2.75,6.875 -5.5,13.75 -8.333,20.833c2.621,1.767 5.242,3.534 7.943,5.355c23.775,16.291 45.838,33.478 67.057,52.979c16.053,-6.54 25.622,-16.727 37.5,-29.167c4.313,-4.335 8.637,-8.659 12.972,-12.972c2.189,-2.189 26.896,-26.896 37.028,-37.028c16.336,6.511 26.735,17.676 38.281,30.469c1.996,2.198 3.992,4.397 6.049,6.662c76.503,86.095 76.503,86.095 76.503,125.369c-10.744,5.597 -21.509,11.145 -32.292,16.667c-3.04,1.59 -6.08,3.18 -9.212,4.818c-2.954,1.504 -5.908,3.008 -8.952,4.557c-4.059,2.095 -4.059,2.095 -8.199,4.232c-8.012,3.06 -8.012,3.06 -24.679,3.06c-7.479,-9.485 -13.619,-18.371 -19.792,-28.646c-1.713,-2.712 -3.427,-5.425 -5.192,-8.219c-12.516,-20.167 -12.516,-20.167 -12.516,-29.801c-2.578,2.063 -5.156,4.125 -7.812,6.25c-8.854,6.25 -8.854,6.25 -17.188,6.25c2.385,4.173 35.742,62.549 50,87.5c14.181,-2.458 26.453,-6.038 39.6,-11.865c3.429,-1.49 6.859,-2.981 10.392,-4.517c7.143,-3.15 14.283,-6.308 21.419,-9.473c3.424,-1.485 6.848,-2.97 10.376,-4.5c3.097,-1.37 6.194,-2.74 9.384,-4.151c8.829,-2.994 8.829,-2.994 25.495,-2.994c21.351,43.882 31.509,90.024 41.667,137.5c0.775,3.065 1.55,6.129 2.348,9.286c2.546,16.161 1.819,32.687 1.819,49.047c-30.25,1.375 -60.5,2.75 -91.667,4.167c-2.062,-10.656 -4.125,-21.312 -6.25,-32.292c-0.979,-4.993 -0.979,-4.993 -1.978,-10.087c-2.67,-14.019 -4.272,-26.629 -4.272,-40.955c-14.438,2.062 -14.438,2.062 -29.167,4.167c0.902,3.679 1.805,7.358 2.734,11.149c1.74,7.501 1.74,7.501 3.516,15.153c1.16,4.882 2.32,9.765 3.516,14.795c2.734,17.236 2.734,17.236 2.734,63.07l125,0c0,56.319 0,56.319 -3.206,76.204c-1.043,6.526 -1.043,6.526 -2.108,13.184c-1.108,6.542 -1.108,6.542 -2.238,13.216c-0.69,4.394 -1.38,8.787 -2.091,13.314c-10.184,62.102 -10.184,62.102 -19.523,79.915c-12.691,5.809 -21.04,3.837 -33.789,-0.895c-3.142,-1.141 -6.284,-2.283 -9.521,-3.459c-3.239,-1.227 -6.478,-2.455 -9.814,-3.719c-4.955,-1.817 -4.955,-1.817 -10.01,-3.67c-8.137,-2.99 -16.253,-6.035 -24.365,-9.09c2.401,-21.264 5.683,-41.656 10.677,-62.5c1.684,-7.09 1.684,-7.09 3.402,-14.323c1.281,-5.285 1.281,-5.285 2.588,-10.677l-33.333,0c0.322,6.067 0.322,6.067 0.651,12.256c0,19.155 -5.321,36.024 -11.068,54.15c-0.994,3.247 -1.987,6.494 -3.011,9.839c-2.432,7.929 -4.914,15.844 -7.406,23.755c4.727,1.461 9.453,2.922 14.323,4.427c32.007,10.6 62.934,24.217 94.01,37.24c-2.037,25.235 -13.088,44.956 -24.74,66.927c-2.039,3.863 -4.077,7.727 -6.178,11.708c-42.703,79.009 -42.703,79.009 -77.416,96.365c-19.25,-17.875 -38.5,-35.75 -58.333,-54.167c4.519,-18.076 12.535,-29.962 23.177,-44.792c2.655,-3.762 2.655,-3.762 5.363,-7.601c4.353,-6.163 8.737,-12.304 13.127,-18.441c-8.551,-9.366 -12.528,-12.509 -25,-16.667c-1.037,2.997 -2.073,5.994 -3.141,9.082c-5.707,12.917 -12.65,22.208 -21.598,33.105c-2.874,3.534 -5.747,7.068 -8.708,10.71c-6.64,7.757 -13.358,15.041 -20.719,22.103c6.422,15.47 15.868,24.921 27.865,36.458c18.067,17.673 35.011,35.896 51.302,55.208c-43.153,53.373 -98.239,92.619 -158.333,125l-8.333,0c-5.836,-12.104 -11.524,-24.272 -17.188,-36.458c-1.66,-3.438 -3.319,-6.875 -5.029,-10.417c-1.531,-3.33 -3.062,-6.66 -4.639,-10.091c-1.44,-3.055 -2.88,-6.11 -4.364,-9.257c-2.114,-8.777 -2.114,-8.777 0.8,-17.623c5.749,-8.296 10.457,-12.374 18.994,-17.651c2.605,-1.638 5.21,-3.276 7.894,-4.964c2.712,-1.649 5.425,-3.298 8.219,-4.997c2.745,-1.713 5.489,-3.427 8.317,-5.192c6.754,-4.209 13.538,-8.367 20.329,-12.516c-2.75,-5.5 -5.5,-11 -8.333,-16.667c-18.894,2.296 -32.524,10.396 -48.177,20.573c-28.808,18.404 -28.808,18.404 -43.49,25.26c8.427,26.685 18.317,52.461 29.242,78.207c5.808,14.051 8.258,22.965 8.258,38.459c-38.112,17.782 -75.224,31.519 -116.667,39.323c-5.367,1.021 -5.367,1.021 -10.843,2.063c-23.712,4.121 -43.384,4.447 -68.324,4.447c-1.375,-30.25 -2.75,-60.5 -4.167,-91.667c27.5,-4.125 55,-8.25 83.333,-12.5c-1.375,-9.625 -2.75,-19.25 -4.167,-29.167c-5.519,1.354 -5.519,1.354 -11.149,2.734c-5,1.16 -10.001,2.32 -15.153,3.516c-7.323,1.74 -7.323,1.74 -14.795,3.516c-17.236,2.734 -17.236,2.734 -63.07,2.734l0,125c-42.427,1.391 -81.406,0.143 -123.177,-7.552c-3.76,-0.689 -7.521,-1.378 -11.395,-2.087c-23.919,-4.691 -46.678,-11.239 -69.594,-19.527c3.044,-19.533 9.863,-37.123 16.927,-55.469c4.039,-10.57 8.078,-21.141 12.24,-32.031c28.875,5.5 57.75,11 87.5,16.667l0,-29.167c-2.428,-0.107 -4.855,-0.215 -7.357,-0.326c-32.338,-2.237 -63.523,-10.114 -92.643,-24.674c-1.461,4.812 -2.922,9.625 -4.427,14.583c-6.674,19.736 -14.195,39.078 -22.135,58.333c-1.166,2.994 -2.332,5.989 -3.533,9.074c-3.596,8.504 -3.596,8.504 -11.571,22.176c-11.843,4.22 -18.436,4.95 -30.437,1.027c-3.238,-1.703 -6.477,-3.407 -9.813,-5.162c-3.629,-1.891 -7.257,-3.781 -10.995,-5.729c-3.8,-2.073 -7.599,-4.146 -11.514,-6.283c-3.899,-2.084 -7.798,-4.168 -11.815,-6.315c-30.176,-16.466 -57.198,-34.838 -83.758,-56.706c-5.534,-4.195 -11.082,-8.373 -16.667,-12.5c2.458,-14.715 7.922,-22.209 17.969,-33.073c11.146,-12.27 21.819,-24.689 32.031,-37.76c17.251,2.217 26.39,7.317 39.583,18.49c12.746,10.749 23.804,17.649 39.583,23.177c4.125,-8.25 8.25,-16.5 12.5,-25c-2.917,-0.988 -5.833,-1.977 -8.838,-2.995c-14.189,-6.315 -25.011,-14.552 -37.256,-24.089c-13.781,-10.705 -25.735,-19.248 -41.406,-27.083c-26.125,26.125 -52.25,52.25 -79.167,79.167c-50.364,-25.182 -90.724,-94.496 -118.294,-142.367c-3.298,-9.914 -2.012,-14.572 1.628,-24.3c6.394,-5.018 6.394,-5.018 14.551,-9.066c2.938,-1.469 5.876,-2.938 8.903,-4.451c3.088,-1.469 6.177,-2.938 9.359,-4.451c4.584,-2.324 4.584,-2.324 9.261,-4.696c22.941,-11.22 22.941,-11.22 37.093,-6.502c6.208,8.768 11.76,17.337 17.188,26.562c1.499,2.46 2.997,4.92 4.541,7.454c6.486,10.785 11.779,20.673 15.771,32.65c10.312,-8.25 10.312,-8.25 20.833,-16.667c-5.543,-14.879 -12.204,-27.926 -20.573,-41.406c-9.225,-15.09 -17.692,-30.116 -25.26,-46.094c-37.086,11.463 -72.568,26.679 -108.333,41.667c-41.839,-39.018 -48.167,-121.502 -54.167,-175c-0.103,-6.944 -0.132,-13.89 0,-20.833c30.687,-4.161 60.721,-4.597 91.667,-4.167c4.457,26.352 8.889,52.684 12.5,79.167c9.625,-1.375 19.25,-2.75 29.167,-4.167c-0.902,-3.679 -1.805,-7.358 -2.734,-11.149c-1.16,-5 -2.32,-10.001 -3.516,-15.153c-1.16,-4.882 -2.32,-9.765 -3.516,-14.795c-2.734,-17.236 -2.734,-17.236 -2.734,-63.07l-120.833,0c-1.263,-70.753 -0.093,-133.085 25,-200c9.884,2.965 19.765,5.936 29.639,8.936c7.944,2.354 15.92,4.603 23.926,6.738c3.722,1.015 7.444,2.03 11.279,3.076c3.443,0.902 6.886,1.805 10.433,2.734c2.659,1.16 5.317,2.32 8.057,3.516c4.423,13.268 3.996,17.019 0.928,30.127c-0.765,3.344 -1.531,6.687 -2.319,10.132c-0.83,3.472 -1.66,6.945 -2.515,10.522c-0.814,3.521 -1.627,7.042 -2.466,10.669c-2.013,8.69 -4.067,17.371 -6.128,26.05l29.167,0c0.107,-2.428 0.215,-4.855 0.326,-7.357c2.075,-29.986 10.125,-56.203 20.508,-84.31c-27.18,-14.453 -54.763,-26.443 -83.684,-36.9c-6.967,-2.635 -13.747,-5.753 -20.482,-8.934c-5.964,-17.891 2.081,-28.963 9.896,-45.052c2.259,-4.717 2.259,-4.717 4.563,-9.529c21.163,-43.146 47.673,-82.555 77.207,-120.419c14.581,2.463 22.033,7.751 32.812,17.708c2.868,2.605 5.736,5.21 8.691,7.894c2.804,2.551 5.607,5.103 8.496,7.731c8.267,7.029 16.629,13.928 25,20.833c-3.819,5.729 -7.639,11.458 -11.458,17.188c-2.272,3.416 -4.544,6.832 -6.885,10.352c-3.93,5.88 -7.881,11.746 -11.882,17.578c-6.846,10.003 -11.744,18.287 -15.609,29.883c12.375,2.062 12.375,2.062 25,4.167c3.247,-4.528 3.247,-4.528 6.559,-9.147c15.258,-21.153 30.543,-41.955 47.607,-61.686c-6.054,-14.006 -13.71,-22.926 -24.642,-33.496c-3.169,-3.104 -6.338,-6.209 -9.603,-9.408c-3.309,-3.201 -6.617,-6.402 -10.026,-9.701c-6.583,-6.372 -13.149,-12.762 -19.694,-19.173c-2.914,-2.818 -5.829,-5.636 -8.832,-8.539c-6.37,-7.184 -6.37,-7.184 -6.37,-15.517c5.534,-5.729 5.534,-5.729 13.542,-12.5c3.062,-2.589 6.123,-5.178 9.277,-7.845c3.47,-2.911 6.939,-5.822 10.514,-8.822c5.591,-4.882 5.591,-4.882 11.296,-9.863c22.224,-19.125 44.828,-36.663 69.434,-52.637c2.377,-1.557 4.755,-3.114 7.204,-4.718c14.637,-9.251 28.788,-15.464 45.4,-20.282c5.716,10.643 11.343,21.319 16.927,32.031c1.625,3.005 3.25,6.01 4.924,9.106c6.532,12.66 11.285,22.543 12.231,36.857c-7.564,14.627 -20.097,21.382 -33.822,29.557c-2.694,1.695 -5.387,3.389 -8.162,5.135c-19.928,12.313 -19.928,12.313 -29.598,12.313c5.5,6.875 11,13.75 16.667,20.833c17.576,-6.286 32.78,-15.269 48.438,-25.26c24.93,-15.862 24.93,-15.862 39.062,-20.573c-2.518,-14.422 -6.244,-27.152 -11.865,-40.658c-1.49,-3.636 -2.981,-7.272 -4.517,-11.019c-3.155,-7.596 -6.313,-15.192 -9.473,-22.786c-1.485,-3.625 -2.97,-7.251 -4.5,-10.986c-1.37,-3.293 -2.74,-6.586 -4.151,-9.979c-2.994,-8.738 -2.994,-8.738 -2.994,-21.238c52.311,-24.537 115.9,-46.796 174.219,-46.094Zm84.115,29.427l0,120.833c-11.516,-0.344 -23.031,-0.688 -34.896,-1.042c-41.981,-0.604 -78.649,7.309 -119.271,17.708c-8.25,-28.875 -16.5,-57.75 -25,-87.5c7.477,-1.203 14.953,-2.406 22.656,-3.646c21.825,-3.624 43.302,-7.995 64.844,-13.021l0,-29.167c-26.248,1.262 -51.137,5.906 -76.562,12.24c-2.874,0.708 -5.747,1.415 -8.708,2.144c-14.107,3.623 -27.051,7.533 -39.73,14.783c2.625,22.678 10.234,42.056 18.75,63.021c2.657,6.604 5.305,13.212 7.943,19.824c1.76,4.344 1.76,4.344 3.556,8.775c3.045,8.272 5.279,16.462 7.251,25.047c-3.497,1.058 -6.993,2.116 -10.596,3.206c-15.713,5.593 -30.209,12.635 -44.873,20.492c-2.726,1.453 -5.452,2.906 -8.261,4.403c-22.204,12.123 -42.135,26.138 -61.27,42.733c-18.336,-6.426 -27.483,-20.893 -38.542,-35.938c-2.868,-3.819 -2.868,-3.819 -5.794,-7.715c-4.695,-6.26 -9.35,-12.551 -13.997,-18.848c14.576,-15.442 29.202,-27.175 47.135,-38.802c6.679,-4.359 6.679,-4.359 13.493,-8.805c3.368,-2.165 6.735,-4.329 10.205,-6.559c-2.733,-15.041 -2.733,-15.041 -8.333,-29.167c-40.498,14.201 -77.337,45.877 -108.333,75c5.445,15.937 11.71,25.717 23.73,37.451c2.981,2.941 5.962,5.881 9.033,8.911c4.665,4.508 4.665,4.508 9.424,9.106c3.142,3.086 6.284,6.171 9.521,9.351c7.736,7.589 15.5,15.148 23.291,22.681c-7.25,15.359 -16.378,26.515 -27.604,39.323c-21.836,25.41 -38.989,52.52 -55.729,81.51c-17.501,-3.772 -31.582,-12.095 -46.875,-21.094c-2.707,-1.571 -5.414,-3.142 -8.203,-4.761c-6.651,-3.864 -13.288,-7.752 -19.922,-11.646c5.636,-19.755 13.89,-34.679 25.521,-51.562c3.019,-4.415 6.037,-8.83 9.147,-13.379c2.31,-3.319 4.619,-6.639 6.999,-10.059c-5.5,-6.875 -11,-13.75 -16.667,-20.833c-17.827,6.313 -23.697,17.72 -33.073,33.594c-1.434,2.422 -2.867,4.844 -4.345,7.339c-4.226,7.17 -8.405,14.368 -12.582,21.567c-2.288,3.738 -4.576,7.477 -6.934,11.328c-1.923,3.223 -3.846,6.445 -5.827,9.766c-1.681,2.798 -3.362,5.597 -5.094,8.48c-3.89,10.351 -3.098,14.426 1.188,24.593c9.312,6.165 9.312,6.165 21.077,10.742c6.409,2.739 6.409,2.739 12.948,5.534c6.747,2.771 6.747,2.771 13.631,5.599c4.482,1.912 8.964,3.824 13.582,5.794c20.779,9.928 20.779,9.928 42.928,13.997c-1.66,3.642 -3.319,7.283 -5.029,11.035c-18.487,42.292 -32.471,88.129 -32.471,134.798c-28.875,-1.375 -57.75,-2.75 -87.5,-4.167c1.289,-11.172 2.578,-22.344 3.906,-33.854c0.596,-5.206 0.596,-5.206 1.203,-10.516c2.011,-17.25 4.357,-34.355 7.39,-51.463c-9.625,-1.375 -19.25,-2.75 -29.167,-4.167c-16.413,42.205 -16.667,83.997 -16.667,129.167l120.833,0c-0.258,9.625 -0.516,19.25 -0.781,29.167c-0.461,42.24 4.479,86.035 21.615,125c-6.26,0.765 -6.26,0.765 -12.646,1.546c-16.293,2.328 -31.719,6.552 -47.51,11.214c-5.151,1.509 -10.302,3.019 -15.609,4.574c-3.873,1.155 -7.745,2.31 -11.735,3.499c-1.732,-7.38 -1.732,-7.38 -3.499,-14.909c-1.524,-6.489 -3.049,-12.977 -4.574,-19.466c-0.76,-3.239 -1.52,-6.478 -2.303,-9.814c-0.739,-3.142 -1.477,-6.284 -2.238,-9.521c-0.676,-2.88 -1.353,-5.76 -2.05,-8.728c-1.997,-8.369 -4.067,-16.718 -6.17,-25.061c-9.625,1.375 -19.25,2.75 -29.167,4.167c6.957,44.409 15.833,83.544 33.333,125c26.785,-8.458 52.681,-18.395 78.574,-29.242c12.02,-4.943 20.79,-8.258 33.926,-8.258c2.068,4.281 4.136,8.562 6.266,12.972c15.238,31.2 30.891,61.282 50.212,90.218c5.468,8.453 10.06,16.884 14.355,25.977c-8.748,7.575 -17.518,15.123 -26.302,22.656c-2.479,2.151 -4.958,4.302 -7.511,6.519c-3.605,3.082 -3.605,3.082 -7.284,6.226c-3.306,2.848 -3.306,2.848 -6.678,5.753c-6.391,4.68 -6.391,4.68 -18.891,8.847c-6.002,-7.89 -11.99,-15.791 -17.969,-23.698c-1.684,-2.21 -3.368,-4.42 -5.103,-6.698c-9.849,-13.052 -18.797,-26.253 -26.929,-40.438c-12.375,4.125 -12.375,4.125 -25,8.333c2.02,20.196 11.922,33.648 23.698,49.479c2.811,3.856 2.811,3.856 5.678,7.79c13.049,17.744 26.673,34.724 41.457,51.064c34.332,-14.917 61.744,-48.476 87.5,-75c14.335,6.195 23.718,14.445 34.896,25.26c17.23,15.842 35.044,29.077 54.688,41.667c2.548,1.641 5.096,3.282 7.721,4.973c12.861,8.677 12.861,8.677 27.696,11.433c-2.358,4.619 -4.716,9.238 -7.145,13.997c-3.088,6.098 -6.175,12.196 -9.261,18.294c-2.332,4.56 -2.332,4.56 -4.712,9.212c-2.236,4.431 -2.236,4.431 -4.517,8.952c-1.375,2.706 -2.749,5.411 -4.166,8.199c-3.593,8.149 -5.799,15.993 -7.7,24.679c-9.301,-5.186 -18.587,-10.397 -27.865,-15.625c-2.608,-1.45 -5.215,-2.9 -7.902,-4.395c-15.684,-8.868 -29.3,-18.701 -43.4,-29.98l-8.333,0c-4.125,8.25 -8.25,16.5 -12.5,25c21.394,18.111 43.693,33.484 67.969,47.396c3.739,2.159 3.739,2.159 7.554,4.362c12.242,6.88 23.307,11.878 36.977,14.909c6.114,-12.569 12.176,-25.162 18.229,-37.76c1.719,-3.531 3.438,-7.063 5.208,-10.701c9.454,-19.746 17.145,-38.607 22.396,-59.871c4.136,1.66 8.271,3.319 12.533,5.029c45.055,17.712 88.457,32.471 137.467,32.471c-2.75,28.875 -5.5,57.75 -8.333,87.5c-9.711,-1.289 -19.422,-2.578 -29.427,-3.906c-2.997,-0.397 -5.995,-0.794 -9.083,-1.203c-17.735,-2.36 -35.449,-4.834 -53.157,-7.39c-6.086,11.031 -8.333,16.227 -8.333,29.167c7.114,2.013 14.233,4.005 21.354,5.99c3.964,1.112 7.928,2.224 12.012,3.369c23.649,5.959 45.951,7.872 70.28,7.568c14.695,-0.129 14.695,-0.129 29.688,-0.26l0,-116.667l37.5,0c38.358,-3.407 75.437,-10.481 112.5,-20.833c3.399,10.673 6.782,21.351 10.156,32.031c0.959,3.005 1.917,6.01 2.905,9.106c4.843,15.37 9.207,30.444 11.938,46.362c-5.156,0.43 -10.312,0.859 -15.625,1.302c-24.557,2.663 -48.067,8.959 -71.875,15.365l0,29.167c41.695,-0.869 77.644,-11.616 116.667,-25c4.125,-1.375 8.25,-2.75 12.5,-4.167c-7.667,-28.582 -17.767,-55.722 -29.242,-82.952c-4.963,-11.97 -8.258,-20.611 -8.258,-33.715c2.202,-1.109 4.404,-2.219 6.672,-3.362c54.41,-26.722 54.41,-26.722 102.947,-62.556c7.048,-4.915 7.048,-4.915 23.714,-4.915c6.099,5.223 6.099,5.223 11.654,12.467c2.014,2.594 4.028,5.188 6.104,7.861c2.046,2.745 4.093,5.489 6.201,8.317c2.111,2.712 4.222,5.425 6.396,8.219c15.479,20.235 15.479,20.235 15.479,29.801c-9.328,7.295 -18.652,14.121 -28.385,20.833c-2.677,1.88 -5.355,3.76 -8.114,5.697c-11.361,7.959 -22.792,15.775 -34.334,23.47c2.75,8.25 5.5,16.5 8.333,25c20.196,-2.02 33.648,-11.922 49.479,-23.698c2.571,-1.874 5.141,-3.748 7.79,-5.678c17.744,-13.049 34.724,-26.673 51.064,-41.457c-2.368,-15.288 -8.099,-21.853 -19.271,-32.292c-11.901,-11.473 -23.396,-23.054 -34.375,-35.417c-2.31,-2.6 -4.619,-5.199 -6.999,-7.878c-6.061,-7.797 -10.269,-15.448 -14.355,-24.414c1.67,-1.525 3.341,-3.051 5.062,-4.622c31.228,-29.741 58.94,-65.049 78.271,-103.711l0,-8.333c3.153,1.704 3.153,1.704 6.37,3.442c9.499,5.12 19.012,10.214 28.526,15.308c3.309,1.789 6.617,3.577 10.026,5.42c3.169,1.692 6.338,3.384 9.603,5.127c2.924,1.571 5.848,3.142 8.86,4.761c7.342,4.025 7.342,4.025 15.782,3.442c-8.044,25.551 -19.396,44.197 -35.726,65.43c-7.406,10.053 -7.406,10.053 -5.941,26.237c6.875,2.75 13.75,5.5 20.833,8.333c16.837,-19.078 29.96,-38.953 42.708,-60.938c1.858,-3.126 3.717,-6.252 5.632,-9.473c8.211,-14.033 14.965,-26.054 18.327,-42.09c-2.563,-1.092 -5.127,-2.185 -7.768,-3.31c-11.649,-4.968 -23.295,-9.943 -34.941,-14.919c-4.034,-1.719 -8.067,-3.438 -12.223,-5.208c-3.894,-1.665 -7.788,-3.33 -11.8,-5.046c-3.578,-1.527 -7.157,-3.055 -10.844,-4.628c-9.015,-3.987 -17.819,-8.229 -26.591,-12.722c2.283,-16.782 6.258,-32.142 11.732,-48.161c11.138,-32.616 16.781,-62.983 17.435,-97.673c4.13,0.682 8.261,1.364 12.516,2.067c16.623,2.375 32.926,2.509 49.723,2.36c2.849,-0.019 5.699,-0.038 8.634,-0.057c6.931,-0.048 13.862,-0.123 20.793,-0.203c-0.902,4.823 -1.805,9.646 -2.734,14.616c-1.173,6.413 -2.345,12.825 -3.516,19.238c-0.596,3.169 -1.192,6.338 -1.807,9.603c-3.206,17.711 -5.137,34.287 -4.443,52.376c9.625,2.75 19.25,5.5 29.167,8.333c2.809,-17.53 5.575,-35.066 8.333,-52.604c1.192,-7.436 1.192,-7.436 2.409,-15.023c0.752,-4.807 1.504,-9.614 2.279,-14.567c0.698,-4.408 1.396,-8.815 2.116,-13.357c2.025,-14.774 2.025,-14.774 1.53,-37.783l-120.833,0c0.344,-8.508 0.688,-17.016 1.042,-25.781c0.798,-42.467 -9.048,-82.813 -17.708,-124.219c27.5,-8.25 55,-16.5 83.333,-25c8.073,39.062 8.073,39.062 10.595,51.357c0.666,3.194 1.333,6.388 2.019,9.678c1.015,4.91 1.015,4.91 2.05,9.918c1.741,8.462 1.741,8.462 6.17,16.547l25,0c11.28,-33.841 -11.13,-93.441 -25,-125c-8.277,-5.351 -8.277,-5.351 -17.43,-1.263c-3.691,1.566 -7.381,3.133 -11.184,4.747c-4.034,1.687 -8.067,3.373 -12.223,5.111c-4.227,1.805 -8.454,3.609 -12.809,5.469c-8.318,3.515 -16.641,7.02 -24.967,10.514c-3.7,1.576 -7.4,3.151 -11.212,4.775c-8.93,3.494 -17.491,6.095 -26.841,8.148c-0.768,-2.331 -1.536,-4.662 -2.327,-7.064c-13.741,-37.986 -35.453,-73.324 -61.344,-104.313c-7.161,-9.456 -7.161,-9.456 -7.161,-21.956c8.529,-8.073 8.529,-8.073 19.792,-16.667c5.511,-4.254 5.511,-4.254 11.133,-8.594c3.545,-2.664 7.09,-5.328 10.742,-8.073c3.201,-2.406 6.402,-4.812 9.701,-7.292c2.299,-1.719 4.598,-3.438 6.966,-5.208c15.801,6.182 22.241,14.669 31.51,28.646c8.663,12.927 17.365,25.66 26.823,38.021c8.25,-2.75 16.5,-5.5 25,-8.333c-6.692,-39.682 -44.077,-75.987 -70.833,-104.167c-18.991,3.529 -28.557,14.798 -41.406,28.385c-31.644,32.997 -31.644,32.997 -46.094,42.448c-10.684,-0.314 -14.87,-2.556 -22.77,-9.635c-2.025,-2.32 -4.05,-4.641 -6.136,-7.031c-26.036,-27.334 -59.547,-47.648 -91.927,-66.667c2.511,-18.78 9.858,-32.745 19.01,-49.219c1.372,-2.49 2.745,-4.979 4.159,-7.544c3.363,-6.093 6.76,-12.167 10.164,-18.237c19.022,2.242 30.601,9.865 46.094,20.833c19.161,13.946 19.161,13.946 41.406,20.833c9.762,-11.135 9.762,-11.135 12.5,-25c-9.413,-7.091 -18.787,-13.633 -28.646,-20.052c-2.837,-1.866 -5.675,-3.732 -8.598,-5.654c-37.054,-26.065 -37.054,-26.065 -79.423,-36.794c-6.982,15.696 -13.912,31.413 -20.833,47.135c-1.987,4.466 -3.975,8.932 -6.022,13.534c-1.88,4.283 -3.76,8.567 -5.697,12.98c-2.618,5.924 -2.618,5.924 -5.29,11.968c-4.555,10.349 -4.555,10.349 -3.825,22.716c-2.432,-0.84 -4.865,-1.68 -7.371,-2.545c-11.249,-3.867 -22.512,-7.692 -33.775,-11.517c-5.736,-1.982 -5.736,-1.982 -11.589,-4.004c-32.316,-10.924 -62.999,-19.434 -97.266,-19.434c1.375,-28.875 2.75,-57.75 4.167,-87.5c38.281,6.51 38.281,6.51 50.231,8.603c17.63,2.888 32.313,5.188 49.769,-0.27c1.375,-8.25 2.75,-16.5 4.167,-25c-12.053,-2.851 -24.116,-5.614 -36.198,-8.333c-3.322,-0.795 -6.644,-1.59 -10.067,-2.409c-30.712,-6.798 -53.814,-5.924 -87.069,-5.924Z" style="fill:#3d4834;fill-rule:nonzero;"/><path d="M1134.954,155.715c17.497,14.429 33.778,29.988 50,45.833c5.229,4.842 5.229,4.842 10.563,9.782c84.604,80.314 148.014,193.038 172.77,306.885c2.156,8.25 4.326,16.497 6.51,24.74c12.06,49.02 16.019,97.108 15.885,147.396c-0.001,3.08 -0.002,6.16 -0.003,9.333c-0.225,79.249 -10.579,156.69 -39.06,231.032c-1.908,4.998 -1.908,4.998 -3.855,10.097c-69.531,178.492 -203.841,318.207 -378.436,396.934c-165.114,70.992 -351.393,77.446 -519.417,13.33c-29.575,-11.859 -57.852,-25.918 -85.791,-41.195c-4.447,-2.401 -8.895,-4.802 -13.477,-7.275c-128.557,-72.105 -226.846,-184.702 -289.909,-316.683c-1.504,-3.148 -3.008,-6.296 -4.558,-9.54c-18.613,-39.994 -31.779,-80.1 -40.754,-123.273c-1.325,-6.075 -1.325,-6.075 -2.677,-12.272c-7.721,-36.245 -11.738,-71.712 -12.118,-108.757c-0.041,-3.319 -0.082,-6.637 -0.124,-10.056c-1.343,-137.338 -1.343,-137.338 17.783,-203.811c0.826,-3.051 1.653,-6.103 2.504,-9.247c28.718,-103.974 83.003,-199.149 155.829,-278.253c2.416,-2.627 4.833,-5.254 7.322,-7.961c56.12,-60.207 119.535,-108.345 192.678,-146.206c2.72,-1.411 5.441,-2.823 8.244,-4.277c243.95,-124.97 536.848,-81.953 750.09,83.443Zm-931.419,107.168c-76.894,90.369 -129.197,197.292 -151.914,313.666c-1.108,5.387 -1.108,5.387 -2.239,10.884c-6.738,35.675 -7.928,70.912 -7.917,107.085c-0.004,3.1 -0.009,6.2 -0.013,9.393c0.114,55.526 6.828,106.742 22.67,160.138c0.936,3.301 1.872,6.601 2.836,10.002c28.069,97.649 76.723,187.352 147.164,260.832c4.444,5.368 8.872,10.749 13.281,16.146c95.176,108.522 241.416,176.172 382.552,196.354c11.474,0.573 22.848,0.973 34.326,1.139c3.292,0.052 6.584,0.104 9.976,0.157c92.412,1.172 177.617,-2.522 264.031,-38.796c5.782,-2.249 11.57,-4.479 17.367,-6.689c76.876,-29.965 143.586,-73.919 203.467,-130.811c2.095,-1.96 4.191,-3.92 6.35,-5.939c123.142,-115.725 196.227,-278.056 203.139,-446.926c4.427,-178.852 -59.88,-341.925 -181.266,-472.607c-3.842,-4.019 -7.694,-8.028 -11.556,-12.028c-3.339,-3.485 -3.339,-3.485 -6.745,-7.04c-73.643,-75.453 -169.252,-126.892 -269.817,-156.241c-3.388,-0.992 -6.776,-1.985 -10.267,-3.007c-57.854,-16.134 -113.401,-23.654 -173.327,-23.295c-4.861,0.009 -4.861,0.009 -9.82,0.018c-182.655,0.825 -359.867,80.88 -482.276,217.566Z" style="fill:#3b4733;fill-rule:nonzero;"/><path d="M822.974,505.975c5.437,4.006 10.827,8.078 16.146,12.24c4.297,3.094 8.594,6.188 13.021,9.375c39.782,38.052 68.975,93.874 71.566,149.43c0.08,5.832 0.095,11.665 0.049,17.497c-0.031,4.633 -0.031,4.633 -0.062,9.36c-1.426,67.289 -32.931,122.612 -80.928,168.668c-58.713,48.999 -125.94,55.927 -199.479,49.837c-38.601,-6.686 -70.456,-29.618 -100,-54.167c-2.691,-2.17 -5.382,-4.34 -8.154,-6.576c-41.165,-36.798 -65.004,-93.022 -68.278,-147.152c-1.724,-44.272 0.805,-81.51 22.266,-121.273c2.116,-4.007 4.232,-8.014 6.413,-12.142c31.739,-54.603 84.02,-93.091 144.661,-109.928c66.401,-12.476 125.75,-1.763 182.78,34.831Z" style="fill:#f9faf7;fill-rule:nonzero;"/><path d="M764.12,572.381c33.744,23.921 61.366,54.227 69.645,95.622c5.921,42.583 -3.481,81.696 -29.281,116.618c-26.619,31.253 -55.811,47.641 -96.859,51.742c-44.87,1.672 -72.629,-8.203 -107.308,-35.856c-30.936,-28.811 -44.295,-65.5 -45.833,-107.031c1.074,-39.096 16.684,-71.456 42.969,-100.26c51.535,-40.54 106.745,-50.635 166.667,-20.833Z" style="fill:#3a4832;fill-rule:nonzero;"/><path d="M822.974,505.975c5.437,4.006 10.827,8.078 16.146,12.24c4.297,3.094 8.594,6.188 13.021,9.375c39.782,38.052 68.975,93.874 71.566,149.43c0.08,5.832 0.095,11.665 0.049,17.497c-0.031,4.633 -0.031,4.633 -0.062,9.36c-1.426,67.289 -32.931,122.612 -80.928,168.668c-58.713,48.999 -125.94,55.927 -199.479,49.837c-38.601,-6.686 -70.456,-29.618 -100,-54.167c-2.691,-2.17 -5.382,-4.34 -8.154,-6.576c-41.165,-36.798 -65.004,-93.022 -68.278,-147.152c-1.724,-44.272 0.805,-81.51 22.266,-121.273c2.116,-4.007 4.232,-8.014 6.413,-12.142c31.739,-54.603 84.02,-93.091 144.661,-109.928c66.401,-12.476 125.75,-1.763 182.78,34.831Zm-276.79,57.194c-40.802,53.212 -54.197,101.454 -47.868,168.327c9.603,48.963 40.782,97.288 80.859,126.221c51.477,32.773 101.518,44.642 161.751,32.65c56.703,-17.77 101.571,-50.988 130.469,-103.271c22.599,-45.62 26.118,-101.078 14.062,-150.586c-25.3,-64.461 -67.804,-102.367 -129.671,-130.794c-74.156,-21.81 -157.289,1.602 -209.603,57.454Z" style="fill:#3e4936;fill-rule:nonzero;"/><path d="M1214.12,534.881c12.328,28.578 16.846,56.725 20.833,87.5c8.25,-1.375 16.5,-2.75 25,-4.167c-1.375,-15.125 -2.75,-30.25 -4.167,-45.833c8.25,-5.5 16.5,-11 25,-16.667c8.352,12.528 10.417,19.349 13.021,33.854c1.047,5.559 1.047,5.559 2.116,11.23c1.941,16.812 1.53,33.825 1.53,50.749c-30.25,1.375 -60.5,2.75 -91.667,4.167c-2.062,-10.656 -4.125,-21.312 -6.25,-32.292c-0.653,-3.329 -1.305,-6.657 -1.978,-10.087c-2.67,-14.019 -4.272,-26.629 -4.272,-40.955c-9.625,1.375 -19.25,2.75 -29.167,4.167c1.354,5.519 1.354,5.519 2.734,11.149c1.16,5 2.32,10.001 3.516,15.153c1.16,4.882 2.32,9.765 3.516,14.795c2.734,17.236 2.734,17.236 2.734,63.07l125,0l0,50l-4.167,0l0,-45.833c-24.75,2.062 -24.75,2.062 -50,4.167l0,16.667c-33,1.375 -66,2.75 -100,4.167c-0.344,-8.508 -0.688,-17.016 -1.042,-25.781c-2.29,-42.057 -11.236,-83.07 -19.792,-124.219c38.147,-14.365 38.147,-14.365 53.125,-19.531c2.986,-1.047 5.973,-2.095 9.049,-3.174c8.659,-2.295 8.659,-2.295 25.326,-2.295Z" style="fill:#3c4835;fill-rule:nonzero;"/><path d="M609.954,5.715c-1.375,5.5 -2.75,11 -4.167,16.667c2.562,0.156 5.124,0.312 7.764,0.472c3.368,0.274 6.735,0.548 10.205,0.83c3.335,0.242 6.671,0.483 10.107,0.732c9.424,2.132 9.424,2.132 14.99,8.382c9.236,8.326 14.99,8.009 27.295,8.382c3.907,0.148 7.815,0.295 11.841,0.448c4.069,0.094 8.137,0.188 12.329,0.285c4.117,0.142 8.234,0.285 12.476,0.431c10.164,0.344 20.326,0.632 30.493,0.871l0,4.167c-3.241,0.017 -6.482,0.034 -9.822,0.052c-63.979,0.587 -124.537,3.517 -187.174,18.115c-4.01,0.934 -8.02,1.867 -12.151,2.829c-3.481,0.868 -6.962,1.736 -10.549,2.631c-10.155,1.473 -16.519,0.605 -26.137,-2.793c-1.375,-1.375 -2.75,-2.75 -4.167,-4.167c-3.266,-1.117 -6.531,-2.234 -9.896,-3.385c-12.238,-5.536 -15.932,-10.795 -23.438,-21.615c32.583,-9.848 65.232,-18.59 98.438,-26.042c4.809,-1.094 4.809,-1.094 9.715,-2.209c14.4,-3.166 27.029,-5.082 41.848,-5.082Z" style="fill:#3f4b37;fill-rule:nonzero;"/><path d="M834.954,1143.215c7.668,11.502 11.181,19.775 15.104,32.812c1.627,5.269 1.627,5.269 3.288,10.645c2.482,10.886 2.88,20.42 2.441,31.543c-12.236,2.794 -24.476,5.569 -36.719,8.333c-3.472,0.795 -6.945,1.59 -10.522,2.409c-5.015,1.128 -5.015,1.128 -10.132,2.279c-3.077,0.698 -6.153,1.396 -9.323,2.116c-8.304,1.53 -8.304,1.53 -20.804,1.53l0,29.167c12.375,-1.375 24.75,-2.75 37.5,-4.167c-2.75,4.125 -5.5,8.25 -8.333,12.5c-8.376,0.135 -16.758,0.239 -25.13,-0.049c-10.504,0.063 -16.532,1.968 -24.87,8.382c-2.75,5.5 -5.5,11 -8.333,16.667c-1.375,-30.25 -2.75,-60.5 -4.167,-91.667c27.5,-4.125 55,-8.25 83.333,-12.5c-1.375,-9.625 -2.75,-19.25 -4.167,-29.167c10.156,-12.24 10.156,-12.24 20.833,-20.833Z" style="fill:#45513d;fill-rule:nonzero;"/><path d="M409.954,201.548c6.086,11.031 8.333,16.227 8.333,29.167c-8.563,6.719 -16.916,12.637 -26.042,18.49c-16.66,10.856 -30.553,21.438 -44.792,35.677c11,13.75 22,27.5 33.333,41.667c-2.75,1.375 -5.5,2.75 -8.333,4.167c-4.723,8.403 -4.723,8.403 -8.333,16.667c-15.501,-12.97 -30.719,-26.115 -45.313,-40.104c-2.396,-2.288 -4.791,-4.576 -7.259,-6.934c-6.396,-7.913 -8.236,-13.857 -9.928,-23.796c85.307,-75 85.307,-75 108.333,-75Z" style="fill:#f2f5ef;fill-rule:nonzero;"/><path d="M1164.12,576.548c2.147,8.752 4.213,17.524 6.25,26.302c1.16,4.882 2.32,9.765 3.516,14.795c2.734,17.236 2.734,17.236 2.734,63.07l125,0l0,50l-4.167,0l0,-45.833c-16.5,1.375 -33,2.75 -50,4.167l0,16.667c-33,1.375 -66,2.75 -100,4.167c-1.823,-28.906 -1.823,-28.906 -2.413,-38.345c-0.993,-15.114 -2.43,-30.005 -4.618,-44.988c-2.071,-17.354 0.296,-29.669 7.031,-45.833c12.5,-4.167 12.5,-4.167 16.667,-4.167Z" style="fill:#48523f;fill-rule:nonzero;"/><path d="M1234.954,497.381c3.919,9.283 7.288,18.313 10.417,27.865c0.916,2.769 1.833,5.539 2.777,8.392c8.732,27.617 14.167,55.603 15.973,84.576c-4.167,4.167 -4.167,4.167 -16.927,4.427c-4.039,-0.086 -8.078,-0.172 -12.24,-0.26c-2.697,-10.676 -5.387,-21.353 -8.073,-32.031c-0.76,-3.005 -1.52,-6.01 -2.303,-9.106c-3.867,-15.397 -7.532,-30.752 -10.457,-46.362c-2.514,0.951 -5.027,1.901 -7.617,2.881c-3.33,1.198 -6.66,2.396 -10.091,3.63c-3.287,1.208 -6.574,2.417 -9.961,3.662c-10.627,2.516 -16.302,1.692 -26.497,-1.839c12.61,-22.217 22.134,-33.251 46.094,-42.708c3.658,-1.482 7.315,-2.965 11.084,-4.492c9.489,-2.799 9.489,-2.799 17.822,1.367Z" style="fill:#eff1eb;fill-rule:nonzero;"/><path d="M685.474,592.954c3.792,0.038 7.584,0.075 11.491,0.114c4.367,0.073 4.367,0.073 8.822,0.146c2.604,9.896 2.604,9.896 4.167,20.833c-9.61,9.61 -12.778,9.578 -25.781,11.458c-21.248,4.318 -35.109,13.871 -49.219,30.208c-6.775,11.496 -8.536,18.133 -10.417,31.771c-2.083,14.062 -2.083,14.062 -10.417,22.396c-10.938,-1.562 -10.938,-1.562 -20.833,-4.167c-3.364,-29.282 0.674,-49.172 16.976,-73.877c19.654,-23.162 44.814,-39.273 75.212,-38.883Z" style="fill:#f2f4ef;fill-rule:nonzero;"/><path d="M1030.787,993.215c1.375,4.125 2.75,8.25 4.167,12.5c2.75,1.375 5.5,2.75 8.333,4.167c-2.75,5.5 -5.5,11 -8.333,16.667c4.125,-1.375 8.25,-2.75 12.5,-4.167c58.954,58.156 58.954,58.156 83.333,87.5c-6.875,8.25 -13.75,16.5 -20.833,25c-2.75,-2.75 -5.5,-5.5 -8.333,-8.333c-10.711,-2.699 -10.711,-2.699 -20.833,-4.167c-0.376,-3.11 -0.752,-6.22 -1.139,-9.424c-3.564,-13.433 -7.986,-17.991 -18.132,-27.295c-11.945,-11.365 -23.435,-22.814 -34.375,-35.156c-2.31,-2.6 -4.619,-5.199 -6.999,-7.878c-6.061,-7.797 -10.269,-15.448 -14.355,-24.414c8.25,-8.25 16.5,-16.5 25,-25Z" style="fill:#424d39;fill-rule:nonzero;"/><path d="M1093.287,426.548c17.838,19.896 29.323,43.173 41.667,66.667c19.105,-3.218 35.255,-9.966 52.897,-17.741c9.603,-3.092 9.603,-3.092 22.103,1.074l0,8.333l-8.333,0c-1.375,4.125 -2.75,8.25 -4.167,12.5l0,-8.333l-8.333,0c1.375,4.125 2.75,8.25 4.167,12.5l-16.667,0l0,12.5c-10.386,6.924 -19.98,12.245 -31.25,17.448c-3.223,1.52 -6.445,3.04 -9.766,4.606c-8.984,2.946 -8.984,2.946 -21.484,-1.221c-4.427,-8.643 -4.427,-8.643 -8.333,-19.531c-4.656,-12.758 -8.905,-23.051 -16.146,-34.635c-7.121,-18.99 -1.602,-35.062 3.646,-54.167Z" style="fill:#414c39;fill-rule:nonzero;"/><path d="M676.62,93.215l66.667,0l0,4.167l-62.5,0l0,120.833c-51.562,4.125 -51.562,4.125 -104.167,8.333c-8.333,-16.667 -8.333,-16.667 -8.333,-29.167c29.543,-6.291 57.292,-9.513 87.5,-8.333c1.375,-4.125 2.75,-8.25 4.167,-12.5c4.125,-2.75 8.25,-5.5 12.5,-8.333c2.105,-8.018 2.105,-8.018 2.132,-17.22c0.148,-3.357 0.295,-6.714 0.448,-10.173c0.094,-3.507 0.188,-7.015 0.285,-10.628c0.142,-3.54 0.285,-7.079 0.431,-10.726c0.344,-8.749 0.614,-17.501 0.871,-26.253Z" style="fill:#e5e7e2;fill-rule:nonzero;"/><path d="M680.787,97.381c15.798,-0.241 31.596,-0.39 47.396,-0.521c4.501,-0.07 9.002,-0.14 13.639,-0.212c4.297,-0.027 8.594,-0.054 13.021,-0.081c5.957,-0.065 5.957,-0.065 12.034,-0.132c9.743,0.946 9.743,0.946 18.077,9.279c-7.188,1.637 -14.398,3.181 -21.615,4.688c-6.018,1.305 -6.018,1.305 -12.158,2.637c-13.5,1.13 -20.875,-1.392 -32.894,-7.324c-13.623,14.519 -13.978,25.187 -13.721,44.727c0.04,5.398 0.081,10.796 0.122,16.357c0.104,5.68 0.21,11.361 0.317,17.041c0.063,5.745 0.12,11.491 0.171,17.236c0.147,14.048 0.353,28.092 0.61,42.139c-14.228,-7.114 -19.948,-18.876 -25,-33.333c-2.014,-19.406 -1.573,-38.59 -1.042,-58.073c0.075,-5.234 0.15,-10.468 0.228,-15.861c0.196,-12.859 0.469,-25.711 0.814,-38.566Z" style="fill:#313d2a;fill-rule:nonzero;"/><path d="M1280.787,555.715c18.371,27.557 17.722,63.632 16.667,95.833c-10.938,0.112 -21.874,0.195 -32.812,0.26c-3.11,0.035 -6.22,0.07 -9.424,0.106c-23.486,0.106 -23.486,0.106 -32.764,-4.533l0,-12.5l16.667,0l0,-8.333l-8.333,0c1.375,-4.125 2.75,-8.25 4.167,-12.5l0,8.333c8.25,-1.375 16.5,-2.75 25,-4.167c-1.375,-15.125 -2.75,-30.25 -4.167,-45.833c8.25,-5.5 16.5,-11 25,-16.667Z" style="fill:#434f3a;fill-rule:nonzero;"/><path d="M1176.62,684.881l120.833,0c0.43,12.805 0.859,25.609 1.302,38.802c0.285,6.029 0.285,6.029 0.575,12.18c0.159,9.749 0.019,18.609 -1.877,28.185c-10.954,9.596 -19.608,12.092 -33.333,16.667c0.688,-3.18 1.375,-6.359 2.083,-9.635c2.743,-20.226 2.083,-40.787 2.083,-61.198l-95.833,0l0,-4.167c35.062,-2.062 35.062,-2.062 70.833,-4.167l0,-8.333c-22,-1.375 -44,-2.75 -66.667,-4.167l0,-4.167Z" style="fill:#36412f;fill-rule:nonzero;"/><path d="M326.62,314.048c19.001,15.853 36.879,32.29 54.167,50c-6.515,14.677 -15.396,26.13 -25.521,38.542c-3.019,3.717 -6.037,7.434 -9.147,11.263c-2.31,2.814 -4.619,5.629 -6.999,8.529c-12.5,-4.167 -12.5,-4.167 -20.833,-12.5c-6.875,5.5 -13.75,11 -20.833,16.667c6.334,-22.52 21.974,-37.437 37.5,-54.167c-1.289,-2.578 -2.578,-5.156 -3.906,-7.812c-9.754,-19.509 -7.585,-28.764 -4.427,-50.521Z" style="fill:#404b37;fill-rule:nonzero;"/><path d="M339.12,1039.048c8.854,3.906 8.854,3.906 16.667,8.333c-5.944,13.578 -13.196,22.51 -23.73,32.878c-4.471,4.431 -4.471,4.431 -9.033,8.952c-3.11,3.04 -6.22,6.08 -9.424,9.212c-3.142,3.104 -6.284,6.209 -9.521,9.408c-7.745,7.647 -15.509,15.274 -23.291,22.884c-5.5,-2.75 -11,-5.5 -16.667,-8.333c0.688,-2.492 1.375,-4.984 2.083,-7.552c2.548,-9.587 2.548,-9.587 2.083,-21.615c10.79,-12.248 17.724,-19.797 33.333,-25c1.203,-2.664 2.406,-5.328 3.646,-8.073c6.361,-11.661 13.178,-12.916 25.521,-16.927c2.75,-1.375 5.5,-2.75 8.333,-4.167Z" style="fill:#45513c;fill-rule:nonzero;"/><path d="M359.954,1005.715c14.99,6.454 25.522,15.571 37.5,26.563c3.523,3.212 7.047,6.424 10.677,9.733c9.125,8.569 18.033,17.293 26.823,26.204c-14.438,6.187 -14.438,6.187 -29.167,12.5c-2.165,-1.708 -4.329,-3.416 -6.559,-5.176c-15.304,-11.825 -28.93,-22.287 -47.607,-28.158c-4.125,-1.375 -8.25,-2.75 -12.5,-4.167c-11.07,3.663 -11.07,3.663 -20.833,8.333c13.365,-15.86 26.698,-31.44 41.667,-45.833Z" style="fill:#404b37;fill-rule:nonzero;"/><path d="M222.454,776.548c4.125,4.125 8.25,8.25 12.5,12.5c4.125,1.375 8.25,2.75 12.5,4.167c4.867,6.348 4.867,6.348 9.115,14.062c1.434,2.524 2.868,5.049 4.346,7.65c3.206,7.454 3.206,7.454 3.206,19.954c-11.45,3.5 -22.909,6.968 -34.375,10.417c-3.239,0.994 -6.478,1.987 -9.814,3.011c-4.713,1.41 -4.713,1.41 -9.521,2.848c-4.32,1.309 -4.32,1.309 -8.728,2.645c-8.394,1.912 -8.394,1.912 -25.061,1.912c-1.375,-9.625 -2.75,-19.25 -4.167,-29.167l12.5,0c5.707,-1.899 11.35,-3.998 16.927,-6.25c15.538,-6.25 15.538,-6.25 24.74,-6.25c-1.375,-12.375 -2.75,-24.75 -4.167,-37.5Z" style="fill:#38432f;fill-rule:nonzero;"/><path d="M718.287,101.548c4.125,1.375 8.25,2.75 12.5,4.167c13.223,4.282 21.265,3.894 34.635,0.26c16.625,-4.026 31.499,-5.803 48.698,-4.427c4.125,2.75 8.25,5.5 12.5,8.333c-5.5,1.375 -11,2.75 -16.667,4.167l0,-8.333c-9.265,8.023 -9.265,8.023 -12.5,20.833c-31.428,5.546 -53.453,2.619 -87.5,0l0,120.833l-45.833,0l0,-4.167l41.667,0c-0.214,-3.699 -0.427,-7.399 -0.647,-11.21c-0.753,-13.758 -1.427,-27.516 -2.049,-41.28c-0.285,-5.95 -0.601,-11.9 -0.948,-17.847c-0.495,-8.562 -0.877,-17.123 -1.239,-25.692c-0.262,-5.15 -0.524,-10.299 -0.793,-15.605c1.51,-13.367 1.51,-13.367 9.888,-23.511c2.735,-2.152 5.47,-4.305 8.289,-6.523Z" style="fill:#485541;fill-rule:nonzero;"/><path d="M347.454,1155.715c17.298,6.008 30.416,14.588 45.052,25.521c4.066,3.019 8.132,6.037 12.321,9.147c3.067,2.31 6.134,4.619 9.294,6.999c-3.385,10.156 -3.385,10.156 -8.333,20.833c-4.125,1.375 -8.25,2.75 -12.5,4.167c-11.865,-6.445 -11.865,-6.445 -25.26,-15.625c-4.431,-2.986 -8.862,-5.973 -13.428,-9.049c-11.312,-8.659 -11.312,-8.659 -19.645,-21.159c4.125,-6.875 8.25,-13.75 12.5,-20.833Z" style="fill:#394331;fill-rule:nonzero;"/><path d="M1139.12,339.048c19.962,18.147 36.316,39.233 50,62.5l0,12.5c-8.25,2.75 -16.5,5.5 -25,8.333c-13.75,-19.25 -27.5,-38.5 -41.667,-58.333c5.556,-8.333 11.111,-16.667 16.667,-25Z" style="fill:#f1f4ed;fill-rule:nonzero;"/><path d="M643.287,893.215l91.667,0c-4.167,20.833 -4.167,20.833 -11.051,26.253c-12.696,3.781 -23.89,3.86 -37.126,3.695c-7.098,-0.04 -7.098,-0.04 -14.339,-0.081c-12.484,-0.7 -12.484,-0.7 -24.984,-4.867c-1.375,-8.25 -2.75,-16.5 -4.167,-25Z" style="fill:#384331;fill-rule:nonzero;"/><path d="M655.787,468.215c46.362,-1.746 86.06,-2.607 129.167,16.667l0,12.5c-20.085,9.845 -27.985,13.226 -50,8.333c-12.221,-1.116 -24.464,-1.717 -36.719,-2.344c-3.284,-0.18 -6.569,-0.36 -9.953,-0.545c-8.053,-0.439 -16.107,-0.86 -24.162,-1.278l0,-4.167c4.641,-0.516 9.281,-1.031 14.062,-1.562c15.233,-1.132 15.233,-1.132 23.438,-10.938c4.211,-0.688 8.422,-1.375 12.76,-2.083c4.039,-0.688 8.078,-1.375 12.24,-2.083c1.375,-2.75 2.75,-5.5 4.167,-8.333l-75,0l0,-4.167Z" style="fill:#3f4b38;fill-rule:nonzero;"/><path d="M230.787,930.715c0,13.199 -2.315,17.838 -8.333,29.167c-1.375,4.125 -2.75,8.25 -4.167,12.5c-8.594,2.865 -8.594,2.865 -16.667,4.167c0.859,2.578 1.719,5.156 2.604,7.812c0.516,2.922 1.031,5.844 1.562,8.854c-2.75,2.75 -5.5,5.5 -8.333,8.333c-1.375,-5.5 -2.75,-11 -4.167,-16.667c-8.25,4.125 -16.5,8.25 -25,12.5c-5.484,-9.032 -8.583,-14.355 -7.431,-25.028c4.191,-10.663 8.016,-12.387 18.255,-17.224c4.492,-2.175 4.492,-2.175 9.074,-4.395c3.145,-1.45 6.29,-2.9 9.53,-4.395c3.161,-1.515 6.322,-3.029 9.578,-4.59c7.806,-3.731 15.647,-7.39 23.494,-11.035Z" style="fill:#424e39;fill-rule:nonzero;"/><path d="M968.287,1126.548c5.5,4.125 11,8.25 16.667,12.5l12.5,0c-4.167,12.5 -4.167,12.5 -13.542,17.448c-15.931,10.5 -23.126,24.465 -32.292,40.885c-12.336,-14.018 -16.345,-27.882 -20.833,-45.833c12.375,-8.25 24.75,-16.5 37.5,-25Z" style="fill:#3e4b36;fill-rule:nonzero;"/><path d="M739.12,159.881c21.358,-0.427 41.458,-0.15 62.5,4.167c-10.138,12.273 -18.017,13.845 -33.333,16.667c-1.375,2.75 -2.75,5.5 -4.167,8.333l20.833,0l0,4.167l-25,0c-1.375,9.625 -2.75,19.25 -4.167,29.167c-4.125,-1.375 -8.25,-2.75 -12.5,-4.167c-4.125,2.062 -4.125,2.062 -8.333,4.167c-0.377,-21.465 0.638,-41.33 4.167,-62.5Z" style="fill:#404d38;fill-rule:nonzero;"/><path d="M755.787,568.215c-4.125,2.062 -4.125,2.062 -8.333,4.167c-1.375,2.75 -2.75,5.5 -4.167,8.333c-4.641,-0.773 -9.281,-1.547 -14.062,-2.344c-14.039,-1.817 -26.579,-1.421 -40.625,0.26c-16.034,1.899 -29.529,2.257 -45.312,-2.083c-2.75,-2.75 -5.5,-5.5 -8.333,-8.333c41.782,-18.92 78.306,-15.498 120.833,0Z" style="fill:#434e3d;fill-rule:nonzero;"/><path d="M859.954,797.381l8.333,0l0,8.333c4.125,2.75 8.25,5.5 12.5,8.333c-1.351,22.298 -14.571,34.512 -29.167,50c-8.333,-4.167 -16.667,-8.333 -25,-12.5c2.463,-13.978 7.134,-21.368 16.667,-31.771c9.467,-10.411 9.467,-10.411 16.667,-22.396Z" style="fill:#384330;fill-rule:nonzero;"/><path d="M1259.954,501.548c1.375,5.5 2.75,11 4.167,16.667l8.333,0c6.681,14.616 9.252,25.598 8.333,41.667l-8.333,0c-1.375,4.125 -2.75,8.25 -4.167,12.5l-12.5,0c-2.909,-8.753 -5.764,-17.524 -8.594,-26.302c-1.595,-4.882 -3.19,-9.765 -4.834,-14.795c-3.239,-13.07 -3.239,-13.07 0.928,-25.57c8.333,-4.167 8.333,-4.167 16.667,-4.167Z" style="fill:#34402c;fill-rule:nonzero;"/><path d="M1264.12,734.881l4.167,0c4.688,27.604 4.688,27.604 0,41.667c8.25,-2.75 16.5,-5.5 25,-8.333c-1.375,13.75 -2.75,27.5 -4.167,41.667l-16.667,0c-1.375,5.5 -2.75,11 -4.167,16.667c-5.5,1.375 -11,2.75 -16.667,4.167c6.188,-47.438 6.188,-47.438 12.5,-95.833Z" style="fill:#495541;fill-rule:nonzero;"/><path d="M624.944,1267.808c6.201,0.028 12.403,0.078 18.604,0.146c3.161,0.019 6.322,0.038 9.578,0.057c7.832,0.049 15.663,0.124 23.494,0.203l0,4.167c-4.367,0.379 -4.367,0.379 -8.822,0.765c-3.792,0.349 -7.584,0.698 -11.491,1.058c-3.771,0.338 -7.541,0.677 -11.426,1.025c-9.975,0.776 -9.975,0.776 -18.262,5.485c7.826,7.826 20.997,5.796 31.51,6.51c4.99,0.349 9.979,0.698 15.12,1.058c3.862,0.252 7.724,0.505 11.702,0.765l0,4.167c-12.585,0.93 -25.168,1.788 -37.76,2.604c-3.531,0.269 -7.063,0.537 -10.701,0.814c-22.08,1.364 -38.991,-0.162 -59.871,-7.585c9.288,-9.288 17.047,-12.005 29.167,-16.667c4.167,-4.167 4.167,-4.167 19.157,-4.574Z" style="fill:#495340;fill-rule:nonzero;"/><path d="M1126.62,364.048c9.115,11.719 9.115,11.719 16.667,25c-1.375,4.125 -2.75,8.25 -4.167,12.5c-10.677,4.948 -10.677,4.948 -20.833,8.333c-1.418,-3.996 -1.418,-3.996 -2.865,-8.073c-4.854,-9.727 -4.854,-9.727 -16.406,-11.719c-3.266,-0.344 -6.531,-0.688 -9.896,-1.042c4.167,-12.5 4.167,-12.5 16.406,-19.531c12.76,-5.469 12.76,-5.469 21.094,-5.469Z" style="fill:#323d2b;fill-rule:nonzero;"/><path d="M601.62,162.225c12.5,1.823 12.5,1.823 25,10.156c11.026,-1.301 11.026,-1.301 20.833,-4.167c1.375,6.875 2.75,13.75 4.167,20.833l-45.833,0l0,-8.333c-9.625,1.375 -19.25,2.75 -29.167,4.167c9.156,-20.346 9.156,-20.346 25,-22.656Z" style="fill:#394532;fill-rule:nonzero;"/><path d="M655.787,889.048c-4.125,1.375 -8.25,2.75 -12.5,4.167c1.375,8.25 2.75,16.5 4.167,25c4.125,1.375 8.25,2.75 12.5,4.167c-22.728,-2.368 -41.294,-8.11 -62.5,-16.667c4.167,-12.5 4.167,-12.5 12.76,-20.052c17.76,-7.18 27.573,-2.411 45.573,3.385Z" style="fill:#434f3b;fill-rule:nonzero;"/><path d="M559.954,1339.048l25,0l0,12.5c-4.125,2.062 -4.125,2.062 -8.333,4.167c2.75,6.875 5.5,13.75 8.333,20.833c-4.641,-0.129 -4.641,-0.129 -9.375,-0.26c-11.006,-0.249 -11.006,-0.249 -19.401,2.604c-14.977,3.13 -27.529,-2.394 -42.057,-6.51c2.75,-4.125 5.5,-8.25 8.333,-12.5c9.017,-1.221 9.017,-1.221 19.271,-0.781c3.405,0.113 6.811,0.226 10.319,0.342c2.61,0.145 5.221,0.29 7.91,0.439l0,-20.833Z" style="fill:#48543d;fill-rule:nonzero;"/><path d="M889.12,1139.048c8.481,7.006 12.307,11.977 16.146,22.396c0.682,14.312 -3.124,20.702 -11.979,31.771l-12.5,0c-6.681,-14.616 -9.252,-25.598 -8.333,-41.667c5.5,-1.375 11,-2.75 16.667,-4.167l0,-8.333Z" style="fill:#394432;fill-rule:nonzero;"/><path d="M1059.954,972.381c6.875,1.375 13.75,2.75 20.833,4.167c-5.903,21.644 -20.505,36.091 -37.5,50l-8.333,0c0.773,-2.32 1.547,-4.641 2.344,-7.031c2.138,-11.298 0.423,-19.401 -2.344,-30.469c2.578,-0.43 5.156,-0.859 7.812,-1.302c10.376,-2.345 10.376,-2.345 17.188,-15.365Z" style="fill:#36432e;fill-rule:nonzero;"/><path d="M718.287,101.548c12.47,4.157 16.621,7.091 25,16.667l0,4.167l-33.333,0l0,125l-45.833,0l0,-4.167l41.667,0c-0.214,-3.699 -0.427,-7.399 -0.647,-11.21c-0.753,-13.758 -1.427,-27.516 -2.049,-41.28c-0.285,-5.95 -0.601,-11.9 -0.948,-17.847c-0.495,-8.562 -0.877,-17.123 -1.239,-25.692c-0.262,-5.15 -0.524,-10.299 -0.793,-15.605c1.51,-13.367 1.51,-13.367 9.888,-23.511c2.735,-2.152 5.47,-4.305 8.289,-6.523Z" style="fill:#535d4c;fill-rule:nonzero;"/><path d="M655.787,468.215c12.847,-0.243 25.693,-0.39 38.542,-0.521c5.454,-0.105 5.454,-0.105 11.019,-0.212c3.518,-0.027 7.036,-0.054 10.661,-0.081c3.229,-0.044 6.459,-0.087 9.786,-0.132c10.238,1.057 16.964,4.178 25.826,9.279c-6.875,1.375 -13.75,2.75 -20.833,4.167l0,-8.333l-75,0l0,-4.167Zm82.812,20.573c2.922,2.836 5.844,5.672 8.854,8.594c-17.042,4.791 -33.466,4.629 -51.042,4.427c-3.104,-0.019 -6.209,-0.038 -9.408,-0.057c-7.628,-0.049 -15.256,-0.124 -22.884,-0.203l0,-4.167c4.641,-0.516 9.281,-1.031 14.062,-1.562c15.233,-1.132 15.233,-1.132 23.438,-10.938c16.691,-5.193 22.189,-6.061 36.979,3.906Z" style="fill:#626d5b;fill-rule:nonzero;"/><path d="M597.454,26.548c7.375,-0.338 14.755,-0.58 22.135,-0.781c4.109,-0.145 8.218,-0.29 12.451,-0.439c11.247,1.221 11.247,1.221 16.927,7.414c9.138,8.451 14.874,8.066 27.181,8.439c5.861,0.222 5.861,0.222 11.841,0.448c4.069,0.094 8.137,0.188 12.329,0.285c4.117,0.142 8.234,0.285 12.476,0.431c10.164,0.344 20.326,0.632 30.493,0.871l0,4.167l-133.333,0l0,-4.167l20.833,0l0,-8.333l-37.5,0c1.375,-2.75 2.75,-5.5 4.167,-8.333Z" style="fill:#55614c;fill-rule:nonzero;"/><path d="M584.954,864.048c14.549,2.078 25.253,8.842 37.5,16.667c-4.125,6.188 -4.125,6.188 -8.333,12.5l-12.5,0l0,8.333c-12.341,-2.553 -18.252,-5.224 -29.167,-12.5c7.812,-20.312 7.812,-20.312 12.5,-25Z" style="fill:#3a4633;fill-rule:nonzero;"/><path d="M634.954,572.381c2.524,0.349 5.049,0.698 7.65,1.058c23.012,2.797 43.49,2.807 66.406,-0.814c10.913,-0.287 16.69,2.533 25.944,8.089c-6.875,1.375 -13.75,2.75 -20.833,4.167c1.375,6.875 2.75,13.75 4.167,20.833c-3.126,-2.941 -3.126,-2.941 -6.315,-5.941c-13.64,-8.643 -26.931,-9.888 -42.643,-11.507c-4.359,-0.512 -4.359,-0.512 -8.805,-1.034c-7.129,-0.83 -14.265,-1.597 -21.403,-2.352c-1.375,-4.125 -2.75,-8.25 -4.167,-12.5Z" style="fill:#333f2a;fill-rule:nonzero;"/><path d="M647.454,122.381l4.167,0l0,50c-34.896,0 -34.896,0 -54.167,-8.333l0,-4.167l20.833,0l0,-20.833c4.125,6.188 4.125,6.188 8.333,12.5l8.333,0l0,-16.667l8.333,0c1.375,-4.125 2.75,-8.25 4.167,-12.5Z" style="fill:#515b4b;fill-rule:nonzero;"/><path d="M918.287,155.715c5.5,1.375 11,2.75 16.667,4.167c-2.685,12.551 -6.876,22.986 -12.76,34.375c-1.509,2.943 -3.019,5.887 -4.574,8.919c-1.732,3.319 -1.732,3.319 -3.499,6.706c-2.75,-4.125 -5.5,-8.25 -8.333,-12.5c-8.644,-0.621 -8.644,-0.621 -16.667,4.167c7.414,-16.851 18.314,-31.087 29.167,-45.833Z" style="fill:#394530;fill-rule:nonzero;"/><path d="M1105.787,997.381c2.75,4.125 5.5,8.25 8.333,12.5c-1.375,2.75 -2.75,5.5 -4.167,8.333l20.833,0l0,12.5c4.125,1.375 8.25,2.75 12.5,4.167c-12.5,4.167 -12.5,4.167 -21.615,0.26c-2.492,-1.461 -4.984,-2.922 -7.552,-4.427c-2.75,5.5 -5.5,11 -8.333,16.667c-8.594,-7.292 -8.594,-7.292 -16.667,-16.667c0.439,-14.048 7.961,-22.735 16.667,-33.333Z" style="fill:#424c3b;fill-rule:nonzero;"/><path d="M884.954,609.881c6.875,1.375 13.75,2.75 20.833,4.167c-2.75,9.625 -5.5,19.25 -8.333,29.167l8.333,0l0,12.5c-8.25,4.125 -8.25,4.125 -16.667,8.333c-8.224,-19.836 -8.363,-33.187 -4.167,-54.167Z" style="fill:#33402b;fill-rule:nonzero;"/><path d="M708.912,899.204c4.877,0.424 9.754,0.849 14.779,1.286c3.717,0.349 7.434,0.698 11.263,1.058c-1.375,4.125 -2.75,8.25 -4.167,12.5c-23.375,-1.375 -46.75,-2.75 -70.833,-4.167c4.167,-8.333 4.167,-8.333 11.003,-11.051c12.986,-1.913 24.895,-0.801 37.956,0.374Z" style="fill:#2d3926;fill-rule:nonzero;"/><path d="M239.12,868.215l0,8.333c-5.5,1.375 -11,2.75 -16.667,4.167l0,16.667c-15.125,1.375 -30.25,2.75 -45.833,4.167l0,-12.5c8.848,-3.489 17.703,-6.958 26.562,-10.417c4.931,-1.934 9.861,-3.867 14.941,-5.859c12.663,-4.557 12.663,-4.557 20.996,-4.557Z" style="fill:#485440;fill-rule:nonzero;"/><path d="M559.954,1130.715c9.625,1.375 19.25,2.75 29.167,4.167c-8.333,8.333 -8.333,8.333 -16.667,8.333l0,20.833c-11,-2.75 -22,-5.5 -33.333,-8.333l0,-8.333l12.5,0l0,-8.333l8.333,0l0,-8.333Z" style="fill:#485440;fill-rule:nonzero;"/><path d="M664.12,593.215l41.667,0c2.604,9.896 2.604,9.896 4.167,20.833c-8.333,8.333 -8.333,8.333 -19.271,8.854c-3.266,-0.172 -6.531,-0.344 -9.896,-0.521c2.75,-1.375 5.5,-2.75 8.333,-4.167l0,-20.833l-25,0l0,-4.167Z" style="fill:#e2e6de;fill-rule:nonzero;"/><path d="M664.12,472.381l66.667,0c-1.375,4.125 -2.75,8.25 -4.167,12.5l-41.667,0l0,-4.167c-6.875,-1.375 -13.75,-2.75 -20.833,-4.167l0,-4.167Z" style="fill:#303e28;fill-rule:nonzero;"/><path d="M1368.287,739.048c5.5,1.375 11,2.75 16.667,4.167l0,33.333l-8.333,0c-2.75,2.75 -5.5,5.5 -8.333,8.333l0,-45.833Z" style="fill:#323f2a;fill-rule:nonzero;"/><path d="M509.954,564.048c1.375,4.125 2.75,8.25 4.167,12.5c8.396,3.055 8.396,3.055 16.667,4.167c-0.521,7.812 -0.521,7.812 -4.167,16.667c-12.76,5.208 -12.76,5.208 -25,8.333c2.75,-13.75 5.5,-27.5 8.333,-41.667Z" style="fill:#36412d;fill-rule:nonzero;"/><path d="M251.62,164.048c-10.323,23.227 -25.659,39.036 -45.833,54.167c2.065,-18.14 7.504,-26.253 20.573,-38.802c2.959,-2.906 5.919,-5.812 8.968,-8.805c7.959,-6.559 7.959,-6.559 16.292,-6.559Z" style="fill:#414b3b;fill-rule:nonzero;"/><path d="M97.454,601.548c4.125,1.375 8.25,2.75 12.5,4.167c-1.375,12.375 -2.75,24.75 -4.167,37.5c-4.125,1.375 -8.25,2.75 -12.5,4.167c-0.521,-31.771 -0.521,-31.771 4.167,-45.833Z" style="fill:#46533b;fill-rule:nonzero;"/><path d="M22.454,555.715c1.223,20.786 0.245,33.176 -12.5,50l-4.167,0c-0.641,-33.333 -0.641,-33.333 4.167,-45.833c8.333,-4.167 8.333,-4.167 12.5,-4.167Z" style="fill:#434e3b;fill-rule:nonzero;"/><path d="M1143.287,734.881l29.167,0c1.375,4.125 2.75,8.25 4.167,12.5l-12.5,0c-4.125,6.188 -4.125,6.188 -8.333,12.5l-12.5,0l0,-25Z" style="fill:#4b5544;fill-rule:nonzero;"/><path d="M634.954,651.548c4.125,1.375 8.25,2.75 12.5,4.167c-5.5,13.75 -11,27.5 -16.667,41.667c-2.75,-2.75 -5.5,-5.5 -8.333,-8.333c1.351,-15.871 3.566,-24.099 12.5,-37.5Z" style="fill:#424d3c;fill-rule:nonzero;"/><path d="M980.787,1039.048c5.5,2.75 11,5.5 16.667,8.333c-2.406,0.172 -4.812,0.344 -7.292,0.521c-14.096,5.482 -18.509,16.002 -26.042,28.646c-6.875,-1.375 -13.75,-2.75 -20.833,-4.167c4.641,-3.609 4.641,-3.609 9.375,-7.292c10.045,-8.219 19.127,-16.71 28.125,-26.042Z" style="fill:#434b3c;fill-rule:nonzero;"/><path d="M1014.12,1272.381c-12.5,8.333 -12.5,8.333 -20.833,8.333l0,12.5l-8.333,0l0,8.333c-5.5,-1.375 -11,-2.75 -16.667,-4.167c4.616,-13.849 6.185,-15.065 18.229,-21.875c2.524,-1.482 5.049,-2.965 7.65,-4.492c7.454,-2.799 7.454,-2.799 19.954,1.367Z" style="fill:#444f3e;fill-rule:nonzero;"/><path d="M634.954,572.381l0,8.333c-8.333,5.556 -16.667,11.111 -25,16.667l0,8.333c-9.896,7.031 -9.896,7.031 -20.833,12.5c-2.75,-1.375 -5.5,-2.75 -8.333,-4.167c11.872,-16.621 31.765,-41.667 54.167,-41.667Z" style="fill:#475040;fill-rule:nonzero;"/><path d="M634.954,572.381c24.646,1.884 47.3,4.826 70.833,12.5l0,4.167c-22,-1.375 -44,-2.75 -66.667,-4.167c-1.375,-4.125 -2.75,-8.25 -4.167,-12.5Z" style="fill:#2a3622;fill-rule:nonzero;"/><path d="M1214.12,897.381c8.25,2.062 8.25,2.062 16.667,4.167l0,20.833l-8.333,0c-1.375,2.75 -2.75,5.5 -4.167,8.333c-8.333,-12.5 -8.333,-12.5 -6.771,-23.698c0.859,-3.18 1.719,-6.359 2.604,-9.635Z" style="fill:#38452f;fill-rule:nonzero;"/><path d="M1343.287,801.548c1.223,23.637 0.023,37.461 -12.5,58.333c-4.38,-13.48 -3.829,-22.488 -0.521,-36.198c0.763,-3.282 1.525,-6.563 2.311,-9.945c3.61,-12.191 3.61,-12.191 10.71,-12.191Z" style="fill:#465141;fill-rule:nonzero;"/><path d="M768.287,176.548l37.5,0c-6.188,8.25 -6.188,8.25 -12.5,16.667c-9.625,-1.375 -19.25,-2.75 -29.167,-4.167c1.375,-4.125 2.75,-8.25 4.167,-12.5Z" style="fill:#313f28;fill-rule:nonzero;"/><path d="M18.287,597.381l0,75l-4.167,0c-1.375,-13.75 -2.75,-27.5 -4.167,-41.667l-4.167,0c-0.521,-11.979 -0.521,-11.979 0,-25c8.333,-8.333 8.333,-8.333 12.5,-8.333Z" style="fill:#2e3926;fill-rule:nonzero;"/><path d="M459.954,43.215l0,12.5c-4.89,0.757 -4.89,0.757 -9.88,1.53c-4.216,0.698 -8.433,1.396 -12.777,2.116c-4.206,0.677 -8.411,1.354 -12.744,2.051c-3.443,0.87 -6.886,1.74 -10.433,2.637c-1.375,2.75 -2.75,5.5 -4.167,8.333c-2.75,-2.75 -5.5,-5.5 -8.333,-8.333c7.365,-3.501 14.747,-6.967 22.135,-10.417c4.109,-1.934 8.218,-3.867 12.451,-5.859c11.247,-4.557 11.247,-4.557 23.747,-4.557Z" style="fill:#505849;fill-rule:nonzero;"/><path d="M351.62,1014.048c4.125,1.375 8.25,2.75 12.5,4.167c-12.375,11 -24.75,22 -37.5,33.333c-2.75,-1.375 -5.5,-2.75 -8.333,-4.167c11,-11 22,-22 33.333,-33.333Z" style="fill:#37402f;fill-rule:nonzero;"/><path d="M734.954,476.548c11.979,-0.521 11.979,-0.521 25,0c2.75,2.75 5.5,5.5 8.333,8.333l-12.5,0l0,8.333l-20.833,0l0,-16.667Z" style="fill:#33422c;fill-rule:nonzero;"/><path d="M414.12,1309.881l0,8.333c2.75,1.375 5.5,2.75 8.333,4.167c-9.375,4.948 -9.375,4.948 -20.833,8.333c-9.635,-5.729 -9.635,-5.729 -16.667,-12.5c19.792,-8.333 19.792,-8.333 29.167,-8.333Z" style="fill:#47523f;fill-rule:nonzero;"/><path d="M1068.287,1126.548c8.854,1.562 8.854,1.562 16.667,4.167c1.375,8.25 2.75,16.5 4.167,25l-12.5,0c-9.115,-10.417 -9.115,-10.417 -16.667,-20.833c2.75,-2.75 5.5,-5.5 8.333,-8.333Z" style="fill:#434a3b;fill-rule:nonzero;"/><path d="M601.62,872.381c10.312,4.125 10.312,4.125 20.833,8.333c-4.125,6.188 -4.125,6.188 -8.333,12.5l-12.5,0c-1.375,2.75 -2.75,5.5 -4.167,8.333c-2.604,-9.896 -2.604,-9.896 -4.167,-20.833c2.75,-2.75 5.5,-5.5 8.333,-8.333Z" style="fill:#35412c;fill-rule:nonzero;"/><path d="M1189.12,489.048l8.333,0c1.375,5.5 2.75,11 4.167,16.667c-9.81,5.956 -14.501,8.694 -26.042,6.771c-2.406,-0.859 -4.812,-1.719 -7.292,-2.604c2.75,-4.125 5.5,-8.25 8.333,-12.5l12.5,0l0,-8.333Z" style="fill:#323e2c;fill-rule:nonzero;"/><path d="M1.62,605.715c6.188,4.125 6.188,4.125 12.5,8.333c1.702,11.3 0.556,21.849 0,33.333l-12.5,0l0,-41.667Z" style="fill:#495243;fill-rule:nonzero;"/><path d="M1368.287,601.548l12.5,0c1.375,12.375 2.75,24.75 4.167,37.5c-5.5,-2.75 -11,-5.5 -16.667,-8.333c1.16,-3.738 1.16,-3.738 2.344,-7.552c2.743,-9.798 2.743,-9.798 -2.344,-21.615Z" style="fill:#333d2c;fill-rule:nonzero;"/><path d="M901.62,155.715c4.125,1.375 8.25,2.75 12.5,4.167c-5.289,16.308 -10.465,24.128 -25,33.333c4.125,-12.375 8.25,-24.75 12.5,-37.5Z" style="fill:#495142;fill-rule:nonzero;"/><path d="M1076.62,1222.381c4.125,2.75 8.25,5.5 12.5,8.333c-5.267,2.915 -10.569,5.768 -15.885,8.594c-2.949,1.595 -5.897,3.19 -8.936,4.834c-8.512,3.239 -8.512,3.239 -21.012,-0.928c11,-6.875 22,-13.75 33.333,-20.833Z" style="fill:#434c3c;fill-rule:nonzero;"/><path d="M1022.454,1297.381c1.375,4.125 2.75,8.25 4.167,12.5c-14.438,6.188 -14.438,6.188 -29.167,12.5l0,-12.5c13.889,-12.5 13.889,-12.5 25,-12.5Z" style="fill:#454e3b;fill-rule:nonzero;"/><path d="M818.287,714.048c2.75,1.375 5.5,2.75 8.333,4.167c-0.473,6.167 -1.005,12.33 -1.562,18.49c-0.435,5.148 -0.435,5.148 -0.879,10.4c-0.569,2.841 -1.139,5.683 -1.725,8.61c-4.125,2.062 -4.125,2.062 -8.333,4.167c-0.521,-31.771 -0.521,-31.771 4.167,-45.833Z" style="fill:#353e2e;fill-rule:nonzero;"/><path d="M968.287,1126.548c2.75,2.75 5.5,5.5 8.333,8.333c-12.755,10.933 -15.549,12.5 -33.333,12.5c-1.375,2.75 -2.75,5.5 -4.167,8.333l0,-12.5c9.625,-5.5 19.25,-11 29.167,-16.667Z" style="fill:#495442;fill-rule:nonzero;"/><path d="M1255.787,1101.548c1.375,5.5 2.75,11 4.167,16.667c-5.062,7.096 -5.062,7.096 -12.24,13.542c-2.358,2.17 -4.716,4.34 -7.145,6.576c-1.853,1.611 -3.706,3.223 -5.615,4.883c-2.75,-1.375 -5.5,-2.75 -8.333,-4.167c9.625,-12.375 19.25,-24.75 29.167,-37.5Z" style="fill:#dee3da;fill-rule:nonzero;"/><path d="M247.454,943.215c10.156,3.125 10.156,3.125 20.833,8.333c3.906,8.333 3.906,8.333 4.167,16.667c-2.75,2.75 -5.5,5.5 -8.333,8.333c-5.5,-11 -11,-22 -16.667,-33.333Z" style="fill:#eff2eb;fill-rule:nonzero;"/><path d="M1268.287,1001.548c4.125,1.375 8.25,2.75 12.5,4.167c-5.729,10.417 -5.729,10.417 -12.5,20.833l-8.333,0l0,8.333c-2.75,-1.375 -5.5,-2.75 -8.333,-4.167c5.5,-9.625 11,-19.25 16.667,-29.167Z" style="fill:#414a39;fill-rule:nonzero;"/><path d="M639.12,897.381c8.333,8.333 8.333,8.333 8.333,20.833c4.125,1.375 8.25,2.75 12.5,4.167c-9.625,-1.375 -19.25,-2.75 -29.167,-4.167c3.646,-16.146 3.646,-16.146 8.333,-20.833Z" style="fill:#515d4a;fill-rule:nonzero;"/><path d="M143.287,443.215c4.167,16.667 3.362,25.23 0,41.667c-4.125,-1.375 -8.25,-2.75 -12.5,-4.167c4.125,-12.375 8.25,-24.75 12.5,-37.5Z" style="fill:#535d4b;fill-rule:nonzero;"/><path d="M134.954,289.048c2.75,1.375 5.5,2.75 8.333,4.167c-1.375,5.5 -2.75,11 -4.167,16.667c-5.5,1.375 -11,2.75 -16.667,4.167c1.562,-10.156 1.562,-10.156 4.167,-20.833c2.75,-1.375 5.5,-2.75 8.333,-4.167Z" style="fill:#333e2b;fill-rule:nonzero;"/><path d="M630.787,168.215c6.875,1.375 13.75,2.75 20.833,4.167l0,12.5c-12.375,-2.062 -12.375,-2.062 -25,-4.167c1.375,-4.125 2.75,-8.25 4.167,-12.5Z" style="fill:#313d2a;fill-rule:nonzero;"/><path d="M747.454,97.381c14.062,-0.521 14.062,-0.521 29.167,0c2.75,2.75 5.5,5.5 8.333,8.333c-18.562,2.062 -18.562,2.062 -37.5,4.167l0,-12.5Z" style="fill:#3a4335;fill-rule:nonzero;"/><path d="M1147.454,555.715l0,8.333c-4.125,2.062 -4.125,2.062 -8.333,4.167c-2.731,10.531 -2.731,10.531 -4.167,20.833l-4.167,0c-1.586,-9.692 -2.97,-19.419 -4.167,-29.167c4.167,-4.167 4.167,-4.167 20.833,-4.167Z" style="fill:#4c5345;fill-rule:nonzero;"/><path d="M280.787,364.048l20.833,0c-4.125,6.875 -8.25,13.75 -12.5,20.833c-4.125,-2.75 -8.25,-5.5 -12.5,-8.333c1.375,-4.125 2.75,-8.25 4.167,-12.5Z" style="fill:#444e39;fill-rule:nonzero;"/><path d="M184.954,1105.715c6.875,6.875 13.75,13.75 20.833,20.833c-6.188,4.125 -6.188,4.125 -12.5,8.333c-6.086,-11.031 -8.333,-16.227 -8.333,-29.167Z" style="fill:#374131;fill-rule:nonzero;"/><path d="M1255.787,484.881l8.333,0c5.236,12.108 8.333,19.984 8.333,33.333l-8.333,0c-5.236,-12.108 -8.333,-19.984 -8.333,-33.333Z" style="fill:#464f40;fill-rule:nonzero;"/><path d="M922.454,43.215c12.24,1.562 12.24,1.562 25,4.167c1.375,2.75 2.75,5.5 4.167,8.333l-37.5,0c2.75,-4.125 5.5,-8.25 8.333,-12.5Z" style="fill:#323d2c;fill-rule:nonzero;"/></svg>