<?xml version="1.0" encoding="UTF-8" standalone="no"?><!DOCTYPE svg PUBLIC "-//W3C//DTD SVG 1.1//EN" "http://www.w3.org/Graphics/SVG/1.1/DTD/svg11.dtd"><svg width="100%" height="100%" viewBox="0 0 1055 1077" version="1.1" xmlns="http://www.w3.org/2000/svg" xmlns:xlink="http://www.w3.org/1999/xlink" xml:space="preserve" xmlns:serif="http://www.serif.com/" style="fill-rule:evenodd;clip-rule:evenodd;stroke-linejoin:round;stroke-miterlimit:2;"><path d="M674.276,111.902c15.831,12.687 30.945,26.103 46.049,39.646c4.366,3.611 8.745,7.208 13.135,10.791c9.596,8.122 17.628,15.831 25.667,25.407c7.743,9.147 15.489,18.099 23.796,26.742c28.92,30.329 51.209,64.411 73.747,99.615c4.169,6.484 8.438,12.904 12.744,19.297c78.857,121.571 111.781,286.881 87.891,429.085c-2.372,10.299 -4.983,20.546 -7.812,30.729c-0.806,2.947 -1.611,5.895 -2.441,8.931c-24.952,88.909 -72.939,172.724 -155.068,220.431c-90.317,49.694 -195.124,68.467 -296.514,41.366c-8.467,-2.534 -16.798,-5.317 -25.143,-8.228c-3.305,-1.141 -6.609,-2.281 -10.014,-3.457c-88.335,-31.306 -161.846,-79.972 -229.551,-144.722c-4.174,-3.987 -8.369,-7.952 -12.585,-11.894c-71.763,-67.196 -126.987,-153.442 -164.516,-244.094c-1.245,-2.967 -2.491,-5.934 -3.774,-8.99c-21.284,-51.502 -33.262,-102.76 -42.059,-157.676c-0.729,-3.996 -1.459,-7.993 -2.21,-12.11c-16.855,-111.061 3.706,-229.12 68.877,-321.223c2.009,-2.938 4.018,-5.876 6.087,-8.903c41.076,-57.757 95.675,-94.094 160.579,-120.264c6.76,-2.739 6.76,-2.739 13.656,-5.534c140.018,-46.4 306.334,8.833 419.462,95.054Z" style="fill:#3d4831;fill-rule:nonzero;"/><path d="M674.276,111.902c15.831,12.687 30.945,26.103 46.049,39.646c4.366,3.611 8.745,7.208 13.135,10.791c9.596,8.122 17.628,15.831 25.667,25.407c7.743,9.147 15.489,18.099 23.796,26.742c28.92,30.329 51.209,64.411 73.747,99.615c4.169,6.484 8.438,12.904 12.744,19.297c78.857,121.571 111.781,286.881 87.891,429.085c-2.372,10.299 -4.983,20.546 -7.812,30.729c-0.806,2.947 -1.611,5.895 -2.441,8.931c-24.952,88.909 -72.939,172.724 -155.068,220.431c-90.317,49.694 -195.124,68.467 -296.514,41.366c-8.467,-2.534 -16.798,-5.317 -25.143,-8.228c-3.305,-1.141 -6.609,-2.281 -10.014,-3.457c-88.335,-31.306 -161.846,-79.972 -229.551,-144.722c-4.174,-3.987 -8.369,-7.952 -12.585,-11.894c-71.763,-67.196 -126.987,-153.442 -164.516,-244.094c-1.245,-2.967 -2.491,-5.934 -3.774,-8.99c-21.284,-51.502 -33.262,-102.76 -42.059,-157.676c-0.729,-3.996 -1.459,-7.993 -2.21,-12.11c-16.855,-111.061 3.706,-229.12 68.877,-321.223c2.009,-2.938 4.018,-5.876 6.087,-8.903c41.076,-57.757 95.675,-94.094 160.579,-120.264c6.76,-2.739 6.76,-2.739 13.656,-5.534c140.018,-46.4 306.334,8.833 419.462,95.054Zm-441.451,93.813c-8.727,11.04 -14.574,20.591 -20.833,33.333c5.845,17.536 18.387,22.091 33.594,30.99c25.63,15.474 50.061,31.96 73.958,50c2.812,2.116 5.624,4.232 8.522,6.412c12.076,9.204 23.343,18.343 33.926,29.265c-27.291,-8.43 -53.007,-18.991 -78.906,-30.99c-46.364,-24.554 -46.364,-24.554 -96.094,-35.677c-37.075,124.797 -9.983,246.421 49.723,359.489c19.777,36.215 42.85,67.979 71.012,98.112c6.75,7.258 12.991,14.567 19.108,22.347c28.827,33.262 65.699,57.865 101.823,82.552c5.39,3.835 5.39,3.835 10.889,7.747c9.742,5.422 9.742,5.422 20.768,5.404c15.506,-7.463 18.747,-20.749 24.333,-36.068c1.212,-3.135 2.423,-6.269 3.671,-9.499c3.823,-9.994 7.509,-20.031 11.172,-30.084c1.235,-3.329 2.471,-6.657 3.743,-10.087c14.936,-35.783 14.936,-35.783 21.257,-73.246l8.333,0c-1.687,19.278 -3.391,38.555 -5.112,57.831c-0.583,6.555 -1.16,13.11 -1.733,19.666c-0.825,9.434 -1.668,18.866 -2.514,28.298c-0.252,2.922 -0.504,5.843 -0.763,8.853c-1.231,13.552 -2.914,26.403 -6.545,39.519c-0.269,5.897 -0.359,11.806 -0.26,17.708c0.086,5.156 0.172,10.312 0.26,15.625c78.424,21.182 150.538,19.073 222.933,-20.296c46.584,-27.188 74.785,-65.187 97.9,-113.037c1.794,-3.701 3.588,-7.401 5.436,-11.214c41.429,-94.199 24.227,-212.975 -10.4,-306.382c-37.193,-94.807 -101.48,-179.381 -182.536,-240.737c-3.282,-2.562 -6.563,-5.124 -9.945,-7.764c-122.57,-91.37 -297.128,-105.754 -406.722,11.93Z" style="fill:#f3f5f0;fill-rule:nonzero;"/><path d="M674.276,111.902c15.831,12.687 30.945,26.103 46.049,39.646c4.366,3.611 8.745,7.208 13.135,10.791c9.596,8.122 17.628,15.831 25.667,25.407c7.743,9.147 15.489,18.099 23.796,26.742c28.92,30.329 51.209,64.411 73.747,99.615c4.169,6.484 8.438,12.904 12.744,19.297c78.857,121.571 111.781,286.881 87.891,429.085c-2.372,10.299 -4.983,20.546 -7.812,30.729c-0.806,2.947 -1.611,5.895 -2.441,8.931c-24.952,88.909 -72.939,172.724 -155.068,220.431c-90.317,49.694 -195.124,68.467 -296.514,41.366c-8.467,-2.534 -16.798,-5.317 -25.143,-8.228c-3.305,-1.141 -6.609,-2.281 -10.014,-3.457c-88.335,-31.306 -161.846,-79.972 -229.551,-144.722c-4.174,-3.987 -8.369,-7.952 -12.585,-11.894c-71.763,-67.196 -126.987,-153.442 -164.516,-244.094c-1.245,-2.967 -2.491,-5.934 -3.774,-8.99c-21.284,-51.502 -33.262,-102.76 -42.059,-157.676c-0.729,-3.996 -1.459,-7.993 -2.21,-12.11c-16.855,-111.061 3.706,-229.12 68.877,-321.223c2.009,-2.938 4.018,-5.876 6.087,-8.903c41.076,-57.757 95.675,-94.094 160.579,-120.264c6.76,-2.739 6.76,-2.739 13.656,-5.534c140.018,-46.4 306.334,8.833 419.462,95.054Zm-441.972,-44.989c-2.823,1.451 -5.645,2.901 -8.553,4.396c-85.958,45.55 -131.838,124.49 -161.906,213.899c-36.51,135.174 4.927,288.93 70.98,408.008c2.208,3.986 2.208,3.986 4.46,8.053c78.909,140.574 208.733,263.913 365.68,310.425c34.304,8.953 67.403,12.017 102.777,11.731c3.98,0.032 7.96,0.064 12.061,0.098c84.09,-0.228 155.36,-31.664 216.26,-89.258c37.186,-39.228 61.067,-81.598 77.93,-132.715c1.719,-5.21 3.438,-10.42 5.208,-15.788c10.754,-36.072 13.537,-67.574 11.458,-105.046c-12.375,-4.125 -24.75,-8.25 -37.5,-12.5c0.145,-6.096 0.29,-12.192 0.439,-18.473c1.569,-93.472 -13.818,-175.979 -54.606,-260.693c10.312,-2.062 10.312,-2.062 20.833,-4.167c-2.553,-12.341 -5.224,-18.252 -12.5,-29.167c-12.375,2.062 -12.375,2.062 -25,4.167c-2.272,-3.679 -4.544,-7.358 -6.885,-11.149c-20.637,-32.999 -42.724,-63.426 -68.115,-93.018c-2.224,-2.734 -4.447,-5.468 -6.738,-8.285c-28.356,-34.564 -64.733,-62.539 -101.595,-87.549l-8.333,0c1.375,-2.32 2.75,-4.641 4.167,-7.031c4.836,-11.183 5.754,-18.408 4.167,-30.469c-11.73,-9.489 -11.73,-9.489 -25,-8.333c-2.75,6.875 -5.5,13.75 -8.333,20.833c-15.332,-2.413 -29.001,-7.051 -43.396,-12.791c-74.179,-29.532 -153.168,-40.691 -231.604,-20.542c-16.146,-23.438 -16.146,-23.438 -20.833,-37.5c67.803,-12.035 128.786,-10.629 195.833,4.167c8.33,1.666 16.663,3.318 25,4.948c5.556,1.124 11.112,2.251 16.667,3.385c-10.941,-10.941 -23.126,-14.072 -37.5,-18.75c-3.891,-1.329 -3.891,-1.329 -7.861,-2.686c-41.689,-13.784 -81.106,-17.485 -124.951,-17.367c-4.958,-0.067 -9.915,-0.134 -15.023,-0.203c-45.883,-0.025 -86.906,8.068 -127.686,29.37Z" style="fill:#3f4935;fill-rule:nonzero;"/><path d="M578.659,347.382c56.305,29.809 85.329,70.154 108.919,128.402c9.948,36.854 9.84,86.508 -6.982,121.11c-14.503,20.962 -33.064,36.656 -55.583,48.405c-47.691,7.631 -82.098,-1.696 -122.135,-28.125c-45.425,-33.714 -73.684,-81.383 -86.719,-136.458c-4.877,-42.533 -0.589,-77.39 25,-112.5c38.384,-38.384 89.003,-43.814 137.5,-20.833Z" style="fill:#3e4932;fill-rule:nonzero;"/><path d="M578.659,347.382c56.305,29.809 85.329,70.154 108.919,128.402c9.948,36.854 9.84,86.508 -6.982,121.11c-14.503,20.962 -33.064,36.656 -55.583,48.405c-47.691,7.631 -82.098,-1.696 -122.135,-28.125c-45.425,-33.714 -73.684,-81.383 -86.719,-136.458c-4.877,-42.533 -0.589,-77.39 25,-112.5c38.384,-38.384 89.003,-43.814 137.5,-20.833Zm-108.333,41.667c-19.906,26.971 -23.724,54.848 -20.833,87.5c9.86,46.959 35.419,89.446 75,116.667c27.588,15.758 55.949,22.043 87.5,16.667c25.977,-9.834 38.729,-25.205 50,-50c12.338,-39.416 4.237,-78.791 -13.558,-114.714c-18.563,-33.585 -43.544,-59.76 -79.671,-74.186c-34.491,-8.725 -73.764,-10.888 -98.438,18.066Z" style="fill:#f3f5f0;fill-rule:nonzero;"/><path d="M420.325,884.882c17.087,3.883 32.303,10.981 48.177,18.229c68.972,30.812 143.391,43.938 217.008,22.005c9.814,-2.734 9.814,-2.734 22.314,-2.734c2.118,5.194 4.193,10.406 6.25,15.625c1.16,2.9 2.32,5.801 3.516,8.789c2.734,8.919 2.734,8.919 2.734,25.586c-8.5,2.712 -17.009,5.397 -25.521,8.073c-4.737,1.499 -9.475,2.997 -14.355,4.541c-99.174,28.126 -193.004,-5.733 -280.957,-50.114c2.401,-19.812 10.628,-33.21 20.833,-50Z" style="fill:#3f4a35;fill-rule:nonzero;"/><path d="M207.825,651.548c6.066,9.279 11.544,18.463 16.927,28.125c39.454,67.782 91.649,129.422 155.827,175.212c6.413,4.997 6.413,4.997 10.579,13.33c-4.15,9.928 -4.15,9.928 -10.156,21.354c-1.971,3.792 -3.942,7.584 -5.973,11.491c-1.552,2.911 -3.104,5.822 -4.704,8.822c-87.325,-31.547 -168.755,-140.198 -209.375,-221.094c-2.498,-5.438 -4.962,-10.894 -7.292,-16.406c14.692,-15.946 32.515,-28.051 54.167,-20.833Z" style="fill:#404a35;fill-rule:nonzero;"/><path d="M86.992,334.882c5.906,0.48 11.808,1.011 17.708,1.562c3.287,0.29 6.574,0.58 9.961,0.879c10.229,1.795 17.367,5.258 26.497,10.059c0.058,4.457 0.058,4.457 0.118,9.005c1.368,83.571 6.744,160.329 40.833,237.366c4.883,11.963 4.883,11.963 4.883,24.463c-6.673,2.804 -13.36,5.576 -20.052,8.333c-3.722,1.547 -7.444,3.094 -11.279,4.688c-10.335,3.646 -10.335,3.646 -22.835,3.646c-38.303,-93.555 -65.785,-198.457 -45.833,-300Z" style="fill:#404a36;fill-rule:nonzero;"/><path d="M272.93,79.934c15.764,7.882 20.117,22.473 26.562,38.281c-3.223,2.068 -6.445,4.136 -9.766,6.266c-75.525,49.259 -111.946,104.703 -140.234,189.567c-19.047,-2.286 -36.143,-5.906 -54.167,-12.5c15.287,-83.386 61.708,-152.457 130.518,-201.286c30.258,-19.127 30.258,-19.127 47.087,-20.329Z" style="fill:#404a35;fill-rule:nonzero;"/><path d="M882.825,697.382c12.375,4.125 24.75,8.25 37.5,12.5c-3.262,72.852 -41.789,143.746 -91.667,195.833c-55.152,50 -55.152,50 -79.167,50c-2.107,-5.981 -4.184,-11.973 -6.25,-17.969c-1.16,-3.335 -2.32,-6.671 -3.516,-10.107c-2.734,-9.424 -2.734,-9.424 -2.734,-21.924c8.708,-6.283 8.708,-6.283 20.573,-13.021c66.638,-41.008 103.337,-107.372 122.396,-182.031c0.945,-4.383 1.891,-8.766 2.865,-13.281Z" style="fill:#404935;fill-rule:nonzero;"/><path d="M999.492,18.215c11.722,0.345 18.965,2.577 27.93,10.205c17.725,19.092 17.725,19.092 18.343,33.057c-7.037,16.659 -19.514,24.124 -34.033,34.342c-2.953,2.136 -5.906,4.273 -8.948,6.474c-9.389,6.757 -18.839,13.422 -28.292,20.089c-6.224,4.479 -12.447,8.961 -18.669,13.444c-5.925,4.207 -11.854,8.406 -17.79,12.598c-4.166,2.986 -4.166,2.986 -8.416,6.032c-14.341,9.936 -20.53,13.759 -38.459,13.759c2.016,-19.514 10.926,-31.551 22.917,-46.354c1.86,-2.353 3.719,-4.706 5.636,-7.131c5.718,-7.207 11.491,-14.366 17.281,-21.515c5.06,-6.284 5.06,-6.284 10.221,-12.695c17.099,-21.054 34.515,-41.808 52.279,-62.305Z" style="fill:#414b37;fill-rule:nonzero;"/><path d="M1049.492,214.048c8.075,16.15 4.373,36.386 4.167,54.167c-31.794,0.56 -62.901,-1.014 -94.531,-4.167c-4.165,-0.397 -8.331,-0.795 -12.622,-1.204c-10.118,-0.968 -20.233,-1.956 -30.347,-2.962c-2.604,-7.812 -2.604,-7.812 -4.167,-16.667c14.372,-14.372 35.249,-15.143 54.688,-19.271c4.254,-0.956 8.508,-1.912 12.891,-2.897c23.844,-5.149 45.537,-8.11 69.922,-6.999Z" style="fill:#47503e;fill-rule:nonzero;"/><path d="M826.055,0.767c3.298,-0.059 6.596,-0.118 9.993,-0.179c9.277,0.96 9.277,0.96 21.777,9.294c-2.417,28.592 -10.007,54.079 -19.01,81.25c-1.372,4.222 -2.745,8.443 -4.159,12.793c-3.361,10.328 -6.75,20.646 -10.164,30.957c-6.875,-1.375 -13.75,-2.75 -20.833,-4.167c-0.103,-17.726 -0.178,-35.451 -0.229,-53.177c-0.021,-6.034 -0.049,-12.069 -0.085,-18.103c-0.05,-8.657 -0.074,-17.313 -0.093,-25.969c-0.022,-5.215 -0.044,-10.43 -0.066,-15.803c0.737,-18.618 5.937,-16.759 22.869,-16.896Z" style="fill:#3e4733;fill-rule:nonzero;"/><path d="M920.325,709.882c8.333,8.333 8.333,8.333 8.968,15.918c-3.273,35.109 -14.457,67.504 -25.635,100.749c-1.375,-2.75 -2.75,-5.5 -4.167,-8.333c-4.125,1.375 -8.25,2.75 -12.5,4.167c3.859,-11.9 7.842,-23.712 12.305,-35.4c9.681,-25.467 16.596,-50.213 21.029,-77.1Z" style="fill:#e4e8e0;fill-rule:nonzero;"/><path d="M420.325,884.882c8.073,1.562 8.073,1.562 16.667,4.167c1.375,2.75 2.75,5.5 4.167,8.333c-4.862,4.862 -9.784,9.668 -14.844,14.323c-7.01,6.728 -7.01,6.728 -10.156,19.01c-8.594,2.865 -8.594,2.865 -16.667,4.167c2.401,-19.812 10.628,-33.21 20.833,-50Z" style="fill:#474e3e;fill-rule:nonzero;"/><path d="M899.492,818.215c-2.296,16.455 -5.789,30.622 -12.5,45.833c-2.75,-1.375 -5.5,-2.75 -8.333,-4.167c-10.933,5.796 -10.933,5.796 -20.833,12.5c1.203,-2.39 2.406,-4.78 3.646,-7.243c3.004,-6.04 5.96,-12.103 8.854,-18.197c1.375,-2.863 2.75,-5.726 4.167,-8.675c1.375,-2.895 2.75,-5.79 4.167,-8.773c5.652,-9.648 9.748,-11.279 20.833,-11.279Z" style="fill:#eceee8;fill-rule:nonzero;"/><path d="M524.492,705.715l8.333,0l0,54.167c-8.25,1.375 -16.5,2.75 -25,4.167c1.992,-7.38 3.99,-14.758 5.99,-22.135c1.112,-4.109 2.224,-8.218 3.369,-12.451c2.228,-7.977 4.689,-15.89 7.308,-23.747Z" style="fill:#d9dfd4;fill-rule:nonzero;"/><path d="M545.325,72.382c-16.561,5.52 -28.546,0.831 -44.792,-3.646c-21.171,-5.727 -41.754,-10.34 -63.542,-13.021l0,-4.167c37.775,-9.686 73.386,7.377 108.333,20.833Z" style="fill:#c0c7b8;fill-rule:nonzero;"/><path d="M949.492,780.715c4.518,16.663 7.254,32.856 4.167,50c-6.008,9.957 -12.516,16.683 -20.833,25c-7.023,-14.046 1.297,-28.001 5.99,-42.188c1.012,-3.142 2.025,-6.284 3.068,-9.521c2.509,-7.773 5.055,-15.533 7.609,-23.291Z" style="fill:#dbded5;fill-rule:nonzero;"/><path d="M340.638,333.319c11.115,7.192 17.714,15.967 25.521,26.562c-18.287,-2.771 -33.255,-9.115 -50,-16.667c13.542,-13.542 13.542,-13.542 24.479,-9.896Z" style="fill:#e9ede1;fill-rule:nonzero;"/><path d="M816.435,1.141c5.148,0.073 5.148,0.073 10.4,0.146c3.443,0.038 6.886,0.075 10.433,0.114c2.659,0.048 5.317,0.097 8.057,0.146c-12.5,8.333 -12.5,8.333 -37.5,12.5l0,58.333l-4.167,0c-0.112,-11.025 -0.195,-22.048 -0.26,-33.073c-0.035,-3.145 -0.07,-6.29 -0.106,-9.53c-0.036,-8.022 0.149,-16.045 0.366,-24.064c4.167,-4.167 4.167,-4.167 12.777,-4.574Z" style="fill:#696f62;fill-rule:nonzero;"/><path d="M911.992,872.382c2.75,1.375 5.5,2.75 8.333,4.167c-9.625,16.5 -19.25,33 -29.167,50c-2.75,-2.75 -5.5,-5.5 -8.333,-8.333c2.778,-5.556 5.556,-11.111 8.333,-16.667c1.289,-2.836 2.578,-5.672 3.906,-8.594c4.647,-8.473 9.809,-14.102 16.927,-20.573Z" style="fill:#484e3f;fill-rule:nonzero;"/><path d="M141.159,184.882c2.75,5.5 5.5,11 8.333,16.667c-2.578,2.32 -5.156,4.641 -7.812,7.031c-9.109,9.912 -12.97,17.817 -17.188,30.469l-8.333,0c5.887,-20.114 14.291,-36.318 25,-54.167Z" style="fill:#4a5142;fill-rule:nonzero;"/><path d="M949.492,76.548c1.375,2.75 2.75,5.5 4.167,8.333c-8.24,16.938 -19.739,28.807 -33.333,41.667c0,-15.848 4.741,-19.904 14.583,-32.031c2.707,-3.368 5.414,-6.735 8.203,-10.205c2.105,-2.562 4.211,-5.124 6.38,-7.764Z" style="fill:#4b5243;fill-rule:nonzero;"/><path d="M491.159,59.882c-13.059,8.706 -16.56,9.474 -31.51,9.375c-4.906,0.032 -4.906,0.032 -9.912,0.065c-8.577,-1.107 -8.577,-1.107 -16.911,-9.44c19.971,-5.798 38.131,-2.861 58.333,0Z" style="fill:#48503e;fill-rule:nonzero;"/><path d="M270.325,80.715c-3.125,10.156 -3.125,10.156 -8.333,20.833c-8.854,3.385 -8.854,3.385 -16.667,4.167c-2.75,-4.125 -5.5,-8.25 -8.333,-12.5c23.958,-12.5 23.958,-12.5 33.333,-12.5Z" style="fill:#48523d;fill-rule:nonzero;"/><path d="M920.325,709.882c2.75,2.75 5.5,5.5 8.333,8.333c-0.098,9.928 -0.098,9.928 -1.562,21.354c-0.462,3.792 -0.924,7.584 -1.4,11.491c-0.397,2.911 -0.795,5.822 -1.204,8.822l-8.333,0c-0.34,-17.339 0.073,-33.114 4.167,-50Z" style="fill:#dde1d7;fill-rule:nonzero;"/><path d="M453.659,80.715l0,8.333c-12.009,4.003 -19.577,4.608 -32.031,4.427c-5.052,-0.056 -5.052,-0.056 -10.205,-0.114c-3.843,-0.073 -3.843,-0.073 -7.764,-0.146c15.67,-15.67 29.053,-13.547 50,-12.5Z" style="fill:#444e3b;fill-rule:nonzero;"/><path d="M86.992,334.882c5.5,1.375 11,2.75 16.667,4.167c-2.75,9.625 -5.5,19.25 -8.333,29.167c-8.333,-8.333 -8.333,-8.333 -8.854,-21.354c0.172,-3.953 0.344,-7.906 0.521,-11.979Z" style="fill:#4b5040;fill-rule:nonzero;"/><path d="M366.159,847.382c13.171,5.708 16.636,8.288 25,20.833c-4.125,6.188 -4.125,6.188 -8.333,12.5c-16.667,-23.958 -16.667,-23.958 -16.667,-33.333Z" style="fill:#4b5244;fill-rule:nonzero;"/><path d="M207.825,651.548c-1.375,2.75 -2.75,5.5 -4.167,8.333c-2.75,-1.375 -5.5,-2.75 -8.333,-4.167c-1.375,2.75 -2.75,5.5 -4.167,8.333l-8.333,0c-4.125,2.062 -4.125,2.062 -8.333,4.167c-2.75,-2.75 -5.5,-5.5 -8.333,-8.333c27.604,-13.021 27.604,-13.021 41.667,-8.333Z" style="fill:#5b6253;fill-rule:nonzero;"/><path d="M516.159,859.882c10.933,12.755 12.5,15.549 12.5,33.333l-12.5,0l0,-33.333Z" style="fill:#5a5e51;fill-rule:nonzero;"/><path d="M261.992,176.548c2.75,1.375 5.5,2.75 8.333,4.167c-4.167,12.5 -4.167,12.5 -16.667,20.833c-4.125,-1.375 -8.25,-2.75 -12.5,-4.167c6.875,-6.875 13.75,-13.75 20.833,-20.833Z" style="fill:#495142;fill-rule:nonzero;"/></svg>