<?xml version="1.0" encoding="UTF-8" standalone="no"?><!DOCTYPE svg PUBLIC "-//W3C//DTD SVG 1.1//EN" "http://www.w3.org/Graphics/SVG/1.1/DTD/svg11.dtd"><svg width="100%" height="100%" viewBox="0 0 1303 1081" version="1.1" xmlns="http://www.w3.org/2000/svg" xmlns:xlink="http://www.w3.org/1999/xlink" xml:space="preserve" xmlns:serif="http://www.serif.com/" style="fill-rule:evenodd;clip-rule:evenodd;stroke-linejoin:round;stroke-miterlimit:2;"><path d="M1106.603,7.698c79.072,27.756 131.155,90.628 167.822,163.59c13.99,30.108 24.276,58.076 26.921,91.406c0.274,2.825 0.548,5.65 0.83,8.561c1.64,30.884 -5.722,65.154 -22.803,91.195c-5.371,5.713 -5.371,5.713 -15.527,12.744l-12.5,0c2.399,-9.94 5.093,-19.445 8.333,-29.167c-5.5,1.375 -11,2.75 -16.667,4.167c1.203,-2.922 2.406,-5.844 3.646,-8.854c19.987,-51.078 16.695,-95.425 -4.354,-146.002c-27.346,-60.436 -76.301,-121.123 -139.299,-146.543c-18.737,-5.188 -36.687,-6.291 -55.827,-2.767c-14.243,9.97 -19.419,15.937 -24.219,32.552c-0.258,3.008 -0.516,6.016 -0.781,9.115c4.125,-2.75 8.25,-5.5 12.5,-8.333c16.792,-9.351 31.083,-11.943 50,-8.333c57.003,16.399 94.169,54.865 125,104.167c10.362,18.909 19.521,36.215 16.667,58.333l-8.333,0c0.859,4.211 1.719,8.422 2.604,12.76c1.759,18.469 -0.788,28.327 -6.771,45.573l-4.167,0c-0.322,-5.156 -0.322,-5.156 -0.651,-10.417c-5.278,-53.74 -26.743,-105.275 -64.909,-144.417c-22.188,-18.018 -48.906,-33.446 -77.93,-35.531c-18.22,3.516 -24.493,9.125 -35.677,23.698c-1.375,4.125 -2.75,8.25 -4.167,12.5l-8.333,0c0.172,4.039 0.344,8.078 0.521,12.24c-0.038,18.431 -2.269,37.138 -8.854,54.427c-4.125,2.75 -8.25,5.5 -12.5,8.333c-2.704,-8.59 -5.392,-17.184 -8.073,-25.781c-1.499,-4.786 -2.997,-9.571 -4.541,-14.502c-5.457,-18.696 -8.771,-35.283 -8.48,-54.769c0.038,-3.292 0.075,-6.585 0.114,-9.977c0.073,-3.698 0.073,-3.698 0.146,-7.471c-26.636,16.057 -26.636,16.057 -41.667,41.667c-1.675,28.819 -2.065,56.099 8.333,83.333c1.375,3.711 2.75,7.423 4.167,11.247c24.661,63.356 64.228,117.071 120.833,155.42c2.594,1.762 5.188,3.523 7.861,5.339c24.795,14.555 51.452,14.635 79.639,15.495l0,12.5c6,9.043 6,9.043 12.5,16.667c-10.968,6.398 -19.623,8.935 -32.275,11.507c-18.259,4.479 -30.953,13.631 -45.068,25.732c-5.103,4.187 -10.214,8.364 -15.332,12.533c-2.593,2.128 -5.186,4.257 -7.857,6.449c-12.283,9.886 -24.986,19.16 -37.748,28.414c-5.246,3.819 -10.493,7.639 -15.739,11.458c-2.712,1.971 -5.423,3.942 -8.217,5.973c-15.759,11.488 -31.443,23.076 -47.137,34.652c-4.943,3.64 -4.943,3.64 -9.985,7.353c-17.397,12.812 -34.769,25.656 -52.108,38.546c-3.514,2.606 -7.028,5.212 -10.649,7.897c-6.673,4.949 -13.338,9.908 -19.995,14.878c-8.953,6.632 -17.982,13.14 -27.055,19.608c-2.852,2.111 -5.703,4.222 -8.642,6.398c-19.783,13.756 -30.225,15.68 -54.64,11.571c-43.738,-3.684 -71.797,25.761 -103.516,52.148c-3.556,3.01 -7.111,6.021 -10.775,9.123c-12.74,10.6 -25.991,20.199 -39.616,29.614c-26.903,18.954 -53.353,38.485 -79.706,58.197c-59.561,44.238 -59.561,44.238 -86.961,43.105c-4.05,-0.091 -8.1,-0.183 -12.272,-0.277c-12.207,-1.546 -12.207,-1.546 -25.13,-6.624c-11.835,-4.641 -11.835,-4.641 -20.996,1.318c-2.9,2.702 -5.801,5.403 -8.789,8.187c-19.084,16.627 -38.774,31.644 -59.375,46.354c-3.17,2.292 -6.341,4.584 -9.607,6.945c-16.918,12.21 -33.954,24.2 -51.2,35.943c-3.424,2.37 -6.848,4.741 -10.376,7.183c-6.558,4.535 -13.159,9.008 -19.808,13.409c-20.029,13.961 -27.381,23.288 -31.925,48.239c-12.684,21.309 -31.658,32.453 -54.167,41.667c-31.847,5.743 -56.904,-7.589 -83.333,-25c-32.662,-28.124 -64.062,-72.183 -67.66,-116.357c-0.828,-37.802 -0.828,-37.802 7.243,-56.299c33.945,-34.793 33.945,-34.793 55.127,-36.702c4.066,-0.005 8.132,-0.011 12.321,-0.016c31.656,-1.265 49.598,-18.796 72.644,-38.387c14.552,-11.911 29.995,-22.608 45.325,-33.488c27.769,-19.852 54.911,-40.311 81.641,-61.54c10.026,-7.21 10.026,-7.21 18.359,-7.21c-0.145,-2.32 -0.29,-4.641 -0.439,-7.031c-1.017,-28.671 1.258,-50.823 20.996,-72.754c20.888,-19.551 43.742,-36.27 67.16,-52.618c23.342,-16.337 45.938,-33.58 68.533,-50.93c27.995,-21.478 56.138,-42.623 85.059,-62.842c18.014,-11.326 18.014,-11.326 27.262,-29.248c0.978,-6.941 1.933,-13.886 2.865,-20.833c10.345,-35.049 32.888,-54.099 61.898,-74.577c7.463,-5.426 14.923,-10.857 22.38,-16.292c3.85,-2.783 7.701,-5.566 11.668,-8.433c19.537,-14.269 38.69,-29.034 57.88,-43.764c43.27,-33.06 43.27,-33.06 64.844,-48.698c3.33,-2.417 6.66,-4.834 10.091,-7.324c7.154,-5.129 14.321,-10.238 21.525,-15.295c10.681,-7.51 21.303,-15.099 31.925,-22.693c3.425,-2.375 6.849,-4.749 10.378,-7.196c22.282,-16.037 35.198,-31.496 48.476,-55.304c13.361,-19.12 29.557,-31.672 48.177,-45.313c2.944,-2.182 5.888,-4.365 8.921,-6.613c85.963,-63.151 85.963,-63.151 143.992,-48.904Z" style="fill:#3f4834;fill-rule:nonzero;"/><path d="M893.013,187.695c1.676,6.059 1.676,6.059 3.385,12.24c27.286,94.854 74.941,178.791 163.151,229.036c5.555,2.991 11.154,5.902 16.797,8.724c-5.57,16.711 -16.5,22.266 -30.469,31.771c-5.396,3.76 -10.789,7.525 -16.178,11.296c-4.046,2.818 -4.046,2.818 -8.175,5.693c-10.628,7.485 -21.009,15.275 -31.376,23.116c-27.956,21.097 -56.162,41.846 -84.375,62.598c-14.514,10.676 -29.008,21.377 -43.49,32.096c-3.62,2.676 -7.24,5.353 -10.969,8.111c-6.984,5.165 -13.965,10.334 -20.941,15.509c-3.139,2.319 -6.278,4.639 -9.512,7.028c-2.769,2.051 -5.538,4.102 -8.391,6.214c-18.789,13.239 -38.928,12.047 -61.124,9.069c-69.24,-27.221 -109.064,-85.601 -138.462,-150.875c-9.178,-21.362 -12.68,-38.827 -12.579,-62.146c-0.021,-4.995 -0.043,-9.99 -0.065,-15.137c1.337,-16.323 4.321,-25.558 16.595,-36.629c2.849,-2.038 5.697,-4.077 8.632,-6.177c3.201,-2.32 6.402,-4.641 9.701,-7.031c5.172,-3.674 5.172,-3.674 10.449,-7.422c7.261,-5.249 14.52,-10.501 21.777,-15.755c3.632,-2.616 7.264,-5.231 11.007,-7.926c14.732,-10.674 29.263,-21.603 43.778,-32.568c27.879,-20.989 55.941,-41.723 84.073,-62.372c14.833,-10.897 29.631,-21.824 44.264,-32.99c2.33,-1.774 4.659,-3.548 7.06,-5.376c6.058,-4.631 12.098,-9.286 18.136,-13.943c8.968,-6.152 8.968,-6.152 17.301,-6.152Z" style="fill:#fcfcfb;fill-rule:nonzero;"/><path d="M1106.603,7.698c79.072,27.756 131.155,90.628 167.822,163.59c13.99,30.108 24.276,58.076 26.921,91.406c0.274,2.825 0.548,5.65 0.83,8.561c1.64,30.884 -5.722,65.154 -22.803,91.195c-5.371,5.713 -5.371,5.713 -15.527,12.744l-12.5,0c2.399,-9.94 5.093,-19.445 8.333,-29.167c-5.5,1.375 -11,2.75 -16.667,4.167c1.203,-2.922 2.406,-5.844 3.646,-8.854c19.987,-51.078 16.695,-95.425 -4.354,-146.002c-27.346,-60.436 -76.301,-121.123 -139.299,-146.543c-18.737,-5.188 -36.687,-6.291 -55.827,-2.767c-14.243,9.97 -19.419,15.937 -24.219,32.552c-0.258,3.008 -0.516,6.016 -0.781,9.115c4.125,-2.75 8.25,-5.5 12.5,-8.333c16.792,-9.351 31.083,-11.943 50,-8.333c57.003,16.399 94.169,54.865 125,104.167c10.362,18.909 19.521,36.215 16.667,58.333l-8.333,0c0.859,4.211 1.719,8.422 2.604,12.76c1.759,18.469 -0.788,28.327 -6.771,45.573l-4.167,0c-0.215,-3.438 -0.43,-6.875 -0.651,-10.417c-5.278,-53.74 -26.743,-105.275 -64.909,-144.417c-22.188,-18.018 -48.906,-33.446 -77.93,-35.531c-18.22,3.516 -24.493,9.125 -35.677,23.698c-1.375,4.125 -2.75,8.25 -4.167,12.5l-8.333,0c0.172,4.039 0.344,8.078 0.521,12.24c-0.038,18.431 -2.269,37.138 -8.854,54.427c-4.125,2.75 -8.25,5.5 -12.5,8.333c-2.704,-8.59 -5.392,-17.184 -8.073,-25.781c-1.499,-4.786 -2.997,-9.571 -4.541,-14.502c-5.457,-18.696 -8.771,-35.283 -8.48,-54.769c0.038,-3.292 0.075,-6.585 0.114,-9.977c0.048,-2.465 0.097,-4.931 0.146,-7.471c-26.636,16.057 -26.636,16.057 -41.667,41.667c-1.675,28.819 -2.065,56.099 8.333,83.333c1.375,3.711 2.75,7.423 4.167,11.247c24.661,63.356 64.228,117.071 120.833,155.42c2.594,1.762 5.188,3.523 7.861,5.339c24.795,14.555 51.452,14.635 79.639,15.495l0,12.5c6,9.043 6,9.043 12.5,16.667c-10.968,6.398 -19.623,8.935 -32.275,11.507c-18.259,4.479 -30.953,13.631 -45.068,25.732c-5.103,4.187 -10.214,8.364 -15.332,12.533c-2.593,2.128 -5.186,4.257 -7.857,6.449c-12.283,9.886 -24.986,19.16 -37.748,28.414c-5.246,3.819 -10.493,7.639 -15.739,11.458c-2.712,1.971 -5.423,3.942 -8.217,5.973c-15.759,11.488 -31.443,23.076 -47.137,34.652c-3.295,2.426 -6.59,4.853 -9.985,7.353c-17.397,12.812 -34.769,25.656 -52.108,38.546c-3.514,2.606 -7.028,5.212 -10.649,7.897c-6.673,4.949 -13.338,9.908 -19.995,14.878c-8.953,6.632 -17.982,13.14 -27.055,19.608c-2.852,2.111 -5.703,4.222 -8.642,6.398c-19.783,13.756 -30.225,15.68 -54.64,11.571c-43.738,-3.684 -71.797,25.761 -103.516,52.148c-3.556,3.01 -7.111,6.021 -10.775,9.123c-12.74,10.6 -25.991,20.198 -39.616,29.614c-23.829,16.812 -47.368,33.986 -70.833,51.302c-3.411,2.517 -6.823,5.034 -10.337,7.627c-17.845,13.106 -17.845,13.106 -35.315,26.7c-10.136,6.995 -16.773,6.521 -28.827,5.517c-0.945,-2.664 -1.891,-5.328 -2.865,-8.073c-4.854,-9.727 -4.854,-9.727 -16.406,-11.719c-3.266,-0.344 -6.531,-0.688 -9.896,-1.042l0,-4.167c4.12,-0.859 8.239,-1.719 12.484,-2.604c20.063,-5.762 34.255,-17.769 50.277,-30.729c6.271,-4.939 12.548,-9.871 18.831,-14.795c3.102,-2.442 6.205,-4.884 9.401,-7.399c12.807,-9.914 25.96,-19.285 39.215,-28.587c19.251,-13.573 38.139,-27.515 56.771,-41.927c2.24,-1.733 4.48,-3.465 6.788,-5.25c9.754,-7.558 19.493,-15.134 29.231,-22.712c2.981,-2.288 5.962,-4.576 9.033,-6.934c2.508,-1.944 5.017,-3.889 7.601,-5.892c6.201,-4.004 6.201,-4.004 14.535,-4.004l0,-8.333c-2.342,-1.031 -4.684,-2.062 -7.096,-3.125c-46.509,-25.311 -79.665,-72.65 -103.06,-118.75c-2.14,-4.21 -2.14,-4.21 -4.323,-8.505c-7.882,-16.237 -12.685,-30.629 -14.687,-48.786c-4.297,2.578 -8.594,5.156 -13.021,7.812c-13.291,7.633 -26.391,12.869 -41.146,17.188c-0.736,-14.642 -0.144,-27.594 4.167,-41.667c8.333,-7.796 8.333,-7.796 18.49,-14.583c14.637,-9.535 14.637,-9.535 22.607,-24.463c1.746,-10.504 1.746,-10.504 2.197,-20.443c7.807,-34.883 32.978,-54.153 60.872,-73.844c7.463,-5.426 14.923,-10.857 22.38,-16.292c3.85,-2.783 7.701,-5.566 11.668,-8.433c19.537,-14.269 38.69,-29.034 57.88,-43.764c43.27,-33.06 43.27,-33.06 64.844,-48.698c3.33,-2.417 6.66,-4.834 10.091,-7.324c7.154,-5.129 14.321,-10.238 21.525,-15.295c10.681,-7.51 21.303,-15.099 31.925,-22.693c3.425,-2.375 6.849,-4.749 10.378,-7.196c22.282,-16.037 35.198,-31.496 48.476,-55.304c13.361,-19.12 29.557,-31.672 48.177,-45.313c2.944,-2.182 5.888,-4.365 8.921,-6.613c85.963,-63.151 85.963,-63.151 143.992,-48.904Zm-238.184,191.618c-3.324,2.519 -6.649,5.037 -10.074,7.632c-3.599,2.756 -7.198,5.511 -10.906,8.351c-7.636,5.792 -15.275,11.581 -22.917,17.367c-5.825,4.418 -5.825,4.418 -11.768,8.925c-16.794,12.664 -33.759,25.089 -50.732,37.51c-33.015,24.206 -65.617,48.928 -98.062,73.892c-28.816,22.105 -28.816,22.105 -43.784,31.414c-10.997,7.809 -14.968,11.373 -18.831,24.121c-8.055,65.034 19.517,120.162 56.738,171.859c25.941,31.836 63.574,60.945 103.239,72.786c40.341,3.715 67.619,-22.564 97.666,-45.959c8.461,-6.582 17.004,-13.028 25.608,-19.421c10.939,-8.131 21.843,-16.307 32.715,-24.528c18.964,-14.31 38.078,-28.413 57.21,-42.497c3.299,-2.434 6.598,-4.868 9.997,-7.375c16.014,-11.8 32.072,-23.531 48.239,-35.122c2.924,-2.108 5.848,-4.216 8.861,-6.387c5.494,-3.954 11.003,-7.887 16.53,-11.794c6.216,-4.485 12.231,-9.247 18.196,-14.061l0,-8.333c-2.224,-1.117 -4.447,-2.234 -6.738,-3.385c-85.748,-45.099 -139.926,-123.076 -168.408,-214.648c-2.928,-10.621 -5.691,-21.237 -8.187,-31.966c-11.479,0 -15.5,4.68 -24.593,11.621Z" style="fill:#3e4833;fill-rule:nonzero;"/><path d="M1067.231,40.039c48.731,0.631 84.705,31.066 117.448,64.323c2.653,2.659 5.307,5.317 8.04,8.057c41.562,44.425 71.324,105.126 73.47,166.423c-0.944,23.917 -7.24,42.363 -19.01,63.021c-1.375,2.75 -2.75,5.5 -4.167,8.333c5.5,-1.375 11,-2.75 16.667,-4.167c-2.399,9.94 -5.093,19.445 -8.333,29.167c2.75,1.375 5.5,2.75 8.333,4.167c-12.914,9.662 -25.856,19.287 -38.802,28.906c-3.671,2.747 -7.342,5.495 -11.125,8.325c-3.531,2.618 -7.063,5.237 -10.701,7.935c-3.251,2.422 -6.502,4.844 -9.852,7.339c-8.686,5.828 -8.686,5.828 -21.186,9.995c-4.125,-1.375 -8.25,-2.75 -12.5,-4.167c-4.167,-12.5 -4.167,-12.5 0,-20.833c-3.378,-0.011 -6.757,-0.021 -10.238,-0.033c-57.093,-1.994 -91.892,-27.165 -131.429,-66.634c-2.61,-2.562 -5.221,-5.124 -7.91,-7.764c-43.555,-46.019 -75.566,-110.289 -76.465,-173.747c-0.107,-4.56 -0.215,-9.12 -0.326,-13.818c1.84,-17.499 8.122,-27.917 20.264,-40.43c17.678,-14.242 17.678,-14.242 26.937,-14.242c0.612,5.446 0.612,5.446 1.237,11.003c4.29,34.171 11.608,65.115 23.763,97.331c7.111,-23.365 12.129,-46.843 16.667,-70.833l8.333,0c0.387,-4.641 0.387,-4.641 0.781,-9.375c4.624,-15.652 10.128,-20.03 24.219,-28.125c31.891,-5.595 56.912,7.688 83.333,25c41.199,34.149 68.884,87.006 77.083,139.583c0.688,7.562 1.375,15.125 2.083,22.917c1.375,-17.875 2.75,-35.75 4.167,-54.167l8.333,0c-13.82,-56.976 -46.034,-108.246 -96.615,-139.583c-25.312,-13.806 -49.013,-23.445 -78.385,-18.75c-11.724,4.601 -22.522,10.226 -33.333,16.667c1.559,-22.352 8.316,-31.235 25,-45.833c6.908,-6.908 14.697,-5.54 24.219,-5.99Z" style="fill:#3e4833;fill-rule:nonzero;"/><path d="M572.179,483.528c1.166,3.33 2.331,6.66 3.532,10.091c24.262,66.466 59.97,124.882 119.954,164.551c1.875,1.493 3.749,2.986 5.68,4.525l0,8.333c-6.025,5.257 -6.025,5.257 -14.502,11.198c-3.106,2.203 -6.212,4.406 -9.412,6.676c-3.366,2.352 -6.733,4.703 -10.201,7.126c-6.944,4.925 -13.883,9.857 -20.817,14.795c-3.431,2.442 -6.863,4.884 -10.398,7.399c-12.831,9.252 -25.318,18.862 -37.795,28.587c-20.851,16.218 -42.068,31.762 -63.721,46.884c-14.221,9.985 -27.38,20.59 -40.446,32.022c-15.991,12.414 -28.518,16.397 -48.779,14.795c-35.414,-9.411 -65.112,-40.226 -85.596,-69.482c-17.448,-32.349 -35.081,-66.356 -29.167,-104.167c9.525,-23.209 29.976,-34.964 49.74,-48.958c7.239,-5.223 14.476,-10.448 21.712,-15.674c3.501,-2.51 7.001,-5.021 10.608,-7.607c11.758,-8.478 23.322,-17.173 34.867,-25.938c30.232,-22.771 61.015,-44.785 91.756,-66.86c5.697,-4.136 11.292,-8.413 16.813,-12.781c7.837,-5.516 7.837,-5.516 16.17,-5.516Z" style="fill:#fbfbf9;fill-rule:nonzero;"/><path d="M297.179,741.861c12.5,4.167 12.5,4.167 18.164,13.281c2.868,5.801 2.868,5.801 5.794,11.719c14.066,26.904 29.566,53.739 55.208,70.833l0,8.333c-10.272,7.806 -20.592,15.149 -31.25,22.396c-6.549,4.533 -13.092,9.074 -19.629,13.623c-3.339,2.324 -6.679,4.647 -10.12,7.041c-14.79,10.436 -29.252,21.284 -43.689,32.2c-2.709,2.034 -5.418,4.067 -8.209,6.163c-14.015,10.53 -27.943,21.158 -41.791,31.907c-5.555,4.238 -11.11,8.476 -16.667,12.712c-2.514,1.993 -5.029,3.986 -7.619,6.039c-11.534,8.716 -19.841,13.583 -34.259,15.64c-22.357,-3.587 -37.33,-17.758 -51.709,-34.652c-11.538,-16.641 -19.138,-33.723 -20.182,-54.118c3.811,-19.055 19.988,-27.63 35.124,-38.118c4.104,-2.976 8.207,-5.951 12.435,-9.017c9.602,-6.946 19.262,-13.804 28.955,-20.622c19.561,-13.81 38.826,-28.016 58.089,-42.236c3.267,-2.409 6.535,-4.819 9.901,-7.301c3.167,-2.339 6.335,-4.678 9.598,-7.087c4.622,-3.396 4.622,-3.396 9.338,-6.86c6.252,-4.681 12.427,-9.466 18.53,-14.339c2.942,-2.328 5.884,-4.657 8.915,-7.056c2.606,-2.115 5.211,-4.23 7.896,-6.409c3.552,-2.016 3.552,-2.016 7.176,-4.073Z" style="fill:#f9faf7;fill-rule:nonzero;"/><path d="M1084.679,100.195c54.374,18.865 85.747,57.244 110.792,107.246c13.063,29.02 15.667,57.166 10.041,88.587c-7.07,14.61 -11.334,20.056 -25,29.167c-22.175,4.716 -39.406,0.458 -58.854,-10.677c-49.834,-33.223 -84.985,-85.149 -99.479,-143.49c-3.364,-22.274 0.105,-39.299 12.5,-58.333c13.943,-15.493 30.425,-16.288 50,-12.5Z" style="fill:#f9faf7;fill-rule:nonzero;"/><path d="M976.346,100.195c0.36,3.486 0.72,6.972 1.09,10.563c10.88,90.133 48.394,172.982 118.555,232.34c26.135,18.846 54.384,33.295 84.521,44.596c-16.8,18 -29.544,26.204 -54.427,27.083c-46.754,-1.057 -80.699,-33.097 -112.24,-64.583c-2.61,-2.562 -5.221,-5.124 -7.91,-7.764c-43.555,-46.019 -75.566,-110.289 -76.465,-173.747c-0.107,-4.56 -0.215,-9.12 -0.326,-13.818c1.84,-17.499 8.122,-27.917 20.264,-40.43c17.678,-14.242 17.678,-14.242 26.937,-14.242Z" style="fill:#f9faf7;fill-rule:nonzero;"/><path d="M247.179,733.528c4.125,1.375 8.25,2.75 12.5,4.167c-1.375,5.5 -2.75,11 -4.167,16.667c5.5,2.75 11,5.5 16.667,8.333c-35.982,29.784 -73.73,57.114 -111.385,84.721c-13.095,9.627 -26.132,19.331 -39.136,29.081c-3.878,2.906 -7.756,5.812 -11.751,8.805c-8.07,5.885 -8.07,5.885 -12.728,10.726c-1.334,25.977 6.258,45.456 21.257,66.309c13.08,14.372 28.597,24.164 45.41,33.691c-2.583,1.225 -5.167,2.449 -7.829,3.711c-9.211,4.348 -9.211,4.348 -16.911,11.914c-8.594,5.208 -8.594,5.208 -18.229,3.646c-26.807,-16.209 -47.314,-39.289 -57.031,-69.271c-3.616,-17.974 -6.224,-35.958 -8.333,-54.167c-4.125,2.75 -8.25,5.5 -12.5,8.333c-5.508,32.252 1.016,55.566 16.667,83.333c-1.375,4.125 -2.75,8.25 -4.167,12.5c1.375,2.75 2.75,5.5 4.167,8.333c-6.188,4.125 -6.188,4.125 -12.5,8.333c1.375,4.125 2.75,8.25 4.167,12.5c-15.645,-6.095 -21.37,-13.754 -29.688,-28.125c-2.073,-3.502 -4.146,-7.004 -6.283,-10.612c-15.091,-29.838 -17.32,-57.407 -14.03,-90.43c9.701,-22.233 28.115,-39.434 50,-50c11.377,-1.025 11.377,-1.025 23.698,-1.042c31.593,-1.262 49.483,-18.706 72.479,-38.259c15.375,-12.572 31.666,-23.917 47.833,-35.439c6.344,-4.55 12.686,-9.101 19.027,-13.656c2.71,-1.939 5.42,-3.877 8.212,-5.875c8.187,-5.774 8.187,-5.774 16.477,-12.966c2.675,-1.737 5.35,-3.474 8.106,-5.264Z" style="fill:#3d4732;fill-rule:nonzero;"/><path d="M59.679,887.695c0.107,2.874 0.215,5.747 0.326,8.708c2.707,44.85 16.41,77.092 49.674,107.959c10.386,7.598 10.386,7.598 20.833,8.333c5.625,-4.072 11.172,-8.253 16.667,-12.5c6.108,-2.981 12.277,-5.838 18.49,-8.594c28.694,-13.897 52.665,-33.985 77.344,-53.906c2.062,4.125 2.062,4.125 4.167,8.333l8.333,0l0,8.333c5.5,2.75 11,5.5 16.667,8.333c-11.702,12.491 -23.542,21.414 -38.021,30.469c-17.171,11.692 -17.171,11.692 -26.042,30.469c-0.859,4.641 -1.719,9.281 -2.604,14.062c-12.684,21.309 -31.658,32.453 -54.167,41.667c-31.856,5.745 -56.678,-8 -83.333,-25c-10.438,-8.701 -18.791,-17.003 -25,-29.167c0,-11.979 0,-11.979 4.167,-20.833c2.75,-1.375 5.5,-2.75 8.333,-4.167c0,-16.493 -0.321,-18.564 -8.333,-31.25c-11.283,-21.398 -13.094,-45.121 -8.333,-68.75c13.263,-12.5 13.263,-12.5 20.833,-12.5Z" style="fill:#414b36;fill-rule:nonzero;"/><path d="M789.713,126.73c2.464,0.868 4.928,1.737 7.467,2.632c2.062,10.312 2.062,10.312 4.167,20.833c-30.4,25.823 -61.99,49.645 -94.177,73.17c-22.393,16.387 -44.529,33.058 -66.5,50.007c-36.15,27.801 -72.914,54.672 -110.156,80.99c-3.005,2.14 -6.01,4.279 -9.106,6.484c-8.555,6.061 -17.16,12.041 -25.789,17.995c-2.552,1.814 -5.104,3.628 -7.733,5.496c-17.58,11.921 -17.58,11.921 -29.93,10.682c-3.271,-1.563 -3.271,-1.563 -6.608,-3.158c6.454,-16.796 18.235,-26.382 31.771,-37.5c2.383,-1.988 4.766,-3.976 7.221,-6.024c20.969,-17.299 42.671,-33.557 64.525,-49.713c20.114,-14.926 39.641,-30.434 58.982,-46.346c27.153,-22.299 54.878,-43.644 83.138,-64.518c11.909,-8.806 23.633,-17.812 35.286,-26.953c3.019,-2.341 6.037,-4.683 9.147,-7.095c5.805,-4.509 11.579,-9.057 17.318,-13.649c19.738,-15.207 19.738,-15.207 30.977,-13.332Z" style="fill:#404835;fill-rule:nonzero;"/><path d="M1067.231,40.039c48.731,0.631 84.705,31.066 117.448,64.323c2.653,2.659 5.307,5.317 8.04,8.057c41.562,44.425 71.324,105.126 73.47,166.423c-1.245,28.075 -7.275,51.956 -28.125,71.615c-16.521,5.507 -31.969,4.921 -49.219,3.906c7.551,-7.639 15.194,-14.931 23.177,-22.135c20.773,-22.903 20.551,-49.377 20.052,-79.004c-5.34,-53.064 -37.031,-105.006 -75.228,-141.406c-27.363,-21.098 -61.353,-38.069 -96.305,-37.874c-15.882,2.164 -28.908,9.805 -42.529,17.92c1.559,-22.352 8.316,-31.235 25,-45.833c6.908,-6.908 14.697,-5.54 24.219,-5.99Z" style="fill:#f2f4ef;fill-rule:nonzero;"/><path d="M1076.606,549.934c6.059,0.129 6.059,0.129 12.24,0.26c2.062,10.312 2.062,10.312 4.167,20.833c-27.095,22.635 -55.279,43.24 -84.192,63.459c-18.59,13.003 -37.044,26.163 -55.377,39.524c-31.767,23.147 -63.9,45.696 -96.368,67.85c-3.801,2.596 -7.602,5.192 -11.518,7.866c-10.535,7.155 -21.111,14.242 -31.711,21.3c-4.711,3.19 -4.711,3.19 -9.517,6.445c-2.907,1.912 -5.814,3.824 -8.809,5.794c-2.51,1.67 -5.021,3.341 -7.607,5.062c-7.399,3.532 -7.399,3.532 -24.066,3.532c1.994,-17.627 11.102,-24.039 24.479,-34.896c2.189,-1.78 4.378,-3.56 6.634,-5.393c22.934,-18.403 46.69,-35.722 70.439,-53.051c25.531,-18.635 50.715,-37.681 75.792,-56.92c36.992,-28.352 74.541,-55.84 112.52,-82.852c11.681,-8.586 11.681,-8.586 22.896,-8.814Z" style="fill:#3f4834;fill-rule:nonzero;"/><path d="M876.346,246.028c1.221,11.491 1.221,11.491 0,25c-7.861,8.301 -7.861,8.301 -19.531,16.146c-4.602,3.207 -9.197,6.425 -13.786,9.652c-2.615,1.811 -5.23,3.621 -7.924,5.487c-17.519,12.432 -34.432,25.684 -51.467,38.767c-36.996,28.249 -74.17,56.252 -111.458,84.115c-3.153,2.535 -6.306,5.07 -9.554,7.682c-7.113,4.818 -7.113,4.818 -16.488,3.516c-2.406,-0.945 -4.812,-1.891 -7.292,-2.865c-1.375,-5.5 -2.75,-11 -4.167,-16.667c26.386,-21.971 53.093,-43.194 80.664,-63.656c12.186,-9.069 24.265,-18.273 36.328,-27.507c5.701,-4.362 5.701,-4.362 11.517,-8.812c7.534,-5.77 15.063,-11.545 22.587,-17.328c10.699,-8.185 21.448,-16.298 32.237,-24.364c3.758,-2.818 7.517,-5.637 11.389,-8.541c3.664,-2.671 7.329,-5.342 11.104,-8.093c3.284,-2.411 6.568,-4.822 9.951,-7.306c9.222,-5.227 9.222,-5.227 25.889,-5.227Z" style="fill:#404935;fill-rule:nonzero;"/><path d="M555.513,537.695c2.062,8.25 2.062,8.25 4.167,16.667c-22.15,19.441 -45.102,37.371 -68.75,54.948c-5.455,4.057 -5.455,4.057 -11.02,8.196c-7.382,5.488 -14.766,10.972 -22.153,16.454c-9.787,7.312 -19.496,14.714 -29.181,22.16c-5.517,4.189 -11.035,8.377 -16.553,12.565c-2.481,1.943 -4.963,3.885 -7.52,5.887c-13.954,10.484 -23.053,15.526 -40.658,13.124c-1.375,-5.5 -2.75,-11 -4.167,-16.667c43.406,-34.567 87.517,-68.148 132.125,-101.149c6.325,-4.762 12.57,-9.633 18.726,-14.612c2.867,-2.291 5.734,-4.583 8.687,-6.944c2.49,-2.05 4.98,-4.1 7.546,-6.212c10.054,-5.608 17.419,-5.212 28.75,-4.416Z" style="fill:#414936;fill-rule:nonzero;"/><path d="M285.721,780.664c2.406,0.945 4.812,1.891 7.292,2.865c-1.291,13.05 -2.887,19.465 -11.963,29.167c-3.529,2.75 -7.058,5.5 -10.693,8.333c-4.082,3.19 -8.164,6.381 -12.37,9.668c-26.985,20.285 -54.415,39.971 -81.924,59.536c-5.679,4.089 -11.235,8.352 -16.693,12.732c-10.156,7.044 -16.761,6.572 -28.856,5.564c-1.253,-9.391 -1.253,-9.391 0,-20.833c8.154,-8.187 8.154,-8.187 20.052,-16.406c4.543,-3.215 9.084,-6.432 13.623,-9.652c2.555,-1.779 5.109,-3.557 7.741,-5.389c16.966,-11.963 33.567,-24.43 50.25,-36.782c9.708,-7.146 19.421,-14.286 29.134,-21.425c5.827,-4.304 11.551,-8.751 17.188,-13.302c7.845,-5.377 7.845,-5.377 17.22,-4.075Z" style="fill:#404835;fill-rule:nonzero;"/><path d="M59.679,887.695c0.107,2.874 0.215,5.747 0.326,8.708c2.419,40.08 13.079,70.314 40.446,100.195c17.55,14.764 38.316,23.698 59.229,32.764c-2.75,4.125 -5.5,8.25 -8.333,12.5c-20.989,3.257 -32.886,2.013 -50.26,-10.417c-29.574,-24.751 -58.918,-54.369 -63.818,-94.027c-0.925,-24.796 -0.925,-24.796 1.579,-37.223c13.263,-12.5 13.263,-12.5 20.833,-12.5Z" style="fill:#f1f3ed;fill-rule:nonzero;"/><path d="M268.013,762.695l0,12.5c2.062,6.188 2.062,6.188 4.167,12.5c-2.136,1.571 -4.273,3.141 -6.474,4.76c-9.997,7.352 -19.991,14.708 -29.985,22.063c-3.599,2.646 -7.197,5.293 -10.905,8.019c-24.326,17.911 -48.475,36.025 -72.428,54.432c-9.375,6.559 -9.375,6.559 -21.875,10.726c-2.75,-2.75 -5.5,-5.5 -8.333,-8.333c14.612,-21.123 33.561,-34.22 54.167,-48.958c7.103,-5.152 14.205,-10.306 21.305,-15.462c3.462,-2.502 6.925,-5.003 10.492,-7.581c13.379,-9.714 26.617,-19.607 39.817,-29.561c3.926,-2.954 7.853,-5.908 11.898,-8.952c2.691,-2.03 5.382,-4.061 8.154,-6.152Z" style="fill:#eef1e9;fill-rule:nonzero;"/><path d="M1226.346,225.195c14.188,21.282 10.517,46.001 8.333,70.833c-5.178,20.182 -11.334,33.5 -28.125,46.094c-4.641,1.934 -4.641,1.934 -9.375,3.906c-3.008,-1.977 -6.016,-3.953 -9.115,-5.99c-11.28,-6.267 -19.894,-8.869 -32.552,-10.677l0,-4.167c5.242,-0.945 10.484,-1.891 15.885,-2.865c11.902,-3.112 16.65,-4.671 25.521,-13.542c6.645,-19.152 7.57,-38.442 8.594,-58.594l4.167,0c1.375,12.375 2.75,24.75 4.167,37.5c1.375,-17.875 2.75,-35.75 4.167,-54.167l8.333,0l0,-8.333Z" style="fill:#49523f;fill-rule:nonzero;"/><path d="M1059.679,129.361c29.072,-3.769 42.954,4.369 66.243,21.566c8.757,7.601 8.757,7.601 17.09,20.101c-1.562,11.198 -1.562,11.198 -4.167,20.833c-11.875,-4.071 -20.355,-7.923 -29.948,-16.146c-16.328,-12.337 -34.271,-18.543 -53.385,-25.521c1.375,-6.875 2.75,-13.75 4.167,-20.833Z" style="fill:#434c3a;fill-rule:nonzero;"/><path d="M409.093,422.167c2.943,0.999 5.887,1.998 8.919,3.027c-1.094,13.594 -4.69,17.152 -14.925,26.644c-4.452,3.404 -8.941,6.761 -13.46,10.075c-2.226,1.748 -4.453,3.497 -6.746,5.298c-16.599,12.393 -16.599,12.393 -28.979,11.157c-2.218,-1.047 -4.437,-2.095 -6.722,-3.174c1.126,-14.592 3.218,-19.907 13.867,-30.306c4.018,-2.89 8.035,-5.779 12.174,-8.757c3.975,-2.954 7.949,-5.908 12.044,-8.952c11.914,-6.152 11.914,-6.152 23.828,-5.013Z" style="fill:#454c3a;fill-rule:nonzero;"/><path d="M726.346,816.861c-1.126,14.592 -3.218,19.907 -13.867,30.306c-4.018,2.89 -8.035,5.779 -12.174,8.757c-3.975,2.954 -7.949,5.908 -12.044,8.952c-11.914,6.152 -11.914,6.152 -23.828,5.013c-2.943,-0.999 -5.887,-1.998 -8.919,-3.027c1.277,-12.883 4.14,-16.642 13.867,-25.586c4.018,-2.9 8.035,-5.801 12.174,-8.789c3.975,-2.943 7.949,-5.887 12.044,-8.919c12.446,-7.005 18.762,-8.237 32.747,-6.706Z" style="fill:#454c3a;fill-rule:nonzero;"/><path d="M1093.013,16.861c4.125,2.75 8.25,5.5 12.5,8.333c-13.146,3.901 -24.858,4.607 -38.542,4.427c-3.717,-0.038 -7.434,-0.075 -11.263,-0.114c-2.814,-0.048 -5.629,-0.097 -8.529,-0.146c1.375,4.125 2.75,8.25 4.167,12.5c-3.266,2.492 -6.531,4.984 -9.896,7.552c-11.545,8.743 -11.545,8.743 -19.271,21.615l-8.333,0c-2.75,-8.25 -5.5,-16.5 -8.333,-25c22.581,-33.278 49.25,-34.597 87.5,-29.167Z" style="fill:#3a4530;fill-rule:nonzero;"/><path d="M1013.846,71.028c4.125,2.062 4.125,2.062 8.333,4.167l0,12.5c4.125,-2.75 8.25,-5.5 12.5,-8.333c17.295,-10.045 30.305,-9.715 50,-8.333l0,8.333c-8.25,4.125 -8.25,4.125 -16.667,8.333c9.625,2.75 19.25,5.5 29.167,8.333l0,8.333c-17.875,-1.375 -35.75,-2.75 -54.167,-4.167l0,-8.333c-2.492,1.375 -4.984,2.75 -7.552,4.167c-9.115,4.167 -9.115,4.167 -21.615,4.167l0,-29.167Z" style="fill:#4b5342;fill-rule:nonzero;"/><path d="M993.013,516.861c4.125,4.125 8.25,8.25 12.5,12.5c-2.664,1.203 -5.328,2.406 -8.073,3.646c-9.227,3.972 -9.227,3.972 -12.76,13.021l8.333,0l0,8.333c-9.115,4.948 -9.115,4.948 -20.833,8.333c-11.719,-5.729 -11.719,-5.729 -20.833,-12.5c8.771,-15.519 13.511,-23.665 30.208,-30.729c3.781,-0.859 7.562,-1.719 11.458,-2.604Z" style="fill:#38432c;fill-rule:nonzero;"/><path d="M622.179,246.028c2.75,2.75 5.5,5.5 8.333,8.333c-4.125,6.875 -8.25,13.75 -12.5,20.833c5.5,-1.375 11,-2.75 16.667,-4.167c-29.167,29.167 -29.167,29.167 -45.833,29.167c-1.375,-4.125 -2.75,-8.25 -4.167,-12.5c3.094,-3.008 6.188,-6.016 9.375,-9.115c10.179,-10.41 19.242,-21.037 28.125,-32.552Z" style="fill:#3b4430;fill-rule:nonzero;"/><path d="M659.679,396.028c2.75,1.375 5.5,2.75 8.333,4.167l0,8.333c5.5,2.75 11,5.5 16.667,8.333c-4.463,3.623 -8.989,7.167 -13.542,10.677c-2.514,1.982 -5.027,3.964 -7.617,6.006c-8.008,4.15 -8.008,4.15 -17.318,2.702c-2.428,-0.897 -4.855,-1.794 -7.357,-2.718c-1.375,-5.5 -2.75,-11 -4.167,-16.667c8.25,-6.875 16.5,-13.75 25,-20.833Z" style="fill:#48503e;fill-rule:nonzero;"/><path d="M1209.679,212.695c5.5,2.75 11,5.5 16.667,8.333l0,12.5l-8.333,0c0.859,4.211 1.719,8.422 2.604,12.76c1.759,18.469 -0.788,28.327 -6.771,45.573l-4.167,0c-1.618,-11.627 -3.172,-23.256 -4.688,-34.896c-0.467,-3.309 -0.935,-6.617 -1.416,-10.026c-1.093,-8.6 -1.694,-17.259 -2.23,-25.911c2.75,-2.75 5.5,-5.5 8.333,-8.333Z" style="fill:#363f2b;fill-rule:nonzero;"/><path d="M1067.752,3.58c6.631,-0.089 6.631,-0.089 13.395,-0.179c11.865,0.96 11.865,0.96 24.365,9.294c-14.486,8.931 -25.885,9.22 -42.708,8.854c-4.49,-0.075 -8.98,-0.15 -13.607,-0.228c-3.416,-0.097 -6.832,-0.193 -10.352,-0.293c-1.375,-4.125 -2.75,-8.25 -4.167,-12.5c11.296,-5.648 20.472,-4.872 33.073,-4.948Z" style="fill:#485140;fill-rule:nonzero;"/><path d="M876.346,246.028c1.562,11.458 1.562,11.458 0,25c-12.5,9.896 -12.5,9.896 -25,16.667c-3.468,-13.874 -5.316,-23.969 0,-37.5c8.333,-4.167 8.333,-4.167 25,-4.167Z" style="fill:#474f3d;fill-rule:nonzero;"/><path d="M793.013,754.361c1.375,5.5 2.75,11 4.167,16.667c5.5,-1.375 11,-2.75 16.667,-4.167c-10.308,11.045 -19.068,19.651 -33.333,25l-16.667,0c0.734,-9.915 2.905,-15.426 10.01,-22.412c6.267,-5.176 12.704,-10.145 19.157,-15.088Z" style="fill:#434a39;fill-rule:nonzero;"/><path d="M1209.679,183.528c10.429,12.243 14.455,21.579 16.667,37.5c-4.125,-1.375 -8.25,-2.75 -12.5,-4.167c-2.75,2.75 -5.5,5.5 -8.333,8.333l-8.333,0c-2.75,-8.25 -5.5,-16.5 -8.333,-25c8.333,-8.333 8.333,-8.333 20.833,-8.333l0,-8.333Z" style="fill:#434c38;fill-rule:nonzero;"/><path d="M593.013,746.028c0,12.5 0,12.5 -7.812,21.615c-8.854,7.552 -8.854,7.552 -17.188,7.552l0,8.333l-8.333,0c1.375,4.125 2.75,8.25 4.167,12.5c-9.635,2.604 -9.635,2.604 -20.833,4.167c-4.125,-2.75 -8.25,-5.5 -12.5,-8.333c20.625,-15.125 41.25,-30.25 62.5,-45.833Z" style="fill:#444c3a;fill-rule:nonzero;"/><path d="M684.679,225.195c-1.302,7.812 -1.302,7.812 -4.167,16.667c-13.686,9.124 -25.862,12.492 -41.667,16.667c6.13,-19.412 6.13,-19.412 16.406,-26.042c20.052,-7.292 20.052,-7.292 29.427,-7.292Z" style="fill:#3a442f;fill-rule:nonzero;"/><path d="M205.513,762.695c2.75,1.375 5.5,2.75 8.333,4.167c-5.208,10.156 -5.208,10.156 -12.5,20.833c-7.552,2.344 -7.552,2.344 -16.667,4.167c-8.456,5.367 -16.813,10.898 -25,16.667c-1.375,-2.75 -2.75,-5.5 -4.167,-8.333c16.5,-12.375 33,-24.75 50,-37.5Z" style="fill:#4a5140;fill-rule:nonzero;"/><path d="M668.013,591.861c4.125,1.375 8.25,2.75 12.5,4.167c-5.5,12.375 -11,24.75 -16.667,37.5c-5.5,-5.5 -11,-11 -16.667,-16.667c4.125,-1.375 8.25,-2.75 12.5,-4.167c5.078,-10.435 5.078,-10.435 8.333,-20.833Z" style="fill:#434d3a;fill-rule:nonzero;"/><path d="M1105.513,25.195c-15.041,4.728 -29.101,4.584 -44.792,4.427c-4.877,-0.038 -9.754,-0.075 -14.779,-0.114c-3.717,-0.048 -7.434,-0.097 -11.263,-0.146c1.375,-2.75 2.75,-5.5 4.167,-8.333c10.758,-2.018 10.758,-2.018 24.219,-3.125c4.41,-0.408 8.819,-0.816 13.363,-1.237c12.493,0.196 18.655,1.963 29.085,8.529Z" style="fill:#333f28;fill-rule:nonzero;"/><path d="M472.179,362.695c2.75,1.375 5.5,2.75 8.333,4.167c-1.375,4.125 -2.75,8.25 -4.167,12.5l0,12.5c-6.875,1.375 -13.75,2.75 -20.833,4.167c0,-16.667 0,-16.667 8.333,-26.042c4.125,-3.609 4.125,-3.609 8.333,-7.292Z" style="fill:#474e3d;fill-rule:nonzero;"/><path d="M701.346,279.361c1.375,2.75 2.75,5.5 4.167,8.333c-5.188,4.71 -10.402,9.392 -15.625,14.062c-2.9,2.61 -5.801,5.221 -8.789,7.91c-8.427,6.797 -15.443,11.775 -25.586,15.527c-4.125,-1.375 -8.25,-2.75 -12.5,-4.167c19.25,-13.75 38.5,-27.5 58.333,-41.667Z" style="fill:#444b3c;fill-rule:nonzero;"/><path d="M1013.846,21.028c1.375,2.75 2.75,5.5 4.167,8.333l-8.333,0c-2.75,5.5 -5.5,11 -8.333,16.667l-8.333,0l0,8.333c-5.5,1.375 -11,2.75 -16.667,4.167l0,-12.5c8.203,-6.689 8.203,-6.689 18.75,-13.281c3.48,-2.208 6.961,-4.415 10.547,-6.689c4.061,-2.49 4.061,-2.49 8.203,-5.029Z" style="fill:#4a5242;fill-rule:nonzero;"/><path d="M697.179,400.195c-4.125,6.188 -4.125,6.188 -8.333,12.5c-13.021,0.781 -13.021,0.781 -25,0l0,-16.667c14.177,-5.063 20.552,-3.593 33.333,4.167Z" style="fill:#38422c;fill-rule:nonzero;"/><path d="M543.013,308.528c4.125,1.375 8.25,2.75 12.5,4.167c1.375,6.875 2.75,13.75 4.167,20.833c-5.5,1.375 -11,2.75 -16.667,4.167c-2.75,-4.125 -5.5,-8.25 -8.333,-12.5c2.75,-5.5 5.5,-11 8.333,-16.667Z" style="fill:#3a432f;fill-rule:nonzero;"/><path d="M768.013,229.361c0,12.5 0,12.5 -11.458,23.958c-4.469,3.094 -8.938,6.187 -13.542,9.375c-5.5,-1.375 -11,-2.75 -16.667,-4.167c13.75,-9.625 27.5,-19.25 41.667,-29.167Z" style="fill:#444b3b;fill-rule:nonzero;"/><path d="M1055.513,133.528l29.167,0c-6.188,8.25 -6.188,8.25 -12.5,16.667c2.75,1.375 5.5,2.75 8.333,4.167l-20.833,0c-1.375,-6.875 -2.75,-13.75 -4.167,-20.833Z" style="fill:#3b4333;fill-rule:nonzero;"/><path d="M151.346,871.028c2.75,1.375 5.5,2.75 8.333,4.167c-4.064,5.567 -8.147,11.12 -12.24,16.667c-2.272,3.094 -4.544,6.188 -6.885,9.375c-2.908,3.609 -2.908,3.609 -5.876,7.292l-4.167,0c-1.302,-9.375 -1.302,-9.375 0,-20.833c10.417,-9.635 10.417,-9.635 20.833,-16.667Z" style="fill:#454d3b;fill-rule:nonzero;"/><path d="M793.013,754.361c1.375,5.5 2.75,11 4.167,16.667c5.5,-1.375 11,-2.75 16.667,-4.167c-5.5,5.5 -11,11 -16.667,16.667c-5.5,-5.5 -11,-11 -16.667,-16.667c4.125,-4.125 8.25,-8.25 12.5,-12.5Z" style="fill:#4a513f;fill-rule:nonzero;"/><path d="M651.346,708.528c-5.708,13.171 -8.288,16.636 -20.833,25c-9.115,-1.562 -9.115,-1.562 -16.667,-4.167c4.67,-3.496 9.361,-6.963 14.062,-10.417c2.61,-1.934 5.221,-3.867 7.91,-5.859c7.194,-4.557 7.194,-4.557 15.527,-4.557Z" style="fill:#474e3f;fill-rule:nonzero;"/><path d="M655.513,221.028l0,12.5c-18.095,16.667 -18.095,16.667 -29.167,16.667c5.556,-16.667 14.566,-20.158 29.167,-29.167Z" style="fill:#485040;fill-rule:nonzero;"/><path d="M638.846,554.361c6.188,4.125 6.188,4.125 12.5,8.333c-1.302,8.073 -1.302,8.073 -4.167,16.667c-4.125,1.375 -8.25,2.75 -12.5,4.167c1.375,-9.625 2.75,-19.25 4.167,-29.167Z" style="fill:#37402c;fill-rule:nonzero;"/><path d="M30.513,858.528c2.75,1.375 5.5,2.75 8.333,4.167c-9.625,11 -19.25,22 -29.167,33.333c-1.375,-2.75 -2.75,-5.5 -4.167,-8.333c8.25,-9.625 16.5,-19.25 25,-29.167Z" style="fill:#484f40;fill-rule:nonzero;"/><path d="M1013.846,71.028c4.125,2.062 4.125,2.062 8.333,4.167l0,12.5c5.5,-1.375 11,-2.75 16.667,-4.167c-5.469,8.333 -5.469,8.333 -12.5,16.667l-12.5,0l0,-29.167Z" style="fill:#525a48;fill-rule:nonzero;"/><path d="M251.346,933.528c6.875,4.125 13.75,8.25 20.833,12.5c-4.125,6.188 -4.125,6.188 -8.333,12.5c-2.75,-1.375 -5.5,-2.75 -8.333,-4.167l0,-8.333l-8.333,0c1.375,-4.125 2.75,-8.25 4.167,-12.5Z" style="fill:#36402c;fill-rule:nonzero;"/><path d="M319.054,888.997c3.609,1.418 3.609,1.418 7.292,2.865c-8.25,5.5 -16.5,11 -25,16.667c-2.75,-2.75 -5.5,-5.5 -8.333,-8.333c14.359,-12.821 14.359,-12.821 26.042,-11.198Z" style="fill:#474f3f;fill-rule:nonzero;"/><path d="M297.179,666.861c4.125,1.375 8.25,2.75 12.5,4.167l0,25c-4.125,1.375 -8.25,2.75 -12.5,4.167l0,-33.333Z" style="fill:#353e2b;fill-rule:nonzero;"/></svg>