<?xml version="1.0" encoding="UTF-8" standalone="no"?><!DOCTYPE svg PUBLIC "-//W3C//DTD SVG 1.1//EN" "http://www.w3.org/Graphics/SVG/1.1/DTD/svg11.dtd"><svg width="100%" height="100%" viewBox="0 0 1085 1093" version="1.1" xmlns="http://www.w3.org/2000/svg" xmlns:xlink="http://www.w3.org/1999/xlink" xml:space="preserve" xmlns:serif="http://www.serif.com/" style="fill-rule:evenodd;clip-rule:evenodd;stroke-linejoin:round;stroke-miterlimit:2;"><path d="M1013.658,16.206c35.384,21.747 53.124,50.338 66.146,88.753c12.339,56.802 -0.393,114.675 -30.208,163.802c-15.586,23.17 -33.052,41.529 -54.297,59.505c-23.236,20.285 -39.887,43.314 -55.339,69.922c-1.407,2.407 -2.814,4.813 -4.264,7.293c-15.761,28.136 -20.775,53.523 -20.215,85.155c0.003,2.943 0.005,5.887 0.008,8.919c0.111,13.038 0.79,23.422 4.94,35.872c2.75,-12.375 5.5,-24.75 8.333,-37.5c47.216,16.419 81.272,57.817 104.818,100.374c17.143,38.809 7.225,79.214 -7.161,117.074c-1.345,3.886 -2.691,7.772 -4.077,11.776c-11.823,32.045 -28.748,59.887 -59.725,76.245c-5.68,2.461 -11.411,4.807 -17.188,7.031c-4.053,1.666 -4.053,1.666 -8.188,3.366c-26.04,9.738 -49.859,11.079 -77.489,10.696c-6.593,-0.059 -6.593,-0.059 -13.319,-0.119c-56.739,-1.086 -107.194,-11.58 -159.337,-34.777c-4.195,-1.842 -8.39,-3.685 -12.712,-5.583c-63.504,-29.734 -118.529,-74.334 -145.622,-140.251c-11.796,-35.389 -2.751,-66.716 9.115,-100.781c1.214,-3.512 2.428,-7.025 3.678,-10.644c12.133,-33.174 25.355,-62.491 57.167,-80.161c32.876,-15.168 63.428,-18.464 99.311,-17.529c4.184,0.056 8.368,0.113 12.679,0.171c10.186,0.146 20.367,0.35 30.55,0.61c-4.411,14.18 -8.371,25.056 -16.667,37.5c28.819,-12.581 40.118,-29.74 53.223,-57.78c12.172,-31.089 14.774,-57.585 14.486,-90.658c-0.016,-4.468 -0.032,-8.936 -0.049,-13.54c-0.297,-27.231 -2.435,-53.117 -7.438,-79.917c-8.978,-58.354 0.95,-108.02 31.445,-158.105c48.143,-65.449 121.768,-93.2 197.396,-56.722Z" style="fill:#3e4832;fill-rule:nonzero;"/><path d="M92.098,29.257c4.539,-0.021 4.539,-0.021 9.169,-0.043c10.142,-0.027 20.279,0.064 30.42,0.155c7.268,0.005 14.537,0.002 21.805,-0.007c19.739,-0.005 39.476,0.093 59.215,0.21c20.625,0.104 41.251,0.114 61.876,0.134c39.061,0.052 78.121,0.189 117.181,0.356c44.467,0.186 88.935,0.278 133.402,0.362c91.476,0.174 182.952,0.467 274.428,0.839c-1.189,2.305 -2.378,4.61 -3.603,6.985c-4.919,9.699 -4.919,9.699 -8.762,20.258c-5.74,12.665 -10.999,21.326 -20.969,31.091c-21.22,6.204 -42.167,5.277 -64.036,4.73c-6.572,-0.012 -13.144,-0.005 -19.715,0.018c-17.806,0.012 -35.6,-0.233 -53.403,-0.524c-18.617,-0.261 -37.235,-0.285 -55.854,-0.334c-35.241,-0.129 -70.476,-0.471 -105.714,-0.89c-40.124,-0.466 -80.248,-0.695 -120.374,-0.904c-82.526,-0.435 -165.048,-1.168 -247.57,-2.097c0.009,4.316 0.019,8.632 0.028,13.079c0.086,41.289 0.147,82.578 0.188,123.867c0.021,21.211 0.05,42.423 0.098,63.634c0.322,146.762 -3.929,292.569 -13.239,439.041c-1.179,18.55 -2.323,37.102 -3.458,55.654c-0.898,14.605 -1.814,29.208 -2.735,43.811c-0.429,6.837 -0.853,13.675 -1.27,20.513c-2.434,39.697 -5.865,79.052 -10.899,118.508c-2.6,22.52 -4.33,45.134 -6.213,67.725l916.667,0c-1.375,-2.75 -2.75,-5.5 -4.167,-8.333c-0.873,-7.251 -1.534,-14.528 -2.083,-21.81c-0.344,-4.372 -0.687,-8.744 -1.042,-13.249c-0.344,-4.587 -0.688,-9.174 -1.042,-13.9c-0.685,-9.007 -1.379,-18.013 -2.083,-27.018c-0.301,-4.005 -0.602,-8.011 -0.911,-12.138c-1.225,-12.429 -3.187,-24.586 -5.339,-36.886c-2.873,-20.179 -4.498,-38.324 0,-58.333c13.422,-13.885 27.971,-22.033 45.833,-29.167l8.333,0c0.306,6.961 0.306,6.961 0.618,14.062c1.902,39.974 5.409,79.206 10.736,118.882c2.101,15.997 3.986,32.017 5.833,48.045c0.365,3.005 0.73,6.01 1.106,9.106c1.011,8.85 1.819,17.692 2.54,26.571c0.316,3.245 0.631,6.49 0.956,9.833c0.284,4.873 0.284,4.873 0.574,9.845c0.209,2.917 0.418,5.834 0.633,8.839c-3.58,14.869 -11.072,20.479 -22.996,29.817c-13.394,3.06 -26.507,2.795 -40.199,2.617c-4.073,0.03 -8.145,0.059 -12.341,0.09c-13.66,0.073 -27.315,-0.002 -40.975,-0.077c-9.787,0.021 -19.574,0.052 -29.361,0.09c-26.592,0.077 -53.183,0.023 -79.775,-0.059c-24.986,-0.061 -49.971,-0.037 -74.957,-0.016c-49.505,0.036 -99.009,-0.034 -148.514,-0.158c-48.044,-0.12 -96.088,-0.15 -144.132,-0.085c-52.315,0.07 -104.63,0.087 -156.946,0.014c-27.694,-0.038 -55.389,-0.055 -83.083,-0.016c-26.03,0.032 -52.058,-0.018 -78.088,-0.133c-9.568,-0.029 -19.135,-0.029 -28.703,0.001c-13.031,0.036 -26.059,-0.03 -39.09,-0.123c-3.812,0.034 -7.624,0.069 -11.551,0.104c-25.516,-0.337 -25.516,-0.337 -38.812,-10.105c-20.349,-30.016 -3.071,-92.164 0.674,-127.251c7.862,-74.106 13.229,-148.091 16.986,-222.502c1.811,-35.369 4.293,-70.69 6.797,-106.016c5.164,-74.519 7.649,-148.816 7.773,-223.516c0.041,-19.592 0.149,-39.184 0.251,-58.776c0.189,-36.272 0.348,-72.545 0.404,-108.818c0.042,-25.443 0.164,-50.884 0.339,-76.326c0.051,-9.65 0.073,-19.301 0.063,-28.951c-0.01,-13.41 0.082,-26.815 0.198,-40.225c-0.028,-3.971 -0.055,-7.943 -0.083,-12.035c0.052,-3.648 0.104,-7.296 0.157,-11.054c0.01,-3.159 0.02,-6.317 0.03,-9.572c6.257,-26.075 25.15,-27.507 48.773,-27.44Z" style="fill:#414b36;fill-rule:nonzero;"/><path d="M578.762,768.762c2.933,1.767 5.865,3.534 8.887,5.355c76.369,45.363 149.173,73.945 236.947,86.312c-4.028,20.272 -13.726,32.366 -29.167,45.833c-43.484,26.325 -86.771,37.495 -137.402,26.465c-38.302,-12.623 -67.89,-33.858 -88.118,-68.978c-10.335,-21.224 -10.289,-42.695 -7.812,-65.82c4.428,-11.273 9.583,-19.206 16.667,-29.167Z" style="fill:#404a34;fill-rule:nonzero;"/><path d="M537.095,739.595c12.227,1.528 16.102,3.602 25,12.5c-1.126,10.698 -2.972,18.795 -8.431,28.109c-10.102,23.315 -7.565,55.075 -0.911,79.15c3.933,9.197 8.281,17.556 13.509,26.074c2.234,3.695 4.469,7.391 6.771,11.198c33.872,32.981 76.771,49.561 123.438,48.958c5.2,-0.052 5.2,-0.052 10.504,-0.105c45.59,-1.242 85.54,-13.768 117.621,-47.551c8.293,-12.225 14.443,-24.101 20.833,-37.5l58.333,0c-1.53,30.087 -1.53,30.087 -12.614,43.734c-14.797,12.463 -29.972,20.257 -47.282,28.662c-23.33,11.751 -41.859,22.639 -59.31,42.432c-14.44,14.967 -32.328,19.15 -52.376,19.548c-20.682,-0.255 -37.416,-5.907 -56.543,-13.281c-23.124,-8.417 -43.377,-14.235 -68.229,-15.104c-24.232,-0.917 -39.778,-6.274 -57.812,-22.656c-13.078,-14.846 -17.8,-28.305 -22.396,-47.135c-5.168,-21.044 -13.518,-36.041 -26.335,-53.385c-9.277,-13.332 -12.207,-27.768 -12.207,-43.929c5.715,-21.325 24.683,-36.407 40.104,-51.383c2.75,-2.75 5.5,-5.5 8.333,-8.333Z" style="fill:#414a37;fill-rule:nonzero;"/><path d="M200.625,343.249c6.262,0.006 6.262,0.006 12.651,0.012c7.161,-0.009 7.161,-0.009 14.466,-0.017c7.926,0.022 7.926,0.022 16.011,0.045c5.583,0.001 11.167,0.001 16.75,-0.002c15.202,-0.001 30.405,0.023 45.607,0.052c15.871,0.026 31.742,0.028 47.613,0.033c30.074,0.013 60.148,0.047 90.222,0.089c34.23,0.047 68.459,0.069 102.689,0.09c70.431,0.044 140.863,0.117 211.294,0.21c-1.375,12.375 -2.75,24.75 -4.167,37.5c-73.197,0.292 -146.394,0.512 -219.591,0.648c-33.985,0.065 -67.97,0.153 -101.954,0.295c-29.613,0.124 -59.226,0.205 -88.839,0.233c-15.687,0.016 -31.374,0.055 -47.061,0.146c-17.491,0.1 -34.981,0.103 -52.472,0.097c-7.845,0.067 -7.845,0.067 -15.848,0.136c-7.117,-0.026 -7.117,-0.026 -14.377,-0.052c-4.14,0.012 -8.281,0.023 -12.547,0.035c-3.237,-0.508 -6.475,-1.015 -9.81,-1.538c-8.333,-12.5 -8.333,-12.5 -7.031,-23.438c4.023,-13.898 4.023,-13.898 16.394,-14.575Z" style="fill:#414b37;fill-rule:nonzero;"/><path d="M382.138,183.206c4.891,-0.054 4.891,-0.054 9.881,-0.109c10.768,-0.095 21.531,-0.066 32.299,-0.029c7.493,-0.022 14.986,-0.048 22.479,-0.078c15.702,-0.043 31.403,-0.024 47.106,0.037c20.112,0.072 40.219,-0.026 60.33,-0.173c15.474,-0.092 30.948,-0.086 46.422,-0.051c7.414,0.003 14.828,-0.025 22.242,-0.087c10.375,-0.073 20.74,-0.012 31.115,0.083c4.582,-0.073 4.582,-0.073 9.257,-0.148c16.257,0.301 23.347,2.403 36.309,12.544c8.349,11.066 8.349,11.066 8.349,24.087c-5.908,16.986 -5.908,16.986 -16.667,24.479c-11.304,1.255 -21.657,1.75 -32.967,1.684c-3.355,0.029 -6.71,0.057 -10.166,0.087c-11.1,0.076 -22.198,0.06 -33.299,0.036c-7.706,0.019 -15.412,0.041 -23.118,0.066c-16.154,0.037 -32.308,0.027 -48.462,-0.014c-20.724,-0.048 -41.445,0.036 -62.169,0.158c-15.914,0.076 -31.826,0.075 -47.74,0.052c-7.642,-0.001 -15.284,0.025 -22.926,0.076c-10.675,0.062 -21.345,0.018 -32.019,-0.054c-3.169,0.04 -6.338,0.081 -9.604,0.122c-21.323,-0.3 -21.323,-0.3 -31.56,-9.895c-5.92,-12.358 -6.278,-20.445 -4.303,-33.984c13.435,-18.803 27.619,-19.081 49.21,-18.889Z" style="fill:#404b37;fill-rule:nonzero;"/><path d="M211.412,430.743c5.237,0.022 5.237,0.022 10.58,0.045c3.658,-0.001 7.316,-0.001 11.085,-0.002c12.152,0.003 24.304,0.035 36.456,0.068c8.402,0.008 16.803,0.014 25.205,0.018c22.16,0.016 44.319,0.057 66.479,0.103c22.594,0.043 45.187,0.062 67.781,0.083c44.366,0.045 88.732,0.116 133.097,0.203c-1.756,2.009 -3.513,4.018 -5.322,6.087c-2.283,2.632 -4.565,5.264 -6.917,7.975c-3.408,3.916 -3.408,3.916 -6.885,7.91c-6.166,7.012 -6.166,7.012 -10.042,15.527c-44.332,0.289 -88.663,0.512 -132.996,0.648c-20.584,0.065 -41.168,0.154 -61.752,0.295c-19.857,0.136 -39.713,0.211 -59.571,0.243c-7.584,0.023 -15.168,0.068 -22.751,0.136c-10.605,0.09 -21.208,0.103 -31.814,0.097c-4.725,0.067 -4.725,0.067 -9.545,0.136c-21.123,-0.126 -21.123,-0.126 -31.602,-7.21c-4.136,-6.845 -4.136,-6.845 -3.094,-17.782c5.735,-18.162 13.803,-14.549 31.608,-14.581Z" style="fill:#434b39;fill-rule:nonzero;"/><path d="M204.072,518.243c4.536,0.022 4.536,0.022 9.164,0.045c3.171,-0.001 6.341,-0.001 9.608,-0.002c10.529,0.003 21.057,0.035 31.586,0.068c7.281,0.008 14.561,0.014 21.842,0.018c19.2,0.016 38.401,0.057 57.601,0.103c19.577,0.043 39.155,0.062 58.732,0.083c38.441,0.045 76.883,0.116 115.324,0.203c-2.75,12.375 -5.5,24.75 -8.333,37.5c-40.601,0.193 -81.202,0.341 -121.803,0.432c-18.851,0.044 -37.703,0.103 -56.554,0.197c-18.182,0.09 -36.363,0.14 -54.546,0.162c-6.948,0.015 -13.895,0.046 -20.843,0.09c-9.708,0.06 -19.414,0.069 -29.122,0.065c-4.338,0.045 -4.338,0.045 -8.764,0.091c-19.918,-0.086 -19.918,-0.086 -29.202,-9.37c-0.781,-12.76 -0.781,-12.76 0,-25c7.07,-7.07 15.881,-4.665 25.31,-4.685Z" style="fill:#444c39;fill-rule:nonzero;"/><path d="M190.969,605.761c5.468,0.009 10.937,0.019 16.57,0.028c3.008,-0.001 6.016,-0.001 9.115,-0.002c9.988,0.003 19.975,0.035 29.963,0.068c6.907,0.008 13.814,0.014 20.721,0.018c18.214,0.016 36.428,0.057 54.642,0.103c18.572,0.043 37.144,0.062 55.716,0.083c36.467,0.045 72.933,0.116 109.399,0.203c2.062,18.562 2.062,18.562 4.167,37.5c-39.442,0.193 -78.885,0.341 -118.328,0.432c-18.314,0.044 -36.628,0.103 -54.942,0.197c-17.669,0.09 -35.337,0.14 -53.006,0.162c-6.746,0.015 -13.493,0.046 -20.239,0.09c-9.438,0.06 -18.874,0.069 -28.311,0.065c-5.376,0.019 -10.751,0.037 -16.29,0.056c-13.051,-1.002 -13.051,-1.002 -25.551,-9.335c-1.042,-12.76 -1.042,-12.76 0,-25c4.167,-4.167 4.167,-4.167 16.373,-4.668Z" style="fill:#434c39;fill-rule:nonzero;"/><path d="M203.673,692.683c5.228,-0.026 10.456,-0.053 15.842,-0.08c5.73,0.015 11.46,0.032 17.19,0.051c5.853,-0.006 11.707,-0.014 17.56,-0.024c12.274,-0.012 24.547,0.006 36.82,0.045c15.749,0.047 31.498,0.02 47.247,-0.03c12.089,-0.03 24.177,-0.021 36.266,0.001c5.808,0.006 11.616,-0.001 17.424,-0.021c8.11,-0.021 16.22,0.017 24.33,0.058c4.62,0.007 9.239,0.013 13.999,0.02c10.912,1.058 10.912,1.058 19.245,9.392c1.042,10.417 1.042,10.417 0,20.833c-11.329,11.329 -17.392,9.389 -33.244,9.412c-5.228,0.026 -10.456,0.053 -15.842,0.08c-5.73,-0.015 -11.46,-0.032 -17.19,-0.051c-5.853,0.006 -11.707,0.014 -17.56,0.024c-12.274,0.012 -24.547,-0.006 -36.82,-0.045c-15.749,-0.047 -31.498,-0.02 -47.247,0.03c-12.089,0.03 -24.177,0.021 -36.266,-0.001c-5.808,-0.006 -11.616,0.001 -17.424,0.021c-8.11,0.021 -16.22,-0.017 -24.33,-0.058c-4.62,-0.007 -9.239,-0.013 -13.999,-0.02c-10.912,-1.058 -10.912,-1.058 -19.245,-9.392c-1.042,-10.417 -1.042,-10.417 0,-20.833c11.329,-11.329 17.392,-9.389 33.244,-9.412Z" style="fill:#444c39;fill-rule:nonzero;"/><path d="M566.262,572.928c9.061,8.562 15.804,17.229 22.656,27.604c53.014,70.945 160.139,109.585 244.206,124.609c51.309,6.084 100.159,4.427 149.805,-10.547c-11.392,12.492 -20.957,19.7 -36.719,25.781c-3.378,1.348 -6.757,2.696 -10.238,4.085c-80.181,24.433 -176.645,4.092 -249.154,-34.359c-51.913,-29.174 -100.315,-66.574 -120.557,-124.674l0,-12.5Z" style="fill:#f2f4ee;fill-rule:nonzero;"/><path d="M186.875,859.823c4.394,-0.027 8.788,-0.053 13.315,-0.081c4.783,-0.005 9.566,-0.009 14.493,-0.014c4.876,-0.014 9.752,-0.028 14.776,-0.042c10.337,-0.021 20.673,-0.031 31.01,-0.03c15.867,-0.009 31.732,-0.085 47.598,-0.164c10.018,-0.012 20.036,-0.02 30.054,-0.024c4.774,-0.03 9.549,-0.06 14.468,-0.091c6.611,0.019 6.611,0.019 13.355,0.039c3.892,-0.006 7.784,-0.012 11.794,-0.018c9.358,1.03 9.358,1.03 17.691,9.363c-2.315,18.981 -2.315,18.981 -8.333,25c-6.883,0.411 -13.783,0.533 -20.679,0.539c-4.407,0.013 -8.815,0.026 -13.356,0.04c-4.796,-0.008 -9.592,-0.017 -14.533,-0.026c-7.329,0.006 -7.329,0.006 -14.806,0.012c-10.354,0.003 -20.708,-0.005 -31.062,-0.022c-15.912,-0.022 -31.824,-0 -47.736,0.026c-10.031,-0.003 -20.063,-0.008 -30.094,-0.016c-7.194,0.013 -7.194,0.013 -14.533,0.026c-4.407,-0.013 -8.815,-0.026 -13.356,-0.04c-5.852,-0.005 -5.852,-0.005 -11.822,-0.01c-8.857,-0.529 -8.857,-0.529 -13.023,-4.696c-0.521,-12.5 -0.521,-12.5 0,-25c6.935,-6.935 15.249,-4.733 24.779,-4.772Z" style="fill:#3c4632;fill-rule:nonzero;"/><path d="M682.929,518.762c8.333,4.167 8.333,4.167 15.365,17.448c21.557,38.41 63.865,58.315 104.671,70.703c18.535,4.313 36.524,4.749 55.485,4.557c3.217,0.032 6.435,0.064 9.749,0.098c19.031,-0.065 34.32,-2.263 52.23,-9.473c-2.768,11.072 -5.571,18.718 -14.795,25.781c-32.827,19.12 -66.176,20.304 -102.913,11.458c-45.249,-13.69 -92.608,-34.443 -117.448,-76.562c-3.282,-14.951 -2.862,-28.713 -2.344,-44.01Z" style="fill:#f0f2ec;fill-rule:nonzero;"/><path d="M970.429,46.626c8.333,5.469 8.333,5.469 11.979,16.146c0.172,3.352 0.344,6.703 0.521,10.156c-7.542,7.542 -19.769,5.066 -29.948,5.469c-32.68,2.423 -47.216,12.256 -68.75,36.198c-9.192,10.819 -17.866,21.916 -26.302,33.333c-6.875,-1.375 -13.75,-2.75 -20.833,-4.167c1.17,-27.506 11.511,-45.739 29.167,-66.667c31.481,-28.899 61.887,-40.158 104.167,-30.469Z" style="fill:#f2f3ee;fill-rule:nonzero;"/><path d="M562.095,843.762c8.333,12.5 8.333,12.5 12.24,19.987c16.86,30.992 43.98,50.245 76.562,63.086c41.975,11.94 87.569,7.184 125.684,-13.737c22.928,-14.489 37.17,-30.152 52.181,-52.669c4.125,5.5 8.25,11 12.5,16.667c-27.097,40 -56.003,61.19 -104.167,70.833c-41.698,4.315 -83.83,5.156 -120.833,-16.667c-3.276,-1.815 -6.553,-3.631 -9.928,-5.501c-21.713,-13.114 -41.649,-29.373 -52.572,-52.832c1.204,-8.561 1.204,-8.561 4.167,-16.667c1.375,-4.125 2.75,-8.25 4.167,-12.5Z" style="fill:#f0f2ea;fill-rule:nonzero;"/><path d="M562.095,843.762c4.422,6.633 8.791,13.32 12.679,20.28c12.299,21.576 24.629,33.194 45.654,46.387c-4.125,5.5 -8.25,11 -12.5,16.667c-42.796,-30.908 -42.796,-30.908 -54.167,-54.167c0.781,-9.115 0.781,-9.115 4.167,-16.667c1.375,-4.125 2.75,-8.25 4.167,-12.5Z" style="fill:#eaede4;fill-rule:nonzero;"/><path d="M545.429,789.595c8.25,4.125 8.25,4.125 16.667,8.333l0,58.333c-4.125,1.375 -8.25,2.75 -12.5,4.167c-4.945,-14.835 -4.57,-26.825 -4.427,-42.448c0.038,-5.301 0.075,-10.603 0.114,-16.064c0.048,-4.066 0.097,-8.132 0.146,-12.321Z" style="fill:#f5f7f1;fill-rule:nonzero;"/><path d="M795.429,302.095l4.167,0c0.204,3.813 0.408,7.627 0.618,11.556c0.312,4.952 0.623,9.904 0.944,15.007c0.29,4.931 0.58,9.861 0.879,14.941c0.484,13.103 0.484,13.103 10.059,20.996c-5.5,5.5 -11,11 -16.667,16.667l0,-79.167Z" style="fill:#62685c;fill-rule:nonzero;"/><path d="M982.929,718.762c-16.5,10.312 -16.5,10.312 -33.333,20.833c-1.375,-2.75 -2.75,-5.5 -4.167,-8.333c-8.436,-2.717 -8.436,-2.717 -16.667,-4.167c7.455,-2.206 14.922,-4.368 22.396,-6.51c4.157,-1.208 8.314,-2.417 12.598,-3.662c10.84,-2.327 10.84,-2.327 19.173,1.839Z" style="fill:#c7cebf;fill-rule:nonzero;"/><path d="M778.762,414.595c8.333,16.667 8.333,16.667 4.167,29.167c-6.875,1.375 -13.75,2.75 -20.833,4.167c5.5,-11 11,-22 16.667,-33.333Z" style="fill:#505848;fill-rule:nonzero;"/><path d="M201.939,343.501c5.027,0.129 5.027,0.129 10.156,0.26c-5.469,8.333 -5.469,8.333 -12.5,16.667l-12.5,0c-1.375,2.75 -2.75,5.5 -4.167,8.333c4.47,-24.906 4.47,-24.906 19.01,-25.26Z" style="fill:#474d3d;fill-rule:nonzero;"/><path d="M1070.429,214.595c-2.28,14.061 -4.395,21.176 -12.5,33.333c-2.75,-1.375 -5.5,-2.75 -8.333,-4.167c9.309,-29.167 9.309,-29.167 20.833,-29.167Z" style="fill:#484f3d;fill-rule:nonzero;"/><path d="M866.262,22.928c2.75,2.75 5.5,5.5 8.333,8.333c-9.625,6.875 -19.25,13.75 -29.167,20.833c-2.75,-1.375 -5.5,-2.75 -8.333,-4.167c9.625,-8.25 19.25,-16.5 29.167,-25Z" style="fill:#474f3f;fill-rule:nonzero;"/><path d="M191.262,518.762c-1.375,8.25 -2.75,16.5 -4.167,25c2.75,1.375 5.5,2.75 8.333,4.167l-16.667,0c-0.177,-8.331 -0.17,-16.668 0,-25c4.167,-4.167 4.167,-4.167 12.5,-4.167Z" style="fill:#4b5344;fill-rule:nonzero;"/><path d="M566.262,572.928c10.897,9.859 17.768,20.592 25,33.333l-16.667,0c-5.236,-12.108 -8.333,-19.984 -8.333,-33.333Z" style="fill:#cdd3c6;fill-rule:nonzero;"/><path d="M1016.262,814.595l0,29.167c-1.891,-2.062 -3.781,-4.125 -5.729,-6.25c-6.256,-7.192 -6.256,-7.192 -15.104,-6.25l0,-8.333c12.5,-8.333 12.5,-8.333 20.833,-8.333Z" style="fill:#646a5f;fill-rule:nonzero;"/></svg>