<?xml version="1.0" encoding="UTF-8" standalone="no"?><!DOCTYPE svg PUBLIC "-//W3C//DTD SVG 1.1//EN" "http://www.w3.org/Graphics/SVG/1.1/DTD/svg11.dtd"><svg width="100%" height="100%" viewBox="0 0 1411 1076" version="1.1" xmlns="http://www.w3.org/2000/svg" xmlns:xlink="http://www.w3.org/1999/xlink" xml:space="preserve" xmlns:serif="http://www.serif.com/" style="fill-rule:evenodd;clip-rule:evenodd;stroke-linejoin:round;stroke-miterlimit:2;"><path d="M196.574,14.878c16.912,11.093 32.755,24.837 41.895,43.115c0.299,10.632 0.388,21.145 0.26,31.771c-0.019,2.943 -0.038,5.887 -0.057,8.919c-0.049,7.27 -0.124,14.54 -0.203,21.81c4.426,-0.602 8.852,-1.203 13.411,-1.823c5.946,-0.782 11.892,-1.564 17.839,-2.344c2.9,-0.397 5.801,-0.795 8.789,-1.204c53.888,-6.985 53.888,-6.985 67.773,2.214c13.021,18.898 13.021,18.898 13.021,28.158l8.333,0c0.43,-3.008 0.859,-6.016 1.302,-9.115c3.38,-13.828 6.201,-21.524 15.365,-32.552c12.579,-2.909 23.203,-4.433 35.938,-5.208c4.689,-0.403 4.689,-0.403 9.473,-0.814c11.246,-0.919 22.495,-1.607 33.757,-2.311c5.038,-0.341 10.077,-0.682 15.268,-1.033c42.744,-2.802 85.296,-3.813 128.124,-3.833c6.782,-0.013 13.565,-0.027 20.347,-0.042c14.139,-0.025 28.278,-0.033 42.417,-0.03c14.194,0 28.388,-0.028 42.582,-0.085c115.821,-0.459 230.775,2.463 345.793,17.524c5.612,0.698 11.225,1.392 16.838,2.083c32.465,4.055 64.743,8.913 96.965,14.583c-0.29,-4.775 -0.58,-9.55 -0.879,-14.469c-2.493,-57.487 -2.493,-57.487 10.775,-74.072c7.064,-6.071 7.064,-6.071 15.104,-11.458c4.109,-3.118 4.109,-3.118 8.301,-6.299c35.642,-22.507 82.367,-19.946 122.363,-11.621c35.003,11.458 59.76,31.487 77.669,63.753c1.428,11.705 1.991,21.464 1.562,33.073c-0.06,3.111 -0.12,6.221 -0.181,9.426c-0.719,25.13 -3.645,49.76 -7.338,74.624c-4.645,31.684 -7.739,63.499 -10.71,95.378c-0.582,5.929 -0.582,5.929 -1.176,11.977c-18.155,190.816 -39.566,453.297 22.009,638.023c3.189,37.605 -2.576,67.022 -26.514,96.582c-21.929,24.389 -46.494,40.627 -79.704,43.018c-7.474,0.19 -14.952,0.263 -22.428,0.244c-4.134,-0.007 -8.268,-0.014 -12.527,-0.021c-46.102,-1.017 -91.59,-7.192 -137.212,-13.52c-3.858,-0.508 -7.716,-1.016 -11.691,-1.539c-11.079,-1.483 -22.129,-3.099 -33.182,-4.76c-3.355,-0.44 -6.71,-0.879 -10.167,-1.332c-15.168,-2.44 -23.131,-3.947 -32.91,-16.194c-1.484,-3.567 -2.968,-7.135 -4.497,-10.81c-2.32,-4.555 -4.641,-9.109 -7.031,-13.802c-1.805,-3.695 -3.609,-7.391 -5.469,-11.198c-1.176,2.707 -2.353,5.414 -3.564,8.203c-6.145,11.677 -11.839,20.195 -21.436,29.297c-22.693,5.853 -46.804,0.967 -69.757,-2.048c-71.996,-9.157 -144.613,-7.932 -217.055,-7.859c-11.19,0.011 -22.38,0.008 -33.57,0.005c-86.309,0.028 -172.295,0.612 -258.264,9.12c-5.222,0.517 -5.222,0.517 -10.55,1.044c-41.228,4.246 -82.007,10.657 -122.842,17.681c-21.958,3.756 -43.998,6.785 -66.087,9.661c-7.618,1.006 -15.235,2.015 -22.852,3.027c-3.463,0.459 -6.926,0.918 -10.494,1.392c-7.743,1.084 -15.459,2.36 -23.165,3.687c-41.316,6.606 -81.531,2.38 -116.406,-21.908c-22.578,-18.373 -39.474,-40.376 -48.958,-67.969c-2.882,-32.438 1.182,-64.747 5.469,-96.875c6.061,-48.783 10.179,-97.6 13.802,-146.615c0.259,-3.461 0.518,-6.922 0.785,-10.487c5.843,-78.475 9.982,-156.635 9.892,-235.346c-0.001,-3.798 -0.002,-7.596 -0.003,-11.509c-0.089,-65.342 -2.77,-129.936 -9.111,-195.002c-0.513,-5.395 -1.026,-10.789 -1.554,-16.347c-2.567,-26.856 -5.25,-53.7 -8.097,-80.528c-0.673,-6.349 -0.673,-6.349 -1.36,-12.826c-1.282,-9.587 -3.298,-18.446 -5.655,-27.799c-3.35,-31.514 -7.098,-69.087 10.156,-96.875c42.947,-51.801 120.537,-67.229 181.283,-37.907Z" style="fill:#474f37;fill-rule:nonzero;"/><path d="M678.795,124.116c14.766,0.024 29.532,0.01 44.299,-0.014c76.169,-0.105 152.135,0.002 227.874,8.891c-4.928,28.16 -23.931,42.165 -45.833,58.333c-12.924,8.2 -26.18,15.818 -39.428,23.479c-36.132,21.189 -68.912,45.898 -80.008,88.244c-3.88,25.293 -1.474,51.578 -0.706,77.063c0.677,40.32 -5.067,71.745 -30.786,103.564c-20.302,20.971 -46.039,33.274 -71.729,46.452c-45.957,24.456 -78.043,54.881 -94.58,104.606c-7.092,29.689 -3.457,61.284 -2.173,91.52c1.246,58.894 -20.553,97.676 -59.757,140.072c-2.046,2.245 -4.093,4.49 -6.201,6.803c-27.535,29.926 -56.706,56.275 -89.632,80.176c-2.86,2.078 -5.72,4.156 -8.666,6.297c-9.468,6.653 -19.105,12.958 -28.834,19.224c-4.223,2.833 -8.445,5.665 -12.796,8.584c-38.005,24.409 -73.234,31.832 -117.673,36.729c-9.31,1.147 -18.615,2.33 -27.92,3.514c-5.937,0.751 -11.876,1.487 -17.816,2.205c-20.86,2.562 -40.856,6.679 -61.295,11.468c-37.597,4.254 -64.017,-4.069 -95.312,-24.479c-15.389,-15.389 -22.069,-30.56 -23.958,-52.083c0.688,-20.321 9.623,-31.158 22.949,-45.817c8.822,-6.787 8.822,-6.787 33.822,-15.12c1.375,27.5 2.75,55 4.167,83.333c36.39,15.596 61.793,17.868 99.479,5.729c20.347,-8.197 30.587,-16.334 42.188,-34.896c12.664,-36.457 -1.565,-85.824 -5.872,-123.836c-19.77,-175.343 -24.584,-350.055 -13.399,-526.164c0.263,-4.169 0.525,-8.337 0.796,-12.632c2.972,-46.128 6.725,-91.733 14.308,-137.368c13.836,-3.316 27.62,-6.041 41.667,-8.333c4.2,-0.714 8.4,-1.429 12.728,-2.165c13.823,-1.319 23.869,-1.625 37.272,2.165c10.763,11.189 18.143,22.302 25.765,35.807c2.498,3.309 4.995,6.617 7.568,10.026l20.833,0c6.875,-19.25 13.75,-38.5 20.833,-58.333c12.237,-1.328 24.477,-2.625 36.719,-3.906c4.967,-0.544 4.967,-0.544 10.034,-1.099c76.887,-7.954 153.868,-8.163 231.074,-8.038Z" style="fill:#fcfcfa;fill-rule:nonzero;"/><path d="M975.968,137.16c25.798,-0.335 50.91,0.713 76.562,3.385c3.544,0.362 7.088,0.724 10.739,1.098c26.126,2.791 52.102,6.318 78.063,10.361c3.415,0.528 6.831,1.056 10.35,1.6c23.754,3.857 23.754,3.857 28.453,8.556c1.295,10.673 2.309,21.253 3.141,31.966c0.272,3.469 0.545,6.937 0.826,10.511c0.896,11.88 1.732,23.762 2.543,35.648c0.283,4.138 0.566,8.277 0.857,12.54c5.698,87.194 6.416,174.337 6.43,261.683c0.004,10.581 0.024,21.162 0.046,31.744c0.224,140.657 0.224,140.657 -8.495,210.552c-1.229,9.904 -2.342,19.815 -3.427,29.736c-2.499,22.779 -5.109,45.545 -7.759,68.306c-1.118,9.63 -2.215,19.263 -3.31,28.896c-0.338,2.856 -0.677,5.712 -1.026,8.655c-4.752,40.917 -4.752,40.917 10.173,78.097c25.097,25.097 53.541,30.516 87.891,30.827c16.08,-1.751 16.08,-1.751 45.443,-14.16c1.375,-27.5 2.75,-55 4.167,-83.333c27.338,9.113 39.547,17.314 54.167,41.667c5.555,20.216 1.693,36.978 -8.073,55.208c-15.605,22.337 -40.393,35.554 -66.927,40.625c-31.107,2.784 -59.437,-2.31 -89.746,-8.903c-26.981,-5.543 -54.366,-8.55 -81.685,-11.919c-3.938,-0.487 -7.877,-0.974 -11.934,-1.476c-5.262,-0.633 -5.262,-0.633 -10.63,-1.28c-3.356,-0.469 -6.713,-0.939 -10.17,-1.422c-3.708,-0.418 -7.416,-0.837 -11.237,-1.267c-9.597,-2.899 -9.597,-2.899 -14.309,-9.808c-0.98,-2.919 -1.96,-5.838 -2.97,-8.846c-1.155,-3.164 -2.31,-6.327 -3.499,-9.587c-2.268,-6.717 -4.536,-13.433 -6.803,-20.15c-3.258,-8.926 -6.319,-17.173 -11.182,-25.342c-10.79,-4.886 -10.79,-4.886 -20.833,-4.167c-5.471,9.547 -10.94,19.096 -16.406,28.646c-1.555,2.712 -3.11,5.425 -4.712,8.219c-8.471,14.749 -8.471,14.749 -16.382,29.801c-2.7,-0.231 -5.401,-0.461 -8.183,-0.699c-98.569,-8.163 -197.126,-10.142 -295.984,-11.801c6.464,-13.059 13.315,-25.868 20.287,-38.664c31.539,-58.163 51.309,-121.518 35.641,-188.245c-7.08,-23.595 -15.737,-46.876 -26.762,-68.925c-3.416,-26.254 -1.124,-45.559 14.404,-67.22c16.288,-19.711 34.034,-36.02 54.346,-51.53c32.428,-24.873 52.51,-47.545 68.75,-85.417c1.805,-3.953 3.609,-7.906 5.469,-11.979c6.637,-30.169 4.532,-58.86 -3.385,-88.542c-9.133,-36.841 -15.452,-80.317 -1.172,-116.52c19.18,-29.358 47.908,-49.313 76.025,-69.499c25.329,-18.67 42.171,-37.452 52.23,-67.627Z" style="fill:#fbfcfa;fill-rule:nonzero;"/><path d="M185.262,48.553c8.992,6.431 13.937,12.598 19.873,21.94c5.82,37.461 -2.37,79.217 -5.729,116.927c-1.974,22.57 -3.905,45.143 -5.809,67.719c-0.667,7.753 -1.355,15.505 -2.059,23.255c-6.651,73.337 -8.584,146.083 -8.278,219.703c0.012,5.471 0.023,10.942 0.035,16.579c0.259,116.569 6.565,230.895 20.825,346.659c1.015,9.157 1.015,9.157 1.015,17.491c-2.331,-0.902 -4.662,-1.805 -7.064,-2.734c-55.057,-19.119 -103.026,-9.927 -155.436,11.068c2.124,-34.694 4.675,-69.284 7.958,-103.89c18.578,-195.864 18.53,-391.418 -5.183,-586.739c-13.14,-108.759 -13.14,-108.759 3.475,-130.204c7.031,-6.657 7.031,-6.657 14.583,-12.5c2.32,-1.799 4.641,-3.599 7.031,-5.452c33.915,-21.124 80.038,-16.552 114.762,0.179Z" style="fill:#fcfcfb;fill-rule:nonzero;"/><path d="M1326.261,41.863c20.111,11.496 36.324,23.513 45.54,45.296c2.833,31.558 -2.026,63.277 -5.99,94.531c-4.198,34.424 -7.943,68.562 -9.391,103.223c-1.101,12.623 -3.079,24.344 -5.455,36.761c-5.073,30.182 -5.447,59.953 -5.418,90.485c-0.021,5.969 -0.044,11.938 -0.068,17.907c-0.05,15.785 -0.036,31.569 -0,47.354c0.02,9.784 0.024,19.568 0.026,29.353c0.056,89.108 2.723,177.119 12.372,265.759c3.573,36.698 4.483,73.62 5.591,110.461c-13.213,-2.359 -24.85,-5.599 -37.24,-10.677c-39.991,-13.53 -82.34,-8.491 -121.094,6.51c0.589,-10.071 1.199,-20.14 1.823,-30.208c0.246,-4.262 0.246,-4.262 0.496,-8.61c1.379,-21.855 1.379,-21.855 3.912,-31.736c2.334,-9.563 3.114,-18.557 3.723,-28.382c0.25,-3.945 0.5,-7.891 0.757,-11.956c0.252,-4.28 0.504,-8.559 0.764,-12.969c0.409,-6.74 0.409,-6.74 0.826,-13.616c12.118,-203.688 9.564,-403.174 -10.462,-606.31c-5.389,-54.702 -5.389,-54.702 -1.839,-68.713c28.544,-34.173 80.961,-39.231 121.126,-24.463Z" style="fill:#fcfdfb;fill-rule:nonzero;"/><path d="M1359.302,20.493c20.065,13.427 34.051,28.771 45.833,50c1.428,11.705 1.991,21.464 1.562,33.073c-0.06,3.111 -0.12,6.221 -0.181,9.426c-0.719,25.13 -3.645,49.76 -7.338,74.624c-4.645,31.684 -7.739,63.499 -10.71,95.378c-0.388,3.952 -0.776,7.905 -1.176,11.977c-18.155,190.816 -39.566,453.297 22.009,638.023c2.107,24.843 -0.34,47.252 -8.333,70.833c-8.854,10.417 -8.854,10.417 -16.667,16.667c-6.875,-2.75 -13.75,-5.5 -20.833,-8.333c0.688,-4.039 1.375,-8.078 2.083,-12.24c0.74,-5.637 1.431,-11.28 2.083,-16.927c0.381,-3.056 0.763,-6.112 1.156,-9.261c1.306,-18.576 -0.198,-29.664 -12.093,-44.385c-12.202,-13.364 -21.336,-16.657 -39.062,-25.521l0,83.333c-40.185,17.86 -64.539,24.63 -105.729,9.635c-20.194,-9.103 -34.661,-19.715 -44.866,-39.877c-4.306,-13.773 -3.71,-23.881 -2.383,-38.231c0.457,-5.156 0.914,-10.311 1.385,-15.623c0.526,-5.248 1.051,-10.496 1.593,-15.904c0.467,-4.835 0.933,-9.669 1.414,-14.65c1.46,-14.655 3.004,-29.3 4.576,-43.943c1.605,-15.074 3.193,-30.149 4.723,-45.231c1.194,-11.685 2.559,-23.337 4.006,-34.993c8.292,-70.649 7.583,-141.56 7.436,-212.583c-0.019,-10.66 -0.022,-21.319 -0.021,-31.979c-0.039,-114.253 -3.661,-227.763 -13.8,-341.621c-62.684,-10.273 -62.684,-10.273 -125.781,-17.448c-3.617,-0.341 -7.235,-0.682 -10.962,-1.034c-8.584,-0.806 -17.17,-1.583 -25.757,-2.352c2.664,-0.516 5.328,-1.031 8.073,-1.562c2.836,-0.859 5.672,-1.719 8.594,-2.604c1.375,-2.75 2.75,-5.5 4.167,-8.333c6.868,-4.292 13.813,-8.463 20.833,-12.5c1.375,-1.375 2.75,-2.75 4.167,-4.167c26.629,-1.049 51.192,1.472 77.344,6.25c3.408,0.596 6.816,1.192 10.327,1.807c8.281,1.453 16.556,2.944 24.829,4.443c-0.435,-7.162 -0.435,-7.162 -0.879,-14.469c-2.493,-57.487 -2.493,-57.487 10.775,-74.072c7.064,-6.071 7.064,-6.071 15.104,-11.458c2.739,-2.079 5.479,-4.157 8.301,-6.299c43.196,-27.278 110.749,-22.14 154.199,2.132Zm-154.167,45.833c-1.654,10.79 -1.654,10.79 -1,22.859c0.114,4.472 0.228,8.944 0.346,13.552c0.97,20.165 2.368,40.242 4.153,60.351c0.36,4.273 0.72,8.546 1.091,12.949c1.141,13.519 2.309,27.035 3.483,40.55c7.511,87.194 13.701,173.91 13.802,261.458c0.008,3.589 0.017,7.177 0.025,10.875c0.039,69.498 -3.137,138.761 -7.057,208.136c-0.281,5.007 -0.562,10.015 -0.851,15.174c-0.812,14.247 -1.656,28.492 -2.518,42.736c-0.252,4.28 -0.504,8.561 -0.764,12.971c-0.375,5.917 -0.375,5.917 -0.757,11.954c-0.213,3.432 -0.426,6.865 -0.645,10.401c-0.942,9.045 -2.889,17.243 -5.142,26.035c-0.929,10.777 -1.721,21.498 -2.344,32.292c-0.27,4.359 -0.27,4.359 -0.545,8.805c-0.44,7.133 -0.861,14.268 -1.278,21.403c2.331,-0.902 4.662,-1.805 7.064,-2.734c39.9,-13.856 82.633,-16.646 122.249,-0.407c9.541,3.661 18.997,5.398 29.02,7.308c-1.013,-19.609 -2.049,-39.216 -3.103,-58.823c-0.353,-6.62 -0.701,-13.24 -1.042,-19.861c-0.502,-9.716 -1.021,-19.431 -1.552,-29.145c-0.185,-3.39 -0.37,-6.78 -0.561,-10.273c-1.035,-17.779 -2.359,-35.475 -4.192,-53.191c-6.905,-67.316 -7.506,-134.269 -7.304,-201.858c0.048,-16.196 0.02,-32.391 -0.03,-48.586c-0.03,-12.694 -0.02,-25.388 0.001,-38.083c0.005,-5.971 -0.001,-11.942 -0.021,-17.913c-0.083,-32.248 1.472,-62.852 7.439,-94.564c2.803,-15.239 4.212,-30.451 5.432,-45.884c0.256,-3.005 0.512,-6.009 0.775,-9.105c0.797,-9.393 1.567,-18.788 2.334,-28.184c0.786,-9.47 1.577,-18.939 2.378,-28.407c0.72,-8.533 1.422,-17.067 2.123,-25.602c1.437,-14.989 3.447,-29.797 5.655,-44.689c1.8,-20.096 2.218,-36.424 -5.729,-55.208c-25.103,-26.299 -47.56,-38.035 -84.375,-39.062c-29.809,1.235 -57.35,6.784 -76.562,31.771Z" style="fill:#49513a;fill-rule:nonzero;"/><path d="M163.468,3.826c30.521,6.293 51.437,21.751 70.833,45.833c6.386,12.772 4.595,26.115 4.427,40.104c-0.019,2.943 -0.038,5.887 -0.057,8.919c-0.049,7.27 -0.124,14.54 -0.203,21.81c4.426,-0.602 8.852,-1.203 13.411,-1.823c5.946,-0.782 11.892,-1.564 17.839,-2.344c4.351,-0.596 4.351,-0.596 8.789,-1.204c53.888,-6.985 53.888,-6.985 67.773,2.214c13.021,18.898 13.021,18.898 13.021,28.158l8.333,0c0.43,-3.008 0.859,-6.016 1.302,-9.115c3.38,-13.828 6.201,-21.524 15.365,-32.552c12.599,-2.913 23.186,-4.435 35.938,-5.208c3.552,-0.287 7.104,-0.573 10.764,-0.869c10.817,-0.845 21.638,-1.554 32.466,-2.256c5.822,-0.459 11.643,-0.925 17.464,-1.4c35.212,-2.671 70.409,-3.175 105.713,-3.288c4.215,-0.019 8.429,-0.039 12.772,-0.059c23.131,0.05 45.338,1.319 68.218,4.747c-2.75,1.891 -5.5,3.781 -8.333,5.729c-4.125,3.352 -4.125,3.352 -8.333,6.771l0,8.333c55.688,2.062 55.688,2.062 112.5,4.167l0,4.167c-5.36,0.083 -10.721,0.165 -16.243,0.25c-97.531,1.549 -194.801,3.522 -292.106,10.573c-18.126,1.312 -35.983,2.077 -54.15,1.676c-0.51,2.981 -1.021,5.962 -1.546,9.033c-2.668,12.013 -6.518,22.575 -11.214,33.936c-2.264,5.519 -2.264,5.519 -4.574,11.149c-1.732,4.149 -1.732,4.149 -3.499,8.382c-9.489,1.432 -9.489,1.432 -20.833,0c-7.568,-10.026 -7.568,-10.026 -14.844,-22.917c-11.67,-17.755 -11.67,-17.755 -30.29,-26.107c-13.095,0.067 -25.238,1.299 -38.2,3.19c-7.473,0.788 -14.95,1.546 -22.428,2.279c-3.637,0.359 -7.274,0.717 -11.021,1.086c-2.712,0.265 -5.423,0.529 -8.217,0.802c-1.714,23.472 -3.417,46.946 -5.112,70.419c-0.575,7.947 -1.153,15.894 -1.733,23.84c-5.7,78.047 -10.714,155.843 -10.603,234.126c0.003,3.349 0.005,6.697 0.008,10.147c0.233,116.285 7.884,231.561 20.972,347.078c11.698,103.308 11.698,103.308 -3.532,126.89c-23.85,24.986 -51.491,33.736 -85.677,35.156c-24.15,0.551 -31.243,-6.116 -55.99,-18.49l0,-83.333c-9.625,4.125 -19.25,8.25 -29.167,12.5c1.031,-5.027 1.031,-5.027 2.083,-10.156c2.216,-9.546 2.216,-9.546 2.083,-14.844c-5.5,-2.75 -11,-5.5 -16.667,-8.333c5.104,-2.723 10.23,-5.406 15.365,-8.073c4.278,-2.248 4.278,-2.248 8.643,-4.541c30.263,-13.151 70.233,-13.427 101.563,-4.492c9.778,3.948 19.23,8.105 28.597,12.939c-1.375,-2.75 -2.75,-5.5 -4.167,-8.333c-6.041,-37.174 -8.888,-75.03 -12.5,-112.5c-0.459,-4.735 -0.918,-9.471 -1.392,-14.349c-18.92,-207.13 -12.733,-421.171 13.892,-627.317c3.194,-31.01 3.194,-31.01 -8.854,-58.594c-23.461,-15.811 -46.94,-18.247 -74.479,-20.573l0,-4.167c7.283,-1.519 14.577,-2.985 21.875,-4.427c6.091,-1.233 6.091,-1.233 12.305,-2.49c11.104,-1.349 17.857,-0.812 28.32,2.751l0,-8.333c-8.137,0.145 -8.137,0.145 -16.439,0.293c-7.194,0.078 -14.388,0.154 -21.582,0.228c-3.566,0.07 -7.133,0.14 -10.807,0.212c-20.196,0.155 -36.368,-1.167 -55.339,-9.066c23.648,-15.765 59.68,-10.791 87.5,-8.333Z" style="fill:#4a523a;fill-rule:nonzero;"/><path d="M813.468,291.326l4.167,0c0.204,4.979 0.408,9.958 0.618,15.088c0.622,13.665 1.285,27.326 2.067,40.983c0.176,3.157 0.352,6.314 0.534,9.567c1.279,12.641 4.329,24.594 7.506,36.868c6.779,38.185 7.479,81.203 -14.893,114.16c-24.74,33.815 -58.161,62.005 -91.146,87.5c-19.5,16.728 -31.059,39.037 -35.71,64.209c-1.604,32.878 9.852,65.077 22.412,95.085c19.137,47.338 11.721,100.423 -5.729,146.891c-10.078,22.731 -21.576,44.148 -35.661,64.648c-2.637,4.528 -5.274,9.056 -7.992,13.721c-7.747,9.017 -12.022,11.113 -23.83,13.51c-14.181,0.901 -28.188,1.017 -42.397,0.894c-10.504,0.125 -21.007,0.272 -31.51,0.439c-7.944,0.1 -7.944,0.1 -16.048,0.201c-27.948,0.712 -55.695,3.37 -83.517,5.988c-20.578,1.901 -40.704,3.174 -61.372,2.747c13.093,-14.086 27.68,-24.66 43.49,-35.417c68.036,-47.535 144.106,-113.049 160.677,-197.917c1.298,-24.545 0.103,-49.025 -0.854,-73.568c-0.997,-44.734 7.605,-76.229 37.638,-109.831c27.252,-24.899 57.394,-42.183 90.153,-58.781c29.574,-15.694 50.396,-35.061 61.865,-67.196c1.273,-3.459 2.546,-6.918 3.857,-10.482c5.836,-17.119 7.744,-29.674 7.454,-47.819c-0.051,-5.129 -0.102,-10.259 -0.155,-15.544c-0.146,-10.808 -0.309,-21.615 -0.488,-32.422c-0.046,-5.14 -0.091,-10.28 -0.138,-15.576c-0.07,-4.699 -0.14,-9.398 -0.213,-14.24c0.887,-12.974 3.687,-22.024 9.213,-33.71Z" style="fill:#fafbf8;fill-rule:nonzero;"/><path d="M1196.802,399.66l4.167,0c0.104,2.376 0.209,4.753 0.316,7.201c0.482,10.708 0.994,21.415 1.507,32.122c0.164,3.741 0.328,7.482 0.496,11.336c0.262,5.338 0.262,5.338 0.529,10.783c0.153,3.295 0.305,6.59 0.463,9.984c0.046,7.799 0.046,7.799 5.022,11.907c0.516,-4.727 1.031,-9.453 1.562,-14.323c0.859,-4.898 1.719,-9.797 2.604,-14.844c2.75,-1.375 5.5,-2.75 8.333,-4.167c6.253,203.008 6.253,203.008 0.521,291.146c-0.189,2.948 -0.378,5.896 -0.572,8.933c-3.124,47.129 -3.124,47.129 -8.282,66.588c-1.246,14.02 -2.111,28.043 -2.995,42.09c-1.172,12.077 -1.172,12.077 -5.339,20.41c2.331,-1.203 4.662,-2.406 7.064,-3.646c36.351,-16.831 75.288,-19.752 113.77,-7.552c14.381,5.48 27.951,12.576 41.667,19.531c-0.446,-4.619 -0.892,-9.238 -1.351,-13.997c-0.508,-6.098 -1.013,-12.196 -1.514,-18.294c-0.303,-3.04 -0.607,-6.08 -0.92,-9.212c-1.052,-13.61 -1.318,-23.25 4.744,-35.645c7.373,-6.185 7.373,-6.185 24.04,-6.185c0.357,3.469 0.714,6.937 1.081,10.511c1.332,12.884 2.677,25.766 4.03,38.647c0.869,8.312 1.724,16.625 2.579,24.938c0.551,5.223 1.101,10.447 1.668,15.828c0.502,4.822 1.004,9.644 1.521,14.613c1.266,12.371 1.266,12.371 5.787,24.629c2.107,24.843 -0.34,47.252 -8.333,70.833c-8.854,10.417 -8.854,10.417 -16.667,16.667c-6.875,-2.75 -13.75,-5.5 -20.833,-8.333c0.688,-4.039 1.375,-8.078 2.083,-12.24c0.74,-5.637 1.431,-11.28 2.083,-16.927c0.381,-3.056 0.763,-6.112 1.156,-9.261c1.306,-18.576 -0.198,-29.664 -12.093,-44.385c-12.202,-13.364 -21.336,-16.657 -39.062,-25.521l0,83.333c-40.185,17.86 -64.539,24.63 -105.729,9.635c-20.194,-9.103 -34.661,-19.715 -44.866,-39.877c-4.306,-13.773 -3.71,-23.881 -2.383,-38.231c0.457,-5.156 0.914,-10.311 1.385,-15.623c0.789,-7.872 0.789,-7.872 1.593,-15.904c0.467,-4.835 0.933,-9.669 1.414,-14.65c1.46,-14.655 3.007,-29.299 4.576,-43.943c1.114,-10.628 2.227,-21.256 3.337,-31.885c0.811,-7.741 0.811,-7.741 1.638,-15.639c2.124,-20.352 4.216,-40.706 6.224,-61.07c0.314,-3.04 0.628,-6.081 0.951,-9.213c6.973,-71.782 7.878,-143.995 9.205,-216.047c0.181,-9.275 0.362,-18.549 0.545,-27.824c0.44,-22.409 0.865,-44.819 1.278,-67.228Z" style="fill:#454d35;fill-rule:nonzero;"/><path d="M205.135,545.493l8.333,0c3.557,18.911 5.037,37.292 5.811,56.51c0.277,6.318 0.557,12.636 0.839,18.954c0.218,4.976 0.218,4.976 0.441,10.052c3.186,71.198 9.268,141.768 17.276,212.576c11.674,103.362 11.674,103.362 -3.533,126.908c-23.85,24.986 -51.491,33.736 -85.677,35.156c-24.15,0.551 -31.243,-6.116 -55.99,-18.49l0,-83.333c-9.625,4.125 -19.25,8.25 -29.167,12.5c0.688,-3.352 1.375,-6.703 2.083,-10.156c2.216,-9.546 2.216,-9.546 2.083,-14.844c-5.5,-2.75 -11,-5.5 -16.667,-8.333c5.104,-2.723 10.23,-5.406 15.365,-8.073c4.278,-2.248 4.278,-2.248 8.643,-4.541c30.263,-13.151 70.233,-13.427 101.562,-4.492c9.778,3.948 19.23,8.105 28.597,12.939c-1.375,-2.75 -2.75,-5.5 -4.167,-8.333c-9.857,-57.713 -13.703,-116.525 -13.802,-175c-0.022,-4.818 -0.044,-9.635 -0.066,-14.599c0.287,-33.78 0.287,-33.78 9.702,-47.901c1.448,-8.236 1.448,-8.236 1.579,-17.188c0.142,-3.287 0.285,-6.574 0.431,-9.961c0.11,-3.416 0.22,-6.832 0.334,-10.352c0.25,-6.771 0.515,-13.542 0.798,-20.312c0.1,-2.997 0.199,-5.994 0.302,-9.082c0.723,-8.105 0.723,-8.105 4.89,-20.605Z" style="fill:#485038;fill-rule:nonzero;"/><path d="M413.468,241.326c11.368,1.48 15.806,3.196 23.531,11.907c3.273,4.942 3.273,4.942 6.612,9.984c2.39,3.558 4.78,7.117 7.243,10.783c3.666,5.611 3.666,5.611 7.406,11.336c2.508,3.757 5.017,7.514 7.601,11.385c6.19,9.285 12.334,18.597 18.441,27.938c17.747,-9.846 29.198,-20.909 42.318,-36.133c7.682,-5.534 7.682,-5.534 17.773,-5.566c14.133,5.525 20.61,13.064 30.534,24.512c3.609,4.136 7.219,8.271 10.938,12.533c13.508,15.949 26.814,32.056 39.876,48.372c7.574,9.244 15.489,17.891 23.665,26.595c9.896,13.021 9.896,13.021 9.375,25.26c-1.203,2.836 -2.406,5.672 -3.646,8.594c-14.274,-2.369 -20.065,-6.332 -29.167,-17.448c-3.706,-4.439 -3.706,-4.439 -7.487,-8.968c-3.029,-3.658 -6.059,-7.315 -9.18,-11.084c-4.178,-4.875 -8.367,-9.741 -12.565,-14.6c-38.54,-44.634 -38.54,-44.634 -49.935,-60.4c-16.422,6.948 -28.289,17.613 -41.667,29.167c4.719,15.102 11.745,25.409 21.615,37.5c11.785,15.067 11.785,15.067 11.198,29.167c-1.203,2.75 -2.406,5.5 -3.646,8.333c-7.357,-0.635 -7.357,-0.635 -16.667,-4.167c-7.747,-10.433 -7.747,-10.433 -15.625,-23.177c-10.484,-16.429 -10.484,-16.429 -26.693,-25.537c-9.928,0.121 -9.928,0.121 -24.349,2.881c-3.008,-1.117 -6.016,-2.234 -9.115,-3.385c-3.738,-0.387 -3.738,-0.387 -7.552,-0.781c-11.024,9.983 -11.024,9.983 -20.833,20.833l-8.333,0c-1.461,-3.438 -2.922,-6.875 -4.427,-10.417c-6.846,-11.307 -6.846,-11.307 -17.22,-11.8c-9.524,0.075 -18.873,0.489 -28.353,1.383c-1.167,2.419 -2.333,4.837 -3.535,7.329c-7.831,15.238 -17.414,29.229 -26.934,43.452c-1.974,3.07 -3.948,6.139 -5.981,9.302c-15.004,22.312 -15.004,22.312 -29.614,27.368c-2.949,0.016 -5.897,0.032 -8.936,0.049c-3.239,-6.559 -3.239,-6.559 -4.167,-16.667c5.755,-10.158 11.608,-19.03 18.49,-28.385c4.222,-5.929 8.443,-11.859 12.663,-17.79c2.332,-3.242 4.665,-6.484 7.068,-9.825c14.316,-20.059 28.235,-40.396 42.249,-60.667c18.528,-26.771 37.255,-53.299 57.031,-79.167Z" style="fill:#484f37;fill-rule:nonzero;"/><path d="M1017.635,649.66l12.5,0c10.812,19.046 21.55,38.13 32.222,57.255c5.066,9.034 10.199,18.028 15.336,27.022c3.074,5.499 6.145,11 9.212,16.504c2.216,3.815 2.216,3.815 4.476,7.708c6.581,11.975 9.743,19.09 8.382,32.868c-0.978,2.852 -1.955,5.704 -2.962,8.643l-12.5,0c-5.778,-6.999 -5.778,-6.999 -11.198,-16.146c-1.821,-2.997 -3.642,-5.994 -5.518,-9.082c-4.118,-8.105 -4.118,-8.105 -4.118,-16.439c-2.766,0.795 -5.532,1.59 -8.382,2.409c-11.235,2.821 -21.717,5.14 -33.285,5.924c-11.458,-8.333 -11.458,-8.333 -20.833,-16.667c-13.671,2.585 -13.671,2.585 -25,8.333c2.312,15.753 6.403,25.786 15.658,38.688c2.261,3.241 4.522,6.483 6.852,9.823c4.804,6.748 9.622,13.486 14.453,20.215c2.25,3.236 4.501,6.472 6.82,9.806c2.09,2.922 4.18,5.844 6.333,8.855c4.051,8.446 4.051,8.446 2.616,17.861c-1.353,3.59 -1.353,3.59 -2.732,7.252c-11.545,-1.526 -16.106,-3.595 -24.382,-12.044c-2.438,-3.244 -4.877,-6.488 -7.389,-9.831c-2.46,-3.201 -4.92,-6.402 -7.454,-9.701c-6.576,-10.042 -10.904,-19.652 -14.941,-30.924c-6.682,-0.226 -13.367,-0.387 -20.052,-0.521c-5.583,-0.145 -5.583,-0.145 -11.279,-0.293c-11.394,0.052 -11.394,0.052 -22.835,9.147c-10.355,-1.328 -19.399,-3.629 -29.167,-7.292c-13.407,-1.676 -18.51,3.28 -29.167,11.458c-10.164,10.757 -19.756,21.915 -29.167,33.333c-5.5,-1.375 -11,-2.75 -16.667,-4.167c1.865,-20.227 10.316,-29.149 24.219,-43.49c13.541,-14.124 26.77,-28.309 39.209,-43.424c2.195,-2.656 4.39,-5.313 6.652,-8.05c4.249,-5.179 8.462,-10.388 12.632,-15.631c9.179,-11.091 15.237,-17.929 29.17,-22.299c4.431,-0.218 4.431,-0.218 8.952,-0.439c10.312,12.375 10.312,12.375 20.833,25c2.068,-3.126 4.136,-6.252 6.266,-9.473c7.458,-11.237 14.952,-22.449 22.469,-33.647c4.323,-6.47 8.597,-12.973 12.866,-19.478c2.514,-3.749 5.027,-7.498 7.617,-11.361c3.392,-5.124 3.392,-5.124 6.852,-10.352c3.182,-3.642 3.182,-3.642 6.429,-7.357Z" style="fill:#4a5039;fill-rule:nonzero;"/><path d="M1025.968,245.493c18.807,8.549 28.443,19.61 38.9,36.784c6.462,21.133 4.846,37.522 -3.646,57.373c-2.815,4.861 -5.715,9.673 -8.691,14.437c-1.501,2.514 -3.002,5.029 -4.549,7.619c-11.319,18.546 -23.727,34.753 -38.68,50.454c-11.08,-1.552 -15.932,-3.43 -23.942,-11.458c-7.483,-9.954 -14.787,-19.98 -21.891,-30.208c-2.148,-2.992 -4.297,-5.983 -6.51,-9.066c-15.973,-24.821 -19.201,-49.327 -14.323,-78.434c18.194,-35.922 45.31,-42.997 83.333,-37.5Z" style="fill:#495239;fill-rule:nonzero;"/><path d="M425.968,691.326c17.294,7.247 26.861,17.411 37.24,32.812c8.92,26.235 5.009,45.389 -6.641,69.645c-12.683,22.748 -27.405,47.004 -47.266,64.209c-7.812,0.26 -7.812,0.26 -16.667,-4.167c-30.95,-31.764 -51.995,-68.613 -51.758,-113.33c2.803,-18.606 12.645,-29.058 26.758,-40.837c18.682,-12.455 36.442,-11.299 58.333,-8.333Z" style="fill:#475036;fill-rule:nonzero;"/><path d="M1349.861,15.219c24.639,13.764 41.335,30.593 55.273,55.273c9.177,58.573 -6.682,121.6 -16.667,179.167l-4.167,0l0,-25l-8.333,0c-0.379,-4.745 -0.379,-4.745 -0.765,-9.587c-0.349,-4.141 -0.698,-8.282 -1.058,-12.549c-0.338,-4.109 -0.677,-8.218 -1.025,-12.451c-0.977,-11.637 -0.977,-11.637 -5.485,-23.747c-0.148,-5.885 -0.064,-11.778 0.179,-17.66c0.089,-3.419 0.177,-6.837 0.269,-10.36c0.221,-7.141 0.492,-14.282 0.814,-21.419c0.49,-23.189 -1.324,-37.108 -17.928,-54.728c-25.857,-19.396 -52.006,-24.934 -83.594,-28.385c-6.006,-0.753 -6.006,-0.753 -12.134,-1.522c-9.751,-1.213 -19.505,-2.353 -29.272,-3.426l0,-20.833c37.066,-12.355 88.421,-8.224 123.893,7.227Z" style="fill:#434b33;fill-rule:nonzero;"/><path d="M379.549,462.794c12.332,4.883 18.117,12.471 26.628,22.542c2.943,3.443 5.887,6.886 8.919,10.433c2.213,2.659 4.426,5.317 6.706,8.057c10.749,-5.033 18.003,-9.503 27.083,-17.448c10.417,-7.552 10.417,-7.552 18.034,-7.178c12.96,5.431 20.962,13.738 30.924,23.584c3.717,3.588 7.434,7.176 11.263,10.872c8.529,11.003 8.529,11.003 9.766,22.786c-0.612,4.479 -0.612,4.479 -1.237,9.049c-21.181,-0.642 -30.656,-12.586 -44.352,-27.1c-1.864,-2.057 -3.728,-4.114 -5.648,-6.234c-8.333,3.297 -8.333,3.297 -16.667,8.333c-4.831,14.493 -2.951,22.746 0,37.5c-5.5,1.375 -11,2.75 -16.667,4.167c-17.875,-22 -35.75,-44 -54.167,-66.667c-16.899,16.66 -16.899,16.66 -31.689,34.424c-1.775,2.339 -3.55,4.678 -5.379,7.088c-1.775,2.371 -3.55,4.743 -5.379,7.186c-19.116,25.366 -19.116,25.366 -28.385,34.635c-8.854,-1.562 -8.854,-1.562 -16.667,-4.167c2.249,-16.168 6.262,-25.26 16.667,-37.76c16.068,-19.728 31.129,-40.037 46.175,-60.547c11.62,-14.578 11.62,-14.578 24.072,-13.558Z" style="fill:#484f38;fill-rule:nonzero;"/><path d="M1050.968,278.826c10.539,10.1 13.92,19.146 15.104,33.333c-1.277,38.707 -31.493,72.872 -56.771,100c-11.08,-1.552 -15.932,-3.43 -23.942,-11.458c-7.484,-9.955 -14.801,-19.968 -21.891,-30.208c-2.148,-3.088 -4.297,-6.177 -6.51,-9.359c-14.702,-23.431 -16.892,-42.466 -14.323,-69.808c13.871,9.247 15.626,13.945 20.833,29.167c4.125,-1.375 8.25,-2.75 12.5,-4.167c2.32,4.125 2.32,4.125 4.688,8.333c7.351,9.523 7.351,9.523 20.052,10.417c15.587,-2.545 20.191,-6.093 29.427,-18.75c3.32,-11.008 3.32,-11.008 4.167,-20.833c2.75,2.75 5.5,5.5 8.333,8.333c2.75,-8.25 5.5,-16.5 8.333,-25Z" style="fill:#434b32;fill-rule:nonzero;"/><path d="M1050.779,558.746c10.232,4.099 15.19,8.938 22.618,17.053c2.541,2.75 5.081,5.5 7.699,8.333c2.605,2.89 5.21,5.779 7.894,8.757c2.637,2.857 5.274,5.715 7.992,8.659c10.6,11.568 20.263,22.525 28.988,35.612c-1.562,11.198 -1.562,11.198 -4.167,20.833c-29.162,-12.394 -52.319,-41.713 -70.833,-66.667c-17.25,7.745 -30.218,19.229 -44.515,31.413c-11.436,7.213 -17.2,7.93 -30.485,6.087c-13.802,-8.333 -13.802,-8.333 -25,-16.667c-1.004,2.293 -2.009,4.587 -3.044,6.95c-6.511,11.961 -14.374,21.534 -23.258,31.852c-3.164,3.765 -6.327,7.53 -9.587,11.41c-9.945,8.122 -9.945,8.122 -21.582,7.259c-3.035,-1.09 -6.069,-2.181 -9.196,-3.304c2.431,-13.107 6.073,-20.211 15.218,-29.85c2.205,-2.353 4.41,-4.705 6.681,-7.129c2.312,-2.406 4.625,-4.812 7.007,-7.292c2.296,-2.438 4.592,-4.877 6.958,-7.389c8.767,-9.289 17.604,-18.475 26.636,-27.507c14.34,1.471 21.12,4.358 33.333,12.5c21.365,-0.996 36.41,-20.604 51.432,-34.017c11.068,-7.65 11.068,-7.65 19.212,-6.897Z" style="fill:#4a503a;fill-rule:nonzero;"/><path d="M413.468,241.326c5.5,1.375 11,2.75 16.667,4.167c3.893,12.543 4.352,16.11 0,29.167c-3.787,1.748 -3.787,1.748 -7.65,3.532c-12.521,6.668 -16.852,15.401 -24.121,27.458c-2.46,4.034 -4.92,8.067 -7.454,12.223c-2.181,3.615 -4.361,7.229 -6.608,10.954c-2.75,4.125 -5.5,8.25 -8.333,12.5l20.833,0c-2.75,1.375 -5.5,2.75 -8.333,4.167c-2.717,8.436 -2.717,8.436 -4.167,16.667c-6.961,0.516 -6.961,0.516 -14.062,1.042c-4.984,1.031 -9.969,2.062 -15.104,3.125c-4.758,7.601 -4.758,7.601 -8.333,16.667c-7.04,11.598 -14.589,22.841 -22.135,34.115c-1.974,3.07 -3.948,6.139 -5.981,9.302c-15.004,22.312 -15.004,22.312 -29.614,27.368c-2.949,0.016 -5.897,0.032 -8.936,0.049c-3.239,-6.559 -3.239,-6.559 -4.167,-16.667c5.755,-10.158 11.608,-19.03 18.49,-28.385c4.222,-5.929 8.443,-11.859 12.663,-17.79c2.332,-3.242 4.665,-6.484 7.068,-9.825c14.316,-20.059 28.235,-40.396 42.249,-60.667c18.528,-26.771 37.255,-53.299 57.031,-79.167Z" style="fill:#494f39;fill-rule:nonzero;"/><path d="M1367.635,128.826l4.167,0l0,45.833l4.167,0l0,50c5.5,-1.375 11,-2.75 16.667,-4.167c0.492,27.479 -1.427,54.412 -3.906,81.771c-0.363,4.211 -0.725,8.422 -1.099,12.76c-1.776,20.046 -3.745,39.84 -7.495,59.635c-2.578,-2.062 -5.156,-4.125 -7.812,-6.25c-8.183,-7.051 -8.183,-7.051 -17.188,-6.25c-1.375,-2.75 -2.75,-5.5 -4.167,-8.333c-1.375,93.5 -2.75,187 -4.167,283.333l-4.167,0c-0.194,-36.622 -0.342,-73.243 -0.432,-109.865c-0.043,-17.01 -0.102,-34.02 -0.197,-51.029c-0.091,-16.453 -0.141,-32.906 -0.162,-49.359c-0.015,-6.239 -0.045,-12.477 -0.09,-18.716c-0.231,-33.141 0.962,-64.963 7.174,-97.612c2.84,-15.196 4.225,-30.369 5.442,-45.766c0.256,-3.005 0.512,-6.009 0.775,-9.105c0.797,-9.393 1.567,-18.788 2.334,-28.184c0.786,-9.47 1.577,-18.939 2.378,-28.407c0.72,-8.533 1.422,-17.067 2.123,-25.602c1.439,-15.013 3.397,-29.783 5.655,-44.689Z" style="fill:#5c644d;fill-rule:nonzero;"/><path d="M425.968,691.326c16.996,7.396 26.731,16.068 35.156,32.552c0.773,3.008 1.547,6.016 2.344,9.115c-30.169,38.397 -30.169,38.397 -50,50c-15.625,0.521 -15.625,0.521 -29.167,-4.167c-9.032,-9.217 -12.353,-14.118 -13.102,-27.116c0.457,-3.599 0.913,-7.197 1.383,-10.905c0.403,-3.62 0.806,-7.24 1.221,-10.97c2.165,-9.342 2.165,-9.342 10.498,-17.676l-25,0c17.857,-24.631 37.405,-26.066 66.667,-20.833Z" style="fill:#485038;fill-rule:nonzero;"/><path d="M930.135,745.493c10.312,18.562 10.312,18.562 20.833,37.5c-8.25,4.125 -8.25,4.125 -16.667,8.333c-1.375,2.75 -2.75,5.5 -4.167,8.333c4.125,1.375 8.25,2.75 12.5,4.167c-21.993,12.786 -21.993,12.786 -35.938,11.458c-6.125,-1.934 -12.215,-3.995 -18.229,-6.25c-13.407,-1.676 -18.51,3.28 -29.167,11.458c-10.164,10.757 -19.756,21.915 -29.167,33.333c-5.5,-1.375 -11,-2.75 -16.667,-4.167c1.689,-20.492 11.99,-31.235 25.781,-45.312c4.17,-4.391 8.337,-8.786 12.5,-13.184c2.014,-2.107 4.028,-4.214 6.104,-6.384c10.671,-11.313 20.609,-23.221 30.615,-35.12c4.125,1.375 8.25,2.75 12.5,4.167c22.778,-8.333 22.778,-8.333 29.167,-8.333Z" style="fill:#515741;fill-rule:nonzero;"/><path d="M1268.416,895.232c7.863,0.129 7.863,0.129 15.885,0.26c0.112,11.719 0.195,23.437 0.26,35.156c0.035,3.344 0.07,6.687 0.106,10.132c0.036,8.516 -0.148,17.032 -0.366,25.545c-7.079,7.079 -15.842,5.218 -25.521,5.469c-23.094,-0.301 -35.909,-2.931 -53.646,-17.969c-3.906,-15.625 -3.906,-15.625 -4.167,-29.167c5.977,-4.098 11.97,-8.173 17.969,-12.24c3.335,-2.272 6.671,-4.544 10.107,-6.885c13.445,-8.383 23.851,-10.557 39.372,-10.303Z" style="fill:#f5f6f1;fill-rule:nonzero;"/><path d="M125.968,895.493c21.762,-0.882 36.212,-0.755 55.729,9.896c3.47,1.837 6.939,3.674 10.514,5.566c8.757,5.371 8.757,5.371 17.09,13.704c0.26,14.062 0.26,14.062 -4.167,29.167c-20.913,17.731 -38.737,18.355 -65.592,17.66c-9.408,-0.993 -9.408,-0.993 -13.574,-5.16c-0.305,-11.928 -0.385,-23.753 -0.26,-35.677c0.019,-3.36 0.038,-6.719 0.057,-10.181c0.049,-8.325 0.124,-16.65 0.203,-24.976Z" style="fill:#f7f8f4;fill-rule:nonzero;"/><path d="M200.968,153.826l4.167,0c0.252,2.61 0.505,5.221 0.765,7.91c0.349,3.405 0.698,6.811 1.058,10.319c0.508,5.076 0.508,5.076 1.025,10.254c0.864,9.195 0.864,9.195 5.485,17.35c0.292,7.113 0.352,14.236 0.26,21.354c-0.038,3.792 -0.075,7.584 -0.114,11.491c-0.073,4.367 -0.073,4.367 -0.146,8.822l8.333,0c0.521,14.062 0.521,14.062 0,29.167c-2.75,2.75 -5.5,5.5 -8.333,8.333c-0.695,10.765 -0.695,10.765 0,20.833l4.167,0c0.121,18.229 0.195,36.458 0.26,54.688c0.035,5.156 0.07,10.312 0.106,15.625c0.013,4.995 0.027,9.99 0.041,15.137c0.022,4.582 0.044,9.164 0.066,13.885c-0.469,13.066 -2.197,25.334 -4.64,38.165l-8.333,0l0,-29.167l-4.167,0c-0.104,-3.491 -0.209,-6.981 -0.316,-10.577c-0.396,-12.937 -0.81,-25.874 -1.235,-38.81c-0.269,-8.358 -0.519,-16.717 -0.768,-25.075c-0.175,-5.237 -0.349,-10.474 -0.529,-15.869c-0.153,-4.844 -0.305,-9.688 -0.463,-14.679c-0.098,-11.462 -0.098,-11.462 -5.022,-19.989c-1.006,-13.081 -0.791,-26.207 -0.781,-39.323c-0.004,-5.638 -0.004,-5.638 -0.008,-11.389c0.212,-26.844 2.42,-52.363 9.123,-78.455Z" style="fill:#3c432c;fill-rule:nonzero;"/><path d="M546.802,287.16c12.23,5.437 20.029,10.879 28.678,21.061c2.18,2.539 4.36,5.077 6.606,7.692c2.278,2.714 4.556,5.429 6.903,8.226c2.359,2.784 4.717,5.568 7.147,8.437c4.829,5.706 9.649,11.419 14.459,17.141c6.554,7.706 13.236,15.268 19.995,22.795c3.842,4.362 7.683,8.724 11.523,13.086c3.427,3.835 6.854,7.67 10.384,11.621c6.803,10.775 6.803,10.775 5.794,22.591c-1.042,2.976 -2.084,5.951 -3.158,9.017c-14.274,-2.369 -20.065,-6.332 -29.167,-17.448c-2.481,-2.97 -4.963,-5.94 -7.52,-9.001c-3.019,-3.647 -6.037,-7.294 -9.147,-11.051c-6.273,-7.343 -12.577,-14.66 -18.88,-21.978c-17.493,-20.309 -34.837,-40.728 -51.953,-61.356l8.333,0l0,-20.833Z" style="fill:#4d533b;fill-rule:nonzero;"/><path d="M1166.854,1021.795c3.177,0.491 6.354,0.983 9.627,1.489c8.247,1.422 16.385,3.445 24.487,5.542c2.75,4.125 5.5,8.25 8.333,12.5c-30.952,10.119 -30.952,10.119 -45.833,4.167l0,12.5c-30.675,-2.025 -61.213,-4.07 -91.667,-8.333c-2.75,-6.875 -5.5,-13.75 -8.333,-20.833c2.75,-1.375 5.5,-2.75 8.333,-4.167c2.75,1.375 5.5,2.75 8.333,4.167l0,-8.333c29.425,-7.133 57.344,-3.819 86.719,1.302Z" style="fill:#4c553c;fill-rule:nonzero;"/><path d="M1017.635,687.16l8.333,0c2.798,5.371 5.571,10.756 8.333,16.146c1.547,2.997 3.094,5.994 4.688,9.082c3.646,8.105 3.646,8.105 3.646,16.439l20.833,0l0,8.333c3.094,0.688 6.188,1.375 9.375,2.083c16.574,9.04 22.501,21.864 28.125,39.583c-1.042,12.5 -1.042,12.5 -4.167,20.833l-12.5,0c-5.778,-6.999 -5.778,-6.999 -11.198,-16.146c-1.821,-2.997 -3.642,-5.994 -5.518,-9.082c-4.118,-8.105 -4.118,-8.105 -4.118,-16.439c-13.75,2.75 -27.5,5.5 -41.667,8.333c-4.125,-5.5 -8.25,-11 -12.5,-16.667l8.333,0c-0.785,-10.187 -0.785,-10.187 -4.167,-20.833c-8.308,-4.936 -8.308,-4.936 -16.667,-8.333c3.262,-5.577 6.569,-11.128 9.896,-16.667c1.837,-3.094 3.674,-6.188 5.566,-9.375c2.659,-3.609 2.659,-3.609 5.371,-7.292Z" style="fill:#4a523a;fill-rule:nonzero;"/><path d="M205.135,545.493l8.333,0c3.652,18.843 4.703,36.694 4.72,55.876c0.004,2.875 0.008,5.749 0.012,8.711c0.003,6.04 -0.005,12.081 -0.022,18.121c-0.022,9.207 -0,18.413 0.026,27.619c-0.003,5.895 -0.008,11.789 -0.016,17.684c-0.005,5.318 -0.009,10.635 -0.014,16.114c-0.649,17.111 -3.475,31.35 -8.872,47.541c-2.75,-1.375 -5.5,-2.75 -8.333,-4.167c-2.75,5.5 -5.5,11 -8.333,16.667c-3.795,-22.711 -4.929,-44.699 -4.948,-67.708c-0.051,-3.341 -0.102,-6.682 -0.155,-10.124c-0.062,-24.837 -0.062,-24.837 9.269,-38.835c1.448,-8.236 1.448,-8.236 1.579,-17.188c0.142,-3.287 0.285,-6.574 0.431,-9.961c0.11,-3.416 0.22,-6.832 0.334,-10.352c0.25,-6.771 0.515,-13.542 0.798,-20.312c0.1,-2.997 0.199,-5.994 0.302,-9.082c0.723,-8.105 0.723,-8.105 4.89,-20.605Z" style="fill:#3c432c;fill-rule:nonzero;"/><path d="M417.635,274.66c13.929,12.925 24.01,26.816 34.375,42.708c2.943,4.49 5.887,8.98 8.919,13.607c2.213,3.416 4.426,6.832 6.706,10.352c-10.959,3.211 -15.972,4.336 -27.344,1.562c-3.352,-0.516 -6.703,-1.031 -10.156,-1.562c-7.648,5.557 -7.648,5.557 -12.5,12.5c-5.5,-2.75 -11,-5.5 -16.667,-8.333l0,-8.333c-8.25,1.375 -16.5,2.75 -25,4.167c6.008,-17.298 14.588,-30.416 25.521,-45.052c3.019,-4.066 6.037,-8.132 9.147,-12.321c3.464,-4.6 3.464,-4.6 6.999,-9.294Z" style="fill:#f3f4ee;fill-rule:nonzero;"/><path d="M1021.802,278.826c8.333,6.771 8.333,6.771 12.5,16.667c-0.274,15.635 -0.767,25.263 -11.198,37.24c-12.836,5.898 -20.665,6.755 -34.635,4.427c-10.156,-8.594 -10.156,-8.594 -16.667,-20.833c0,-15.845 0.847,-25.08 10.938,-37.5c14.545,-6.124 24.027,-4.101 39.062,0Z" style="fill:#f4f6f0;fill-rule:nonzero;"/><path d="M421.802,724.66c8.333,6.771 8.333,6.771 12.5,16.667c-0.273,15.582 -0.986,25.252 -10.938,37.5c-14.545,6.124 -24.027,4.101 -39.062,0c-8.333,-6.771 -8.333,-6.771 -12.5,-16.667c0.273,-15.582 0.986,-25.252 10.938,-37.5c14.545,-6.124 24.027,-4.101 39.062,0Z" style="fill:#f3f5ee;fill-rule:nonzero;"/><path d="M1342.635,16.326c28.608,9.255 48.516,27.877 62.5,54.167c-1.042,9.896 -1.042,9.896 -4.167,16.667c-1.375,-2.75 -2.75,-5.5 -4.167,-8.333c-9.625,2.75 -19.25,5.5 -29.167,8.333c-1.977,-3.695 -3.953,-7.391 -5.99,-11.198c-10.15,-15.593 -23.679,-21.89 -40.153,-29.736c-8.024,-4.899 -8.024,-4.899 -12.191,-17.399c11,-1.375 22,-2.75 33.333,-4.167l0,-8.333Z" style="fill:#4c543b;fill-rule:nonzero;"/><path d="M846.802,395.493c13.704,13.704 13.165,26.521 13.281,45.052c-0.112,18.521 -1.486,33.617 -9.115,50.781l-20.833,0c-1.805,4.641 -1.805,4.641 -3.646,9.375c-1.547,3.781 -3.094,7.562 -4.688,11.458c-1.031,2.836 -2.062,5.672 -3.125,8.594c-7.791,12.075 -17.877,17.693 -30.208,24.74l-12.5,0c1.912,-1.719 3.824,-3.438 5.794,-5.208c32.6,-30.683 44.002,-60.635 46.794,-104.818c1.579,-10.807 1.579,-10.807 9.912,-23.307c2.841,-5.524 5.633,-11.073 8.333,-16.667Z" style="fill:#515841;fill-rule:nonzero;"/><path d="M1213.468,957.993c3.996,1.934 3.996,1.934 8.073,3.906c11.067,3.84 19,5.286 30.469,6.25c20.302,1.843 38.285,7.699 57.292,14.844c-4.167,12.5 -4.167,12.5 -14.062,17.448c-29.036,6.508 -58.26,7.021 -85.938,-4.948c1.031,-6.961 1.031,-6.961 2.083,-14.062c2.273,-13.939 2.273,-13.939 2.083,-23.438Z" style="fill:#4e563e;fill-rule:nonzero;"/><path d="M884.302,766.326c5.622,16.866 2.265,25.296 -4.167,41.667c-9.115,5.99 -9.115,5.99 -20.833,12.5c-10.273,10.656 -19.755,21.915 -29.167,33.333c-5.5,-1.375 -11,-2.75 -16.667,-4.167c1.678,-20.667 12.301,-31.968 26.042,-46.354c2.989,-3.279 2.989,-3.279 6.038,-6.624c11.846,-12.681 23.417,-22.239 38.753,-30.355Z" style="fill:#484f38;fill-rule:nonzero;"/><path d="M600.968,616.326c4.125,1.375 8.25,2.75 12.5,4.167c-2.75,34.375 -5.5,68.75 -8.333,104.167c-6.875,-1.375 -13.75,-2.75 -20.833,-4.167c-4.606,-13.817 -4.865,-24.522 -4.948,-39.062c-0.059,-4.673 -0.118,-9.346 -0.179,-14.16c1.5,-20.999 8.641,-34.802 21.794,-50.944Z" style="fill:#414731;fill-rule:nonzero;"/><path d="M971.802,770.493c13.869,16.858 26.496,34.336 38.802,52.344c1.947,2.747 3.894,5.495 5.9,8.325c1.818,2.672 3.636,5.344 5.509,8.097c1.661,2.399 3.323,4.797 5.034,7.268c3.997,9.45 2.235,14.47 -1.079,23.965c-11.545,-1.526 -16.106,-3.595 -24.382,-12.044c-2.438,-3.244 -4.877,-6.488 -7.389,-9.831c-2.46,-3.201 -4.92,-6.402 -7.454,-9.701c-6.576,-10.042 -10.904,-19.652 -14.941,-30.924l-20.833,0c5.729,-6.25 5.729,-6.25 12.5,-12.5l8.333,0c-1.375,-4.125 -2.75,-8.25 -4.167,-12.5c1.375,-4.125 2.75,-8.25 4.167,-12.5Z" style="fill:#4f543e;fill-rule:nonzero;"/><path d="M38.468,91.326c0.903,22.567 0.674,41.307 -8.333,62.5c-1.375,1.375 -2.75,2.75 -4.167,4.167c-1.638,6.995 -3.087,14.035 -4.427,21.094c-1.104,5.744 -1.104,5.744 -2.23,11.605c-0.83,4.439 -0.83,4.439 -1.676,8.968l-4.167,0c-7.812,-35.832 -8.509,-67.787 -4.167,-104.167c5.027,0.129 5.027,0.129 10.156,0.26c10.466,-0.255 10.909,-4.427 19.01,-4.427Z" style="fill:#4d553d;fill-rule:nonzero;"/><path d="M1196.802,399.66l4.167,0c0.104,2.376 0.209,4.753 0.316,7.201c0.482,10.708 0.994,21.415 1.507,32.122c0.164,3.741 0.328,7.482 0.496,11.336c0.175,3.558 0.349,7.117 0.529,10.783c0.153,3.295 0.305,6.59 0.463,9.984c0.046,7.799 0.046,7.799 5.022,11.907c0.516,-4.727 1.031,-9.453 1.562,-14.323c0.859,-4.898 1.719,-9.797 2.604,-14.844c2.75,-1.375 5.5,-2.75 8.333,-4.167l0,112.5c-4.125,2.062 -4.125,2.062 -8.333,4.167c-1.375,-16.5 -2.75,-33 -4.167,-50c-4.125,10.313 -4.125,10.313 -8.333,20.833l-4.167,0l0,-137.5Z" style="fill:#434e32;fill-rule:nonzero;"/><path d="M1013.468,987.16l0,8.333l8.333,0c-4.816,16.3 -9.814,28.644 -20.833,41.667c-11,-1.375 -22,-2.75 -33.333,-4.167c1.375,-8.25 2.75,-16.5 4.167,-25c-5.5,-1.375 -11,-2.75 -16.667,-4.167l29.167,0c1.375,-4.125 2.75,-8.25 4.167,-12.5c12.5,-4.167 12.5,-4.167 25,-4.167Z" style="fill:#3e462e;fill-rule:nonzero;"/><path d="M388.468,712.16c-4.125,6.188 -4.125,6.188 -8.333,12.5c-1.822,7.144 -3.369,14.361 -4.688,21.615c-0.698,3.754 -1.396,7.509 -2.116,11.377c-0.505,2.863 -1.01,5.726 -1.53,8.675c-3.352,0.516 -6.703,1.031 -10.156,1.562c-3.523,0.859 -7.047,1.719 -10.677,2.604c-1.375,2.75 -2.75,5.5 -4.167,8.333c-7.181,-7.181 -5.053,-16.529 -5.208,-26.302c-0.107,-4.023 -0.215,-8.046 -0.326,-12.191c1.566,-13.178 4.832,-18.633 13.867,-28.174c12.381,-5.192 20.713,-4.056 33.333,0Z" style="fill:#3f4730;fill-rule:nonzero;"/><path d="M730.135,582.993c1.375,2.75 2.75,5.5 4.167,8.333c-4.125,6.188 -4.125,6.188 -8.333,12.5l-8.333,0l0,12.5c4.125,1.375 8.25,2.75 12.5,4.167c-11.458,24.479 -11.458,24.479 -20.833,29.167c-1.375,4.125 -2.75,8.25 -4.167,12.5l-8.333,0c-1.375,12.375 -2.75,24.75 -4.167,37.5c-10.076,-10.076 -9.783,-13.201 -10.156,-27.083c0.687,-31.709 14.384,-57.351 36.458,-79.688c3.695,-3.266 7.391,-6.531 11.198,-9.896Z" style="fill:#4f553f;fill-rule:nonzero;"/><path d="M1305.135,899.66l8.333,0c4.632,18.491 4.647,36.54 4.427,55.469c-0.019,3.086 -0.038,6.171 -0.057,9.351c-0.049,7.56 -0.123,15.121 -0.203,22.681c-5.5,1.375 -11,2.75 -16.667,4.167l0,-8.333c-8.167,-6.82 -8.167,-6.82 -16.667,-12.5c4.125,-1.375 8.25,-2.75 12.5,-4.167c-0.097,-3.765 -0.193,-7.53 -0.293,-11.41c-0.075,-4.915 -0.15,-9.829 -0.228,-14.893c-0.097,-4.882 -0.193,-9.765 -0.293,-14.795c0.814,-13.07 0.814,-13.07 9.147,-25.57Z" style="fill:#3f472e;fill-rule:nonzero;"/><path d="M488.468,899.66c2.75,2.75 5.5,5.5 8.333,8.333c-5.5,5.5 -11,11 -16.667,16.667c-4.125,-1.375 -8.25,-2.75 -12.5,-4.167c6.875,-6.875 13.75,-13.75 20.833,-20.833Zm-29.167,25c16.667,8.333 16.667,8.333 20.833,20.833c-5.849,5.012 -11.765,9.945 -17.708,14.844c-4.931,4.133 -4.931,4.133 -9.961,8.35c-9.831,5.973 -9.831,5.973 -19.401,4.785c-2.342,-0.983 -4.684,-1.966 -7.096,-2.979c-1.375,-5.5 -2.75,-11 -4.167,-16.667c12.375,-9.625 24.75,-19.25 37.5,-29.167Z" style="fill:#4d553d;fill-rule:nonzero;"/><path d="M34.302,128.826l4.167,0c0.521,28.125 0.521,28.125 -4.167,37.5c-0.3,6.195 -0.349,12.402 -0.26,18.604c0.032,3.677 0.064,7.353 0.098,11.141c0.108,7.758 0.217,15.516 0.326,23.275c0.032,3.682 0.064,7.364 0.098,11.157c0.048,3.373 0.097,6.745 0.146,10.22c-0.407,8.937 -0.407,8.937 -4.574,21.437l-8.333,0c-6.085,-34.229 -7.263,-70.032 0,-104.167c2.75,-2.75 5.5,-5.5 8.333,-8.333c2.699,-10.711 2.699,-10.711 4.167,-20.833Z" style="fill:#3c462b;fill-rule:nonzero;"/><path d="M496.802,349.66c15.809,14.905 31.728,30.435 41.667,50c-0.781,12.24 -0.781,12.24 -4.167,20.833c-12.385,-1.327 -16.827,-4.318 -26.042,-13.021c-8.947,-14.698 -8.618,-24.233 -7.292,-41.146c-4.125,-1.375 -8.25,-2.75 -12.5,-4.167c2.75,-4.125 5.5,-8.25 8.333,-12.5Z" style="fill:#4d533d;fill-rule:nonzero;"/><path d="M921.802,745.493l8.333,0c6.875,12.375 13.75,24.75 20.833,37.5c-7.371,1.514 -14.751,2.981 -22.135,4.427c-4.109,0.822 -8.218,1.644 -12.451,2.49c-11.247,1.416 -11.247,1.416 -23.747,-2.751c6.975,-16.487 17.215,-28.519 29.167,-41.667Z" style="fill:#f0f3ea;fill-rule:nonzero;"/><path d="M1225.968,12.16c3.73,0.975 3.73,0.975 7.536,1.969c36.936,8.287 71.791,5.437 109.131,2.197l0,8.333c-9.625,2.75 -19.25,5.5 -29.167,8.333l0,4.167c-61.589,-4.015 -61.589,-4.015 -87.5,-8.333l0,-16.667Z" style="fill:#394128;fill-rule:nonzero;"/><path d="M555.135,824.66c2.75,1.375 5.5,2.75 8.333,4.167c4.125,-1.375 8.25,-2.75 12.5,-4.167c2.75,2.75 5.5,5.5 8.333,8.333c-12.375,18.562 -12.375,18.562 -25,37.5c-5.672,-1.289 -5.672,-1.289 -11.458,-2.604c-14.439,-1.666 -18.103,-0.124 -30.208,6.771c12.5,-16.667 25,-33.333 37.5,-50Z" style="fill:#505640;fill-rule:nonzero;"/><path d="M1017.635,687.16l8.333,0c6.875,15.125 13.75,30.25 20.833,45.833c-11.979,2.604 -11.979,2.604 -25,4.167c-2.75,-2.75 -5.5,-5.5 -8.333,-8.333c-5.489,-2.906 -11.038,-5.707 -16.667,-8.333c3.262,-5.577 6.569,-11.128 9.896,-16.667c1.837,-3.094 3.674,-6.188 5.566,-9.375c2.659,-3.609 2.659,-3.609 5.371,-7.292Z" style="fill:#f1f3e8;fill-rule:nonzero;"/><path d="M846.802,370.493c5.219,22.965 5.219,22.965 0.26,32.552c-5.744,11.827 -6.178,22.08 -7.031,35.156c-0.312,4.49 -0.623,8.98 -0.944,13.607c-0.204,3.416 -0.408,6.832 -0.618,10.352l-4.167,0c-1.415,-9.111 -2.798,-18.226 -4.167,-27.344c-0.773,-5.076 -1.547,-10.151 -2.344,-15.381c-1.763,-15.093 -2.135,-29.597 -1.823,-44.775c8.333,-4.167 8.333,-4.167 20.833,-4.167Z" style="fill:#424931;fill-rule:nonzero;"/><path d="M367.635,307.993c2.75,1.375 5.5,2.75 8.333,4.167c-1.375,4.125 -2.75,8.25 -4.167,12.5c1.622,8.927 1.622,8.927 4.167,16.667l20.833,0c-4.125,2.062 -4.125,2.062 -8.333,4.167c-2.717,8.436 -2.717,8.436 -4.167,16.667l-12.5,0c-1.375,-4.125 -2.75,-8.25 -4.167,-12.5l-20.833,0c7.738,-31.548 7.738,-31.548 20.833,-41.667Z" style="fill:#444b35;fill-rule:nonzero;"/><path d="M600.968,787.16c-4.311,31.617 -4.311,31.617 -12.5,41.667c-15.104,3.125 -15.104,3.125 -29.167,4.167c2.28,-14.061 4.395,-21.176 12.5,-33.333l8.333,0c1.375,-2.75 2.75,-5.5 4.167,-8.333c8.333,-4.167 8.333,-4.167 16.667,-4.167Z" style="fill:#414830;fill-rule:nonzero;"/><path d="M592.635,337.16c4.813,3.77 9.579,7.602 14.323,11.458c2.659,2.127 5.317,4.254 8.057,6.445c7.571,7.916 9.305,13.079 10.954,23.763c-1.375,-2.75 -2.75,-5.5 -4.167,-8.333c-9.711,3.994 -9.711,3.994 -16.667,16.667c-9.625,-12.375 -19.25,-24.75 -29.167,-37.5c1.375,-2.75 2.75,-5.5 4.167,-8.333c2.75,1.375 5.5,2.75 8.333,4.167c1.375,-2.75 2.75,-5.5 4.167,-8.333Z" style="fill:#454b36;fill-rule:nonzero;"/><path d="M1367.635,128.826l4.167,0l0,45.833l4.167,0l0,54.167l-16.667,0c-1.189,-33.898 3.4,-66.569 8.333,-100Z" style="fill:#565d47;fill-rule:nonzero;"/><path d="M838.468,307.993l4.167,0c1.375,20.625 2.75,41.25 4.167,62.5l-12.5,0c-1.375,2.75 -2.75,5.5 -4.167,8.333c-2.75,1.375 -5.5,2.75 -8.333,4.167c-1.375,-12.375 -2.75,-24.75 -4.167,-37.5l8.333,0c1.375,-4.125 2.75,-8.25 4.167,-12.5l4.167,0c1.375,-8.25 2.75,-16.5 4.167,-25Z" style="fill:#575e47;fill-rule:nonzero;"/><path d="M688.468,924.66c2.75,5.5 5.5,11 8.333,16.667c4.125,6.188 4.125,6.188 8.333,12.5c-8.25,12.375 -8.25,12.375 -16.667,25c-9.625,-1.375 -19.25,-2.75 -29.167,-4.167c9.625,-16.5 19.25,-33 29.167,-50Z" style="fill:#515741;fill-rule:nonzero;"/><path d="M80.135,20.493l100,0l0,8.333c-33.899,5.022 -67.623,9.466 -100,-4.167l0,-4.167Z" style="fill:#363f26;fill-rule:nonzero;"/><path d="M738.468,578.826c11.947,2.389 16.089,3.589 25,12.5c-4.447,5.009 -8.977,9.943 -13.542,14.844c-3.771,4.133 -3.771,4.133 -7.617,8.35c-8.008,5.973 -8.008,5.973 -17.318,4.785c-2.428,-0.983 -4.855,-1.966 -7.357,-2.979c0,-12.5 0,-12.5 5.729,-18.75c2.234,-2.062 4.469,-4.125 6.771,-6.25c2.75,-4.125 5.5,-8.25 8.333,-12.5Z" style="fill:#434a33;fill-rule:nonzero;"/><path d="M909.302,624.66c8.333,8.333 8.333,8.333 9.635,20.573c-1.302,12.76 -1.302,12.76 -6.25,20.833c-7.552,4.427 -7.552,4.427 -18.75,3.125c-3.18,-0.945 -6.359,-1.891 -9.635,-2.865c2.105,-18.244 13.243,-28.402 25,-41.667Z" style="fill:#4e543c;fill-rule:nonzero;"/><path d="M709.302,641.326c6.482,19.447 4,38.395 0,58.333c-8.594,11.198 -8.594,11.198 -16.667,16.667c-4.296,-13.621 -4.016,-24.418 -2.344,-38.542c0.424,-3.717 0.849,-7.434 1.286,-11.263c0.349,-2.814 0.698,-5.629 1.058,-8.529c4.125,1.375 8.25,2.75 12.5,4.167c1.375,-6.875 2.75,-13.75 4.167,-20.833Z" style="fill:#3e462e;fill-rule:nonzero;"/><path d="M1196.802,399.66l4.167,0c0.104,2.376 0.209,4.753 0.316,7.201c0.482,10.708 0.994,21.415 1.507,32.122c0.164,3.741 0.328,7.482 0.496,11.336c0.175,3.558 0.349,7.117 0.529,10.783c0.153,3.295 0.305,6.59 0.463,9.984c0.046,7.799 0.046,7.799 5.022,11.907c1.028,20.552 1.045,35.411 -8.333,54.167l-4.167,0l0,-137.5Z" style="fill:#303724;fill-rule:nonzero;"/><path d="M209.302,928.826c1.375,2.75 2.75,5.5 4.167,8.333l8.333,0c-1.375,5.5 -2.75,11 -4.167,16.667c6.875,-2.75 13.75,-5.5 20.833,-8.333c0,16.667 0,16.667 -10.417,28.125c-3.438,3.094 -6.875,6.188 -10.417,9.375c-10.355,-15.532 -14.102,-28.805 -10.677,-47.396c0.773,-2.234 1.547,-4.469 2.344,-6.771Z" style="fill:#545b44;fill-rule:nonzero;"/><path d="M438.468,337.16c9.625,2.75 19.25,5.5 29.167,8.333c-2.75,2.75 -5.5,5.5 -8.333,8.333c2.75,5.5 5.5,11 8.333,16.667c-6.078,-0.588 -12.154,-1.2 -18.229,-1.823c-5.076,-0.508 -5.076,-0.508 -10.254,-1.025c-9.017,-1.318 -9.017,-1.318 -17.35,-5.485c4.799,-10.283 8.533,-16.866 16.667,-25Z" style="fill:#525840;fill-rule:nonzero;"/><path d="M205.135,74.66l4.167,0c0.645,5.93 0.645,5.93 1.302,11.979c1.554,14.234 1.554,14.234 15.365,21.354l-8.333,0c-2.75,16.5 -5.5,33 -8.333,50l-4.167,0c-1.375,8.25 -2.75,16.5 -4.167,25l-4.167,0c2.11,-36.188 4.262,-72.3 8.333,-108.333Z" style="fill:#696f5c;fill-rule:nonzero;"/><path d="M709.302,695.493c9.968,9.968 11.149,15.323 12.5,29.167c-4.125,6.188 -4.125,6.188 -8.333,12.5l-8.333,0c-1.375,2.75 -2.75,5.5 -4.167,8.333c-5.208,-13.281 -5.208,-13.281 -8.333,-29.167c7.812,-12.24 7.812,-12.24 16.667,-20.833Z" style="fill:#505741;fill-rule:nonzero;"/><path d="M938.468,787.16c-4.125,6.188 -4.125,6.188 -8.333,12.5c4.125,1.375 8.25,2.75 12.5,4.167c-15.54,8.476 -23.621,12.5 -41.667,12.5l0,-16.667l8.333,0l0,-8.333c15.104,-8.854 15.104,-8.854 29.167,-4.167Z" style="fill:#5c614a;fill-rule:nonzero;"/><path d="M1021.802,932.993c6.875,1.375 13.75,2.75 20.833,4.167c1.375,6.875 2.75,13.75 4.167,20.833c-9.625,-1.375 -19.25,-2.75 -29.167,-4.167c-4.125,5.5 -8.25,11 -12.5,16.667c2.211,-15.921 6.238,-25.257 16.667,-37.5Z" style="fill:#434936;fill-rule:nonzero;"/><path d="M221.802,245.493l4.167,0c-1.375,28.875 -2.75,57.75 -4.167,87.5c-12.5,-12.5 -12.5,-12.5 -14.014,-22.396c0.07,-3.609 0.14,-7.219 0.212,-10.938c0.016,-3.609 0.032,-7.219 0.049,-10.938c1.253,-9.896 1.253,-9.896 9.587,-22.396c1.604,-6.898 3.033,-13.843 4.167,-20.833Z" style="fill:#636956;fill-rule:nonzero;"/><path d="M1196.802,1032.993l16.667,0c1.375,5.5 2.75,11 4.167,16.667c-18.765,7.323 -34.068,9.137 -54.167,8.333l0,-12.5c13.75,-1.375 27.5,-2.75 41.667,-4.167c-2.75,-2.75 -5.5,-5.5 -8.333,-8.333Z" style="fill:#3a422b;fill-rule:nonzero;"/><path d="M1167.635,1028.826c5.328,-0.258 20.641,-0.999 25.228,-1.221c2.675,0.403 5.35,0.806 8.105,1.221c2.75,4.125 5.5,8.25 8.333,12.5c-17.165,5.385 -31.951,9.427 -50,8.333c2.75,-6.875 5.5,-13.75 8.333,-20.833Z" style="fill:#454e37;fill-rule:nonzero;"/><path d="M930.135,724.66c1.375,8.25 2.75,16.5 4.167,25c-19.792,4.688 -19.792,4.688 -29.167,0c-1.375,2.75 -2.75,5.5 -4.167,8.333l-8.333,0c0.521,-7.292 0.521,-7.292 4.167,-16.667c21.759,-16.667 21.759,-16.667 33.333,-16.667Z" style="fill:#434931;fill-rule:nonzero;"/><path d="M946.802,587.16c18.338,2.096 27.966,8.699 41.667,20.833c-2.75,6.875 -5.5,13.75 -8.333,20.833c-8.333,-5.729 -8.333,-5.729 -16.667,-12.5l0,-8.333c-1.375,-4.125 -2.75,-8.25 -4.167,-12.5c-6.875,1.375 -13.75,2.75 -20.833,4.167c2.75,-4.125 5.5,-8.25 8.333,-12.5Z" style="fill:#565d47;fill-rule:nonzero;"/><path d="M909.302,203.826c1.375,4.125 2.75,8.25 4.167,12.5c-9.625,6.875 -19.25,13.75 -29.167,20.833c-0.602,-3.18 -1.203,-6.359 -1.823,-9.635c-2.191,-11.538 -2.191,-11.538 -6.51,-23.698c11.924,-5.962 20.557,-2.5 33.333,0Z" style="fill:#4c543b;fill-rule:nonzero;"/><path d="M1030.135,112.16l29.167,0c-14.545,16.684 -23.54,23.445 -45.833,25l0,-16.667l16.667,0l0,-8.333Z" style="fill:#3e472c;fill-rule:nonzero;"/><path d="M1230.135,28.826c20.625,1.375 41.25,2.75 62.5,4.167l0,4.167c-3.668,0.505 -7.337,1.01 -11.117,1.53c-4.839,0.698 -9.679,1.396 -14.665,2.116c-7.178,1.015 -7.178,1.015 -14.502,2.051c-12.58,2.389 -23.074,5.752 -34.717,10.97l0,-12.5c4.125,-1.375 8.25,-2.75 12.5,-4.167l0,-8.333Z" style="fill:#515842;fill-rule:nonzero;"/><path d="M1021.802,737.16c5.5,1.375 11,2.75 16.667,4.167l0,12.5l20.833,0l0,4.167c-12.375,2.75 -24.75,5.5 -37.5,8.333c-4.125,-5.5 -8.25,-11 -12.5,-16.667l8.333,0c1.375,-4.125 2.75,-8.25 4.167,-12.5Z" style="fill:#484f39;fill-rule:nonzero;"/><path d="M867.635,207.993c2.75,1.375 5.5,2.75 8.333,4.167c-1.375,4.125 -2.75,8.25 -4.167,12.5c-4.125,1.375 -8.25,2.75 -12.5,4.167c-4.125,6.188 -4.125,6.188 -8.333,12.5c-15.104,2.865 -15.104,2.865 -29.167,4.167c14.307,-15.148 28.322,-26.505 45.833,-37.5Z" style="fill:#505842;fill-rule:nonzero;"/><path d="M942.635,291.326c12.5,8.333 12.5,8.333 14.632,18.262c0.242,3.771 0.483,7.541 0.732,11.426c0.274,3.792 0.548,7.584 0.83,11.491c0.156,2.911 0.312,5.822 0.472,8.822l-12.5,0c-5.26,-10.52 -4.577,-17.967 -4.427,-29.688c0.038,-3.792 0.075,-7.584 0.114,-11.491c0.048,-2.911 0.097,-5.822 0.146,-8.822Z" style="fill:#3e462e;fill-rule:nonzero;"/><path d="M364.249,488.722c2.492,0.859 4.984,1.719 7.552,2.604c-5.207,15.222 -6.962,19.919 -20.833,29.167c-2.75,-1.375 -5.5,-2.75 -8.333,-4.167c-0.781,-9.896 -0.781,-9.896 0,-20.833c12.5,-8.333 12.5,-8.333 21.615,-6.771Z" style="fill:#404830;fill-rule:nonzero;"/><path d="M534.302,282.993c9.375,1.042 9.375,1.042 16.667,4.167c-1.375,6.875 -2.75,13.75 -4.167,20.833c-12.5,4.167 -12.5,4.167 -25,4.167c-1.375,-4.125 -2.75,-8.25 -4.167,-12.5c7.292,-8.594 7.292,-8.594 16.667,-16.667Z" style="fill:#3d442d;fill-rule:nonzero;"/><path d="M1009.562,725.701c2.664,1.031 5.328,2.062 8.073,3.125c4.167,12.5 4.167,12.5 0,20.833c-9.625,-1.375 -19.25,-2.75 -29.167,-4.167c1.562,-8.073 1.562,-8.073 4.167,-16.667c8.333,-4.167 8.333,-4.167 16.927,-3.125Z" style="fill:#414930;fill-rule:nonzero;"/><path d="M38.468,132.993l4.167,0c0.927,9.369 1.781,18.746 2.604,28.125c0.483,5.221 0.967,10.441 1.465,15.82c0.093,13.704 -0.821,19.847 -8.236,31.055c-6.498,-27.639 -10.708,-48.23 0,-75Z" style="fill:#4f5640;fill-rule:nonzero;"/><path d="M863.468,82.993l0,8.333l25,0l0,4.167c-53.625,-2.062 -53.625,-2.062 -108.333,-4.167l0,-4.167c9.201,-0.706 18.402,-1.397 27.604,-2.083c5.124,-0.387 10.248,-0.773 15.527,-1.172c13.453,-0.807 26.73,-1.077 40.202,-0.911Z" style="fill:#dbded2;fill-rule:nonzero;"/><path d="M1263.468,3.826l0,16.667c-23.077,1.538 -23.077,1.538 -32.812,-6.25c-1.547,-2.063 -3.094,-4.125 -4.688,-6.25c13.318,-4.439 23.573,-4.476 37.5,-4.167Z" style="fill:#505743;fill-rule:nonzero;"/><path d="M725.968,745.493c6.51,5.208 6.51,5.208 12.5,12.5c-1.302,9.115 -1.302,9.115 -4.167,16.667c-1.375,-2.75 -2.75,-5.5 -4.167,-8.333c-1.375,2.75 -2.75,5.5 -4.167,8.333l-8.333,0c-1.375,2.75 -2.75,5.5 -4.167,8.333c-1.375,-11 -2.75,-22 -4.167,-33.333c6.188,4.125 6.188,4.125 12.5,8.333c1.375,-4.125 2.75,-8.25 4.167,-12.5Z" style="fill:#4f5642;fill-rule:nonzero;"/><path d="M942.635,620.493c-5.806,14.03 -12.412,20.775 -25,29.167c-1.375,-8.25 -2.75,-16.5 -4.167,-25c10.262,-5.131 17.831,-4.465 29.167,-4.167Z" style="fill:#3d422c;fill-rule:nonzero;"/><path d="M1188.468,1024.66l0,4.167l-20.833,0c-1.375,9.625 -2.75,19.25 -4.167,29.167l-29.167,0l0,-4.167l20.833,0c-1.375,-8.25 -2.75,-16.5 -4.167,-25c12.319,-6.16 23.926,-4.418 37.5,-4.167Z" style="fill:#606953;fill-rule:nonzero;"/><path d="M296.802,428.826c2.75,5.5 5.5,11 8.333,16.667c-2.75,2.75 -5.5,5.5 -8.333,8.333c-10.938,-1.562 -10.938,-1.562 -20.833,-4.167c1.375,-5.5 2.75,-11 4.167,-16.667c5.5,-1.375 11,-2.75 16.667,-4.167Z" style="fill:#555948;fill-rule:nonzero;"/><path d="M384.302,337.16l16.667,0c4.688,7.031 4.688,7.031 8.333,16.667c-3.646,11.458 -3.646,11.458 -8.333,20.833c-8.333,-7.292 -8.333,-7.292 -16.667,-16.667l0,-20.833Z" style="fill:#4f5541;fill-rule:nonzero;"/><path d="M1213.468,253.826c2.75,1.375 5.5,2.75 8.333,4.167l0,50c-4.125,-2.75 -8.25,-5.5 -12.5,-8.333c1.375,-15.125 2.75,-30.25 4.167,-45.833Z" style="fill:#4d523f;fill-rule:nonzero;"/><path d="M1167.635,920.493c10.312,2.062 10.312,2.062 20.833,4.167c-1.375,6.875 -2.75,13.75 -4.167,20.833c-5.5,1.375 -11,2.75 -16.667,4.167l0,-29.167Z" style="fill:#3c412a;fill-rule:nonzero;"/><path d="M438.468,524.66c6.51,7.031 6.51,7.031 12.5,16.667c-1.302,11.458 -1.302,11.458 -4.167,20.833c-5.5,-1.375 -11,-2.75 -16.667,-4.167c2.75,-11 5.5,-22 8.333,-33.333Z" style="fill:#5a5e4c;fill-rule:nonzero;"/><path d="M446.802,316.326c16.146,19.792 16.146,19.792 20.833,29.167c-15.562,-2.075 -24.218,-3.645 -37.5,-12.5c4.125,-2.75 8.25,-5.5 12.5,-8.333c1.375,-2.75 2.75,-5.5 4.167,-8.333Z" style="fill:#e9ecde;fill-rule:nonzero;"/><path d="M1375.968,95.493l4.167,0c1.043,6.584 1.977,13.185 2.865,19.792c0.798,5.511 0.798,5.511 1.611,11.133c-0.376,13.062 -4.168,17.902 -12.809,27.409c-0.113,-6.597 -0.194,-13.194 -0.26,-19.792c-0.048,-3.674 -0.097,-7.348 -0.146,-11.133c0.372,-9.833 1.786,-18.013 4.574,-27.409Z" style="fill:#363d27;fill-rule:nonzero;"/><path d="M1209.302,482.993c0.695,20.505 1.035,35.431 -8.333,54.167l-4.167,0c0.585,-8.248 1.198,-16.494 1.823,-24.74c0.338,-4.592 0.677,-9.185 1.025,-13.916c1.803,-15.511 1.803,-15.511 9.652,-15.511Z" style="fill:#363e28;fill-rule:nonzero;"/><path d="M813.468,291.326l4.167,0l0,54.167c-1.375,-5.5 -2.75,-11 -4.167,-16.667l-8.333,0c3.646,-28.125 3.646,-28.125 8.333,-37.5Z" style="fill:#bbbfb0;fill-rule:nonzero;"/><path d="M805.135,328.826l8.333,0c1.375,11 2.75,22 4.167,33.333l-8.333,0c-1.375,4.125 -2.75,8.25 -4.167,12.5l0,-45.833Z" style="fill:#f3f6ed;fill-rule:nonzero;"/><path d="M1034.302,312.16c2.75,4.125 5.5,8.25 8.333,12.5c-6.875,8.25 -13.75,16.5 -20.833,25c-2.75,-5.5 -5.5,-11 -8.333,-16.667c6.875,-6.875 13.75,-13.75 20.833,-20.833Z" style="fill:#495239;fill-rule:nonzero;"/><path d="M967.635,253.826c4.125,4.125 8.25,8.25 12.5,12.5c-3.738,0.387 -3.738,0.387 -7.552,0.781c-12.688,4.713 -15.135,12.732 -21.615,24.219l-8.333,0c4.839,-18.147 8.654,-27.692 25,-37.5Z" style="fill:#515843;fill-rule:nonzero;"/><path d="M5.135,907.993c1.375,5.5 2.75,11 4.167,16.667l8.333,0c2.865,9.635 2.865,9.635 4.167,20.833c-4.125,4.125 -8.25,8.25 -12.5,12.5c-1.375,-16.5 -2.75,-33 -4.167,-50Z" style="fill:#48513b;fill-rule:nonzero;"/><path d="M1059.302,712.16c10.418,9.059 14.318,15.544 16.667,29.167c-4.125,-1.375 -8.25,-2.75 -12.5,-4.167l0,-8.333l-8.333,0c-1.375,2.75 -2.75,5.5 -4.167,8.333c-1.375,-5.5 -2.75,-11 -4.167,-16.667l12.5,0l0,-8.333Z" style="fill:#424833;fill-rule:nonzero;"/><path d="M1042.635,566.326l8.333,0c1.375,4.125 2.75,8.25 4.167,12.5c-5.5,5.5 -11,11 -16.667,16.667c-4.125,-1.375 -8.25,-2.75 -12.5,-4.167c5.308,-8.493 10.878,-16.827 16.667,-25Z" style="fill:#40452d;fill-rule:nonzero;"/><path d="M205.135,74.66l4.167,0c0.43,3.953 0.859,7.906 1.302,11.979c1.554,14.234 1.554,14.234 15.365,21.354l-8.333,0c-1.375,5.5 -2.75,11 -4.167,16.667c-8.333,-8.333 -8.333,-8.333 -9.147,-18.262c0.097,-3.771 0.193,-7.541 0.293,-11.426c0.075,-3.792 0.15,-7.584 0.228,-11.491c0.097,-2.911 0.193,-5.822 0.293,-8.822Z" style="fill:#5b634b;fill-rule:nonzero;"/><path d="M1196.802,24.66c4.125,1.375 8.25,2.75 12.5,4.167c-9.635,10.417 -9.635,10.417 -20.833,20.833l-12.5,0c6.875,-8.25 13.75,-16.5 20.833,-25Z" style="fill:#505943;fill-rule:nonzero;"/><path d="M1359.302,24.66c6.875,4.125 13.75,8.25 20.833,12.5c-8.333,8.333 -8.333,8.333 -21.354,8.854c-5.93,-0.258 -5.93,-0.258 -11.979,-0.521c4.125,-6.875 8.25,-13.75 12.5,-20.833Z" style="fill:#525c41;fill-rule:nonzero;"/><path d="M134.302,20.493l45.833,0l0,8.333c-13.75,1.375 -27.5,2.75 -41.667,4.167c-1.375,-4.125 -2.75,-8.25 -4.167,-12.5Z" style="fill:#3c462a;fill-rule:nonzero;"/><path d="M234.302,945.493c2.75,1.375 5.5,2.75 8.333,4.167c-1.375,4.125 -2.75,8.25 -4.167,12.5l-12.5,0l0,8.333c-4.125,-1.375 -8.25,-2.75 -12.5,-4.167c4.167,-12.5 4.167,-12.5 12.24,-17.708c2.836,-1.031 5.672,-2.062 8.594,-3.125Z" style="fill:#4e573d;fill-rule:nonzero;"/><path d="M1000.968,745.493c4.125,4.125 8.25,8.25 12.5,12.5l-12.5,0c-8.784,1.327 -8.784,1.327 -16.667,4.167c-1.375,2.75 -2.75,5.5 -4.167,8.333l-8.333,0c0.521,-7.812 0.521,-7.812 4.167,-16.667c12.76,-5.208 12.76,-5.208 25,-8.333Z" style="fill:#eceee1;fill-rule:nonzero;"/><path d="M888.468,649.66c5.5,2.75 11,5.5 16.667,8.333l0,12.5c-6.875,-1.375 -13.75,-2.75 -20.833,-4.167c1.375,-5.5 2.75,-11 4.167,-16.667Z" style="fill:#585c49;fill-rule:nonzero;"/><path d="M1021.802,845.493c2.75,2.75 5.5,5.5 8.333,8.333c-1.562,8.854 -1.562,8.854 -4.167,16.667c-8.073,-1.562 -8.073,-1.562 -16.667,-4.167c-1.375,-2.75 -2.75,-5.5 -4.167,-8.333c5.5,-1.375 11,-2.75 16.667,-4.167l0,-8.333Z" style="fill:#5d6250;fill-rule:nonzero;"/><path d="M1063.468,728.826c1.375,5.5 2.75,11 4.167,16.667c-5.5,1.375 -11,2.75 -16.667,4.167c-1.375,-2.75 -2.75,-5.5 -4.167,-8.333c-4.125,-2.75 -8.25,-5.5 -12.5,-8.333c12.5,-4.167 12.5,-4.167 29.167,-4.167Z" style="fill:#525b41;fill-rule:nonzero;"/><path d="M709.302,695.493c5.556,11.111 2.796,17.362 0,29.167c-4.125,1.375 -8.25,2.75 -12.5,4.167c-1.375,-4.125 -2.75,-8.25 -4.167,-12.5c8.073,-11.198 8.073,-11.198 16.667,-20.833Z" style="fill:#495138;fill-rule:nonzero;"/><path d="M684.302,537.16c8.854,3.906 8.854,3.906 16.667,8.333c-15.104,12.5 -15.104,12.5 -29.167,12.5c1.562,-8.073 1.562,-8.073 4.167,-16.667c2.75,-1.375 5.5,-2.75 8.333,-4.167Z" style="fill:#424a32;fill-rule:nonzero;"/><path d="M496.802,512.16c16.146,7.292 16.146,7.292 20.833,16.667c-2.75,2.75 -5.5,5.5 -8.333,8.333c-6.875,-4.125 -13.75,-8.25 -20.833,-12.5c2.75,-4.125 5.5,-8.25 8.333,-12.5Z" style="fill:#525841;fill-rule:nonzero;"/><path d="M396.802,345.493l-8.333,0c-1.375,5.5 -2.75,11 -4.167,16.667l-12.5,0c-1.375,-5.5 -2.75,-11 -4.167,-16.667c13.056,-4.352 16.624,-3.893 29.167,0Z" style="fill:#3d442d;fill-rule:nonzero;"/><path d="M571.802,824.66c4.125,2.75 8.25,5.5 12.5,8.333c-4.125,6.188 -4.125,6.188 -8.333,12.5c-5.5,-1.375 -11,-2.75 -16.667,-4.167c4.167,-12.5 4.167,-12.5 12.5,-16.667Z" style="fill:#4a5036;fill-rule:nonzero;"/><path d="M859.302,791.326l0,8.333l-8.333,0c-1.117,2.578 -2.234,5.156 -3.385,7.812c-4.948,8.854 -4.948,8.854 -17.448,17.188c2.316,-16.212 11.078,-33.333 29.167,-33.333Z" style="fill:#4f5642;fill-rule:nonzero;"/><path d="M917.635,716.326c10.938,1.562 10.938,1.562 20.833,4.167c-2.32,1.117 -4.641,2.234 -7.031,3.385c-10.457,5.37 -20.441,11.32 -30.469,17.448c4.799,-10.283 8.533,-16.866 16.667,-25Z" style="fill:#595e49;fill-rule:nonzero;"/><path d="M1188.468,699.66l12.5,0l0,20.833l-4.167,0c-1.375,8.25 -2.75,16.5 -4.167,25l-4.167,0l0,-45.833Z" style="fill:#3c452c;fill-rule:nonzero;"/><path d="M500.968,524.66c2.75,2.75 5.5,5.5 8.333,8.333c2.75,-1.375 5.5,-2.75 8.333,-4.167l0,16.667c-6.875,-1.375 -13.75,-2.75 -20.833,-4.167c-1.375,-4.125 -2.75,-8.25 -4.167,-12.5c2.75,-1.375 5.5,-2.75 8.333,-4.167Z" style="fill:#414630;fill-rule:nonzero;"/><path d="M25.968,832.993c2.75,2.75 5.5,5.5 8.333,8.333c-1.562,15.104 -1.562,15.104 -4.167,29.167c-2.75,-1.375 -5.5,-2.75 -8.333,-4.167c1.375,-11 2.75,-22 4.167,-33.333Z" style="fill:#3a4127;fill-rule:nonzero;"/><path d="M963.468,291.326c2.75,2.75 5.5,5.5 8.333,8.333c-1.562,13.021 -1.562,13.021 -4.167,25c-2.75,-1.375 -5.5,-2.75 -8.333,-4.167c-0.177,-8.331 -0.17,-16.668 0,-25c1.375,-1.375 2.75,-2.75 4.167,-4.167Z" style="fill:#4c553b;fill-rule:nonzero;"/><path d="M100.968,16.326l0,4.167l-20.833,0c-1.375,2.75 -2.75,5.5 -4.167,8.333c-5.5,-4.125 -11,-8.25 -16.667,-12.5c13.679,-6.84 26.773,-2.162 41.667,0Z" style="fill:#3d4530;fill-rule:nonzero;"/><path d="M1021.802,737.16c5.5,1.375 11,2.75 16.667,4.167l0,12.5l20.833,0l0,4.167c-11.979,2.604 -11.979,2.604 -25,4.167c-2.75,-2.75 -5.5,-5.5 -8.333,-8.333c1.375,-2.75 2.75,-5.5 4.167,-8.333c-2.75,-2.75 -5.5,-5.5 -8.333,-8.333Z" style="fill:#656d57;fill-rule:nonzero;"/></svg>