<?xml version="1.0" encoding="UTF-8" standalone="no"?><!DOCTYPE svg PUBLIC "-//W3C//DTD SVG 1.1//EN" "http://www.w3.org/Graphics/SVG/1.1/DTD/svg11.dtd"><svg width="100%" height="100%" viewBox="0 0 1321 1301" version="1.1" xmlns="http://www.w3.org/2000/svg" xmlns:xlink="http://www.w3.org/1999/xlink" xml:space="preserve" xmlns:serif="http://www.serif.com/" style="fill-rule:evenodd;clip-rule:evenodd;stroke-linejoin:round;stroke-miterlimit:2;"><path d="M599.803,384.767c9.483,3.631 14.268,7.472 21.393,14.654c2.43,2.419 4.86,4.838 7.363,7.33c2.615,2.667 5.231,5.334 7.925,8.081c4.19,4.197 4.19,4.197 8.464,8.479c9.233,9.262 18.42,18.568 27.61,27.874c6.399,6.433 12.801,12.863 19.206,19.29c16.861,16.932 33.686,33.9 50.501,50.877c26.938,27.185 53.93,54.317 80.923,81.447c9.443,9.501 18.869,19.017 28.293,28.536c5.759,5.801 11.518,11.601 17.277,17.401c2.632,2.667 5.264,5.334 7.976,8.081c12.494,13.038 12.494,13.038 27.43,22.884l0,8.333c2.492,1.117 4.984,2.234 7.552,3.385c8.999,4.885 14.773,9.922 21.615,17.448c-9.011,19.966 -23.168,33.667 -38.281,49.219c-2.699,2.941 -5.398,5.881 -8.179,8.911c-7.798,8.001 -15.025,14.912 -24.373,21.037c-15.234,0.179 -15.234,0.179 -29.167,-4.167c-3.765,-0.988 -7.53,-1.977 -11.41,-2.995c-3.54,-1.074 -7.079,-2.148 -10.726,-3.255c-21.733,-6.171 -42.857,-9.001 -65.365,-10.417c0.645,7.477 0.645,7.477 1.302,15.104c0.025,13.92 -1.889,21.434 -10.677,32.292c-14.803,14.13 -21.205,19.005 -41.667,19.792c-3.781,-0.172 -7.562,-0.344 -11.458,-0.521c1.375,4.125 2.75,8.25 4.167,12.5c4.826,32.468 -1.132,53.506 -20.052,80.094c-54.448,69.13 -54.448,69.13 -97.64,75.439c-21.033,1.021 -37.715,-4.17 -57.308,-11.279c-11.581,-3.596 -18.063,-3.356 -29.167,1.579c-12.244,9.117 -12.244,9.117 -20.833,20.833c1.198,15.916 10.661,27.298 19.531,40.104c3.002,4.453 6.005,8.905 9.098,13.493c5.312,7.827 10.652,15.635 16.048,23.405c40.858,62.385 36.605,130.541 34.489,202.165c-15.474,-7.331 -27.445,-16.62 -40.625,-27.604c-4.104,-3.405 -8.207,-6.811 -12.435,-10.319c-3.115,-2.61 -6.23,-5.221 -9.44,-7.91c-19.862,7.964 -33.812,23.737 -48.975,38.281c-16.852,15.885 -16.852,15.885 -26.025,15.885c-0.039,-2.663 -0.078,-5.326 -0.118,-8.07c0.262,-68.981 0.262,-68.981 -20.715,-133.597c-1.842,-3.491 -3.685,-6.982 -5.583,-10.579c-3.52,-6.428 -7.131,-12.807 -10.872,-19.108c-4.378,-7.812 -4.378,-7.812 -8.545,-20.312l-8.333,0c-1.313,3.424 -1.313,3.424 -2.653,6.917c-7.727,13.261 -18.5,22.384 -29.899,32.406c-6.527,5.817 -13.041,11.647 -19.511,17.527c-6.006,5.411 -12.133,10.686 -18.266,15.953c-10.971,13.073 -10.767,18.807 -9.359,35.531c1.568,19.827 -0.306,29.548 -11.979,45.833c-8.603,10.037 -12.041,12.347 -25,16.667c-6.773,-0.023 -13.546,-0.212 -20.312,-0.521c-17.953,-0.235 -27.462,2.193 -42.188,13.021c-22.687,7.219 -49.604,9.083 -72.021,0.537c-23.911,-14.052 -42.571,-33.321 -54.541,-58.35c-5.918,-29.589 -4.626,-48.914 10.417,-75.081c4.455,-10.719 4.198,-18.582 3.646,-30.127c-0.859,-19.965 3.172,-29.943 16.667,-45.312c7.503,-7.113 7.503,-7.113 16.667,-12.5c10.661,0.977 10.661,0.977 22.656,3.125c13.755,0.419 23.181,0.048 34.351,-8.466c15.173,-15.01 28.102,-31.857 40.91,-48.891c8.939,-11.826 18.399,-23.163 27.865,-34.57c2.895,-3.593 5.79,-7.187 8.773,-10.889c7.113,-8.643 7.113,-8.643 15.446,-16.976c-0.845,-9.689 -0.845,-9.689 -3.646,-20.312c-3.207,-13.6 -4.688,-23.821 -4.688,-38.021c-3.33,1.66 -6.66,3.319 -10.091,5.029c-76.029,36.676 -142.095,37.885 -223.242,19.971l0,-12.5c8.849,-8.399 17.613,-16.069 27.083,-23.698c2.583,-2.13 5.167,-4.259 7.829,-6.453c6.391,-5.26 12.819,-10.476 19.255,-15.682c-2.868,-4.383 -2.868,-4.383 -5.794,-8.854c-14.822,-22.919 -28.394,-45.625 -40.039,-70.312c5.704,0.991 5.704,0.991 11.523,2.002c22.133,3.131 44.282,3.259 66.602,3.467c4.254,0.121 8.508,0.242 12.891,0.366c46.247,0.381 81.186,-14.329 118.62,-40.47c43.552,-29.319 87.1,-57.836 140.885,-58.073c4.784,-0.025 4.784,-0.025 9.664,-0.05c20.744,0.214 38.023,2.41 57.068,11.264c11.137,3.346 17.604,1.893 28.581,-1.839c14.25,-11.9 24.701,-25.243 33.333,-41.667c0.641,-12.522 -0.9,-23.171 -3.109,-35.482c-1.058,-10.352 -1.058,-10.352 5.973,-24.935c16.567,-17.91 16.567,-17.91 26.302,-22.917c9.72,-0.188 19.447,-0.203 29.167,0c-0.945,-32.782 -3.008,-61.322 -16.927,-91.309c-7.097,-15.791 -7.097,-15.791 -8.073,-25.358c4.508,-7.454 4.508,-7.454 11.719,-15.104c2.675,-2.841 5.35,-5.683 8.105,-8.61c3.083,-3.174 6.166,-6.349 9.342,-9.619c3.513,-3.819 7.025,-7.638 10.645,-11.572c3.62,-3.83 7.24,-7.659 10.97,-11.605c3.411,-3.615 6.821,-7.229 10.335,-10.954c9.717,-7.536 9.717,-7.536 17.854,-6.635Z" style="fill:#3e4934;fill-rule:nonzero;"/><path d="M241.667,954.7c13.531,6.765 15.423,19.808 20.833,33.333c-16.454,20.273 -32.902,40.534 -49.902,60.352c-2.053,2.397 -4.106,4.794 -6.22,7.264c-4.012,4.672 -8.038,9.332 -12.079,13.979c-9.865,11.5 -16.607,21.355 -23.465,35.072c20.625,20.625 41.25,41.25 62.5,62.5c23.054,-17.29 42.793,-33.485 62.5,-53.906c17.856,-18.198 35.796,-35.798 55.273,-52.279c7.901,-6.904 15.236,-14.199 22.591,-21.68c29.131,-29.462 29.131,-29.462 51.302,-34.635c2.062,-2.234 4.125,-4.469 6.25,-6.771c2.062,-1.891 4.125,-3.781 6.25,-5.729c8.398,0.863 8.398,0.863 16.667,4.167c2.862,7.585 5.665,15.196 8.187,22.9c10.574,25.578 29.043,48.066 44.792,70.703c40.844,62.461 36.64,130.535 34.521,202.23c-15.474,-7.331 -27.445,-16.62 -40.625,-27.604c-4.104,-3.405 -8.207,-6.811 -12.435,-10.319c-4.673,-3.916 -4.673,-3.916 -9.44,-7.91c-19.862,7.964 -33.812,23.737 -48.975,38.281c-16.852,15.885 -16.852,15.885 -26.025,15.885c-0.039,-2.663 -0.078,-5.326 -0.118,-8.07c0.262,-68.981 0.262,-68.981 -20.715,-133.597c-1.842,-3.491 -3.685,-6.982 -5.583,-10.579c-3.52,-6.428 -7.131,-12.807 -10.872,-19.108c-4.378,-7.812 -4.378,-7.812 -8.545,-20.312l-8.333,0c-1.313,3.424 -1.313,3.424 -2.653,6.917c-7.727,13.261 -18.5,22.384 -29.899,32.406c-6.527,5.817 -13.041,11.647 -19.511,17.527c-6.006,5.411 -12.133,10.686 -18.266,15.953c-10.971,13.073 -10.767,18.807 -9.359,35.531c1.568,19.827 -0.306,29.548 -11.979,45.833c-8.603,10.037 -12.041,12.347 -25,16.667c-6.773,-0.023 -13.546,-0.212 -20.312,-0.521c-17.953,-0.235 -27.462,2.193 -42.188,13.021c-22.687,7.219 -49.604,9.083 -72.021,0.537c-23.911,-14.052 -42.571,-33.321 -54.541,-58.35c-5.918,-29.589 -4.626,-48.914 10.417,-75.081c4.455,-10.719 4.198,-18.582 3.646,-30.127c-0.859,-19.965 3.172,-29.943 16.667,-45.312c7.503,-7.113 7.503,-7.113 16.667,-12.5c10.661,0.977 10.661,0.977 22.656,3.125c13.755,0.419 23.181,0.048 34.351,-8.466c15.173,-15.01 28.102,-31.857 40.91,-48.891c8.939,-11.826 18.399,-23.163 27.865,-34.57c2.895,-3.593 5.79,-7.187 8.773,-10.889c7.113,-8.643 7.113,-8.643 15.446,-16.976Z" style="fill:#404935;fill-rule:nonzero;"/><path d="M599.812,384.783c9.387,3.581 14.172,7.33 21.254,14.396c2.401,2.366 4.802,4.731 7.275,7.169c2.583,2.608 5.166,5.216 7.827,7.904c2.759,2.737 5.519,5.475 8.361,8.295c9.12,9.065 18.193,18.174 27.264,27.287c6.317,6.308 12.635,12.615 18.956,18.92c13.242,13.224 26.462,26.47 39.665,39.732c16.939,17.011 33.934,33.965 50.947,50.902c13.059,13.013 26.087,26.056 39.107,39.109c6.256,6.264 12.52,12.518 18.795,18.764c8.759,8.727 17.477,17.494 26.186,26.272c2.608,2.583 5.216,5.166 7.904,7.827c2.366,2.401 4.731,4.802 7.169,7.275c2.064,2.069 4.128,4.137 6.254,6.269c5.826,7.699 7.848,13.578 9.058,23.131c-5.99,7.292 -5.99,7.292 -12.5,12.5c-26.368,-5.528 -40.129,-21.376 -58.171,-40.023c-3.122,-3.156 -6.245,-6.312 -9.462,-9.564c-9.961,-10.082 -19.864,-20.219 -29.763,-30.362c-9.88,-10.058 -19.771,-20.103 -29.674,-30.138c-6.147,-6.236 -12.279,-12.487 -18.394,-18.755c-16.465,-16.779 -33.386,-32.62 -51.203,-47.953c-9.765,-8.513 -18.946,-17.514 -28.074,-26.705c-5.197,-5.217 -5.197,-5.217 -10.498,-10.539c-5.245,-5.297 -5.245,-5.297 -10.596,-10.701c-3.625,-3.644 -7.251,-7.289 -10.986,-11.043c-8.848,-8.896 -17.685,-17.802 -26.514,-26.717c-14.438,12.375 -14.438,12.375 -29.167,25c19.534,23.482 40.416,45.129 62.077,66.65c3.479,3.473 6.958,6.946 10.542,10.525c11.027,11.004 22.068,21.993 33.11,32.981c7.515,7.494 15.029,14.989 22.542,22.485c18.343,18.297 36.698,36.582 55.062,54.858c-2.865,7.812 -2.865,7.812 -8.333,16.667c-10.312,4.125 -10.312,4.125 -20.833,8.333c-45.375,-45.375 -90.75,-90.75 -137.5,-137.5c-5.775,57.491 -5.775,57.491 12.174,80.778c5.163,4.757 10.486,9.346 15.951,13.753c2.643,2.361 5.285,4.721 8.008,7.153c5.059,4.506 10.175,8.948 15.356,13.312c8.293,7.072 15.951,14.658 23.511,22.504c-12.5,8.333 -12.5,8.333 -20.833,8.333l0,8.333c-4.125,1.375 -8.25,2.75 -12.5,4.167c-2.267,-2.376 -4.535,-4.753 -6.871,-7.201c-10.328,-10.762 -20.737,-21.442 -31.15,-32.122c-3.566,-3.741 -7.133,-7.482 -10.807,-11.336c-3.491,-3.558 -6.982,-7.117 -10.579,-10.783c-3.186,-3.295 -6.371,-6.59 -9.654,-9.984c-11.833,-9.064 -20.419,-10.635 -35.105,-11.907c-1.841,9.403 -1.841,9.403 0,20.833c7.052,8.869 13.737,16.171 21.875,23.91c2.22,2.19 4.439,4.38 6.726,6.637c7.086,6.969 14.24,13.862 21.399,20.756c4.822,4.718 9.64,9.441 14.453,14.168c11.795,11.566 23.653,23.064 35.547,34.53c-2.75,6.875 -5.5,13.75 -8.333,20.833l-8.333,0c1.375,5.5 2.75,11 4.167,16.667c-19.065,-15.887 -36.761,-32.452 -54.167,-50.13c-11.954,-11.768 -24.617,-22.467 -37.5,-33.203c-49.501,44.796 -49.501,44.796 -83.333,100c3.647,1.037 7.294,2.073 11.051,3.141c14.666,5.459 24.728,12.128 37.126,21.598c11.249,8.537 21.935,16.525 34.277,23.405c9.212,6.022 9.212,6.022 12.598,19.303c0.258,3.867 0.516,7.734 0.781,11.719c-10.384,5.469 -10.384,5.469 -25,8.333c-12.539,-5.091 -22.94,-12.918 -33.854,-20.833c-6.292,-4.31 -12.596,-8.601 -18.913,-12.874c-3.074,-2.094 -6.147,-4.188 -9.314,-6.346c-30.276,-19.994 -60.537,-33.161 -96.252,-39.113c4.125,-1.375 8.25,-2.75 12.5,-4.167l0,-8.333c4.077,-4.254 8.249,-8.419 12.5,-12.5c1.375,-2.75 2.75,-5.5 4.167,-8.333c3.094,0.43 6.188,0.859 9.375,1.302c12.503,-0.158 12.503,-0.158 21.094,-11.719c2.32,-3.438 4.641,-6.875 7.031,-10.417c-33.051,-12.688 -70.959,-14.787 -104.932,-4.199c-27.057,12.996 -51.537,30.532 -76.262,47.443c-21.866,14.81 -44.096,26.461 -68.806,35.923c-4.641,1.805 -9.281,3.609 -14.062,5.469c-23.029,4.368 -45.906,3.497 -69.271,2.865c1.552,1.912 3.104,3.824 4.704,5.794c1.971,2.557 3.942,5.113 5.973,7.747c1.982,2.514 3.964,5.027 6.006,7.617c4.15,8.008 4.15,8.008 4.004,16.276c-5.674,11.853 -14.326,17.507 -24.854,25.065c9.201,0.113 18.403,0.194 27.604,0.26c5.124,0.048 10.248,0.097 15.527,0.146c13.857,-0.371 26.62,-1.92 40.202,-4.574l0,16.667l-8.333,0c-4.213,12.705 -4.213,12.705 0,25c-52.89,9.967 -102.389,3.097 -154.167,-8.333l0,-12.5c8.849,-8.399 17.613,-16.069 27.083,-23.698c2.583,-2.13 5.167,-4.259 7.829,-6.453c6.391,-5.26 12.819,-10.476 19.255,-15.682c-2.868,-4.383 -2.868,-4.383 -5.794,-8.854c-14.822,-22.919 -28.394,-45.625 -40.039,-70.312c5.704,0.991 5.704,0.991 11.523,2.002c22.133,3.131 44.282,3.259 66.602,3.467c4.254,0.121 8.508,0.242 12.891,0.366c46.247,0.381 81.186,-14.329 118.62,-40.47c43.552,-29.319 87.1,-57.836 140.885,-58.073c4.784,-0.025 4.784,-0.025 9.664,-0.05c20.744,0.214 38.023,2.41 57.068,11.264c11.137,3.346 17.604,1.893 28.581,-1.839c14.25,-11.9 24.701,-25.243 33.333,-41.667c0.641,-12.522 -0.9,-23.171 -3.109,-35.482c-1.058,-10.352 -1.058,-10.352 5.973,-24.935c16.567,-17.91 16.567,-17.91 26.302,-22.917c9.72,-0.188 19.447,-0.203 29.167,0c-0.945,-32.782 -3.008,-61.322 -16.927,-91.309c-7.097,-15.791 -7.097,-15.791 -8.073,-25.358c4.508,-7.454 4.508,-7.454 11.719,-15.104c2.675,-2.841 5.35,-5.683 8.105,-8.61c3.083,-3.174 6.166,-6.349 9.342,-9.619c3.513,-3.819 7.025,-7.638 10.645,-11.572c3.62,-3.83 7.24,-7.659 10.97,-11.605c3.411,-3.615 6.821,-7.229 10.335,-10.954c9.717,-7.536 9.717,-7.536 17.862,-6.62Z" style="fill:#3e4833;fill-rule:nonzero;"/><path d="M975,0.533l8.333,0c2.708,9.196 5.395,18.399 8.073,27.604c2.248,7.686 2.248,7.686 4.541,15.527c12.583,47.198 15.192,98.932 -4.281,144.368c26.506,-19.386 42.051,-41.503 58.594,-69.645c31.14,-52.799 61.105,-89.201 120.573,-109.521c43.94,-10.026 88.538,-9.32 133.333,-8.333c-12.403,12.751 -24.769,24.317 -39.062,34.896c-39.779,30.858 -63.367,59.163 -72.03,110.676c-2.476,20.974 -4.176,42.022 -5.731,63.081c-4.077,52.769 -16.238,94.741 -49.843,137.181c6.582,0.467 6.582,0.467 13.298,0.944c42.012,3.606 96.951,9.304 128.369,40.723c-4.125,1.515 -8.25,3.029 -12.5,4.59c-48.006,18.089 -90.231,38.428 -112.614,87.646c-2.686,6.306 -5.338,12.628 -7.959,18.962c-2.89,6.695 -5.793,13.384 -8.708,20.068c-1.401,3.218 -2.802,6.436 -4.246,9.751c-23.131,52.29 -48.892,85.445 -102.443,108.201c-21.218,7.483 -41.665,11.305 -64.03,13.281c-4.055,0.44 -8.11,0.881 -12.288,1.335c-21.189,1.33 -34.259,0.463 -50.993,-13.314c-6.95,-6.738 -6.95,-6.738 -11.719,-13.021l0,-8.333c5.28,-0.505 10.56,-1.01 15.999,-1.53c7.08,-0.704 14.16,-1.409 21.24,-2.116c3.462,-0.328 6.923,-0.655 10.49,-0.993c33.055,-3.344 64.459,-8.372 94.718,-22.705c4.012,-1.81 8.024,-3.62 12.158,-5.485c34.705,-25.431 48.848,-70.992 64.893,-109.326c14.722,-33.638 32.817,-62.167 63.835,-82.845c-38.6,-1.235 -73.495,-1.653 -110.758,10.173c-10.725,2.478 -16.478,1.773 -26.742,-1.839c3.867,-3.609 7.734,-7.219 11.719,-10.938c60.162,-60.407 95.976,-123.835 100.781,-209.896c2.25,-40.289 5.534,-79.385 29.948,-113.021c2.208,-3.104 4.415,-6.209 6.689,-9.408c2.49,-3.335 2.49,-3.335 5.029,-6.738c-29.477,0.641 -49.085,14.075 -70.833,33.333c-17.13,19.862 -29.497,41.982 -41.667,65.104c-24.144,44.876 -56.831,73.895 -106.201,89.486c-20.436,4.953 -39.387,8.57 -60.465,7.91c14.903,-26.367 14.903,-26.367 22.9,-39.062c20.903,-33.362 31.871,-63.425 35.433,-102.604l-8.333,0c-1.058,2.417 -2.116,4.834 -3.206,7.324c-26.378,48.067 -85.862,61.6 -134.372,77.029c-49.068,15.725 -82.636,31.207 -108.255,78.146c-23.886,46.919 -22.993,98.546 -25,150c-16.15,-7.764 -26.664,-14.417 -37.5,-29.167c-9.82,-52.284 9.361,-114.657 37.5,-158.333c38.081,-50.352 80.206,-66.992 139.043,-85.623c51.035,-16.276 89.269,-32.464 115.123,-81.043c10.249,-20.595 19.809,-41.487 29.167,-62.5Z" style="fill:#3d4733;fill-rule:nonzero;"/><path d="M437.5,992.2c8.398,0.863 8.398,0.863 16.667,4.167c2.862,7.585 5.665,15.196 8.187,22.9c10.574,25.578 29.043,48.066 44.792,70.703c40.844,62.461 36.64,130.535 34.521,202.23c-15.474,-7.331 -27.445,-16.62 -40.625,-27.604c-6.155,-5.108 -6.155,-5.108 -12.435,-10.319c-3.115,-2.61 -6.23,-5.221 -9.44,-7.91c-19.862,7.964 -33.812,23.737 -48.975,38.281c-16.852,15.885 -16.852,15.885 -26.025,15.885c-0.039,-2.663 -0.078,-5.326 -0.118,-8.07c0.262,-68.981 0.262,-68.981 -20.715,-133.597c-1.842,-3.491 -3.685,-6.982 -5.583,-10.579c-3.52,-6.428 -7.131,-12.807 -10.872,-19.108c-4.378,-7.812 -4.378,-7.812 -8.545,-20.312l-8.333,0c-0.978,2.385 -1.955,4.77 -2.962,7.227c-6.596,11.594 -14.534,18.485 -24.642,27.148c-3.405,2.943 -6.811,5.887 -10.319,8.919c-2.61,2.213 -5.221,4.426 -7.91,6.706c-6.875,-2.75 -13.75,-5.5 -20.833,-8.333l0,-8.333l8.333,0c1.375,-6.875 2.75,-13.75 4.167,-20.833c4.125,-1.375 8.25,-2.75 12.5,-4.167c0.266,-4.415 0.266,-4.415 0.537,-8.919c5.024,-16.491 15.724,-24.94 28.369,-35.872c2.43,-2.161 4.86,-4.322 7.364,-6.548c4.956,-4.405 9.928,-8.793 14.914,-13.164c6.578,-5.823 13.022,-11.754 19.421,-17.771c3.599,-3.357 7.197,-6.714 10.905,-10.173c3.185,-2.981 6.37,-5.962 9.652,-9.033c8.946,-6.936 14.617,-8.841 25.505,-11.019c2.062,-2.234 4.125,-4.469 6.25,-6.771c2.062,-1.891 4.125,-3.781 6.25,-5.729Z" style="fill:#3d4632;fill-rule:nonzero;"/><path d="M358.333,728.398c2.804,-0.013 5.607,-0.027 8.496,-0.041c19.545,0.208 35.628,3.67 54.004,9.676c-14.261,23.939 -14.261,23.939 -25.521,28.906c-7.812,0.26 -7.812,0.26 -16.146,-3.906c-2.75,6.875 -5.5,13.75 -8.333,20.833l-8.333,0l0,8.333c-5.07,1.633 -10.141,3.266 -15.365,4.948c-23.393,8.777 -36.57,22.635 -47.135,45.052c2.283,-0.086 4.565,-0.172 6.917,-0.26c37.442,0.974 65.759,19.328 97.249,37.76c-4.125,4.125 -8.25,8.25 -12.5,12.5c-1.375,-2.75 -2.75,-5.5 -4.167,-8.333l-8.333,0l0,-8.333l-8.333,0c-1.375,5.5 -2.75,11 -4.167,16.667c2.75,1.375 5.5,2.75 8.333,4.167l0,8.333c-3.094,-1.461 -6.188,-2.922 -9.375,-4.427c-12.924,-4.406 -15.831,-5.088 -28.125,0.26c-8.003,8.342 -15.203,16.533 -22.396,25.521c-4.052,4.932 -8.105,9.864 -12.158,14.795c-2.903,3.574 -2.903,3.574 -5.865,7.22c-6.791,8.318 -13.759,16.474 -20.778,24.599c-4.77,5.543 -4.77,5.543 -9.635,11.198c-4.125,-1.375 -8.25,-2.75 -12.5,-4.167c-3.662,-7.585 -3.662,-7.585 -6.51,-17.188c-1.021,-3.378 -2.041,-6.757 -3.092,-10.238c-1.434,-4.987 -1.434,-4.987 -2.897,-10.075c-2.449,-7.863 -2.449,-7.863 -4.948,-15.885c-3.385,-13.281 -3.385,-13.281 -3.385,-29.948c-3.523,1.756 -7.047,3.513 -10.677,5.322c-25.956,12.536 -47.864,22.709 -76.823,23.844c2.75,-6.875 5.5,-13.75 8.333,-20.833l8.333,0l0,-16.667c-5.172,2.046 -5.172,2.046 -10.449,4.134c-16.143,4.659 -30.752,5.139 -47.363,4.72c-2.868,-0.038 -5.736,-0.075 -8.691,-0.114c-6.999,-0.097 -13.998,-0.247 -20.996,-0.407c3.346,-3.266 6.692,-6.531 10.14,-9.896c10.597,-9.811 10.597,-9.811 15.12,-19.271c-0.408,-13.067 -8.609,-19.589 -16.927,-29.167l0,-8.333c3.33,-0.107 6.66,-0.215 10.091,-0.326c70.231,-3.627 123.421,-33.109 179.953,-72.528c27.323,-18.79 51.212,-29.257 84.956,-28.448Z" style="fill:#3d4732;fill-rule:nonzero;"/><path d="M845.833,258.867c4.143,12.43 4.269,17.535 2.751,30.127c-0.389,3.344 -0.779,6.687 -1.18,10.132c-0.432,3.472 -0.865,6.945 -1.31,10.522c-0.416,3.521 -0.833,7.042 -1.261,10.669c-1.031,8.686 -2.095,17.368 -3.166,26.05c3.679,-1.96 7.358,-3.921 11.149,-5.941c26.308,-13.757 51.304,-25.679 80.322,-32.633c16.292,-3.969 32.303,-8.729 48.372,-13.509c3.041,-0.899 6.083,-1.797 9.216,-2.723c22.555,-6.667 45.093,-13.39 67.607,-20.193c-12.878,19.756 -26.105,39.025 -40.365,57.812c-27.728,37.704 -51.502,79.363 -72.135,121.354c25.008,0.909 46.635,-2.06 70.833,-8.333c-8.992,52.056 -36.304,101.927 -79.167,133.333c-20.382,13.025 -40.537,25 -65.365,25c-13.344,-5.771 -21.104,-14.03 -30.469,-25l0,-8.333c3.174,-0.612 6.349,-1.225 9.619,-1.855c47.246,-10.263 76.512,-28.235 102.881,-68.978c-4.415,-0.553 -8.83,-1.106 -13.379,-1.676c-5.784,-0.742 -11.567,-1.486 -17.35,-2.23c-2.911,-0.363 -5.822,-0.725 -8.822,-1.099c-22.005,-2.856 -22.005,-2.856 -31.283,-7.495c5.825,-15.352 12.717,-29.589 20.557,-44.01c3.541,-6.526 3.541,-6.526 7.153,-13.184c2.457,-4.501 4.915,-9.002 7.446,-13.639c2.441,-4.501 4.882,-9.002 7.397,-13.639c10.488,-19.285 21.042,-38.432 32.446,-57.194c-55.473,16.716 -100.222,32.704 -133.333,83.333c-1.375,2.75 -2.75,5.5 -4.167,8.333l-8.333,0c-8.728,-33.165 -10.791,-65.874 -12.5,-100c-39.446,44.335 -56.29,78.038 -58.333,137.5c-4.776,-4.078 -9.55,-8.158 -14.323,-12.24c-3.988,-3.408 -3.988,-3.408 -8.057,-6.885c-10.904,-9.439 -10.904,-9.439 -11.995,-22.542c0.976,-43.639 26.768,-83.715 55.469,-115.104c23.563,-22.266 54.148,-41.267 83.073,-55.729Z" style="fill:#3f4834;fill-rule:nonzero;"/><path d="M341.667,892.2c17.674,2.369 29.052,8.42 43.831,18.245c6.385,4.21 6.385,4.21 12.899,8.504c6.594,4.419 6.594,4.419 13.322,8.927c4.477,2.962 8.954,5.924 13.566,8.976c11.036,7.308 22.051,14.647 33.049,22.013c-4.616,13.848 -8.052,16.807 -18.994,25.895c-17.924,15.213 -35.044,31.107 -52.1,47.282c-6.205,5.866 -12.412,11.731 -18.62,17.594c-3.099,2.928 -6.198,5.856 -9.391,8.872c-16.808,15.826 -33.746,31.514 -50.666,47.221c-16.227,15.121 -32.031,30.544 -47.267,46.674c-7.129,6.462 -7.129,6.462 -27.962,18.962c-22,-22 -44,-44 -66.667,-66.667c18.734,-28.101 18.734,-28.101 27.913,-38.59c2.008,-2.315 4.017,-4.629 6.086,-7.014c2.1,-2.396 4.201,-4.792 6.365,-7.26c15.191,-17.511 30.216,-35.094 44.792,-53.125c17.64,-21.743 35.933,-42.88 54.361,-63.956c12.167,-13.937 24.053,-27.998 35.483,-42.555Z" style="fill:#fbfbf9;fill-rule:nonzero;"/><path d="M386.44,800.089c31.341,12.889 58.579,28.962 86.477,48.101c39.637,27.03 79.91,52.128 126.042,66.406c4.189,1.321 8.379,2.643 12.695,4.004c3.029,0.913 6.059,1.826 9.18,2.767c-20.648,30.51 -20.648,30.51 -34.635,39.583c-62.198,11.572 -111.198,-27.663 -160.677,-61.198c-5.344,-3.711 -5.344,-3.711 -10.795,-7.497c-29.472,-20.341 -60.455,-41.527 -96.497,-47.19c-3.491,-0.585 -6.982,-1.171 -10.579,-1.774c-2.524,-0.36 -5.049,-0.72 -7.65,-1.09c4.231,-18.194 10.188,-30.61 25.488,-41.992c19.845,-9.717 40.501,-6.773 60.952,-0.119Z" style="fill:#f9faf7;fill-rule:nonzero;"/><path d="M516.667,683.867c16.039,6.534 25.502,16.887 37.5,29.167c3.305,3.305 58.894,58.894 83.333,83.333c-27.653,32.565 -27.653,32.565 -41.927,47.396c-3.94,4.173 -3.94,4.173 -7.959,8.431c-10.356,8.181 -16.055,10.525 -29.281,10.84c-11.833,-5.566 -11.833,-5.566 -24.74,-14.062c-2.306,-1.491 -4.612,-2.982 -6.988,-4.518c-4.928,-3.193 -9.838,-6.413 -14.733,-9.657c-10.574,-6.993 -21.251,-13.822 -31.926,-20.658c-5.137,-3.295 -10.266,-6.603 -15.387,-9.924c-13.232,-8.601 -13.232,-8.601 -27.06,-16.18c2.471,-13.47 6.615,-20.909 15.69,-31.087c2.336,-2.653 4.673,-5.307 7.08,-8.04c3.682,-4.093 3.682,-4.093 7.438,-8.268c4.798,-5.413 9.594,-10.827 14.388,-16.243c2.312,-2.598 4.625,-5.197 7.007,-7.874c9.413,-10.705 18.502,-21.651 27.563,-32.654Z" style="fill:#f9faf8;fill-rule:nonzero;"/><path d="M595.833,433.867c28.007,23.195 53.196,48.785 78.687,74.683c3.333,3.365 6.666,6.73 10.099,10.197c4.435,4.507 4.435,4.507 8.959,9.105c8.594,8.264 17.316,16.075 26.337,23.856c18.064,15.692 34.978,32.355 51.83,49.331c3.097,3.103 6.195,6.206 9.386,9.404c9.772,9.795 19.529,19.605 29.286,29.415c6.672,6.693 13.345,13.385 20.02,20.076c16.255,16.3 32.497,32.612 48.73,48.934c-6.466,13.865 -13.776,22.858 -25,33.333c-12.604,-5.628 -21.169,-11.876 -30.762,-21.761c-3.811,-3.879 -3.811,-3.879 -7.699,-7.837c-2.605,-2.694 -5.21,-5.387 -7.894,-8.162c-5.21,-5.353 -10.429,-10.697 -15.658,-16.032c-2.294,-2.369 -4.588,-4.738 -6.952,-7.179c-5.929,-6.143 -5.929,-6.143 -14.37,-9.862l0,-8.333c-3.534,-1.501 -3.534,-1.501 -7.139,-3.032c-11.52,-6.41 -19.331,-14.107 -28.631,-23.459c-3.753,-3.753 -7.505,-7.507 -11.372,-11.374c-4.056,-4.099 -8.112,-8.198 -12.168,-12.298c-4.178,-4.194 -8.358,-8.386 -12.54,-12.576c-10.978,-11.01 -21.931,-22.045 -32.879,-33.085c-11.185,-11.271 -22.394,-22.517 -33.601,-33.766c-21.969,-22.058 -43.911,-44.142 -65.837,-66.243c4.078,-4.776 8.158,-9.55 12.24,-14.323c2.272,-2.659 4.544,-5.317 6.885,-8.057c3.242,-3.745 6.54,-7.451 10.042,-10.954Z" style="fill:#f7f9f5;fill-rule:nonzero;"/><path d="M358.333,728.398c2.804,-0.013 5.607,-0.027 8.496,-0.041c19.545,0.208 35.628,3.67 54.004,9.676c-14.235,23.895 -14.235,23.895 -25.26,28.906c-8.073,0.26 -8.073,0.26 -20.573,-3.906c-24.081,-2.339 -47.097,-3.479 -67.985,10.547c-15.004,13.089 -27.527,28.447 -40.348,43.62c-30.143,32.462 -62.936,54.762 -104.167,70.833c-3.905,1.552 -7.81,3.104 -11.833,4.704c-15.543,4.284 -30.016,4.553 -45.98,4.15c-2.868,-0.038 -5.736,-0.075 -8.691,-0.114c-6.999,-0.097 -13.998,-0.247 -20.996,-0.407c3.346,-3.266 6.692,-6.531 10.14,-9.896c10.597,-9.811 10.597,-9.811 15.12,-19.271c-0.408,-13.067 -8.609,-19.589 -16.927,-29.167l0,-8.333c3.33,-0.107 6.66,-0.215 10.091,-0.326c70.231,-3.627 123.421,-33.109 179.953,-72.528c27.323,-18.79 51.212,-29.257 84.956,-28.448Z" style="fill:#f7f8f4;fill-rule:nonzero;"/><path d="M1320.833,133.867c-1.289,3.18 -2.578,6.359 -3.906,9.635c-5.975,15.112 -9.064,26.586 -9.033,42.741c-0.893,74.959 -0.893,74.959 -22.021,99.609c-2.213,2.095 -4.426,4.189 -6.706,6.348c-3.438,3.352 -6.875,6.703 -10.417,10.156c-26.44,16.525 -50.968,15.814 -81.25,14.844c1.203,-2.922 2.406,-5.844 3.646,-8.854c7.946,-20.307 13.708,-39.349 16.923,-60.982c4.746,-31.065 10.865,-56.949 33.598,-80.164c10.378,-7.384 17.783,-11.896 29.167,-16.667c3.572,-1.542 7.144,-3.083 10.824,-4.671c28.847,-11.995 28.847,-11.995 39.176,-11.995Z" style="fill:#3c4731;fill-rule:nonzero;"/><path d="M583.333,533.867c23.658,19.671 45.444,40.732 67.122,62.549c3.536,3.542 7.072,7.084 10.715,10.733c11.217,11.24 22.419,22.495 33.621,33.75c7.589,7.61 15.179,15.219 22.77,22.827c16.663,16.704 33.317,33.417 49.962,50.138c6.651,6.676 13.31,13.343 19.976,20.004c-57.143,6.381 -57.143,6.381 -79.639,-8.691c-10.219,-10.575 -19.378,-21.609 -28.695,-32.975c-6.876,-5.64 -13.822,-11.196 -20.833,-16.667c-6.944,-6.944 -13.889,-13.889 -20.833,-20.833c-4.602,-3.877 -9.232,-7.722 -13.883,-11.54c-40.901,-34.996 -40.901,-34.996 -43.799,-60.986c-0.437,-16.344 1.09,-32.156 3.516,-48.307Z" style="fill:#f6f8f4;fill-rule:nonzero;"/><path d="M425,1042.2c50.468,47.442 77.012,106.28 79.167,175c-2.514,-1.278 -5.027,-2.557 -7.617,-3.874c-9.778,-4.818 -19.727,-8.844 -29.883,-12.793c-9.625,8.25 -19.25,16.5 -29.167,25c-0.263,-3.233 -0.526,-6.467 -0.798,-9.798c-4.776,-42.129 -18.145,-81.167 -46.24,-113.77c-7.129,-9.766 -7.129,-9.766 -7.129,-18.441c5.37,-10.299 11.881,-15.987 20.833,-23.356c3.008,-2.508 6.016,-5.017 9.115,-7.601c2.492,-2.046 4.984,-4.093 7.552,-6.201c1.375,-1.375 2.75,-2.75 4.167,-4.167Z" style="fill:#f7f8f5;fill-rule:nonzero;"/><path d="M525,613.033c10.381,-1.966 10.381,-1.966 25,0c12.702,9.067 23.125,20.224 33.903,31.462c3.172,3.207 6.344,6.415 9.612,9.719c10.121,10.261 20.152,20.606 30.183,30.955c6.8,6.926 13.606,13.846 20.418,20.76c15.002,15.248 29.948,30.549 44.846,45.898c4.548,4.659 9.253,9.172 14.103,13.515c1.738,1.988 3.477,3.976 5.268,6.024c-1.302,11.198 -1.302,11.198 -4.167,20.833c-7.354,2.856 -7.354,2.856 -16.667,4.167c-7.774,-4.874 -7.774,-4.874 -15.673,-12.368c-2.905,-2.713 -5.811,-5.426 -8.804,-8.221c-2.923,-2.831 -5.845,-5.661 -8.856,-8.578c-4.019,-3.79 -4.019,-3.79 -8.119,-7.656c-17.434,-16.544 -34.503,-33.466 -51.591,-50.366c-6.242,-6.151 -12.51,-12.276 -18.803,-18.376c-9.138,-8.861 -18.193,-17.799 -27.233,-26.76c-2.833,-2.717 -5.667,-5.435 -8.586,-8.235c-7.039,-7.07 -13.454,-13.649 -19.002,-21.941c0.359,-12.303 0.359,-12.303 4.167,-20.833Z" style="fill:#f6f7f3;fill-rule:nonzero;"/><path d="M450,1038.033c12.278,0.304 21.589,0.857 30.701,9.698c5.642,7.583 10.704,15.322 15.653,23.374c1.807,2.837 3.615,5.673 5.477,8.596c13.22,21.219 24.663,42.503 31.502,66.665c1.095,3.74 1.095,3.74 2.212,7.555c7.501,28.752 7.068,56.904 6.643,86.455c-0.038,4.998 -0.075,9.996 -0.114,15.145c-0.097,12.227 -0.234,24.452 -0.407,36.678l-4.167,0c-0.204,-2.814 -0.408,-5.629 -0.618,-8.529c-0.312,-3.717 -0.623,-7.434 -0.944,-11.263c-0.29,-3.674 -0.58,-7.348 -0.879,-11.133c-1.102,-10.639 -1.102,-10.639 -6.038,-18.717c-5.697,-12.317 -4.661,-22.82 -4.281,-36.296c1.171,-18.116 1.171,-18.116 -3.906,-34.896c-4.125,10.312 -4.125,10.312 -8.333,20.833c-6.188,-2.062 -6.188,-2.062 -12.5,-4.167c-3.076,-9.733 -3.076,-9.733 -5.469,-22.396c-9.557,-41.962 -32.702,-75.996 -57.031,-110.938c4.125,-5.5 8.25,-11 12.5,-16.667Z" style="fill:#464f3c;fill-rule:nonzero;"/><path d="M100,1108.867c8.643,-1.709 8.643,-1.709 20.833,0c10.621,7.983 19.363,17.627 28.385,27.344c5.179,5.389 10.365,10.771 15.56,16.146c2.479,2.583 4.958,5.167 7.511,7.829c8.266,8.432 16.914,16.27 25.887,23.942c3.746,3.215 3.746,3.215 7.568,6.494c2.229,1.896 4.458,3.792 6.755,5.745c20.43,17.876 20.43,17.876 22.396,32.292c-1.562,9.375 -1.562,9.375 -5.729,13.542c-9.276,1.534 -9.276,1.534 -20.833,0c-10.898,-8.533 -10.898,-8.533 -22.412,-20.378c-2.058,-2.088 -4.116,-4.175 -6.237,-6.326c-6.56,-6.676 -13.044,-13.421 -19.528,-20.171c-4.376,-4.481 -8.757,-8.957 -13.143,-13.428c-8.082,-8.252 -16.128,-16.534 -24.155,-24.841c-6.536,-6.744 -13.228,-13.343 -20.123,-19.718c-2.278,-2.52 -4.555,-5.041 -6.902,-7.638c1.042,-11.458 1.042,-11.458 4.167,-20.833Z" style="fill:#f8f9f5;fill-rule:nonzero;"/><path d="M87.5,1175.533c25.577,21.598 50.306,44.071 75,66.667c-4.167,12.5 -4.167,12.5 -12.5,16.667c-15.625,2.187 -30.883,3.357 -45.231,-3.923c-13.578,-10.695 -21.709,-21.004 -25.602,-37.744c-1.021,-11.5 -0.763,-21.695 0,-33.333c2.75,-2.75 5.5,-5.5 8.333,-8.333Z" style="fill:#f5f7f2;fill-rule:nonzero;"/><path d="M675,825.533c8.594,1.823 8.594,1.823 16.667,4.167l-12.5,0c1.348,2.272 2.696,4.544 4.085,6.885c5.038,11.602 5.499,20.343 5.55,32.959c0.07,3.958 0.14,7.917 0.212,11.995c-1.725,12.153 -4.522,15.722 -14.014,23.161c-2.75,-1.375 -5.5,-2.75 -8.333,-4.167c-1.697,-9.673 -3.102,-19.404 -4.167,-29.167c-2.75,4.125 -5.5,8.25 -8.333,12.5l0,-25l8.333,0c1.289,-4.727 2.578,-9.453 3.906,-14.323c4.427,-14.844 4.427,-14.844 8.594,-19.01Z" style="fill:#3e4835;fill-rule:nonzero;"/><path d="M1304.167,0.533c-7.118,8.776 -10.506,12.242 -21.924,13.721c-3.335,-0.145 -6.671,-0.29 -10.107,-0.439c-5.052,-0.169 -5.052,-0.169 -10.205,-0.342c-2.562,-0.145 -5.124,-0.29 -7.764,-0.439c-1.375,4.125 -2.75,8.25 -4.167,12.5c-6.599,-0.592 -13.196,-1.203 -19.792,-1.823c-3.674,-0.338 -7.348,-0.677 -11.133,-1.025c-9.492,-1.165 -18.199,-2.987 -27.409,-5.485c-6.938,-1.419 -13.882,-2.815 -20.833,-4.167l0,-4.167c44.841,-7.31 87.963,-9.333 133.333,-8.333Z" style="fill:#515947;fill-rule:nonzero;"/><path d="M308.333,1104.7c9.434,4.717 17.021,9.752 25,16.667c0,12.5 0,12.5 -6.38,19.189c-2.707,2.175 -5.414,4.351 -8.203,6.592c-2.707,2.208 -5.414,4.415 -8.203,6.689c-2.105,1.66 -4.211,3.319 -6.38,5.029c-10.312,-4.125 -10.312,-4.125 -20.833,-8.333l0,-8.333l8.333,0c1.375,-6.875 2.75,-13.75 4.167,-20.833c4.125,-1.375 8.25,-2.75 12.5,-4.167l0,-12.5Z" style="fill:#37422c;fill-rule:nonzero;"/><path d="M450,1038.033c11.458,0.26 11.458,0.26 25,4.167c7.355,9.271 11.554,18.352 16.667,29.167c-4.125,2.062 -4.125,2.062 -8.333,4.167c-8.854,-3.906 -8.854,-3.906 -16.667,-8.333c-1.375,6.875 -2.75,13.75 -4.167,20.833c-11.114,-10.373 -18.989,-19.309 -25,-33.333c4.125,-5.5 8.25,-11 12.5,-16.667Z" style="fill:#404936;fill-rule:nonzero;"/><path d="M1262.5,196.367l8.333,0c2.224,26.688 0.041,48.929 -16.667,70.833c-4.125,1.375 -8.25,2.75 -12.5,4.167c1.07,-8.601 2.213,-17.193 3.385,-25.781c0.628,-4.786 1.257,-9.571 1.904,-14.502c3.083,-14.062 6.953,-23.226 15.544,-34.717Z" style="fill:#e0e5da;fill-rule:nonzero;"/><path d="M1158.333,133.867c12.629,10.735 20.011,17.171 23.698,33.594c-2.865,12.24 -2.865,12.24 -15.365,22.135c-4.125,2.234 -8.25,4.469 -12.5,6.771c-0.113,-8.073 -0.193,-16.146 -0.26,-24.219c-0.048,-4.496 -0.097,-8.991 -0.146,-13.623c0.407,-12.158 0.407,-12.158 4.574,-24.658Z" style="fill:#343f29;fill-rule:nonzero;"/><path d="M641.667,846.367c2.75,1.375 5.5,2.75 8.333,4.167l0,33.333l-41.667,0c9.454,-18.908 17.078,-24.778 33.333,-37.5Z" style="fill:#f0f3eb;fill-rule:nonzero;"/><path d="M516.667,1167.2c6.25,4.427 6.25,4.427 12.5,12.5c2.083,14.583 2.083,14.583 0,29.167c-10.417,8.073 -10.417,8.073 -20.833,12.5c-1.375,-13.75 -2.75,-27.5 -4.167,-41.667c2.75,2.75 5.5,5.5 8.333,8.333c1.375,-6.875 2.75,-13.75 4.167,-20.833Z" style="fill:#333f29;fill-rule:nonzero;"/><path d="M289.844,875.273c4.727,0.086 9.453,0.172 14.323,0.26c-6.366,14.323 -14.591,25.79 -25,37.5l-8.333,0c-0.407,-25.635 -0.407,-25.635 0,-33.333c4.167,-4.167 4.167,-4.167 19.01,-4.427Z" style="fill:#ebefe6;fill-rule:nonzero;"/><path d="M941.667,458.867c15.104,-0.781 15.104,-0.781 29.167,0l0,8.333c6.875,-1.375 13.75,-2.75 20.833,-4.167l0,8.333c-8.149,1.62 -16.311,3.169 -24.479,4.688c-4.544,0.87 -9.088,1.74 -13.77,2.637c-5.817,0.5 -5.817,0.5 -11.751,1.009c-2.75,-2.75 -5.5,-5.5 -8.333,-8.333c2.75,-4.125 5.5,-8.25 8.333,-12.5Z" style="fill:#323e28;fill-rule:nonzero;"/><path d="M975,0.533l8.333,0c3.385,13.542 3.385,13.542 4.167,29.167c-9.896,9.635 -9.896,9.635 -20.833,16.667c-1.375,2.75 -2.75,5.5 -4.167,8.333l-8.333,0c5.909,-18.635 12.971,-36.298 20.833,-54.167Z" style="fill:#4d5445;fill-rule:nonzero;"/><path d="M929.167,217.2c1.375,4.125 2.75,8.25 4.167,12.5l29.167,0c1.375,2.75 2.75,5.5 4.167,8.333c-35.119,9.524 -35.119,9.524 -54.167,8.333c5.5,-9.625 11,-19.25 16.667,-29.167Z" style="fill:#494f3f;fill-rule:nonzero;"/><path d="M670.833,846.367c2.75,1.375 5.5,2.75 8.333,4.167c-0.086,5.156 -0.172,10.312 -0.26,15.625c-0.022,12.142 0.551,22.748 4.427,34.375l-12.5,0c-5.546,-16.638 -4.735,-32.656 -4.167,-50c1.375,-1.375 2.75,-2.75 4.167,-4.167Z" style="fill:#35402a;fill-rule:nonzero;"/><path d="M1200,283.867l8.333,0l0,16.667c2.578,1.203 5.156,2.406 7.812,3.646c8.854,4.688 8.854,4.688 17.188,13.021l-45.833,0c2.75,-6.875 5.5,-13.75 8.333,-20.833c1.375,-4.125 2.75,-8.25 4.167,-12.5Z" style="fill:#444c3c;fill-rule:nonzero;"/><path d="M591.667,383.867c4.125,1.375 8.25,2.75 12.5,4.167c-15.85,16.331 -32.566,31.213 -50,45.833c-2.75,-1.375 -5.5,-2.75 -8.333,-4.167c15.125,-15.125 30.25,-30.25 45.833,-45.833Z" style="fill:#464f3f;fill-rule:nonzero;"/><path d="M416.667,1188.033l16.667,0c0.814,25.228 0.814,25.228 0,33.333c-8.333,8.333 -8.333,8.333 -16.667,12.5c-4.688,-31.771 -4.688,-31.771 0,-45.833Z" style="fill:#363f28;fill-rule:nonzero;"/><path d="M925,104.7c-5.998,13.996 -13.017,23.818 -25,33.333c-9.375,-1.042 -9.375,-1.042 -16.667,-4.167c-1.375,2.75 -2.75,5.5 -4.167,8.333c-1.375,-4.125 -2.75,-8.25 -4.167,-12.5c6.757,-4.189 13.531,-8.35 20.312,-12.5c3.771,-2.32 7.541,-4.641 11.426,-7.031c9.928,-5.469 9.928,-5.469 18.262,-5.469Z" style="fill:#424b38;fill-rule:nonzero;"/><path d="M929.167,392.2l8.333,0c-1.95,20.801 -12.155,38.04 -25,54.167l-8.333,0c7.028,-18.742 15.903,-36.37 25,-54.167Z" style="fill:#444d3d;fill-rule:nonzero;"/><path d="M1175,142.2l16.667,0c-1.375,22 -2.75,44 -4.167,66.667l-4.167,0c-2.75,-22 -5.5,-44 -8.333,-66.667Z" style="fill:#454e3c;fill-rule:nonzero;"/><path d="M191.667,775.533c-1.375,5.5 -2.75,11 -4.167,16.667c-9.625,1.375 -19.25,2.75 -29.167,4.167l0,-8.333c-2.75,-1.375 -5.5,-2.75 -8.333,-4.167c5.366,-2.209 10.752,-4.37 16.146,-6.51c2.997,-1.208 5.994,-2.417 9.082,-3.662c8.105,-2.327 8.105,-2.327 16.439,1.839Z" style="fill:#464f3c;fill-rule:nonzero;"/><path d="M870.833,133.867c9.625,1.375 19.25,2.75 29.167,4.167l0,12.5c-9.625,2.75 -19.25,5.5 -29.167,8.333c-4.167,-12.5 -4.167,-12.5 0,-25Z" style="fill:#333e27;fill-rule:nonzero;"/><path d="M320.833,704.7c-4.167,6.25 -4.167,6.25 -12.5,12.5c-11.327,1.139 -21.903,0.562 -33.333,0c17.563,-13.465 23.855,-17.705 45.833,-12.5Z" style="fill:#444e3c;fill-rule:nonzero;"/><path d="M666.667,338.033c-1.375,16.5 -2.75,33 -4.167,50l-8.333,0c-0.112,-7.552 -0.193,-15.104 -0.26,-22.656c-0.048,-4.206 -0.097,-8.411 -0.146,-12.744c0.569,-14.6 0.569,-14.6 12.907,-14.6Z" style="fill:#586050;fill-rule:nonzero;"/><path d="M1058.333,275.533c-6.875,8.25 -13.75,16.5 -20.833,25c-2.75,-1.375 -5.5,-2.75 -8.333,-4.167l0,-8.333c-4.125,-1.375 -8.25,-2.75 -12.5,-4.167c5.366,-2.209 10.752,-4.37 16.146,-6.51c2.997,-1.208 5.994,-2.417 9.082,-3.662c8.105,-2.327 8.105,-2.327 16.439,1.839Z" style="fill:#4d5346;fill-rule:nonzero;"/><path d="M320.833,1088.033c5.5,5.5 11,11 16.667,16.667c-4.125,1.375 -8.25,2.75 -12.5,4.167c-1.375,2.75 -2.75,5.5 -4.167,8.333l-8.333,0c-2.865,-7.552 -2.865,-7.552 -4.167,-16.667c5.99,-7.292 5.99,-7.292 12.5,-12.5Z" style="fill:#424d38;fill-rule:nonzero;"/><path d="M8.333,783.867c9.625,1.375 19.25,2.75 29.167,4.167c-2.553,12.341 -5.224,18.252 -12.5,29.167c-5.5,-11 -11,-22 -16.667,-33.333Z" style="fill:#4b5143;fill-rule:nonzero;"/><path d="M387.5,1025.533c2.75,1.375 5.5,2.75 8.333,4.167c-11.069,15.579 -19.088,23.541 -37.5,29.167c4.078,-4.776 8.158,-9.55 12.24,-14.323c2.272,-2.659 4.544,-5.317 6.885,-8.057c3.242,-3.745 6.54,-7.451 10.042,-10.954Z" style="fill:#474f3f;fill-rule:nonzero;"/><path d="M745.833,667.2c8.854,19.271 8.854,19.271 4.167,33.333c-7.12,-6.764 -14.06,-13.722 -20.833,-20.833l0,-8.333c8.333,-4.167 8.333,-4.167 16.667,-4.167Z" style="fill:#474e3d;fill-rule:nonzero;"/><path d="M8.333,900.533c8.333,4.167 8.333,4.167 12.5,12.5c-1.375,2.75 -2.75,5.5 -4.167,8.333c4.125,1.375 8.25,2.75 12.5,4.167c-9.625,-1.375 -19.25,-2.75 -29.167,-4.167c0,-12.5 0,-12.5 8.333,-20.833Z" style="fill:#52594c;fill-rule:nonzero;"/><path d="M58.333,858.867c2.75,4.125 5.5,8.25 8.333,12.5c-8.226,10.511 -12.364,12.471 -25.781,15.365c-5.801,0.645 -5.801,0.645 -11.719,1.302c9.722,-9.722 19.444,-19.444 29.167,-29.167Z" style="fill:#48503f;fill-rule:nonzero;"/><path d="M258.333,825.533c2.75,1.375 5.5,2.75 8.333,4.167c-2.578,1.031 -5.156,2.062 -7.812,3.125c-9.502,4.447 -9.502,4.447 -12.76,13.802c-1.461,2.664 -2.922,5.328 -4.427,8.073c-10.938,3.125 -10.938,3.125 -20.833,4.167c11.887,-12.217 23.545,-23.513 37.5,-33.333Z" style="fill:#4b5242;fill-rule:nonzero;"/><path d="M483.333,663.033c2.75,1.375 5.5,2.75 8.333,4.167c-6.011,14.025 -13.886,22.96 -25,33.333c-2.75,-1.375 -5.5,-2.75 -8.333,-4.167c8.25,-11 16.5,-22 25,-33.333Z" style="fill:#474f3f;fill-rule:nonzero;"/><path d="M1050,388.033c11.947,2.389 16.089,3.589 25,12.5c-18.562,2.062 -18.562,2.062 -37.5,4.167c4.125,-5.5 8.25,-11 12.5,-16.667Z" style="fill:#454a3c;fill-rule:nonzero;"/><path d="M841.667,567.2l20.833,0l0,16.667l-12.5,0c-2.75,-5.5 -5.5,-11 -8.333,-16.667Z" style="fill:#4c5344;fill-rule:nonzero;"/><path d="M254.167,725.533c0,12.5 0,12.5 -7.292,19.792c-9.375,5.208 -9.375,5.208 -26.042,1.042c11,-6.875 22,-13.75 33.333,-20.833Z" style="fill:#4a5142;fill-rule:nonzero;"/><path d="M1195.833,46.367c-5.5,6.875 -11,13.75 -16.667,20.833l0,-8.333c-5.5,-2.75 -11,-5.5 -16.667,-8.333c12.201,-4.067 20.651,-4.509 33.333,-4.167Z" style="fill:#dadfd4;fill-rule:nonzero;"/><path d="M733.333,183.867c2.75,1.375 5.5,2.75 8.333,4.167c-2.75,6.875 -5.5,13.75 -8.333,20.833c-5.5,-2.75 -11,-5.5 -16.667,-8.333c5.5,-5.5 11,-11 16.667,-16.667Z" style="fill:#454f3d;fill-rule:nonzero;"/><path d="M1254.167,8.867l29.167,0l0,12.5c-11,-1.375 -22,-2.75 -33.333,-4.167c1.375,-2.75 2.75,-5.5 4.167,-8.333Z" style="fill:#444d39;fill-rule:nonzero;"/></svg>