<?xml version="1.0" encoding="UTF-8" standalone="no"?><!DOCTYPE svg PUBLIC "-//W3C//DTD SVG 1.1//EN" "http://www.w3.org/Graphics/SVG/1.1/DTD/svg11.dtd"><svg width="100%" height="100%" viewBox="0 0 1431 1076" version="1.1" xmlns="http://www.w3.org/2000/svg" xmlns:xlink="http://www.w3.org/1999/xlink" xml:space="preserve" xmlns:serif="http://www.serif.com/" style="fill-rule:evenodd;clip-rule:evenodd;stroke-linejoin:round;stroke-miterlimit:2;"><path d="M1023.853,34.852c43.216,37.208 70.563,93.132 86.458,147.396c-0.898,18.415 -8.817,28.099 -20.833,41.667c8.142,9.154 8.142,9.154 20.833,13.802c15.023,8.451 15.769,11.84 20.833,27.865c2.253,10.261 4.245,20.384 5.99,30.729c0.535,3.098 1.071,6.196 1.623,9.387c4.098,24.402 7.296,48.875 10.357,73.425c18.924,152.431 18.924,152.431 62.701,299.139c2.663,8.152 2.663,8.152 2.663,20.652c3.508,-0.736 7.015,-1.471 10.629,-2.229c13.13,-2.749 26.261,-5.489 39.394,-8.223c5.662,-1.181 11.323,-2.365 16.984,-3.552c8.18,-1.715 16.363,-3.418 24.545,-5.12c4.91,-1.026 9.819,-2.051 14.877,-3.108c26.065,-5.009 50.465,-7.398 76.903,-6.935c4.115,7.185 8.186,14.395 12.24,21.615c2.272,4.012 4.544,8.024 6.885,12.158c18.115,37.183 16.344,94.795 3.271,133.415c-14.724,33.618 -36.12,60.42 -68.229,78.646c-37.285,14.068 -76.019,21.556 -115.104,28.646c-11.371,2.12 -22.735,4.27 -34.098,6.429c-2.847,0.54 -5.695,1.08 -8.628,1.636c-29.017,5.546 -57.87,11.79 -86.7,18.237c-4.443,0.99 -8.885,1.981 -13.462,3.001c-20.975,4.731 -41.842,9.72 -62.661,15.098c-26.241,6.619 -52.674,11.251 -79.346,15.755c-39.59,6.888 -78.96,14.39 -118.229,22.917c-4.666,1.007 -9.333,2.013 -14.141,3.051c-22.087,4.788 -44.16,9.629 -66.208,14.595c-17.403,3.919 -34.821,7.765 -52.248,11.575c-6.785,1.498 -13.564,3.023 -20.336,4.578c-35.083,8.045 -68.946,14.15 -105.042,14.33c-2.886,0.019 -5.771,0.039 -8.744,0.059c-36.815,-0.675 -64.079,-18.288 -90.051,-43.239c-40.409,-52.128 -68.494,-117.062 -77.083,-182.552c4.275,-27.256 27.377,-42.874 47.917,-59.115c-3.765,-1.262 -7.53,-2.524 -11.41,-3.825c-4.915,-1.746 -9.829,-3.491 -14.893,-5.29c-4.882,-1.692 -9.765,-3.384 -14.795,-5.127c-15.047,-7.589 -19.009,-12.103 -25.57,-27.425c-14.034,-51.717 -17.646,-106.662 -23.686,-159.735c-1.594,-13.463 -3.465,-26.859 -5.481,-40.265c-1.214,4.931 -2.428,9.861 -3.678,14.941c-9.493,37.128 -18.854,70.558 -42.155,101.725c-2.551,3.448 -5.103,6.896 -7.731,10.449c-22.78,26.473 -55.733,47.548 -88.102,60.384c-17.803,-1.136 -17.803,-1.136 -25,-8.333c1.911,-26.273 8.527,-50.018 16.667,-75c-4.761,-0.612 -4.761,-0.612 -9.619,-1.237c-63.282,-9.164 -63.282,-9.164 -82.048,-27.93c-0.169,-6.942 -0.178,-13.891 0,-20.833c3.408,-1.442 3.408,-1.442 6.885,-2.913c16.942,-7.327 33.725,-14.955 50.146,-23.389c2.852,-1.445 5.704,-2.89 8.643,-4.378c26.692,-19.518 39.609,-45.019 52.295,-74.788c20.891,-46.184 44.564,-78.407 90.902,-101.4c2.573,-1.858 5.146,-3.717 7.796,-5.632l0,-16.667c-4.935,0.757 -9.87,1.515 -14.955,2.295c-18.5,2.83 -37.007,5.614 -55.516,8.386c-7.974,1.2 -15.947,2.413 -23.918,3.638c-122.571,18.813 -122.571,18.813 -163.946,-5.986c-36.406,-28.509 -55.964,-63.803 -66.667,-108.333c-6.332,-54.72 1.888,-99.538 34.115,-145.052c38.187,-45.347 83.814,-57.616 141.125,-62.814c12.827,-1.082 25.661,-2.055 38.497,-3.022c7.05,-0.564 14.099,-1.132 21.148,-1.703c14.97,-1.208 29.942,-2.391 44.916,-3.555c35.51,-2.763 71.01,-5.658 106.51,-8.546c8.001,-0.65 16.003,-1.299 24.004,-1.947c76.219,-6.168 152.363,-12.993 228.487,-20.235c5.211,-0.494 10.422,-0.988 15.79,-1.497c43.215,-4.102 86.426,-8.247 129.625,-12.512c11.74,-1.158 23.48,-2.31 35.221,-3.461c8.279,-0.815 16.556,-1.641 24.834,-2.467c123.816,-12.147 123.816,-12.147 177.603,27.749Z" style="fill:#fcfdfb;fill-rule:nonzero;"/><path d="M1023.853,34.852c43.216,37.208 70.563,93.132 86.458,147.396c-0.898,18.415 -8.817,28.099 -20.833,41.667c8.142,9.154 8.142,9.154 20.833,13.802c15.023,8.451 15.769,11.84 20.833,27.865c2.253,10.261 4.245,20.384 5.99,30.729c0.535,3.098 1.071,6.196 1.623,9.387c4.098,24.402 7.296,48.875 10.357,73.425c18.924,152.431 18.924,152.431 62.701,299.139c2.663,8.152 2.663,8.152 2.663,20.652c3.508,-0.736 7.015,-1.471 10.629,-2.229c13.13,-2.749 26.261,-5.489 39.394,-8.223c5.662,-1.181 11.323,-2.365 16.984,-3.552c8.18,-1.715 16.363,-3.418 24.545,-5.12c4.91,-1.026 9.819,-2.051 14.877,-3.108c26.065,-5.009 50.465,-7.398 76.903,-6.935c4.115,7.185 8.186,14.395 12.24,21.615c2.272,4.012 4.544,8.024 6.885,12.158c18.115,37.183 16.344,94.795 3.271,133.415c-14.724,33.618 -36.12,60.42 -68.229,78.646c-37.285,14.068 -76.019,21.556 -115.104,28.646c-11.371,2.12 -22.735,4.27 -34.098,6.429c-2.847,0.54 -5.695,1.08 -8.628,1.636c-29.017,5.546 -57.87,11.79 -86.7,18.237c-4.443,0.99 -8.885,1.981 -13.462,3.001c-20.975,4.731 -41.842,9.72 -62.661,15.098c-26.241,6.619 -52.674,11.251 -79.346,15.755c-39.59,6.888 -78.96,14.39 -118.229,22.917c-4.666,1.007 -9.333,2.013 -14.141,3.051c-22.087,4.788 -44.16,9.629 -66.208,14.595c-17.403,3.919 -34.821,7.765 -52.248,11.575c-6.785,1.498 -13.564,3.023 -20.336,4.578c-35.083,8.045 -68.946,14.15 -105.042,14.33c-2.886,0.019 -5.771,0.039 -8.744,0.059c-36.815,-0.675 -64.079,-18.288 -90.051,-43.239c-40.409,-52.128 -68.494,-117.062 -77.083,-182.552c4.275,-27.256 27.377,-42.874 47.917,-59.115c-3.765,-1.262 -7.53,-2.524 -11.41,-3.825c-4.915,-1.746 -9.829,-3.491 -14.893,-5.29c-4.882,-1.692 -9.765,-3.384 -14.795,-5.127c-15.047,-7.589 -19.009,-12.103 -25.57,-27.425c-14.034,-51.717 -17.646,-106.662 -23.686,-159.735c-1.594,-13.463 -3.465,-26.859 -5.481,-40.265c-1.214,4.931 -2.428,9.861 -3.678,14.941c-9.493,37.128 -18.854,70.558 -42.155,101.725c-2.551,3.448 -5.103,6.896 -7.731,10.449c-22.78,26.473 -55.733,47.548 -88.102,60.384c-17.803,-1.136 -17.803,-1.136 -25,-8.333c1.911,-26.273 8.527,-50.018 16.667,-75c-4.761,-0.612 -4.761,-0.612 -9.619,-1.237c-63.282,-9.164 -63.282,-9.164 -82.048,-27.93c-0.169,-6.942 -0.178,-13.891 0,-20.833c3.408,-1.442 3.408,-1.442 6.885,-2.913c16.942,-7.327 33.725,-14.955 50.146,-23.389c2.852,-1.445 5.704,-2.89 8.643,-4.378c26.692,-19.518 39.609,-45.019 52.295,-74.788c20.891,-46.184 44.564,-78.407 90.902,-101.4c2.573,-1.858 5.146,-3.717 7.796,-5.632l0,-16.667c-4.935,0.757 -9.87,1.515 -14.955,2.295c-18.5,2.83 -37.007,5.614 -55.516,8.386c-7.974,1.2 -15.947,2.413 -23.918,3.638c-122.571,18.813 -122.571,18.813 -163.946,-5.986c-36.406,-28.509 -55.964,-63.803 -66.667,-108.333c-6.332,-54.72 1.888,-99.538 34.115,-145.052c38.187,-45.347 83.814,-57.616 141.125,-62.814c12.827,-1.082 25.661,-2.055 38.497,-3.022c7.05,-0.564 14.099,-1.132 21.148,-1.703c14.97,-1.208 29.942,-2.391 44.916,-3.555c35.51,-2.763 71.01,-5.658 106.51,-8.546c8.001,-0.65 16.003,-1.299 24.004,-1.947c76.219,-6.168 152.363,-12.993 228.487,-20.235c5.211,-0.494 10.422,-0.988 15.79,-1.497c43.215,-4.102 86.426,-8.247 129.625,-12.512c11.74,-1.158 23.48,-2.31 35.221,-3.461c8.279,-0.815 16.556,-1.641 24.834,-2.467c123.816,-12.147 123.816,-12.147 177.603,27.749Zm-194.735,14.777c-38.859,4.46 -77.829,7.426 -116.818,10.488c-66.247,5.213 -132.437,10.694 -198.556,17.343c-32.929,3.282 -65.873,6.278 -98.842,9.118c-6.518,0.562 -6.518,0.562 -13.167,1.134c-21.717,1.866 -43.436,3.715 -65.156,5.547c-7.98,0.681 -15.959,1.362 -23.939,2.043c-3.653,0.303 -7.306,0.607 -11.07,0.919c-18.102,1.552 -35.872,3.542 -53.758,6.861l0,8.333c6.071,4.963 12.148,9.919 18.262,14.83c10.618,9.461 18.042,20.85 25.488,32.827c1.596,2.535 3.192,5.07 4.837,7.681c80.341,131.125 88.981,303.813 104.263,452.866c1.771,16.989 3.681,33.956 5.743,50.911c0.846,7.05 0.846,7.05 1.709,14.242c0.725,4.667 1.45,9.335 2.197,14.144c0.23,3.135 0.46,6.269 0.697,9.499c1.295,10.561 2.864,18.468 7.637,28.001c12.33,8.68 25.445,12.535 39.844,16.667c7.299,2.339 14.596,4.683 21.891,7.031c3.242,0.961 6.484,1.923 9.824,2.913c7.608,2.555 7.608,2.555 11.775,6.722c2.1,8.936 2.1,8.936 0,20.833c-11.184,13.094 -24.743,23.975 -37.964,34.953c-15.425,13.96 -15.425,13.96 -21.786,33.162c1.798,25.609 10.691,48.687 20.948,71.989c1.362,3.309 2.723,6.617 4.126,10.026c16.672,38.892 43.873,79.308 84.676,95.703c28.367,3.85 52.609,2.959 76.042,-14.372c25.878,-22.932 38.432,-41.873 41.813,-77.214c1.488,-32.547 -3.089,-56.578 -22.021,-83.415c-4.549,-4.737 -9.23,-9.354 -14.062,-13.802c-3.609,-3.695 -7.219,-7.391 -10.938,-11.198c0.521,-11.979 0.521,-11.979 4.167,-20.833c19.239,-5.732 38.214,-10.38 57.975,-14.062c4.167,-0.783 4.167,-0.783 8.417,-1.581c9.29,-1.742 18.584,-3.466 27.878,-5.189c6.704,-1.254 13.408,-2.51 20.112,-3.767c14.804,-2.775 29.61,-5.543 44.416,-8.308c26.386,-4.933 52.764,-9.911 79.14,-14.895c7.014,-1.325 7.014,-1.325 14.169,-2.677c9.532,-1.801 19.064,-3.602 28.596,-5.403c114.463,-21.627 114.463,-21.627 166.772,-31.357c3.194,-0.595 6.389,-1.19 9.68,-1.803c14.354,-2.674 28.709,-5.339 43.068,-7.988c4.835,-0.899 9.67,-1.799 14.651,-2.725c4.115,-0.76 8.23,-1.521 12.469,-2.304c10.665,-2.006 10.665,-2.006 22.654,-6.273c-2.449,-7.09 -2.449,-7.09 -4.948,-14.323c-2.523,-7.724 -5.04,-15.45 -7.552,-23.177c-1.563,-4.576 -3.126,-9.152 -4.736,-13.867c-30.43,-92.841 -38.944,-193.191 -51.913,-289.732c-1.181,-8.705 -2.398,-17.404 -3.625,-26.102c-1.435,-10.398 -2.764,-20.81 -3.963,-31.238c-0.581,-4.49 -1.163,-8.979 -1.762,-13.605c-0.451,-3.879 -0.902,-7.759 -1.366,-11.755c-2.739,-10.435 -2.739,-10.435 -13.245,-16.144c-10.532,-4.326 -20.879,-7.209 -31.89,-10.057c-5.626,-2.633 -11.211,-5.364 -16.667,-8.333c0.814,-19.932 2.973,-29.209 17.188,-43.49c10.4,-11.407 11.881,-13.702 13.281,-29.948c-9.471,-42.494 -38.619,-86.736 -72.135,-114.062c-25.461,-14.927 -47.633,-19.126 -76.823,-18.229c-3.177,0.005 -6.354,0.011 -9.627,0.016c-26.211,0.378 -52.071,3.393 -78.076,6.427Z" style="fill:#424b38;fill-rule:nonzero;"/><path d="M1376.978,711.414c18.267,31.206 18.037,69.719 9.326,104.248c-11.602,30.588 -26.843,49.762 -55.16,66.585c-11.059,3.412 -21.469,6.193 -32.731,8.529c-3.095,0.684 -6.191,1.368 -9.38,2.073c-9.561,2.089 -19.136,4.092 -28.722,6.065c-2.858,0.592 -5.716,1.184 -8.661,1.793c-16.787,3.45 -33.6,6.759 -50.424,10.022c-54.463,10.583 -108.676,22.042 -162.789,34.278c-51.686,11.684 -103.434,22.311 -155.511,32.117c-55.19,10.502 -109.893,22.989 -164.608,35.703c-10.974,2.483 -21.962,4.771 -33.006,6.92c1.676,-4.898 1.676,-4.898 3.385,-9.896c1.633,-4.984 3.266,-9.969 4.948,-15.104c1.101,-3.174 2.202,-6.349 3.337,-9.619c17.509,-53.192 4.74,-93.573 -15.837,-144.548c39.06,-10.666 78.471,-18.022 118.298,-25.066c20.206,-3.579 40.399,-7.225 60.592,-10.871c6.494,-1.172 6.494,-1.172 13.119,-2.368c54.37,-9.845 108.656,-20.133 162.939,-30.445c5.114,-0.971 10.228,-1.941 15.497,-2.942c74.842,-14.217 149.642,-28.641 224.375,-43.421c4.916,-0.968 4.916,-0.968 9.931,-1.956c5.968,-1.176 11.936,-2.358 17.902,-3.547c24.337,-4.788 48.306,-9.305 73.182,-8.551Z" style="fill:#fcfdfc;fill-rule:nonzero;"/><path d="M152.759,110.112c36.429,2.986 66.738,19.751 90.885,47.135l0,8.333c-2.707,0.187 -5.413,0.374 -8.202,0.567c-12.461,0.89 -24.915,1.854 -37.371,2.819c-6.385,0.439 -6.385,0.439 -12.899,0.887c-46.469,3.383 -46.469,3.383 -85.018,26.717c-14.505,23.788 -18.318,41.051 -14.844,69.01c6.321,18.806 12.515,30.565 29.167,41.667c14.251,1.665 28.637,2.348 41.667,-4.167l0,-20.833c-4.641,-1.891 -9.281,-3.781 -14.062,-5.729c-15.104,-6.771 -15.104,-6.771 -23.438,-15.104c-2.401,-18.177 -1.904,-26.397 8.594,-41.667c12.24,-8.333 12.24,-8.333 26.823,-8.854c21.719,6.981 31.37,19.45 43.75,38.021c1.253,13.102 1.253,13.102 1.302,28.385c0.07,5.011 0.14,10.022 0.212,15.186c-2.745,26.772 -14.976,43.148 -34.847,60.596c-15.075,10.916 -32.063,10.554 -50,8.333c-32.533,-12.12 -52.836,-37.989 -67.448,-68.75c-12.165,-37.431 -12.708,-77.075 3.597,-113.118c17.651,-31.345 44.01,-56.353 78.695,-67.35c7.82,-0.602 15.632,-1.318 23.438,-2.083Z" style="fill:#f7f8f5;fill-rule:nonzero;"/><path d="M975.937,398.133c3.158,-0.059 6.316,-0.118 9.57,-0.179c8.138,0.96 8.138,0.96 16.471,9.294c1.823,10.156 1.823,10.156 0,20.833c-19.118,16.311 -42.956,16.265 -66.927,18.75c-9.099,1.033 -18.198,2.074 -27.295,3.125c-6.781,0.773 -6.781,0.773 -13.698,1.562c-17.921,2.168 -35.716,4.959 -53.538,7.812c-38.568,6.059 -77.286,10.067 -116.116,14.044c-29.917,3.118 -59.635,6.825 -89.352,11.477c-41.199,6.446 -82.904,12.823 -124.74,9.896c-4.167,-4.167 -4.167,-4.167 -4.948,-16.406c0.781,-12.76 0.781,-12.76 9.115,-21.094c9.79,-2.212 9.79,-2.212 22.266,-3.874c4.697,-0.639 9.395,-1.279 14.234,-1.938c5.142,-0.66 10.285,-1.321 15.583,-2.001c8,-1.067 8,-1.067 16.161,-2.156c44.909,-5.944 89.905,-11.169 134.909,-16.344c38.499,-4.429 76.866,-9.294 115.152,-15.321c25.014,-3.923 50.068,-7.064 75.234,-9.842c12.2,-1.354 24.273,-2.887 36.376,-4.954c10.696,-1.733 20.723,-2.592 31.543,-2.686Z" style="fill:#444c39;fill-rule:nonzero;"/><path d="M947.812,178.081c8.333,8.333 8.333,8.333 9.375,18.75c-1.042,10.417 -1.042,10.417 -9.375,18.75c-36.719,9.432 -76.023,11.467 -113.689,15.369c-17.196,1.783 -34.387,3.617 -51.578,5.448c-3.395,0.361 -6.79,0.722 -10.287,1.093c-27.014,2.885 -53.991,6.026 -80.956,9.34c-40.569,4.96 -81.164,9.657 -121.78,14.213c-6.779,0.762 -13.558,1.527 -20.336,2.297c-9.506,1.078 -19.013,2.141 -28.522,3.2c-2.843,0.325 -5.685,0.65 -8.614,0.984c-29.976,3.299 -29.976,3.299 -43.404,2.222c-8.333,-8.333 -8.333,-8.333 -9.375,-20.833c1.042,-12.5 1.042,-12.5 9.375,-20.833c10.394,-2.145 10.394,-2.145 23.861,-3.727c7.722,-0.927 7.722,-0.927 15.6,-1.873c5.77,-0.652 11.54,-1.303 17.311,-1.952c6.044,-0.706 12.089,-1.414 18.133,-2.123c63.42,-7.361 126.943,-13.834 190.455,-20.338c49.789,-5.104 99.536,-10.378 149.199,-16.603c21.707,-2.643 42.738,-4.641 64.609,-3.384Z" style="fill:#434b39;fill-rule:nonzero;"/><path d="M868.645,532.248c4.167,4.167 4.167,4.167 5.729,16.146c-1.562,13.021 -1.562,13.021 -9.724,19.742c-16.677,7.605 -32.207,9.36 -50.318,11.264c-3.644,0.425 -7.288,0.85 -11.042,1.288c-11.63,1.348 -23.267,2.629 -34.906,3.904c-15.242,1.722 -30.481,3.471 -45.719,5.225c-5.503,0.627 -5.503,0.627 -11.117,1.266c-23.435,2.713 -46.649,6.092 -69.884,10.203c-16.458,2.809 -32.986,4.698 -49.582,6.483c-3.142,0.36 -6.284,0.72 -9.521,1.09c-34.152,3.755 -34.152,3.755 -51.416,2.555c-8.333,-8.333 -8.333,-8.333 -10.156,-18.49c1.823,-10.677 1.823,-10.677 9.949,-17.204c16.862,-7.926 32.806,-9.946 51.184,-12.223c3.762,-0.504 7.523,-1.008 11.399,-1.528c12.189,-1.621 24.385,-3.174 36.583,-4.722c8.36,-1.093 16.719,-2.19 25.078,-3.29c20.318,-2.66 40.643,-5.261 60.972,-7.835c9.68,-1.23 19.358,-2.475 29.035,-3.731c14.325,-1.853 28.654,-3.67 42.987,-5.457c5.908,-0.749 5.908,-0.749 11.934,-1.514c23.009,-2.75 45.355,-3.96 68.534,-3.174Z" style="fill:#454d3a;fill-rule:nonzero;"/><path d="M339.478,432.248c6.002,34.81 6.415,55.642 -14.079,84.749c-10.523,17.268 -14.442,35.885 -19.629,55.29c-10.985,40.922 -26.956,67.905 -57.959,97.461l-4.167,0l0,-50c-15.028,-7.514 -25.35,-10.275 -41.667,-12.5c5.414,-6.059 5.414,-6.059 10.938,-12.24c21.332,-25.17 37.534,-50.449 50.789,-80.658c36.144,-82.102 36.144,-82.102 75.773,-82.102Z" style="fill:#f9faf7;fill-rule:nonzero;"/><path d="M751.978,315.581c8.333,12.5 8.333,12.5 6.771,23.698c-0.859,3.18 -1.719,6.359 -2.604,9.635c-23.451,9.246 -47,11.721 -71.842,14.616c-4.51,0.543 -9.019,1.086 -13.666,1.646c-9.517,1.14 -19.036,2.267 -28.556,3.381c-14.506,1.702 -29.005,3.453 -43.504,5.21c-9.272,1.104 -18.543,2.206 -27.816,3.304c-6.46,0.781 -6.46,0.781 -13.05,1.578c-45.995,5.329 -45.995,5.329 -68.232,3.598c-8.333,-12.5 -8.333,-12.5 -6.771,-23.698c0.859,-3.18 1.719,-6.359 2.604,-9.635c23.574,-7.444 46.795,-11.365 71.273,-14.616c4.002,-0.543 8.004,-1.086 12.127,-1.646c8.442,-1.138 16.885,-2.265 25.329,-3.381c12.778,-1.697 25.547,-3.451 38.317,-5.21c96.326,-13.028 96.326,-13.028 119.621,-8.48Z" style="fill:#434b39;fill-rule:nonzero;"/><path d="M435.312,744.748c23.526,2.002 53.447,7.614 70.833,25c2.1,8.936 2.1,8.936 0,20.833c-8.834,10.343 -19.214,18.912 -29.427,27.865c-5.444,5.154 -10.813,10.388 -16.097,15.706c-2.381,2.341 -4.762,4.682 -7.215,7.093c-6.91,9.473 -8.015,16.37 -8.719,27.982c2.585,10.16 2.585,10.16 7.292,21.354c2.038,5.789 4.06,11.584 6.071,17.383c5.901,16.606 12.304,32.954 18.929,49.284c-19.792,11.979 -19.792,11.979 -29.167,16.667l0,-8.333l-12.5,0c-38.558,-95.861 -38.558,-95.861 -33.333,-129.167c12.717,-18.701 28.171,-31.868 45.833,-45.833c-18.562,-8.25 -18.562,-8.25 -37.5,-16.667c5.5,-2.75 11,-5.5 16.667,-8.333c1.375,-4.125 2.75,-8.25 4.167,-12.5c1.375,-1.375 2.75,-2.75 4.167,-4.167l0,-4.167Z" style="fill:#404936;fill-rule:nonzero;"/><path d="M214.478,203.081l62.5,0c5.4,13.274 10.779,26.556 16.146,39.844c1.52,3.73 3.04,7.46 4.606,11.304c20.915,51.907 20.915,51.907 20.915,78.019c-31.625,5.5 -63.25,11 -95.833,16.667c6.188,-22.688 6.188,-22.688 12.5,-45.833c4.496,-32.11 0.03,-55.503 -16.276,-83.496c-4.557,-8.171 -4.557,-8.171 -4.557,-16.504Z" style="fill:#f8f9f7;fill-rule:nonzero;"/><path d="M944.426,290.06c5.215,-0.011 10.431,-0.021 15.804,-0.033c12.581,0.553 12.581,0.553 16.748,4.72c1.042,12.24 1.042,12.24 0,25c-14.333,9.555 -23.207,10.576 -40.186,12.793c-4.046,0.537 -4.046,0.537 -8.174,1.085c-5.703,0.75 -11.408,1.485 -17.116,2.205c-8.673,1.096 -17.339,2.243 -26.004,3.4c-51.895,6.766 -51.895,6.766 -71.021,5.518c-8.333,-8.333 -8.333,-8.333 -9.635,-20.833c0.43,-4.125 0.859,-8.25 1.302,-12.5c12.389,-8.259 16.358,-9.573 30.452,-10.824c3.456,-0.33 6.913,-0.661 10.474,-1.001c3.596,-0.309 7.192,-0.618 10.897,-0.936c7.114,-0.646 14.226,-1.302 21.338,-1.969c4.725,-0.411 4.725,-0.411 9.545,-0.831c8.969,-0.919 8.969,-0.919 17.561,-3.276c12.63,-3.127 25.044,-2.545 38.015,-2.518Z" style="fill:#434b38;fill-rule:nonzero;"/><path d="M118.645,598.914c2.75,1.375 5.5,2.75 8.333,4.167c-1.375,5.5 -2.75,11 -4.167,16.667c5.204,2.008 10.413,4.002 15.625,5.99c2.9,1.112 5.801,2.224 8.789,3.369c8.463,2.981 16.851,5.282 25.586,7.308l0,8.333l33.333,0l0,4.167c-31.919,2.128 -58.057,-4.081 -87.5,-16.667c-8.333,-8.333 -8.333,-8.333 -8.854,-19.271c0.172,-3.266 0.344,-6.531 0.521,-9.896c2.75,-1.375 5.5,-2.75 8.333,-4.167Z" style="fill:#5c6253;fill-rule:nonzero;"/><path d="M860.312,532.248c-1.375,6.875 -2.75,13.75 -4.167,20.833c-2.75,-2.75 -5.5,-5.5 -8.333,-8.333c-9.678,-1.669 -19.406,-3.082 -29.167,-4.167c15.184,-10.123 23.802,-9.007 41.667,-8.333Z" style="fill:#3e4635;fill-rule:nonzero;"/><path d="M497.812,344.748l29.167,0l0,4.167c-9.625,1.375 -19.25,2.75 -29.167,4.167l0,-8.333Zm-8.333,8.333l8.333,0c1.375,6.875 2.75,13.75 4.167,20.833c-4.125,-1.375 -8.25,-2.75 -12.5,-4.167l0,-16.667Z" style="fill:#39402e;fill-rule:nonzero;"/><path d="M210.312,548.914c-5.806,14.03 -12.412,20.775 -25,29.167c-2.75,-2.75 -5.5,-5.5 -8.333,-8.333c23.958,-20.833 23.958,-20.833 33.333,-20.833Z" style="fill:#4c5244;fill-rule:nonzero;"/><path d="M960.312,748.914c-1.375,4.125 -2.75,8.25 -4.167,12.5c-11.979,0.521 -11.979,0.521 -25,0c-2.75,-2.75 -5.5,-5.5 -8.333,-8.333c12.805,-3.794 24.171,-4.537 37.5,-4.167Z" style="fill:#4f5645;fill-rule:nonzero;"/></svg>